<svg xmlns="http://www.w3.org/2000/svg" viewBox="0 0 365 363" width="365" height="363"><path d="M 196.500,349.127 C 193.627,348.758 188.974,346.671 184.860,343.905 L 180.469,340.954 L 178.860,342.056 C 177.974,342.663 176.575,343.785 175.750,344.551 C 174.925,345.316 172.720,346.657 170.851,347.530 C 167.645,349.027 167.187,349.106 162.817,348.914 C 156.996,348.660 153.609,347.122 149.250,342.756 C 144.995,338.493 143.737,335.096 143.786,328.000 C 143.837,320.655 144.932,318.389 153.236,308.459 C 159.102,301.444 161.275,296.470 163.484,285.000 C 165.184,276.177 166.435,256.330 166.479,237.504 L 166.500,228.258 L 195.375,199.453 C 211.256,183.610 225.210,170.046 226.384,169.311 C 228.446,168.021 228.888,167.959 239.384,167.481 C 263.416,166.386 270.532,165.959 276.750,165.239 C 284.630,164.327 290.829,163.167 294.460,161.923 C 297.352,160.933 304.758,156.791 305.378,155.817 C 305.939,154.936 313.491,148.834 315.914,147.304 C 317.083,146.567 319.942,145.476 322.268,144.881 C 326.105,143.900 326.788,143.859 329.624,144.441 C 333.714,145.282 337.993,147.597 341.240,150.728 C 345.608,154.939 346.982,158.314 346.992,164.856 C 347.002,170.652 345.899,173.817 342.526,177.671 C 341.179,179.211 339.941,180.897 339.776,181.419 C 339.335,182.807 340.172,184.608 342.929,188.206 C 346.376,192.703 347.253,195.258 347.235,200.750 C 347.217,206.194 346.276,208.612 342.473,212.984 C 340.579,215.162 338.831,216.500 335.827,218.073 C 331.867,220.147 331.612,220.208 326.951,220.229 C 324.312,220.241 321.612,219.998 320.951,219.690 C 315.387,217.094 313.762,216.085 310.488,213.192 C 301.959,205.657 298.484,203.657 290.250,201.542 C 282.361,199.517 274.006,198.734 249.750,197.749 C 232.964,197.068 216.000,196.777 216.000,197.172 C 216.000,197.578 238.848,219.903 245.000,225.508 C 251.519,231.447 258.622,237.520 260.806,239.023 C 276.512,249.831 279.896,251.295 290.807,252.003 C 298.744,252.519 300.486,252.825 303.735,254.275 C 310.188,257.155 314.513,261.407 316.354,266.684 C 317.676,270.470 317.537,277.839 316.074,281.571 C 313.651,287.753 305.589,292.955 296.391,294.271 C 295.094,294.457 293.830,294.866 293.582,295.179 C 293.335,295.493 293.009,297.550 292.858,299.750 C 292.311,307.734 287.095,315.516 280.576,318.074 C 276.945,319.498 269.958,319.632 266.344,318.347 C 261.011,316.450 257.082,313.101 254.721,308.444 C 252.622,304.300 252.041,301.904 251.215,293.971 C 250.230,284.519 249.521,282.063 245.901,275.556 C 243.217,270.733 236.316,261.420 231.185,255.699 C 229.237,253.527 226.543,250.429 225.197,248.814 C 221.147,243.956 195.341,218.039 194.853,218.341 C 194.602,218.496 194.527,220.649 194.685,223.185 C 194.842,225.696 195.000,234.387 195.038,242.500 C 195.104,256.828 195.360,262.307 196.501,273.750 C 197.441,283.184 198.265,287.643 200.058,293.000 C 202.406,300.011 203.244,301.570 207.996,307.750 C 213.995,315.553 214.905,316.837 216.223,319.357 C 218.886,324.451 219.026,332.549 216.534,337.433 C 212.618,345.110 204.071,350.099 196.500,349.127 Z M 85.388,318.958 C 81.116,318.333 77.965,316.759 75.156,313.849 C 70.941,309.481 69.440,305.878 68.747,298.463 L 68.439,295.176 L 66.095,294.361 C 64.805,293.912 62.424,293.312 60.803,293.026 C 48.954,290.939 41.776,280.086 44.734,268.731 C 46.639,261.417 50.400,257.075 57.055,254.509 C 60.443,253.202 62.159,252.887 68.156,252.468 C 72.058,252.196 76.359,251.722 77.714,251.415 C 82.157,250.410 90.564,246.612 94.000,244.059 C 98.837,240.465 106.686,233.968 113.746,227.713 C 125.014,217.732 219.571,123.048 226.058,115.250 C 226.974,114.150 229.079,111.782 230.736,109.987 C 235.445,104.889 246.000,90.533 246.000,89.226 C 246.000,89.049 246.427,88.305 246.949,87.572 C 248.538,85.340 249.939,80.216 250.498,74.593 C 251.442,65.098 252.017,62.141 253.527,59.025 C 254.337,57.352 255.000,55.862 255.000,55.712 C 255.000,55.562 255.731,54.321 256.625,52.954 C 258.255,50.460 262.149,47.694 266.686,45.806 C 270.955,44.029 279.533,45.227 283.750,48.188 C 288.199,51.312 291.344,57.307 292.571,65.000 C 293.215,69.036 293.890,70.000 296.071,70.000 C 299.730,70.000 306.325,72.451 309.861,75.125 C 315.018,79.026 317.194,83.942 317.219,91.750 C 317.234,96.293 317.103,97.014 315.781,99.636 C 313.153,104.851 309.731,107.947 303.283,110.945 C 301.192,111.917 299.489,112.166 292.129,112.576 C 284.183,113.019 283.039,113.205 278.696,114.757 C 270.280,117.764 263.443,122.569 248.500,135.979 C 238.687,144.785 160.415,222.464 146.959,236.750 C 136.978,247.347 125.969,260.164 120.976,267.000 C 116.515,273.107 116.099,273.765 114.111,277.846 C 111.703,282.789 111.104,285.526 110.484,294.410 C 110.064,300.444 109.746,302.190 108.466,305.511 C 104.700,315.276 95.771,320.479 85.388,318.958 Z M 30.000,220.053 C 24.532,218.812 18.279,213.880 15.840,208.883 C 12.242,201.511 13.132,194.149 18.485,187.008 C 21.792,182.595 21.781,181.041 18.415,177.152 C 15.034,173.247 13.880,170.068 13.904,164.726 C 13.920,160.987 14.146,159.699 15.203,157.308 C 18.358,150.175 24.028,145.678 31.479,144.400 C 34.269,143.922 35.506,143.926 37.379,144.417 C 42.169,145.675 45.716,147.291 47.438,149.000 C 53.296,154.812 64.355,162.000 67.441,162.000 C 67.991,162.000 68.561,162.195 68.708,162.433 C 68.855,162.671 69.825,163.015 70.863,163.199 C 75.469,164.013 82.013,164.949 85.000,165.220 C 96.367,166.253 99.673,166.477 107.750,166.759 C 112.700,166.932 117.987,167.154 119.500,167.253 C 129.652,167.920 144.376,168.105 144.706,167.571 C 145.291,166.625 111.064,133.491 103.250,127.437 C 93.795,120.112 90.884,118.172 85.750,115.776 C 81.641,113.858 79.997,113.532 70.500,112.756 C 64.498,112.265 61.433,111.777 59.250,110.966 C 45.000,105.669 39.741,91.350 47.662,79.416 C 48.694,77.861 50.486,75.825 51.644,74.891 C 53.810,73.144 59.785,70.948 64.982,69.989 C 66.485,69.712 67.877,69.320 68.074,69.118 C 68.272,68.915 68.655,67.287 68.927,65.500 C 69.655,60.705 70.205,58.896 72.058,55.209 C 75.702,47.958 84.105,43.605 91.701,45.034 C 99.503,46.502 106.707,53.384 109.235,61.783 C 109.637,63.119 110.224,67.484 110.540,71.482 C 110.855,75.479 111.407,79.650 111.767,80.750 C 113.096,84.812 115.469,90.153 116.840,92.166 C 122.034,99.796 126.539,105.235 137.408,117.000 C 144.830,125.033 165.871,146.000 166.511,146.000 C 167.814,146.000 166.744,109.119 164.958,92.500 C 162.550,70.095 161.192,65.150 155.519,58.129 C 154.240,56.546 151.654,53.347 149.773,51.021 C 145.931,46.270 144.444,43.286 143.485,38.404 C 142.949,35.675 142.945,34.522 143.464,32.154 C 145.005,25.120 149.115,19.558 154.909,16.668 C 157.518,15.366 158.200,15.251 163.250,15.261 C 168.257,15.271 169.004,15.397 171.582,16.674 C 173.140,17.445 175.762,19.297 177.411,20.788 C 179.059,22.280 180.551,23.500 180.726,23.500 C 180.901,23.500 182.385,22.384 184.024,21.020 C 189.955,16.084 193.601,14.743 200.118,15.101 C 205.020,15.370 207.102,16.296 211.179,20.022 C 213.158,21.830 214.548,23.718 215.870,26.392 C 217.568,29.824 217.767,30.650 217.925,34.900 C 218.213,42.630 217.580,44.037 208.855,55.076 C 203.560,61.775 200.840,66.777 199.467,72.338 C 197.944,78.512 196.318,90.926 195.746,100.750 C 195.585,103.500 195.366,106.875 195.258,108.250 C 195.149,109.625 194.920,116.150 194.749,122.750 C 194.577,129.350 194.309,135.200 194.153,135.750 C 193.997,136.300 191.705,138.984 189.060,141.714 C 177.562,153.579 135.637,195.401 134.500,196.139 C 133.465,196.810 131.485,196.968 123.000,197.055 C 113.048,197.157 110.752,197.267 92.750,198.512 C 78.550,199.495 70.969,200.832 64.513,203.495 C 60.101,205.314 54.829,208.918 50.338,213.186 C 47.767,215.628 44.551,217.799 41.679,219.030 C 39.062,220.152 32.840,220.697 30.000,220.053 Z" fill="#000000" fill-rule="evenodd" /></svg>