<svg xmlns="http://www.w3.org/2000/svg" viewBox="0 0 354 353" width="354" height="353"><path d="M 38.500,337.282 C 31.614,335.360 25.035,330.338 22.771,325.278 C 20.509,320.220 19.892,317.662 19.930,313.500 C 19.991,306.850 22.221,301.829 27.366,296.763 C 31.619,292.575 34.294,291.457 42.250,290.541 L 46.250,290.080 L 55.423,280.665 C 60.468,275.487 72.280,263.412 81.673,253.833 C 93.528,241.742 98.800,236.029 98.914,235.152 C 99.020,234.331 98.569,233.250 97.630,232.069 C 96.833,231.069 95.201,228.797 94.002,227.021 C 92.803,225.246 90.550,222.096 88.995,220.021 C 85.322,215.122 76.596,202.023 74.659,198.500 C 73.828,196.988 72.634,194.850 72.007,193.750 C 69.482,189.321 67.938,185.945 68.090,185.187 C 68.383,183.725 84.328,174.994 86.973,174.847 C 88.680,174.752 88.765,174.840 90.735,178.750 C 91.843,180.950 93.299,184.069 93.970,185.681 C 95.624,189.652 101.550,200.063 104.016,203.330 C 108.535,209.314 114.141,213.510 121.042,216.071 C 126.435,218.072 128.482,218.565 132.597,218.849 C 134.438,218.976 136.146,219.343 136.394,219.665 C 136.642,219.987 137.130,222.236 137.480,224.664 C 138.473,231.566 140.867,238.292 144.451,244.252 C 145.760,246.429 149.952,251.000 150.640,251.000 C 150.875,251.000 151.813,251.570 152.726,252.266 C 153.639,252.962 156.830,255.018 159.818,256.836 C 162.806,258.653 165.925,260.553 166.750,261.059 C 167.575,261.564 169.534,262.655 171.103,263.485 C 177.419,266.822 182.449,270.050 182.734,270.949 C 182.901,271.476 182.637,272.569 182.143,273.401 C 181.652,274.227 180.154,276.781 178.814,279.076 C 177.474,281.372 175.618,284.413 174.689,285.835 C 173.760,287.256 173.000,288.635 173.000,288.899 C 173.000,289.162 172.676,289.647 172.279,289.976 C 171.711,290.447 171.154,290.385 169.654,289.681 C 164.390,287.211 152.935,280.011 145.000,274.184 C 143.762,273.276 141.850,271.886 140.750,271.096 C 134.880,266.882 130.456,263.553 128.000,261.502 C 124.791,258.823 122.782,257.500 121.922,257.500 C 121.584,257.500 120.431,258.456 119.358,259.625 C 116.545,262.691 71.251,308.094 69.151,309.953 C 67.886,311.073 67.462,311.801 67.653,312.530 C 68.118,314.309 67.050,319.903 65.456,324.036 C 62.811,330.894 57.771,335.272 50.270,337.224 C 46.758,338.138 41.656,338.164 38.500,337.282 Z M 152.600,244.400 C 152.270,244.070 152.000,243.647 152.000,243.460 C 152.000,243.274 150.906,240.787 149.568,237.935 C 147.176,232.834 144.000,222.331 144.000,219.518 C 144.000,218.360 145.388,216.602 151.185,210.417 C 155.137,206.200 160.143,201.102 162.310,199.087 C 164.477,197.073 169.721,191.785 173.962,187.337 C 178.204,182.889 186.529,174.298 192.462,168.246 C 203.842,156.638 221.452,138.307 227.283,132.001 C 239.769,118.497 240.106,118.321 239.029,125.854 C 238.683,128.272 238.186,132.500 237.924,135.250 C 237.661,138.000 237.243,142.275 236.994,144.750 C 236.746,147.225 236.389,152.062 236.202,155.500 C 235.992,159.363 235.580,162.323 235.123,163.250 C 234.716,164.075 220.291,178.824 203.067,196.025 C 185.842,213.226 169.040,230.101 165.727,233.525 C 159.399,240.064 154.166,245.000 153.560,245.000 C 153.362,245.000 152.930,244.730 152.600,244.400 Z M 130.750,211.237 C 127.101,210.284 125.816,209.842 120.000,207.538 C 114.631,205.411 112.500,203.808 112.500,201.894 C 112.500,201.182 117.969,195.339 129.439,183.796 C 161.774,151.256 208.304,104.226 212.516,99.827 C 217.149,94.988 226.395,86.729 226.765,87.099 C 227.027,87.361 226.173,92.469 225.485,94.750 C 225.236,95.575 224.595,98.162 224.061,100.500 C 221.599,111.268 220.900,115.100 221.320,115.520 C 221.566,115.766 224.444,116.030 227.717,116.108 C 232.207,116.215 233.724,116.418 233.895,116.933 C 234.024,117.322 232.194,119.474 229.641,121.933 C 227.176,124.307 220.005,131.190 213.705,137.228 C 198.382,151.912 156.730,193.242 146.750,203.665 L 138.750,212.019 L 136.000,211.954 C 134.488,211.919 132.125,211.596 130.750,211.237 Z M 248.199,146.875 C 248.372,146.256 249.068,141.137 249.745,135.500 C 250.422,129.863 251.214,123.562 251.504,121.500 C 251.794,119.438 252.345,114.674 252.729,110.914 L 253.426,104.079 L 261.383,96.164 C 268.332,89.252 277.000,78.873 277.000,77.464 C 277.000,76.444 276.085,77.187 272.353,81.240 C 266.707,87.373 251.026,101.330 248.841,102.169 C 247.264,102.774 236.830,103.448 236.316,102.978 C 236.075,102.758 237.163,98.041 238.750,92.416 C 240.328,86.825 242.140,80.197 242.778,77.687 C 245.594,66.594 244.283,68.606 257.232,55.500 C 263.616,49.037 271.183,41.309 274.045,38.325 C 276.908,35.341 279.925,32.549 280.750,32.120 C 281.575,31.691 284.613,30.714 287.500,29.951 C 292.903,28.521 295.456,27.777 313.000,22.522 C 318.637,20.834 325.500,18.895 328.250,18.214 C 331.000,17.533 334.056,16.732 335.042,16.435 C 337.612,15.660 338.771,16.007 338.653,17.514 C 338.522,19.168 332.532,42.820 328.146,59.000 C 327.214,62.438 326.252,66.263 326.008,67.500 C 324.827,73.488 324.947,73.355 281.223,117.287 C 273.813,124.732 265.033,133.627 261.712,137.054 C 253.248,145.788 247.290,150.118 248.199,146.875 Z" fill="#000000" fill-rule="evenodd" /></svg>