<svg xmlns="http://www.w3.org/2000/svg" viewBox="0 0 433 459" width="433" height="459"><path d="M 53.750,441.552 C 53.200,441.307 51.737,440.833 50.500,440.499 C 43.335,438.567 34.457,433.410 29.707,428.421 C 23.457,421.855 19.254,413.765 17.981,405.844 C 17.166,400.777 17.620,393.056 18.956,389.255 C 20.105,385.987 22.189,383.000 23.321,383.000 C 23.744,383.000 25.251,383.982 26.670,385.182 C 29.743,387.781 30.940,388.443 34.050,389.263 C 36.974,390.035 40.544,389.464 43.647,387.730 C 46.046,386.389 52.204,381.146 53.422,379.407 C 53.836,378.815 61.617,370.870 70.713,361.753 C 96.389,336.013 100.902,330.694 99.457,327.870 C 98.595,326.185 94.715,321.212 90.975,317.000 C 89.144,314.938 86.375,311.473 84.823,309.300 C 81.620,304.819 81.507,304.173 82.924,298.469 C 83.432,296.424 84.123,293.512 84.460,292.000 C 85.349,288.014 85.959,286.438 89.751,278.323 C 91.049,275.546 96.154,269.500 97.202,269.500 C 97.596,269.500 98.019,271.505 98.441,275.375 C 99.357,283.776 102.854,294.830 105.905,298.968 C 108.412,302.368 118.477,312.845 136.816,331.144 C 156.026,350.312 160.252,353.929 167.974,357.811 C 170.051,358.855 172.537,360.017 173.500,360.393 C 176.638,361.619 184.724,363.982 185.814,363.991 C 186.399,363.996 187.748,364.363 188.811,364.808 L 190.743,365.615 L 188.997,367.095 C 184.700,370.736 172.841,375.619 163.750,377.490 C 162.100,377.830 160.098,378.309 159.300,378.554 C 157.017,379.257 154.882,379.077 153.180,378.039 C 152.316,377.512 149.279,374.734 146.430,371.865 C 139.623,365.011 134.565,360.929 131.180,359.559 C 128.278,358.385 126.068,360.142 107.350,378.500 C 94.743,390.865 78.639,406.973 75.250,410.609 C 69.906,416.341 68.117,421.260 69.519,426.363 C 70.236,428.974 70.806,430.001 73.620,433.750 C 74.651,435.125 75.497,436.609 75.498,437.048 C 75.501,438.050 74.131,439.275 72.500,439.731 C 71.812,439.923 70.463,440.438 69.500,440.877 C 67.498,441.789 55.439,442.306 53.750,441.552 Z M 370.750,441.681 C 364.625,440.437 360.000,438.433 360.000,437.022 C 360.000,436.787 361.008,434.961 362.239,432.963 C 364.508,429.283 366.000,425.222 366.000,422.724 C 366.000,421.047 364.141,415.708 362.961,414.000 C 361.948,412.532 329.115,379.869 314.944,366.232 C 309.371,360.869 305.952,358.728 304.327,359.584 C 302.420,360.590 297.787,363.840 296.500,365.075 C 295.812,365.735 293.337,367.882 291.000,369.847 C 288.663,371.811 285.772,374.450 284.578,375.712 C 282.040,378.391 280.983,378.745 276.827,378.311 C 269.181,377.513 251.382,371.249 246.774,367.734 C 244.971,366.360 244.434,365.000 245.693,365.000 C 246.075,365.000 248.268,364.433 250.568,363.739 C 252.868,363.046 255.988,362.141 257.500,361.729 C 263.146,360.191 269.496,357.061 276.117,352.552 C 277.418,351.666 283.268,346.068 289.117,340.112 C 294.965,334.157 306.068,322.932 313.791,315.169 C 330.147,298.727 329.255,300.028 334.986,284.250 C 336.189,280.939 336.954,277.015 337.215,272.827 C 337.332,270.945 337.561,269.272 337.723,269.110 C 338.462,268.371 346.000,277.366 346.000,278.987 C 346.000,279.285 346.652,280.820 347.449,282.399 C 350.228,287.904 352.604,296.176 353.235,302.538 L 353.561,305.826 L 350.549,309.815 C 348.892,312.009 346.010,315.547 344.143,317.677 C 339.109,323.421 337.018,326.072 336.157,327.802 C 335.452,329.218 335.459,329.513 336.240,331.158 C 336.710,332.149 338.555,334.488 340.339,336.355 C 342.123,338.222 344.436,340.875 345.479,342.250 C 346.522,343.625 349.338,346.663 351.737,349.000 C 354.136,351.337 356.694,353.925 357.422,354.750 C 361.217,359.054 387.151,384.591 389.600,386.436 C 394.017,389.763 398.999,390.849 402.716,389.297 C 403.642,388.910 406.254,387.293 408.521,385.705 L 412.643,382.817 L 413.644,384.033 C 418.788,390.282 419.124,403.844 414.411,415.000 C 413.910,416.187 413.523,416.960 412.280,419.250 C 407.820,427.474 401.521,433.044 390.500,438.513 C 386.806,440.345 385.286,440.863 381.783,441.478 C 378.911,441.983 372.793,442.096 370.750,441.681 Z M 151.825,331.546 C 142.380,322.101 142.588,322.585 146.631,319.481 C 147.829,318.561 149.557,316.834 150.472,315.643 C 151.386,314.452 152.779,313.096 153.567,312.631 C 154.355,312.165 155.000,311.564 155.000,311.295 C 155.000,310.820 182.673,283.261 183.827,282.587 C 184.145,282.402 185.945,280.788 187.827,279.002 C 189.710,277.215 193.275,273.982 195.750,271.818 C 198.225,269.654 202.078,266.053 204.313,263.817 C 206.548,261.580 210.913,257.387 214.013,254.500 C 222.604,246.498 228.534,240.890 235.974,233.731 C 239.701,230.145 244.991,225.083 247.731,222.481 C 254.644,215.915 284.991,185.167 292.532,177.089 C 295.952,173.425 300.053,168.829 301.646,166.877 C 303.240,164.924 305.940,161.841 307.646,160.026 C 310.132,157.384 326.219,136.383 330.838,129.750 C 332.585,127.242 334.065,124.398 333.775,124.108 C 333.624,123.957 333.428,123.927 333.340,124.042 C 329.160,129.493 322.398,137.005 314.023,145.500 C 308.194,151.412 302.585,157.150 301.559,158.250 C 300.532,159.350 292.732,166.887 284.225,175.000 C 275.717,183.113 267.743,190.808 266.503,192.101 C 265.264,193.394 263.350,195.157 262.250,196.017 C 261.150,196.878 258.445,199.307 256.240,201.416 C 254.034,203.525 249.654,207.613 246.506,210.500 C 243.358,213.387 238.722,217.775 236.204,220.250 C 233.685,222.725 230.187,226.100 228.430,227.750 C 216.027,239.397 205.985,249.094 202.065,253.209 C 199.541,255.858 193.726,261.563 189.143,265.888 C 179.451,275.031 173.297,281.102 167.869,286.875 C 165.735,289.144 163.881,291.000 163.748,291.000 C 163.380,291.000 152.080,301.912 144.444,309.642 L 137.636,316.534 L 132.160,311.142 C 129.148,308.176 125.405,304.668 123.842,303.346 C 120.756,300.736 120.356,299.537 122.173,298.346 C 122.819,297.923 125.162,296.041 127.382,294.164 C 129.601,292.286 132.828,289.625 134.553,288.250 C 136.277,286.875 141.104,282.488 145.280,278.500 C 153.497,270.653 161.792,262.896 167.089,258.104 C 168.926,256.442 172.976,252.314 176.089,248.931 C 179.203,245.548 182.875,241.634 184.250,240.234 C 198.796,225.419 206.917,217.014 212.979,210.500 C 216.946,206.238 222.229,200.663 224.720,198.112 C 233.543,189.080 236.261,183.042 237.226,170.340 C 237.368,168.464 237.614,166.720 237.772,166.465 C 238.183,165.799 240.295,165.919 243.750,166.804 C 248.306,167.971 252.679,168.963 253.356,168.982 C 254.321,169.010 257.841,163.434 258.900,160.202 C 259.690,157.787 259.883,155.614 259.960,148.263 C 260.019,142.644 260.251,139.154 260.578,138.952 C 261.113,138.621 262.014,138.789 267.230,140.196 C 271.360,141.310 276.332,141.251 278.277,140.065 C 279.716,139.187 279.838,138.866 280.398,134.442 C 280.725,131.861 281.107,125.733 281.248,120.823 C 281.389,115.914 281.629,111.695 281.782,111.448 C 281.934,111.202 282.499,111.000 283.036,111.000 C 283.574,111.000 284.404,110.801 284.882,110.558 C 285.359,110.315 286.312,109.895 287.000,109.624 C 291.699,107.771 294.152,106.725 297.000,105.362 C 300.453,103.709 312.580,97.328 318.000,94.313 C 319.788,93.319 322.435,91.893 323.883,91.144 C 325.330,90.396 327.918,88.709 329.633,87.396 C 331.347,86.084 335.225,83.240 338.250,81.077 C 349.546,73.000 370.844,52.838 378.828,42.664 C 385.283,34.438 391.730,25.909 393.876,22.756 C 397.034,18.118 397.799,18.000 398.132,22.100 C 398.540,27.119 398.156,46.667 397.515,53.500 C 396.378,65.631 393.537,80.926 390.687,90.250 C 389.967,92.607 389.527,93.855 386.941,100.875 C 385.336,105.230 382.574,111.839 380.725,115.750 C 379.814,117.675 378.190,121.162 377.116,123.500 C 376.042,125.838 374.227,129.273 373.082,131.134 C 371.937,132.995 371.000,134.599 371.000,134.698 C 371.000,134.991 367.878,140.067 366.201,142.502 C 365.349,143.738 363.123,147.000 361.254,149.750 C 359.385,152.500 356.257,156.623 354.303,158.912 C 351.009,162.770 347.977,166.601 345.334,170.243 C 344.738,171.065 343.491,172.415 342.563,173.243 C 341.635,174.072 338.208,177.825 334.947,181.584 C 331.686,185.342 327.405,189.842 325.434,191.584 C 323.462,193.325 319.689,196.777 317.049,199.254 C 314.410,201.732 309.970,205.603 307.183,207.857 C 304.396,210.111 300.157,213.770 297.764,215.987 C 295.371,218.204 292.226,220.858 290.777,221.884 C 289.327,222.910 285.941,225.438 283.253,227.500 C 280.564,229.562 277.433,231.925 276.295,232.750 C 275.157,233.575 272.662,235.488 270.750,237.000 C 268.839,238.512 263.553,242.675 259.005,246.250 C 254.456,249.825 249.163,254.036 247.242,255.607 C 220.144,277.777 219.181,278.562 217.175,280.102 C 208.621,286.670 176.235,319.932 171.024,327.500 C 169.983,329.012 168.370,331.186 167.441,332.329 C 166.511,333.473 164.738,335.665 163.500,337.201 C 162.262,338.737 161.025,339.988 160.750,339.982 C 160.475,339.975 156.459,336.179 151.825,331.546 Z M 273.778,339.125 C 273.165,337.271 261.898,323.601 255.923,317.461 C 253.628,315.103 250.854,312.065 249.760,310.711 C 248.665,309.358 246.141,306.562 244.150,304.500 C 242.158,302.438 237.374,297.488 233.518,293.500 C 229.662,289.512 226.506,285.880 226.504,285.427 C 226.502,284.975 227.681,283.851 229.125,282.930 C 230.569,282.009 233.810,279.519 236.327,277.397 L 240.904,273.539 L 242.895,274.982 C 245.205,276.655 249.829,281.120 273.681,304.711 L 291.111,321.951 L 290.014,323.350 C 289.410,324.120 286.274,327.562 283.044,331.000 C 279.814,334.438 276.769,337.869 276.278,338.625 C 275.259,340.194 274.202,340.406 273.778,339.125 Z M 296.107,315.209 C 295.440,314.017 284.110,302.661 276.750,295.807 C 264.428,284.332 248.861,267.901 249.305,266.840 C 249.442,266.516 250.903,265.238 252.552,264.000 C 258.707,259.383 262.771,256.148 263.436,255.337 C 263.814,254.877 264.398,254.500 264.735,254.500 C 265.072,254.500 266.915,256.131 268.831,258.125 C 270.747,260.119 274.985,264.225 278.249,267.250 C 281.513,270.275 287.579,275.900 291.729,279.750 C 300.243,287.649 311.682,297.812 313.525,299.117 L 314.750,299.983 L 311.500,302.847 C 309.712,304.421 305.899,308.025 303.026,310.855 C 300.153,313.685 297.520,316.000 297.176,316.000 C 296.832,316.000 296.350,315.644 296.107,315.209 Z M 168.773,240.037 C 168.615,239.782 166.633,238.280 164.368,236.699 C 162.103,235.117 158.113,232.119 155.500,230.037 C 152.887,227.954 149.625,225.479 148.250,224.536 C 145.685,222.778 137.854,216.384 136.505,214.946 C 136.090,214.504 133.950,212.710 131.750,210.959 C 121.149,202.525 92.239,173.894 88.133,167.764 C 87.392,166.656 85.367,164.137 83.634,162.166 C 80.526,158.630 75.565,151.998 74.425,149.852 C 74.102,149.246 72.123,146.162 70.026,143.000 C 60.634,128.835 53.714,115.197 48.715,101.000 C 47.796,98.388 46.600,95.013 46.058,93.500 C 45.517,91.987 44.604,88.725 44.031,86.250 C 43.457,83.775 42.780,81.075 42.526,80.250 C 42.272,79.425 41.814,77.287 41.508,75.500 C 41.202,73.713 40.741,71.013 40.483,69.500 C 37.399,51.429 36.672,39.628 37.702,24.375 C 37.963,20.503 38.295,18.501 38.674,18.503 C 38.991,18.505 39.812,19.342 40.500,20.363 C 43.431,24.715 57.939,43.713 62.369,49.000 C 72.314,60.869 88.227,75.235 101.970,84.750 C 110.925,90.950 112.475,92.000 112.677,92.000 C 112.800,92.000 116.353,93.971 120.575,96.379 C 128.508,100.905 146.423,110.000 147.405,110.000 C 148.928,110.000 153.569,112.194 154.092,113.162 C 154.480,113.879 154.725,118.003 154.811,125.250 C 154.989,140.197 155.375,141.096 161.605,141.080 C 164.273,141.073 166.520,140.663 169.990,139.550 C 172.600,138.713 174.921,138.221 175.156,138.456 C 175.390,138.690 175.671,142.902 175.779,147.816 C 176.035,159.368 177.002,164.143 179.745,167.403 C 181.288,169.236 182.205,169.346 186.351,168.195 C 187.945,167.752 190.368,167.077 191.734,166.695 C 193.100,166.313 195.050,166.000 196.068,166.000 C 197.885,166.000 197.927,166.044 198.459,168.525 C 198.756,169.913 199.004,172.219 199.010,173.650 C 199.024,177.346 200.168,183.363 201.358,186.000 C 202.708,188.993 205.978,193.704 208.536,196.344 L 210.608,198.482 L 208.589,200.866 C 207.478,202.177 203.647,206.153 200.076,209.702 L 193.582,216.154 L 186.166,209.133 C 182.087,205.271 172.900,196.642 165.750,189.955 C 149.980,175.209 117.803,143.005 110.589,134.750 C 107.706,131.450 104.888,128.308 104.328,127.767 C 103.316,126.790 103.312,126.790 103.687,127.767 C 104.410,129.651 109.165,137.266 111.013,139.500 C 112.037,140.738 114.580,144.044 116.665,146.847 C 118.749,149.651 122.781,154.601 125.626,157.847 C 128.471,161.094 131.824,165.025 133.078,166.583 C 138.713,173.587 146.789,182.210 168.983,204.918 C 178.480,214.635 186.250,222.882 186.250,223.244 C 186.250,224.020 170.322,240.500 169.572,240.500 C 169.290,240.500 168.930,240.292 168.773,240.037 Z" fill="#000000" fill-rule="evenodd" /></svg>