<svg xmlns="http://www.w3.org/2000/svg" viewBox="0 0 535 527" width="535" height="527"><path d="M 73.873,510.988 C 69.131,509.793 63.584,505.955 56.478,498.952 C 50.328,492.892 48.343,488.910 49.198,484.354 C 49.565,482.394 50.214,481.519 63.961,464.438 C 77.266,447.906 77.479,447.647 82.764,441.500 C 85.247,438.613 88.397,434.788 89.764,433.000 C 91.131,431.212 94.387,427.178 97.000,424.034 C 99.612,420.889 102.650,417.147 103.750,415.718 C 104.850,414.289 108.000,410.467 110.750,407.226 C 113.500,403.985 117.296,399.415 119.185,397.071 C 123.359,391.891 136.922,375.885 145.512,366.000 C 148.977,362.012 153.374,356.822 155.281,354.464 C 157.189,352.107 161.562,346.791 165.000,342.651 C 176.625,328.650 179.734,324.878 185.896,317.304 C 189.276,313.150 193.535,307.837 195.360,305.500 C 197.184,303.163 199.827,299.900 201.233,298.250 C 205.475,293.272 216.494,279.693 222.331,272.250 C 230.237,262.170 236.140,254.895 241.021,249.218 C 243.370,246.485 246.601,242.562 248.202,240.500 C 251.566,236.165 258.704,227.505 268.957,215.317 C 272.921,210.605 277.858,204.613 279.929,202.000 C 281.999,199.387 286.462,193.941 289.846,189.898 C 293.230,185.854 297.518,180.561 299.374,178.136 C 303.450,172.813 306.344,169.243 307.930,167.581 C 308.579,166.900 310.702,164.298 312.647,161.797 C 314.592,159.296 317.773,155.360 319.717,153.050 C 321.660,150.741 324.925,146.803 326.971,144.300 C 339.997,128.374 345.422,122.000 345.953,122.000 C 346.808,122.000 372.005,141.803 371.997,142.469 C 371.992,142.833 368.295,147.628 363.236,153.829 C 361.028,156.536 358.778,159.345 358.236,160.073 C 355.900,163.207 347.147,174.431 339.609,183.959 C 323.056,204.882 321.048,207.440 314.069,216.500 C 310.149,221.588 305.816,227.100 304.439,228.750 C 303.062,230.400 300.047,234.225 297.740,237.250 C 295.433,240.275 292.174,244.438 290.498,246.500 C 288.823,248.562 285.371,252.950 282.828,256.250 C 280.284,259.550 275.626,265.530 272.477,269.540 C 259.371,286.224 254.604,292.300 252.000,295.643 C 246.837,302.271 244.748,304.907 238.750,312.363 C 232.207,320.496 227.272,326.848 218.831,338.000 C 214.011,344.368 210.893,348.371 199.743,362.500 C 198.332,364.288 193.270,370.812 188.493,377.000 C 183.716,383.188 177.994,390.407 175.779,393.044 C 173.563,395.681 170.028,400.069 167.923,402.794 C 162.246,410.146 150.920,424.684 147.313,429.250 C 143.289,434.343 129.124,452.233 125.738,456.500 C 124.319,458.288 122.170,461.100 120.962,462.750 C 119.755,464.400 116.963,467.998 114.758,470.745 C 112.554,473.492 109.755,477.092 108.539,478.745 C 107.323,480.398 104.173,484.473 101.539,487.802 C 98.905,491.130 94.688,496.642 92.169,500.052 C 87.562,506.283 85.149,509.048 83.194,510.331 C 81.848,511.215 76.320,511.604 73.873,510.988 Z M 457.500,510.125 C 456.262,509.714 451.312,507.905 446.500,506.105 C 441.688,504.305 437.023,502.574 436.134,502.259 C 435.246,501.943 434.364,501.531 434.176,501.343 C 433.988,501.154 433.539,501.000 433.179,501.000 C 432.819,501.000 431.051,500.325 429.250,499.500 C 427.449,498.675 425.790,498.000 425.564,498.000 C 425.338,498.000 424.500,497.684 423.702,497.298 C 422.064,496.506 419.464,495.355 414.000,493.004 C 411.938,492.116 408.625,490.627 406.639,489.695 C 404.653,488.763 402.794,488.000 402.507,488.000 C 402.221,488.000 401.596,487.782 401.118,487.515 C 400.641,487.249 398.450,486.210 396.250,485.207 C 384.557,479.877 385.189,480.385 372.704,466.250 C 370.761,464.050 362.552,454.815 354.461,445.728 C 346.370,436.640 336.712,425.741 333.000,421.506 C 329.288,417.271 324.471,411.881 322.297,409.528 C 320.123,407.175 316.714,403.299 314.721,400.915 C 312.729,398.531 308.629,393.806 305.611,390.415 C 302.593,387.024 298.914,382.849 297.437,381.137 C 295.959,379.425 290.587,373.384 285.500,367.712 C 258.987,338.152 252.323,330.563 249.370,326.571 C 247.635,324.226 247.462,323.755 247.979,322.789 C 248.304,322.183 251.274,318.438 254.579,314.468 C 257.885,310.498 261.715,305.731 263.092,303.875 C 264.468,302.019 265.775,300.500 265.995,300.500 C 266.457,300.500 277.920,312.610 292.066,328.042 C 297.464,333.931 302.429,339.312 303.097,340.000 C 303.766,340.688 307.549,344.738 311.504,349.000 C 315.459,353.262 324.015,362.262 330.517,369.000 C 337.019,375.738 346.594,385.743 351.794,391.235 C 362.179,402.201 370.030,410.183 374.943,414.769 C 377.593,417.244 378.002,417.490 377.353,416.219 C 376.924,415.377 375.149,412.991 373.411,410.918 C 363.352,398.917 359.523,394.434 357.033,391.738 C 354.117,388.581 344.964,377.619 340.836,372.338 C 336.362,366.615 328.284,356.844 323.218,351.028 C 320.450,347.850 315.500,341.972 312.218,337.965 C 306.846,331.407 302.158,325.806 286.349,307.062 C 283.653,303.865 279.533,298.949 277.193,296.136 L 272.938,291.022 L 276.698,286.386 C 278.766,283.836 281.843,280.062 283.535,278.000 C 285.228,275.938 287.754,272.619 289.148,270.625 C 290.543,268.631 291.924,267.008 292.217,267.018 C 292.510,267.028 293.355,267.985 294.094,269.143 C 295.355,271.120 297.129,273.228 304.672,281.713 C 306.365,283.618 311.012,288.922 315.000,293.501 C 329.643,310.316 331.848,312.821 336.772,318.231 C 339.535,321.267 343.916,326.225 346.510,329.250 C 351.393,334.947 352.133,335.786 366.569,352.001 C 371.344,357.363 376.596,363.326 378.242,365.251 C 379.888,367.175 383.404,371.113 386.056,374.000 C 388.707,376.887 392.874,381.630 395.314,384.538 C 400.259,390.433 410.393,402.067 417.253,409.724 C 419.729,412.488 422.992,416.210 424.503,417.994 C 426.014,419.777 429.654,423.976 432.592,427.323 C 435.530,430.671 438.370,434.274 438.902,435.330 C 440.583,438.660 447.384,458.746 454.197,480.500 C 455.188,483.663 456.215,486.925 456.480,487.750 C 457.041,489.499 460.443,502.435 461.016,505.000 C 461.231,505.962 461.653,507.536 461.954,508.497 C 462.254,509.457 462.500,510.414 462.500,510.622 C 462.500,511.204 459.997,510.956 457.500,510.125 Z M 201.422,273.600 C 201.052,273.076 198.690,270.421 196.172,267.699 C 193.653,264.977 190.191,261.062 188.477,259.000 C 184.798,254.572 179.614,248.651 176.659,245.500 C 175.498,244.262 173.019,241.397 171.149,239.132 C 169.280,236.867 164.959,231.917 161.548,228.132 C 158.136,224.347 151.724,217.214 147.298,212.282 C 142.871,207.349 137.000,200.820 134.250,197.772 C 131.500,194.725 127.569,190.323 125.515,187.991 C 118.777,180.340 119.188,180.677 117.944,181.789 C 115.530,183.950 105.543,200.062 100.769,209.500 C 99.725,211.562 97.551,215.653 95.936,218.590 C 94.321,221.527 93.000,224.170 93.000,224.465 C 93.000,225.116 91.383,225.175 90.725,224.547 C 89.978,223.835 86.527,222.000 85.935,222.000 C 85.641,222.000 83.454,221.073 81.075,219.941 C 78.696,218.808 75.513,217.321 74.000,216.636 C 64.614,212.386 65.000,212.622 65.000,211.128 C 65.000,210.327 65.998,208.120 67.324,205.987 C 70.548,200.801 80.028,188.148 84.715,182.773 C 86.862,180.311 89.465,177.161 90.500,175.773 C 92.376,173.257 98.113,166.628 104.750,159.307 C 106.675,157.183 108.981,154.990 109.875,154.432 C 111.435,153.459 111.993,152.267 111.053,151.917 C 110.807,151.825 108.501,149.133 105.928,145.935 C 103.355,142.737 99.476,138.125 97.309,135.685 C 95.141,133.246 92.054,129.508 90.448,127.379 C 88.842,125.250 85.292,120.936 82.559,117.793 C 79.826,114.650 76.632,110.782 75.461,109.198 C 74.291,107.613 72.182,104.951 70.776,103.283 C 63.498,94.648 50.624,77.969 50.123,76.525 C 49.975,76.099 49.282,75.131 48.583,74.375 C 47.437,73.134 46.981,73.000 43.913,73.000 C 39.657,73.000 31.786,71.005 28.896,69.194 C 25.597,67.127 19.105,60.126 17.423,56.821 C 15.626,53.294 14.498,47.781 14.507,42.581 C 14.515,37.908 16.494,31.720 19.267,27.693 C 25.967,17.965 38.961,12.435 50.310,14.483 C 58.494,15.960 67.444,22.693 70.844,29.930 C 73.074,34.676 73.663,38.423 73.234,45.135 L 72.889,50.519 L 86.027,63.385 C 111.096,87.936 130.265,107.883 139.637,119.171 C 141.499,121.414 143.225,123.319 143.471,123.403 C 143.989,123.580 148.026,120.747 158.083,113.146 C 166.105,107.084 175.474,100.646 180.149,97.985 C 182.930,96.402 187.009,93.859 190.500,91.532 C 191.188,91.074 192.988,90.067 194.500,89.294 C 196.012,88.521 197.588,87.623 198.000,87.300 C 199.395,86.205 207.865,82.000 208.675,82.000 C 209.829,82.000 211.304,85.201 213.606,92.697 C 217.224,104.480 218.876,109.736 219.237,110.605 C 219.739,111.815 217.568,113.011 210.831,115.236 C 207.761,116.249 204.800,117.267 204.250,117.496 C 203.700,117.726 201.225,118.748 198.750,119.766 C 192.397,122.380 183.822,126.562 179.781,129.017 C 177.889,130.167 175.702,131.330 174.921,131.603 C 174.139,131.875 173.508,132.245 173.519,132.424 C 173.529,132.603 174.260,133.568 175.144,134.569 C 176.027,135.569 179.363,139.394 182.556,143.069 C 185.750,146.743 190.700,152.352 193.556,155.532 C 196.413,158.713 201.338,164.319 204.500,167.992 C 209.582,173.893 213.265,178.157 223.941,190.497 C 225.486,192.284 227.887,194.984 229.278,196.497 C 233.991,201.630 245.742,215.092 247.188,217.015 L 248.626,218.928 L 246.688,221.335 C 244.361,224.227 239.786,229.766 238.293,231.500 C 237.702,232.188 235.547,234.868 233.506,237.457 L 229.794,242.164 L 228.772,240.760 C 226.675,237.879 205.256,212.546 196.157,202.185 C 193.906,199.622 190.723,195.776 189.085,193.637 C 187.446,191.499 184.675,188.150 182.928,186.195 C 178.872,181.657 176.235,178.570 168.240,169.000 C 164.679,164.738 161.649,161.137 161.505,161.000 C 161.362,160.863 160.625,159.919 159.869,158.904 C 159.112,157.888 156.950,155.423 155.063,153.425 L 151.634,149.793 L 146.317,154.723 C 143.393,157.435 141.000,159.829 141.000,160.043 C 141.000,160.257 140.550,160.575 140.000,160.750 C 139.450,160.925 139.000,161.247 139.000,161.466 C 139.000,161.685 141.756,164.651 145.125,168.057 C 152.959,175.977 164.177,187.921 169.498,194.005 C 171.781,196.615 177.958,203.363 183.226,209.000 C 192.938,219.393 206.425,234.111 210.463,238.722 C 211.681,240.113 214.275,242.938 216.228,245.000 C 218.181,247.062 220.304,249.354 220.945,250.091 L 222.111,251.433 L 217.059,257.591 C 210.533,265.547 203.035,274.208 202.507,274.401 C 202.279,274.484 201.791,274.124 201.422,273.600 Z M 388.500,232.467 C 388.500,232.173 389.047,231.216 389.716,230.339 C 390.796,228.923 395.134,220.241 398.640,212.478 C 401.019,207.210 403.953,196.880 404.529,191.742 C 405.208,185.679 404.855,181.281 403.004,172.750 C 400.890,163.008 397.154,154.483 390.724,144.728 C 387.558,139.925 374.803,127.440 367.500,121.996 C 364.887,120.049 360.307,116.159 357.321,113.353 C 349.768,106.254 343.521,101.694 336.691,98.295 C 326.162,93.057 317.332,90.883 307.189,91.033 C 304.033,91.080 301.318,90.985 301.156,90.822 C 300.803,90.469 304.056,82.981 308.030,75.000 C 313.130,64.756 315.738,60.588 324.138,49.250 C 327.250,45.050 332.580,39.102 338.338,33.404 C 344.608,27.199 346.716,25.447 355.460,19.171 C 357.820,17.478 360.348,15.622 361.079,15.046 C 361.810,14.471 362.617,14.000 362.871,14.000 C 363.126,14.000 363.968,16.194 364.742,18.875 C 368.376,31.459 378.764,47.202 387.883,53.945 C 394.590,58.905 397.691,61.301 400.940,64.034 C 402.761,65.566 405.190,67.478 406.339,68.284 C 407.488,69.090 412.551,73.020 417.589,77.017 C 426.098,83.766 433.635,89.000 434.848,89.000 C 435.130,89.000 436.799,89.642 438.556,90.427 C 442.702,92.279 450.754,94.726 455.500,95.578 C 460.319,96.442 475.555,96.420 480.250,95.542 C 491.994,93.347 499.892,89.944 512.750,81.539 C 514.950,80.101 517.111,78.598 517.553,78.199 C 518.256,77.565 518.437,77.571 518.997,78.246 C 520.011,79.468 519.852,101.221 518.777,108.250 C 517.544,116.311 515.652,125.122 514.000,130.500 C 513.789,131.188 513.332,132.762 512.984,134.000 C 512.263,136.567 509.196,144.815 508.478,146.118 C 508.215,146.596 508.000,147.213 508.000,147.491 C 508.000,149.072 500.124,163.439 495.386,170.500 C 488.882,180.194 487.657,181.736 479.896,190.000 C 470.639,199.858 458.926,208.679 445.750,215.717 C 443.825,216.745 441.688,217.895 441.000,218.271 C 438.817,219.466 434.358,221.438 431.000,222.694 C 429.212,223.362 426.175,224.507 424.250,225.238 C 414.550,228.921 408.652,230.466 398.346,232.023 C 391.042,233.127 388.500,233.241 388.500,232.467 Z M 429.906,70.789 C 429.189,70.417 427.173,68.902 425.426,67.423 C 423.679,65.943 421.350,64.065 420.250,63.248 C 417.284,61.047 404.000,50.020 404.000,49.760 C 404.000,49.308 406.661,44.704 407.824,43.145 C 409.492,40.907 413.777,38.227 416.750,37.561 C 420.844,36.644 423.860,37.139 428.307,39.460 C 435.795,43.368 439.255,48.373 439.194,55.207 C 439.153,59.778 438.414,61.944 435.406,66.319 C 432.014,71.253 431.541,71.637 429.906,70.789 Z" fill="#000000" fill-rule="evenodd" /></svg>