<svg xmlns="http://www.w3.org/2000/svg" viewBox="0 0 313 362" width="313" height="362"><path d="M 159.703,348.344 C 159.066,347.987 158.942,346.878 159.005,342.080 C 159.142,331.645 159.231,332.193 157.166,330.790 C 155.386,329.580 155.288,329.568 153.869,330.397 C 151.257,331.921 150.828,333.474 151.210,340.004 C 151.427,343.715 151.358,346.309 151.019,347.201 L 150.489,348.595 L 145.369,348.286 C 140.496,347.992 136.981,347.210 136.033,346.209 C 135.794,345.957 135.513,342.633 135.409,338.823 C 135.239,332.636 135.113,331.819 134.234,331.176 C 131.929,329.491 129.022,329.738 127.717,331.731 C 127.158,332.583 126.835,334.677 126.635,338.740 C 126.478,341.927 126.163,344.649 125.935,344.790 C 125.472,345.076 122.415,344.097 118.996,342.568 C 117.756,342.014 115.699,340.561 114.425,339.341 C 111.781,336.807 111.000,334.349 111.000,328.555 C 111.000,323.500 110.012,317.046 108.849,314.500 C 107.782,312.165 105.312,308.672 104.024,307.677 C 102.343,306.379 95.098,304.537 90.500,304.240 C 83.829,303.809 77.832,302.707 73.807,301.173 C 68.014,298.965 61.703,292.696 59.167,286.630 C 55.183,277.100 56.584,270.587 66.026,254.750 C 69.153,249.506 73.164,241.390 74.181,238.250 C 74.626,236.875 75.347,234.625 75.783,233.250 C 77.583,227.573 77.921,215.923 76.487,209.000 C 75.148,202.533 72.486,196.669 70.214,195.180 C 69.056,194.422 68.906,194.430 67.931,195.309 C 67.028,196.123 66.928,196.620 67.191,199.000 C 67.358,200.512 67.711,202.875 67.976,204.250 C 69.235,210.806 69.494,213.119 69.497,217.831 C 69.500,223.081 68.550,229.445 67.306,232.500 C 64.455,239.504 61.256,246.552 60.197,248.161 C 58.756,250.348 58.101,250.147 56.523,247.033 C 53.159,240.393 50.275,230.028 48.716,218.978 C 47.964,213.652 47.622,196.848 48.182,192.750 C 48.295,191.925 48.537,190.125 48.720,188.750 C 48.904,187.375 49.533,184.284 50.119,181.880 C 51.393,176.657 49.963,177.157 64.750,176.768 C 82.873,176.291 94.556,175.954 100.250,175.745 C 117.897,175.096 171.547,174.909 190.556,175.430 C 202.213,175.749 216.588,176.117 222.500,176.247 C 246.023,176.767 258.265,177.125 258.572,177.305 C 258.749,177.409 259.000,178.339 259.130,179.372 C 259.259,180.405 259.717,183.162 260.147,185.500 C 261.992,195.532 262.537,207.966 261.474,215.750 C 260.451,223.234 258.481,233.172 257.509,235.750 C 253.512,246.356 251.996,249.500 250.878,249.500 C 249.249,249.500 244.709,239.583 241.265,228.500 C 239.415,222.548 239.752,211.571 242.039,203.260 C 243.321,198.602 243.287,196.757 241.898,195.785 C 240.963,195.130 240.641,195.115 239.773,195.685 C 237.730,197.026 236.029,200.730 234.239,207.735 C 232.394,214.956 231.996,220.086 232.774,226.583 C 233.293,230.917 238.090,244.697 240.082,247.577 C 240.587,248.307 241.000,249.126 241.000,249.397 C 241.000,249.669 242.369,251.975 244.041,254.522 C 247.627,259.984 251.632,267.819 252.476,271.029 C 253.176,273.688 252.937,281.192 252.047,284.500 C 250.470,290.364 245.004,296.930 239.000,300.172 C 235.272,302.186 229.678,304.169 228.967,303.729 C 228.701,303.565 225.844,303.790 222.617,304.229 C 219.390,304.667 215.746,305.154 214.519,305.310 C 211.179,305.734 208.472,306.937 206.334,308.948 C 202.127,312.904 200.247,318.174 199.298,328.672 C 198.546,336.996 198.023,338.213 194.036,340.916 C 191.770,342.453 185.659,345.000 184.239,345.000 C 183.628,345.000 183.500,343.954 183.500,338.962 C 183.500,332.954 183.492,332.916 182.038,331.462 C 180.920,330.343 180.117,330.000 178.617,330.000 C 176.908,330.000 176.542,330.214 175.757,331.672 C 174.983,333.110 174.892,334.207 175.109,339.491 C 175.441,347.543 175.449,347.534 167.750,348.271 C 162.281,348.795 160.538,348.811 159.703,348.344 Z M 167.146,303.524 C 169.771,301.220 170.764,296.230 169.434,292.035 C 168.897,290.342 162.831,276.952 161.150,273.750 C 159.753,271.088 156.827,269.000 154.494,269.000 C 152.576,269.000 150.079,271.977 147.437,277.413 C 140.708,291.260 139.312,296.712 141.433,300.869 C 142.731,303.413 144.214,304.500 146.386,304.500 C 148.548,304.500 150.297,303.538 152.690,301.032 C 153.757,299.914 154.894,299.000 155.217,299.000 C 155.540,299.000 156.579,299.807 157.527,300.794 C 159.341,302.683 163.157,304.937 164.608,304.977 C 165.079,304.990 166.222,304.336 167.146,303.524 Z M 111.404,274.453 C 118.792,272.731 124.621,270.126 129.478,266.375 C 136.653,260.834 140.000,254.535 140.000,246.575 C 140.000,240.742 138.202,237.437 133.250,234.172 C 130.785,232.546 125.538,230.494 121.873,229.723 C 110.312,227.291 93.995,231.653 89.298,238.430 C 86.079,243.076 85.629,254.539 88.353,262.500 C 90.768,269.558 92.761,271.902 98.250,274.135 C 100.621,275.099 107.877,275.275 111.404,274.453 Z M 213.168,274.035 C 220.214,271.015 223.976,263.078 223.992,251.200 C 224.008,239.875 220.644,235.223 209.513,231.181 C 204.116,229.220 198.953,228.701 192.215,229.440 C 179.789,230.803 173.132,235.131 170.724,243.412 C 169.581,247.344 170.169,251.481 172.656,257.000 C 175.113,262.454 181.980,268.265 189.701,271.426 C 198.223,274.915 208.460,276.053 213.168,274.035 Z M 47.647,166.666 C 46.675,163.956 46.071,161.711 44.574,155.250 C 41.568,142.274 38.969,131.655 37.723,127.250 C 36.520,122.997 31.736,104.164 30.483,98.750 C 30.165,97.375 29.470,94.740 28.937,92.895 C 27.997,89.634 27.917,89.532 26.110,89.255 C 22.564,88.712 20.739,87.878 18.595,85.819 C 15.571,82.917 14.734,80.939 14.834,76.936 C 14.969,71.591 17.232,68.315 22.231,66.226 C 24.664,65.209 29.424,65.648 32.107,67.135 C 33.959,68.161 36.251,70.649 37.491,72.977 C 38.540,74.947 38.227,80.210 36.924,82.529 L 35.811,84.508 L 37.531,86.300 C 38.476,87.286 42.400,90.820 46.250,94.153 C 50.100,97.486 55.566,102.247 58.398,104.732 C 66.813,112.118 69.184,114.000 70.076,114.000 C 71.094,114.000 71.524,112.763 73.292,104.750 C 74.020,101.450 75.040,96.838 75.559,94.500 C 76.078,92.162 76.712,88.900 76.969,87.250 C 77.226,85.600 78.010,81.213 78.713,77.500 C 79.416,73.787 79.993,70.619 79.995,70.460 C 79.998,70.300 78.977,69.435 77.726,68.536 C 74.852,66.472 73.216,63.892 72.572,60.409 C 71.727,55.839 73.019,51.904 76.313,49.012 C 78.834,46.799 80.938,46.000 84.251,46.000 C 89.557,46.000 94.021,49.469 95.497,54.738 C 96.380,57.894 95.891,62.726 94.497,64.611 C 93.075,66.534 93.466,68.046 96.163,71.059 C 99.305,74.570 101.626,77.474 103.508,80.250 C 109.466,89.040 119.053,100.000 120.784,100.000 C 121.315,100.000 124.000,96.428 124.000,95.721 C 124.000,95.424 127.684,87.053 128.550,85.382 C 128.797,84.904 129.000,84.184 129.000,83.781 C 129.000,83.377 129.935,81.293 131.077,79.149 C 133.677,74.269 134.164,73.293 135.396,70.500 C 140.694,58.489 145.231,47.556 146.007,44.933 C 146.339,43.810 146.074,43.264 144.204,41.228 C 139.585,36.196 138.734,29.414 141.902,22.866 C 144.545,17.403 148.907,14.847 155.500,14.898 C 159.518,14.929 161.902,15.901 164.949,18.751 C 171.781,25.141 171.893,34.633 165.216,41.311 C 162.864,43.663 162.716,44.012 163.492,45.382 C 163.763,45.859 164.669,47.825 165.506,49.750 C 166.343,51.675 167.472,54.115 168.014,55.172 C 168.556,56.229 169.000,57.288 169.000,57.525 C 169.000,57.761 169.650,59.371 170.444,61.103 C 172.531,65.654 173.341,67.586 173.754,69.000 C 174.128,70.278 175.495,73.425 177.992,78.750 C 181.761,86.788 183.000,89.510 183.000,89.749 C 183.000,90.679 188.215,100.500 188.709,100.500 C 189.875,100.500 197.840,91.705 203.778,83.859 C 207.062,79.519 211.153,74.119 212.868,71.859 C 214.583,69.599 215.989,67.249 215.993,66.637 C 215.997,66.025 215.551,64.787 215.002,63.887 C 213.843,61.986 213.663,57.782 214.584,54.124 C 216.145,47.923 225.029,44.105 231.285,46.946 C 235.465,48.845 238.342,54.369 237.904,59.654 C 237.579,63.570 236.159,65.969 233.112,67.750 C 231.700,68.575 230.447,69.487 230.326,69.776 C 230.206,70.066 230.439,72.204 230.844,74.526 C 231.249,76.849 231.775,79.875 232.013,81.250 C 232.646,84.912 233.428,88.940 234.002,91.500 C 234.841,95.245 235.485,98.592 235.974,101.750 C 237.164,109.435 238.121,113.809 238.752,114.452 C 239.340,115.053 240.293,114.400 245.319,109.952 C 248.552,107.091 252.898,103.175 254.978,101.250 C 257.057,99.325 259.994,96.745 261.504,95.518 C 266.618,91.360 273.000,85.395 273.000,84.773 C 273.000,84.432 272.617,83.388 272.149,82.452 C 270.845,79.846 271.044,74.691 272.552,71.959 C 274.027,69.288 278.055,66.163 280.570,65.738 C 289.271,64.268 296.382,71.228 294.799,79.666 C 294.415,81.713 290.637,86.525 288.260,87.994 C 287.364,88.547 285.871,89.003 284.941,89.008 C 281.874,89.022 282.058,88.637 278.948,101.500 C 278.116,104.938 277.241,108.425 277.002,109.250 C 276.763,110.075 275.902,113.450 275.088,116.750 C 274.274,120.050 272.896,125.450 272.026,128.750 C 271.155,132.050 270.249,135.650 270.012,136.750 C 269.776,137.850 269.097,140.662 268.505,143.000 C 267.912,145.338 267.243,148.262 267.017,149.500 C 266.208,153.939 263.059,164.343 261.961,166.205 L 260.841,168.103 L 254.545,167.805 C 235.067,166.884 193.169,166.250 151.750,166.250 C 119.188,166.250 80.878,166.760 76.250,167.256 C 75.150,167.374 68.379,167.608 61.203,167.776 L 48.155,168.082 L 47.647,166.666 Z M 156.098,147.279 C 156.456,146.608 157.556,144.864 158.542,143.404 C 163.901,135.466 169.000,127.524 169.000,127.116 C 169.000,126.860 169.694,125.693 170.541,124.522 L 172.083,122.395 L 170.640,120.572 C 169.846,119.570 168.115,116.838 166.793,114.500 C 161.972,105.975 155.505,95.997 154.810,96.011 C 154.189,96.023 151.561,99.516 150.693,101.486 C 149.818,103.470 140.076,119.815 138.461,122.009 C 138.018,122.610 138.446,123.644 140.532,127.009 C 141.979,129.341 143.578,132.037 144.086,133.000 C 144.593,133.963 145.896,135.988 146.982,137.500 C 148.067,139.012 149.446,141.150 150.046,142.250 C 151.952,145.744 154.025,148.500 154.747,148.500 C 155.131,148.500 155.739,147.951 156.098,147.279 Z M 217.048,138.750 C 219.984,135.763 220.981,134.407 220.989,133.395 C 220.998,132.303 218.735,125.448 216.485,119.750 C 216.268,119.200 215.965,118.356 215.811,117.875 C 215.657,117.394 215.226,117.000 214.852,117.000 C 214.009,117.000 205.177,125.719 203.350,128.355 C 202.140,130.102 202.064,130.461 202.580,132.021 C 203.764,135.598 206.153,141.845 207.334,144.450 L 208.558,147.151 L 210.838,144.950 C 212.092,143.740 214.887,140.950 217.048,138.750 Z M 102.570,143.873 C 103.021,142.705 104.445,138.992 105.734,135.621 L 108.079,129.492 L 106.165,127.094 C 103.577,123.852 95.910,116.941 95.091,117.112 C 94.086,117.322 93.281,119.144 90.980,126.410 C 89.258,131.849 88.970,133.286 89.409,134.251 C 90.219,136.028 100.006,146.000 100.938,145.998 C 101.430,145.997 102.073,145.160 102.570,143.873 Z" fill="#000000" fill-rule="evenodd" /></svg>