<svg xmlns="http://www.w3.org/2000/svg" viewBox="0 0 679 732" width="679" height="732"><path d="M 337.200,638.573 C 331.388,634.318 315.761,619.010 311.029,612.934 C 304.526,604.585 296.772,595.500 296.149,595.500 C 295.238,595.500 295.110,596.357 294.010,609.750 C 293.761,612.775 293.545,615.306 293.529,615.375 C 293.377,616.031 291.875,614.620 287.255,609.483 C 277.203,598.304 269.086,586.478 263.760,575.250 C 258.382,563.915 256.794,559.595 254.752,550.750 C 253.990,547.450 253.177,544.542 252.945,544.287 C 251.943,543.186 249.323,547.425 243.527,559.526 C 243.130,560.356 242.489,560.971 242.105,560.893 C 239.996,560.462 235.906,543.799 234.481,529.827 C 233.729,522.465 234.108,505.589 235.173,498.991 C 236.906,488.249 240.999,473.961 247.489,456.000 C 254.093,437.720 256.409,429.789 257.978,420.076 C 259.125,412.970 259.048,412.639 255.223,408.371 C 250.297,402.875 246.081,393.554 245.032,385.839 C 244.051,378.628 244.552,367.784 246.183,360.925 C 246.598,359.179 247.330,355.950 247.808,353.750 C 248.287,351.550 248.990,349.115 249.371,348.339 C 250.243,346.561 249.661,345.742 246.551,344.363 C 244.675,343.531 242.581,343.328 232.301,342.979 C 217.608,342.481 213.645,341.822 204.114,338.289 C 201.236,337.222 193.496,332.856 189.500,330.045 C 185.368,327.138 177.760,319.523 174.323,314.854 C 166.796,304.626 158.983,288.713 158.156,281.927 C 157.903,279.851 157.999,279.533 159.061,278.941 C 161.779,277.427 180.484,277.935 197.500,279.985 C 207.257,281.160 218.977,284.369 226.885,288.030 C 231.191,290.024 241.831,296.382 244.000,298.258 C 247.328,301.136 254.631,305.356 258.250,306.493 C 259.350,306.838 260.464,307.319 260.725,307.560 C 261.700,308.463 263.000,308.035 263.000,306.812 C 263.000,305.176 257.529,294.528 255.013,291.267 C 251.544,286.771 244.524,280.400 238.893,276.638 C 234.369,273.616 217.861,264.988 216.638,265.006 C 216.425,265.009 212.988,263.631 209.000,261.943 C 199.412,257.885 196.343,256.643 186.250,252.736 C 170.267,246.550 155.882,238.024 146.481,229.167 C 136.809,220.055 128.152,206.341 124.823,194.856 C 124.129,192.462 123.435,190.299 123.281,190.050 C 123.127,189.801 122.552,186.594 122.004,182.924 C 120.277,171.368 120.733,158.043 123.224,147.250 C 126.851,131.540 132.695,118.604 141.346,107.140 C 148.914,97.110 154.930,92.357 157.987,93.993 C 160.127,95.138 159.977,100.008 157.648,105.000 C 151.948,117.222 150.068,121.700 148.467,126.875 C 147.935,128.594 147.028,131.519 146.452,133.375 C 145.876,135.231 145.103,138.325 144.734,140.250 C 144.366,142.175 143.825,144.762 143.532,146.000 C 142.626,149.834 142.306,162.270 142.967,168.000 C 144.754,183.499 151.974,198.139 162.764,208.144 C 169.141,214.057 170.068,214.171 168.799,208.882 C 166.714,200.191 166.535,184.940 168.418,176.500 C 171.581,162.327 177.229,151.173 186.689,140.418 C 192.816,133.453 197.718,131.195 199.642,134.452 C 201.059,136.850 200.674,138.630 197.064,146.376 C 191.879,157.500 191.721,157.891 190.339,163.000 C 187.369,173.977 187.300,174.430 187.275,183.000 C 187.256,189.218 187.481,192.358 188.189,195.748 C 191.405,211.153 199.693,224.406 210.484,231.400 C 216.170,235.084 225.455,239.405 232.250,241.528 C 233.350,241.872 236.037,242.916 238.221,243.849 C 240.405,244.781 242.655,245.478 243.221,245.397 C 244.368,245.233 244.390,244.884 243.550,240.250 C 242.766,235.929 242.876,224.473 243.749,219.500 C 246.374,204.539 254.806,188.100 262.200,183.531 C 264.078,182.370 265.392,182.244 267.171,183.055 C 269.839,184.271 269.753,186.147 266.590,195.750 C 264.669,201.583 264.028,204.299 263.521,208.750 C 262.774,215.308 262.889,224.590 263.782,229.750 C 266.007,242.611 273.258,257.192 281.343,265.068 C 285.473,269.091 293.921,275.486 295.115,275.494 C 295.591,275.497 298.189,274.620 300.889,273.544 C 305.202,271.826 314.677,269.163 322.250,267.541 C 325.407,266.865 338.515,265.969 341.500,266.225 C 342.738,266.332 345.775,266.562 348.250,266.738 C 352.414,267.033 358.499,268.195 366.500,270.222 C 370.366,271.202 372.278,271.852 378.247,274.218 C 382.849,276.042 384.705,276.382 385.250,275.500 C 385.419,275.226 387.514,273.392 389.904,271.425 C 396.153,266.284 401.287,261.187 403.580,257.849 C 412.365,245.059 417.016,227.754 415.583,213.190 C 414.929,206.549 412.424,196.261 410.240,191.250 C 409.881,190.425 409.437,188.733 409.254,187.491 C 408.963,185.514 409.080,185.060 410.187,183.866 C 414.357,179.365 422.215,186.353 428.887,200.496 C 435.245,213.973 437.150,225.451 435.308,239.183 C 434.870,242.446 434.648,245.336 434.815,245.605 C 435.192,246.216 436.377,245.955 440.500,244.352 C 460.010,236.769 468.286,232.395 474.361,226.458 C 482.253,218.743 487.908,207.763 490.818,194.500 C 492.054,188.864 492.059,177.003 490.827,171.250 C 489.328,164.251 486.523,156.575 482.374,148.115 C 477.720,138.624 477.064,135.811 479.021,133.727 C 482.024,130.531 487.717,134.070 495.954,144.250 C 500.322,149.650 503.273,154.901 506.521,163.054 C 509.991,171.764 511.543,179.010 511.862,188.000 C 512.146,195.994 511.500,204.293 510.190,209.480 C 509.340,212.844 509.339,213.000 510.169,213.000 C 511.271,213.000 518.768,206.177 521.604,202.593 C 530.076,191.883 534.413,181.584 536.066,168.250 C 536.689,163.219 536.346,147.320 535.553,144.500 C 535.282,143.537 534.464,140.387 533.734,137.500 C 532.215,131.490 529.708,124.050 527.806,119.907 C 527.088,118.343 526.500,116.921 526.500,116.745 C 526.500,116.570 525.136,113.599 523.468,110.143 C 519.259,101.421 518.919,100.454 519.095,97.711 C 519.228,95.635 519.459,95.178 520.753,94.425 C 522.192,93.588 522.345,93.591 524.385,94.504 C 529.090,96.611 538.314,107.250 543.320,116.344 C 546.177,121.536 546.861,122.954 550.262,130.750 C 552.075,134.905 554.947,144.054 556.069,149.250 C 558.133,158.811 558.661,172.793 557.296,181.752 C 556.089,189.679 552.576,200.436 548.950,207.308 C 540.978,222.417 528.894,234.492 512.999,243.231 C 507.596,246.202 497.994,250.838 493.750,252.525 C 487.881,254.859 481.067,257.460 478.514,258.342 C 477.285,258.767 475.143,259.634 473.756,260.269 C 472.368,260.904 469.999,261.906 468.491,262.496 C 453.811,268.241 444.569,273.116 435.500,279.897 C 432.194,282.368 426.237,288.314 423.625,291.750 C 421.581,294.438 415.500,306.221 415.500,307.494 C 415.500,308.236 416.494,308.120 419.765,306.995 C 424.686,305.302 431.098,301.648 436.906,297.227 C 439.128,295.536 450.070,289.150 452.750,287.980 C 459.162,285.180 463.614,283.522 466.671,282.793 C 468.502,282.357 471.485,281.646 473.299,281.214 C 477.772,280.149 481.970,279.649 493.750,278.777 C 507.366,277.768 517.591,277.763 519.525,278.763 C 521.206,279.632 521.261,280.029 520.307,284.500 C 518.157,294.578 508.127,312.172 499.500,320.998 C 488.156,332.604 474.304,340.221 460.823,342.268 C 458.113,342.680 451.476,343.142 446.073,343.295 C 436.605,343.564 431.721,344.100 429.875,345.074 C 428.966,345.553 428.667,347.735 429.445,348.216 C 429.689,348.367 429.998,349.224 430.131,350.120 C 430.264,351.017 430.858,353.438 431.449,355.500 C 436.240,372.195 436.125,384.937 431.078,396.750 C 429.233,401.066 425.710,406.911 423.519,409.287 C 419.992,413.113 419.797,413.615 420.463,417.134 C 421.831,424.364 424.137,434.928 424.853,437.250 C 426.232,441.724 429.421,451.151 431.025,455.500 C 435.886,468.678 438.386,476.630 440.930,487.007 C 445.738,506.622 446.445,525.223 443.011,541.750 C 442.725,543.125 442.355,544.925 442.188,545.750 C 441.506,549.120 438.840,558.344 438.173,559.641 C 437.345,561.251 436.778,561.063 435.747,558.841 C 434.878,556.966 432.260,552.278 431.090,550.500 C 430.638,549.812 429.967,548.689 429.600,548.003 C 428.590,546.115 426.505,543.500 426.010,543.500 C 425.768,543.500 425.314,544.794 425.000,546.375 C 423.528,553.794 421.341,561.185 418.897,567.000 C 418.376,568.237 417.681,569.924 417.350,570.748 C 417.020,571.572 415.231,575.324 413.374,579.086 C 408.414,589.137 401.480,599.109 393.965,607.000 C 392.263,608.788 390.329,611.060 389.669,612.049 C 388.509,613.786 386.264,615.431 385.752,614.919 C 385.615,614.782 385.281,612.100 385.010,608.960 C 384.395,601.840 383.283,595.576 382.500,594.823 C 382.048,594.388 381.705,594.548 381.077,595.486 C 374.643,605.103 364.720,617.339 357.751,624.250 C 351.385,630.563 340.466,640.000 339.528,640.000 C 339.320,640.000 338.273,639.358 337.200,638.573 Z M 333.469,531.875 C 333.715,531.256 335.086,527.766 336.515,524.120 C 337.943,520.473 339.287,517.382 339.500,517.250 C 340.326,516.739 341.280,519.140 344.521,529.882 C 345.467,533.015 345.989,533.263 349.146,532.082 C 356.165,529.456 361.923,524.813 364.689,519.550 C 366.790,515.552 369.140,508.614 370.549,502.250 C 371.552,497.719 374.301,486.029 375.781,480.000 C 377.273,473.922 380.020,468.220 383.444,464.097 C 390.555,455.534 393.268,450.918 393.973,446.189 C 394.213,444.572 394.545,439.538 394.709,435.000 C 394.874,430.462 395.248,425.886 395.540,424.830 C 396.467,421.485 395.764,421.033 393.338,423.413 C 392.169,424.561 390.917,425.500 390.556,425.500 C 389.565,425.500 385.445,429.977 383.750,432.896 C 382.925,434.317 381.995,435.485 381.683,435.490 C 380.944,435.503 380.342,430.635 380.777,428.168 C 381.919,421.680 385.066,415.744 389.294,412.099 C 390.645,410.934 394.549,408.615 397.970,406.945 C 414.466,398.891 418.490,392.935 418.537,376.505 C 418.563,367.531 416.243,356.427 412.999,349.997 C 412.099,348.211 408.713,343.221 405.476,338.908 C 398.129,329.119 397.771,328.152 397.701,317.896 C 397.651,310.716 397.618,310.499 396.303,308.775 C 395.562,307.804 393.334,305.620 391.353,303.923 C 389.371,302.226 385.439,298.693 382.614,296.072 C 375.658,289.617 374.059,288.627 366.750,286.259 C 349.052,280.525 328.322,280.634 311.540,286.548 C 304.407,289.062 301.719,290.792 294.923,297.244 C 291.443,300.547 286.982,304.752 285.010,306.587 L 281.425,309.924 L 281.648,313.797 C 281.936,318.799 281.301,324.340 279.988,328.286 C 278.885,331.601 275.955,335.974 270.968,341.750 C 268.026,345.156 264.807,350.961 263.895,354.500 C 260.737,366.761 259.488,377.113 260.464,382.924 C 261.737,390.499 264.682,396.053 269.396,399.767 C 270.966,401.004 275.955,404.093 280.483,406.633 C 292.378,413.303 295.946,417.283 297.777,425.918 C 298.694,430.245 298.733,435.000 297.852,435.000 C 297.496,435.000 296.038,433.321 294.611,431.269 C 291.877,427.337 285.446,421.521 283.817,421.508 C 283.052,421.501 282.942,421.749 283.208,422.875 C 283.387,423.631 283.750,427.288 284.015,431.000 C 285.044,445.400 285.444,448.815 286.382,451.202 C 287.312,453.571 291.827,459.832 296.598,465.369 C 297.959,466.948 299.616,469.702 300.540,471.922 C 302.096,475.656 302.718,477.972 306.995,495.955 C 309.380,505.983 312.839,516.900 314.734,520.383 C 316.391,523.427 321.585,528.098 325.351,529.931 C 332.557,533.437 332.822,533.501 333.469,531.875 Z M 348.246,511.342 C 347.259,509.291 345.236,504.064 343.749,499.726 C 341.214,492.327 340.421,490.804 339.286,491.163 C 338.624,491.372 337.313,494.400 333.513,504.500 C 331.355,510.237 329.682,513.829 328.960,514.275 C 328.589,514.504 327.532,513.714 326.178,512.197 C 318.102,503.150 312.372,479.021 314.533,463.161 C 315.617,455.203 318.351,446.500 319.768,446.500 C 320.096,446.500 320.766,447.569 321.257,448.875 C 323.772,455.567 328.077,463.039 329.797,463.699 C 331.337,464.290 332.462,463.492 333.114,461.345 C 333.591,459.775 333.714,454.738 333.607,441.250 C 333.417,417.381 334.245,387.337 335.216,382.869 C 336.988,374.711 340.459,373.700 342.716,380.686 C 344.293,385.569 344.586,392.530 344.668,427.022 C 344.744,458.909 344.812,461.388 345.637,462.647 C 348.041,466.316 351.740,462.875 356.009,453.000 C 357.879,448.673 359.376,446.364 360.042,446.776 C 360.818,447.256 361.957,449.788 362.772,452.850 C 363.765,456.580 364.990,466.735 364.996,471.287 C 365.008,481.468 360.339,500.925 356.256,507.705 C 354.595,510.464 351.285,514.553 350.425,514.910 C 350.213,514.998 349.232,513.392 348.246,511.342 Z M 310.944,409.357 C 310.226,408.198 308.817,405.667 307.813,403.732 C 306.810,401.797 305.297,399.375 304.451,398.349 L 302.914,396.484 L 299.079,396.804 C 294.346,397.198 288.650,396.125 284.000,393.962 C 279.992,392.098 275.777,387.799 273.578,383.334 C 267.502,370.990 270.732,354.400 279.732,351.727 C 282.217,350.990 282.275,350.998 285.454,352.563 C 287.919,353.777 290.132,355.608 294.979,360.447 C 298.452,363.914 302.694,368.063 304.406,369.667 C 307.815,372.860 310.980,377.204 312.525,380.809 C 313.961,384.158 314.663,392.016 314.352,401.250 C 313.981,412.246 313.478,413.444 310.944,409.357 Z M 365.723,410.456 C 363.908,407.519 363.430,395.506 364.807,387.463 C 365.707,382.214 366.829,379.651 370.157,375.243 C 374.862,369.012 389.545,355.034 393.589,352.936 C 396.643,351.352 400.411,351.432 402.636,353.129 C 404.902,354.858 407.406,359.979 408.077,364.257 C 409.516,373.440 406.997,382.640 401.352,388.817 C 398.600,391.828 396.128,393.440 392.000,394.917 C 387.838,396.406 386.720,396.574 381.199,396.541 L 376.108,396.510 L 374.236,398.581 C 373.206,399.721 371.578,402.363 370.617,404.452 C 367.979,410.188 366.601,411.878 365.723,410.456 Z" fill="#000000" fill-rule="evenodd" /></svg>