<svg xmlns="http://www.w3.org/2000/svg" viewBox="0 0 254 455" width="254" height="455"><path d="M 122.867,437.875 C 120.568,434.506 116.299,428.248 113.379,423.968 C 106.225,413.484 103.682,409.265 100.101,401.946 C 96.010,393.585 95.315,391.933 93.585,386.457 C 90.335,376.168 89.596,372.080 89.166,362.000 C 88.634,349.556 90.704,338.553 96.126,325.000 C 97.501,321.562 98.932,317.625 99.306,316.250 C 100.879,310.473 100.629,302.117 98.774,298.397 C 98.348,297.544 98.000,296.662 98.000,296.436 C 98.000,296.210 96.651,293.221 95.001,289.793 C 93.352,286.365 91.668,282.141 91.259,280.405 C 90.262,276.173 89.787,270.162 90.221,267.270 C 90.543,265.119 90.636,264.992 91.271,265.830 C 91.655,266.336 91.975,267.110 91.984,267.549 C 92.006,268.628 97.794,274.250 98.883,274.250 C 101.312,274.250 102.644,265.826 101.256,259.250 C 100.662,256.438 100.001,254.550 96.663,246.125 C 95.591,243.422 95.282,241.680 95.107,237.375 C 94.926,232.904 95.012,232.000 95.617,232.000 C 96.017,232.000 96.752,232.450 97.250,233.000 C 99.841,235.863 102.011,232.040 102.064,224.522 C 102.084,221.812 101.860,218.843 101.567,217.923 C 99.193,210.457 99.182,209.993 101.409,211.226 C 102.147,211.635 104.213,212.560 106.000,213.282 C 107.787,214.004 109.925,214.885 110.750,215.239 C 116.175,217.567 122.939,218.889 119.355,216.920 C 114.219,214.100 112.237,213.180 108.505,211.887 C 101.959,209.620 98.956,208.094 96.469,205.768 C 93.558,203.047 92.280,202.360 89.500,202.023 C 87.329,201.760 86.708,201.070 88.086,200.453 C 88.451,200.289 89.253,199.895 89.868,199.578 C 90.483,199.260 91.442,199.000 91.999,199.000 C 94.940,199.000 99.325,195.588 100.237,192.589 C 100.726,190.982 99.293,189.500 97.250,189.500 C 95.576,189.500 94.000,188.238 94.000,186.897 C 94.000,185.359 92.505,182.593 90.980,181.310 C 89.126,179.750 87.330,179.650 85.140,180.985 C 81.081,183.460 76.000,194.035 76.000,200.007 C 76.000,204.135 73.761,199.149 72.531,192.283 C 72.239,190.651 72.000,187.111 72.000,184.415 C 72.000,178.343 71.234,175.325 69.127,173.087 C 67.601,171.467 67.363,171.383 65.167,171.684 C 62.011,172.116 59.029,173.962 56.379,177.122 C 52.715,181.490 52.136,182.577 49.970,189.164 C 48.823,192.649 47.701,195.500 47.476,195.500 C 46.921,195.500 46.570,194.267 45.970,190.198 C 45.221,185.114 45.131,183.905 44.959,176.507 C 44.780,168.852 44.358,167.183 41.987,164.736 C 40.575,163.280 39.954,163.000 38.135,163.000 C 35.854,163.000 32.082,164.627 29.108,166.894 C 26.714,168.718 21.936,175.276 19.889,179.547 C 17.100,185.366 14.000,194.518 14.000,196.931 C 14.000,198.300 12.925,198.135 12.643,196.723 C 12.536,196.188 12.319,192.775 12.161,189.139 C 11.726,179.140 13.384,168.201 16.464,160.750 C 22.054,147.226 28.409,138.236 37.775,130.604 C 44.756,124.915 56.013,119.585 62.750,118.780 C 67.185,118.249 73.000,117.865 73.000,118.103 C 73.000,118.230 72.115,119.293 71.033,120.465 C 68.245,123.484 66.862,126.668 66.936,129.896 C 67.008,133.076 67.871,134.870 70.868,138.074 C 73.682,141.083 75.467,142.011 79.110,142.361 C 81.841,142.624 82.033,142.565 83.348,141.067 L 84.725,139.497 L 88.987,143.938 C 92.818,147.929 93.553,148.465 96.244,149.238 C 99.075,150.050 99.265,150.050 99.744,149.236 C 100.022,148.763 100.782,147.569 101.432,146.582 L 102.613,144.788 L 101.463,142.683 C 100.498,140.917 100.419,140.450 100.968,139.789 C 101.690,138.919 105.271,138.712 106.470,139.471 C 107.384,140.049 109.665,138.938 111.918,136.819 C 114.706,134.196 115.000,133.190 115.000,126.288 L 115.000,120.026 L 113.500,119.250 C 112.381,118.671 112.004,118.128 112.016,117.112 C 112.034,115.585 112.830,114.346 114.099,113.870 C 114.566,113.695 115.194,112.638 115.494,111.521 C 115.984,109.703 116.169,109.523 117.270,109.800 C 117.957,109.972 118.500,109.890 118.500,109.613 C 118.500,109.340 118.063,109.002 117.529,108.863 C 116.996,108.723 116.237,107.853 115.845,106.930 C 115.452,106.006 114.538,104.745 113.815,104.128 C 112.090,102.657 112.111,100.812 113.873,99.179 C 115.050,98.089 115.288,97.392 115.533,94.328 C 115.691,92.360 115.715,87.182 115.587,82.821 L 115.355,74.893 L 113.427,72.666 C 112.367,71.441 111.500,70.089 111.500,69.662 C 111.500,69.234 112.400,68.062 113.500,67.056 C 115.235,65.471 115.500,64.945 115.500,63.096 C 115.500,61.083 115.559,60.996 116.554,61.529 C 119.074,62.878 132.939,58.772 131.322,57.156 C 131.120,56.953 130.518,57.061 129.984,57.394 C 129.450,57.727 128.606,58.000 128.107,58.000 C 127.608,58.000 126.986,58.208 126.725,58.463 C 126.110,59.062 116.101,60.268 115.633,59.799 C 115.436,59.603 115.258,58.255 115.235,56.803 C 115.198,54.392 115.009,53.974 113.043,51.957 C 111.859,50.743 110.100,48.574 109.133,47.137 C 107.550,44.786 107.396,44.259 107.594,41.877 C 107.786,39.555 108.328,38.464 112.001,32.990 C 121.336,19.078 126.480,12.000 127.255,12.000 C 128.134,12.000 138.607,26.672 145.192,37.129 C 148.474,42.341 147.665,46.281 142.206,51.663 L 139.874,53.962 L 139.817,60.223 L 139.760,66.484 L 141.399,67.981 C 142.993,69.437 143.016,69.515 142.247,70.864 C 141.813,71.626 140.961,72.931 140.354,73.763 C 139.317,75.184 139.269,75.625 139.561,81.013 C 139.732,84.168 139.689,88.609 139.466,90.882 C 138.997,95.658 139.137,96.763 140.431,98.514 C 141.926,100.536 142.187,102.618 141.125,104.033 C 138.268,107.836 138.325,112.289 141.261,114.598 C 143.054,116.009 142.987,118.823 141.125,120.311 L 139.750,121.409 L 139.839,127.771 L 139.927,134.133 L 141.839,136.108 C 144.588,138.949 145.919,139.522 148.934,139.165 C 152.805,138.706 154.096,140.320 152.000,143.000 C 151.462,143.688 151.017,144.547 151.011,144.910 C 150.997,145.765 153.907,150.000 154.509,150.000 C 156.066,150.000 160.634,147.172 163.000,144.744 C 164.512,143.192 166.374,141.471 167.136,140.919 L 168.522,139.916 L 170.279,141.458 C 172.190,143.136 172.972,143.284 175.550,142.451 C 181.453,140.546 185.974,137.270 187.552,133.754 C 189.234,130.008 187.815,125.205 183.705,120.728 C 182.492,119.407 181.500,118.238 181.500,118.129 C 181.500,117.771 190.699,118.366 193.250,118.889 C 200.029,120.281 209.822,124.805 215.810,129.312 C 225.609,136.686 235.124,149.851 238.894,161.250 C 239.835,164.095 240.171,165.379 241.506,171.242 C 242.162,174.122 242.539,189.712 242.069,194.500 C 241.832,196.914 241.557,197.750 241.000,197.750 C 240.454,197.750 240.208,197.070 240.095,195.250 C 240.010,193.875 239.729,192.536 239.470,192.275 C 239.212,192.014 239.000,191.207 239.000,190.483 C 239.000,186.683 234.598,177.219 230.382,171.954 C 225.502,165.860 221.097,163.000 216.591,163.000 C 211.800,163.000 210.157,166.183 210.013,175.750 C 209.886,184.138 208.291,195.374 207.257,195.154 C 207.008,195.101 206.285,193.301 205.649,191.154 C 202.308,179.867 195.951,171.920 190.167,171.795 C 187.545,171.739 185.428,173.564 184.538,176.650 C 184.205,177.805 183.722,179.441 183.466,180.285 C 183.210,181.130 183.000,183.771 183.000,186.153 C 183.000,188.536 182.737,191.558 182.415,192.868 C 181.277,197.495 180.204,200.568 179.730,200.550 C 179.466,200.540 179.098,199.569 178.911,198.391 C 178.316,194.632 177.939,193.312 176.654,190.500 C 173.975,184.636 169.294,180.000 166.052,180.000 C 163.824,180.000 161.178,182.530 160.294,185.508 C 159.145,189.375 158.664,190.000 156.832,190.000 C 153.686,190.000 153.104,192.185 155.483,195.071 C 157.382,197.375 159.978,198.596 163.750,198.960 C 166.376,199.214 166.770,199.390 166.910,200.375 C 167.047,201.341 166.843,201.500 165.469,201.500 C 163.341,201.500 160.933,202.995 157.000,206.761 C 153.956,209.675 153.418,209.974 148.500,211.479 C 141.036,213.765 139.006,214.478 136.882,215.558 C 136.404,215.801 135.461,216.000 134.786,216.000 C 134.111,216.000 133.403,216.253 133.211,216.563 C 132.530,217.665 139.169,216.701 145.250,214.815 C 148.550,213.791 151.641,212.739 152.118,212.477 C 154.353,211.250 154.538,212.710 152.952,219.056 C 151.675,224.169 151.851,227.300 153.623,231.009 C 156.227,236.460 156.618,238.328 155.973,242.226 C 155.652,244.164 155.042,246.144 154.617,246.625 C 153.104,248.340 155.556,247.291 158.558,244.939 L 160.365,243.523 L 161.308,244.564 C 162.119,245.460 162.248,246.415 162.237,251.427 C 162.223,258.237 161.978,259.108 157.154,269.487 C 154.062,276.142 152.982,280.062 152.918,284.873 C 152.852,289.816 153.662,292.428 155.668,293.742 C 156.843,294.512 157.042,294.499 158.962,293.519 C 160.087,292.946 161.511,291.699 162.128,290.749 C 164.412,287.233 164.686,287.809 164.327,295.361 C 163.877,304.803 163.163,307.570 159.070,315.750 C 155.202,323.482 154.157,326.213 153.482,330.359 C 152.933,333.735 153.612,337.273 155.117,338.875 C 156.408,340.249 159.305,340.383 161.650,339.178 C 163.294,338.333 169.120,334.043 171.703,331.775 C 173.796,329.938 174.658,330.219 173.558,332.382 C 173.315,332.859 172.889,333.812 172.612,334.500 C 172.334,335.188 170.870,338.337 169.358,341.500 C 163.387,353.991 160.982,360.557 160.292,366.250 C 160.158,367.350 159.791,371.962 159.475,376.500 C 158.769,386.649 157.741,392.220 155.554,397.750 C 153.335,403.362 145.915,417.085 141.495,423.750 C 133.028,436.518 127.840,443.964 127.398,443.984 C 127.204,443.993 125.165,441.244 122.867,437.875 Z M 128.189,404.375 C 128.376,400.456 128.630,394.775 128.753,391.750 C 128.876,388.725 129.232,381.075 129.544,374.750 C 129.939,366.764 130.017,346.521 129.799,308.500 C 129.459,248.997 129.194,234.004 128.471,233.275 C 128.212,233.014 128.000,232.282 128.000,231.650 C 128.000,230.094 127.370,230.200 126.668,231.875 C 125.609,234.399 125.318,252.749 125.287,319.000 C 125.253,390.107 125.761,411.500 127.482,411.500 C 127.684,411.500 128.002,408.294 128.189,404.375 Z M 125.512,209.689 C 126.383,208.817 125.912,205.789 124.875,205.592 C 124.199,205.464 124.000,205.769 124.000,206.934 C 124.000,208.780 123.211,209.409 122.824,207.872 C 122.669,207.255 122.040,206.525 121.427,206.250 C 120.637,205.895 120.082,204.905 119.517,202.844 C 119.079,201.246 118.503,199.944 118.236,199.950 C 117.969,199.957 117.561,201.322 117.331,202.984 C 116.976,205.543 117.057,206.255 117.858,207.627 C 118.379,208.519 119.285,209.487 119.873,209.780 C 121.255,210.469 124.789,210.412 125.512,209.689 Z M 130.879,209.921 C 131.317,209.483 131.630,209.485 132.168,209.932 C 133.168,210.762 135.105,209.927 136.258,208.171 C 137.465,206.332 138.048,198.234 136.947,198.601 C 136.570,198.727 135.904,200.014 135.468,201.462 C 134.686,204.058 132.411,207.500 131.479,207.500 C 131.215,207.500 131.000,206.938 131.000,206.250 C 131.000,205.463 130.717,205.000 130.238,205.000 C 128.820,205.000 127.821,209.643 129.125,210.169 C 130.099,210.562 130.261,210.539 130.879,209.921 Z M 125.108,199.900 L 125.839,198.800 L 126.780,199.900 C 128.041,201.372 128.728,201.287 130.000,199.500 C 131.228,197.776 132.000,197.571 132.000,198.970 C 132.000,200.892 133.028,200.518 134.003,198.242 C 134.597,196.858 134.876,195.431 134.695,194.710 C 134.468,193.806 134.595,193.500 135.196,193.500 C 136.494,193.500 136.132,192.351 134.383,190.913 C 133.488,190.178 132.939,189.394 133.163,189.170 C 133.754,188.579 139.704,188.807 140.939,189.468 C 143.051,190.598 146.330,187.770 147.396,183.900 C 147.943,181.916 147.509,178.966 146.491,177.739 C 146.125,177.299 146.016,176.455 146.218,175.628 C 148.095,167.925 148.620,163.803 148.013,161.548 C 146.812,157.089 141.642,151.988 136.771,150.456 C 135.659,150.106 134.496,149.630 134.186,149.399 C 133.875,149.167 131.840,148.841 129.664,148.673 C 124.967,148.311 118.526,149.439 115.461,151.160 C 112.780,152.666 109.714,155.708 108.086,158.478 C 106.418,161.315 106.299,165.445 107.722,171.106 C 108.590,174.563 108.623,175.302 108.040,178.235 C 107.122,182.856 107.944,186.437 110.442,188.698 C 111.509,189.663 112.975,189.848 115.895,189.387 C 117.318,189.162 117.638,189.317 118.270,190.538 C 118.671,191.314 119.316,193.142 119.702,194.600 C 120.719,198.437 121.436,200.098 121.942,199.786 C 122.187,199.635 122.665,199.846 123.005,200.256 C 123.841,201.264 124.249,201.195 125.108,199.900 Z M 128.533,120.482 C 130.576,119.389 129.386,119.000 124.000,119.000 C 120.667,119.000 118.500,119.197 118.500,119.500 C 118.500,119.775 118.937,120.000 119.470,120.000 C 120.004,120.000 120.580,120.225 120.750,120.500 C 121.157,121.159 127.294,121.145 128.533,120.482 Z M 128.500,54.378 C 128.500,54.170 128.159,54.000 127.743,54.000 C 127.327,54.000 126.568,53.738 126.055,53.419 C 125.343,52.974 124.229,52.990 121.312,53.489 C 119.216,53.848 117.500,54.338 117.500,54.577 C 117.500,54.817 119.975,54.955 123.000,54.884 C 126.025,54.813 128.500,54.585 128.500,54.378 Z M 123.259,192.875 C 123.143,192.531 122.982,191.688 122.900,191.000 C 122.778,189.988 122.435,189.720 121.095,189.591 C 119.028,189.393 119.230,188.345 121.402,188.000 C 122.614,187.807 123.325,187.197 124.497,185.343 C 125.764,183.338 126.237,182.962 127.324,183.093 C 129.104,183.307 131.255,187.363 131.252,190.500 C 131.250,192.485 131.111,192.770 130.067,192.917 C 129.417,193.009 128.641,192.841 128.342,192.542 C 127.573,191.773 126.230,191.871 125.500,192.750 C 124.743,193.662 123.545,193.729 123.259,192.875 Z M 134.140,185.431 C 130.906,184.689 128.595,180.625 129.959,178.077 C 131.158,175.836 137.755,173.016 141.821,173.005 C 144.151,172.999 144.209,173.099 144.803,178.157 C 145.139,181.015 145.136,181.026 143.127,182.937 C 142.019,183.990 140.469,184.993 139.682,185.164 C 138.894,185.336 137.800,185.575 137.250,185.695 C 136.700,185.816 135.301,185.697 134.140,185.431 Z M 114.656,184.949 C 113.780,184.695 112.401,183.685 111.593,182.705 C 110.238,181.061 110.137,180.663 110.293,177.586 C 110.511,173.315 110.998,170.500 111.520,170.500 C 111.746,170.500 112.002,171.006 112.090,171.625 C 112.221,172.545 112.615,172.779 114.250,172.908 C 115.350,172.996 116.464,173.277 116.725,173.533 C 116.986,173.790 117.584,174.000 118.053,174.000 C 119.245,174.000 122.787,175.959 124.076,177.331 C 125.491,178.837 125.390,180.902 123.778,183.455 L 122.487,185.500 L 119.369,185.455 C 117.653,185.430 115.533,185.202 114.656,184.949 Z" fill="#000000" fill-rule="evenodd" /></svg>