<svg xmlns="http://www.w3.org/2000/svg" viewBox="0 0 427 502" width="427" height="502"><path d="M 19.444,483.922 C 17.504,483.525 16.149,481.890 15.779,479.500 C 15.630,478.538 15.563,474.600 15.629,470.750 C 15.762,463.069 16.225,461.625 18.899,460.566 C 20.708,459.850 404.513,459.863 406.867,460.580 C 407.756,460.851 408.993,461.787 409.617,462.661 C 410.695,464.173 410.744,464.634 410.625,472.219 C 410.485,481.156 409.867,483.379 407.333,484.057 C 405.645,484.508 21.658,484.375 19.444,483.922 Z M 43.630,452.601 C 39.853,452.421 39.313,451.757 39.784,447.876 C 40.393,442.863 41.881,439.717 45.020,436.811 C 47.085,434.899 48.442,434.058 49.824,433.829 C 50.883,433.654 124.713,433.509 213.891,433.506 C 350.979,433.501 376.281,433.607 377.641,434.193 C 379.850,435.144 383.174,438.728 384.717,441.823 C 385.773,443.940 386.000,445.103 386.000,448.393 C 386.000,452.131 385.927,452.408 384.875,452.646 C 383.712,452.910 49.176,452.866 43.630,452.601 Z M 97.626,425.602 C 97.137,425.281 96.998,417.873 96.986,391.527 C 96.977,373.012 97.081,357.752 97.216,357.617 C 97.392,357.441 172.429,357.310 175.625,357.480 C 175.831,357.491 176.000,372.800 176.000,391.500 L 176.000,425.500 L 138.125,425.507 C 117.294,425.511 99.800,425.626 99.250,425.763 C 98.700,425.901 97.969,425.828 97.626,425.602 Z M 185.104,425.596 C 184.236,425.017 184.163,358.018 185.029,357.482 C 185.735,357.046 240.749,357.286 241.465,357.728 C 241.837,357.958 242.000,368.355 242.000,391.780 L 242.000,425.500 L 215.312,425.500 C 200.634,425.500 187.978,425.619 187.188,425.764 C 186.397,425.909 185.459,425.833 185.104,425.596 Z M 337.996,425.583 C 337.674,425.475 337.500,413.487 337.500,391.468 L 337.500,357.519 L 338.625,357.275 C 339.244,357.141 346.050,357.080 353.750,357.141 L 367.750,357.250 L 368.000,391.000 C 368.137,409.562 368.136,424.909 367.997,425.103 C 367.749,425.449 338.969,425.910 337.996,425.583 Z M 58.322,425.116 C 58.186,424.897 58.075,409.705 58.074,391.357 C 58.073,359.801 58.121,357.970 58.968,357.517 C 59.991,356.970 87.888,356.915 88.225,357.459 C 88.344,357.652 88.483,372.984 88.534,391.530 L 88.626,425.250 L 73.597,425.382 C 65.331,425.455 58.457,425.335 58.322,425.116 Z M 250.376,425.125 C 250.275,424.919 250.126,409.759 250.045,391.436 C 249.941,367.811 250.056,358.024 250.442,357.786 C 250.741,357.601 268.483,357.417 289.868,357.377 L 328.750,357.305 L 329.000,391.028 C 329.137,409.575 329.180,424.919 329.095,425.125 C 329.011,425.331 311.305,425.500 289.750,425.500 C 268.195,425.500 250.477,425.331 250.376,425.125 Z M 51.729,349.534 C 47.704,348.889 43.879,345.546 41.677,340.750 C 40.576,338.352 40.295,336.998 40.275,334.000 L 40.250,330.250 L 212.750,330.122 C 365.465,330.009 385.313,330.080 385.802,330.743 C 387.151,332.572 385.293,340.074 382.447,344.289 C 379.969,347.959 377.873,349.150 373.283,349.494 C 367.819,349.904 54.280,349.943 51.729,349.534 Z M 18.594,322.437 C 18.068,322.242 17.157,321.472 16.569,320.724 C 15.551,319.430 15.500,318.845 15.500,308.383 C 15.500,299.215 15.636,297.114 16.325,295.663 C 17.945,292.249 11.998,292.501 91.502,292.490 C 131.199,292.484 163.807,292.656 163.964,292.871 C 164.121,293.086 164.906,294.272 165.707,295.506 C 166.509,296.740 170.002,300.589 173.469,304.059 C 182.318,312.914 186.266,314.684 190.548,311.716 L 192.401,310.433 L 194.942,311.721 C 198.847,313.699 202.465,314.439 209.917,314.780 C 218.613,315.179 224.931,314.301 229.917,312.004 L 233.421,310.389 L 235.133,311.694 C 240.234,315.586 247.801,310.776 259.256,296.359 L 262.348,292.469 L 334.189,292.479 C 413.096,292.491 408.092,292.294 409.730,295.461 C 410.270,296.505 410.567,299.446 410.801,306.078 C 411.153,316.056 410.671,320.238 408.994,321.755 C 408.089,322.575 397.343,322.627 213.793,322.706 C 106.959,322.753 19.120,322.631 18.594,322.437 Z M 218.613,305.375 C 217.533,304.049 217.005,300.512 217.003,294.575 L 217.000,288.400 L 215.300,286.700 C 214.365,285.765 213.335,285.000 213.012,285.000 C 212.688,285.000 211.765,285.658 210.962,286.462 C 209.511,287.912 209.500,287.969 209.497,293.837 C 209.493,303.230 208.271,305.879 204.197,305.320 C 202.996,305.156 201.144,304.472 200.081,303.801 C 198.335,302.699 198.118,302.324 197.829,299.916 C 197.653,298.450 197.507,295.671 197.504,293.742 C 197.500,289.865 196.550,287.455 194.391,285.844 C 193.216,284.966 193.034,284.957 191.582,285.708 C 190.728,286.149 189.798,286.943 189.515,287.472 C 189.232,288.001 189.000,291.557 189.000,295.373 C 189.000,301.665 188.905,302.413 187.981,303.406 C 187.420,304.008 186.781,304.500 186.561,304.500 C 185.715,304.500 175.064,293.092 173.938,290.978 C 172.782,288.809 172.746,288.386 172.617,275.042 C 172.529,265.985 172.297,261.108 171.933,260.670 C 170.994,259.538 166.344,257.088 163.890,256.432 C 161.553,255.807 157.599,256.219 153.246,257.541 C 152.419,257.792 150.780,258.035 149.605,258.081 C 146.237,258.213 144.593,256.260 139.863,246.506 C 135.393,237.287 135.144,236.041 136.959,231.938 C 140.386,224.189 140.151,225.403 139.753,217.504 C 139.120,204.968 139.146,204.483 140.623,201.465 C 141.356,199.966 143.784,196.605 146.019,193.995 C 153.347,185.436 155.000,181.333 155.000,171.702 C 155.000,168.199 154.797,165.500 154.534,165.500 C 154.012,165.500 153.908,165.802 152.724,170.750 C 151.403,176.270 149.499,179.300 143.763,185.010 C 137.994,190.754 137.170,191.370 136.348,190.548 C 136.020,190.220 135.623,186.546 135.382,181.621 C 135.156,177.017 134.867,172.768 134.740,172.179 C 134.605,171.555 132.468,169.571 129.629,167.431 C 111.263,153.593 101.454,143.806 96.874,134.749 C 93.261,127.605 91.270,120.233 90.718,111.957 C 90.074,102.304 92.137,92.718 96.930,83.089 C 99.995,76.932 104.759,70.674 112.373,62.804 C 122.512,52.324 126.547,46.136 128.318,38.352 C 129.307,34.003 129.030,28.478 127.537,22.792 C 126.966,20.616 126.600,18.734 126.723,18.610 C 127.195,18.139 130.546,20.660 132.965,23.307 C 135.619,26.211 138.673,31.236 139.886,34.697 C 140.282,35.826 140.900,38.961 141.260,41.663 C 142.313,49.580 141.084,57.552 137.701,64.750 C 136.114,68.127 133.380,73.188 132.678,74.049 C 131.922,74.976 130.124,78.154 128.608,81.243 C 126.330,85.882 125.796,88.756 125.772,96.500 L 125.750,103.750 L 127.705,107.633 C 129.210,110.623 130.590,112.405 133.705,115.386 C 138.677,120.143 141.198,121.818 150.722,126.686 C 155.875,129.320 158.513,130.411 159.222,130.199 C 159.787,130.030 162.407,128.454 165.043,126.696 C 167.679,124.938 170.022,123.500 170.251,123.500 C 170.479,123.500 172.935,122.400 175.708,121.055 C 181.260,118.362 190.078,115.294 194.443,114.536 C 198.463,113.839 204.202,113.064 208.203,112.678 L 211.656,112.346 L 211.341,114.298 C 211.168,115.372 209.895,118.550 208.513,121.361 C 207.131,124.172 206.000,126.690 206.000,126.957 C 206.000,127.224 205.535,128.231 204.967,129.193 C 203.890,131.019 201.992,135.865 202.011,136.743 C 202.016,137.022 203.827,138.713 206.033,140.500 C 208.240,142.287 211.407,145.275 213.072,147.138 L 216.098,150.526 L 215.231,152.638 C 214.754,153.800 213.722,156.775 212.937,159.250 C 210.671,166.402 211.180,170.458 213.698,165.311 C 214.419,163.838 215.757,161.646 216.672,160.441 C 219.454,156.777 221.713,153.371 222.990,150.917 L 224.203,148.585 L 221.246,144.667 C 219.619,142.513 217.187,139.454 215.841,137.871 C 212.916,134.430 212.946,133.954 216.409,128.861 C 217.697,126.967 220.100,122.793 221.750,119.584 L 224.750,113.750 L 227.000,113.894 C 231.358,114.174 244.697,118.106 249.750,120.600 C 252.383,121.899 260.025,126.094 264.250,128.559 C 267.098,130.221 268.438,130.180 271.361,128.344 C 272.400,127.691 274.554,126.670 276.148,126.077 C 284.761,122.867 292.233,117.195 296.578,110.567 C 300.953,103.892 302.077,96.585 299.997,88.332 C 299.028,84.485 296.695,78.966 294.995,76.500 C 294.521,75.812 292.944,73.000 291.490,70.250 C 290.036,67.500 288.679,65.025 288.473,64.750 C 287.668,63.673 285.481,56.322 284.942,52.881 C 284.286,48.684 284.650,40.974 285.684,37.169 C 287.275,31.318 289.712,27.294 294.943,21.875 C 297.676,19.045 299.829,18.062 299.324,19.875 C 297.020,28.150 296.718,33.525 298.206,39.750 C 299.941,47.006 302.373,50.706 312.471,61.447 C 323.896,73.600 328.205,79.475 331.395,87.250 C 334.865,95.707 336.551,106.562 335.500,113.682 C 333.121,129.805 329.316,137.392 317.001,150.571 C 312.011,155.911 307.650,159.501 297.155,166.907 C 291.270,171.060 291.833,169.635 291.060,182.344 C 290.805,186.521 290.450,190.177 290.269,190.469 C 289.552,191.629 288.297,190.785 283.070,185.625 C 276.923,179.557 274.745,175.975 273.262,169.500 C 272.110,164.468 272.081,164.391 271.504,164.748 C 271.207,164.931 271.005,167.669 271.013,171.405 C 271.024,176.787 271.213,178.314 272.258,181.469 C 273.747,185.960 274.727,187.489 280.009,193.558 C 285.834,200.251 286.721,202.131 286.707,207.750 C 286.701,210.225 286.508,214.734 286.279,217.770 L 285.861,223.290 L 287.706,227.770 C 288.720,230.234 289.919,233.189 290.369,234.337 L 291.187,236.424 L 288.594,241.655 C 287.167,244.533 286.000,247.053 286.000,247.257 C 286.000,248.136 282.795,253.874 281.581,255.170 C 278.776,258.161 276.904,258.508 270.331,257.250 C 268.176,256.837 265.476,256.502 264.331,256.505 C 261.978,256.510 258.028,258.188 255.662,260.186 L 254.073,261.527 L 253.912,274.639 L 253.750,287.750 L 252.309,290.500 C 250.701,293.569 240.772,303.970 239.433,303.989 C 237.548,304.015 237.000,301.891 237.000,294.562 L 237.000,287.589 L 235.462,286.294 C 234.616,285.583 233.366,285.000 232.684,285.000 C 231.658,285.000 231.224,285.494 230.160,287.875 C 229.132,290.177 228.813,291.869 228.563,296.361 C 228.200,302.867 227.890,303.395 223.489,305.004 C 220.323,306.161 219.316,306.238 218.613,305.375 Z M 207.990,259.206 C 210.937,255.513 212.663,254.284 213.941,254.968 C 214.472,255.253 216.261,256.986 217.916,258.819 C 220.908,262.134 220.933,262.149 222.483,261.507 C 224.418,260.706 227.000,257.649 227.000,256.160 C 227.000,255.548 226.785,254.530 226.521,253.899 C 226.258,253.267 224.818,249.243 223.321,244.956 C 219.965,235.347 218.646,232.700 216.037,230.343 C 213.647,228.184 213.208,228.123 210.949,229.643 C 207.571,231.916 200.381,248.263 199.636,255.365 C 199.371,257.897 199.426,258.044 201.372,259.990 C 204.166,262.784 205.236,262.657 207.990,259.206 Z M 178.250,233.815 C 187.173,231.745 192.453,228.315 196.824,221.746 C 199.642,217.512 200.467,215.267 200.488,211.775 C 200.499,210.040 200.191,209.511 197.943,207.400 C 196.537,206.080 195.210,205.000 194.994,205.000 C 194.779,205.000 193.173,204.146 191.426,203.103 C 189.679,202.059 186.562,200.462 184.500,199.553 C 182.438,198.644 179.963,197.534 179.000,197.086 C 177.903,196.575 175.480,196.201 172.511,196.083 C 164.514,195.767 158.367,198.361 155.968,203.064 C 154.462,206.015 154.129,208.728 154.529,214.788 C 155.258,225.838 158.461,232.307 164.250,234.420 C 166.256,235.152 173.909,234.821 178.250,233.815 Z M 262.719,233.969 C 264.548,233.285 266.047,232.270 267.173,230.955 C 269.990,227.664 272.191,218.816 272.199,210.750 C 272.203,206.673 272.071,206.039 270.791,204.000 C 268.955,201.075 267.098,199.092 265.324,198.166 C 260.419,195.605 252.594,195.221 247.136,197.274 C 239.821,200.026 227.224,207.463 225.998,209.754 C 225.077,211.475 225.655,215.241 227.337,218.483 C 228.114,219.980 230.438,222.927 232.500,225.030 C 236.912,229.530 240.102,231.230 248.283,233.440 C 254.943,235.239 258.932,235.385 262.719,233.969 Z M 61.399,261.881 C 61.343,249.159 61.261,237.818 61.217,236.678 C 61.172,235.539 60.318,232.702 59.318,230.375 C 57.123,225.265 57.067,223.667 58.944,219.700 C 61.174,214.985 62.159,214.918 70.132,218.940 C 73.337,220.557 76.587,222.000 77.354,222.146 C 78.122,222.292 80.325,222.769 82.250,223.206 C 84.175,223.643 86.875,224.004 88.250,224.010 C 92.073,224.025 97.584,224.940 98.851,225.770 C 100.584,226.906 101.503,228.626 101.824,231.336 C 102.070,233.417 101.894,234.220 100.683,236.524 L 99.250,239.250 L 99.298,251.250 C 99.329,258.970 99.675,266.460 100.267,272.250 C 100.774,277.200 101.202,282.038 101.219,283.000 L 101.250,284.750 L 81.375,284.881 L 61.500,285.011 L 61.399,261.881 Z M 325.138,284.139 C 324.957,283.666 325.308,277.197 325.920,269.764 C 326.531,262.331 327.024,252.712 327.016,248.388 C 327.000,240.728 326.961,240.440 325.500,237.250 C 323.878,233.708 323.685,232.088 324.571,229.450 C 325.872,225.576 327.777,224.621 335.077,224.184 C 343.294,223.691 350.650,221.633 357.312,217.962 C 361.327,215.750 363.262,215.525 365.195,217.046 C 368.491,219.639 368.983,225.223 366.423,231.000 L 364.762,234.750 L 364.623,259.000 C 364.547,272.337 364.488,283.644 364.492,284.125 C 364.499,284.944 363.240,285.000 344.984,285.000 C 326.982,285.000 325.443,284.933 325.138,284.139 Z M 79.918,211.777 C 75.426,210.233 72.075,206.904 70.935,202.854 C 69.790,198.790 70.355,192.539 72.254,188.250 C 72.619,187.425 73.396,185.625 73.981,184.250 C 74.565,182.875 76.431,179.680 78.126,177.150 C 81.619,171.938 81.982,171.886 83.239,176.417 C 83.672,177.975 85.500,182.208 87.303,185.822 C 89.998,191.229 90.717,193.206 91.350,196.965 C 92.104,201.436 92.096,201.604 90.996,204.643 C 90.377,206.352 89.432,208.372 88.896,209.133 C 87.089,211.696 83.099,212.871 79.918,211.777 Z M 338.392,209.875 C 335.511,206.803 334.316,203.910 334.315,200.000 C 334.313,196.093 335.308,193.087 339.478,184.397 C 341.155,180.903 342.924,176.740 343.409,175.147 C 343.894,173.554 344.507,172.268 344.771,172.289 C 345.034,172.311 345.965,173.548 346.838,175.039 C 347.711,176.530 349.174,178.987 350.088,180.499 C 352.290,184.141 354.661,190.019 355.467,193.831 C 356.185,197.230 355.612,202.367 354.212,205.073 C 351.886,209.572 348.117,212.000 343.462,212.000 C 340.487,212.000 340.318,211.929 338.392,209.875 Z" fill="#000000" fill-rule="evenodd" /></svg>