<svg width="100" height="106" viewBox="0 0 100 106" fill="none" xmlns="http://www.w3.org/2000/svg">
<path fill-rule="evenodd" clip-rule="evenodd" d="M22.0524 104.967C19.2854 103.586 18.4284 102.689 17.0074 99.6864C16.0424 97.6464 15.7584 96.2424 15.7584 93.5144V89.9834L12.1334 89.9694C7.69436 89.9524 4.74836 88.6264 2.44236 85.6094C-1.22364 80.8124 -0.724635 74.7314 3.68336 70.4834C6.76936 67.5094 9.79336 66.5844 13.7524 67.4014C17.9634 68.2714 20.9724 68.1194 23.6384 66.9014C29.5364 64.2084 57.5724 32.8344 61.0964 24.9834C63.0104 20.7204 63.4404 17.1914 62.3044 15.0694C62.0044 14.5084 61.7584 12.7944 61.7584 11.2604C61.7584 7.85645 63.2524 4.41444 65.4504 2.75644C70.6654 -1.17656 76.4074 -0.886555 80.8484 3.53544C83.5474 6.22344 84.4254 8.70644 84.1744 12.9394C84.0224 15.4894 84.0954 15.7224 85.0084 15.6044C93.8514 14.4614 99.7584 18.7854 99.7584 26.4024C99.7584 34.9184 92.6404 40.0484 83.9234 37.8154C78.2784 36.3684 75.0534 38.1944 65.1154 48.4634C56.8844 56.9684 40.8884 75.4804 39.0294 78.6524C38.2764 79.9374 37.2274 82.1274 36.6984 83.5204C35.7444 86.0304 35.7454 86.0814 36.7474 89.4464C37.3034 91.3134 37.7584 93.5784 37.7584 94.4794C37.7584 102.568 28.9844 108.426 22.0524 104.967Z" fill="black"/>
</svg>
