<svg xmlns="http://www.w3.org/2000/svg" viewBox="0 0 499 404" width="499" height="404"><path d="M 125.000,388.011 C 123.213,387.776 119.500,387.336 116.750,387.032 C 108.876,386.161 102.781,385.192 94.000,383.414 C 88.201,382.240 75.559,378.294 72.267,376.629 C 68.750,374.851 63.849,370.355 61.504,366.756 C 59.165,363.166 57.003,357.191 56.993,354.287 C 56.989,353.167 56.659,351.313 56.260,350.168 C 55.861,349.022 55.165,345.760 54.713,342.918 C 53.767,336.968 53.888,325.495 54.916,323.625 C 55.880,321.874 57.411,322.202 58.417,324.375 C 60.569,329.022 70.500,343.366 74.687,347.875 C 76.461,349.785 77.285,349.924 77.645,348.375 C 78.307,345.522 80.223,341.135 81.293,340.025 L 82.473,338.800 L 83.766,340.015 C 84.478,340.684 86.598,343.485 88.478,346.240 C 92.206,351.704 94.129,353.788 94.967,353.271 C 96.116,352.560 97.039,349.896 96.928,347.609 C 96.695,342.822 96.969,341.092 98.185,339.678 C 99.331,338.346 99.412,338.328 100.636,339.130 C 101.333,339.586 103.166,341.752 104.710,343.944 C 106.255,346.136 108.704,349.182 110.153,350.714 C 113.179,353.915 112.782,353.846 122.169,352.791 C 125.823,352.380 128.360,351.855 128.797,351.417 C 129.391,350.824 129.413,350.016 128.934,346.479 C 128.048,339.929 128.669,327.041 130.209,320.000 C 131.978,311.918 132.383,310.684 133.780,309.126 L 135.013,307.750 L 136.452,309.416 C 137.244,310.332 138.027,311.761 138.193,312.590 C 138.633,314.788 141.895,322.668 144.160,327.000 C 147.116,332.657 149.390,335.901 153.009,339.625 C 156.456,343.173 156.950,343.373 161.500,343.059 C 163.521,342.919 170.104,341.066 173.754,339.609 C 179.920,337.148 184.668,333.931 185.143,331.892 C 185.290,331.264 185.874,328.468 186.441,325.679 C 187.504,320.453 189.102,315.726 190.180,314.621 C 191.218,313.557 195.180,314.618 197.618,316.612 C 200.498,318.969 203.805,320.592 205.341,320.405 C 206.696,320.239 208.525,317.554 209.193,314.750 C 211.004,307.151 213.608,301.500 215.297,301.500 C 216.126,301.500 219.825,304.134 223.970,307.676 C 229.120,312.076 231.184,310.764 234.476,301.000 C 236.113,296.143 238.018,292.100 238.812,291.795 C 239.436,291.556 240.643,291.955 244.250,293.593 C 244.800,293.842 246.536,295.247 248.108,296.715 C 251.170,299.573 252.932,300.339 254.506,299.497 C 255.048,299.206 256.635,296.670 258.032,293.860 C 261.162,287.564 262.011,286.584 263.604,287.427 C 264.234,287.761 266.415,288.927 268.450,290.017 C 270.486,291.108 272.701,292.000 273.373,292.000 C 274.891,292.000 276.616,290.817 281.884,286.165 C 286.711,281.902 288.524,279.908 289.752,277.511 L 290.644,275.772 L 291.111,277.011 C 291.706,278.586 290.263,290.922 288.942,295.554 C 288.424,297.371 288.007,299.396 288.016,300.054 C 288.032,301.232 288.043,301.235 288.815,300.250 C 289.553,299.309 291.703,294.950 295.106,287.500 C 298.066,281.019 299.925,275.012 301.691,266.218 C 304.444,252.517 306.616,242.681 308.142,237.000 C 308.549,235.488 309.033,233.350 309.218,232.250 C 309.815,228.704 311.121,223.806 312.044,221.650 C 313.278,218.767 316.738,217.106 326.000,214.949 C 338.405,212.061 354.698,212.458 364.538,215.889 C 370.341,217.913 371.876,218.772 373.005,220.629 C 374.550,223.168 373.826,225.060 367.510,235.000 C 359.248,248.003 357.775,252.045 357.765,261.750 C 357.759,267.518 357.820,267.866 359.334,270.750 C 361.185,274.275 362.879,275.953 368.091,279.426 C 370.204,280.833 372.286,282.489 372.716,283.104 C 373.975,284.901 373.621,288.735 371.387,297.500 C 369.013,306.809 355.649,323.538 346.000,329.278 C 337.926,334.082 336.372,334.536 326.250,335.048 C 317.537,335.489 309.628,336.436 303.000,337.831 C 299.401,338.589 298.531,338.779 293.500,339.906 C 291.049,340.455 283.574,342.640 277.250,344.657 C 269.657,347.078 263.736,348.858 259.500,349.992 C 257.163,350.617 253.338,351.683 251.000,352.359 C 248.662,353.035 246.075,353.774 245.250,354.001 C 244.425,354.228 242.512,354.754 241.000,355.170 C 239.488,355.586 233.863,357.418 228.500,359.240 C 223.137,361.063 218.075,362.743 217.250,362.974 C 216.425,363.205 214.738,363.750 213.500,364.185 C 212.262,364.619 206.188,366.574 200.000,368.528 C 186.129,372.908 176.261,376.371 171.750,378.439 C 171.200,378.692 169.906,379.258 168.875,379.699 C 167.844,380.140 166.269,380.828 165.375,381.228 C 160.415,383.451 151.810,385.903 144.250,387.248 C 139.105,388.163 129.168,388.557 125.000,388.011 Z M 108.169,328.818 C 103.534,323.540 96.750,306.495 94.927,295.546 C 94.670,294.008 94.234,291.625 93.956,290.250 C 93.678,288.875 93.324,285.314 93.169,282.338 C 92.954,278.222 92.710,276.857 92.150,276.643 C 91.345,276.334 87.070,277.147 83.456,278.297 C 79.716,279.487 77.717,282.209 76.517,287.750 C 74.916,295.139 73.395,300.695 72.671,301.800 C 71.582,303.463 69.966,303.304 67.940,301.336 C 66.725,300.156 65.429,297.742 63.488,293.041 C 61.982,289.395 60.429,286.279 60.036,286.118 C 58.781,285.602 56.332,289.153 54.558,294.059 C 53.628,296.633 52.534,299.247 52.126,299.869 C 51.225,301.244 48.989,301.379 47.883,300.125 C 46.988,299.109 45.062,295.391 43.471,291.605 C 41.646,287.262 40.149,287.146 38.293,291.203 C 36.251,295.667 34.738,301.512 33.467,309.847 C 32.692,314.931 32.161,315.152 29.064,311.677 C 26.346,308.628 24.070,303.876 22.392,297.750 C 15.675,273.224 18.666,260.096 36.054,237.784 C 37.754,235.603 41.295,230.990 43.924,227.534 C 46.552,224.078 50.232,219.379 52.101,217.092 C 53.971,214.805 55.500,212.751 55.500,212.528 C 55.500,211.610 53.967,210.974 51.255,210.766 C 49.673,210.644 48.255,210.422 48.105,210.272 C 46.865,209.031 55.784,200.220 63.255,195.306 C 72.659,189.120 80.604,184.343 84.000,182.833 C 84.963,182.405 86.312,181.708 87.000,181.284 C 87.688,180.860 92.188,178.625 97.000,176.317 C 126.187,162.320 132.196,159.177 138.750,154.481 C 148.986,147.148 156.597,140.446 159.557,136.160 C 161.914,132.746 161.120,131.864 157.989,134.419 C 156.160,135.911 143.748,143.352 141.351,144.393 C 140.000,144.980 137.500,145.230 137.500,144.779 C 137.500,143.894 142.434,129.162 144.375,124.250 C 147.131,117.278 152.511,111.232 160.072,106.610 C 164.388,103.973 167.518,103.279 178.500,102.524 C 188.886,101.811 193.562,101.151 196.184,100.031 C 197.320,99.546 199.713,98.637 201.500,98.011 C 203.287,97.385 207.000,95.855 209.750,94.610 C 219.204,90.330 236.500,80.215 236.500,78.966 C 236.500,77.649 226.871,79.910 213.061,84.470 C 202.995,87.794 201.000,88.338 201.000,87.760 C 201.000,86.750 207.416,77.490 216.771,65.000 C 221.200,59.087 225.574,53.125 226.492,51.750 C 233.618,41.079 240.822,33.866 250.795,27.414 C 256.073,24.000 265.976,19.827 272.000,18.478 C 273.512,18.139 275.538,17.661 276.500,17.416 C 279.025,16.773 298.383,16.291 304.160,16.728 C 309.796,17.153 310.457,17.697 308.202,20.050 C 306.785,21.530 305.255,22.500 299.000,25.888 C 294.061,28.563 286.054,33.459 283.213,35.542 C 279.533,38.239 270.991,46.883 268.357,50.574 C 265.368,54.763 262.283,61.013 261.264,64.945 C 259.742,70.819 258.619,78.081 259.206,78.259 C 259.505,78.351 263.158,78.557 267.322,78.717 C 271.487,78.877 277.112,79.370 279.822,79.811 C 282.533,80.252 285.988,80.762 287.500,80.943 C 290.227,81.270 291.500,81.736 291.500,82.408 C 291.500,82.600 290.488,83.991 289.250,85.500 C 287.003,88.240 286.479,89.500 287.588,89.500 C 288.785,89.500 295.931,85.669 301.750,81.907 C 307.550,78.158 309.186,76.997 318.541,70.000 C 332.016,59.920 341.842,54.040 355.750,47.736 C 357.400,46.987 362.012,44.813 366.000,42.904 C 381.601,35.433 390.963,32.616 404.000,31.469 C 417.423,30.288 435.972,32.999 449.500,38.120 C 453.404,39.597 465.783,45.806 468.480,47.639 C 476.553,53.126 482.931,59.156 482.327,60.730 C 481.862,61.941 479.642,62.171 476.603,61.323 C 467.999,58.921 453.692,57.000 444.413,57.000 C 422.817,57.000 406.635,62.797 388.750,76.941 C 386.275,78.898 383.125,81.368 381.750,82.430 C 377.037,86.069 367.260,97.783 364.164,103.500 C 361.828,107.814 360.952,111.821 362.237,112.314 C 362.677,112.483 363.457,112.242 363.969,111.778 C 364.762,111.060 365.211,111.018 366.985,111.496 C 370.756,112.511 387.056,119.901 392.455,123.043 C 395.367,124.738 398.526,126.567 399.475,127.109 C 402.161,128.644 406.673,132.246 408.461,134.282 C 410.052,136.094 412.371,140.584 413.453,143.950 C 414.222,146.341 414.117,151.062 413.189,155.750 C 412.753,157.950 412.287,162.562 412.152,166.000 C 411.813,174.655 412.763,178.046 417.761,186.007 C 419.605,188.945 421.569,193.050 422.284,195.463 C 423.228,198.645 423.993,205.858 423.985,211.500 C 423.974,219.670 420.690,226.578 414.821,230.779 C 413.132,231.989 410.211,234.137 408.331,235.554 C 406.450,236.971 403.799,238.553 402.439,239.069 C 400.245,239.903 399.814,239.929 398.608,239.297 C 396.073,237.969 394.209,235.408 393.297,232.000 C 392.819,230.213 392.087,227.963 391.672,227.000 C 391.256,226.037 390.586,224.486 390.182,223.553 C 389.778,222.619 388.414,220.512 387.150,218.870 C 383.986,214.758 380.337,212.439 369.250,207.496 C 364.460,205.361 354.856,203.489 346.880,203.138 C 331.751,202.470 313.496,206.931 293.250,216.241 C 287.356,218.952 283.320,220.434 278.000,221.843 C 272.452,223.312 268.189,223.231 260.750,221.517 C 258.275,220.947 254.225,220.045 251.750,219.512 C 247.937,218.692 244.431,217.646 239.250,215.784 C 236.767,214.891 243.217,219.761 247.250,221.825 C 249.725,223.091 251.975,224.287 252.250,224.482 C 252.525,224.677 254.100,225.349 255.750,225.975 C 257.400,226.601 259.425,227.406 260.250,227.763 C 264.755,229.714 267.803,230.250 274.375,230.246 C 281.928,230.241 281.999,230.293 279.728,234.112 C 279.029,235.288 277.453,238.387 276.226,241.000 C 274.999,243.613 273.771,246.141 273.497,246.618 C 273.224,247.096 272.994,247.771 272.988,248.118 C 272.969,249.070 269.577,253.505 268.602,253.852 C 266.145,254.725 263.636,257.557 261.544,261.819 C 259.206,266.581 256.160,271.409 254.095,273.625 C 252.001,275.872 250.997,275.473 246.660,270.674 C 244.509,268.295 241.819,265.325 240.681,264.073 L 238.612,261.798 L 236.619,262.696 C 234.675,263.573 232.691,265.858 230.060,270.250 C 228.121,273.487 225.466,276.000 223.986,276.000 C 222.302,276.000 221.172,274.767 216.780,268.137 C 211.701,260.470 211.125,260.526 205.483,269.250 C 201.208,275.859 199.698,276.944 196.874,275.432 C 195.148,274.509 190.597,269.350 187.568,264.882 C 185.846,262.344 184.495,261.342 183.373,261.772 C 182.418,262.139 178.093,268.828 175.468,274.000 C 172.672,279.507 171.556,281.000 170.236,281.000 C 168.324,281.000 165.625,278.386 163.400,274.380 C 158.679,265.881 157.710,264.595 155.598,264.026 C 154.518,263.736 152.874,263.628 151.943,263.788 C 149.438,264.217 144.067,265.465 141.500,266.213 C 140.262,266.574 138.012,267.149 136.500,267.491 C 132.584,268.376 127.504,270.026 125.750,270.981 C 123.952,271.961 122.650,274.500 120.485,281.250 C 119.602,284.000 118.704,286.700 118.489,287.250 C 117.715,289.228 116.005,296.356 115.009,301.750 C 114.451,304.775 113.778,308.375 113.512,309.750 C 113.247,311.125 112.799,315.062 112.517,318.500 C 111.968,325.172 111.101,330.379 110.473,330.767 C 110.262,330.897 109.225,330.021 108.169,328.818 Z M 55.087,254.302 C 64.241,251.079 77.073,244.695 82.309,240.759 C 86.517,237.595 93.415,227.988 97.040,220.240 C 101.928,209.795 103.451,205.843 102.951,204.908 C 102.030,203.188 97.831,203.908 81.500,208.588 C 71.125,211.561 68.617,212.599 67.226,214.500 C 65.525,216.822 59.629,225.919 58.800,227.500 C 56.684,231.534 54.209,235.854 52.713,238.126 C 51.771,239.556 51.000,240.891 51.000,241.092 C 51.000,241.292 50.293,242.647 49.430,244.103 C 48.566,245.559 46.991,248.482 45.930,250.599 C 42.188,258.062 43.221,258.480 55.087,254.302 Z M 198.500,218.127 C 198.500,211.832 197.644,209.570 193.825,205.776 C 190.279,202.254 184.155,199.334 182.753,200.497 C 181.748,201.331 182.568,203.168 185.434,206.500 C 188.969,210.610 189.743,211.802 194.826,220.946 C 196.950,224.767 197.219,225.061 197.829,224.226 C 198.288,223.599 198.500,221.671 198.500,218.127 Z M 137.614,194.811 C 143.934,192.416 152.644,188.229 161.875,183.147 C 165.519,181.141 168.595,179.500 168.709,179.500 C 168.824,179.500 170.630,178.488 172.723,177.250 C 174.816,176.012 176.646,175.000 176.789,175.000 C 176.932,175.000 178.404,174.100 180.060,173.000 C 181.716,171.900 183.189,171.000 183.333,171.000 C 183.478,171.000 184.193,170.577 184.923,170.059 C 186.445,168.980 189.006,167.476 194.909,164.194 L 199.069,161.881 L 214.659,161.626 C 223.234,161.486 232.013,161.344 234.167,161.310 C 237.947,161.252 238.132,161.304 239.465,162.797 C 240.719,164.201 240.879,164.823 241.196,169.547 C 241.635,176.061 242.146,178.010 243.870,179.733 C 246.200,182.063 251.847,184.370 263.750,187.851 C 269.929,189.659 279.105,189.758 283.925,188.069 C 289.567,186.091 297.729,180.280 299.689,176.844 C 300.870,174.774 302.657,168.361 303.268,164.000 C 303.441,162.762 304.127,159.447 304.791,156.632 C 305.456,153.817 306.000,150.985 306.000,150.340 C 306.000,148.191 303.943,142.862 302.025,140.038 C 293.518,127.518 282.211,122.532 270.304,126.050 C 263.201,128.148 257.557,131.788 248.740,139.960 C 241.526,146.645 234.288,150.972 228.236,152.217 C 226.304,152.614 221.241,153.074 216.986,153.237 C 212.731,153.401 206.742,153.632 203.676,153.749 C 198.541,153.946 197.745,154.117 193.564,155.919 C 191.068,156.995 187.501,158.883 185.638,160.113 C 183.775,161.343 180.787,163.209 179.000,164.260 C 177.213,165.310 174.963,166.766 174.000,167.496 C 173.037,168.226 170.284,170.044 167.882,171.536 C 165.479,173.029 162.085,175.150 160.339,176.250 C 158.593,177.350 154.146,180.147 150.457,182.466 C 146.768,184.785 142.763,187.485 141.556,188.466 C 137.726,191.580 133.227,195.981 133.864,195.991 C 134.201,195.996 135.889,195.465 137.614,194.811 Z M 386.265,187.625 C 385.443,184.329 379.823,179.441 374.612,177.491 C 367.576,174.857 351.834,171.613 342.000,170.771 C 339.938,170.594 337.863,170.336 337.391,170.196 C 336.198,169.844 335.522,167.116 335.164,161.211 C 334.686,153.316 335.904,149.559 342.414,138.852 C 344.386,135.609 346.000,132.734 346.000,132.465 C 346.000,130.901 337.022,137.850 332.653,142.795 C 329.695,146.144 327.954,149.093 327.012,152.347 C 326.018,155.782 325.000,163.585 325.000,167.770 C 325.000,175.018 326.910,177.493 333.229,178.433 C 335.326,178.745 337.927,179.000 339.011,179.000 C 340.095,179.000 342.617,179.237 344.616,179.527 C 352.890,180.727 364.266,182.648 365.707,183.088 C 366.555,183.347 369.950,184.319 373.250,185.249 C 376.550,186.179 380.488,187.387 382.000,187.933 C 385.980,189.372 386.688,189.320 386.265,187.625 Z" fill="#000000" fill-rule="evenodd" /></svg>