<svg xmlns="http://www.w3.org/2000/svg" viewBox="0 0 418 493" width="418" height="493"><path d="M 102.362,476.754 C 100.512,475.789 98.766,475.000 98.483,475.000 C 97.865,475.000 82.295,467.299 78.750,465.239 C 69.256,459.724 56.907,450.794 48.750,443.545 C 40.934,436.598 40.880,436.545 35.198,430.250 C 25.940,419.994 20.023,412.006 16.386,404.851 C 14.976,402.079 14.939,401.839 15.528,399.351 C 15.867,397.921 16.900,395.129 17.822,393.148 C 18.745,391.167 19.500,389.429 19.500,389.287 C 19.500,389.144 20.030,387.840 20.678,386.389 C 21.325,384.937 22.371,382.512 23.001,381.000 C 23.631,379.488 24.432,377.575 24.781,376.750 C 26.215,373.362 30.519,359.788 31.465,355.670 C 35.583,337.744 37.239,320.063 36.817,298.500 C 36.659,290.387 36.153,278.125 35.693,271.250 C 34.629,255.351 34.456,221.237 35.399,213.250 C 37.906,192.010 39.863,182.768 45.299,166.500 C 48.701,156.321 55.498,141.954 60.250,134.901 C 61.350,133.268 62.689,131.216 63.225,130.341 C 65.340,126.892 73.886,116.002 77.954,111.573 C 89.084,99.455 107.076,85.801 121.750,78.334 C 125.011,76.675 135.004,72.000 135.289,72.000 C 135.411,72.000 136.465,71.563 137.630,71.030 C 139.591,70.132 143.180,68.757 150.750,66.003 C 152.400,65.403 155.857,64.376 158.431,63.721 C 161.006,63.065 163.430,62.265 163.818,61.943 C 164.207,61.621 164.645,61.479 164.794,61.627 C 165.096,61.929 166.305,66.204 166.951,69.250 C 167.392,71.333 169.716,82.822 170.137,85.000 C 170.270,85.688 170.957,89.062 171.664,92.500 C 172.371,95.938 173.310,100.888 173.750,103.500 C 174.396,107.342 177.452,123.086 180.493,138.250 C 180.769,139.625 181.577,144.125 182.289,148.250 C 186.533,172.854 188.023,174.963 186.883,154.750 C 186.428,146.679 185.630,132.861 184.992,122.000 C 184.725,117.463 184.172,109.025 183.761,103.250 C 183.351,97.475 182.779,89.263 182.490,85.000 C 182.201,80.737 181.749,74.888 181.487,72.000 C 179.799,53.420 179.434,49.618 179.232,48.500 C 178.987,47.144 180.746,44.802 192.981,30.191 C 196.408,26.098 201.233,20.325 203.703,17.361 C 207.952,12.264 208.239,12.020 209.022,12.861 C 211.323,15.334 229.517,37.769 234.217,43.930 L 236.643,47.109 L 235.818,57.680 C 235.365,63.493 234.770,71.062 234.496,74.500 C 234.222,77.938 233.771,84.237 233.493,88.500 C 233.215,92.763 232.772,99.400 232.508,103.250 C 232.073,109.612 231.372,120.134 230.775,129.250 C 230.649,131.175 230.197,138.938 229.772,146.500 C 229.346,154.062 228.791,163.507 228.538,167.487 C 228.286,171.468 228.210,174.935 228.369,175.193 C 228.684,175.702 229.689,172.095 230.233,168.500 C 230.421,167.262 230.876,164.900 231.246,163.250 C 231.615,161.600 232.398,157.550 232.984,154.250 C 233.571,150.950 234.248,147.238 234.488,146.000 C 234.728,144.762 235.163,142.400 235.454,140.750 C 236.644,134.003 238.034,126.630 238.470,124.750 C 238.725,123.650 239.192,121.287 239.507,119.500 C 239.823,117.713 240.291,115.237 240.547,114.000 C 240.802,112.763 241.922,106.912 243.034,101.000 C 249.352,67.429 250.841,61.044 252.281,61.349 C 254.228,61.762 273.982,68.864 279.000,70.956 C 310.539,84.104 334.491,103.043 352.811,129.320 C 354.565,131.835 356.000,134.007 356.000,134.145 C 356.000,134.284 356.896,135.873 357.992,137.677 C 360.105,141.155 365.633,152.399 367.493,157.000 C 368.104,158.512 368.891,160.425 369.243,161.250 C 369.974,162.968 372.672,171.653 373.513,175.000 C 374.611,179.367 375.120,181.263 375.526,182.500 C 377.139,187.424 379.935,204.699 381.069,216.750 C 381.452,220.818 381.716,229.929 381.700,238.500 C 381.674,251.744 381.424,257.639 380.130,275.500 C 379.921,278.387 379.754,290.312 379.759,302.000 C 379.768,324.382 380.168,330.388 382.557,344.000 C 385.701,361.913 390.994,378.678 397.713,392.000 C 400.791,398.103 401.212,400.185 400.022,403.438 C 398.430,407.795 393.609,415.560 388.898,421.356 C 379.393,433.050 365.165,446.709 355.254,453.654 C 350.763,456.801 340.580,463.405 337.716,465.027 C 336.772,465.562 335.156,466.483 334.125,467.072 C 326.111,471.656 310.994,478.364 310.026,477.766 C 309.664,477.542 309.500,462.594 309.500,429.782 C 309.500,391.493 309.373,382.017 308.855,381.588 C 308.163,381.012 305.527,380.335 300.772,379.509 C 297.096,378.871 296.757,379.141 295.723,383.526 C 295.306,385.299 294.763,387.538 294.517,388.500 C 294.058,390.299 293.339,398.133 292.545,410.000 C 292.068,417.135 291.795,418.125 289.097,422.500 C 285.875,427.725 281.168,431.828 274.113,435.563 C 269.272,438.126 249.854,444.217 238.500,446.733 C 228.388,448.974 225.048,449.250 208.000,449.250 C 192.524,449.250 186.640,448.870 180.750,447.489 C 169.711,444.901 165.337,443.799 163.000,443.017 C 160.044,442.027 154.491,440.336 151.250,439.437 C 141.243,436.664 132.921,430.900 127.929,423.286 C 125.228,419.167 124.212,415.412 123.525,407.000 C 122.643,396.192 122.022,390.468 121.519,388.507 C 121.271,387.540 120.821,385.496 120.518,383.963 C 119.645,379.541 118.110,378.132 115.618,379.464 C 115.141,379.720 113.403,380.173 111.757,380.471 C 106.206,381.478 106.751,376.028 106.741,430.600 C 106.735,462.061 106.562,478.229 106.229,478.340 C 105.952,478.433 104.212,477.719 102.362,476.754 Z M 199.900,427.900 C 200.258,427.542 200.505,425.778 200.513,423.525 C 200.544,414.527 201.897,406.679 204.310,401.500 C 206.714,396.342 208.126,395.792 210.406,399.125 C 213.347,403.426 214.749,409.130 215.579,420.172 C 215.892,424.340 216.243,427.860 216.359,427.994 C 216.805,428.508 226.462,427.930 230.937,427.122 C 234.528,426.473 235.771,426.038 236.251,425.263 C 236.595,424.706 237.141,421.775 237.464,418.750 C 238.070,413.066 239.354,404.563 239.829,403.090 C 241.202,398.831 242.764,395.953 243.850,395.680 C 245.450,395.279 246.528,396.338 248.677,400.426 C 251.116,405.068 251.813,407.348 252.978,414.486 C 253.534,417.898 254.205,420.905 254.468,421.168 C 255.103,421.803 264.729,417.038 267.944,414.497 C 270.943,412.126 271.989,409.445 272.025,404.036 C 272.048,400.491 273.143,387.901 273.768,384.000 C 274.478,379.567 276.170,373.854 277.281,372.143 C 278.433,370.368 278.148,370.000 275.625,370.007 C 271.297,370.021 265.112,372.817 261.742,376.285 C 260.558,377.503 259.457,378.500 259.295,378.500 C 258.758,378.500 259.003,376.282 259.793,374.000 C 261.273,369.721 263.721,365.339 266.049,362.800 C 268.587,360.032 273.940,356.586 277.814,355.226 C 282.434,353.604 288.984,353.706 296.000,355.510 C 296.962,355.757 299.100,356.297 300.750,356.709 C 302.400,357.122 305.438,357.931 307.500,358.508 C 314.116,360.359 316.778,360.641 318.628,359.684 C 321.763,358.063 323.158,356.685 329.110,349.336 C 336.081,340.728 341.266,333.174 341.988,330.574 C 343.307,325.823 342.221,321.933 337.593,314.844 C 333.317,308.293 332.740,306.782 332.821,302.334 C 332.895,298.275 333.159,296.968 335.509,289.000 C 338.616,278.467 340.000,270.117 340.000,261.909 C 340.000,248.480 336.245,237.205 328.623,227.750 C 320.662,217.874 309.236,210.962 296.750,208.468 C 292.180,207.555 280.990,207.671 276.250,208.680 C 253.734,213.471 234.879,223.778 232.459,232.618 C 231.746,235.218 231.758,250.968 232.474,254.074 C 233.348,257.867 233.154,259.284 231.625,260.282 C 229.114,261.920 220.829,268.642 214.896,273.856 C 211.676,276.685 208.678,279.000 208.235,279.000 C 207.473,279.000 204.742,276.713 196.101,268.836 C 194.042,266.958 190.645,264.203 188.553,262.714 C 186.461,261.225 184.356,259.699 183.875,259.323 C 182.854,258.526 182.766,256.355 183.496,250.002 C 183.765,247.666 184.019,242.712 184.062,238.994 C 184.153,231.076 183.630,229.536 179.646,225.989 C 171.086,218.367 156.642,212.156 139.087,208.547 C 135.337,207.777 124.502,207.868 119.750,208.711 C 112.958,209.915 105.119,213.219 98.500,217.667 C 94.872,220.105 88.085,226.960 85.442,230.855 C 75.662,245.271 73.933,264.627 80.518,286.000 C 83.178,294.635 84.049,298.678 84.042,302.360 C 84.035,306.421 83.562,307.598 79.272,314.218 C 74.233,321.994 74.000,322.523 74.000,326.164 C 74.000,330.339 75.032,333.110 78.508,338.264 C 81.902,343.298 84.647,346.686 89.474,351.800 C 94.377,356.997 97.439,359.317 99.953,359.742 C 102.031,360.093 106.119,359.454 110.000,358.171 C 124.360,353.423 136.894,353.229 144.500,357.637 C 150.093,360.879 155.737,369.130 157.233,376.250 C 157.406,377.075 157.664,378.144 157.807,378.625 C 158.289,380.245 156.943,379.518 154.489,376.834 C 151.014,373.031 146.800,370.901 142.162,370.603 C 137.824,370.325 137.174,370.974 139.158,373.601 C 141.594,376.826 143.131,385.281 143.974,400.087 C 144.315,406.079 144.650,408.434 145.397,410.087 C 146.449,412.417 148.842,414.900 151.250,416.161 C 157.115,419.234 161.096,420.762 162.167,420.351 C 162.536,420.209 163.058,418.189 163.439,415.430 C 164.522,407.576 167.289,399.187 169.641,396.625 C 170.879,395.277 172.528,395.180 173.876,396.375 C 175.923,398.190 179.000,412.425 179.000,420.083 C 179.000,424.742 179.414,425.743 181.621,426.417 C 183.849,427.098 190.559,428.013 194.500,428.174 C 196.287,428.248 198.099,428.351 198.525,428.404 C 198.951,428.457 199.570,428.230 199.900,427.900 Z M 220.661,364.152 C 218.791,363.788 215.047,360.031 211.923,355.385 C 209.800,352.228 208.702,351.007 208.170,351.211 C 207.757,351.370 207.335,351.500 207.234,351.500 C 207.133,351.500 205.478,353.810 203.556,356.633 C 199.160,363.091 197.993,364.000 194.094,364.000 C 190.584,364.000 188.578,362.864 186.269,359.568 C 184.854,357.550 184.758,357.134 184.871,353.485 C 184.964,350.434 185.474,348.094 187.172,342.909 C 190.857,331.655 198.330,315.061 201.306,311.525 C 202.645,309.934 206.398,308.000 208.146,308.000 C 210.489,308.000 214.178,310.385 216.064,313.120 C 221.630,321.189 232.000,347.197 232.000,353.087 C 232.000,355.966 230.619,359.728 228.902,361.524 C 226.532,364.003 224.018,364.805 220.661,364.152 Z M 158.000,327.541 C 158.000,327.013 158.320,325.944 158.711,325.166 C 159.283,324.028 161.310,319.353 162.849,315.625 C 163.207,314.758 161.966,314.844 160.005,315.822 C 159.098,316.275 154.395,317.637 149.553,318.850 C 141.975,320.749 139.776,321.095 133.750,321.343 C 123.840,321.749 119.952,320.719 114.100,316.136 C 105.951,309.754 100.683,297.422 100.799,285.000 C 100.852,279.436 101.461,276.690 103.798,271.482 C 104.539,269.831 105.006,268.339 104.835,268.168 C 104.664,267.997 103.363,268.339 101.945,268.928 C 100.527,269.518 98.825,270.000 98.163,270.000 C 97.502,270.000 96.078,270.450 95.000,271.000 C 91.175,272.951 91.044,272.018 94.460,267.154 C 97.897,262.259 102.398,258.383 107.750,255.709 C 114.975,252.099 119.796,251.319 125.935,252.766 C 131.689,254.122 143.592,259.733 153.500,265.761 C 163.077,271.587 171.467,275.554 178.442,277.556 C 185.041,279.450 186.886,280.520 188.207,283.218 C 189.057,284.953 189.099,285.491 188.578,288.011 C 187.135,295.000 180.045,307.773 172.254,317.420 C 169.023,321.420 166.019,324.135 161.791,326.875 C 158.916,328.738 158.000,328.899 158.000,327.541 Z M 256.500,327.512 C 256.087,327.276 255.047,326.823 254.187,326.506 C 250.358,325.094 242.136,316.178 237.212,308.095 C 234.694,303.963 229.964,294.350 228.793,290.985 C 227.680,287.788 227.773,283.629 229.002,281.613 C 230.110,279.795 230.948,279.393 236.750,277.897 C 238.950,277.330 240.964,276.671 241.225,276.433 C 241.486,276.195 241.987,276.000 242.337,276.000 C 242.928,276.000 247.383,274.072 251.500,272.033 C 254.140,270.726 257.780,268.653 262.500,265.768 C 264.837,264.340 268.212,262.413 270.000,261.487 C 271.788,260.560 273.812,259.432 274.500,258.980 C 276.117,257.918 283.699,254.696 286.823,253.744 C 290.269,252.694 298.150,252.272 301.750,252.944 C 305.261,253.600 311.896,256.679 314.747,258.976 C 318.990,262.394 325.235,270.986 324.022,271.736 C 323.747,271.906 320.809,271.106 317.493,269.957 C 314.178,268.808 311.322,268.011 311.148,268.186 C 310.973,268.360 311.299,269.571 311.873,270.876 C 315.151,278.342 315.254,278.823 315.178,286.250 C 315.109,293.048 315.046,293.430 313.023,299.459 C 310.033,308.370 306.044,314.273 300.537,317.936 C 296.562,320.580 295.670,320.882 289.810,321.563 C 285.751,322.035 283.353,322.040 279.215,321.589 C 274.347,321.057 262.696,318.570 260.250,317.541 C 255.228,315.427 254.952,315.348 254.411,315.889 C 254.004,316.296 254.291,317.552 255.486,320.597 C 256.383,322.881 257.315,325.141 257.558,325.618 C 258.098,326.679 258.136,328.011 257.625,327.971 C 257.419,327.954 256.913,327.748 256.500,327.512 Z" fill="#000000" fill-rule="evenodd" /></svg>