<svg xmlns="http://www.w3.org/2000/svg" viewBox="0 0 341 364" width="341" height="364"><path d="M 47.155,349.428 C 38.293,348.453 28.328,343.539 23.600,337.812 C 21.366,335.105 18.009,327.257 16.733,321.757 C 15.493,316.407 15.613,307.265 16.997,301.750 C 18.505,295.741 21.788,289.000 23.208,289.000 C 23.559,289.000 24.097,290.410 24.479,292.334 C 25.586,297.904 29.075,303.446 32.653,305.320 C 33.891,305.968 34.365,305.965 36.685,305.290 C 39.170,304.568 40.419,303.423 59.480,284.388 C 70.572,273.312 81.276,262.206 83.267,259.707 C 85.258,257.209 88.483,253.384 90.432,251.207 L 93.977,247.250 L 93.989,244.163 C 94.002,240.470 92.930,238.885 88.849,236.567 C 83.575,233.571 77.296,232.008 67.375,231.222 C 64.815,231.019 63.500,230.707 63.500,230.302 C 63.500,228.833 65.607,221.921 67.174,218.250 C 72.131,206.634 81.010,197.053 93.842,189.474 C 96.204,188.079 98.317,187.120 98.536,187.344 C 98.756,187.567 98.621,189.213 98.235,191.000 C 97.258,195.537 97.335,201.439 98.455,207.815 C 99.574,214.184 99.840,214.946 102.598,219.667 C 105.119,223.985 108.540,227.745 111.164,229.084 C 113.445,230.247 124.054,232.984 126.320,232.994 C 129.235,233.006 129.840,234.060 132.019,242.920 C 133.124,247.413 134.575,252.169 135.244,253.488 C 137.986,258.900 147.704,264.750 156.505,266.288 C 161.580,267.174 170.618,267.041 173.980,266.030 C 176.724,265.205 176.952,266.020 175.052,269.873 C 171.343,277.393 161.217,288.650 153.655,293.656 C 151.678,294.965 148.191,296.900 145.905,297.955 C 141.662,299.914 133.824,302.259 133.072,301.794 C 132.842,301.652 132.506,298.885 132.325,295.643 C 131.916,288.323 130.854,283.800 128.299,278.500 C 125.303,272.287 121.714,268.961 118.794,269.694 C 117.317,270.065 110.561,275.604 102.000,283.463 C 89.866,294.602 59.986,325.136 58.571,327.842 C 57.493,329.904 57.914,331.111 60.625,333.722 C 63.987,336.960 68.392,339.281 73.027,340.256 C 77.088,341.110 77.232,341.179 76.871,342.103 C 76.641,342.694 70.812,345.796 66.477,347.635 C 62.434,349.349 53.760,350.155 47.155,349.428 Z M 142.210,248.232 C 141.777,247.195 141.222,245.200 140.976,243.799 C 140.731,242.397 140.106,239.230 139.589,236.761 L 138.648,232.272 L 142.449,228.247 C 147.651,222.739 157.728,211.503 161.304,207.225 C 165.157,202.614 171.864,194.837 176.250,189.896 C 178.175,187.726 180.620,184.894 181.684,183.601 C 182.747,182.308 186.010,178.574 188.934,175.303 C 204.897,157.446 204.706,156.472 188.161,171.368 C 184.263,174.878 178.415,180.113 175.166,183.000 C 171.917,185.887 166.445,190.964 163.005,194.280 C 156.271,200.773 142.368,213.839 135.493,220.137 C 133.159,222.275 130.712,224.163 130.056,224.334 C 127.046,225.114 113.000,220.793 113.000,219.086 C 113.000,217.799 120.110,189.744 120.557,189.271 C 120.805,189.007 122.885,188.856 125.178,188.935 C 131.402,189.151 136.137,187.555 141.782,183.340 C 147.665,178.947 152.027,173.847 162.911,158.634 C 170.550,147.956 174.128,142.026 180.297,129.813 C 186.205,118.117 186.858,117.184 189.359,116.872 C 192.621,116.464 203.084,114.493 207.045,113.540 C 216.414,111.286 238.087,101.119 247.500,94.562 C 259.347,86.309 268.805,78.708 276.490,71.263 C 296.146,52.223 305.235,42.246 316.750,27.066 C 318.675,24.529 321.084,21.411 322.103,20.137 C 323.122,18.864 324.660,16.500 325.521,14.884 C 326.383,13.268 327.349,12.035 327.669,12.145 C 328.513,12.434 328.258,30.430 327.320,36.750 C 325.433,49.459 323.104,59.979 319.793,70.750 C 318.109,76.227 315.606,83.321 314.503,85.743 C 314.000,86.847 312.879,89.550 312.011,91.750 C 310.425,95.769 301.632,113.124 299.984,115.486 C 299.499,116.181 296.593,120.688 293.525,125.500 C 290.457,130.312 287.340,135.064 286.599,136.060 C 285.857,137.055 283.908,139.755 282.268,142.060 C 277.864,148.249 273.656,153.290 265.207,162.500 C 255.838,172.713 239.109,189.119 238.328,188.861 C 238.005,188.753 237.704,187.485 237.645,185.984 C 237.516,182.686 236.660,178.545 235.925,177.659 C 235.624,177.297 235.074,177.000 234.704,177.000 C 232.340,177.000 222.232,183.296 212.317,190.945 C 190.022,208.143 180.911,216.998 176.334,225.918 C 173.707,231.036 173.497,231.893 173.073,239.173 L 172.750,244.739 L 170.000,245.098 C 160.848,246.293 148.652,248.508 144.124,249.797 C 143.172,250.068 142.876,249.825 142.210,248.232 Z" fill="#000000" fill-rule="evenodd" /></svg>