<svg xmlns="http://www.w3.org/2000/svg" viewBox="0 0 391 259" width="391" height="259"><path d="M 179.103,241.758 C 174.888,240.569 172.566,239.268 163.750,233.150 C 158.648,229.610 154.258,225.597 147.160,217.986 C 142.685,213.187 139.077,207.830 139.558,206.700 C 139.664,206.452 142.036,204.035 144.829,201.327 C 150.539,195.791 149.814,195.974 155.750,198.581 C 157.675,199.426 160.212,200.542 161.388,201.059 C 162.564,201.577 163.943,202.000 164.452,202.000 C 164.961,202.000 165.647,202.325 165.977,202.723 C 166.307,203.120 167.741,203.818 169.163,204.273 C 170.586,204.729 172.650,205.519 173.750,206.029 C 174.850,206.540 177.018,207.285 178.568,207.686 C 187.350,209.959 189.922,214.042 191.050,227.500 C 191.810,236.573 191.009,241.814 188.728,242.689 C 187.148,243.295 183.194,242.913 179.103,241.758 Z M 272.430,219.763 C 272.277,219.610 270.860,219.148 269.281,218.737 C 267.703,218.326 265.362,217.573 264.081,217.063 C 262.799,216.554 260.400,215.629 258.750,215.009 C 257.100,214.389 252.554,212.333 248.647,210.441 C 244.740,208.548 241.406,207.000 241.237,207.000 C 241.068,207.000 239.927,206.310 238.702,205.467 C 237.476,204.623 235.354,203.468 233.986,202.900 C 232.434,202.255 231.500,201.558 231.500,201.046 C 231.500,200.515 233.132,199.391 236.125,197.860 C 244.665,193.491 247.599,191.582 258.913,183.030 C 262.028,180.676 265.433,178.107 266.481,177.320 L 268.386,175.891 L 272.756,176.472 C 277.351,177.084 280.783,178.379 282.325,180.083 C 284.381,182.355 283.745,192.332 280.796,204.045 C 278.882,211.653 277.467,215.657 275.839,218.079 C 274.810,219.609 273.114,220.447 272.430,219.763 Z M 96.750,210.428 C 92.117,209.732 82.326,207.417 81.600,206.847 C 80.489,205.974 81.895,205.183 86.644,204.011 C 103.704,199.798 114.866,192.339 123.324,179.500 C 127.255,173.531 129.913,166.992 132.018,158.106 C 132.813,154.751 133.000,152.163 133.000,144.523 C 133.000,135.786 132.885,134.571 131.448,128.167 C 128.973,117.132 128.654,117.553 128.632,131.875 C 128.623,138.131 128.371,145.050 128.073,147.250 C 127.293,153.008 125.803,159.496 124.835,161.350 C 124.376,162.230 124.000,163.320 124.000,163.773 C 124.000,164.225 123.289,165.868 122.421,167.423 C 121.552,168.978 120.398,171.150 119.857,172.250 C 117.804,176.419 110.905,184.124 105.529,188.250 C 101.699,191.190 92.852,196.000 91.277,196.000 C 90.895,196.000 89.608,196.410 88.416,196.912 C 83.515,198.974 70.163,199.671 62.447,198.266 C 53.286,196.599 47.160,194.303 37.750,189.011 C 25.057,181.873 15.500,172.074 15.500,166.197 C 15.500,162.377 17.017,162.355 28.000,166.012 C 31.163,167.065 35.775,168.523 38.250,169.253 C 45.753,171.466 50.114,173.037 52.964,174.555 C 56.285,176.324 56.864,176.346 57.597,174.737 C 58.347,173.091 57.265,170.720 54.640,168.256 C 52.072,165.845 42.984,158.707 39.005,155.977 C 37.221,154.752 34.830,153.075 33.692,152.250 C 32.555,151.425 29.874,149.512 27.737,148.000 C 22.318,144.166 17.998,140.080 18.010,138.799 C 18.023,137.456 20.676,132.340 23.250,128.694 C 31.761,116.642 44.308,103.488 54.756,95.667 C 55.918,94.797 57.432,93.559 58.118,92.917 C 59.504,91.621 67.100,86.036 74.455,80.904 C 81.301,76.127 90.808,70.340 94.750,68.549 C 95.850,68.050 97.810,67.157 99.107,66.566 C 102.944,64.817 107.987,63.142 112.143,62.238 C 118.735,60.805 123.422,62.126 129.750,67.202 C 134.028,70.634 135.284,72.168 140.837,80.750 C 145.619,88.139 148.605,93.599 159.704,115.250 C 166.823,129.135 167.765,132.572 167.372,143.198 C 167.156,149.011 166.872,150.996 165.753,154.500 C 163.819,160.556 160.281,168.506 157.976,171.977 C 156.889,173.613 156.000,175.148 156.000,175.388 C 156.000,175.629 154.988,177.129 153.750,178.723 C 152.512,180.316 151.500,181.929 151.500,182.307 C 151.500,183.318 136.230,198.447 132.871,200.764 C 125.805,205.639 122.908,207.251 118.939,208.519 C 111.529,210.887 104.069,211.528 96.750,210.428 Z M 87.513,133.743 C 90.870,132.042 94.208,127.565 95.014,123.681 C 97.052,113.865 88.902,104.110 79.579,105.206 C 75.482,105.687 71.109,108.292 68.821,111.614 C 66.602,114.836 66.000,116.804 66.000,120.830 C 66.000,125.647 68.397,130.079 72.636,133.097 C 76.298,135.704 83.063,135.998 87.513,133.743 Z M 179.468,190.441 C 178.552,188.728 174.463,183.500 174.040,183.500 C 173.826,183.500 173.285,182.656 172.836,181.625 C 172.387,180.594 171.453,178.850 170.760,177.750 C 167.558,172.669 167.242,170.745 168.916,166.507 C 169.512,164.998 170.000,163.348 170.000,162.840 C 170.000,160.980 171.122,162.372 172.558,166.014 C 173.368,168.069 175.045,172.758 176.284,176.435 C 177.522,180.111 178.865,183.756 179.268,184.535 C 179.671,185.313 180.007,186.468 180.016,187.100 C 180.025,187.733 180.362,188.687 180.766,189.221 C 181.170,189.754 181.500,190.486 181.500,190.846 C 181.500,191.885 180.091,191.605 179.468,190.441 Z M 363.000,190.265 C 357.365,188.970 347.605,184.771 344.203,182.179 C 343.352,181.531 342.496,181.000 342.300,181.000 C 342.105,181.000 340.620,180.100 339.000,179.000 C 337.380,177.900 335.895,177.000 335.699,177.000 C 335.503,177.000 334.197,176.125 332.796,175.055 C 331.396,173.985 326.312,170.573 321.500,167.473 C 312.080,161.405 304.340,155.751 304.103,154.765 C 304.014,154.393 305.389,153.721 307.603,153.052 C 316.595,150.339 321.230,146.799 324.291,140.307 C 326.107,136.458 327.381,128.935 326.769,125.675 C 325.650,119.709 321.833,112.135 318.767,109.797 C 315.713,107.467 310.272,105.073 306.434,104.369 C 303.961,103.916 302.750,103.467 302.750,103.004 C 302.750,102.624 305.225,100.678 308.250,98.678 C 311.275,96.678 316.207,93.289 319.209,91.146 C 325.148,86.908 325.936,86.354 333.000,81.447 C 341.590,75.479 352.930,68.718 355.750,67.884 C 356.300,67.721 358.039,67.118 359.614,66.543 C 363.531,65.115 368.539,64.453 370.770,65.069 C 372.787,65.626 374.268,67.637 374.739,70.458 C 375.092,72.571 374.315,78.522 373.209,82.170 C 371.115,89.080 368.983,95.099 366.011,102.500 C 364.961,105.112 362.936,110.287 361.510,114.000 C 360.083,117.713 358.689,121.312 358.411,122.000 C 358.133,122.688 357.791,124.825 357.650,126.750 C 357.293,131.637 359.185,137.812 367.338,158.375 C 371.065,167.774 374.472,178.945 374.796,182.825 C 375.176,187.388 374.785,188.536 372.343,190.025 C 370.498,191.150 367.216,191.235 363.000,190.265 Z M 204.104,188.356 C 202.947,187.177 202.000,185.910 202.000,185.540 C 202.000,185.170 201.246,184.157 200.324,183.287 C 199.401,182.417 198.042,180.622 197.302,179.297 C 196.563,177.973 195.293,176.061 194.480,175.050 C 191.575,171.435 186.489,161.161 183.565,153.000 C 179.413,141.412 178.504,137.202 177.357,124.250 L 176.737,117.250 L 174.577,117.094 C 170.832,116.824 168.608,115.131 164.841,109.681 C 161.304,104.564 159.000,100.503 159.000,99.386 C 159.000,97.649 162.799,87.346 165.226,82.500 C 171.269,70.435 176.759,62.380 180.410,60.224 C 182.607,58.926 183.316,59.907 182.032,62.469 C 181.222,64.084 180.216,66.227 176.733,73.750 C 173.968,79.722 172.974,82.257 170.034,90.835 C 168.321,95.832 166.994,100.445 167.085,101.085 C 167.222,102.053 167.714,102.351 170.000,102.846 C 171.512,103.174 173.650,103.696 174.750,104.006 C 179.082,105.227 178.677,105.418 180.241,101.415 C 184.359,90.882 188.165,83.603 193.530,76.000 C 197.022,71.051 202.969,64.736 204.635,64.207 C 206.670,63.561 206.505,64.855 203.920,69.786 C 196.385,84.161 193.699,90.237 190.713,99.655 C 189.737,102.732 188.842,105.545 188.724,105.904 C 188.357,107.021 200.039,111.476 201.682,110.845 C 202.082,110.692 202.765,109.346 203.198,107.855 C 204.828,102.247 210.977,91.130 216.139,84.459 C 220.265,79.127 226.563,73.000 227.917,73.000 C 229.517,73.000 229.638,73.806 228.345,75.857 C 221.776,86.281 216.798,96.608 214.054,105.500 C 213.417,107.562 212.581,110.263 212.196,111.500 C 211.810,112.737 211.496,113.930 211.498,114.151 C 211.503,115.067 222.031,118.287 223.358,117.778 C 223.743,117.630 224.720,116.044 225.529,114.254 C 230.529,103.190 234.494,96.555 239.518,90.849 C 243.226,86.635 249.000,82.730 249.000,84.435 C 249.000,84.904 245.152,92.426 244.490,93.250 C 244.269,93.525 243.165,95.550 242.037,97.750 C 240.909,99.950 239.784,102.088 239.537,102.500 C 238.624,104.025 235.903,111.319 235.468,113.406 C 235.221,114.592 234.674,116.577 234.253,117.818 C 233.338,120.513 233.552,121.000 235.655,120.999 C 236.532,120.999 239.099,121.257 241.360,121.573 C 245.936,122.213 247.000,121.855 247.000,119.679 C 247.000,118.205 250.663,110.826 253.806,105.966 C 256.872,101.228 263.569,94.500 265.220,94.500 C 267.088,94.500 267.153,95.223 265.507,97.662 C 264.678,98.890 264.000,100.129 264.000,100.414 C 264.000,100.700 262.917,103.040 261.594,105.616 C 259.354,109.975 255.500,120.440 255.500,122.161 C 255.500,123.029 256.667,123.316 262.000,123.760 C 264.062,123.931 266.142,124.183 266.621,124.318 C 267.543,124.579 267.544,124.577 269.621,119.250 C 271.236,115.105 276.369,107.543 278.368,106.364 C 279.266,105.834 280.000,105.110 280.000,104.754 C 280.000,103.952 281.246,103.434 282.250,103.819 C 283.173,104.174 283.171,104.482 282.234,105.721 C 281.830,106.254 281.499,107.154 281.497,107.721 C 281.495,108.287 281.185,109.342 280.808,110.065 C 279.070,113.395 276.657,122.884 277.193,124.281 C 277.404,124.833 278.516,125.000 281.976,125.000 L 286.484,125.000 L 288.719,120.509 C 291.893,114.132 294.727,110.500 296.531,110.500 C 298.289,110.500 298.589,110.964 298.019,112.802 C 297.772,113.598 296.969,116.187 296.235,118.554 C 294.315,124.743 294.318,124.750 299.757,124.750 L 304.250,124.750 L 306.070,121.085 C 307.946,117.305 310.193,114.500 311.344,114.500 C 312.145,114.500 312.155,114.933 311.431,118.470 C 310.932,120.907 310.979,121.497 311.807,123.250 C 312.617,124.965 313.196,125.423 315.875,126.463 C 319.146,127.733 319.626,128.480 318.189,130.068 C 317.559,130.764 316.912,130.900 315.294,130.679 C 312.532,130.300 311.683,131.222 312.349,133.875 C 312.835,135.805 312.131,142.500 311.444,142.500 C 310.879,142.500 307.308,137.963 305.781,135.305 L 304.376,132.860 L 300.104,133.162 C 295.521,133.485 294.803,133.917 295.557,135.899 C 295.814,136.577 296.250,138.171 296.524,139.441 C 296.799,140.711 297.388,142.936 297.834,144.386 C 298.697,147.194 298.611,147.703 297.355,147.221 C 296.404,146.856 290.815,140.182 288.812,137.020 C 288.022,135.771 287.139,134.600 286.851,134.417 C 286.022,133.890 279.691,133.372 278.541,133.737 C 277.790,133.975 277.500,134.487 277.500,135.571 C 277.500,136.936 279.360,143.291 280.480,145.750 C 282.917,151.102 283.641,154.000 282.544,154.000 C 281.673,154.000 275.740,147.748 273.874,144.864 C 271.535,141.247 269.500,137.265 269.500,136.302 C 269.500,134.423 268.120,134.000 261.994,134.000 C 258.730,134.000 255.952,134.173 255.821,134.384 C 255.544,134.834 259.009,145.550 260.143,147.750 C 260.568,148.575 261.766,151.162 262.805,153.500 C 263.844,155.838 265.326,158.829 266.097,160.147 C 268.608,164.437 267.370,165.390 263.692,162.000 C 262.499,160.900 261.311,160.000 261.052,160.000 C 260.793,160.000 260.061,159.156 259.424,158.125 C 258.788,157.094 257.559,155.463 256.693,154.500 C 254.217,151.749 247.146,138.393 246.314,134.897 C 245.948,133.359 245.448,133.225 238.361,132.772 C 233.397,132.455 232.811,132.845 233.962,135.699 C 234.306,136.552 235.126,139.162 235.785,141.500 C 236.443,143.838 237.410,146.537 237.933,147.500 C 238.457,148.463 239.045,149.812 239.240,150.500 C 239.590,151.738 243.793,160.329 248.534,169.500 C 252.510,177.193 251.825,177.928 246.084,172.125 C 241.044,167.031 238.651,164.126 236.388,160.354 C 235.364,158.647 234.090,156.575 233.557,155.750 C 231.699,152.871 226.578,141.215 225.210,136.750 C 224.452,134.275 223.516,131.877 223.130,131.421 C 221.948,130.025 211.248,127.052 210.413,127.887 C 210.127,128.173 210.147,129.197 210.467,130.551 C 210.752,131.760 211.563,135.450 212.270,138.750 C 213.681,145.333 215.860,152.729 218.072,158.437 C 218.857,160.464 219.500,162.518 219.500,163.000 C 219.500,163.483 219.826,164.148 220.224,164.479 C 220.623,164.809 221.220,165.906 221.550,166.915 C 221.881,167.924 223.929,172.440 226.101,176.950 C 230.628,186.349 230.700,187.980 226.385,183.353 C 222.656,179.354 220.362,176.562 218.905,174.250 C 218.211,173.150 216.634,170.675 215.400,168.750 C 210.556,161.195 206.021,150.417 203.732,141.017 C 201.311,131.078 201.084,130.067 200.716,127.572 C 200.539,126.374 199.978,124.978 199.470,124.470 C 198.556,123.556 191.623,121.201 188.221,120.648 L 186.458,120.362 L 186.767,123.806 C 187.570,132.777 188.581,140.082 189.492,143.500 C 191.549,151.220 195.224,162.228 197.505,167.500 C 198.278,169.287 199.470,172.213 200.154,174.002 C 200.838,175.790 201.983,178.355 202.699,179.701 C 203.414,181.048 204.000,182.459 204.000,182.839 C 204.000,183.218 204.675,184.866 205.500,186.500 C 207.860,191.176 207.431,191.746 204.104,188.356 Z M 269.989,86.066 C 269.295,85.892 267.945,85.152 266.989,84.421 C 265.200,83.053 260.142,79.870 252.250,75.145 C 248.055,72.633 238.079,67.578 228.750,63.237 C 222.920,60.523 214.473,57.542 208.750,56.177 C 195.710,53.067 186.409,51.013 182.878,50.463 C 180.748,50.131 178.759,49.562 178.456,49.197 C 178.034,48.688 178.634,47.635 181.049,44.643 C 187.420,36.748 194.866,30.150 205.390,23.074 C 209.461,20.336 212.274,18.815 222.955,13.573 C 227.723,11.233 228.935,11.435 229.994,14.750 C 231.880,20.649 236.850,26.875 244.750,33.233 C 249.642,37.170 250.463,37.762 260.500,44.591 C 264.212,47.117 268.825,50.344 270.750,51.763 C 272.675,53.181 274.807,54.637 275.487,54.998 C 278.649,56.677 286.839,65.755 288.976,69.949 C 291.060,74.040 289.357,77.251 282.698,81.790 C 276.318,86.139 273.742,87.006 269.989,86.066 Z M 147.460,78.125 C 143.529,73.896 143.636,74.703 146.288,69.251 C 149.843,61.944 155.008,55.512 156.777,56.191 C 157.738,56.560 157.617,57.477 156.110,61.250 C 154.516,65.241 153.487,68.397 152.014,73.812 C 150.599,79.015 150.210,80.000 149.572,80.000 C 149.369,80.000 148.419,79.156 147.460,78.125 Z" fill="#000000" fill-rule="evenodd" /></svg>