<svg xmlns="http://www.w3.org/2000/svg" viewBox="0 0 393 397" width="393" height="397"><path d="M 39.587,380.988 C 36.514,380.540 31.578,378.245 28.609,375.884 C 25.597,373.488 21.577,368.248 19.683,364.250 C 17.635,359.928 16.716,353.301 17.526,348.698 C 19.010,340.261 23.973,332.854 30.750,328.962 C 34.854,326.605 36.463,326.117 42.223,325.476 L 47.196,324.923 L 51.072,321.337 C 53.204,319.364 60.276,312.012 66.788,305.000 C 73.300,297.988 81.637,289.210 85.314,285.494 C 88.991,281.777 92.000,278.359 92.000,277.898 C 92.000,277.436 88.006,272.922 83.125,267.865 C 76.765,261.277 73.840,257.861 72.802,255.809 C 71.355,252.950 71.354,252.936 71.691,246.348 C 72.376,232.987 73.728,223.345 75.294,220.648 C 76.957,217.785 78.241,216.999 81.236,217.007 C 86.664,217.023 92.506,219.099 95.250,221.987 L 96.750,223.566 L 96.825,232.795 C 96.898,241.794 96.931,242.064 98.138,243.637 C 98.820,244.524 103.286,249.067 108.063,253.733 C 112.841,258.398 124.287,269.797 133.500,279.063 C 142.713,288.330 151.280,296.714 152.539,297.695 C 156.177,300.531 157.797,301.000 163.959,301.000 C 176.682,301.000 179.238,303.354 179.246,315.083 C 179.250,320.612 179.185,320.987 178.000,322.276 C 177.312,323.023 175.543,324.176 174.068,324.837 C 171.583,325.950 170.384,326.081 157.776,326.616 L 144.168,327.193 L 141.959,325.892 C 140.744,325.177 135.479,320.296 130.260,315.046 C 125.040,309.796 120.632,305.500 120.464,305.500 C 120.296,305.500 116.228,309.381 111.425,314.125 C 106.621,318.869 97.079,328.069 90.221,334.571 C 72.313,351.545 74.167,349.159 73.533,356.051 C 72.806,363.959 71.927,366.259 67.519,371.782 C 63.900,376.318 58.047,380.043 53.050,380.990 C 50.010,381.567 43.559,381.566 39.587,380.988 Z M 145.447,274.704 C 138.615,268.282 137.641,267.182 138.259,266.587 C 138.452,266.402 146.066,258.605 155.180,249.262 C 164.293,239.919 177.603,226.306 184.757,219.012 C 198.683,204.813 230.283,172.332 234.000,168.398 C 238.317,163.827 257.350,144.357 270.500,131.058 C 286.298,115.082 301.210,99.231 303.148,96.355 C 304.217,94.770 304.512,93.804 304.398,92.265 C 304.260,90.387 304.121,90.218 302.342,89.779 C 300.795,89.397 300.099,89.488 298.657,90.265 C 296.562,91.393 233.962,153.714 187.426,201.000 C 142.762,246.384 137.772,251.488 137.606,251.958 C 137.526,252.183 135.775,253.881 133.714,255.733 L 129.967,259.100 L 125.359,254.652 C 122.824,252.205 119.681,249.355 118.375,248.318 C 117.069,247.281 116.000,246.019 116.000,245.512 C 116.000,245.005 117.374,242.939 119.053,240.920 C 123.018,236.154 144.119,212.977 151.300,205.500 C 153.545,203.162 156.702,199.743 158.316,197.901 C 159.930,196.058 163.950,191.667 167.250,188.141 C 170.550,184.616 176.963,177.700 181.500,172.772 C 186.037,167.845 192.900,160.424 196.750,156.281 C 200.600,152.139 204.749,147.625 205.971,146.250 C 207.192,144.875 210.816,140.938 214.025,137.500 C 217.234,134.062 224.176,126.412 229.452,120.500 C 234.727,114.588 240.890,107.746 243.147,105.296 C 245.404,102.847 249.142,98.684 251.455,96.046 C 253.768,93.408 258.295,88.438 261.516,85.000 C 264.737,81.562 270.607,75.024 274.561,70.469 C 287.021,56.117 288.983,53.921 295.797,46.695 C 301.039,41.137 303.041,39.361 305.238,38.320 C 306.772,37.594 308.338,37.000 308.719,37.000 C 309.099,37.000 311.511,36.320 314.080,35.488 C 328.201,30.918 347.923,24.438 356.250,21.635 C 368.196,17.612 374.977,15.777 375.599,16.399 C 376.101,16.901 375.274,21.505 373.515,28.000 C 370.240,40.090 367.304,51.202 363.595,65.549 C 361.507,73.625 359.931,79.206 357.681,86.500 C 356.417,90.597 356.214,90.903 352.060,95.000 C 349.689,97.338 344.805,101.838 341.206,105.000 C 337.606,108.163 329.979,115.138 324.256,120.500 C 318.532,125.862 312.769,131.182 311.448,132.321 C 310.127,133.459 303.017,140.113 295.648,147.106 C 288.279,154.099 279.663,162.166 276.500,165.033 C 273.337,167.900 266.812,174.080 262.000,178.767 C 257.188,183.454 251.113,189.178 248.500,191.487 C 245.887,193.797 238.052,201.100 231.088,207.718 C 224.124,214.336 216.439,221.550 214.011,223.750 C 211.583,225.950 204.277,232.812 197.775,239.000 C 191.273,245.188 182.931,253.062 179.236,256.500 C 175.541,259.938 168.133,266.856 162.774,271.875 C 157.415,276.894 152.831,281.000 152.587,281.000 C 152.343,281.000 149.130,278.167 145.447,274.704 Z M 202.500,278.703 C 195.958,277.838 179.388,274.577 178.854,274.050 C 178.637,273.835 180.774,271.600 183.604,269.083 C 186.434,266.567 189.988,263.269 191.500,261.754 C 194.168,259.082 194.332,259.000 197.003,259.000 C 198.518,259.000 200.513,259.217 201.438,259.482 C 202.362,259.747 205.913,260.235 209.327,260.566 C 219.092,261.513 227.832,260.027 236.385,255.964 C 238.659,254.884 240.663,254.000 240.837,254.000 C 241.012,254.000 241.958,253.381 242.939,252.625 C 245.381,250.742 249.631,248.000 250.108,248.000 C 250.324,248.000 250.500,247.696 250.500,247.325 C 250.500,246.821 249.182,246.576 245.283,246.355 C 236.842,245.877 233.931,244.628 230.445,239.988 C 228.121,236.895 227.816,235.874 228.091,232.107 C 228.379,228.164 230.073,225.049 234.479,220.359 C 239.993,214.489 252.283,203.914 255.562,202.217 C 257.716,201.103 261.791,200.014 263.835,200.006 C 265.924,199.998 277.287,197.727 280.344,196.705 C 285.127,195.108 290.783,192.097 292.902,190.020 C 294.936,188.027 295.450,186.503 293.937,186.956 C 292.463,187.396 284.096,187.119 281.250,186.536 C 276.357,185.532 274.500,184.882 274.500,184.173 C 274.500,183.187 283.713,173.822 295.970,162.346 C 301.899,156.795 309.788,149.272 313.500,145.628 C 321.201,138.068 324.490,135.454 328.750,133.512 C 334.301,130.981 335.433,130.744 341.500,130.852 C 347.941,130.967 356.909,132.897 361.339,135.122 C 364.441,136.680 368.151,139.016 367.909,139.258 C 367.806,139.360 366.379,139.257 364.736,139.029 C 363.094,138.800 360.400,138.698 358.750,138.800 C 350.257,139.329 336.458,146.482 328.500,154.481 C 324.275,158.728 322.555,161.764 322.149,165.696 C 321.893,168.181 322.012,168.599 323.702,171.144 C 326.197,174.903 327.938,175.685 332.799,175.229 C 335.408,174.985 336.967,174.559 337.981,173.815 C 345.731,168.124 347.670,166.868 350.443,165.744 C 354.350,164.160 360.000,163.475 360.000,164.584 C 360.000,164.985 359.308,165.974 358.461,166.781 C 356.165,168.974 352.714,174.782 350.777,179.718 C 347.363,188.413 343.197,193.815 336.337,198.439 C 331.713,201.556 329.639,202.594 324.772,204.227 C 318.416,206.360 315.050,206.977 306.903,207.502 C 295.304,208.250 289.261,209.294 283.389,211.563 C 272.242,215.870 267.644,221.187 270.274,226.730 C 271.483,229.278 272.860,229.657 281.250,229.756 C 288.878,229.846 293.871,230.685 296.375,232.298 C 297.903,233.283 297.791,234.413 296.125,234.804 C 293.068,235.521 286.405,239.227 282.834,242.196 C 278.778,245.568 274.116,250.393 270.221,255.250 C 257.968,270.528 246.446,277.418 230.500,279.002 C 223.707,279.677 208.650,279.516 202.500,278.703 Z M 118.776,221.375 C 118.669,221.031 118.451,218.948 118.290,216.746 C 117.985,212.585 116.985,207.047 115.762,202.750 C 113.260,193.963 111.822,182.035 112.144,172.750 C 112.360,166.541 112.668,164.247 113.936,159.426 C 117.685,145.166 123.051,134.970 132.162,124.795 C 135.139,121.470 138.483,117.206 139.592,115.319 C 145.735,104.872 147.385,98.795 146.163,91.125 C 145.803,88.861 145.819,88.000 146.223,88.000 C 147.218,88.000 152.357,93.674 153.921,96.500 C 154.758,98.013 155.937,101.050 156.541,103.250 C 157.572,107.006 157.614,107.813 157.232,116.500 C 156.539,132.216 156.533,132.179 159.866,132.805 C 164.589,133.691 170.241,127.597 172.435,119.252 C 173.085,116.780 173.231,112.851 173.260,97.000 C 173.298,76.359 173.381,75.496 175.997,68.659 C 177.982,63.468 181.041,59.430 187.229,53.832 C 191.062,50.365 193.194,48.885 197.137,46.957 C 201.495,44.826 204.000,44.002 204.000,44.699 C 204.000,44.808 203.065,47.677 201.922,51.074 C 200.076,56.559 199.841,57.781 199.824,62.000 C 199.804,67.011 200.878,70.948 203.150,74.189 C 204.695,76.393 208.996,78.140 212.964,78.176 C 215.985,78.204 216.519,78.041 219.152,76.293 C 224.807,72.540 228.151,65.157 230.495,51.250 C 230.820,49.325 231.313,46.400 231.590,44.750 C 232.827,37.404 236.635,30.712 242.374,25.799 C 244.506,23.974 246.812,22.179 247.500,21.810 C 257.299,16.551 260.898,15.198 262.043,16.343 C 262.307,16.607 261.440,17.893 259.938,19.468 C 256.707,22.855 253.655,29.078 252.925,33.768 C 251.819,40.869 252.813,46.928 257.290,60.386 C 258.570,64.232 258.810,67.614 258.008,70.501 C 257.220,73.337 253.080,78.114 233.506,98.769 C 230.890,101.530 226.008,106.817 222.657,110.519 C 214.575,119.446 208.749,125.166 207.995,124.915 C 207.657,124.802 207.294,123.740 207.187,122.554 C 206.471,114.609 202.332,104.495 199.214,103.075 C 197.693,102.381 197.685,102.401 197.271,107.750 C 196.739,114.635 195.685,119.280 191.656,132.500 C 186.312,150.039 186.377,149.903 179.730,157.250 C 168.726,169.413 166.283,171.093 159.487,171.166 C 155.684,171.207 154.854,171.045 152.331,169.769 C 149.047,168.107 146.823,165.613 144.510,161.000 C 143.615,159.213 142.790,157.651 142.679,157.530 C 141.959,156.747 139.400,162.105 137.917,167.500 C 135.379,176.735 134.683,185.674 135.730,195.635 C 136.153,199.670 136.500,203.176 136.500,203.426 C 136.500,204.569 120.423,222.000 119.369,222.000 C 119.149,222.000 118.882,221.719 118.776,221.375 Z" fill="#000000" fill-rule="evenodd" /></svg>