<svg xmlns="http://www.w3.org/2000/svg" viewBox="0 0 116 113" width="116" height="113"><path d="M 56.803,100.209 C 56.410,99.183 56.423,93.088 56.822,91.598 C 57.073,90.660 57.420,90.475 58.690,90.598 L 60.250,90.750 L 60.398,94.748 C 60.598,100.136 60.342,101.000 58.544,101.000 C 57.695,101.000 56.983,100.676 56.803,100.209 Z M 64.438,98.625 C 63.730,96.814 64.215,89.992 65.092,89.422 C 65.454,89.187 66.200,89.052 66.750,89.122 C 67.654,89.238 67.764,89.683 67.897,93.750 C 68.032,97.850 67.949,98.328 66.967,99.125 C 65.499,100.317 65.065,100.231 64.438,98.625 Z M 49.875,98.970 C 49.141,98.534 49.000,97.695 49.000,93.755 C 49.000,91.172 49.171,88.953 49.380,88.824 C 49.589,88.695 50.497,88.899 51.399,89.279 L 53.038,89.968 L 52.894,94.609 C 52.763,98.821 52.658,99.261 51.750,99.370 C 51.200,99.436 50.356,99.256 49.875,98.970 Z M 40.615,94.496 C 38.919,93.394 37.293,92.048 37.003,91.506 C 36.677,90.896 36.528,87.409 36.613,82.385 L 36.750,74.250 L 38.343,74.096 C 40.444,73.892 42.811,75.165 44.020,77.149 C 44.891,78.578 44.996,79.705 44.998,87.625 C 45.000,94.579 44.859,96.500 44.349,96.500 C 43.992,96.500 42.311,95.598 40.615,94.496 Z M 72.000,87.340 L 72.000,78.071 L 73.631,76.342 C 75.234,74.642 78.854,73.154 79.592,73.892 C 79.796,74.096 79.991,78.153 80.024,82.905 C 80.068,89.252 79.914,91.751 79.445,92.316 C 78.421,93.550 74.769,95.913 73.327,96.275 L 72.000,96.608 L 72.000,87.340 Z M 56.250,85.500 C 55.351,83.761 53.792,83.521 53.000,85.000 C 52.316,86.277 50.907,86.279 49.754,85.004 C 49.130,84.315 48.745,82.785 48.503,80.033 C 47.979,74.072 46.074,71.933 39.495,69.918 C 36.183,68.903 35.360,68.385 32.375,65.437 C 29.369,62.468 29.000,61.893 29.000,60.177 C 29.000,59.117 29.448,57.074 29.994,55.636 C 30.866,53.342 30.978,51.905 30.914,43.886 C 30.833,33.904 31.248,31.760 34.328,26.250 C 38.647,18.523 48.447,13.280 58.500,13.318 C 69.505,13.361 79.038,18.876 83.157,27.584 C 85.552,32.648 85.740,33.909 85.745,45.000 C 85.750,54.149 85.819,54.880 86.875,56.855 C 87.494,58.013 88.000,59.435 88.000,60.015 C 88.000,62.444 81.845,69.000 79.564,69.000 C 77.779,69.000 73.029,71.120 71.013,72.816 C 68.718,74.747 68.312,75.821 68.018,80.750 L 67.750,85.250 L 66.323,85.413 C 65.357,85.524 64.494,85.200 63.654,84.413 L 62.411,83.250 L 61.208,84.750 C 60.546,85.575 60.004,86.419 60.002,86.625 C 60.001,86.831 59.331,87.000 58.513,87.000 C 57.366,87.000 56.848,86.657 56.250,85.500 Z M 57.320,70.127 L 58.592,68.755 L 59.501,69.877 C 60.624,71.263 62.552,71.332 63.375,70.014 C 63.904,69.167 63.657,68.377 61.620,64.389 C 58.347,57.982 57.882,58.063 54.520,65.613 C 53.696,67.463 53.161,69.338 53.331,69.780 C 53.576,70.418 54.825,71.240 55.899,71.468 C 55.981,71.486 56.620,70.882 57.320,70.127 Z M 48.195,59.305 C 50.463,58.358 52.000,56.590 52.000,54.931 C 52.000,53.905 51.416,53.061 49.733,51.650 C 47.313,49.622 40.887,46.000 39.709,46.000 C 38.696,46.000 38.711,54.491 39.728,56.457 C 40.550,58.047 43.247,59.513 46.141,59.942 C 46.356,59.974 47.281,59.687 48.195,59.305 Z M 74.241,58.856 C 75.335,58.236 76.513,57.171 76.858,56.489 C 77.617,54.989 77.721,46.696 76.987,46.242 C 76.408,45.884 69.606,49.478 67.138,51.445 C 63.848,54.066 63.738,57.310 66.882,58.970 C 69.352,60.274 71.805,60.236 74.241,58.856 Z M 22.184,44.014 C 14.402,38.041 10.186,25.608 12.718,16.097 C 14.106,10.883 15.855,10.574 18.957,14.997 C 21.346,18.402 23.642,20.470 27.250,22.466 C 30.150,24.069 30.165,24.178 28.241,29.500 C 27.124,32.588 26.839,34.376 26.626,39.625 C 26.325,47.041 26.239,47.126 22.184,44.014 Z M 90.000,40.774 C 90.000,35.650 89.447,32.504 87.756,28.000 C 86.591,24.898 86.589,23.973 87.745,23.316 C 92.169,20.802 94.256,19.043 96.763,15.712 C 100.095,11.283 101.350,10.902 102.801,13.875 C 104.140,16.617 104.410,26.333 103.258,30.295 C 101.486,36.393 98.027,41.557 93.740,44.507 C 90.171,46.962 90.000,46.791 90.000,40.774 Z" fill="#000000" fill-rule="evenodd" /></svg>