<svg xmlns="http://www.w3.org/2000/svg" viewBox="0 0 311 239" width="311" height="239"><path d="M 152.871,222.751 C 149.228,221.828 147.452,220.906 144.934,218.631 C 141.771,215.774 140.796,213.448 140.790,208.750 C 140.786,205.263 140.992,204.324 142.393,201.429 C 143.277,199.602 144.000,197.990 144.000,197.847 C 144.000,197.705 143.047,195.937 141.883,193.919 C 139.893,190.471 139.768,190.024 139.796,186.500 C 139.832,182.058 141.285,178.348 144.291,175.020 C 151.598,166.933 161.398,166.493 169.125,173.904 C 171.302,175.992 171.365,175.801 169.936,171.472 C 168.822,168.097 166.617,165.286 163.625,163.428 C 161.885,162.347 161.593,161.306 162.674,160.039 C 163.643,158.904 170.000,148.624 170.000,148.191 C 170.000,147.992 170.309,147.474 170.686,147.039 C 171.414,146.201 172.909,143.542 176.753,136.250 C 180.231,129.651 182.063,126.343 188.343,115.329 C 191.454,109.872 194.000,105.338 194.000,105.254 C 194.000,105.169 196.066,101.534 198.592,97.175 C 204.413,87.128 209.380,77.449 211.509,72.000 C 213.809,66.113 213.828,62.288 211.583,56.768 C 210.298,53.609 209.959,52.055 209.945,49.252 C 209.922,44.956 210.236,43.568 212.050,39.933 C 214.657,34.710 220.490,31.170 226.152,31.376 C 227.472,31.424 229.947,31.852 231.652,32.327 C 234.209,33.040 235.199,33.656 237.322,35.857 C 238.922,37.516 240.323,39.605 241.031,41.387 C 241.656,42.961 242.240,44.341 242.328,44.453 C 242.416,44.564 244.720,44.718 247.448,44.796 C 253.368,44.963 256.057,46.073 259.440,49.742 C 262.791,53.378 263.744,55.926 263.747,61.250 C 263.750,65.016 263.557,66.117 262.568,68.000 C 259.287,74.245 255.436,76.685 247.498,77.548 C 241.281,78.225 239.631,78.870 236.408,81.885 C 232.087,85.927 224.455,97.920 214.381,116.500 C 210.563,123.544 204.979,133.446 193.661,153.250 C 190.361,159.025 186.574,165.775 185.247,168.250 C 183.920,170.725 181.961,174.178 180.893,175.922 C 179.152,178.769 178.968,179.385 179.101,181.922 C 179.218,184.148 179.410,184.707 180.000,184.549 C 180.412,184.438 183.787,184.171 187.500,183.956 C 191.213,183.741 198.075,183.318 202.750,183.015 C 207.425,182.713 214.625,182.255 218.750,181.999 C 241.545,180.583 253.370,179.350 255.709,178.146 C 258.524,176.696 260.459,174.928 263.038,171.449 C 268.272,164.389 272.286,162.127 278.639,162.660 C 284.626,163.162 289.663,167.278 291.508,173.174 C 292.726,177.066 291.600,182.625 288.694,187.076 C 287.835,188.391 287.844,188.419 289.863,190.713 C 292.612,193.836 293.657,196.180 293.893,199.750 C 294.470,208.493 286.705,216.156 278.062,215.372 C 273.718,214.979 270.833,213.324 265.962,208.435 C 261.271,203.726 260.850,203.516 254.018,202.464 C 250.296,201.891 247.831,201.999 230.250,203.501 C 227.225,203.760 221.262,204.218 217.000,204.518 C 203.561,205.467 183.867,207.469 180.174,208.263 C 179.583,208.390 177.962,210.029 176.571,211.904 C 173.059,216.641 169.006,220.331 165.716,221.786 C 162.160,223.359 156.844,223.758 152.871,222.751 Z M 34.620,214.231 C 30.401,212.903 27.191,209.946 25.168,205.524 C 24.093,203.174 23.932,202.203 24.088,199.006 C 24.201,196.695 24.617,194.577 25.171,193.500 L 26.070,191.750 L 24.449,190.500 C 17.345,185.022 14.884,181.168 14.864,175.489 C 14.838,168.005 19.062,161.922 26.134,159.256 C 27.974,158.562 29.345,158.422 32.134,158.640 C 36.206,158.959 37.567,159.461 43.250,162.736 L 47.250,165.041 L 52.000,164.850 C 54.612,164.745 57.538,164.420 58.500,164.127 C 61.514,163.211 70.211,160.033 71.076,159.532 C 71.530,159.268 75.130,157.786 79.076,156.239 C 85.570,153.691 89.407,152.091 95.250,149.493 C 96.350,149.004 99.612,147.698 102.500,146.590 C 105.388,145.483 110.112,143.582 113.000,142.367 C 115.888,141.151 119.487,139.695 121.000,139.131 C 122.513,138.567 129.938,135.582 137.500,132.498 C 145.062,129.414 152.262,126.487 153.500,125.995 C 154.738,125.502 160.468,123.176 166.235,120.826 C 172.001,118.476 176.823,116.656 176.949,116.782 C 177.531,117.364 162.168,145.202 160.135,147.250 C 159.229,148.163 156.710,149.507 153.698,150.685 C 150.977,151.749 147.963,152.953 147.000,153.361 C 146.037,153.768 144.800,154.281 144.250,154.500 C 143.056,154.975 140.963,155.866 136.250,157.905 C 134.325,158.737 130.950,160.132 128.750,161.003 C 126.550,161.874 123.562,163.130 122.110,163.794 C 120.658,164.457 119.372,165.000 119.251,165.000 C 119.130,165.000 116.943,165.882 114.391,166.960 C 111.838,168.038 106.713,170.197 103.000,171.757 C 99.287,173.318 95.125,175.109 93.750,175.739 C 90.926,177.033 86.761,178.933 78.750,182.584 C 59.920,191.164 58.703,192.192 56.500,201.396 C 55.053,207.444 51.200,211.880 45.521,214.038 C 42.575,215.157 37.831,215.241 34.620,214.231 Z M 97.250,210.368 C 94.830,209.371 94.181,208.850 93.062,207.000 C 91.126,203.799 91.959,199.336 95.130,195.923 C 97.328,193.557 99.404,192.781 103.574,192.765 C 107.080,192.751 107.579,192.881 109.574,194.324 C 112.078,196.135 114.752,199.773 115.457,202.327 C 116.244,205.175 114.607,208.115 111.250,209.886 C 109.289,210.921 99.418,211.260 97.250,210.368 Z M 221.000,167.966 C 219.762,167.406 217.512,165.666 216.000,164.099 C 213.507,161.516 212.783,161.092 208.250,159.561 C 205.500,158.632 202.967,157.610 202.621,157.289 C 202.122,156.827 202.282,156.249 203.401,154.479 C 204.176,153.253 206.478,149.022 208.517,145.077 C 212.884,136.627 213.787,135.500 216.188,135.500 C 217.948,135.500 220.295,134.016 223.863,130.645 C 230.667,124.218 240.274,126.593 244.940,135.855 C 247.086,140.115 246.028,146.404 242.358,151.210 C 240.752,153.314 240.623,153.705 241.094,155.056 C 241.383,155.883 241.518,157.771 241.396,159.250 C 241.110,162.702 239.297,165.491 236.136,167.343 C 233.987,168.603 233.229,168.754 228.500,168.863 C 224.116,168.965 222.879,168.817 221.000,167.966 Z M 51.750,142.073 C 46.854,141.192 42.321,137.577 40.047,132.739 C 39.290,131.128 39.000,129.522 39.000,126.938 C 39.000,121.298 39.679,119.780 44.134,115.465 L 48.042,111.681 L 46.923,109.215 C 45.237,105.500 45.275,98.620 47.000,95.228 C 50.253,88.833 56.777,85.379 63.544,86.468 C 70.170,87.535 73.988,90.900 78.045,99.247 C 81.598,106.559 82.458,107.158 95.500,111.417 C 98.112,112.271 102.106,113.431 104.375,113.995 C 106.644,114.560 110.077,115.606 112.003,116.320 C 115.128,117.478 115.613,117.840 116.502,119.684 C 117.049,120.820 118.395,123.325 119.491,125.250 C 120.587,127.175 121.488,129.023 121.492,129.356 C 121.497,129.689 120.556,130.216 119.403,130.526 C 117.312,131.089 113.133,132.801 107.037,135.592 L 103.824,137.062 L 98.787,136.226 C 96.017,135.765 92.625,135.173 91.250,134.909 C 80.832,132.909 73.758,132.964 71.032,135.067 C 63.959,140.522 60.897,142.075 56.801,142.280 C 55.123,142.364 52.850,142.271 51.750,142.073 Z M 129.392,125.125 C 128.972,124.644 127.892,122.900 126.991,121.250 C 126.091,119.600 123.779,115.438 121.853,112.000 C 119.927,108.562 116.734,102.825 114.758,99.250 C 105.893,83.213 95.186,66.593 91.916,63.794 C 89.294,61.549 85.853,60.251 80.464,59.471 C 73.161,58.415 68.284,55.435 65.959,50.610 C 65.020,48.661 64.815,47.379 64.786,43.250 C 64.755,38.975 64.914,37.944 65.878,36.139 C 67.587,32.941 69.884,30.578 72.705,29.119 C 74.871,27.997 76.042,27.771 80.573,27.597 L 85.895,27.393 L 87.255,24.194 C 92.756,11.250 110.806,11.436 116.921,24.500 C 117.958,26.716 118.212,28.027 118.229,31.250 C 118.248,34.818 118.074,35.587 116.618,38.368 C 114.678,42.074 114.074,46.279 114.971,49.842 C 115.631,52.466 119.414,60.198 123.445,67.164 C 124.850,69.592 126.000,71.653 126.000,71.743 C 126.000,71.898 132.154,82.820 133.751,85.500 C 134.161,86.188 137.111,91.362 140.306,97.000 C 143.502,102.638 146.501,107.812 146.971,108.500 C 147.998,110.002 151.000,116.312 151.000,116.968 C 151.000,117.223 150.512,117.588 149.915,117.777 C 149.318,117.966 147.237,118.858 145.290,119.758 C 143.343,120.658 140.062,122.116 138.000,122.997 C 135.938,123.879 133.597,124.915 132.798,125.300 C 130.904,126.213 130.315,126.183 129.392,125.125 Z M 255.996,122.087 C 251.514,120.468 248.991,118.977 247.271,116.934 C 246.248,115.719 246.000,114.888 246.000,112.687 C 246.000,109.181 246.925,107.444 249.876,105.411 C 251.913,104.007 252.648,103.784 255.054,103.838 C 258.201,103.908 260.145,104.742 262.034,106.830 C 263.223,108.145 263.743,108.859 266.122,112.438 C 266.661,113.248 266.995,114.707 266.995,116.250 C 266.995,118.404 266.757,119.010 265.269,120.629 C 263.642,122.400 261.676,123.535 260.342,123.472 C 260.017,123.457 258.061,122.834 255.996,122.087 Z M 156.720,114.452 C 156.534,114.150 156.671,102.458 157.025,88.470 C 157.529,68.580 157.538,62.597 157.066,61.025 C 156.661,59.671 155.115,57.569 152.337,54.593 C 147.946,49.890 147.000,47.991 147.000,43.880 C 147.000,34.360 156.023,28.789 164.750,32.921 C 166.400,33.702 168.052,34.707 168.422,35.154 C 169.033,35.891 169.418,35.802 172.653,34.173 C 175.958,32.509 176.457,32.398 179.650,32.627 C 183.974,32.936 186.474,34.559 188.698,38.500 C 190.076,40.942 190.250,41.698 190.248,45.250 C 190.246,50.095 189.432,51.590 183.791,57.121 C 178.573,62.236 178.566,62.268 177.728,83.250 C 177.355,92.600 177.038,101.728 177.025,103.535 L 177.000,106.819 L 173.375,108.358 C 171.381,109.204 167.329,110.845 164.369,112.005 C 161.410,113.166 158.865,114.314 158.715,114.557 C 158.333,115.174 157.127,115.111 156.720,114.452 Z" fill="#000000" fill-rule="evenodd" /></svg>