<svg xmlns="http://www.w3.org/2000/svg" viewBox="0 0 427 431" width="427" height="431"><path d="M 33.054,414.959 C 29.707,414.302 25.045,411.869 22.104,409.246 C 16.488,404.236 14.000,398.156 14.000,389.446 C 14.001,384.713 14.134,383.968 15.498,381.085 C 17.567,376.712 19.691,373.894 22.405,371.924 C 28.250,367.681 32.824,365.969 37.759,366.179 C 39.876,366.268 41.763,366.075 42.553,365.687 C 43.270,365.336 46.455,362.162 49.630,358.633 C 52.805,355.105 56.927,350.820 58.790,349.111 C 62.062,346.108 62.209,346.033 63.154,346.877 C 65.055,348.573 79.772,363.588 81.375,365.467 C 82.269,366.515 83.000,367.595 83.000,367.868 C 83.000,368.142 78.741,372.526 73.536,377.611 L 64.072,386.856 L 63.864,391.553 C 63.750,394.136 63.425,397.070 63.143,398.073 C 60.876,406.117 53.686,413.199 46.000,414.960 C 43.339,415.570 36.161,415.569 33.054,414.959 Z M 172.250,368.640 C 170.616,368.242 169.633,367.078 167.320,362.804 C 163.460,355.670 163.029,354.992 160.114,351.470 C 155.957,346.446 144.376,335.220 139.863,331.839 C 137.726,330.237 134.515,328.264 132.728,327.454 C 129.908,326.175 129.327,326.064 128.340,326.615 C 125.845,328.007 116.117,335.592 111.974,339.375 C 110.694,340.544 109.387,341.500 109.070,341.500 C 108.752,341.500 105.406,338.519 101.634,334.875 C 97.862,331.231 92.989,326.536 90.807,324.441 L 86.839,320.631 L 90.701,316.191 C 92.826,313.748 94.916,311.087 95.346,310.276 C 95.776,309.466 97.224,307.485 98.564,305.875 C 100.935,303.026 101.000,302.860 101.000,299.660 C 101.000,294.652 99.705,292.616 88.145,279.447 C 78.877,268.887 72.358,263.851 64.864,261.457 C 63.171,260.916 61.275,259.993 60.651,259.407 C 56.408,255.421 60.957,246.565 71.750,237.799 C 84.362,227.555 87.612,227.501 89.451,237.500 C 91.490,248.591 94.783,254.076 106.597,266.057 C 116.933,276.540 117.723,276.695 144.707,273.512 C 151.978,272.654 153.749,272.577 154.117,273.103 C 154.665,273.886 154.203,288.853 153.427,295.431 C 152.673,301.833 153.068,306.516 154.703,310.542 C 158.281,319.354 175.947,334.518 186.000,337.407 C 186.963,337.683 188.553,338.155 189.535,338.455 C 190.518,338.755 191.868,339.005 192.535,339.011 C 194.368,339.028 197.821,340.762 198.704,342.110 C 200.095,344.232 198.228,348.300 192.792,354.996 C 186.311,362.979 182.041,366.471 176.818,368.059 C 175.131,368.572 173.637,368.968 173.500,368.938 C 173.363,368.908 172.800,368.774 172.250,368.640 Z M 86.066,360.617 C 85.067,359.582 80.481,354.865 75.875,350.136 C 71.269,345.407 67.500,341.289 67.500,340.986 C 67.500,340.001 68.594,338.356 70.081,337.105 C 70.881,336.432 73.928,333.433 76.853,330.441 C 79.778,327.448 82.526,325.005 82.960,325.011 C 83.395,325.017 84.593,326.198 85.623,327.636 C 87.513,330.275 101.539,344.461 103.085,345.298 C 103.544,345.547 103.994,346.023 104.085,346.357 C 104.259,346.996 89.143,362.500 88.345,362.500 C 88.091,362.500 87.065,361.653 86.066,360.617 Z M 171.322,317.151 C 163.978,309.498 161.145,306.146 160.889,304.808 C 160.766,304.168 160.951,301.564 161.299,299.021 C 162.199,292.442 162.956,281.063 163.114,271.750 L 163.250,263.750 L 160.250,263.802 C 152.528,263.937 139.039,265.417 130.744,267.040 C 126.692,267.833 125.217,267.923 122.994,267.511 C 120.363,267.024 120.012,266.759 114.500,261.109 C 105.542,251.927 105.818,252.275 106.495,251.010 C 107.026,250.018 123.401,233.589 159.500,197.830 C 166.787,190.612 174.235,183.141 176.050,181.228 C 177.865,179.315 185.065,172.068 192.050,165.123 C 202.168,155.064 238.186,118.782 241.500,115.311 C 241.912,114.879 249.000,107.771 257.250,99.514 C 265.500,91.258 272.812,83.926 273.500,83.221 C 274.188,82.515 280.488,76.242 287.500,69.281 C 294.512,62.319 305.425,51.408 311.750,45.034 C 318.075,38.660 324.326,32.646 325.640,31.669 C 328.816,29.309 331.613,28.304 339.316,26.756 C 342.854,26.045 347.100,25.152 348.750,24.771 C 358.908,22.427 367.849,20.647 375.125,19.522 C 376.981,19.235 380.019,18.765 381.875,18.479 C 383.731,18.192 385.925,17.843 386.750,17.703 C 388.718,17.369 404.322,15.556 408.570,15.168 C 411.692,14.882 411.911,14.931 412.243,15.977 C 412.837,17.851 412.193,23.842 409.470,41.750 C 409.177,43.675 408.292,48.850 407.503,53.250 C 406.714,57.650 405.923,62.263 405.744,63.500 C 405.565,64.737 405.112,66.875 404.737,68.250 C 404.362,69.625 403.681,72.550 403.222,74.750 C 401.692,82.099 398.926,93.184 398.043,95.507 C 396.577,99.367 393.419,103.416 385.768,111.250 C 368.391,129.041 345.209,152.575 324.500,173.445 C 312.262,185.778 291.225,207.082 277.750,220.787 C 251.367,247.620 229.827,269.428 205.250,294.186 C 196.725,302.775 187.473,312.265 184.689,315.276 C 181.905,318.287 178.926,321.156 178.067,321.651 L 176.506,322.553 L 171.322,317.151 Z M 191.233,267.019 C 191.998,266.174 192.113,265.098 192.065,259.230 C 192.035,255.486 191.911,252.261 191.790,252.064 C 191.668,251.868 191.430,250.164 191.261,248.278 L 190.952,244.849 L 198.979,245.128 C 206.161,245.377 207.120,245.313 208.095,244.523 C 209.149,243.670 209.164,243.517 208.559,239.945 C 207.927,236.222 206.805,231.119 204.997,223.750 C 204.457,221.550 203.552,217.050 202.985,213.750 C 202.139,208.830 201.701,207.435 200.551,206.000 C 199.779,205.037 198.687,204.181 198.124,204.097 C 197.018,203.931 191.455,208.807 186.542,214.250 C 185.052,215.900 178.971,222.200 173.028,228.250 C 160.062,241.450 159.143,242.569 159.905,244.241 C 160.207,244.904 161.037,245.829 161.750,246.296 C 162.901,247.050 163.281,247.069 165.148,246.463 C 166.863,245.907 169.809,243.227 181.148,231.910 C 188.792,224.281 195.142,218.312 195.259,218.645 C 195.375,218.978 196.048,221.725 196.753,224.750 C 197.458,227.775 198.510,231.999 199.090,234.136 C 199.670,236.273 200.056,238.098 199.948,238.192 C 199.839,238.286 198.062,238.168 196.000,237.930 C 186.911,236.880 185.277,237.354 184.881,241.158 C 184.632,243.549 185.343,262.908 185.771,265.401 C 186.203,267.912 189.532,268.898 191.233,267.019 Z M 241.120,216.089 C 242.566,214.763 250.781,206.650 259.375,198.060 C 274.512,182.931 275.000,182.382 275.000,180.501 C 275.000,179.433 274.808,178.440 274.573,178.295 C 274.338,178.150 268.841,178.009 262.357,177.982 C 252.615,177.942 250.461,177.805 249.955,177.195 C 249.522,176.674 249.299,173.150 249.195,165.170 C 249.067,155.373 248.936,153.758 248.197,152.941 C 247.728,152.423 247.061,152.000 246.714,152.000 C 246.367,152.000 242.745,155.403 238.666,159.562 C 234.587,163.722 226.382,172.068 220.431,178.109 C 210.787,187.902 209.578,189.312 209.292,191.103 C 208.886,193.638 209.566,194.500 211.972,194.500 C 214.048,194.500 215.083,193.802 221.486,188.088 L 225.590,184.426 L 233.670,184.777 C 238.114,184.970 241.854,185.222 241.982,185.337 C 242.109,185.452 242.394,189.376 242.616,194.058 C 243.078,203.808 243.500,202.503 237.662,209.373 C 234.832,212.702 234.500,213.322 234.500,215.272 C 234.500,216.819 234.754,217.598 235.375,217.960 C 237.091,218.959 238.483,218.506 241.120,216.089 Z M 290.748,166.002 L 292.184,164.503 L 291.645,154.127 C 291.349,148.420 291.208,143.581 291.333,143.375 C 291.457,143.169 296.125,143.000 301.705,143.000 C 312.053,143.000 314.650,142.635 315.434,141.072 C 315.667,140.607 315.456,136.886 314.948,132.500 C 314.455,128.238 314.039,122.679 314.025,120.149 C 313.997,115.095 313.479,113.379 311.742,112.587 C 311.111,112.300 305.106,111.791 298.397,111.457 C 288.020,110.940 285.980,110.955 284.725,111.556 L 283.250,112.262 L 283.000,123.506 L 282.750,134.750 L 271.750,134.598 C 265.696,134.515 260.452,134.651 260.088,134.901 C 259.106,135.574 258.416,139.213 258.985,140.711 C 259.249,141.405 259.979,142.078 260.607,142.208 C 261.236,142.338 266.571,142.580 272.463,142.747 C 278.355,142.913 283.362,143.164 283.588,143.304 C 283.815,143.444 284.002,146.752 284.004,150.655 C 284.008,158.667 284.686,165.769 285.546,166.805 C 286.576,168.047 289.173,167.646 290.748,166.002 Z M 331.822,99.375 C 334.441,96.831 336.846,94.606 337.167,94.430 C 337.488,94.254 343.375,93.997 350.250,93.858 C 362.761,93.606 365.840,93.210 367.625,91.623 C 368.820,90.561 368.724,88.553 367.413,87.157 C 366.341,86.016 366.175,86.000 355.371,86.000 C 348.852,86.000 344.484,85.812 344.583,85.536 C 344.675,85.281 348.856,80.882 353.875,75.761 C 362.197,67.269 363.000,66.296 363.000,64.699 C 363.000,63.172 362.777,62.856 361.250,62.218 C 359.756,61.594 359.261,61.586 357.871,62.167 C 356.949,62.552 352.608,66.601 347.883,71.482 C 342.096,77.460 339.289,80.026 338.758,79.822 C 338.336,79.660 338.019,79.353 338.055,79.139 C 338.304,77.617 337.909,59.137 337.617,58.704 C 337.022,57.818 334.217,57.481 333.262,58.179 C 331.894,59.179 331.458,62.462 331.058,74.750 C 330.615,88.364 330.525,88.667 325.442,93.799 C 321.994,97.280 321.926,97.399 321.863,100.059 C 321.828,101.551 321.971,103.048 322.179,103.386 C 322.389,103.724 323.570,104.000 324.810,104.000 C 326.973,104.000 327.248,103.819 331.822,99.375 Z M 250.107,190.125 L 250.250,185.250 L 252.750,185.105 C 255.825,184.927 259.106,185.567 259.384,186.401 C 259.672,187.266 252.037,195.000 250.895,195.000 C 250.041,195.000 249.976,194.598 250.107,190.125 Z M 232.500,176.597 C 232.500,176.375 234.367,174.196 236.649,171.755 C 239.284,168.936 241.017,167.452 241.399,167.688 C 241.795,167.932 242.000,169.587 242.000,172.530 L 242.000,177.000 L 237.250,177.000 C 234.637,177.000 232.500,176.818 232.500,176.597 Z M 297.000,135.024 L 290.750,134.750 L 290.383,128.000 C 290.181,124.287 290.116,120.974 290.238,120.636 C 290.401,120.187 292.481,120.024 297.973,120.030 C 304.550,120.038 305.541,120.145 305.933,120.894 C 306.180,121.365 306.545,124.647 306.744,128.187 C 307.139,135.168 307.011,135.579 304.500,135.391 C 303.812,135.339 300.438,135.174 297.000,135.024 Z" fill="#000000" fill-rule="evenodd" /></svg>