<svg xmlns="http://www.w3.org/2000/svg" viewBox="0 0 292 384" width="292" height="384"><path d="M 140.000,367.014 C 138.423,366.679 137.298,366.289 132.250,364.332 C 127.930,362.656 118.657,355.873 116.500,352.811 C 116.088,352.225 114.737,350.655 113.500,349.321 C 112.263,347.987 110.290,345.625 109.117,344.073 C 106.028,339.986 106.228,339.197 111.500,334.668 C 117.845,329.219 118.655,328.545 119.788,327.773 C 121.062,326.905 130.094,325.237 131.208,325.665 C 132.238,326.060 132.923,327.860 133.714,332.250 C 134.516,336.700 136.032,339.545 138.850,341.892 C 140.078,342.914 142.275,344.793 143.733,346.068 C 145.191,347.342 146.760,348.596 147.220,348.853 C 148.114,349.354 149.442,352.561 149.478,354.308 C 149.490,354.889 149.916,355.902 150.425,356.558 C 151.644,358.128 152.516,359.812 153.021,361.572 C 153.355,362.739 153.195,363.286 152.156,364.520 C 151.455,365.354 150.244,366.365 149.465,366.768 C 147.969,367.542 143.085,367.668 140.000,367.014 Z M 163.582,366.998 C 160.994,366.448 157.237,364.177 156.575,362.763 C 156.314,362.206 155.727,360.481 155.271,358.931 C 154.815,357.381 154.125,355.693 153.737,355.181 C 153.349,354.669 153.025,353.757 153.016,353.155 C 153.007,352.552 152.801,351.936 152.558,351.786 C 151.870,351.361 151.607,348.532 152.210,348.047 C 152.507,347.808 154.325,346.988 156.250,346.225 C 158.175,345.462 160.875,344.109 162.250,343.219 C 164.622,341.683 164.903,341.620 167.750,341.992 C 171.898,342.533 174.719,343.788 176.225,345.761 C 176.926,346.681 178.840,348.486 180.476,349.772 C 184.022,352.558 187.000,356.224 187.000,357.803 C 187.000,360.760 183.081,364.428 178.000,366.226 C 175.308,367.179 166.620,367.644 163.582,366.998 Z M 192.693,355.017 C 189.927,354.712 189.875,354.681 184.888,350.318 C 181.329,347.205 178.500,343.354 178.500,341.622 C 178.500,340.075 182.490,335.741 189.365,329.820 C 197.323,322.967 199.252,321.827 202.148,322.261 C 207.720,323.096 209.923,326.106 209.973,332.954 C 209.999,336.556 209.942,336.734 207.876,339.454 C 206.708,340.992 205.480,342.425 205.146,342.639 C 204.813,342.852 203.716,344.596 202.708,346.513 C 200.847,350.055 197.570,354.202 196.074,354.909 C 195.621,355.123 194.099,355.171 192.693,355.017 Z M 143.642,341.196 C 139.987,338.755 139.372,338.113 137.980,335.286 C 136.024,331.312 135.857,327.221 137.517,323.966 C 139.398,320.279 140.072,317.389 140.415,311.533 L 140.750,305.816 L 143.250,304.336 C 151.164,299.649 150.822,299.768 156.250,299.820 C 161.991,299.874 164.902,300.533 166.867,302.224 C 168.107,303.290 168.250,303.741 168.250,306.582 C 168.250,308.324 167.980,310.988 167.650,312.500 C 167.321,314.012 166.578,318.288 165.999,322.000 C 164.655,330.629 163.250,336.654 162.211,338.239 C 161.329,339.586 157.026,342.247 154.381,343.081 C 153.484,343.364 151.623,343.671 150.246,343.764 C 147.921,343.921 147.448,343.737 143.642,341.196 Z M 169.613,338.146 C 167.796,337.797 166.849,335.890 167.252,333.391 C 167.630,331.046 169.342,322.426 170.060,319.250 C 170.493,317.335 171.023,314.238 172.024,307.775 C 172.546,304.410 172.798,304.079 176.199,302.289 C 180.361,300.099 184.487,300.609 191.012,304.119 C 197.334,307.521 201.000,311.157 201.000,314.027 C 201.000,315.948 199.053,319.397 197.525,320.181 C 191.637,323.206 187.247,326.628 180.659,333.325 L 175.568,338.500 L 173.159,338.432 C 171.834,338.394 170.238,338.266 169.613,338.146 Z M 101.116,331.764 C 96.794,329.752 92.341,326.291 91.112,323.989 C 88.717,319.502 90.266,314.784 95.158,311.663 C 96.207,310.994 97.759,309.783 98.607,308.973 C 99.455,308.163 100.426,307.500 100.765,307.500 C 101.414,307.500 104.000,304.391 104.000,303.610 C 104.000,302.530 105.626,300.027 106.510,299.747 C 108.041,299.261 111.708,301.196 113.512,303.440 C 114.422,304.573 115.467,305.500 115.832,305.500 C 116.198,305.500 117.342,304.745 118.374,303.822 C 119.962,302.402 120.749,302.097 123.500,301.835 C 129.059,301.305 132.001,301.989 135.014,304.512 L 137.634,306.706 L 137.298,312.333 C 137.113,315.429 136.715,318.669 136.413,319.534 C 135.670,321.666 133.483,322.500 128.638,322.500 C 126.496,322.500 123.957,322.752 122.997,323.060 C 122.036,323.369 120.239,323.762 119.003,323.935 C 117.036,324.211 116.649,324.476 115.905,326.058 C 114.788,328.434 111.062,331.673 108.597,332.412 C 105.711,333.276 104.057,333.133 101.116,331.764 Z M 83.763,310.436 C 79.275,308.988 76.501,305.906 74.352,299.982 C 69.329,286.132 59.923,270.524 49.054,258.000 C 44.736,253.024 42.000,248.191 42.000,245.537 C 42.000,243.322 44.136,239.373 46.297,237.591 C 47.305,236.761 50.025,235.163 52.343,234.041 C 58.673,230.975 63.597,231.259 67.150,234.897 C 69.502,237.306 69.999,239.067 70.003,244.997 C 70.007,251.633 70.610,253.637 75.422,263.000 C 78.261,268.525 83.695,276.145 87.526,279.975 C 88.943,281.391 91.915,283.347 95.400,285.156 C 98.479,286.754 101.223,288.483 101.499,288.998 C 101.775,289.513 102.000,292.231 102.000,295.038 L 102.000,300.141 L 100.166,302.546 C 99.157,303.869 97.359,305.650 96.169,306.504 C 94.110,307.983 87.528,311.526 87.000,311.441 C 86.862,311.418 85.406,310.966 83.763,310.436 Z M 202.496,308.323 C 200.355,307.624 192.709,302.605 191.028,300.795 C 189.922,299.604 189.812,299.084 189.865,295.289 C 189.940,289.944 191.123,287.587 197.538,280.000 C 203.850,272.536 209.394,261.933 212.961,250.500 C 216.180,240.185 216.777,237.324 217.288,229.750 C 217.713,223.471 219.081,220.499 223.479,216.308 L 226.565,213.367 L 229.222,213.641 C 230.682,213.792 232.299,214.124 232.814,214.379 C 233.329,214.634 234.848,215.375 236.191,216.026 C 238.975,217.375 241.363,219.574 242.073,221.441 C 242.655,222.972 242.129,230.858 241.248,233.818 C 240.909,234.955 239.291,237.655 237.652,239.818 C 234.130,244.465 231.957,248.122 229.079,254.250 C 227.917,256.725 226.425,259.875 225.764,261.250 C 224.433,264.020 218.850,277.917 217.760,281.174 C 217.378,282.316 216.140,287.016 215.008,291.619 C 212.252,302.827 211.243,304.958 207.614,307.228 C 206.056,308.203 204.662,308.976 204.516,308.948 C 204.370,308.919 203.461,308.637 202.496,308.323 Z M 117.250,299.709 C 116.150,299.361 114.677,299.060 113.977,299.038 C 112.122,298.982 107.687,296.007 106.203,293.823 C 104.175,290.839 104.120,287.813 105.966,280.750 C 106.828,277.450 107.663,273.400 107.822,271.750 C 108.381,265.916 106.131,248.051 103.036,233.750 C 100.143,220.385 98.096,213.115 95.712,207.750 C 93.061,201.782 92.951,201.330 92.967,196.505 C 92.988,190.031 94.156,183.680 95.611,182.132 C 96.232,181.471 98.550,180.046 100.762,178.965 C 104.285,177.245 105.218,177.001 108.268,177.011 C 114.144,177.030 117.235,179.149 119.919,185.000 C 121.421,188.275 121.576,191.913 120.625,201.652 C 119.814,209.963 119.844,217.303 120.731,227.500 C 122.091,243.122 123.350,252.450 124.984,259.000 C 125.293,260.238 125.856,262.635 126.236,264.327 C 127.257,268.872 128.230,271.541 131.498,278.759 C 134.884,286.241 135.557,288.726 135.669,294.164 C 135.774,299.249 135.269,299.723 130.250,299.250 C 128.210,299.057 126.391,298.597 125.889,298.145 C 124.762,297.131 122.219,297.621 120.518,299.180 C 119.341,300.258 119.107,300.296 117.250,299.709 Z M 139.082,299.348 C 138.362,298.481 137.240,286.519 137.290,280.250 C 137.326,275.701 137.521,274.709 139.449,269.250 C 142.160,261.574 142.408,260.621 143.026,255.500 C 145.149,237.909 145.532,225.040 144.215,215.562 C 143.493,210.371 143.052,208.428 140.795,200.500 C 139.680,196.583 139.778,190.032 141.019,185.554 C 142.632,179.730 142.962,179.309 146.847,178.086 C 151.797,176.529 155.475,175.922 157.750,176.288 C 160.349,176.706 164.500,178.602 165.673,179.907 C 166.977,181.359 167.953,184.367 167.974,187.000 C 167.984,188.238 168.375,190.748 168.845,192.578 C 169.731,196.038 169.574,198.432 168.014,205.250 C 167.325,208.259 166.906,210.459 165.583,218.000 C 165.028,221.162 164.345,224.762 164.064,226.000 C 163.494,228.514 162.476,235.386 161.176,245.500 C 160.128,253.652 160.011,265.033 160.910,271.500 C 161.698,277.180 161.798,292.508 161.056,293.896 C 160.719,294.525 159.783,294.975 158.393,295.175 C 154.281,295.768 151.714,296.427 146.588,298.208 C 140.945,300.167 139.894,300.327 139.082,299.348 Z M 167.409,299.232 C 166.672,298.832 165.948,298.109 165.799,297.627 C 165.651,297.145 165.591,292.137 165.666,286.500 C 165.811,275.614 165.851,275.414 168.541,272.000 C 170.434,269.598 174.634,261.047 176.155,256.500 C 180.756,242.738 183.008,225.478 181.906,212.431 C 181.428,206.775 181.467,205.809 182.281,203.220 C 183.540,199.217 186.579,194.814 188.814,193.753 C 189.806,193.283 192.342,192.779 194.451,192.635 C 197.874,192.400 198.603,192.517 201.267,193.730 C 206.795,196.248 208.000,198.271 208.000,205.033 C 208.000,211.646 207.200,214.245 201.006,227.750 C 199.824,230.325 196.892,239.534 194.716,247.500 C 193.777,250.938 192.588,255.213 192.073,257.000 C 190.187,263.546 189.332,269.370 188.991,278.000 C 188.615,287.530 187.951,290.561 185.416,294.327 C 184.160,296.194 183.752,296.440 181.384,296.765 C 179.935,296.964 177.338,297.774 175.612,298.564 C 172.175,300.138 169.481,300.357 167.409,299.232 Z M 40.198,237.329 C 38.212,236.214 36.518,234.613 36.079,233.437 C 35.836,232.784 35.474,229.561 35.276,226.273 C 35.078,222.986 34.470,218.486 33.925,216.273 C 32.133,208.989 28.376,198.908 26.743,197.000 C 25.158,195.148 21.000,186.904 21.000,185.614 C 21.000,184.469 24.192,181.570 26.457,180.659 C 27.443,180.262 28.925,179.636 29.750,179.266 C 36.314,176.329 38.358,176.028 41.557,177.527 C 42.892,178.152 44.121,179.092 44.287,179.616 C 44.453,180.140 44.640,184.321 44.702,188.909 C 44.806,196.638 44.913,197.503 46.163,200.701 C 48.424,206.485 52.334,212.025 56.870,215.876 C 62.638,220.772 63.000,221.221 63.000,223.488 C 63.000,226.558 61.305,228.011 55.745,229.709 C 48.214,232.010 47.857,232.179 45.770,234.412 C 43.086,237.286 41.551,238.089 40.198,237.329 Z M 241.649,216.603 C 241.319,216.393 240.050,215.353 238.829,214.291 C 237.092,212.781 235.446,212.009 231.253,210.740 C 224.767,208.775 223.788,207.997 224.575,205.430 C 224.881,204.434 226.014,202.523 227.094,201.184 C 231.347,195.909 233.385,192.507 237.986,183.000 C 238.452,182.037 239.122,180.238 239.475,179.000 C 239.827,177.762 240.298,176.188 240.520,175.500 C 241.143,173.574 241.888,169.686 242.555,164.875 C 243.282,159.627 244.386,157.495 246.368,157.511 C 248.308,157.526 255.809,159.234 258.500,160.274 C 262.882,161.967 262.875,163.557 258.455,170.893 C 256.846,173.564 255.189,176.875 254.774,178.250 C 252.449,185.954 251.338,190.019 250.947,192.250 C 250.250,196.231 249.547,201.025 249.224,204.000 C 248.869,207.263 247.592,212.881 246.916,214.152 C 246.415,215.093 243.616,217.000 242.750,216.990 C 242.475,216.987 241.980,216.813 241.649,216.603 Z M 203.500,191.934 C 202.262,191.375 200.800,190.666 200.250,190.358 C 199.677,190.038 196.715,189.788 193.314,189.774 L 187.378,189.750 L 186.085,188.072 C 185.091,186.784 184.744,185.669 184.591,183.262 C 184.372,179.826 184.812,178.540 188.018,173.250 C 194.062,163.276 197.385,142.704 195.223,128.654 C 194.855,126.263 195.957,122.325 197.567,120.278 C 198.914,118.566 200.949,118.633 204.737,120.516 C 208.216,122.244 209.089,122.306 213.616,121.146 C 215.890,120.563 217.147,120.447 217.490,120.790 C 218.242,121.542 219.117,126.890 218.870,129.220 C 218.751,130.336 217.955,133.511 217.102,136.275 C 215.098,142.765 214.253,146.988 213.057,156.500 C 211.659,167.613 211.396,172.732 212.005,177.000 C 212.299,179.062 212.670,182.662 212.829,185.000 C 213.167,189.964 212.900,190.392 208.446,192.020 C 206.971,192.559 205.761,192.989 205.757,192.975 C 205.753,192.961 204.738,192.493 203.500,191.934 Z M 18.026,179.048 C 17.365,177.814 17.283,174.837 17.755,169.227 C 18.055,165.659 17.955,163.990 17.285,161.315 C 16.113,156.645 14.721,152.377 13.764,150.526 C 13.321,149.671 12.832,147.572 12.675,145.861 C 12.428,143.163 12.535,142.568 13.482,141.375 C 14.843,139.660 17.239,139.542 20.331,141.039 C 23.237,142.446 25.035,144.872 28.741,152.387 C 31.302,157.578 32.716,159.717 36.422,164.000 C 38.988,166.966 40.972,169.710 40.982,170.309 C 40.994,171.000 40.309,171.824 39.011,172.684 C 37.917,173.408 36.850,174.000 36.640,174.000 C 36.430,174.000 34.646,174.797 32.675,175.771 C 29.312,177.432 21.299,179.980 19.393,179.994 C 18.921,179.997 18.306,179.572 18.026,179.048 Z M 92.875,177.129 C 91.008,176.864 88.938,174.048 88.642,171.372 C 88.497,170.060 88.731,168.391 89.254,167.000 C 91.495,161.042 91.983,157.941 91.991,149.585 C 92.002,139.535 91.068,132.084 88.503,121.764 L 86.532,113.829 L 87.585,111.955 C 88.165,110.924 89.001,109.989 89.445,109.878 C 89.888,109.767 92.162,109.844 94.500,110.050 C 98.774,110.427 98.992,110.387 103.250,108.441 C 103.800,108.190 105.130,107.931 106.206,107.867 C 107.963,107.762 108.269,107.929 109.206,109.500 C 110.347,111.412 110.307,110.499 110.055,129.250 C 109.927,138.770 109.995,139.610 111.473,146.750 C 112.676,152.562 113.658,155.713 115.833,160.750 C 118.703,167.396 118.979,168.783 118.014,171.707 C 116.998,174.787 116.236,175.101 111.969,174.201 C 107.233,173.202 103.333,173.601 99.581,175.469 C 96.424,177.040 94.903,177.417 92.875,177.129 Z M 162.000,174.710 C 158.392,173.163 153.381,173.095 148.940,174.533 C 143.934,176.153 141.264,175.297 139.709,171.574 C 138.706,169.174 138.818,167.611 140.295,163.423 C 144.865,150.457 145.258,147.845 145.214,130.750 C 145.182,118.118 145.072,116.321 144.089,112.356 C 143.490,109.939 143.000,106.434 143.000,104.568 C 143.000,101.694 143.172,101.013 144.125,100.120 C 146.681,97.726 149.515,97.712 154.138,100.070 L 156.031,101.036 L 159.212,99.518 C 160.962,98.683 162.766,98.000 163.221,98.000 C 164.806,98.000 166.767,99.414 167.836,101.326 C 168.872,103.179 168.886,103.407 168.218,107.500 C 167.837,109.838 167.168,112.987 166.732,114.500 C 166.148,116.528 165.866,120.538 165.658,129.766 C 165.326,144.456 165.926,152.365 167.796,157.934 C 170.880,167.121 170.929,171.228 167.990,174.260 C 166.042,176.270 165.700,176.295 162.000,174.710 Z M 257.000,157.441 C 255.488,156.878 252.635,156.010 250.660,155.510 C 248.686,155.011 246.829,154.454 246.535,154.272 C 245.639,153.718 245.906,149.756 246.927,148.442 C 250.676,143.621 253.502,135.872 254.449,127.819 C 255.035,122.833 255.591,121.794 257.472,122.171 C 258.578,122.393 264.427,124.301 267.875,125.566 C 269.489,126.158 269.299,127.614 267.075,131.707 C 264.539,136.374 264.133,138.291 263.725,147.500 C 263.441,153.912 263.212,155.531 262.400,156.875 C 261.259,158.764 260.711,158.821 257.000,157.441 Z M 267.014,122.133 C 266.334,122.005 265.330,121.587 264.782,121.204 C 264.234,120.820 262.724,120.365 261.427,120.193 C 258.288,119.777 256.000,118.359 256.000,116.831 C 256.000,116.180 256.552,114.883 257.227,113.949 C 260.328,109.654 260.962,108.225 261.209,104.986 C 261.567,100.300 263.259,95.181 264.780,94.184 C 266.240,93.228 269.247,93.530 270.465,94.756 C 271.533,95.829 271.409,103.009 270.265,106.455 C 269.319,109.302 269.611,113.934 270.856,115.839 C 271.458,116.759 271.468,117.360 270.920,119.714 C 270.236,122.659 270.141,122.718 267.014,122.133 Z M 206.500,118.572 C 204.726,117.587 203.136,116.755 201.494,115.951 C 197.914,114.199 197.034,111.819 198.743,108.514 C 200.318,105.467 202.898,96.867 203.521,92.586 C 203.873,90.161 203.991,86.819 203.802,84.586 C 202.841,73.241 202.838,73.367 204.141,71.786 L 205.348,70.322 L 210.401,71.161 C 213.181,71.622 216.555,72.000 217.900,72.000 C 221.842,72.000 222.912,74.181 221.212,78.750 C 219.374,83.687 219.043,85.080 218.458,90.340 C 217.959,94.817 217.961,97.105 218.467,101.839 C 218.814,105.090 219.334,108.190 219.622,108.728 C 220.507,110.383 220.371,115.338 219.414,116.298 C 218.091,117.625 207.996,119.402 206.500,118.572 Z M 95.500,107.669 C 94.812,107.569 93.328,107.368 92.200,107.224 C 89.430,106.869 87.000,104.526 87.000,102.209 C 87.000,101.289 87.425,99.460 87.944,98.143 C 90.896,90.654 90.546,81.584 86.947,72.308 C 85.833,69.436 85.746,67.833 86.665,67.071 C 87.030,66.768 89.449,66.392 92.040,66.237 C 94.630,66.082 97.537,65.741 98.500,65.480 C 102.192,64.479 102.932,64.754 104.268,67.625 C 105.718,70.740 105.808,73.079 104.651,77.594 C 103.439,82.324 104.323,87.900 107.544,95.840 C 109.181,99.878 109.328,101.416 108.268,103.464 C 107.434,105.079 107.122,105.233 102.000,106.568 C 97.021,107.867 96.943,107.880 95.500,107.669 Z M 151.044,96.224 C 149.280,95.824 147.143,95.085 146.294,94.581 C 144.842,93.719 144.757,93.504 144.867,90.957 C 144.931,89.468 145.637,86.338 146.435,84.000 C 148.556,77.789 149.195,73.952 149.184,67.500 C 149.177,63.495 148.905,60.839 148.290,58.750 C 146.892,53.999 146.816,53.105 147.700,51.756 C 149.369,49.209 150.479,48.887 157.315,48.970 C 167.297,49.091 168.335,50.010 166.422,57.028 C 165.119,61.805 164.677,69.544 165.474,73.631 C 166.541,79.107 166.972,81.173 167.745,84.532 C 168.878,89.456 168.722,92.935 167.289,94.687 C 166.278,95.922 165.703,96.147 163.182,96.289 C 161.569,96.380 158.900,96.566 157.250,96.703 C 155.495,96.848 152.920,96.650 151.044,96.224 Z M 212.250,69.288 C 203.151,67.574 202.255,65.994 205.997,58.257 L 208.550,52.977 L 208.437,47.114 C 208.309,40.418 208.637,39.492 211.690,37.915 C 214.193,36.623 216.296,36.998 218.472,39.125 L 220.121,40.737 L 219.750,46.494 C 219.546,49.660 219.419,53.587 219.469,55.222 C 219.565,58.380 220.972,63.088 222.237,64.486 C 223.265,65.622 223.197,65.987 221.612,67.845 C 219.919,69.827 217.275,70.234 212.250,69.288 Z M 87.564,63.327 C 86.343,61.856 86.398,59.596 87.767,54.943 C 89.014,50.704 89.113,49.780 88.864,44.720 C 88.632,40.008 88.730,38.844 89.506,37.112 C 90.546,34.787 92.569,33.500 95.182,33.500 C 96.637,33.500 97.160,33.835 98.457,35.599 C 99.872,37.523 100.000,38.023 100.000,41.625 C 100.000,46.509 101.190,51.904 102.786,54.256 C 104.246,56.406 104.400,59.432 103.125,60.890 C 101.202,63.089 88.958,65.007 87.564,63.327 Z M 155.250,46.980 C 149.464,46.683 147.500,46.066 147.500,44.545 C 147.500,43.626 149.486,38.641 150.606,36.750 C 150.963,36.146 151.313,32.382 151.488,27.250 C 151.858,16.383 152.532,14.819 157.116,14.191 C 159.272,13.895 159.479,13.979 161.450,15.950 L 163.520,18.020 L 163.476,24.385 C 163.420,32.604 163.734,34.508 165.849,38.769 C 167.486,42.068 167.560,42.422 167.022,44.420 C 166.706,45.592 166.178,46.635 165.849,46.736 C 164.501,47.152 160.438,47.246 155.250,46.980 Z" fill="#000000" fill-rule="evenodd" /></svg>