<svg xmlns="http://www.w3.org/2000/svg" viewBox="0 0 155 160" width="155" height="160"><path d="M 71.625,148.169 C 71.234,148.011 71.000,146.914 71.000,145.244 C 71.000,142.769 70.193,141.000 69.064,141.000 C 68.159,141.000 67.500,142.369 67.500,144.250 C 67.500,147.454 65.551,148.551 63.500,146.500 C 62.606,145.606 62.499,144.827 62.492,139.125 C 62.488,135.619 62.319,132.498 62.117,132.190 C 61.913,131.878 59.807,131.529 57.378,131.404 C 53.612,131.211 52.826,131.011 51.708,129.965 C 49.798,128.176 45.000,120.201 45.000,118.816 C 45.000,118.159 45.619,116.300 46.375,114.685 C 47.704,111.849 47.751,111.456 47.793,103.000 C 47.828,95.955 48.002,93.860 48.686,92.250 C 49.154,91.150 49.667,89.856 49.826,89.375 C 50.302,87.941 51.416,88.375 52.448,90.397 C 54.421,94.265 60.643,98.557 62.125,97.075 C 62.503,96.697 62.219,96.091 61.149,94.997 C 59.578,93.389 57.469,89.475 55.949,85.343 L 55.063,82.937 L 57.004,80.996 C 60.275,77.725 70.587,73.448 73.706,74.068 C 74.512,74.229 74.630,74.862 74.716,79.500 C 74.797,83.837 75.009,85.125 75.933,86.907 C 77.477,89.880 78.431,89.536 79.840,85.497 C 80.634,83.222 80.977,81.086 80.987,78.359 C 80.996,75.688 81.199,74.392 81.634,74.225 C 82.515,73.887 89.320,75.683 92.291,77.037 C 95.323,78.419 99.999,81.818 100.003,82.641 C 100.014,85.145 94.240,96.000 92.897,96.000 C 92.679,96.000 92.500,96.225 92.500,96.500 C 92.500,97.226 94.613,97.113 96.564,96.283 C 98.849,95.310 101.060,93.179 102.717,90.352 C 103.475,89.058 104.257,88.000 104.455,88.000 C 105.109,88.000 106.866,91.703 107.496,94.407 C 107.942,96.323 107.994,98.555 107.683,102.407 C 107.096,109.653 107.262,111.203 109.043,115.122 L 110.576,118.494 L 109.334,121.206 C 107.973,124.179 104.372,129.702 103.377,130.341 C 103.032,130.563 100.615,130.973 98.005,131.252 L 93.261,131.760 L 92.860,134.255 C 92.639,135.627 92.580,138.588 92.729,140.835 C 93.045,145.607 92.859,146.289 90.971,147.265 C 88.797,148.389 88.134,147.807 87.742,144.428 C 87.378,141.294 86.598,140.382 85.244,141.505 C 84.761,141.906 84.500,143.030 84.500,144.711 C 84.500,147.725 83.919,148.500 81.660,148.500 C 79.869,148.500 79.638,148.069 79.383,144.250 C 79.259,142.391 79.144,142.250 77.750,142.250 C 76.305,142.250 76.244,142.342 76.093,144.737 C 76.007,146.105 75.698,147.512 75.407,147.862 C 74.884,148.492 72.838,148.658 71.625,148.169 Z M 76.398,132.259 L 77.873,131.018 L 79.212,132.259 C 79.949,132.942 80.747,133.500 80.985,133.500 C 83.593,133.500 83.673,130.554 81.203,125.458 C 79.435,121.809 78.200,120.000 77.478,120.000 C 76.787,120.000 73.040,127.824 72.694,129.989 C 72.409,131.768 72.512,132.272 73.269,132.826 C 74.505,133.730 74.690,133.696 76.398,132.259 Z M 67.851,120.020 C 68.731,119.483 69.804,118.362 70.235,117.529 C 70.917,116.211 70.929,115.797 70.328,114.359 C 69.395,112.126 65.709,109.721 61.395,108.531 C 58.230,107.658 56.662,108.126 55.651,110.246 C 54.944,111.728 54.920,112.261 55.472,114.108 C 56.372,117.115 57.653,118.724 60.120,119.945 C 62.781,121.262 65.766,121.291 67.851,120.020 Z M 95.129,120.268 C 97.075,119.455 99.349,117.026 99.783,115.296 C 99.939,114.677 99.995,113.198 99.908,112.010 C 99.786,110.347 99.438,109.618 98.393,108.841 C 97.124,107.897 96.853,107.876 94.195,108.513 C 90.331,109.440 85.802,112.415 85.073,114.505 C 84.370,116.521 85.464,119.174 87.441,120.248 C 89.154,121.179 92.926,121.189 95.129,120.268 Z M 29.750,94.419 C 27.939,93.422 25.430,90.784 24.358,88.750 C 23.341,86.821 23.098,83.826 23.591,79.278 C 23.741,77.891 23.564,77.734 20.504,76.528 C 15.217,74.446 12.000,70.050 12.000,64.909 C 12.000,62.967 13.265,63.086 14.296,65.125 C 17.058,70.590 23.005,72.632 30.619,70.732 C 32.616,70.233 35.528,69.809 37.091,69.788 C 39.562,69.755 40.126,69.936 41.426,71.180 C 43.052,72.737 46.000,77.902 46.000,79.195 C 46.000,80.192 46.099,80.199 43.675,79.028 C 40.076,77.289 37.188,76.786 34.839,77.488 C 31.757,78.410 30.181,79.744 29.229,82.235 C 28.093,85.211 28.570,88.122 30.757,91.555 C 31.702,93.037 32.480,94.419 32.487,94.625 C 32.506,95.175 30.904,95.054 29.750,94.419 Z M 123.000,94.517 C 123.000,94.252 123.656,93.000 124.458,91.736 C 126.636,88.302 127.271,85.117 126.260,82.697 C 125.161,80.066 123.753,78.679 121.182,77.697 C 118.707,76.752 116.594,76.950 111.939,78.561 C 110.286,79.133 108.814,79.481 108.667,79.334 C 108.199,78.866 111.186,73.841 113.047,71.966 C 115.800,69.193 117.719,69.061 125.790,71.091 C 129.252,71.961 130.218,72.026 132.552,71.541 C 136.305,70.762 138.156,69.502 140.304,66.268 C 142.833,62.458 143.718,62.700 143.007,67.006 C 142.170,72.082 140.293,74.404 135.514,76.279 L 132.050,77.638 L 132.114,81.944 C 132.195,87.392 130.915,90.315 127.217,93.122 C 124.847,94.922 123.000,95.532 123.000,94.517 Z M 49.553,76.355 C 46.282,69.909 42.321,65.987 37.750,64.664 C 36.650,64.345 33.612,63.841 31.000,63.544 C 25.685,62.938 23.815,62.378 20.390,60.363 C 18.125,59.032 15.880,56.310 14.603,53.351 C 13.612,51.053 13.849,45.811 15.061,43.232 C 16.991,39.126 20.462,36.317 19.828,39.375 C 19.672,40.131 19.283,41.987 18.965,43.500 C 17.674,49.632 21.496,55.000 27.151,55.000 C 28.076,55.000 28.965,54.868 29.127,54.707 C 29.288,54.545 29.102,53.343 28.714,52.034 C 28.199,50.300 28.040,47.298 28.129,40.953 C 28.264,31.228 28.383,31.669 24.102,26.012 C 22.187,23.482 21.218,20.733 22.058,20.214 C 22.740,19.792 30.947,26.491 32.409,28.664 C 33.876,30.844 34.995,34.026 35.008,36.058 C 35.024,38.539 35.657,38.741 38.719,37.243 C 42.373,35.456 49.705,27.480 50.220,24.733 C 50.605,22.681 50.222,19.398 49.154,15.588 C 47.897,11.107 49.468,11.425 52.789,16.324 C 56.786,22.221 56.818,27.806 52.879,31.732 C 51.765,32.842 49.664,35.592 48.209,37.842 C 45.351,42.265 44.397,43.078 39.776,45.025 C 36.757,46.298 36.750,46.305 36.790,48.359 C 36.853,51.572 37.981,52.738 43.661,55.457 C 49.434,58.221 53.060,61.171 55.993,65.490 C 58.306,68.895 60.000,71.858 60.000,72.497 C 60.000,72.753 58.695,73.849 57.100,74.932 C 55.505,76.016 53.648,77.483 52.975,78.192 C 52.301,78.902 51.615,79.487 51.450,79.491 C 51.285,79.496 50.431,78.085 49.553,76.355 Z M 102.848,78.826 C 102.706,78.456 101.163,77.105 99.420,75.824 C 97.676,74.544 95.975,73.269 95.639,72.991 C 95.169,72.603 95.329,71.939 96.333,70.118 C 100.269,62.977 105.519,58.069 112.500,55.008 C 115.660,53.622 117.299,52.319 118.298,50.400 C 119.845,47.425 118.987,46.061 114.722,44.719 C 111.551,43.722 109.656,42.055 107.084,38.001 C 106.124,36.488 104.170,33.979 102.743,32.426 C 99.589,28.994 98.830,26.630 99.571,22.543 C 100.097,19.642 101.561,16.693 103.790,14.044 C 106.219,11.157 106.349,11.680 105.017,19.000 C 103.958,24.816 104.669,26.565 110.640,32.833 C 112.676,34.969 114.407,36.252 116.283,37.013 C 119.474,38.308 120.500,38.080 120.500,36.073 C 120.500,32.835 122.142,29.331 124.987,26.500 C 128.804,22.701 132.956,19.803 133.299,20.697 C 133.679,21.688 132.399,24.468 130.290,27.232 C 127.080,31.437 126.874,32.329 127.139,40.848 C 127.359,47.921 127.209,50.103 126.262,53.625 C 125.901,54.963 125.947,55.000 127.966,55.000 C 130.646,55.000 133.781,53.384 135.005,51.371 C 136.340,49.176 136.756,45.817 136.034,43.052 C 134.882,38.635 134.832,38.000 135.641,38.000 C 136.643,38.000 139.300,41.072 140.307,43.394 C 140.794,44.518 141.112,46.642 141.114,48.777 C 141.117,54.581 138.043,59.210 132.582,61.626 C 130.007,62.765 123.815,63.957 120.344,63.983 C 114.852,64.022 110.029,67.943 106.330,75.375 C 104.361,79.331 103.406,80.278 102.848,78.826 Z M 62.452,67.417 C 61.277,65.406 59.289,62.662 58.033,61.319 C 55.772,58.902 55.751,58.845 55.807,55.526 C 55.882,51.146 56.621,49.037 59.661,44.521 C 61.939,41.136 62.165,40.547 62.102,38.146 C 62.017,34.934 62.710,34.718 64.941,37.259 C 67.269,39.911 67.337,40.540 66.167,48.621 C 65.962,50.034 66.088,50.565 66.680,50.792 C 67.774,51.212 70.302,49.285 71.890,46.821 C 73.673,44.056 73.771,39.215 72.102,36.375 C 67.679,28.848 67.114,25.906 69.082,20.645 C 69.842,18.614 70.954,16.982 72.814,15.166 C 75.167,12.869 77.241,11.574 77.751,12.085 C 77.848,12.181 77.501,13.496 76.980,15.005 C 75.810,18.396 75.742,22.260 76.808,24.814 C 77.252,25.879 79.594,28.775 82.011,31.250 C 87.772,37.148 88.753,39.042 88.741,44.250 C 88.735,46.450 88.532,49.577 88.288,51.200 C 87.902,53.771 87.960,54.234 88.739,54.804 C 89.845,55.612 91.928,54.697 93.119,52.880 C 94.068,51.431 95.142,46.451 94.733,45.387 C 94.144,43.852 95.454,44.007 96.671,45.616 C 98.235,47.682 100.000,53.037 100.000,55.713 C 100.000,57.502 99.587,58.256 96.740,61.667 C 94.947,63.815 92.895,66.738 92.180,68.161 C 91.465,69.585 90.801,70.837 90.704,70.944 C 90.544,71.121 88.917,70.766 83.921,69.464 C 81.933,68.946 80.735,67.357 79.535,63.648 C 78.885,61.637 78.959,59.102 79.787,55.125 C 80.259,52.854 79.325,53.019 76.940,55.625 C 74.022,58.814 73.000,61.372 73.000,65.485 C 73.000,69.370 73.459,68.917 68.460,69.979 C 67.201,70.247 65.814,70.603 65.379,70.770 C 64.791,70.995 64.037,70.132 62.452,67.417 Z" fill="#000000" fill-rule="evenodd" /></svg>