<svg xmlns="http://www.w3.org/2000/svg" viewBox="0 0 594 610" width="594" height="610"><path d="M 257.885,590.125 C 257.218,589.368 257.075,585.421 256.821,560.750 C 256.659,545.075 256.304,529.438 256.031,526.000 C 254.533,507.113 252.178,491.996 250.376,489.706 C 249.512,488.607 249.063,488.500 245.339,488.497 C 243.090,488.496 240.411,488.261 239.385,487.976 C 235.280,486.836 233.628,481.643 236.269,478.181 C 238.225,475.616 240.855,475.126 254.500,474.783 C 268.856,474.422 279.958,474.071 287.250,473.746 C 290.275,473.611 295.788,473.381 299.500,473.234 C 303.212,473.087 310.525,472.756 315.750,472.497 C 320.975,472.239 328.738,471.901 333.000,471.746 C 337.262,471.590 342.887,471.363 345.500,471.240 C 348.113,471.117 353.738,470.905 358.000,470.769 C 367.116,470.478 378.430,470.048 384.750,469.754 C 391.113,469.457 401.071,469.052 409.250,468.757 C 413.100,468.618 421.538,468.281 428.000,468.008 C 434.462,467.736 442.675,467.392 446.250,467.244 C 449.825,467.097 454.663,466.875 457.000,466.751 C 459.337,466.626 464.512,466.403 468.500,466.253 C 472.488,466.104 477.212,465.870 479.000,465.732 C 484.227,465.330 506.443,464.531 520.898,464.225 C 528.241,464.069 534.728,463.845 535.312,463.727 C 536.538,463.479 537.160,462.162 538.495,456.981 C 539.024,454.929 539.910,451.675 540.464,449.750 C 541.018,447.825 541.477,445.933 541.485,445.546 C 541.498,444.946 538.731,444.895 522.875,445.200 C 512.631,445.397 502.900,445.644 501.250,445.749 C 496.694,446.038 488.532,446.437 480.750,446.750 C 476.900,446.904 471.725,447.131 469.250,447.253 C 466.775,447.376 455.637,447.815 444.500,448.230 C 417.744,449.226 400.558,449.914 387.750,450.500 C 381.975,450.765 374.100,451.101 370.250,451.248 C 366.400,451.394 357.850,451.732 351.250,451.998 C 344.650,452.263 332.387,452.715 324.000,453.000 C 315.613,453.286 304.250,453.732 298.750,453.991 C 293.250,454.250 285.488,454.588 281.500,454.742 C 241.535,456.283 226.214,457.276 222.000,458.599 C 219.529,459.375 217.191,461.284 214.878,464.416 C 212.543,467.576 208.206,476.436 207.173,480.156 C 206.776,481.583 206.075,483.988 205.614,485.500 C 204.949,487.682 204.777,490.316 204.778,498.250 C 204.781,507.923 204.835,508.463 206.436,514.750 C 208.375,522.367 210.520,527.053 214.083,531.457 L 216.659,534.640 L 229.776,534.282 C 237.057,534.083 243.013,534.116 243.161,534.356 C 243.308,534.594 243.587,539.852 243.781,546.042 C 244.094,556.036 244.043,557.386 243.326,558.103 C 242.622,558.807 240.616,558.917 227.572,558.963 C 218.621,558.995 211.548,558.800 209.938,558.476 C 204.182,557.318 198.198,554.194 193.829,550.065 C 188.939,545.444 181.954,536.536 178.822,530.925 C 178.140,529.704 175.724,526.015 173.453,522.727 C 171.181,519.440 168.519,515.175 167.537,513.250 L 165.750,509.750 L 165.754,496.500 C 165.760,480.983 166.413,475.001 169.521,462.000 C 171.595,453.325 174.298,446.527 178.902,438.408 C 183.596,430.129 189.553,423.500 192.299,423.500 C 193.160,423.500 193.802,424.110 194.797,425.875 C 197.161,430.066 199.348,433.190 201.622,435.625 C 203.722,437.872 203.982,438.000 206.453,438.000 C 209.808,438.000 210.867,437.399 212.032,434.835 C 214.158,430.150 213.494,428.593 203.460,414.750 C 202.065,412.825 198.704,407.988 195.993,404.000 C 193.281,400.012 189.155,394.050 186.824,390.750 C 184.493,387.450 179.750,380.587 176.283,375.500 C 166.657,361.374 162.680,355.647 159.269,351.000 C 157.553,348.663 153.062,342.137 149.289,336.500 C 145.516,330.863 140.701,323.852 138.589,320.920 C 136.478,317.989 133.512,313.778 132.000,311.562 C 130.488,309.345 127.689,305.331 125.782,302.641 C 123.874,299.951 120.219,294.649 117.660,290.858 C 115.100,287.068 112.313,283.018 111.466,281.858 C 110.619,280.699 108.762,278.008 107.338,275.878 C 105.915,273.748 103.175,269.843 101.250,267.200 C 96.918,261.254 92.851,255.418 84.730,243.500 C 73.478,226.988 71.125,223.764 69.676,222.878 C 67.786,221.721 63.814,221.766 61.155,222.973 C 59.421,223.760 59.002,224.230 58.727,225.694 C 58.259,228.191 59.694,232.373 62.124,235.590 C 63.229,237.053 66.481,241.738 69.351,246.000 C 72.221,250.262 76.322,256.249 78.466,259.304 L 82.364,264.858 L 78.462,268.159 C 73.189,272.620 68.782,278.712 64.105,288.000 C 57.205,301.701 54.125,314.017 52.475,334.500 C 52.154,338.488 51.781,341.863 51.647,342.000 C 51.228,342.429 48.861,339.282 42.319,329.601 C 38.843,324.458 34.132,317.639 31.849,314.447 C 26.660,307.194 23.615,301.068 21.933,294.500 C 20.196,287.714 19.474,270.320 20.526,260.605 C 21.208,254.308 23.307,241.945 24.236,238.750 C 25.709,233.688 30.086,223.657 32.200,220.500 C 39.702,209.295 47.718,203.629 57.250,202.794 C 58.900,202.649 68.688,202.403 79.000,202.248 C 89.312,202.092 98.537,201.862 99.500,201.737 C 101.302,201.502 141.596,200.591 159.112,200.388 C 166.146,200.307 169.143,200.443 169.563,200.863 C 170.015,201.315 169.907,202.127 169.103,204.351 C 164.099,218.191 164.350,230.133 169.930,243.750 C 173.757,253.088 178.712,260.557 184.086,265.086 C 185.497,266.276 189.149,268.488 192.201,270.000 C 195.642,271.705 197.811,273.078 197.910,273.614 C 198.242,275.415 188.122,283.542 182.766,285.777 C 179.889,286.977 173.234,286.085 165.750,283.497 C 160.952,281.837 150.960,279.148 148.375,278.820 C 145.828,278.497 145.250,279.070 147.125,280.057 C 147.744,280.383 149.757,281.629 151.598,282.825 C 153.440,284.021 155.062,285.000 155.202,285.000 C 155.641,285.000 167.042,291.709 175.225,296.783 L 179.701,299.558 L 183.475,298.225 C 185.551,297.491 189.387,295.877 192.000,294.638 C 201.944,289.921 202.061,289.880 205.564,289.892 C 209.426,289.906 214.251,290.814 215.778,291.814 C 217.380,292.864 217.841,294.341 217.943,298.750 C 218.125,306.639 219.093,312.680 220.746,316.250 C 222.673,320.411 233.018,328.917 238.411,330.775 C 241.708,331.911 249.931,335.904 252.228,337.485 C 253.757,338.537 255.226,340.313 257.011,343.268 C 260.555,349.135 263.290,351.139 275.228,356.614 C 278.265,358.007 282.314,359.626 284.225,360.212 C 287.650,361.262 287.723,361.321 289.290,364.286 C 291.678,368.806 293.589,374.456 293.251,375.997 C 292.882,377.677 290.084,380.566 286.409,383.062 C 284.835,384.131 283.356,385.346 283.123,385.762 C 282.891,386.178 281.526,387.726 280.091,389.202 C 278.320,391.024 277.699,391.969 278.157,392.145 C 279.002,392.469 283.341,391.023 284.986,389.868 C 285.666,389.390 286.744,389.000 287.381,389.000 C 288.019,389.000 289.150,388.582 289.895,388.072 C 291.083,387.258 295.452,384.697 303.001,380.388 C 306.546,378.365 307.267,377.310 307.147,374.322 C 307.043,371.734 306.923,371.133 305.018,363.672 C 304.445,361.429 303.925,358.420 303.863,356.984 L 303.750,354.374 L 305.727,353.678 C 306.814,353.295 308.839,352.788 310.227,352.551 C 311.614,352.314 314.887,351.518 317.500,350.782 C 326.824,348.153 327.790,347.931 331.000,347.671 C 336.534,347.223 336.426,346.914 335.829,361.500 C 335.609,366.886 335.639,371.026 335.902,371.412 C 336.151,371.776 340.493,373.491 345.552,375.223 C 350.611,376.956 356.195,378.964 357.961,379.687 C 359.727,380.409 361.434,381.000 361.754,381.000 C 362.393,381.000 379.264,386.501 381.875,387.560 C 383.672,388.289 383.798,388.871 382.949,392.500 C 382.176,395.806 381.599,399.387 380.534,407.500 C 379.659,414.157 379.626,417.514 380.433,417.491 C 380.607,417.486 382.247,415.180 384.076,412.366 C 386.999,407.872 389.266,403.951 396.000,391.750 C 396.911,390.100 398.409,387.587 399.328,386.165 C 401.937,382.132 402.604,382.813 391.139,377.807 C 388.328,376.580 384.503,374.741 382.639,373.720 C 376.167,370.177 374.223,369.202 369.250,367.008 C 359.969,362.914 359.264,361.826 362.522,356.636 C 363.691,354.774 364.973,353.059 365.370,352.825 C 365.767,352.590 367.671,351.015 369.601,349.325 C 371.531,347.634 373.512,345.956 374.004,345.598 C 374.549,345.201 378.291,344.670 383.574,344.240 C 388.346,343.853 395.962,343.193 400.500,342.774 C 405.038,342.355 410.144,342.010 411.847,342.006 C 415.466,341.999 415.481,342.010 421.145,348.750 C 427.863,356.746 430.330,359.173 431.341,358.779 C 432.277,358.415 440.588,356.345 452.583,353.489 C 459.640,351.808 460.987,351.320 460.347,350.680 C 459.646,349.980 449.277,349.048 441.918,349.024 L 434.585,349.000 L 432.877,346.625 C 431.937,345.319 430.199,342.459 429.014,340.270 C 426.202,335.076 422.895,329.942 421.754,329.000 C 420.997,328.375 418.632,328.250 407.548,328.250 L 394.250,328.250 L 394.299,327.000 C 394.360,325.445 396.667,315.444 398.047,310.750 C 400.203,303.413 404.498,296.188 408.409,293.317 C 410.823,291.545 417.337,288.671 420.500,287.982 C 424.865,287.031 427.975,286.436 430.750,286.018 C 432.400,285.770 437.430,284.989 441.928,284.283 C 446.426,283.577 451.180,283.000 452.492,283.000 C 454.796,283.000 454.971,283.107 457.591,286.125 C 460.070,288.981 466.434,296.841 473.481,305.750 C 475.004,307.675 478.841,312.400 482.008,316.250 C 485.175,320.100 488.775,324.525 490.008,326.083 C 491.241,327.641 493.828,330.791 495.757,333.083 C 497.685,335.375 500.194,338.488 501.333,340.000 C 502.471,341.512 504.669,344.212 506.218,346.000 C 508.847,349.036 527.233,371.668 530.000,375.275 C 532.168,378.101 541.145,389.162 542.985,391.276 C 543.956,392.390 546.888,395.970 549.500,399.231 C 552.112,402.492 556.479,407.880 559.203,411.205 C 569.545,423.828 575.000,432.090 575.000,435.131 C 575.000,438.216 570.391,443.481 566.758,444.547 C 563.936,445.374 563.047,446.581 560.532,453.000 C 554.811,467.599 553.298,476.670 554.444,489.500 C 555.213,498.110 556.497,503.703 559.543,511.720 L 562.144,518.565 L 565.947,521.479 C 573.155,527.003 574.683,529.421 574.599,535.167 C 574.536,539.494 573.895,541.421 571.864,543.390 C 569.137,546.033 567.396,546.355 553.973,546.702 C 537.996,547.116 529.524,547.436 519.750,547.997 C 510.379,548.535 502.064,548.914 492.000,549.264 C 488.012,549.403 479.462,549.740 473.000,550.012 C 452.804,550.864 438.007,551.475 431.000,551.748 C 427.288,551.892 422.337,552.117 420.000,552.248 C 417.663,552.378 410.688,552.603 404.500,552.748 C 392.330,553.032 380.889,553.403 373.750,553.745 C 358.106,554.494 329.420,555.116 329.045,554.714 C 328.807,554.459 328.454,548.822 328.261,542.188 L 327.909,530.126 L 331.080,529.825 C 332.823,529.660 338.413,529.404 343.500,529.256 C 348.587,529.109 355.450,528.874 358.750,528.733 C 362.050,528.593 371.050,528.258 378.750,527.989 C 392.056,527.524 398.589,527.269 410.500,526.750 C 415.624,526.527 436.699,525.811 454.750,525.247 C 459.700,525.092 465.663,524.866 468.000,524.745 C 470.337,524.624 476.075,524.394 480.750,524.235 C 485.425,524.076 491.500,523.855 494.250,523.744 C 498.958,523.553 503.772,523.378 521.750,522.748 C 525.875,522.604 532.008,522.465 535.378,522.440 C 538.748,522.416 541.615,522.218 541.749,522.002 C 541.882,521.786 541.338,519.728 540.539,517.429 C 539.740,515.131 538.576,511.588 537.952,509.557 L 536.818,505.865 L 528.034,506.210 C 523.203,506.400 517.225,506.647 514.750,506.759 C 512.275,506.871 506.425,507.086 501.750,507.237 C 486.357,507.735 478.821,508.007 473.500,508.255 C 470.613,508.390 463.975,508.619 458.750,508.763 C 453.525,508.908 447.337,509.125 445.000,509.246 C 442.663,509.366 436.587,509.588 431.500,509.738 C 426.413,509.888 420.337,510.118 418.000,510.249 C 415.663,510.381 409.700,510.604 404.750,510.745 C 381.850,511.399 377.324,511.542 371.188,511.807 C 365.738,512.043 364.363,511.955 363.068,511.285 C 361.092,510.264 360.139,508.804 359.716,506.155 C 359.448,504.476 359.602,503.703 360.489,502.268 C 362.365,499.232 364.084,498.713 373.750,498.262 C 377.050,498.107 381.663,497.875 384.000,497.745 C 388.744,497.480 397.013,497.141 408.250,496.751 C 418.988,496.377 427.503,496.063 441.750,495.512 C 448.625,495.246 458.300,494.904 463.250,494.750 C 468.200,494.596 474.500,494.369 477.250,494.245 C 492.120,493.574 511.283,492.859 522.053,492.573 L 534.250,492.250 L 534.285,485.125 L 534.319,478.000 L 531.535,477.954 C 527.608,477.890 519.126,478.055 516.750,478.241 C 515.650,478.327 510.137,478.541 504.500,478.716 C 494.479,479.027 489.108,479.247 479.500,479.739 C 476.887,479.873 470.025,480.104 464.250,480.251 C 458.475,480.399 451.725,480.625 449.250,480.753 C 446.775,480.882 440.700,481.110 435.750,481.260 C 430.800,481.409 423.375,481.739 419.250,481.992 C 411.865,482.446 405.015,482.727 388.250,483.267 C 383.575,483.417 374.913,483.748 369.000,484.001 C 363.087,484.254 354.425,484.598 349.750,484.765 C 345.075,484.931 339.900,485.155 338.250,485.261 C 336.600,485.368 329.625,485.604 322.750,485.787 C 315.875,485.969 310.088,486.265 309.890,486.444 C 309.692,486.624 309.859,488.003 310.262,489.510 C 313.933,503.251 315.758,521.684 316.252,550.000 C 316.394,558.112 316.637,569.823 316.793,576.023 C 317.063,586.780 317.031,587.351 316.076,588.523 L 315.076,589.750 L 313.349,588.829 C 312.399,588.323 310.301,586.853 308.686,585.563 C 301.454,579.786 288.938,571.500 287.444,571.500 C 286.308,571.500 281.786,574.614 278.750,577.487 C 273.043,582.887 261.712,591.000 259.876,591.000 C 259.205,591.000 258.308,590.606 257.885,590.125 Z M 148.480,486.856 C 144.809,481.956 139.083,473.498 125.894,453.500 C 112.128,432.625 109.437,428.600 107.385,425.816 C 106.486,424.597 104.905,422.283 103.873,420.674 C 102.840,419.066 100.552,415.725 98.787,413.250 C 97.022,410.775 93.480,405.529 90.914,401.592 C 88.349,397.655 84.394,391.805 82.125,388.592 C 75.675,379.457 67.571,367.228 66.146,364.483 C 64.583,361.471 64.448,359.296 65.039,346.633 C 66.250,320.700 70.621,304.278 80.132,289.938 C 83.820,284.376 88.260,279.088 89.849,278.364 C 91.021,277.830 91.261,277.931 92.593,279.514 C 93.396,280.469 96.964,285.525 100.523,290.750 C 104.081,295.975 109.334,303.625 112.196,307.750 C 115.057,311.875 118.936,317.500 120.815,320.250 C 122.694,323.000 126.395,328.295 129.040,332.016 C 131.684,335.737 134.136,339.319 134.487,339.976 C 135.159,341.231 149.884,362.119 159.707,375.750 C 162.877,380.150 166.900,385.887 168.646,388.500 C 170.392,391.113 173.192,395.150 174.868,397.473 C 178.469,402.460 182.000,408.248 182.000,409.161 C 182.000,409.517 180.205,411.438 178.011,413.428 C 172.289,418.620 166.823,427.121 162.211,438.000 C 156.548,451.357 153.685,464.938 152.724,483.000 C 152.405,489.003 152.175,490.500 151.572,490.500 C 151.373,490.500 149.982,488.860 148.480,486.856 Z M 299.750,328.304 C 296.998,327.438 295.608,326.636 295.049,325.591 C 294.788,325.103 294.199,320.665 293.740,315.727 C 293.281,310.790 292.571,305.575 292.161,304.139 C 290.512,298.360 287.351,297.127 284.346,301.089 C 283.247,302.538 282.891,304.122 281.554,313.499 C 279.888,325.180 279.759,325.500 276.679,325.500 C 271.742,325.500 266.679,323.358 266.242,321.084 C 266.101,320.350 265.646,318.343 265.231,316.623 C 264.816,314.903 264.265,311.279 264.007,308.571 C 263.318,301.344 261.467,296.500 259.393,296.500 C 256.732,296.500 253.500,303.708 253.500,309.644 C 253.500,311.146 253.355,313.102 253.177,313.990 C 252.864,315.555 252.794,315.595 250.875,315.288 C 248.462,314.902 246.765,314.073 242.359,311.126 C 235.967,306.852 235.803,306.264 235.774,287.500 C 235.751,273.420 235.700,272.643 234.659,270.388 C 232.869,266.513 230.589,264.091 227.273,262.540 C 223.173,260.622 216.908,259.145 210.009,258.468 C 205.551,258.031 203.548,257.578 201.042,256.442 C 194.416,253.438 190.434,249.270 187.482,242.250 C 186.556,240.050 185.619,238.036 185.400,237.775 C 185.180,237.514 185.000,236.924 185.000,236.464 C 185.000,236.004 184.531,234.566 183.957,233.270 C 182.680,230.382 182.147,223.016 182.919,218.910 C 183.579,215.399 185.869,210.555 190.557,202.750 C 192.539,199.450 194.822,195.287 195.629,193.500 C 196.437,191.713 199.571,185.205 202.595,179.040 C 212.642,158.549 212.559,158.785 212.875,149.765 C 213.357,135.996 210.527,121.811 206.422,117.416 C 204.558,115.421 203.289,116.098 202.264,119.637 C 201.463,122.397 201.523,125.733 202.540,135.230 C 203.354,142.833 203.077,151.121 201.879,155.000 C 200.461,159.587 196.554,167.574 191.717,175.774 C 189.438,179.636 187.186,183.799 186.714,185.024 C 185.072,189.280 184.079,189.405 182.404,185.570 C 178.757,177.221 176.688,169.590 174.660,157.000 C 173.378,149.044 173.250,147.093 173.254,135.500 C 173.257,124.756 173.394,122.323 174.129,120.034 C 174.608,118.541 175.000,116.601 175.000,115.723 C 175.000,113.644 176.953,105.995 179.014,100.000 C 180.822,94.740 187.593,80.821 189.994,77.425 C 190.840,76.229 191.916,74.688 192.385,74.000 C 197.392,66.657 202.997,60.115 207.760,56.053 C 208.855,55.120 211.439,52.748 213.504,50.783 C 217.463,47.015 221.381,43.966 226.040,41.026 C 227.588,40.049 230.181,38.358 231.802,37.268 C 233.424,36.177 235.650,34.876 236.750,34.377 C 237.850,33.877 240.325,32.710 242.250,31.782 C 251.050,27.542 255.605,25.659 260.500,24.237 C 261.738,23.878 264.212,23.132 266.000,22.581 C 267.788,22.029 270.925,21.326 272.972,21.019 C 275.020,20.712 276.958,20.243 277.279,19.976 C 279.384,18.229 305.904,16.894 317.274,17.963 C 325.300,18.718 337.641,21.476 347.750,24.773 C 356.050,27.481 367.621,32.823 374.000,36.893 C 380.947,41.325 387.537,45.863 390.656,48.363 C 395.256,52.050 408.046,64.767 409.651,67.250 C 410.362,68.350 411.756,70.375 412.747,71.750 C 424.075,87.460 431.669,106.381 433.570,123.634 C 434.106,128.502 433.876,147.125 433.204,153.250 C 432.331,161.204 428.525,176.365 426.050,181.750 C 425.544,182.850 424.960,184.312 424.752,185.000 C 424.544,185.688 424.057,186.873 423.669,187.633 C 423.076,188.800 422.811,188.934 421.983,188.491 C 421.442,188.202 421.000,187.765 421.000,187.521 C 421.000,186.687 416.132,176.758 413.513,172.250 C 410.178,166.509 406.951,159.717 405.437,155.250 C 404.349,152.042 404.253,150.978 404.290,142.500 C 404.311,137.412 404.599,131.589 404.929,129.559 C 405.787,124.284 405.230,118.894 403.650,117.190 L 402.439,115.883 L 401.149,117.066 C 399.036,119.005 397.029,124.172 395.374,131.939 C 392.729,144.349 393.308,154.224 397.285,164.521 C 399.422,170.055 412.980,197.348 416.152,202.500 C 425.276,217.323 426.410,224.677 421.479,237.053 C 418.452,244.651 416.795,247.624 413.766,250.896 C 409.353,255.662 403.720,258.051 394.750,258.961 C 382.888,260.164 377.258,262.787 373.567,268.832 C 371.463,272.278 371.042,275.994 371.298,288.861 C 371.539,301.003 370.990,305.405 368.840,308.552 C 367.302,310.804 359.547,314.680 356.500,314.720 L 354.250,314.750 L 353.944,310.750 C 353.519,305.182 352.635,301.349 351.331,299.413 C 349.971,297.396 348.140,296.390 346.969,297.016 C 345.525,297.789 344.079,301.681 343.515,306.310 C 341.816,320.253 341.642,320.894 338.895,323.306 C 336.945,325.018 333.365,325.713 329.750,325.082 C 327.994,324.776 327.675,324.504 327.133,322.852 C 326.419,320.674 325.206,312.907 324.745,307.561 C 324.233,301.619 322.701,299.000 319.740,299.000 C 316.071,299.000 314.631,303.012 313.479,316.436 C 313.164,320.113 312.692,323.735 312.431,324.483 C 311.776,326.363 309.697,327.768 306.583,328.436 C 303.353,329.128 302.306,329.108 299.750,328.304 Z M 295.750,265.837 C 296.575,265.278 298.299,263.857 299.582,262.681 C 303.266,259.299 303.888,259.331 308.131,263.117 C 310.122,264.893 312.282,266.627 312.932,266.971 C 314.801,267.960 318.206,267.218 319.991,265.432 C 321.915,263.509 322.255,262.228 322.230,257.000 C 322.214,253.669 321.926,251.993 320.897,249.250 C 320.176,247.325 318.771,243.162 317.776,240.000 C 316.781,236.838 315.772,233.800 315.534,233.250 C 311.643,224.274 309.548,221.339 305.705,219.478 C 302.928,218.134 301.840,218.385 298.787,221.072 C 296.163,223.382 294.634,225.591 293.299,229.000 C 292.814,230.238 292.111,231.925 291.735,232.750 C 287.378,242.325 283.929,252.992 283.892,257.010 C 283.818,265.005 290.090,269.674 295.750,265.837 Z M 251.750,226.517 C 264.821,222.244 267.823,220.992 272.500,217.861 C 276.355,215.280 279.056,211.368 281.553,204.750 C 283.069,200.729 283.250,199.718 283.250,195.250 C 283.250,190.884 283.084,189.901 281.937,187.500 C 280.242,183.952 276.472,178.958 274.023,177.019 C 271.459,174.988 265.898,172.299 262.500,171.448 C 259.070,170.588 247.621,170.638 243.907,171.528 C 232.917,174.164 228.975,175.996 225.049,180.291 C 218.986,186.926 217.523,195.543 220.475,207.234 C 223.576,219.513 228.639,225.920 236.873,227.986 C 240.387,228.867 246.366,228.277 251.750,226.517 Z M 370.529,227.563 C 374.980,226.290 376.496,225.434 379.058,222.746 C 382.468,219.168 383.769,216.898 385.428,211.631 C 388.128,203.064 388.769,193.891 387.023,188.816 C 385.664,184.868 382.289,179.926 379.495,177.795 C 373.862,173.500 363.848,170.828 353.500,170.859 C 344.031,170.889 337.274,173.398 331.076,179.187 C 328.546,181.550 325.209,186.457 324.305,189.142 C 322.510,194.477 323.796,201.841 327.887,209.658 C 332.318,218.125 339.019,222.111 356.250,226.530 C 364.902,228.749 366.084,228.834 370.529,227.563 Z M 425.799,270.579 C 425.181,269.580 432.801,263.941 437.000,262.290 C 438.238,261.804 440.260,261.062 441.494,260.643 C 442.728,260.223 445.152,259.232 446.881,258.440 C 448.610,257.648 450.146,257.000 450.293,257.000 C 451.182,257.000 465.439,250.023 469.000,247.846 C 476.207,243.439 483.947,236.007 486.255,231.278 C 488.987,225.679 488.912,220.844 485.997,214.623 C 483.821,209.980 481.719,206.832 477.732,202.250 C 469.512,192.802 466.063,183.749 466.018,171.500 C 465.986,162.887 468.371,155.758 474.071,147.437 C 479.781,139.098 489.150,132.854 499.500,130.487 C 507.699,128.611 514.586,126.642 517.500,125.341 C 524.991,121.995 530.020,112.640 529.243,103.500 C 528.617,96.139 527.000,93.455 518.741,86.074 C 515.556,83.228 513.035,80.640 513.139,80.324 C 513.577,78.995 526.042,79.170 530.500,80.569 C 539.507,83.396 549.206,90.247 553.406,96.750 C 555.075,99.333 557.996,105.090 557.998,105.798 C 557.999,106.100 558.336,107.021 558.747,107.844 C 559.905,110.166 560.575,118.517 560.047,124.056 C 559.604,128.704 557.679,134.843 555.720,137.857 C 555.324,138.466 555.000,139.210 555.000,139.509 C 555.000,140.300 549.571,148.419 547.533,150.675 C 542.941,155.757 533.465,161.403 525.021,164.087 C 519.020,165.995 513.787,168.704 511.446,171.116 C 508.492,174.159 507.346,180.376 509.117,183.750 C 509.550,184.575 511.500,187.387 513.449,190.000 C 518.413,196.652 520.062,200.123 521.279,206.485 C 522.379,212.231 522.195,215.562 520.438,221.750 C 517.941,230.545 511.535,239.687 502.443,247.429 C 493.406,255.125 471.099,263.542 451.750,266.558 C 448.450,267.073 442.938,267.927 439.500,268.456 C 436.062,268.986 431.717,269.775 429.844,270.209 C 425.850,271.137 426.128,271.111 425.799,270.579 Z M 474.500,117.779 C 469.775,115.750 463.366,109.225 461.457,104.500 C 460.426,101.948 460.536,95.272 461.654,92.542 C 463.391,88.300 467.429,82.143 471.600,77.375 C 472.343,76.526 473.683,74.463 474.578,72.791 C 476.034,70.072 476.210,69.301 476.245,65.500 C 476.288,60.742 476.553,60.000 478.212,60.000 C 482.012,60.000 486.061,67.605 486.067,74.753 C 486.070,79.030 485.175,81.290 481.051,87.424 C 479.346,89.960 477.588,93.317 476.981,95.195 C 475.389,100.124 475.809,101.642 480.231,106.919 C 484.088,111.522 486.242,115.148 485.802,116.296 C 485.654,116.680 484.795,117.445 483.892,117.995 C 481.648,119.363 477.993,119.279 474.500,117.779 Z" fill="#000000" fill-rule="evenodd" /></svg>