<svg xmlns="http://www.w3.org/2000/svg" viewBox="0 0 373 499" width="373" height="499"><path d="M 16.190,482.282 C 14.242,481.434 12.237,478.796 11.808,476.515 C 11.341,474.036 13.538,468.989 15.619,467.759 C 17.008,466.939 17.986,466.880 25.486,467.163 L 33.811,467.477 L 35.727,462.364 C 37.371,457.974 41.169,447.202 44.493,437.500 C 45.011,435.988 46.367,432.163 47.507,429.000 C 48.647,425.837 50.027,421.970 50.575,420.405 C 51.355,418.179 52.151,417.065 54.240,415.280 C 55.708,414.026 57.212,413.000 57.582,413.000 C 58.410,413.000 67.427,416.158 68.997,416.998 C 69.625,417.335 70.727,417.792 71.445,418.015 C 72.163,418.238 77.700,420.590 83.750,423.241 C 89.800,425.892 97.225,429.078 100.250,430.320 C 108.260,433.609 112.936,435.944 113.441,436.905 C 113.686,437.370 114.156,439.100 114.486,440.750 C 116.192,449.262 119.289,460.666 120.766,463.875 C 122.352,467.320 122.517,467.499 124.092,467.484 C 126.682,467.459 127.625,466.467 127.242,464.172 C 126.853,461.836 124.358,451.149 123.000,446.000 C 122.456,443.938 121.568,440.401 121.026,438.141 C 119.592,432.151 118.981,431.224 115.358,429.529 C 104.318,424.367 76.685,412.354 72.125,410.735 C 70.681,410.222 69.500,409.565 69.500,409.275 C 69.500,408.985 70.528,408.203 71.785,407.536 C 73.042,406.869 74.907,405.373 75.929,404.212 C 77.756,402.136 82.200,394.203 83.002,391.585 C 83.227,390.851 84.121,388.337 84.988,386.000 C 86.782,381.168 87.449,379.198 88.967,374.250 C 89.558,372.325 90.461,369.625 90.974,368.250 C 91.487,366.875 92.636,363.387 93.527,360.500 C 94.418,357.613 96.152,352.550 97.380,349.250 C 98.608,345.950 100.056,342.021 100.598,340.520 C 101.865,337.006 103.938,334.418 107.169,332.315 C 117.603,325.522 135.461,316.000 137.767,316.000 C 138.348,316.000 144.433,318.815 151.287,322.256 C 158.142,325.697 165.550,329.289 167.750,330.237 C 169.950,331.186 172.875,332.505 174.250,333.168 C 175.625,333.832 178.550,335.212 180.750,336.235 C 182.950,337.258 187.675,339.513 191.250,341.245 C 194.825,342.977 198.537,344.739 199.500,345.160 C 200.463,345.580 203.050,346.751 205.250,347.761 C 210.716,350.272 211.446,350.486 217.885,351.469 C 221.885,352.080 223.648,352.173 223.961,351.790 C 224.204,351.493 224.564,343.488 224.760,334.000 C 224.957,324.512 225.217,316.581 225.339,316.375 C 225.955,315.326 228.661,316.323 233.819,319.500 C 236.945,321.425 239.616,323.000 239.756,323.000 C 240.107,323.000 244.821,326.293 247.250,328.235 C 248.350,329.115 252.850,332.273 257.250,335.254 C 265.658,340.951 270.500,344.755 270.500,345.664 C 270.500,345.962 268.961,348.579 267.081,351.478 C 265.200,354.378 262.459,358.775 260.990,361.250 C 259.521,363.725 257.123,367.604 255.660,369.870 C 254.197,372.137 253.000,374.105 253.000,374.245 C 253.000,374.868 245.320,386.101 244.742,386.322 C 244.387,386.459 235.693,386.611 225.423,386.660 L 206.750,386.750 L 200.903,390.500 C 197.687,392.562 193.744,394.925 192.141,395.750 C 190.538,396.575 188.106,397.963 186.738,398.834 C 184.343,400.359 181.667,401.866 177.101,404.261 C 175.919,404.881 174.569,405.705 174.101,406.092 C 173.633,406.479 171.938,407.461 170.334,408.273 C 168.730,409.085 167.186,410.028 166.903,410.369 C 166.179,411.239 166.751,412.408 168.230,413.082 C 169.286,413.563 170.030,413.433 172.869,412.270 C 177.237,410.481 188.371,405.075 190.047,403.930 C 190.760,403.442 195.373,400.952 200.297,398.397 L 209.250,393.750 L 226.419,393.600 C 243.956,393.448 245.000,393.545 245.000,395.338 C 245.000,395.732 246.087,398.348 247.416,401.152 C 248.744,403.956 250.820,408.500 252.028,411.250 C 253.236,414.000 254.704,417.038 255.289,418.000 C 255.875,418.962 256.530,420.305 256.745,420.983 C 257.955,424.798 263.680,434.760 264.945,435.252 C 266.047,435.680 268.000,434.113 268.000,432.801 C 268.000,431.415 267.093,428.733 265.298,424.807 C 264.584,423.247 264.000,421.749 264.000,421.478 C 264.000,421.208 263.795,420.596 263.543,420.118 C 263.076,419.230 260.733,414.136 259.349,411.000 C 258.439,408.937 255.487,402.491 253.511,398.250 C 252.742,396.600 251.812,394.392 251.445,393.342 C 250.639,391.044 250.342,391.635 259.815,376.641 C 263.426,370.926 266.755,365.509 267.214,364.603 C 267.673,363.698 268.936,361.785 270.022,360.353 C 271.107,358.922 271.997,357.566 271.998,357.340 C 272.003,356.437 275.097,352.500 275.802,352.500 C 276.964,352.500 278.323,356.156 279.998,363.788 C 280.838,367.617 281.895,371.602 282.347,372.643 C 283.582,375.490 286.148,377.562 296.750,384.268 C 298.400,385.311 301.677,387.451 304.031,389.021 C 306.386,390.592 309.029,392.248 309.904,392.700 C 311.441,393.495 314.000,397.546 314.000,399.185 C 314.000,399.580 314.649,401.893 315.442,404.326 C 317.808,411.587 319.905,418.506 320.992,422.645 C 322.100,426.860 325.085,436.274 327.845,444.250 C 329.982,450.428 334.181,463.185 334.795,465.364 L 335.250,466.979 L 344.301,467.133 C 354.490,467.307 355.466,467.599 356.842,470.894 C 357.915,473.462 357.564,479.042 356.236,480.532 C 353.898,483.154 364.589,483.001 184.891,482.980 C 45.202,482.964 17.494,482.849 16.190,482.282 Z M 213.283,343.209 C 212.201,342.813 210.946,342.154 210.493,341.744 C 210.041,341.334 208.318,340.450 206.666,339.778 C 205.013,339.107 201.431,337.505 198.706,336.219 C 195.980,334.932 192.569,333.347 191.125,332.696 C 188.741,331.621 188.499,331.363 188.491,329.881 C 188.473,326.519 188.465,215.976 188.482,209.585 L 188.500,202.919 L 197.375,194.291 C 202.256,189.546 207.546,184.501 209.130,183.081 L 212.011,180.500 L 216.464,180.500 C 219.575,180.500 220.983,180.688 221.137,181.125 C 221.383,181.824 221.218,189.736 220.503,211.500 C 220.237,219.613 219.895,230.637 219.744,236.000 C 219.593,241.363 219.363,247.775 219.233,250.250 C 218.660,261.158 218.015,279.858 217.758,293.000 C 217.604,300.837 217.376,308.712 217.251,310.500 C 217.125,312.288 216.977,320.163 216.922,328.000 C 216.866,335.837 216.723,342.644 216.602,343.125 C 216.344,344.158 215.903,344.169 213.283,343.209 Z M 174.000,324.968 C 170.838,323.357 167.575,321.760 166.750,321.419 C 165.925,321.078 164.238,320.214 163.000,319.498 C 161.762,318.783 159.400,317.670 157.750,317.025 C 152.518,314.980 152.853,316.060 152.432,299.886 C 152.230,292.111 151.819,277.875 151.519,268.250 C 151.219,258.625 150.644,239.275 150.240,225.250 C 149.837,211.225 149.358,195.419 149.176,190.125 C 148.995,184.831 148.937,180.486 149.048,180.468 C 149.159,180.451 150.897,180.324 152.910,180.186 C 156.987,179.906 157.455,180.130 162.056,184.556 C 163.262,185.717 166.950,189.095 170.250,192.062 C 173.550,195.028 177.262,198.696 178.500,200.212 L 180.750,202.969 L 181.000,209.110 C 181.137,212.487 181.192,240.619 181.121,271.625 C 181.019,316.150 180.861,327.989 180.371,327.948 C 180.029,327.920 177.162,326.579 174.000,324.968 Z M 176.643,188.751 C 172.577,185.039 168.601,181.119 167.808,180.039 C 167.014,178.960 165.407,177.136 164.236,175.986 C 162.268,174.054 161.827,173.864 158.428,173.470 C 149.640,172.452 132.423,173.367 125.570,175.215 C 122.195,176.126 112.954,180.475 109.923,182.579 C 109.193,183.085 108.278,183.500 107.890,183.500 C 106.671,183.500 104.054,177.088 102.725,170.842 C 101.727,166.151 101.817,162.068 103.007,158.105 C 105.411,150.095 106.206,147.969 107.097,147.162 C 108.000,146.345 108.252,146.415 112.493,148.664 C 121.633,153.512 124.211,154.002 140.500,153.991 C 158.538,153.979 163.756,153.237 170.561,149.719 C 172.400,148.768 172.374,148.039 170.438,146.219 L 168.877,144.750 L 169.195,133.500 C 169.370,127.312 169.738,118.650 170.012,114.250 C 170.287,109.850 170.733,101.300 171.002,95.250 C 171.845,76.336 172.487,64.925 172.985,60.000 C 173.353,56.362 173.323,55.205 172.857,55.059 C 172.523,54.954 170.528,53.154 168.424,51.059 C 165.257,47.907 164.460,46.782 163.799,44.534 C 161.472,36.623 164.768,28.320 172.250,23.242 C 177.307,19.810 181.133,18.698 186.379,19.138 C 195.640,19.915 203.232,25.874 205.967,34.514 C 207.185,38.364 207.259,40.860 206.252,44.178 C 204.951,48.468 202.124,51.915 197.625,54.698 C 196.456,55.421 195.500,56.118 195.500,56.246 C 195.500,56.375 195.818,57.328 196.207,58.365 C 196.603,59.420 197.044,63.113 197.208,66.750 C 197.370,70.325 197.841,79.438 198.254,87.000 C 201.682,149.685 201.578,146.320 200.125,147.498 C 198.390,148.905 198.713,149.885 201.125,150.530 C 202.294,150.842 203.475,151.276 203.750,151.494 C 204.025,151.712 206.050,152.294 208.250,152.787 C 214.225,154.126 240.205,154.434 246.688,153.242 C 251.794,152.304 251.977,152.229 256.500,149.212 C 261.993,145.549 262.855,145.732 264.915,151.000 C 267.568,157.782 268.752,166.505 267.535,170.300 C 267.280,171.098 266.349,174.113 265.466,177.000 C 264.584,179.887 263.460,182.676 262.970,183.197 C 262.100,184.121 261.964,184.076 257.293,181.289 C 249.577,176.684 242.510,174.325 234.766,173.770 C 226.222,173.156 209.982,172.974 209.035,173.481 C 208.494,173.771 204.109,177.933 199.292,182.729 C 190.332,191.651 185.941,195.500 184.723,195.500 C 184.345,195.500 180.709,192.463 176.643,188.751 Z" fill="#000000" fill-rule="evenodd" /></svg>