<svg xmlns="http://www.w3.org/2000/svg" viewBox="0 0 158 164" width="158" height="164"><path d="M 77.068,150.371 C 74.596,145.932 71.136,139.200 70.712,138.000 C 70.469,137.312 70.153,117.625 70.010,94.250 L 69.750,51.750 L 67.750,51.603 C 66.253,51.493 65.330,51.766 64.083,52.688 C 62.675,53.727 62.191,53.840 60.971,53.415 C 59.273,52.823 56.642,49.989 56.217,48.295 C 55.818,46.707 57.055,44.440 59.353,42.545 C 61.622,40.675 62.178,40.640 64.091,42.250 C 65.400,43.351 66.044,43.500 69.509,43.500 C 71.672,43.500 73.572,43.288 73.732,43.030 C 73.892,42.771 74.165,38.616 74.339,33.797 L 74.656,25.035 L 73.328,23.028 C 70.111,18.166 72.936,12.078 78.621,11.622 C 80.776,11.449 81.566,11.624 83.000,12.590 C 86.479,14.935 87.489,19.404 85.275,22.665 C 83.770,24.884 83.870,23.987 83.941,34.625 L 84.000,43.500 L 88.462,43.500 C 92.550,43.500 93.054,43.390 94.486,42.185 L 96.050,40.869 L 97.825,41.810 C 102.103,44.077 103.266,47.891 100.576,50.837 C 97.688,53.998 95.347,54.476 93.523,52.277 C 93.121,51.794 92.061,51.500 90.719,51.500 L 88.561,51.500 L 88.405,94.125 L 88.250,136.750 L 86.086,141.000 C 82.429,148.183 79.785,152.466 79.000,152.479 C 78.588,152.486 77.718,151.537 77.068,150.371 Z M 80.579,130.745 C 80.925,124.458 80.956,62.770 80.618,55.596 L 80.422,51.441 L 79.086,51.596 L 77.750,51.750 L 77.750,93.500 C 77.750,116.463 77.918,135.660 78.123,136.162 C 78.333,136.674 78.881,137.001 79.373,136.907 C 80.128,136.763 80.296,135.906 80.579,130.745 Z M 40.317,135.608 C 39.947,135.010 42.012,128.945 43.162,127.250 C 45.161,124.304 64.767,103.500 65.544,103.500 C 65.798,103.500 65.980,106.439 65.954,110.125 L 65.908,116.750 L 57.435,124.741 C 52.775,129.136 48.629,132.918 48.222,133.146 C 47.601,133.493 40.957,136.000 40.657,136.000 C 40.603,136.000 40.450,135.824 40.317,135.608 Z M 113.119,134.805 C 109.389,133.234 106.700,131.027 98.875,123.118 L 92.000,116.170 L 92.000,110.114 C 92.000,106.784 92.185,103.945 92.411,103.805 C 93.139,103.355 112.487,123.893 114.733,127.500 C 115.639,128.954 117.500,134.442 117.500,135.658 C 117.500,136.267 115.810,135.938 113.119,134.805 Z M 48.502,99.048 C 47.879,98.624 48.126,98.160 49.971,96.280 C 51.190,95.037 52.069,93.902 51.923,93.756 C 51.778,93.611 49.950,94.281 47.862,95.246 C 45.774,96.211 43.320,96.993 42.408,96.984 C 40.338,96.964 35.250,94.503 35.250,93.521 C 35.250,93.088 36.404,92.379 38.099,91.771 C 43.142,89.964 45.753,86.929 40.877,88.542 C 37.895,89.530 31.171,89.433 29.190,88.375 C 27.125,87.272 23.000,82.645 23.000,81.432 C 23.000,80.553 23.263,80.500 26.125,80.800 C 29.789,81.185 30.395,81.207 33.875,81.089 C 35.775,81.025 36.500,80.803 36.500,80.286 C 36.500,79.790 35.623,79.467 33.625,79.229 C 24.746,78.172 18.209,74.837 16.062,70.270 C 14.621,67.205 13.500,62.864 14.008,62.320 C 14.229,62.084 15.386,62.559 16.580,63.378 C 22.164,67.206 33.500,71.365 33.500,69.585 C 33.500,69.357 32.325,68.626 30.889,67.960 C 23.505,64.538 15.337,57.745 13.199,53.250 C 12.190,51.128 12.009,49.980 12.005,45.655 C 11.999,39.498 12.463,38.930 14.963,42.039 C 18.931,46.973 24.494,52.257 28.658,55.047 C 32.887,57.880 34.039,58.440 33.967,57.625 C 33.948,57.419 32.370,55.934 30.459,54.326 C 25.441,50.102 19.285,42.520 17.002,37.750 C 14.728,33.001 14.289,30.676 14.981,27.067 C 15.527,24.223 17.883,18.500 18.508,18.500 C 18.712,18.500 19.149,19.231 19.480,20.125 C 24.778,34.450 37.534,47.511 57.588,59.143 C 60.782,60.995 62.748,63.542 64.511,68.109 C 65.617,70.976 66.000,72.807 66.000,75.234 C 66.000,77.030 65.787,78.500 65.528,78.500 C 65.268,78.500 64.087,77.375 62.903,76.000 C 61.719,74.625 60.581,73.500 60.375,73.500 C 60.169,73.500 60.000,74.311 60.000,75.302 C 60.000,77.568 62.035,81.700 64.302,84.040 L 66.037,85.830 L 65.893,91.037 L 65.750,96.244 L 62.750,96.795 C 61.100,97.099 58.850,97.734 57.750,98.207 C 55.354,99.238 49.556,99.765 48.502,99.048 Z M 103.497,99.059 C 102.807,98.835 101.525,98.280 100.647,97.826 C 99.647,97.309 97.845,97.000 95.828,97.000 C 91.968,97.000 92.000,97.051 92.000,90.976 L 92.000,86.533 L 94.250,83.999 C 96.706,81.234 97.699,79.261 98.237,76.074 C 98.710,73.276 97.770,73.330 95.498,76.231 C 92.850,79.611 92.303,79.292 92.627,74.558 C 92.846,71.360 93.270,69.822 94.868,66.411 C 97.045,61.765 98.260,60.535 104.096,57.060 C 115.726,50.137 126.880,40.028 132.576,31.250 C 135.696,26.441 136.491,24.969 138.177,20.875 C 138.602,19.844 139.155,19.000 139.406,19.000 C 139.658,19.000 140.496,20.406 141.269,22.125 C 143.225,26.474 143.514,31.648 142.021,35.604 C 140.143,40.580 136.259,45.906 130.140,51.895 C 126.968,54.999 124.498,57.664 124.650,57.817 C 125.640,58.806 138.859,48.050 142.750,43.090 C 143.850,41.687 145.002,40.531 145.310,40.520 C 146.134,40.491 146.617,46.790 146.027,49.875 C 145.315,53.605 144.292,55.318 140.631,58.915 C 136.980,62.502 133.143,65.122 128.020,67.526 C 126.084,68.434 124.500,69.362 124.500,69.589 C 124.500,71.435 135.576,67.387 141.340,63.434 C 144.152,61.505 144.619,61.577 144.217,63.875 C 143.158,69.924 140.979,73.540 137.134,75.630 C 134.522,77.050 128.752,78.658 124.126,79.255 C 121.489,79.595 120.528,80.149 121.514,80.759 C 122.192,81.178 132.009,81.142 133.712,80.715 C 135.572,80.248 135.392,81.681 133.219,84.643 C 129.658,89.499 125.842,90.291 116.058,88.208 C 114.728,87.925 114.416,87.997 114.598,88.545 C 114.903,89.459 117.599,91.010 120.563,91.976 C 121.868,92.402 122.989,92.975 123.054,93.250 C 123.118,93.525 121.962,94.481 120.483,95.375 C 116.568,97.741 113.340,97.476 108.600,94.397 C 107.417,93.628 106.349,93.000 106.225,93.000 C 105.450,93.000 106.295,94.513 108.094,96.346 C 109.245,97.519 110.038,98.629 109.855,98.812 C 109.330,99.336 104.881,99.509 103.497,99.059 Z" fill="#000000" fill-rule="evenodd" /></svg>