<svg xmlns="http://www.w3.org/2000/svg" viewBox="0 0 315 316" width="315" height="316"><path d="M 23.750,304.043 C 20.431,303.425 18.258,302.233 15.831,299.700 C 10.834,294.485 10.620,286.364 15.318,280.205 C 17.317,277.585 20.486,276.327 24.823,276.430 L 28.396,276.516 L 31.823,272.634 C 33.708,270.499 39.075,264.584 43.750,259.490 C 54.674,247.586 64.207,236.628 64.406,235.747 C 64.492,235.367 63.229,232.737 61.600,229.903 C 58.494,224.502 56.860,221.094 55.774,217.750 C 54.002,212.298 53.751,210.511 53.768,203.500 C 53.785,196.608 53.864,196.044 55.359,192.080 C 58.133,184.727 61.839,179.907 67.260,176.600 C 70.418,174.673 70.603,175.229 68.920,181.593 C 67.558,186.745 67.448,187.746 67.690,192.806 C 67.914,197.475 68.219,199.059 69.603,202.719 C 71.112,206.709 73.486,210.500 74.476,210.500 C 74.919,210.500 75.554,208.939 76.509,205.500 C 78.662,197.748 80.190,194.438 84.242,188.750 C 89.307,181.639 92.960,178.454 100.122,174.900 C 106.203,171.883 110.071,171.287 128.750,170.486 C 144.514,169.811 148.821,169.319 153.500,167.659 C 156.590,166.563 157.694,165.854 159.774,163.637 C 162.140,161.113 162.499,160.916 165.524,160.478 C 171.193,159.657 184.237,158.622 184.621,158.963 C 184.981,159.282 184.066,164.224 183.087,167.250 C 180.680,174.684 173.340,182.813 165.459,186.770 C 156.184,191.429 147.649,192.999 126.250,193.984 C 115.344,194.486 111.617,195.489 107.816,198.946 C 106.229,200.388 102.957,206.970 102.831,208.973 C 102.755,210.167 102.880,210.240 104.750,210.091 C 107.298,209.888 113.682,208.190 115.571,207.213 C 116.843,206.555 118.676,204.422 120.250,201.767 C 120.648,201.096 121.977,200.831 126.750,200.469 C 130.050,200.218 135.749,199.759 139.416,199.447 C 143.184,199.127 146.260,199.070 146.493,199.316 C 146.883,199.727 146.137,203.977 145.100,207.250 C 143.275,213.009 138.656,220.288 134.098,224.588 C 126.161,232.075 118.672,235.480 104.869,237.876 C 102.814,238.232 102.816,238.706 104.879,240.720 C 107.096,242.886 111.582,245.189 115.750,246.302 C 119.879,247.404 128.791,247.363 132.750,246.223 C 134.400,245.748 136.706,245.256 137.875,245.130 C 139.849,244.916 140.000,244.984 140.000,246.101 C 140.000,249.053 132.884,255.680 126.414,258.752 C 121.662,261.009 117.270,261.717 110.500,261.317 C 100.800,260.744 94.042,258.423 84.540,252.402 L 80.829,250.051 L 78.840,251.627 C 76.001,253.875 67.272,261.790 60.231,268.500 C 56.912,271.663 51.228,277.023 47.599,280.413 L 41.000,286.576 L 41.000,289.714 C 41.000,293.682 40.350,295.607 37.932,298.795 C 34.681,303.082 29.292,305.076 23.750,304.043 Z M 122.388,163.722 C 121.812,163.146 123.640,157.582 125.903,153.022 C 127.565,149.674 129.126,147.400 131.250,145.233 C 134.837,141.573 140.796,137.485 144.250,136.314 C 150.756,134.107 160.190,133.005 172.678,132.990 C 180.851,132.980 187.716,132.258 190.500,131.114 C 191.188,130.831 192.612,130.009 193.666,129.287 C 194.720,128.565 196.520,127.756 197.666,127.490 C 200.837,126.754 213.199,125.570 213.628,125.962 C 214.406,126.671 211.427,133.843 208.650,137.946 C 205.432,142.700 201.851,145.679 196.250,148.259 C 190.686,150.821 180.686,153.000 174.486,153.000 C 168.577,153.000 159.774,154.067 155.719,155.274 C 150.841,156.727 147.774,158.692 146.314,161.301 C 145.245,163.211 145.155,163.256 141.737,163.563 C 137.242,163.966 122.752,164.085 122.388,163.722 Z M 164.306,126.591 C 164.017,126.123 165.153,122.624 166.344,120.315 C 169.467,114.259 176.147,109.135 184.597,106.314 C 188.249,105.095 195.425,104.125 205.250,103.521 C 214.686,102.942 217.165,102.567 222.500,100.914 C 231.811,98.030 239.811,92.760 252.595,81.088 C 259.702,74.599 261.500,73.258 261.500,74.446 C 261.500,75.793 259.721,80.236 255.774,88.750 C 249.449,102.391 239.369,111.205 224.381,116.199 C 218.084,118.298 214.808,118.833 199.500,120.258 C 192.531,120.907 188.921,121.952 186.068,124.147 C 183.946,125.779 182.797,126.284 180.568,126.563 C 176.591,127.061 164.610,127.082 164.306,126.591 Z M 200.004,96.441 C 200.007,95.242 202.520,87.323 203.635,85.000 C 205.340,81.446 210.136,74.846 213.264,71.750 C 217.903,67.159 228.014,59.990 233.500,57.403 C 236.613,55.935 240.624,54.457 240.858,54.692 C 240.984,54.817 240.172,56.119 239.054,57.585 C 237.936,59.051 235.561,62.163 233.775,64.500 C 226.767,73.675 225.660,75.224 223.120,79.413 C 220.652,83.485 217.945,88.732 215.563,94.066 C 214.994,95.340 214.129,96.548 213.639,96.752 C 213.150,96.956 209.881,97.237 206.375,97.377 L 200.000,97.633 L 200.004,96.441 Z M 223.000,93.363 C 223.000,93.012 223.971,91.044 225.159,88.988 C 232.467,76.334 249.004,54.146 260.700,41.303 C 266.427,35.015 278.933,25.033 286.912,20.384 C 289.298,18.993 293.086,16.785 295.331,15.476 C 299.664,12.949 302.787,11.620 303.266,12.099 C 303.563,12.396 301.170,17.106 297.092,24.250 C 295.053,27.821 290.229,35.155 285.253,42.250 C 282.542,46.115 272.442,56.573 266.505,61.662 C 255.366,71.212 252.129,73.906 248.041,77.032 C 245.726,78.802 242.689,81.136 241.291,82.218 C 238.054,84.725 223.990,94.000 223.426,94.000 C 223.192,94.000 223.000,93.713 223.000,93.363 Z" fill="#000000" fill-rule="evenodd" /></svg>