<svg xmlns="http://www.w3.org/2000/svg" viewBox="0 0 438 442" width="438" height="442"><path d="M 200.250,424.000 L 189.250,423.750 L 188.922,401.250 C 188.742,388.875 188.517,363.337 188.422,344.500 L 188.250,310.250 L 190.157,310.093 C 194.436,309.740 204.832,316.271 209.284,322.108 L 211.188,324.606 L 211.556,334.178 C 211.758,339.443 212.050,352.750 212.206,363.750 C 212.361,374.750 212.639,392.771 212.822,403.796 C 213.146,423.251 213.128,423.849 212.203,424.046 C 211.679,424.158 206.300,424.137 200.250,424.000 Z M 220.159,423.194 C 219.989,422.751 219.994,414.595 220.170,405.069 C 220.346,395.544 220.729,373.808 221.022,356.767 C 221.621,321.999 221.370,324.062 225.487,320.080 C 230.009,315.708 236.730,311.772 241.907,310.465 C 244.182,309.891 244.628,309.897 245.006,310.510 C 245.249,310.903 245.351,314.718 245.232,318.987 C 245.114,323.257 244.787,343.512 244.506,364.000 C 244.225,384.488 243.883,406.039 243.747,411.893 C 243.611,417.746 243.500,422.865 243.500,423.268 C 243.500,423.890 241.764,424.000 231.984,424.000 C 221.855,424.000 220.431,423.903 220.159,423.194 Z M 69.000,333.037 C 58.392,329.535 25.094,315.142 19.389,311.593 C 18.097,310.790 17.367,309.874 16.999,308.593 C 15.608,303.763 13.477,277.463 13.458,264.880 C 13.446,256.733 13.690,256.221 19.594,252.000 C 30.615,244.121 30.498,244.152 30.504,249.109 C 30.507,250.837 30.738,254.838 31.018,258.000 C 31.298,261.163 31.739,266.788 31.998,270.500 C 32.476,277.369 33.041,283.150 34.138,292.430 L 34.750,297.610 L 39.250,299.482 C 43.556,301.274 45.799,302.288 54.759,306.497 C 56.963,307.533 60.676,309.174 63.009,310.145 C 65.341,311.116 69.162,312.795 71.500,313.875 C 73.838,314.956 78.225,316.795 81.250,317.962 C 84.275,319.130 87.256,320.286 87.875,320.531 C 89.239,321.074 89.316,321.796 88.080,322.457 C 87.575,322.728 86.219,324.170 85.067,325.663 C 81.959,329.692 76.231,334.507 74.590,334.470 C 73.853,334.454 71.338,333.809 69.000,333.037 Z M 135.529,325.790 C 132.112,321.164 125.824,309.115 124.472,304.604 C 123.958,302.889 123.972,302.385 124.551,301.680 C 125.498,300.525 132.194,297.429 138.538,295.212 C 154.802,289.530 165.637,286.112 171.000,284.972 C 171.963,284.768 174.887,284.123 177.500,283.539 C 190.065,280.730 206.738,277.388 211.078,276.807 C 215.988,276.151 220.503,276.448 228.625,277.964 C 230.206,278.259 232.681,278.709 234.125,278.965 C 239.034,279.834 250.242,282.012 252.250,282.487 C 262.164,284.832 265.938,285.797 270.250,287.090 C 273.000,287.914 276.683,289.011 278.435,289.526 C 281.911,290.549 284.986,291.604 291.500,294.006 C 293.837,294.868 297.302,296.142 299.198,296.836 C 304.086,298.627 308.195,300.985 308.695,302.286 C 308.848,302.685 308.774,303.515 308.531,304.131 C 308.287,304.746 307.571,306.600 306.940,308.250 C 305.030,313.244 296.409,328.000 295.402,328.000 C 295.147,328.000 293.125,326.429 290.907,324.510 C 278.705,313.948 260.202,304.703 246.848,302.495 C 237.783,300.996 230.180,304.397 220.986,314.067 C 219.191,315.955 217.306,317.500 216.799,317.500 C 216.292,317.500 213.798,315.513 211.258,313.085 C 203.290,305.467 196.907,302.000 190.856,302.000 C 181.933,302.002 166.019,307.829 154.759,315.219 C 152.554,316.666 147.768,320.235 144.123,323.151 L 137.495,328.451 L 135.529,325.790 Z M 90.982,316.276 C 90.579,315.878 87.775,314.446 84.750,313.093 C 81.725,311.741 76.888,309.510 74.000,308.136 C 71.112,306.762 67.062,304.906 65.000,304.011 C 62.938,303.116 60.062,301.848 58.610,301.192 C 57.158,300.536 55.882,300.000 55.774,300.000 C 55.666,300.000 53.254,298.910 50.414,297.577 C 47.574,296.245 44.392,294.844 43.343,294.465 C 42.295,294.086 41.237,293.536 40.994,293.243 C 40.517,292.668 38.415,274.521 37.549,263.500 C 36.963,256.047 36.607,241.704 37.000,241.373 C 37.777,240.718 41.974,238.000 42.208,238.000 C 42.361,238.000 44.346,236.909 46.618,235.576 C 48.891,234.243 53.064,231.825 55.891,230.201 C 58.719,228.578 62.769,226.225 64.891,224.972 C 67.014,223.719 70.213,221.895 72.000,220.918 C 77.564,217.878 85.103,213.437 88.633,211.120 C 90.494,209.898 92.343,209.025 92.743,209.178 C 93.143,209.332 93.599,210.086 93.756,210.854 C 94.277,213.403 96.117,218.709 97.535,221.750 C 99.202,225.325 105.119,235.267 106.446,236.722 C 106.961,237.288 107.729,238.425 108.151,239.250 C 109.171,241.240 116.745,250.383 120.920,254.664 C 124.995,258.842 130.000,261.691 130.000,259.833 C 130.000,259.118 124.311,251.233 122.004,248.750 C 119.017,245.535 109.207,230.343 106.028,224.007 C 105.543,223.041 104.481,221.012 103.669,219.500 C 101.498,215.459 99.189,209.643 98.489,206.452 C 97.942,203.957 97.973,203.506 98.779,202.276 C 99.276,201.518 100.498,200.383 101.495,199.753 C 103.919,198.223 109.877,195.865 110.440,196.213 C 110.687,196.366 111.034,197.069 111.212,197.776 C 112.017,200.983 121.736,219.417 124.511,223.000 C 125.257,223.963 126.010,225.200 126.185,225.750 C 126.487,226.702 133.994,237.057 138.250,242.394 C 139.350,243.773 141.037,245.359 142.000,245.918 C 142.963,246.477 144.639,247.849 145.726,248.967 C 147.657,250.953 149.000,251.559 149.000,250.445 C 149.000,249.355 145.922,244.173 142.500,239.500 C 136.606,231.452 131.723,224.366 130.278,221.766 C 129.519,220.400 128.283,218.375 127.532,217.266 C 126.237,215.356 121.596,206.037 118.004,198.135 C 116.534,194.901 116.389,194.180 116.621,191.282 C 116.850,188.439 117.158,187.659 119.148,184.897 C 121.525,181.597 124.914,178.186 132.000,171.962 C 144.310,161.150 155.447,152.599 156.429,153.206 C 156.646,153.340 157.138,154.417 157.523,155.600 C 158.641,159.039 162.495,162.535 167.000,164.198 C 169.062,164.960 171.307,165.851 171.989,166.179 C 174.025,167.160 176.785,171.310 180.681,179.250 C 186.535,191.179 187.341,192.985 188.942,197.750 C 189.774,200.225 190.937,203.600 191.528,205.250 C 193.272,210.127 196.687,223.403 197.723,229.333 C 198.140,231.725 198.693,233.893 198.952,234.152 C 199.553,234.753 202.329,232.828 202.743,231.523 C 203.260,229.893 202.080,220.961 200.725,216.250 C 200.013,213.775 199.247,211.075 199.022,210.250 C 197.199,203.563 189.905,183.813 188.774,182.500 C 188.418,182.088 187.211,179.776 186.091,177.363 C 184.970,174.950 183.584,172.378 183.009,171.648 C 182.097,170.488 182.057,170.229 182.691,169.595 C 183.325,168.961 183.752,168.999 186.083,169.894 C 187.550,170.457 190.196,171.321 191.964,171.815 C 193.731,172.308 195.756,173.246 196.464,173.898 C 197.171,174.550 201.125,177.724 205.250,180.952 C 212.006,186.237 212.911,187.130 214.375,189.953 C 215.791,192.684 216.000,193.576 216.000,196.889 C 216.000,198.979 215.725,202.020 215.390,203.646 C 214.786,206.568 214.794,206.612 216.092,207.558 C 218.378,209.223 220.684,213.383 221.028,216.463 C 221.451,220.245 220.784,226.370 219.703,228.637 C 219.003,230.105 218.086,230.868 215.351,232.257 C 213.444,233.226 211.375,234.419 210.752,234.909 C 210.129,235.399 207.399,236.773 204.685,237.962 C 201.971,239.152 198.378,240.769 196.702,241.556 C 195.026,242.343 192.213,243.534 190.452,244.204 C 188.691,244.873 186.004,245.977 184.481,246.657 C 179.017,249.097 159.723,255.000 157.210,255.000 C 156.801,255.000 155.991,255.805 155.411,256.788 C 154.831,257.772 153.633,259.066 152.750,259.663 C 147.914,262.936 143.924,266.276 141.315,269.235 C 139.700,271.066 137.475,273.135 136.370,273.832 C 134.293,275.143 115.007,294.298 101.203,308.760 C 96.877,313.292 92.972,317.000 92.526,317.000 C 92.080,317.000 91.385,316.674 90.982,316.276 Z M 348.750,305.811 C 347.375,305.163 345.769,304.096 345.180,303.441 C 342.798,300.788 336.932,291.870 337.327,291.502 C 337.559,291.285 340.113,290.522 343.000,289.806 C 347.650,288.654 354.738,286.654 369.750,282.261 C 372.225,281.536 377.062,280.056 380.500,278.971 C 383.938,277.887 387.538,276.753 388.500,276.452 C 394.938,274.436 396.053,273.856 396.968,272.047 C 398.110,269.788 399.110,265.356 400.703,255.500 C 403.613,237.485 404.990,227.338 404.996,223.875 C 404.999,221.886 405.153,221.500 405.939,221.500 C 406.455,221.500 407.159,221.840 407.504,222.255 C 407.849,222.670 409.732,224.224 411.690,225.708 C 416.463,229.326 420.886,233.634 421.508,235.271 C 422.349,237.482 420.935,251.590 417.728,273.000 C 415.571,287.393 413.625,290.335 404.627,292.800 C 403.045,293.233 399.275,294.262 396.250,295.086 C 388.473,297.206 388.497,297.199 380.750,299.470 C 368.758,302.985 357.191,305.997 353.000,306.697 C 351.740,306.907 350.551,306.660 348.750,305.811 Z M 331.626,285.125 C 330.266,283.544 326.371,278.764 322.970,274.504 C 316.274,266.117 301.192,248.018 292.551,238.000 C 289.586,234.562 286.150,230.512 284.916,229.000 C 283.682,227.488 281.903,225.456 280.961,224.485 C 280.020,223.513 277.927,221.095 276.311,219.111 C 274.694,217.126 272.557,215.007 271.561,214.402 C 267.991,212.233 266.030,210.334 265.147,208.190 C 264.278,206.080 264.088,205.947 259.000,203.907 C 254.266,202.009 245.016,197.509 243.750,196.489 C 243.475,196.268 241.151,194.998 238.587,193.668 C 229.960,189.195 227.265,187.744 224.098,185.868 C 222.365,184.840 220.812,184.000 220.648,184.000 C 220.056,184.000 209.157,176.472 206.485,174.218 C 199.938,168.694 200.170,169.043 199.801,164.145 C 199.530,160.537 199.651,159.123 200.476,156.250 C 201.512,152.639 201.680,152.424 206.727,148.204 L 209.174,146.159 L 208.619,142.806 C 207.357,135.194 210.497,127.785 216.203,124.909 C 217.329,124.341 218.360,123.776 218.495,123.652 C 218.629,123.528 218.759,121.334 218.784,118.775 C 218.834,113.514 219.384,111.732 221.958,108.502 C 224.517,105.291 226.069,104.034 227.500,104.014 C 228.188,104.004 229.481,103.550 230.375,103.005 C 231.853,102.104 232.000,101.793 232.000,99.560 C 232.000,98.210 232.476,95.563 233.057,93.678 C 234.322,89.575 237.403,86.159 241.090,84.772 C 243.375,83.912 243.511,83.917 246.840,84.989 C 252.473,86.803 260.000,91.986 260.000,94.049 C 260.000,95.265 258.056,98.351 256.252,100.000 C 253.943,102.110 247.381,110.021 246.490,111.769 C 246.027,112.677 245.080,113.944 244.386,114.585 C 241.329,117.405 229.532,138.808 224.865,150.000 C 222.484,155.710 217.523,169.261 217.173,171.009 C 216.701,173.370 219.361,176.763 220.926,175.796 C 221.165,175.648 221.967,173.777 222.708,171.639 C 226.707,160.092 229.424,153.601 234.320,143.889 C 241.474,129.697 246.490,121.527 254.204,111.500 C 259.282,104.900 265.930,97.300 266.809,97.091 C 268.023,96.801 273.017,100.583 279.323,106.569 C 282.743,109.816 286.150,113.209 286.895,114.111 C 287.640,115.012 291.288,119.150 295.000,123.306 C 308.828,138.784 310.500,141.185 310.500,145.557 C 310.500,147.673 310.063,149.020 308.179,152.707 C 303.194,162.464 288.375,182.936 278.959,193.076 C 274.025,198.388 272.770,200.318 273.318,201.746 C 273.750,202.872 274.232,202.706 277.556,200.288 C 288.146,192.582 304.631,172.654 313.035,157.400 C 314.444,154.843 315.857,152.481 316.174,152.152 C 316.764,151.540 318.807,152.836 325.375,157.988 C 327.715,159.823 328.000,160.253 328.000,161.935 C 328.000,164.164 324.805,171.006 320.904,177.132 C 314.748,186.800 303.941,199.740 296.229,206.678 C 292.459,210.069 290.116,213.316 290.883,214.083 C 291.816,215.016 297.387,211.982 302.260,207.887 C 313.279,198.628 326.631,182.052 330.763,172.500 C 332.719,167.979 333.042,167.684 334.817,168.810 C 337.297,170.383 346.048,177.024 351.250,181.280 C 354.000,183.530 357.972,186.581 360.077,188.060 C 362.182,189.540 367.477,193.450 371.845,196.750 C 376.212,200.050 381.990,204.325 384.684,206.250 C 391.506,211.123 397.615,215.942 398.410,217.077 C 398.947,217.843 398.976,218.902 398.558,222.392 C 398.271,224.789 397.790,229.225 397.488,232.250 C 396.326,243.898 393.225,261.887 391.631,266.221 C 390.599,269.031 392.880,268.047 374.750,273.502 C 360.991,277.642 356.458,279.061 352.750,280.386 C 349.620,281.506 345.022,282.880 340.750,283.975 C 337.748,284.744 335.405,286.006 335.147,286.993 C 335.002,287.547 334.707,288.000 334.491,288.000 C 334.275,288.000 332.986,286.706 331.626,285.125 Z M 198.739,271.401 C 198.248,270.123 199.431,247.936 200.028,247.216 C 200.337,246.844 201.076,246.387 201.670,246.201 C 204.228,245.401 209.476,242.752 212.250,240.861 C 213.900,239.736 217.395,237.760 220.018,236.470 C 224.010,234.504 225.437,234.065 228.795,233.768 C 231.879,233.495 232.930,233.568 233.345,234.082 C 233.701,234.523 233.947,240.950 234.067,253.000 L 234.250,271.250 L 233.000,271.183 C 232.312,271.146 230.062,270.702 228.000,270.195 C 225.115,269.486 222.462,269.284 216.500,269.320 C 208.977,269.364 206.758,269.696 200.131,271.764 C 199.373,272.001 198.924,271.884 198.739,271.401 Z M 225.429,227.762 C 225.256,227.589 225.445,226.390 225.851,225.099 C 226.903,221.745 226.821,215.112 225.687,211.960 C 224.823,209.558 224.819,209.369 225.621,208.782 C 226.432,208.190 237.740,207.000 242.560,207.000 C 245.736,207.000 249.768,208.307 251.577,209.923 C 253.711,211.830 253.801,215.295 251.805,218.702 C 249.594,222.474 246.704,223.738 234.419,226.305 C 225.742,228.118 225.779,228.112 225.429,227.762 Z M 221.330,202.625 C 220.941,201.990 220.742,191.592 221.111,191.223 C 221.302,191.032 222.181,191.484 223.064,192.227 C 223.948,192.971 226.481,194.473 228.694,195.566 C 230.906,196.658 233.399,197.967 234.233,198.473 C 235.068,198.980 236.581,199.833 237.597,200.369 L 239.443,201.344 L 231.347,202.180 C 222.216,203.123 221.649,203.148 221.330,202.625 Z M 189.055,164.722 C 187.298,164.046 183.698,162.915 181.055,162.208 C 174.457,160.443 168.015,158.063 166.423,156.802 C 162.193,153.451 161.879,146.966 165.780,143.541 C 168.252,141.370 168.678,141.382 184.750,144.065 C 193.102,145.459 198.167,146.543 198.718,147.053 C 199.003,147.317 198.782,147.931 198.156,148.618 C 197.589,149.241 196.899,150.200 196.622,150.750 C 195.640,152.705 194.500,159.001 194.500,162.474 C 194.500,165.805 194.438,165.999 193.375,165.976 C 192.756,165.962 190.812,165.398 189.055,164.722 Z M 199.500,141.541 C 198.812,141.336 192.287,140.222 185.000,139.067 C 164.890,135.878 166.457,136.243 164.681,134.329 C 161.327,130.713 162.204,124.534 166.472,121.709 L 168.532,120.346 L 175.641,120.667 C 182.291,120.967 188.971,121.697 197.250,123.028 C 199.175,123.337 202.150,123.708 203.861,123.853 C 207.842,124.188 208.554,124.948 206.818,127.010 C 205.119,129.029 203.000,135.837 203.000,139.276 C 203.000,141.780 202.909,141.997 201.875,141.957 C 201.256,141.933 200.188,141.746 199.500,141.541 Z M 210.215,119.518 C 209.645,119.287 205.483,118.607 200.965,118.006 C 196.447,117.406 192.075,116.725 191.250,116.493 C 190.425,116.261 187.162,115.822 184.000,115.517 C 173.028,114.459 170.627,113.990 169.282,112.646 C 167.976,111.339 167.160,107.887 167.684,105.881 C 168.187,103.956 169.831,101.680 171.800,100.183 L 173.685,98.750 L 181.218,98.798 C 185.360,98.825 191.113,99.122 194.000,99.459 C 206.641,100.934 212.874,101.820 217.375,102.779 C 218.786,103.080 218.813,104.062 217.446,105.298 C 215.202,107.325 213.000,113.479 213.000,117.721 C 213.000,118.784 212.712,119.503 212.209,119.697 C 211.774,119.863 211.380,119.986 211.334,119.968 C 211.288,119.951 210.784,119.748 210.215,119.518 Z M 222.000,98.167 C 221.037,98.063 217.550,97.534 214.250,96.992 C 210.950,96.449 203.525,95.554 197.750,95.003 C 191.975,94.451 186.358,93.903 185.268,93.783 C 182.744,93.507 182.000,92.466 182.000,89.211 C 182.000,87.108 182.310,86.153 183.625,84.201 C 186.560,79.845 186.952,79.744 200.750,79.791 C 212.231,79.831 215.994,80.127 226.410,81.807 C 233.092,82.885 233.494,83.131 231.362,84.839 C 229.301,86.490 227.659,90.139 226.116,96.500 C 225.664,98.360 225.266,98.521 222.000,98.167 Z M 228.420,75.754 C 227.869,75.202 222.615,74.511 213.240,73.755 C 207.793,73.317 203.175,72.858 202.978,72.736 C 202.781,72.615 202.466,70.318 202.277,67.633 C 202.089,64.947 201.639,61.850 201.278,60.750 C 200.917,59.650 200.358,57.636 200.036,56.274 C 199.227,52.855 196.365,48.301 192.846,44.832 L 189.887,41.914 L 190.486,38.832 C 191.253,34.885 193.315,29.605 194.716,28.000 C 195.316,27.312 196.569,25.724 197.499,24.471 C 201.965,18.454 210.449,14.630 218.343,15.076 C 221.139,15.234 222.621,15.655 225.648,17.151 C 234.216,21.385 239.321,27.435 241.793,36.281 C 243.362,41.895 243.336,42.150 241.017,43.986 C 237.917,46.441 234.326,52.111 232.760,57.022 C 231.795,60.051 231.267,63.164 230.900,68.000 C 230.619,71.713 230.308,75.031 230.210,75.375 C 230.034,75.992 228.899,76.232 228.420,75.754 Z" fill="#000000" fill-rule="evenodd" /></svg>