<svg width="351" height="330" viewBox="0 0 351 330" fill="none" xmlns="http://www.w3.org/2000/svg">
<path fill-rule="evenodd" clip-rule="evenodd" d="M113.295 328.563C113.041 328.082 112.457 326.226 111.998 324.438C111.538 322.65 110.951 320.374 110.692 319.38C110.434 318.386 110.222 316.884 110.222 316.044C110.222 314.177 107.804 298.721 106.686 293.438C106.423 292.2 105.883 289.051 105.484 286.438C105.086 283.825 104.521 280.338 104.229 278.688C103.69 275.644 103.041 271.322 102.238 265.438C101.994 263.65 101.318 259.488 100.736 256.188C99.6462 250.005 99.1622 246.907 98.2762 240.438C97.9932 238.376 97.2992 234.101 96.7332 230.938C96.1672 227.775 95.4852 223.613 95.2172 221.688C93.6422 210.37 93.5832 210.208 90.7362 209.442C85.9822 208.162 83.2222 203.555 83.2222 196.899C83.2222 191.854 84.0022 190.2 87.0072 188.871C89.4262 187.801 89.5152 187.533 88.7672 183.588C88.5172 182.268 88.0562 179.5 87.7442 177.438C87.2442 174.138 86.6282 170.371 84.6772 158.688C83.8622 153.807 83.0782 150.222 82.7082 149.688C82.1282 148.848 81.6412 145.875 81.4522 142.015C81.1752 136.359 80.2662 132.93 78.9072 132.413C78.2092 132.148 77.2822 130.913 76.5032 129.21C75.8062 127.685 75.0322 126.438 74.7842 126.438C73.6812 126.438 72.2222 130.969 72.2222 134.394C72.2222 137.58 72.3442 137.983 73.7222 139.361C75.5812 141.22 75.6812 142.438 73.9732 142.438C72.4552 142.438 68.9942 139.435 67.9932 137.248C67.1342 135.375 66.4412 131.261 66.6342 129.188C66.8832 126.509 68.2692 122.315 69.5102 120.49C71.0602 118.209 71.0492 117.128 69.4722 116.733C68.4042 116.465 68.2222 116.133 68.2222 114.453C68.2222 112.533 69.1282 108.465 70.1232 105.915C70.3962 105.215 72.8802 102.559 75.6422 100.012L80.6642 95.3812L84.3182 97.1292C89.7422 99.7232 91.6912 101.32 94.6162 105.565C97.3212 109.492 97.7052 110.819 97.0632 114.01C96.7572 115.531 96.8992 116.072 97.9262 117.293C99.6012 119.282 101.221 123.729 101.222 126.333C101.222 129.258 99.6792 132.107 97.5462 133.119C94.5272 134.552 94.0952 134.061 95.4722 130.765C96.4052 128.533 96.4082 126.475 95.4802 125.25C94.5742 124.053 93.2222 124.537 93.2222 126.058C93.2222 126.692 92.5182 128.064 91.6572 129.108C90.2882 130.77 90.1632 131.161 90.6572 132.246C90.9682 132.927 91.2232 135.218 91.2252 137.337C91.2262 139.455 91.4272 141.975 91.6702 142.938C91.9142 143.901 92.3702 147.388 92.6852 150.688C93.4152 158.353 94.1302 164.453 94.7072 167.938C94.9572 169.45 95.4262 172.713 95.7482 175.188C96.8872 183.948 97.4502 186.173 98.5712 186.339C99.6572 186.5 103.579 182.376 106.622 177.873C107.483 176.6 108.498 175.439 108.879 175.293C109.259 175.147 110.197 173.826 110.963 172.358C112.812 168.811 114.894 165.785 117.816 162.399C119.139 160.865 120.222 159.289 120.222 158.897C120.222 157.759 122.612 151.481 123.971 149.051C124.654 147.828 125.092 146.632 124.944 146.393C124.554 145.762 118.771 150.452 114.482 154.877C110.922 158.549 105.91 164.885 105.336 166.438C105.184 166.85 104.678 167.75 104.211 168.438C102.969 170.27 101.222 175.247 101.222 176.957C101.222 177.771 101.021 178.438 100.775 178.438C100.529 178.438 100.171 176.447 99.9782 174.014C99.5942 169.167 99.7752 168.616 103.863 162.14C108.393 154.966 117.565 146.029 122.597 143.886C124.23 143.19 124.754 142.438 123.605 142.438C123.266 142.438 121.635 143.086 119.98 143.878C118.326 144.67 114.305 146.594 111.046 148.154C107.787 149.715 103.737 151.51 102.046 152.145C100.355 152.779 98.5882 153.462 98.1182 153.663C97.4732 153.939 97.1872 153.722 96.9492 152.773C96.3982 150.579 96.8682 149.894 99.5822 148.94C101.018 148.436 103.155 147.579 104.332 147.036C105.509 146.494 108.16 145.271 110.222 144.319C112.284 143.366 114.759 142.288 115.722 141.923C116.685 141.557 119.383 140.23 121.719 138.973C124.054 137.716 126.417 136.457 126.969 136.175C128.123 135.586 128.644 133.437 127.632 133.441C127.269 133.442 126.185 133.658 125.222 133.921C124.259 134.183 121.784 134.51 119.722 134.646C117.66 134.783 115.072 135.11 113.972 135.372C112.872 135.634 110.509 136.208 108.722 136.647C102.152 138.26 101.159 138.438 98.7152 138.438C95.6762 138.438 95.2002 137.235 98.0552 136.771C100.639 136.352 103.222 133.754 103.222 131.574C103.222 130.422 103.493 129.823 104.097 129.636C105.831 129.1 106.472 128.559 106.472 127.632C106.472 126.767 107.08 126.657 113.722 126.319C124.072 125.792 130.625 124.963 131.521 124.068C132.902 122.686 132.13 121.731 128.968 120.911C127.32 120.484 125.634 119.996 125.222 119.827C124.49 119.526 123.853 119.377 119.222 118.419C117.984 118.163 113.728 117.619 109.763 117.212C105.798 116.804 102.38 116.294 102.167 116.079C101.954 115.864 101.911 114.715 102.072 113.527C102.34 111.538 102.461 111.389 103.576 111.669C104.243 111.837 106.292 112.186 108.13 112.446C111.655 112.945 112.625 113.145 120.222 114.942C122.835 115.56 125.872 116.239 126.972 116.451C128.072 116.663 129.756 117.083 130.714 117.386C132.325 117.894 132.566 117.824 133.934 116.457C135.306 115.084 135.342 114.957 134.442 114.668C132.936 114.185 131.644 113.539 129.472 112.185C127.423 110.907 124.368 109.438 123.759 109.438C123.572 109.438 122.305 108.898 120.945 108.238C114.4 105.064 107.74 102.631 101.065 100.976C94.7472 99.4092 92.9932 98.5812 92.4642 96.9142C91.9822 95.3932 92.4602 95.2002 94.4132 96.1262C96.6922 97.2082 100.722 97.7702 100.722 97.0062C100.722 96.6942 100.512 96.4382 100.255 96.4382C99.4092 96.4382 92.0392 90.3462 88.4342 86.6662C85.3902 83.5592 84.5882 83.0102 82.6842 82.7282C81.4672 82.5482 79.5722 82.1972 78.4722 81.9482C71.1622 80.2952 67.2142 79.4522 65.4722 79.1742C64.3722 78.9992 62.7972 78.5482 61.9722 78.1722C58.9892 76.8132 51.0532 74.4382 49.4962 74.4382C46.3732 74.4382 42.0472 79.5962 43.0272 82.1512C43.6112 83.6742 47.6582 85.2382 60.4722 88.8932C62.1222 89.3632 64.3232 90.1202 65.3622 90.5742C66.4022 91.0282 68.8152 91.9152 70.7262 92.5442C72.6372 93.1732 74.2052 93.8752 74.2112 94.1032C74.2172 94.3322 73.3332 94.8682 72.2472 95.2942C70.7012 95.9022 70.1992 96.4082 69.9342 97.6292C69.7472 98.4862 69.3952 99.7192 69.1502 100.367C68.4112 102.328 67.2222 100.794 67.2222 97.8792C67.2222 95.4932 67.1782 95.4242 65.0972 94.5092C61.0352 92.7232 55.9592 90.9172 53.7222 90.4612C50.6452 89.8342 48.3832 89.2092 45.7222 88.2502C43.0292 87.2802 16.7702 84.7162 15.5952 85.3092C15.3882 85.4132 17.3012 87.7942 19.8452 90.5982C22.3902 93.4022 25.1542 96.4822 25.9872 97.4422C26.8212 98.4022 28.2832 99.7992 29.2372 100.546C30.1912 101.293 32.3222 103.146 33.9722 104.663C35.6672 106.221 37.4452 107.425 38.0592 107.43C39.1232 107.438 40.1042 107.255 47.7222 105.627C52.9192 104.516 65.7512 103.888 66.6412 104.701C67.1852 105.197 67.1912 105.501 66.6772 106.324C66.0202 107.376 66.2132 107.341 51.9722 108.981C46.2992 109.635 43.2222 110.4 43.2222 111.159C43.2222 112.152 49.7962 116.438 51.3192 116.438C51.5542 116.438 52.8962 117.229 54.3012 118.195C55.7062 119.162 57.4442 120.081 58.1642 120.239C58.8832 120.397 60.3722 120.809 61.4722 121.157L63.4722 121.788L63.2972 125.238C63.2012 127.135 63.0702 128.744 63.0062 128.812C62.8672 128.962 56.8792 126.554 55.4722 125.782C54.9222 125.48 52.7842 124.379 50.7222 123.335C46.7362 121.317 46.5642 121.216 42.1362 118.313C40.5642 117.282 39.0672 116.438 38.8112 116.438C38.5542 116.438 38.0362 116.066 37.6582 115.611C37.2812 115.155 35.5092 113.691 33.7222 112.357C27.0382 107.368 17.2862 97.8042 11.5152 90.5792C3.18819 80.1532 0.0561895 73.3822 0.00318952 65.6882C-0.0248105 61.6162 0.10719 60.9592 1.39119 58.7742C2.94619 56.1282 5.82319 54.0192 9.28819 52.9852C10.4892 52.6272 11.9892 52.1322 12.6212 51.8862C14.1222 51.3002 30.4762 51.3062 33.5722 51.8932C34.8922 52.1432 37.6602 52.6092 39.7222 52.9282C41.7842 53.2472 44.2592 53.7082 45.2222 53.9532C46.1852 54.1982 48.3222 54.7272 49.9722 55.1292C54.6772 56.2772 60.6352 58.2092 64.6662 59.8942C66.6972 60.7432 68.5442 61.4382 68.7682 61.4382C69.1432 61.4382 77.1992 64.7932 81.9722 66.9362C85.8502 68.6782 87.8522 69.4382 88.5602 69.4382C88.9552 69.4382 90.5582 70.3062 92.1242 71.3672C93.6912 72.4282 96.6602 74.1942 98.7222 75.2922C103.621 77.9012 107.033 79.8222 109.337 81.2672C110.363 81.9112 111.331 82.4382 111.489 82.4382C111.648 82.4382 113.102 83.3382 114.722 84.4382C116.342 85.5382 117.788 86.4382 117.937 86.4382C118.266 86.4382 142.418 102.554 144.365 104.073C145.515 104.97 145.908 105.053 146.615 104.546C147.086 104.208 148.167 103.571 149.017 103.131C150.438 102.393 150.689 102.395 152.154 103.153L153.746 103.976L153.416 107.196C153.097 110.311 153.786 114.538 154.796 115.663C155.03 115.924 155.222 116.543 155.222 117.038C155.222 118.361 158.816 121.728 161.574 122.988C164.587 124.364 167.937 124.803 168.499 123.895C169.135 122.865 168.769 119.579 167.662 116.378C167.105 114.769 166.787 113.022 166.954 112.495C167.335 111.296 169.306 111.098 177.472 111.438L183.472 111.688L183.373 113.852C183.319 115.042 182.813 116.799 182.248 117.755C181.206 119.523 180.823 123.632 181.653 124.146C182.769 124.835 188.104 123.286 190.722 121.512C194.655 118.847 196.213 115.524 196.582 109.01C196.732 106.358 197.078 103.907 197.35 103.563C198.072 102.65 199.759 102.804 201.472 103.938C202.297 104.484 203.23 104.933 203.546 104.935C204.065 104.938 209.575 101.268 221.049 93.2772C223.292 91.7162 225.256 90.4382 225.414 90.4382C225.572 90.4382 226.888 89.5392 228.337 88.4402C229.786 87.3412 232.097 85.9032 233.472 85.2442C234.847 84.5852 237.473 83.0652 239.308 81.8672C244.677 78.3612 249.871 75.4222 258.472 71.0212C262.301 69.0622 271.16 64.9382 271.54 64.9382C271.699 64.9382 273.211 64.2802 274.901 63.4762C276.59 62.6722 278.647 61.8672 279.472 61.6872C280.297 61.5072 281.422 61.1612 281.972 60.9172C283.863 60.0792 296.976 55.8232 300.722 54.8312C309.339 52.5502 318.102 51.3992 327.222 51.3512C338.319 51.2922 343.035 52.3262 346.807 55.6462C351.282 59.5852 351.594 68.3862 347.561 76.9382C346.416 79.3672 342.997 84.7192 341.014 87.1882C333.98 95.9432 321.848 108.332 315.295 113.452C307.19 119.784 290.185 127.889 280.722 129.931C279.21 130.258 277.158 130.73 276.164 130.981C275.17 131.233 273.215 131.438 271.822 131.438C270.428 131.438 268.686 131.667 267.95 131.946C267.215 132.226 262.926 132.478 258.418 132.507C253.91 132.536 250.222 132.735 250.222 132.95C250.222 133.437 253.023 134.438 254.386 134.438C254.944 134.438 256.092 134.654 256.937 134.918C266.376 137.871 274.663 140.558 275.472 140.929C276.022 141.181 277.484 141.721 278.722 142.127C283.482 143.692 294.096 148.573 296.722 150.404C298.234 151.459 300.548 152.922 301.863 153.655C303.178 154.388 305.907 156.566 307.929 158.495C312.129 162.502 314.568 166.718 315.05 170.802C315.338 173.241 315.233 173.599 313.477 176.148C310.6 180.325 302.709 184.943 294.995 186.963C287.766 188.857 271.951 189.31 262.972 187.88C256.887 186.912 248.438 184.542 243.082 182.302C241.767 181.752 240.557 181.437 240.391 181.602C240.226 181.767 240.544 183.091 241.098 184.545C242.259 187.592 242.952 190.06 243.736 193.938C244.042 195.45 244.529 197.363 244.818 198.188C245.107 199.013 245.559 200.813 245.824 202.188C246.088 203.563 246.758 206.087 247.312 207.796C248.136 210.336 248.272 211.752 248.059 215.546C247.563 224.37 246.419 228.373 243.516 231.438C242.605 232.4 241.445 233.916 240.938 234.805C240.431 235.694 239.306 236.759 238.438 237.171C237.57 237.583 236.576 238.261 236.23 238.679C235.585 239.456 233.722 239.74 233.722 239.061C233.722 238.194 235.716 231.803 236.438 230.355C238.165 226.895 237.126 216.938 235.038 216.938C234.325 216.938 233.222 220.04 233.222 222.044C233.222 225.672 230.05 227.903 228.798 225.155C228.047 223.508 228.508 214.098 229.408 212.693C229.762 212.14 230.351 209.046 230.718 205.817C231.378 199.997 231.373 199.925 230.197 197.567C229.545 196.259 228.388 194.255 227.628 193.114C226.867 191.974 225.528 189.724 224.652 188.114C223.776 186.505 222.23 183.95 221.217 182.438C219.29 179.561 216.222 173.448 216.222 172.485C216.222 172.177 216.026 171.534 215.787 171.056C215.547 170.579 214.479 168.394 213.412 166.202C212.345 164.01 210.79 161.31 209.956 160.202C209.122 159.094 207.885 156.901 207.206 155.327C205.904 152.308 204.867 151.38 204.408 152.821C204.256 153.298 203.93 154.138 203.685 154.688C203.133 155.925 201.895 161.507 201.122 166.247C200.23 171.719 201.287 181.23 203.312 185.946C204.313 188.278 205.427 191.499 207.72 198.688C211.064 209.176 211.816 211.64 212.297 213.688C212.556 214.788 212.987 216.588 213.255 217.688C213.523 218.788 213.958 221.038 214.222 222.688C214.486 224.338 214.941 226.7 215.233 227.938C216.847 234.766 217.111 252.358 215.64 255.132C213.176 259.781 211.837 262.039 210.029 264.594C208.897 266.193 206.734 269.369 205.222 271.652C203.71 273.934 201.741 276.83 200.847 278.085C198.934 280.772 198.782 282.678 200.172 286.544C200.695 287.998 201.266 289.863 201.441 290.688C201.805 292.407 203.945 299.606 205.082 302.938C207.675 310.533 208.323 312.175 209.222 313.438C209.772 314.21 210.223 315.033 210.224 315.265C210.225 315.498 211.075 317.376 212.113 319.438C214.354 323.892 215.396 326.915 215.143 328.23C214.974 329.112 214.4 329.199 207.911 329.326L200.862 329.465L198.242 327.701C196.801 326.731 195.445 325.938 195.229 325.938C194.51 325.938 193.381 323.712 193.074 321.688C192.796 319.855 191.33 313.198 190.266 308.938C189.655 306.487 187.676 297.097 187.258 294.663C187.067 293.549 186.306 291.423 185.566 289.94C184.827 288.456 184.216 286.892 184.21 286.465C184.203 286.038 183.76 284.381 183.226 282.784C182.319 280.074 182.306 279.722 183.03 277.534C183.457 276.244 184.076 274.963 184.406 274.688C185.049 274.151 185.811 271.839 186.795 267.438C187.133 265.926 187.564 264.463 187.752 264.188C187.939 263.913 188.379 262.45 188.728 260.938C189.078 259.426 189.761 256.95 190.246 255.438C192.122 249.59 192.17 249.859 187.547 240.346C180.578 226.007 178.222 220.923 178.222 220.22C178.222 218.306 175.314 215.013 174.22 215.689C173.945 215.859 173.243 217.054 172.66 218.343C172.078 219.633 170.616 222.749 169.411 225.269C168.207 227.788 167.222 230.107 167.222 230.421C167.222 230.736 166.561 232.275 165.753 233.841C164.946 235.407 162.913 239.471 161.237 242.872L158.19 249.057L159.505 252.622C160.229 254.583 161.225 257.876 161.719 259.938C162.968 265.157 163.989 268.502 166.221 274.688C167.477 278.169 167.728 279.972 167.234 281.969C166.24 285.987 165.18 289.757 164.782 290.688C164.264 291.902 162.534 297.846 161.8 300.938C161.506 302.176 160.894 304.763 160.44 306.688C159.985 308.613 159.328 310.976 158.979 311.938C158.629 312.9 158.08 315.69 157.758 318.136C157.059 323.445 156.513 324.602 153.544 327.063L151.282 328.938L144.877 328.888C136.499 328.823 135.94 328.655 136.085 326.256C136.24 323.688 137.45 320.321 139.432 316.938C140.352 315.368 141.613 312.645 142.234 310.886C142.855 309.127 144.006 306.276 144.792 304.55C145.579 302.825 146.222 301.125 146.222 300.774C146.222 300.422 147.031 297.784 148.02 294.911C149.008 292.038 149.916 289.013 150.037 288.188C150.158 287.363 150.485 285.399 150.763 283.824L151.268 280.961L148.62 277.143C143.543 269.824 136.731 259.364 135.449 256.918C133.999 254.153 133.385 247.867 133.782 239.856C133.978 235.914 134.365 231.676 134.642 230.438C134.919 229.2 135.401 226.5 135.714 224.438C136.636 218.356 137.299 215.443 138.802 210.864C139.583 208.486 140.221 206.236 140.219 205.864C140.217 205.163 142.671 197.056 144.209 192.688C145.091 190.181 146.579 185.426 147.652 181.688C149.307 175.919 149.001 165.11 147.022 159.438C146.59 158.2 146.223 156.738 146.207 156.188C146.19 155.638 145.886 154.513 145.53 153.688L144.882 152.188L143.552 154.796C142.821 156.231 142.222 157.722 142.222 158.11C142.222 158.498 141.881 159.099 141.464 159.445C141.047 159.791 139.343 162.847 137.678 166.238C133.965 173.796 130.263 178.545 124.467 183.185C123.095 184.284 120.734 186.346 119.222 187.768C117.71 189.19 114.335 192.322 111.722 194.729C106.641 199.408 106.456 199.663 105.972 202.62C105.752 203.964 104.957 205.299 103.361 207.005L101.067 209.457L101.634 212.073C102.189 214.636 102.3 215.338 103.194 221.938C103.437 223.726 103.898 226.876 104.22 228.938C104.542 231 104.903 233.476 105.021 234.438C105.139 235.4 105.462 237.65 105.737 239.438C106.359 243.464 107.667 252.6 108.245 256.938C108.482 258.726 108.917 261.763 109.211 263.688C109.505 265.613 109.968 269.202 110.24 271.663C110.512 274.124 111.072 278.286 111.485 280.913C112.509 287.436 113.073 291.385 113.739 296.688C114.049 299.163 114.505 302.2 114.753 303.438C115 304.676 115.556 308.163 115.99 311.188C118.1 325.918 118.065 327.444 115.582 328.683C113.721 329.611 113.852 329.618 113.295 328.563ZM281.087 182.094C281.196 181.768 280.314 180.539 279.128 179.364C277.942 178.189 276.119 176.098 275.077 174.716C271.835 170.418 264.963 163.708 260.653 160.633C258.384 159.013 255.502 156.781 254.249 155.672C252.997 154.563 251.072 153.352 249.972 152.981C248.215 152.388 244.692 150.804 234.836 146.176C229.049 143.458 229.376 144.673 236.37 151.874C245.527 161.301 249.096 166.346 252.769 175.05C254.569 179.314 255.11 180.147 256.427 180.675C258.579 181.538 271.578 182.688 279.181 182.688C280.12 182.688 280.978 182.421 281.087 182.094ZM290.722 181.72C295.259 180.852 295.447 180.788 300.472 178.386C307.566 174.995 308.795 173.192 304.882 171.916C303.832 171.573 301.172 170.444 298.972 169.407C296.772 168.37 293.397 167.044 291.472 166.461C289.547 165.878 287.072 164.972 285.972 164.447C284.146 163.576 279.673 162.075 275.222 160.84C274.26 160.572 272.518 159.923 271.352 159.396C270.187 158.869 269.002 158.438 268.721 158.438C268.439 158.438 267.818 158.235 267.34 157.987C265.736 157.153 262.22 156.273 261.875 156.619C261.686 156.807 262.067 157.336 262.721 157.794C265.97 160.069 276.854 170.908 278.014 173.023C278.942 174.715 285.803 182.438 286.378 182.438C286.704 182.438 288.66 182.115 290.722 181.72ZM249.969 177.563C249.771 177.082 249.485 176.238 249.333 175.688C248.913 174.162 245.62 168.887 241.175 162.622C236.174 155.573 226.222 145.955 226.222 148.172C226.222 148.301 227.122 150.248 228.222 152.499C229.322 154.75 230.222 157.016 230.222 157.535C230.222 158.704 231.788 161.823 234.19 165.438C235.194 166.95 236.794 169.497 237.744 171.098C238.851 172.961 240.011 174.238 240.972 174.647C241.797 174.999 244.047 175.974 245.972 176.814C250.156 178.641 250.434 178.693 249.969 177.563ZM308.222 168.374C308.222 166.961 302.65 160.438 301.443 160.438C301.107 160.438 298.819 159.117 296.36 157.502C293.9 155.887 289.882 153.621 287.43 152.467C281.732 149.786 281.228 149.57 279.722 149.163C279.034 148.978 276.897 148.091 274.972 147.191C273.047 146.292 270.46 145.391 269.222 145.187C267.984 144.984 266.072 144.36 264.972 143.799C263.872 143.239 260.609 142.165 257.722 141.411C254.835 140.658 251.122 139.58 249.472 139.016C247.822 138.451 245.347 137.763 243.972 137.487C242.597 137.211 240.572 136.76 239.472 136.486C235.564 135.511 232.423 134.901 228.722 134.397C226.66 134.116 224.578 133.77 224.097 133.629C222.621 133.193 223.057 135.211 224.747 136.632C225.586 137.338 228.68 139.121 231.622 140.594C234.565 142.067 237.422 143.509 237.972 143.797C239.502 144.599 241.25 145.26 243.722 145.971C244.96 146.327 246.197 146.767 246.472 146.949C247.94 147.92 260.37 152.424 265.722 153.924C266.96 154.271 269.097 154.952 270.472 155.438C271.847 155.924 273.984 156.598 275.222 156.936C276.46 157.275 277.922 157.73 278.472 157.949C279.022 158.167 280.597 158.625 281.972 158.968C283.347 159.31 285.372 160.029 286.472 160.565C287.572 161.101 289.147 161.722 289.972 161.944C291.42 162.336 298.54 165.402 304.222 168.082C307.615 169.682 308.222 169.726 308.222 168.374ZM229.722 144.701C229.722 143.963 226.842 142.152 226.389 142.605C226.01 142.983 228.327 145.438 229.062 145.438C229.425 145.438 229.722 145.106 229.722 144.701ZM267.097 125.863C269.366 125.546 271.222 125.151 271.222 124.985C271.222 124.634 265.719 122.438 264.841 122.438C264.515 122.438 263.286 122.008 262.11 121.484C259.425 120.285 256.98 119.658 252.222 118.949C250.16 118.641 247.386 118.176 246.059 117.914C241.697 117.054 239.18 117.26 227.722 119.419C222.299 120.441 221.683 120.596 221.43 121.005C221.283 121.243 220.711 121.438 220.158 121.438C218.71 121.438 219.12 123.326 220.846 124.609C222.111 125.551 223.192 125.656 234.596 125.948C255.454 126.483 262.8 126.463 267.097 125.863ZM279.437 123.954C280.281 123.688 283.222 122.774 285.972 121.924C288.722 121.073 291.984 119.833 293.222 119.168C294.46 118.503 297.272 117.092 299.472 116.031C301.672 114.971 304.147 113.542 304.972 112.856C305.797 112.17 306.903 111.45 307.431 111.257C309.316 110.565 307.385 109.926 301.192 109.19C297.771 108.783 293.721 108.223 292.192 107.944C285.398 106.707 276.571 107.497 264.472 110.426C262.272 110.959 258.335 111.867 255.722 112.443C248.562 114.024 248.145 114.148 248.17 114.688C248.183 114.963 249.269 115.326 250.583 115.495C257.727 116.413 261.129 117.116 262.495 117.957C263.333 118.472 264.993 119.049 266.185 119.24C267.376 119.431 269.676 120.228 271.295 121.012C272.913 121.796 274.424 122.438 274.652 122.438C274.88 122.438 275.474 122.888 275.972 123.438C277.003 124.578 277.312 124.624 279.437 123.954ZM227.472 115.42C229.672 114.913 232.71 114.231 234.222 113.906C235.734 113.58 237.534 113.141 238.222 112.929C238.91 112.718 240.822 112.264 242.472 111.921C244.122 111.578 246.71 110.912 248.222 110.441C249.734 109.97 252.21 109.306 253.722 108.966C257.145 108.195 258.917 107.77 263.972 106.505C269.398 105.147 271.871 104.599 275.852 103.871C279.493 103.205 280.227 102.519 281.639 98.4642C282.756 95.2562 281.469 95.1112 270.722 97.2372C268.66 97.6452 264.497 98.3342 261.472 98.7672C258.447 99.2012 254.873 99.9802 253.53 100.497C252.187 101.015 250.342 101.438 249.429 101.438C248.516 101.438 247.252 101.641 246.621 101.888C245.989 102.136 244.347 102.682 242.972 103.102C238.919 104.338 233.157 106.44 230.472 107.661C229.097 108.287 227.41 108.971 226.722 109.182C226.034 109.393 223.593 110.437 221.297 111.502C219.001 112.567 216.92 113.438 216.672 113.438C215.84 113.438 216.212 114.781 217.399 116.062C218.709 117.475 218.513 117.487 227.472 115.42ZM139.255 110.42C139.787 110.136 140.222 109.594 140.222 109.217C140.222 108.268 136.211 105.001 131.455 102.075C127.655 99.7382 125.82 98.5742 118.053 93.5732C114.513 91.2942 112.894 90.3412 108.222 87.7882C106.71 86.9622 104.91 85.9002 104.222 85.4282C103.534 84.9572 100.722 83.3782 97.9722 81.9192C95.2222 80.4612 91.6912 78.4052 90.1242 77.3532C88.5582 76.3002 87.0362 75.4382 86.7432 75.4382C86.1322 75.4382 84.3632 74.4992 83.1472 73.5302C82.6452 73.1312 82.2042 73.0632 82.0222 73.3572C81.0112 74.9922 96.1902 90.4722 103.47 95.2302C104.276 95.7572 105.427 96.6422 106.027 97.1982C106.628 97.7532 108.436 98.6862 110.045 99.2702C113.189 100.413 121.913 104.137 123.34 104.946C123.818 105.216 124.542 105.438 124.95 105.438C125.358 105.438 126.43 105.845 127.332 106.343C128.234 106.841 130.322 107.778 131.972 108.425C133.622 109.072 135.197 109.765 135.472 109.966C135.747 110.166 136.422 110.441 136.972 110.576C137.522 110.711 138.043 110.848 138.13 110.88C138.217 110.912 138.723 110.705 139.255 110.42ZM217.535 108.671C221.921 106.779 222.273 106.626 224.842 105.488C226.145 104.91 227.495 104.437 227.842 104.436C228.188 104.435 229.209 103.985 230.109 103.436C231.009 102.887 232.039 102.438 232.398 102.438C233.057 102.438 237.71 100.637 241.58 98.8842C242.739 98.3592 245.101 96.9392 246.83 95.7292C250.273 93.3182 260.895 84.2912 263.753 81.3462C265.881 79.1542 270.44 72.4902 270.068 72.1172C269.832 71.8812 266.89 73.3652 264.08 75.1352C263.471 75.5202 262.41 75.9952 261.722 76.1912C261.034 76.3882 259.781 77.2042 258.936 78.0052C258.092 78.8062 256.887 79.5602 256.26 79.6812C255.633 79.8012 253.961 80.5512 252.546 81.3472C251.13 82.1432 248.397 83.6542 246.472 84.7052C239.824 88.3352 225.976 96.7652 223.222 98.8582C222.26 99.5902 220.656 100.638 219.659 101.188C216.406 102.983 211.732 106.67 211.727 107.447C211.723 108.004 213.699 109.748 214.535 109.925C214.569 109.932 215.919 109.368 217.535 108.671ZM313.537 106.795C315.062 105.926 322.298 99.2952 326.203 95.1882C332.38 88.6932 334.722 86.0932 334.722 85.7312C334.722 85.3002 316.512 85.6992 315.79 86.1462C315.514 86.3172 313.304 86.4872 310.88 86.5242C308.456 86.5622 306.135 86.7562 305.722 86.9572C304.972 87.3212 303.213 88.0512 301.097 88.8772C300.478 89.1182 298.734 89.5972 297.222 89.9412C295.71 90.2852 294.247 90.7162 293.972 90.8982C293.697 91.0802 292.572 91.5162 291.472 91.8672C286.488 93.4552 285.222 94.4882 285.222 96.9682C285.222 98.0002 284.732 99.7622 284.133 100.885C283.533 102.007 283.15 103.033 283.281 103.164C283.412 103.295 287.333 103.749 291.996 104.173C301.754 105.062 305.562 105.62 308.722 106.624C311.556 107.525 312.216 107.548 313.537 106.795ZM254.59 96.8712C255.9 96.5592 257.422 96.1362 257.972 95.9292C259.192 95.4722 266.918 94.4382 269.118 94.4382C269.994 94.4382 271.895 93.9792 273.342 93.4192C274.788 92.8592 277.66 92.1962 279.722 91.9462C281.784 91.6962 284.417 91.0292 285.573 90.4652C286.728 89.9002 288.09 89.4382 288.598 89.4382C289.106 89.4382 289.736 89.2482 289.997 89.0162C290.65 88.4352 295.217 86.7322 299.722 85.3902C304.627 83.9272 307.204 82.6232 307.3 81.5532C307.488 79.4552 307.04 78.0482 305.559 76.0842C303.759 73.6972 303.008 73.2552 301.811 73.8772C301.349 74.1172 298.835 74.8222 296.222 75.4452C293.609 76.0682 289.897 77.1232 287.972 77.7912C286.047 78.4582 283.46 79.2022 282.222 79.4442C276.608 80.5422 274.698 81.0182 270.728 82.3092C267.023 83.5132 266.039 84.1012 262.978 86.9402C259.248 90.4002 255.506 93.5142 252.847 95.3712C251.257 96.4822 250.733 97.4382 251.715 97.4382C251.986 97.4382 253.28 97.1832 254.59 96.8712ZM36.8472 82.6682L40.2222 82.3372V80.3212C40.2222 78.0822 41.5732 75.5212 43.5932 73.9322C44.4162 73.2852 44.7192 72.7352 44.4182 72.4342C44.1562 72.1722 42.0362 71.3012 39.7072 70.4972C36.0472 69.2352 31.8932 67.5912 24.7222 64.5682C20.6842 62.8662 17.3142 61.1542 14.8692 59.5642C12.3032 57.8942 12.2422 57.8812 10.5662 58.6772C9.63019 59.1212 8.24619 60.1312 7.48919 60.9212C6.18219 62.2842 6.12219 62.5552 6.30919 66.2732C6.47119 69.5092 6.82819 70.8682 8.36419 74.1082C9.38619 76.2632 10.2222 78.1412 10.2222 78.2802C10.2222 78.4202 10.6652 79.1552 11.2062 79.9152C12.3172 81.4762 13.9792 81.7912 24.1292 82.3672C27.2412 82.5442 30.6162 82.7582 31.6292 82.8442C32.6432 82.9302 34.9912 82.8512 36.8472 82.6682ZM336.529 81.5412C338.4 80.5402 340.748 76.7832 343.119 70.9962C345.101 66.1592 344.275 61.3702 341.127 59.4512C339.062 58.1922 337.507 58.1702 335.799 59.3752C333.897 60.7182 324.422 65.2202 321.472 66.1832C320.097 66.6322 317.847 67.5182 316.472 68.1512C315.097 68.7842 312.341 69.8212 310.347 70.4552C308.353 71.0882 306.722 71.7872 306.722 72.0082C306.722 72.2282 307.448 73.4392 308.335 74.6982C309.475 76.3152 310.026 77.7502 310.21 79.5872L310.472 82.1882L314.722 82.4382C320.523 82.7792 335.356 82.1692 336.529 81.5412ZM274.15 77.7322C274.404 77.5762 276.267 77.1042 278.291 76.6852C280.316 76.2662 283.772 75.3882 285.972 74.7352C290.769 73.3102 296.55 71.7172 299.972 70.8772C301.347 70.5392 302.959 69.7492 303.554 69.1212C304.15 68.4932 305.275 67.8392 306.054 67.6692C306.834 67.4992 307.922 67.1742 308.472 66.9462C309.022 66.7192 311.16 66.0292 313.222 65.4132C315.284 64.7982 318.124 63.6512 319.533 62.8662C320.941 62.0812 322.538 61.4382 323.081 61.4382C323.624 61.4382 324.722 61.1222 325.52 60.7362C326.319 60.3502 328.041 59.5572 329.347 58.9732C333.309 57.2052 332.421 56.8022 325.347 57.1602C317.964 57.5332 313.749 58.0832 307.472 59.4892C299.893 61.1872 296.058 62.3762 287.472 65.6942C285.547 66.4382 282.734 67.4482 281.222 67.9392C279.71 68.4292 277.844 69.1202 277.077 69.4732C275.52 70.1922 271.458 75.5752 270.951 77.5922C270.637 78.8462 270.683 78.8792 272.157 78.4572C273 78.2152 273.897 77.8892 274.15 77.7322ZM80.4542 77.3132C79.6552 74.6362 77.5962 71.9062 75.4072 70.6242C69.2592 67.0212 44.5842 59.6652 32.9722 57.9742C28.0392 57.2552 19.0932 57.0742 18.8882 57.6892C18.7972 57.9642 21.0282 59.0762 23.8472 60.1602C26.6662 61.2442 29.7562 62.5372 30.7152 63.0342C31.6732 63.5312 32.6442 63.9382 32.8722 63.9382C33.1002 63.9382 34.4532 64.4672 35.8792 65.1142C37.3052 65.7612 39.9572 66.7812 41.7732 67.3812C43.5882 67.9802 45.9422 68.9132 47.0042 69.4542C48.0652 69.9952 49.3772 70.4382 49.9202 70.4382C50.4622 70.4382 51.8212 70.8562 52.9392 71.3672C54.0572 71.8772 55.9852 72.5662 57.2222 72.8982C58.4592 73.2292 60.4852 73.8502 61.7222 74.2772C62.9592 74.7052 65.0972 75.2572 66.4722 75.5052C70.1632 76.1702 75.8272 77.4962 76.9722 77.9632C77.5222 78.1872 78.6062 78.3862 79.3812 78.4042C80.6132 78.4342 80.7472 78.2972 80.4542 77.3132ZM59.4722 187.711C54.0802 186.618 50.5542 185.401 45.3292 182.831C33.9982 177.257 32.5612 171.122 40.2592 161.188C41.3242 159.813 42.9332 157.992 43.8342 157.141C47.8902 153.31 60.8802 145.896 66.5022 144.204C68.2592 143.675 68.8642 143.695 70.2832 144.327C71.2122 144.741 72.8722 145.217 73.9722 145.384C76.1112 145.709 76.7882 147.036 74.9722 147.344C71.5132 147.93 59.7362 153.286 56.0432 155.954C54.9042 156.777 52.6222 158.384 50.9722 159.526C45.4562 163.343 42.2222 166.733 42.2222 168.7C42.2222 169.757 42.9102 169.628 46.1252 167.967C51.5942 165.141 57.6302 162.438 58.4712 162.438C58.9362 162.438 59.9152 162.02 60.6452 161.509C62.3212 160.335 67.4062 158.437 68.8662 158.441C69.8592 158.443 76.1992 156.19 79.1072 154.8C80.5682 154.102 81.3582 154.835 81.1362 156.681C81.0012 157.807 80.5792 158.172 78.7222 158.766C77.4852 159.163 76.0222 159.677 75.4722 159.908C74.9222 160.14 73.3472 160.679 71.9722 161.106C70.5972 161.533 67.1102 162.863 64.2222 164.062C61.3342 165.26 58.0722 166.53 56.9722 166.884C53.1772 168.104 43.4722 173.169 43.4722 173.929C43.4722 176.313 56.6972 181.861 62.5072 181.915L65.0432 181.938L67.7572 178.573C69.2502 176.723 71.1652 174.246 72.0122 173.07C74.2432 169.971 81.7542 162.399 82.2772 162.722C82.5222 162.873 82.7222 163.723 82.7222 164.611C82.7222 165.89 82.1972 166.741 80.1942 168.707C78.8042 170.071 76.9132 172.313 75.9932 173.688C75.0722 175.063 73.3972 177.182 72.2712 178.396C71.1442 179.611 70.2222 181.048 70.2222 181.59C70.2222 182.519 70.4452 182.554 74.0972 182.195C83.8712 181.235 84.2202 181.334 83.0532 184.739C81.9492 187.959 80.4582 188.396 70.7222 188.354C66.1852 188.335 61.1222 188.045 59.4722 187.711ZM77.5722 146.589C77.0732 145.759 76.9882 139.68 77.4722 139.438C77.7472 139.301 78.0362 139.863 78.1152 140.688C78.1932 141.513 78.4942 142.661 78.7842 143.238C79.0742 143.816 79.2352 144.811 79.1422 145.449C78.9692 146.627 78.0132 147.322 77.5722 146.589ZM161.785 119.536C160.637 118.765 159.086 117.246 158.338 116.161C157.09 114.349 156.979 113.793 156.975 109.362C156.972 104.737 157.029 104.482 158.347 103.261C159.738 101.97 160.089 100.292 159.245 98.9582C158.949 98.4902 157.928 98.2202 156.404 98.2082C154.185 98.1892 153.97 98.0712 153.196 96.4382C151.903 93.7102 151.194 91.2602 151.601 90.9252C151.805 90.7582 153.207 90.3202 154.716 89.9522C157.99 89.1552 160.189 88.0012 160.93 86.6902C161.228 86.1622 161.753 85.4242 162.097 85.0492C162.44 84.6742 163.339 83.3142 164.095 82.0282C165.351 79.8882 165.467 79.2602 165.448 74.6882C165.418 67.5042 163.703 62.8992 158.792 56.8142C155.912 53.2452 151.934 50.4382 149.246 50.0782C145.943 49.6352 147.125 47.4382 150.666 47.4382C152.397 47.4382 154.159 46.7442 156.885 44.9872C158.644 43.8542 158.773 43.6172 158.48 42.0562C158.014 39.5692 156.296 36.7802 153.355 33.7332C150.804 31.0902 149.117 30.2682 144.032 29.1912C140.749 28.4962 134.411 24.9112 131.393 22.0412C125.52 16.4582 122.633 10.4632 122.528 3.6322C122.462 -0.709796 123.239 -1.27279 124.006 2.56021C125.137 8.20421 130.446 16.2102 135.15 19.3652C138.249 21.4442 142.115 23.0972 145.972 23.9932C151.242 25.2172 153.57 26.4382 156.681 29.6082C160.198 33.1922 160.642 33.7892 162.938 38.0212C164.652 41.1802 164.663 41.1892 167.303 41.5222C169.845 41.8432 170.016 41.7892 171.61 40.1472C172.99 38.7272 173.631 38.4382 175.409 38.4382C177.065 38.4382 177.821 38.7302 178.76 39.7342C180.571 41.6702 181.535 42.0272 183.971 41.6622C186.134 41.3382 186.207 41.2652 187.327 38.3092C188.776 34.4852 194.935 27.3152 198.222 25.6252C199.46 24.9892 202.609 23.9852 205.222 23.3952C210.659 22.1662 213.022 21.0952 216.275 18.3852C219.414 15.7692 223.525 9.3392 225.257 4.3362C227.108 -1.0088 227.994 -1.4318 227.538 3.2462C226.536 13.5232 223.308 19.2942 215.722 24.3732C211.742 27.0382 206.281 29.4132 204.092 29.4312C202.505 29.4442 198.771 31.5052 196.964 33.3652C195.99 34.3682 194.478 36.6092 193.605 38.3472C192.732 40.0842 191.838 41.6162 191.62 41.7512C191.401 41.8862 191.222 42.4042 191.222 42.9012C191.222 43.8072 194.638 46.4312 195.836 46.4462C196.186 46.4502 197.372 46.7952 198.472 47.2132C199.572 47.6322 200.866 48.1052 201.347 48.2642C201.828 48.4242 202.222 48.7602 202.222 49.0122C202.222 49.2642 201.828 49.6082 201.347 49.7762C196.47 51.4882 191.719 55.2102 189.273 59.2352C187.808 61.6462 185.385 68.4752 184.734 72.0302C183.848 76.8652 184.74 81.4862 187.057 84.0592C187.616 84.6802 188.203 85.5582 188.362 86.0102C188.675 86.9032 195.328 90.4382 196.694 90.4382C198.119 90.4382 199.509 91.7322 198.918 92.5092C198.634 92.8822 198.097 94.1562 197.724 95.3382C197.351 96.5212 196.804 97.6462 196.509 97.8382C196.214 98.0312 194.734 98.1882 193.222 98.1882H190.472L190.541 99.7742C190.58 100.646 191.183 102.11 191.883 103.027C193.336 104.932 194.018 108.72 193.514 112.084C193.158 114.459 190.117 118.629 187.645 120.131C185.032 121.719 184.571 120.927 186.222 117.688C187.702 114.785 187.402 108.647 185.686 106.745C185.049 106.039 180.688 107.369 179.719 108.566C178.961 109.502 178.354 109.643 175.214 109.614C172.262 109.587 171.434 109.4 170.778 108.614C170.013 107.696 168.572 106.883 166.569 106.238C165.311 105.834 163.243 108.184 163.14 110.136C162.949 113.741 163.37 116.794 164.271 118.351C165.174 119.912 165.173 120.938 164.268 120.938C164.05 120.938 162.933 120.307 161.785 119.536ZM146.831 86.3502C144.562 85.2502 139.972 80.5352 139.129 78.4382C137.143 73.5012 136.382 63.2512 137.698 59.1882C139.046 55.0262 142.008 52.4382 145.424 52.4382C147.87 52.4382 149.444 53.2292 153.472 56.4842C156.466 58.9032 157.273 59.9182 159.05 63.5002C161.853 69.1492 162.476 71.4742 162.451 76.1882C162.424 81.3672 161.679 82.9692 158.143 85.4522C155.549 87.2722 155.049 87.4362 152.143 87.4132C149.996 87.3962 148.281 87.0532 146.831 86.3502ZM195.947 87.0042C195.686 86.7652 194.387 86.1652 193.06 85.6722C191.543 85.1072 190.151 84.1232 189.31 83.0202C188.051 81.3692 187.973 80.9552 187.991 75.9772C188.014 69.4842 188.777 66.7462 191.905 61.9382C194.025 58.6802 195.627 57.0572 198.64 55.1152C204.728 51.1922 208.946 52.1512 212.146 58.1882C213.334 60.4282 213.469 61.2092 213.442 65.6882C213.413 70.5082 212.821 73.2972 210.582 79.1612C209.429 82.1792 205.691 85.4052 201.722 86.8052C199.684 87.5242 196.631 87.6292 195.947 87.0042Z" fill="black"/>
</svg>
