<svg width="292" height="289" viewBox="0 0 292 289" fill="none" xmlns="http://www.w3.org/2000/svg">
<path fill-rule="evenodd" clip-rule="evenodd" d="M197.191 288.23C183.939 287.221 171.628 284.244 167.191 280.977L165.691 279.872L165.755 265.93L165.818 251.988L167.711 250.485C168.752 249.658 171.198 247.501 173.147 245.69C176.5 242.576 176.934 242.335 181.191 241.249C183.666 240.617 188.443 239.201 191.806 238.1L197.921 236.098L204.556 237.92C208.205 238.921 212.428 240.019 213.941 240.361C216.554 240.951 216.699 241.066 216.852 242.669C216.941 243.597 216.671 245.96 216.251 247.919C215.639 250.782 214.449 259.274 214.442 260.827C214.442 261.018 216.522 262.853 219.066 264.904C228.105 272.194 230.858 275.615 231.673 280.57C232.061 282.929 231.48 284.408 229.816 285.299C225.886 287.402 207.733 289.033 197.191 288.23ZM69.9414 287.46C65.8454 286.751 62.3705 285.628 60.5225 284.417C59.4325 283.703 59.3654 283.42 59.6804 280.9C59.8684 279.393 60.3594 277.354 60.7714 276.368C61.7484 274.029 66.2344 269.338 70.9414 265.733C76.9634 261.12 76.5744 262.416 75.1114 251.837C74.4164 246.81 73.9614 242.401 74.1014 242.037C74.2404 241.673 75.2184 241.143 76.2734 240.858C94.7134 235.883 92.8784 236.142 98.2174 237.744C100.678 238.483 104.941 239.708 107.691 240.465C110.441 241.223 113.366 242.041 114.191 242.285C115.05 242.538 117.812 244.828 120.655 247.645L125.618 252.565L125.655 265.959L125.691 279.353L124.191 280.622C121.142 283.2 115.441 284.95 103.441 286.994C97.0934 288.075 94.7924 288.222 84.9414 288.17C78.2574 288.134 72.1694 287.846 69.9414 287.46ZM143.691 254.794C142.591 254.29 140.466 252.889 138.969 251.68C137.472 250.471 135.424 249.032 134.418 248.482C132.118 247.224 127.526 243.69 124.225 240.639L121.691 238.296L121.441 223.341C121.176 207.467 121.055 206.723 118.755 206.74C116.303 206.757 116.31 206.711 116.048 222.181C115.823 235.439 115.725 236.732 114.951 236.732C113.995 236.732 107.923 234.905 101.191 232.591C94.9884 230.459 91.2864 230.532 82.9794 232.951C78.0964 234.372 76.6724 234.622 76.3264 234.121C76.0834 233.769 76.0154 231.457 76.1764 228.982C76.9944 216.345 77.0714 212.232 76.4894 212.232C76.1664 212.232 75.0194 212.682 73.9414 213.232C71.6644 214.394 70.5123 214.498 70.1573 213.575C69.5253 211.926 73.2554 201.419 78.4324 190.266C80.2924 186.26 81.9624 182.354 82.1424 181.586C82.5194 179.984 83.7064 179.338 84.8824 180.094C94.0044 185.955 102.357 189.907 109.941 191.949C111.454 192.356 114.716 193.234 117.191 193.898C119.666 194.563 123.379 195.355 125.441 195.66C127.503 195.965 130.879 196.475 132.941 196.793C138.009 197.575 153.641 197.566 159.191 196.779C164.949 195.962 173.684 194.377 175.941 193.738C182.992 191.744 188.262 189.913 191.691 188.264C193.891 187.206 196.482 185.994 197.449 185.569C198.416 185.144 200.103 184.184 201.199 183.436C202.295 182.687 204.268 181.436 205.585 180.655L207.978 179.236L208.96 181.525C209.499 182.785 209.941 183.885 209.941 183.973C209.941 184.128 212.359 189.397 215.683 196.482C218.988 203.529 221.946 214.732 220.501 214.732C220.182 214.732 219.03 214.17 217.941 213.482C214.621 211.386 214.448 211.563 214.389 217.107C214.361 219.788 214.381 224.738 214.434 228.106C214.544 235.121 214.369 235.407 210.797 234.058C207.367 232.763 199.316 230.735 197.599 230.733C196.723 230.733 195.373 230.986 194.599 231.296C193.824 231.606 192.404 232.032 191.441 232.243C190.478 232.453 186.693 233.678 183.029 234.967C179.365 236.255 176.046 237.188 175.654 237.037C175.059 236.809 174.941 234.354 174.941 222.235V207.707L173.658 207.22C171.642 206.453 170.525 206.64 169.876 207.853C169.464 208.624 169.202 213.705 169.04 224.098L168.804 239.222L165.998 241.456C156.131 249.308 150.618 253.353 147.836 254.78C145.631 255.911 146.127 255.91 143.691 254.794ZM243.691 247.998C239.36 245.959 236.422 243.279 233.827 238.997C231.125 234.54 229.847 233.027 227.762 231.813C226.373 231.005 226.341 230.894 226.618 227.857C226.839 225.436 227.625 223.183 230.107 217.857C231.868 214.076 233.46 210.497 233.644 209.903C234.09 208.468 234.24 208.425 243.42 207.142L251.376 206.03L254.034 207.212C255.495 207.861 257.591 208.777 258.691 209.246C259.791 209.715 261.478 210.449 262.441 210.879C263.404 211.308 265.316 212.037 266.691 212.499C270.64 213.824 276.122 216.475 276.92 217.447C278.607 219.501 277.976 234.26 276.112 236.319C273.858 238.81 269.166 241.734 264.606 243.49C261.903 244.531 258.317 246.007 256.638 246.769C253.854 248.032 248.922 249.274 246.974 249.202C246.543 249.186 245.066 248.645 243.691 247.998ZM38.4414 248.02C37.4784 247.622 33.8125 246.269 30.2935 245.013C22.9055 242.376 21.1104 241.499 17.7404 238.884C13.6754 235.729 13.3774 234.783 13.5464 225.577C13.7124 216.508 13.6274 216.679 18.9414 214.774C23.7324 213.057 30.5464 210.232 34.9414 208.142C39.1044 206.162 39.2734 206.127 43.1914 206.428C47.8424 206.785 51.8484 207.39 54.7374 208.173C56.7164 208.71 56.8664 208.903 59.3314 214.105C62.8834 221.601 63.6994 223.604 64.4034 226.558C65.1694 229.77 64.5084 231.291 61.1494 234.044C59.8794 235.084 57.9924 237.182 56.9564 238.707C54.6584 242.088 51.8544 245.003 49.0504 246.924C46.4864 248.68 41.3294 249.213 38.4414 248.02ZM9.95938 212.004C9.50238 211.453 9.44248 208.547 9.71548 200.077C10.2125 184.667 9.67341 182.51 2.94241 172.982C-1.41859 166.809 -1.25959 166.408 5.64041 166.153C8.54141 166.046 11.1334 165.738 11.4004 165.47C11.6664 165.202 12.2354 162.17 12.6654 158.732C13.0954 155.294 13.9215 150.344 14.5025 147.732C15.0825 145.12 15.6694 142.363 15.8064 141.607C16.2374 139.221 16.9375 139.501 25.5185 145.509C27.0735 146.597 30.4015 149.175 32.9145 151.235C36.4575 154.14 37.7604 155.565 38.7124 157.576C40.1974 160.71 40.2024 160.993 38.9374 169.35C36.0554 188.402 34.9434 196.752 34.9424 199.373C34.9414 201.19 34.7314 201.842 34.0664 202.092C33.5854 202.273 32.1784 203.007 30.9414 203.722C29.7044 204.437 26.2164 206.004 23.1914 207.204C20.1664 208.404 16.1484 210.138 14.2614 211.059C12.3754 211.979 10.7714 212.732 10.6974 212.732C10.6244 212.732 10.2914 212.404 9.95938 212.004ZM272.941 209.191C268.954 207.573 263.64 205.228 261.132 203.981L256.574 201.714L255.999 197.098C255.683 194.559 254.991 188.657 254.462 183.982C253.933 179.307 253.149 172.909 252.72 169.764C251.827 163.212 251.739 159.829 252.413 158.056C253.98 153.934 272.725 139.362 274.806 140.648C275.758 141.237 276.911 145.282 277.465 149.982C277.757 152.457 278.208 155.987 278.468 157.827C278.728 159.668 278.941 161.959 278.941 162.918C278.941 165.751 279.847 166.232 285.186 166.232C289.862 166.232 291.441 166.487 291.441 167.241C291.441 167.463 289.821 170.307 287.841 173.563C285.861 176.818 283.667 180.945 282.966 182.732C281.715 185.92 281.691 186.231 281.691 198.973C281.691 210.149 281.586 211.976 280.941 212.049C280.529 212.096 276.928 210.81 272.941 209.191ZM50.1914 201.967C47.9914 201.604 45.2204 201.29 44.0334 201.27C42.8464 201.249 41.4394 200.997 40.9054 200.712C39.8044 200.123 39.7814 200.475 41.6854 188.982C42.3234 185.132 43.1084 179.957 43.4304 177.482C43.7524 175.007 44.2234 172.039 44.4784 170.886C44.7334 169.733 44.9414 167.904 44.9414 166.822C44.9414 165.74 45.2224 164.623 45.5664 164.342C46.6344 163.468 63.9734 167.297 66.1464 168.886C67.0324 169.535 67.0564 169.814 66.4834 172.783C65.7694 176.479 62.4144 186.667 60.5784 190.712C59.8874 192.235 58.5864 195.507 57.6874 197.982C55.8244 203.113 56.1304 202.949 50.1914 201.967ZM234.234 201.673C232.581 196.62 230.303 190.382 229.398 188.431C228.773 187.084 227.205 182.426 225.914 178.079C223.436 169.734 223.432 169.274 225.819 168.523C227.921 167.862 244.611 163.732 245.181 163.732C245.605 163.732 246.012 165.336 246.421 168.607C247.481 177.104 248.93 187.277 249.991 193.669C250.639 197.577 250.842 200.031 250.542 200.331C250.104 200.769 246.374 201.274 237.826 202.056C235.199 202.296 234.411 202.213 234.234 201.673ZM132.941 190.7C115.975 188.137 102.158 183.599 91.8703 177.212C84.4243 172.589 83.1684 170.707 82.7134 163.482C82.2404 155.973 83.9794 143.232 85.4774 143.232C85.7504 143.232 88.4984 144.492 91.5824 146.033C100.899 150.685 106.731 151.278 117.441 148.662C121.354 147.707 129.933 144.714 137.608 141.628C143.103 139.418 145.371 138.729 146.358 138.973C147.091 139.154 150.213 140.4 153.297 141.742C156.38 143.084 159.98 144.515 161.297 144.921C162.613 145.328 165.041 146.154 166.691 146.758C174.845 149.738 184.49 150.95 190.553 149.756C192.353 149.401 196.315 147.85 199.847 146.116C203.324 144.41 206.182 143.288 206.412 143.538C207 144.176 208.442 157.896 208.438 162.816C208.433 170.007 207.451 171.805 201.291 175.894C191.711 182.253 178.999 187.148 165.441 189.701C163.654 190.037 161.111 190.519 159.791 190.772C156.872 191.332 136.765 191.277 132.941 190.7ZM64.7554 162.158C63.8174 161.613 62.2624 161.268 51.2844 159.176L45.3784 158.051L44.0633 155.767C40.6393 149.814 37.0154 146.29 29.0064 141.124L25.8214 139.069L26.1104 136.627C26.2694 135.283 27.0594 132.9 27.8654 131.332C28.6714 129.764 30.4094 125.67 31.7284 122.232C33.0464 118.794 34.2835 115.757 34.4755 115.482C34.6685 115.207 34.9825 114.251 35.1735 113.357C35.3645 112.463 35.8064 111.732 36.1554 111.732C36.5044 111.732 38.9054 112.486 41.4904 113.408C53.0274 117.521 60.8574 119.446 64.7444 119.123C69.5594 118.724 78.3654 113.747 92.9254 103.195C96.0144 100.956 97.9714 99.1806 98.1534 98.4536C98.5914 96.7106 97.7003 91.5675 96.0373 86.2315C95.2223 83.6195 93.9584 79.0065 93.2264 75.9815C92.4944 72.9565 91.3173 68.2315 90.6103 65.4815C88.0913 55.6835 87.8014 54.3186 88.0804 53.5896C88.4894 52.5246 92.6904 51.2315 95.7444 51.2315C100.489 51.2315 101.289 53.8645 99.6914 64.2315C98.1714 74.0935 99.0524 80.1125 102.831 85.6965C105.563 89.7335 107.32 91.6265 111.191 94.7055C116.96 99.2935 126.236 104.046 133.394 106.08C137.735 107.314 151.276 107.564 155.441 106.487C163.969 104.283 172.871 99.9485 179.83 94.6125C183.391 91.8815 187.089 87.1175 189.319 82.3885C191.143 78.5195 191.161 78.4185 191.176 71.9815C191.184 68.4065 191.014 62.8545 190.798 59.6445L190.405 53.8076L191.975 52.0195C192.838 51.0365 193.868 50.2315 194.263 50.2315C195.656 50.2315 201.38 52.3046 201.978 53.0266C202.581 53.7526 202.331 56.0565 201.006 61.9815C200.76 63.0815 199.853 67.2445 198.992 71.2315C198.13 75.2185 196.763 80.8435 195.955 83.7315C194.174 90.0915 192.767 98.0445 193.276 98.8685C193.807 99.7285 195.768 101.323 200.262 104.551C214.847 115.027 222.585 119.232 227.281 119.232C229.349 119.232 230.636 119.008 236.441 117.64C239.721 116.867 248.332 113.985 250.941 112.787C254.266 111.261 255.152 111.402 256.071 113.607C256.501 114.638 257.746 117.507 258.837 119.982C261.981 127.113 266.031 138.348 265.592 138.72C265.371 138.906 263.616 140.158 261.691 141.501C257.714 144.277 249.35 152.478 247.139 155.768L245.663 157.967L239.177 159.303C235.61 160.037 231.04 160.998 229.022 161.438C227.004 161.877 225.176 162.127 224.959 161.993C224.742 161.859 224.308 160.732 223.995 159.488C222.959 155.375 219.494 149.293 216.056 145.555C214.248 143.59 211.785 140.463 210.581 138.607C209.377 136.751 208.073 135.232 207.682 135.232C207.292 135.232 205.298 136.324 203.251 137.66C195.626 142.638 188.202 144.415 179.356 143.377C172.26 142.545 153.558 136.054 149.691 133.082C148.778 132.381 148.669 131.561 148.441 123.666L148.191 115.017L146.27 114.564C142.925 113.775 142.691 114.396 142.691 124.04C142.691 132.298 142.689 132.314 141.441 133.183C138.962 134.91 125.327 140.086 117.441 142.293C113.867 143.293 112.078 143.479 106.191 143.462L99.1914 143.443L94.4414 141.413C91.8294 140.297 88.1403 138.343 86.2453 137.072C84.3493 135.8 82.6114 134.877 82.3824 135.019C82.1534 135.16 81.1694 136.699 80.1974 138.439C79.2244 140.179 77.0894 143.063 75.4534 144.848C72.0134 148.603 67.7404 156.647 67.2164 160.357C66.8724 162.788 66.4154 163.122 64.7554 162.158ZM224.691 112.28C223.591 112.082 221.904 111.509 220.941 111.006C219.066 110.026 210.079 103.989 203.941 99.5846C200.202 96.9026 200.191 96.8876 200.271 94.6876C200.423 90.5296 209.028 55.9936 210.22 54.7616C210.826 54.1356 211.293 54.1586 213.804 54.9386C219.601 56.7396 226.073 59.3376 228.327 60.7666C229.597 61.5726 231.297 62.2315 232.105 62.2315C232.912 62.2315 235.287 61.3446 237.382 60.2606C246.202 55.6966 249.024 54.6525 249.678 55.7105C249.841 55.9745 249.274 60.2486 248.418 65.2096L246.861 74.2285L248.561 76.2156C250.736 78.7566 254.778 86.5045 257.438 93.2315C258.579 96.1195 259.835 98.9796 260.227 99.5886C261.269 101.206 261.111 102.046 259.566 103.114C257.31 104.672 246.577 108.493 238.941 110.456C238.253 110.633 236.566 111.081 235.191 111.452C231.86 112.352 227.155 112.723 224.691 112.28ZM55.4414 111.455C46.7164 109.682 33.3155 104.616 31.2525 102.311C30.3285 101.279 30.3405 101.197 31.9605 97.3716C35.8705 88.1366 39.1544 81.2386 41.2224 77.9136C43.6764 73.9676 43.7654 73.3555 42.7454 67.4815C42.3634 65.2815 41.8944 61.8935 41.7044 59.9515C41.1714 54.5105 41.4124 54.4736 49.9314 58.7096C54.5104 60.9856 57.6164 62.2315 58.7104 62.2315C59.7394 62.2315 62.6674 61.1435 66.1594 59.4655C71.6094 56.8455 75.7444 55.2835 79.2534 54.5195C81.0554 54.1275 81.0674 54.1465 82.4654 59.4815C84.5444 67.4145 84.8414 68.6115 85.4424 71.4815C85.7874 73.1315 86.3964 75.6065 86.7954 76.9815C87.1944 78.3565 87.9383 81.4125 88.4483 83.7735C88.9573 86.1345 89.8514 89.4815 90.4344 91.2115C91.0174 92.9415 91.4264 94.8355 91.3434 95.4195C91.1594 96.7045 83.1504 102.794 74.3324 108.353L68.1914 112.223L63.4414 112.17C60.8294 112.14 57.2284 111.818 55.4414 111.455ZM139.691 100.892C132.813 99.3486 129.715 98.3006 123.536 95.4276C116.076 91.9596 108.844 85.8726 106.888 81.4166C105.403 78.0336 105.102 71.0706 106.141 64.1676C106.581 61.2446 106.941 57.7755 106.941 56.4575C106.941 54.2045 106.755 53.8646 103.816 50.7566C102.097 48.9396 99.4884 45.7715 98.0194 43.7165C94.8894 39.3425 88.7744 27.2256 89.0264 25.8976C89.1424 25.2826 89.7193 24.9305 90.7823 24.8275C92.7673 24.6345 100.701 27.3055 104.76 29.5335C108.284 31.4675 108.404 31.4095 109.415 27.2735C110.539 22.6725 113.79 15.3205 116.186 11.9625C122.454 3.1795 134.758 -1.05352 150.312 0.223485C153.545 0.488485 157.428 1.07251 158.941 1.51951C169.456 4.63151 176.253 11.6846 180.004 23.3756C182.398 30.8356 182.99 31.7295 184.404 30.0255C185.347 28.8905 194.931 25.3355 198.06 24.9615C201.578 24.5405 201.911 25.0345 200.674 28.8375C198.311 36.1065 191.508 46.8396 186.317 51.4896C184.873 52.7836 183.533 54.1156 183.34 54.4496C183.147 54.7846 183.326 57.0655 183.739 59.5195C184.152 61.9735 184.73 65.4436 185.024 67.2296C185.706 71.3816 185.333 75.4135 183.875 79.6345C182.852 82.5995 182.198 83.4955 178.144 87.4815C175.628 89.9565 172.018 92.9046 170.122 94.0326C165.684 96.6726 157.844 99.5285 152.441 100.472C148.431 101.172 141.898 101.387 139.691 100.892ZM123.797 77.2965C126.815 76.1175 135.95 74.3685 141.191 73.9665C146.952 73.5235 156.539 74.5016 163.758 76.2676C171.16 78.0776 171.713 77.9286 171.218 74.2606C170.66 70.1306 169.826 67.0225 168.459 63.9815C166.107 58.7515 164.751 58.5936 163.247 63.3716C162.793 64.8176 161.972 66.7386 161.424 67.6406L160.426 69.2795L157.309 68.8806C153.135 68.3466 138.639 68.3726 133.841 68.9236L129.991 69.3646L127.944 65.1765C126.818 62.8725 125.691 60.7815 125.44 60.5305C123.698 58.7885 120.342 66.9885 119.621 74.7485C119.313 78.0595 119.349 78.2315 120.351 78.2315C120.93 78.2315 122.481 77.8105 123.797 77.2965ZM165.341 46.0266C166.878 45.2236 169.05 43.0035 169.88 41.3895C170.621 39.9475 170.597 36.5875 169.841 35.8315C168.816 34.8065 166.556 35.1636 162.802 36.9446C160.816 37.8866 158.066 39.0736 156.691 39.5836C153.458 40.7806 153.154 42.0805 155.661 43.9925C158.997 46.5365 162.824 47.3406 165.341 46.0266ZM132.928 45.2385C134.92 44.2215 136.441 42.5336 136.441 41.3386C136.441 40.5416 128.186 36.5925 124.852 35.7945C122.2 35.1605 121.11 35.4105 120.684 36.7535C119.925 39.1445 122.98 44.6655 125.664 45.7525C127.512 46.5005 130.927 46.2585 132.928 45.2385Z" fill="black"/>
</svg>
