<svg width="337" height="344" viewBox="0 0 337 344" fill="none" xmlns="http://www.w3.org/2000/svg">
<path fill-rule="evenodd" clip-rule="evenodd" d="M211.921 343.763C210.08 343.531 206.912 342.506 204.94 341.502C203.988 341.018 202.68 340.622 202.032 340.622C201.385 340.622 200.408 340.383 199.861 340.09C199.315 339.797 195.448 339.37 191.269 339.139C180.345 338.537 178.881 337.723 178.761 332.187C178.715 330.069 179.102 328.377 180.325 325.35C182.396 320.224 182.894 315.248 182.047 308.122C181.232 301.261 181.635 298.051 183.978 292.734C185.541 289.188 185.248 286.282 182.971 282.76C181.898 281.1 180.772 279.589 180.468 279.401C180.165 279.214 179.01 277.726 177.903 276.096C176.796 274.466 175.032 272.23 173.983 271.127C172.085 269.131 172.059 269.122 168.287 269.122C163.853 269.122 163.075 269.605 159.421 274.627C158.183 276.328 155.959 279.104 154.477 280.796C152.996 282.488 151.457 284.643 151.059 285.585C150.217 287.574 150.521 290.602 151.883 293.793C153.375 297.291 153.617 299.487 153.677 310.122C153.731 319.609 153.821 320.577 154.884 323.122C156.949 328.067 157.476 330.64 157.122 334.054L156.792 337.235L154.573 338.217C152.752 339.022 150.949 339.23 144.513 339.378C138.835 339.509 136.154 339.776 134.796 340.347C133.765 340.781 132.921 341.018 132.921 340.874C132.921 340.73 131.74 341.233 130.296 341.992C127.963 343.219 127.143 343.372 122.921 343.368C118.929 343.366 117.853 343.186 116.178 342.243C113.573 340.777 110.866 340.812 106.218 342.372C101.494 343.958 100.959 343.941 98.0901 342.122C95.3101 340.359 92.1521 340.146 87.3251 341.397C83.7171 342.332 82.9211 341.908 82.9211 339.055C82.9211 335.154 87.0361 329.106 91.1071 327.025C93.9221 325.586 97.6841 324.635 100.594 324.628C102.348 324.624 103.796 324.197 105.844 323.079C109.398 321.14 110.75 319.895 112.045 317.372C113.422 314.69 113.402 308.685 112.005 305.549C111.472 304.351 110.522 302.022 109.893 300.372C109.265 298.722 108.384 296.81 107.936 296.122C107.488 295.434 106.345 293.304 105.396 291.388L103.671 287.904L103.724 280.638C103.762 275.382 104.021 272.473 104.662 270.122C105.148 268.334 105.71 265.275 105.91 263.323C106.127 261.208 106.791 258.682 107.555 257.073C108.261 255.587 109.134 253.472 109.496 252.372C109.859 251.272 111.425 247.785 112.976 244.622C117.097 236.222 118.051 233.215 117.78 229.472C117.656 227.767 117.319 225.584 117.031 224.622C114.718 216.89 114.755 217.218 114.713 204.497C114.69 197.691 114.552 192.122 114.408 192.122C114.263 192.122 112.688 194.041 110.908 196.387C109.127 198.732 106.411 202.228 104.871 204.155C102.097 207.628 101.985 207.9 100.571 214.622C100.426 215.31 100.139 217.347 99.933 219.151C99.493 223.001 96.6481 229.427 94.1611 232.192C93.2601 233.193 92.3711 234.49 92.1861 235.076C91.8451 236.15 88.5731 241.746 86.8521 244.199C85.2921 246.423 85.528 247.088 90.222 253.69C92.017 256.215 92.391 257.484 92.856 262.622C93.042 264.684 93.6041 267.207 94.1051 268.227C95.1921 270.442 95.0321 273.465 93.5201 279.219C92.3841 283.544 91.3121 285.302 89.2831 286.164C87.4931 286.925 86.3311 285.964 85.4471 282.99C85.1001 281.825 84.615 280.355 84.369 279.723C84.123 279.092 83.9211 278.128 83.9211 277.582C83.9211 277.036 83.2331 274.805 82.3911 272.623C80.9671 268.931 80.745 268.634 79.174 268.34C76.752 267.885 76.8511 267.785 73.8101 273.818C72.5511 276.316 73.055 280.531 75.105 284.64C75.554 285.54 75.9211 286.586 75.9211 286.966C75.9211 288.827 79.6981 292.128 80.9451 291.357C81.8921 290.772 84.7651 292.133 85.3651 293.449C86.3741 295.662 85.2871 297.714 81.4751 300.793C77.0201 304.393 75.022 304.99 70.369 304.112C67.24 303.522 66.664 303.233 65.496 301.671C63.506 299.009 60.7351 296.49 58.5881 295.39C52.6521 292.35 51.2431 290.47 50.6141 284.748C50.4401 283.166 50.0141 281.197 49.6681 280.372C48.0101 276.421 47.6921 275.173 47.6931 272.622C47.6951 270.101 48.9971 265.671 50.5591 262.872C50.9151 262.235 51.0751 259.242 51.0011 254.622C50.8951 248.04 50.9971 247.049 52.1091 243.872C54.5291 236.959 55.0401 234.165 54.6801 229.82C54.2631 224.798 54.7421 222.926 57.6571 218.2C58.9021 216.18 59.9211 214.084 59.9211 213.542C59.9211 213 60.1381 212.151 60.4031 211.656C60.7231 211.058 60.6901 210.239 60.3041 209.216C59.6541 207.496 59.7621 207.199 63.0331 201.696C64.0711 199.949 64.9211 198.308 64.9211 198.049C64.9211 197.791 65.8211 196.387 66.9211 194.93C68.0211 193.473 68.9211 192.14 68.9211 191.968C68.9211 191.796 69.8211 190.263 70.9211 188.561C72.0211 186.859 72.9211 185.063 72.9211 184.569C72.9211 183.584 73.7791 180.271 75.4321 174.872C76.0211 172.947 76.6831 170.697 76.9031 169.872C77.8361 166.372 80.2881 161.142 81.1521 160.81C81.5271 160.666 82.3411 159.271 82.9601 157.71C83.5781 156.149 84.238 154.647 84.425 154.372C84.95 153.602 85.7751 149.811 86.4391 145.122C87.6311 136.701 89.117 132.527 93.226 126.064C94.382 124.244 96.081 122.231 97 121.589C97.919 120.947 99.904 119.429 101.41 118.216C102.917 117.003 104.717 115.767 105.41 115.47L106.671 114.929L105.334 114.746C102.127 114.307 90.391 122.319 88.306 126.372C87.74 127.472 86.747 129.068 86.099 129.919C85.451 130.77 84.9211 131.758 84.9211 132.115C84.9211 132.472 84.4841 134.251 83.9501 136.068C83.4161 137.885 82.855 141.06 82.703 143.122C81.858 154.62 82.0611 154.067 77.9211 156.166C68.7871 160.798 62.671 167.687 59.761 176.622C58.968 179.055 57.9211 186.67 57.9211 190.001C57.9211 191.135 57.7191 192.188 57.4721 192.341C57.2251 192.493 54.7331 190.22 51.9341 187.288C41.9771 176.86 38.2351 175.565 31.1851 180.111C27.4881 182.495 21.6951 191.179 20.6711 195.872C20.4911 196.697 20.042 198.047 19.673 198.872C19.304 199.697 18.8841 201.609 18.7401 203.122C18.5951 204.635 18.1351 209.359 17.7181 213.622C16.7911 223.094 16.7201 231.4 17.4981 239.498C17.8211 242.867 17.953 245.756 17.791 245.919C15.456 248.254 8.96805 233.196 5.16905 216.622C3.35705 208.72 3.30305 208.383 1.92905 196.622C1.62305 194.01 1.04705 189.121 0.647051 185.759C-0.810948 173.481 0.303051 149.113 2.90605 136.372C3.18705 134.997 3.63405 132.635 3.89905 131.122C4.68905 126.628 5.87405 121.442 6.35605 120.372C6.60405 119.822 7.08805 118.359 7.43205 117.122C7.77605 115.885 8.70105 113.056 9.48905 110.836C10.2771 108.616 10.9211 106.551 10.9211 106.247C10.9211 105.943 12.2711 102.512 13.9211 98.6224C15.5711 94.7324 16.9211 91.4304 16.9211 91.2834C16.9211 91.1374 18.2711 88.2154 19.9211 84.7914C21.5711 81.3674 22.9211 78.4894 22.9211 78.3954C22.9211 78.3014 23.8591 76.6824 25.0061 74.7984C26.1531 72.9144 27.8131 70.0224 28.6951 68.3724C32.4161 61.4144 39.7011 51.4914 48.8031 40.9834C52.2611 36.9914 63.7571 26.6294 69.2651 22.5404C70.9671 21.2774 73.9481 19.2594 75.8911 18.0574C77.8331 16.8554 80.918 14.9164 82.746 13.7474C84.574 12.5784 86.6391 11.6224 87.3351 11.6224C88.1101 11.6224 89.203 10.9924 90.157 9.99736C92.142 7.92436 99.299 2.06436 100.832 1.25636C102.84 0.198359 109.188 -0.345639 112.716 0.239361C115.539 0.707361 115.921 0.903357 115.921 1.88536C115.921 3.37536 115.223 3.86135 111.653 4.85435C107.787 5.93035 103.288 9.19536 101.983 11.8724C96.08 23.9834 92.728 31.7294 91.709 35.6224C90.904 38.6934 89.9301 47.7884 89.9431 52.1224C89.9601 58.1344 91.3081 66.7974 92.7171 69.9484C93.1041 70.8144 93.4211 71.6524 93.4211 71.8094C93.4211 72.5764 96.3581 78.2464 98.2971 81.2234C100.59 84.7434 108.21 92.5764 111.022 94.3034C111.929 94.8614 113.412 95.9494 114.317 96.7224C115.694 97.8984 118.895 99.5714 124.671 102.132C125.221 102.376 126.63 102.848 127.802 103.18C130.935 104.068 131.304 104.773 129.658 106.729C128.905 107.624 126.813 109.488 125.01 110.871C121.321 113.703 117.426 119.01 116.502 122.465C115.334 126.833 115.845 135.494 117.768 143.917C117.992 144.898 117.841 144.948 115.258 144.733C110.097 144.305 106.08 146.817 104.897 151.213C104.32 153.355 104.682 157.915 105.468 158.401C105.717 158.555 105.927 159.061 105.933 159.527C105.959 161.298 109.354 165.036 112.572 166.835C115.481 168.462 116.121 168.622 119.719 168.627C125.287 168.634 129.268 167.168 132.966 163.748C138.329 158.787 139.808 153.725 139.899 140.022L139.958 131.117L142.327 126.495C146.15 119.033 146.921 116.831 146.921 113.368C146.921 107.532 145.942 105.37 144.943 108.997C144.369 111.081 141.33 116.383 137.97 121.16C134.642 125.893 132.545 130.466 131.91 134.372C131.26 138.371 131.13 144.921 131.641 147.943C131.832 149.073 131.731 151.431 131.418 153.184C130.959 155.752 130.491 156.748 129.01 158.309C125.433 162.075 119.928 163.464 115.739 161.657C112.213 160.137 110.59 158.838 109.154 156.387C107.978 154.381 107.926 154.043 108.468 151.892C109.204 148.969 111.436 146.622 113.479 146.622C114.294 146.622 115.869 147.085 116.979 147.652C118.089 148.218 119.481 148.612 120.072 148.527C122.149 148.228 122.46 146.541 122.105 137.523C121.86 131.292 121.943 128.566 122.435 126.773C123.141 124.203 126.723 118.472 130.206 114.339C133.755 110.129 134.671 107.929 134.671 103.622C134.671 99.2254 134.201 98.1154 129.916 92.3724C125.067 85.8754 124.153 82.3504 125.767 76.3724C126.961 71.9484 126.705 68.2894 124.702 61.1224C123.718 57.6044 123.677 48.6064 124.629 44.9534C125.326 42.2784 127.529 37.4333 129.5 34.2453C130.855 32.0513 137.193 27.0164 139.671 26.1654C140.771 25.7874 142.901 24.3574 144.404 22.9884C148.191 19.5384 153.184 16.2784 156.164 15.3094C157.543 14.8604 159.089 14.1294 159.6 13.6834C161.031 12.4344 175.393 12.4884 176.784 13.7474C177.315 14.2284 177.991 14.6224 178.286 14.6224C179.994 14.6224 185.654 18.0504 191.123 22.3974C193.574 24.3454 196.058 25.9134 200.965 28.6114C203.694 30.1114 205.921 31.8424 205.921 32.4634C205.921 32.7094 206.587 33.6893 207.401 34.6413C208.215 35.5933 208.89 36.6794 208.901 37.0544C208.912 37.4294 209.346 38.5544 209.865 39.5544C211.105 41.9424 211.765 44.4974 212.401 49.3724C213.018 54.1084 212.098 62.9144 210.449 68.0494C209.487 71.0484 209.471 71.4274 210.175 74.7994C211.721 82.2094 210.948 85.9204 206.646 91.7384C200.792 99.6574 199.617 104.828 202.575 109.665C204.62 113.01 207.561 117.122 207.909 117.122C208.49 117.122 211.794 122.22 212.93 124.872C214.138 127.691 214.308 131.675 213.461 137.372C212.578 143.311 212.744 144.621 214.66 146.861L216.362 148.85L218.655 147.736C221.519 146.345 223.407 146.324 225.114 147.666C226.934 149.098 227.921 151.187 227.921 153.608C227.921 155.388 227.592 155.981 225.296 158.338C222.252 161.462 219.873 162.331 215.178 162.032C211.609 161.805 208.224 159.783 206.341 156.754C205.267 155.026 205.142 154.117 204.82 145.622C204.391 134.282 204.092 131.945 202.779 129.66C202.214 128.677 201.309 126.972 200.767 125.872C200.225 124.772 198.934 122.621 197.897 121.091C193.993 115.333 190.921 109.408 190.921 107.637C190.921 106.356 190.107 105.916 189.7 106.977C189.521 107.444 189.24 109.568 189.075 111.697C188.75 115.921 188.817 116.182 192.031 123.122C195.867 131.405 195.86 131.374 196.196 140.622C196.361 145.16 196.682 150.334 196.91 152.122C197.416 156.107 200.099 161.633 202.304 163.237C203.163 163.861 204.839 165.078 206.028 165.942C212.394 170.563 223.19 169.124 228.024 163.009C230.63 159.713 231.108 158.399 231.141 154.443C231.168 151.187 231.02 150.603 229.748 148.933C227.691 146.23 223.644 144.425 220.351 144.742L217.799 144.987L218.142 142.429C218.33 141.023 218.698 138.635 218.96 137.122C219.222 135.609 219.573 132.098 219.741 129.318L220.046 124.264L218.206 120.541C216.874 117.846 215.07 115.445 211.67 111.845C206.245 106.1 205.358 104.784 206.444 104.097C206.844 103.844 207.75 103.634 208.457 103.63C211.983 103.609 223.609 96.3824 228.9 90.9224C230.126 89.6574 231.364 88.6114 231.65 88.5984C231.937 88.5854 233.689 86.6604 235.543 84.3204C239.098 79.8364 243.132 72.1974 243.876 68.5444C244.119 67.3494 244.678 64.5724 245.119 62.3724C245.648 59.7314 245.921 55.7384 245.92 50.6224C245.92 38.8424 244.523 33.1534 238.786 21.5624C236.66 17.2664 234.921 13.5164 234.921 13.2274C234.921 12.9394 233.812 11.4894 232.456 10.0064C230.089 7.41636 223.734 3.62236 221.762 3.62236C221.339 3.62236 220.623 3.25234 220.171 2.80134C219.488 2.11834 219.462 1.86735 220.013 1.31535C220.895 0.433349 226.966 -0.0966375 231.107 0.347362C234.937 0.757362 236.401 1.64837 243.106 7.65437C245.675 9.95537 248.081 11.6623 249.25 12.0133C250.307 12.3303 253.308 14.0473 255.921 15.8273C258.534 17.6073 261.683 19.6863 262.921 20.4463C270.619 25.1713 284.832 37.6054 289.934 44.0754C290.889 45.2864 292.59 47.3114 293.713 48.5754C294.836 49.8384 296.456 51.8854 297.312 53.1224C298.169 54.3594 299.769 56.4903 300.868 57.8553C301.968 59.2213 303.003 60.8814 303.169 61.5444C303.336 62.2064 304.248 63.7654 305.196 65.0074C306.145 66.2494 306.921 67.4624 306.921 67.7024C306.921 67.9434 307.932 69.8054 309.169 71.8414C310.405 73.8784 311.632 76.1134 311.897 76.8094C312.161 77.5044 312.975 79.0194 313.705 80.1754C314.435 81.3324 315.697 83.8744 316.511 85.8254C318.367 90.2794 319.152 92.0514 321.067 96.1224C321.908 97.9104 322.758 100.16 322.955 101.122C323.411 103.347 325.904 110.22 326.483 110.847C326.724 111.108 326.921 111.786 326.921 112.354C326.921 112.922 327.391 114.62 327.966 116.129C328.541 117.638 329.311 120.222 329.677 121.872C330.043 123.522 330.6 125.772 330.914 126.872C331.228 127.972 331.692 129.843 331.944 131.03C332.197 132.218 332.525 133.386 332.673 133.626C332.822 133.866 333.267 136.158 333.662 138.718C334.058 141.277 334.616 144.609 334.904 146.122C336.059 152.193 336.469 158.988 336.44 171.622C336.407 186.095 335.943 193.718 334.718 199.872C334.281 202.072 333.69 205.222 333.406 206.872C332.626 211.401 331.908 214.47 330.623 218.768C329.982 220.911 329.307 223.499 329.121 224.518C328.936 225.538 328.377 227.272 327.881 228.372C327.384 229.472 326.16 232.847 325.161 235.872C323.002 242.409 321.056 246.221 319.984 246.015C319.326 245.888 319.219 243.658 319.176 229.12C319.126 212.354 319.052 211.42 317.077 202.622C316.676 200.834 316.235 198.81 316.097 198.122C315.959 197.434 315.638 196.366 315.383 195.747C315.129 195.128 314.735 194.116 314.508 193.497C313.394 190.466 311.574 187.396 309.148 184.455C303.855 178.038 301.131 176.91 295.693 178.882C291.759 180.309 289.982 181.673 283.79 188.015C280.976 190.898 279.08 192.481 278.79 192.191C278.532 191.933 278.121 189.506 277.876 186.797C276.87 175.68 275.146 170.538 270.825 165.766C267.123 161.678 258.838 155.698 256.733 155.594C256.424 155.579 255.702 154.96 255.129 154.219C254.252 153.085 253.989 151.62 253.465 144.961C252.79 136.358 252.569 135.353 250.377 130.872C248.274 126.574 245.844 123.47 242.547 120.872C239.517 118.485 234.135 115.654 230.321 114.443C228.891 113.988 229.802 115.325 231.407 116.036C232.215 116.393 234.674 118.311 236.871 120.297C244.853 127.513 249.899 137.972 249.932 147.372C249.944 150.785 251.617 156.09 253.504 158.692C254.174 159.616 255.04 161.047 255.428 161.872C255.817 162.697 256.495 163.934 256.935 164.622C258.249 166.675 259.65 172.217 260.411 178.372C260.717 180.847 261.176 183.525 261.43 184.324C262.223 186.815 265.069 191.103 267.545 193.538C268.851 194.821 269.92 196.043 269.92 196.252C269.922 197.18 272.207 201.434 273.021 202.025C273.516 202.385 273.921 202.978 273.921 203.343C273.921 203.709 274.266 204.652 274.687 205.44C275.244 206.481 275.37 207.633 275.148 209.662C274.825 212.613 274.723 212.326 278.232 218.372C280.72 222.657 281.1 224.363 280.982 230.703C280.914 234.346 281.069 236.655 281.397 236.857C281.685 237.035 281.921 237.626 281.921 238.169C281.921 238.713 282.246 239.656 282.643 240.265C284.059 242.436 284.624 245.962 284.713 253.186C284.801 260.352 285.17 262.599 286.834 266.122C288.14 268.887 287.986 276.234 286.561 279.122C285.95 280.359 285.224 282.677 284.948 284.272C284.164 288.8 282.837 291.288 280.262 293.06C279.013 293.919 277.791 294.622 277.546 294.622C276.618 294.622 272.853 298.305 271.135 300.894C269.062 304.016 268.132 304.343 262.182 304.042L258.434 303.853L255.399 300.863C251.275 296.798 250.129 294.91 250.84 293.349C251.377 292.172 251.858 291.969 255.458 291.395C256.481 291.231 257.801 290.524 258.545 289.741C259.952 288.258 262.921 279.977 262.921 277.536C262.921 275.148 258.596 267.622 257.224 267.622C256.291 267.622 255.211 268.963 253.459 272.298C252.23 274.635 251.919 275.842 251.913 278.298C251.905 281.959 250.92 285.085 249.472 286.046C248.606 286.621 248.153 286.632 246.891 286.11C244.561 285.145 243.152 282.836 241.763 277.71L240.501 273.049L241.738 269.71C242.457 267.769 243.175 264.349 243.453 261.538C243.942 256.593 245.548 252.417 247.949 249.848C249.473 248.217 249.697 245.94 248.524 244.024C247.967 243.115 246.53 240.459 245.331 238.122C244.131 235.785 242.233 232.635 241.114 231.122C239.068 228.357 238.564 227.268 237.411 223.122C235.546 216.414 234.921 213.387 234.921 211.067C234.921 208.654 234.044 207.266 229.39 202.311C227.55 200.352 225.118 197.384 223.985 195.717C221.946 192.714 221.068 191.808 220.626 192.25C220.5 192.376 220.711 195.942 221.094 200.175C221.592 205.679 221.665 209.51 221.351 213.622C220.952 218.836 220.689 220.169 219.426 223.372C217.129 229.193 218.087 235.968 222.007 241.644C223.06 243.168 223.921 244.791 223.921 245.25C223.921 245.709 224.967 248.249 226.246 250.894C228.623 255.813 229.109 257.436 229.904 263.122C230.155 264.91 230.625 267.609 230.95 269.122C231.275 270.635 231.644 275.247 231.769 279.372C232.011 287.303 231.661 289.522 229.724 292.346C228.217 294.541 224.208 303.047 223.466 305.622C223.109 306.859 222.615 308.389 222.369 309.021C221.699 310.738 221.839 313.596 222.718 316.118C223.744 319.068 224.028 319.374 228.36 322.208C231.77 324.439 232.285 324.622 235.161 324.622C241.594 324.622 246.605 327.395 250.172 332.927C251.441 334.896 251.845 336.101 251.932 338.177C252.108 342.376 252.042 342.622 250.748 342.622C250.103 342.622 248.809 342.228 247.873 341.747C246.76 341.175 245.033 340.872 242.884 340.872C240.136 340.872 239.258 341.097 237.52 342.247C236.377 343.003 235.107 343.622 234.697 343.622C234.287 343.622 232.201 343.042 230.061 342.334C225.649 340.873 222.713 340.932 219.238 342.553C217.111 343.545 214.12 344.04 211.921 343.763ZM153.171 198.911C154.546 198.278 156.93 196.548 158.469 195.066C160.928 192.698 161.435 191.857 162.652 188.122C164.292 183.09 164.682 179.153 164.014 174.372C163.535 170.945 161.335 164.103 159.914 161.622C157.749 157.839 156.936 149.596 158.136 143.58C159.072 138.889 159.325 137.987 161.214 132.622C164.575 123.077 165.226 120.137 164.52 117.698C162.586 111.021 161.631 108.127 161.36 108.125C161.189 108.123 160.904 109.028 160.727 110.136C160.55 111.243 159.846 113.814 159.163 115.849C158.48 117.883 157.921 119.812 157.921 120.135C157.921 120.457 156.346 123.939 154.421 127.872C152.496 131.805 150.921 135.364 150.921 135.781C150.921 136.198 150.504 137.514 149.995 138.706C147.801 143.841 148.529 156.154 151.395 162.372C151.648 162.922 152.347 164.834 152.947 166.622C153.547 168.41 154.446 170.548 154.945 171.375C156.305 173.63 157.142 180.897 156.435 184.306C155.501 188.805 152.25 192.736 148.291 194.153C144.805 195.401 139.471 193.08 137.71 189.549C135.882 185.886 137.328 178.622 139.885 178.622C140.18 178.622 140.421 178.397 140.421 178.122C140.421 175.698 134.192 181.419 133.643 184.347C133.017 187.683 133.838 191.338 135.944 194.597C137.857 197.557 138.842 198.26 143.921 200.295C145.333 200.86 150.669 200.062 153.171 198.911ZM192.818 199.803C196.453 198.916 198.1 197.715 200.363 194.302C203.687 189.288 203.499 183.664 199.9 180.413C197.652 178.381 195.921 177.37 195.921 178.087C195.921 178.362 196.331 178.806 196.833 179.075C199.07 180.272 199.578 186.663 197.691 189.882C195.835 193.05 194.303 193.862 190.171 193.865C185.984 193.869 184.289 193.018 181.794 189.661C179.615 186.729 178.921 184.223 178.921 179.286C178.921 175.136 180.056 171.546 183.995 163.239C186.417 158.129 187.073 154.981 187.095 148.372C187.113 142.835 186.986 142.005 185.454 137.622C184.54 135.01 183.146 131.46 182.357 129.734C181.567 128.009 180.921 126.496 180.921 126.372C180.921 126.248 180.246 124.673 179.421 122.872C178.596 121.071 177.921 119.302 177.921 118.942C177.921 118.582 177.49 116.956 176.962 115.33C176.435 113.703 175.751 111.416 175.443 110.247C174.868 108.068 173.921 107.353 173.921 109.098C173.921 109.636 173.668 110.704 173.359 111.473C173.05 112.243 172.615 113.322 172.394 113.872C171.287 116.62 170.738 120.139 171.325 120.726C171.653 121.054 171.921 121.786 171.921 122.354C171.921 122.922 172.392 124.62 172.968 126.129C173.544 127.638 174.204 129.772 174.435 130.872C174.666 131.972 175.201 133.692 175.623 134.695C176.045 135.697 176.609 137.722 176.875 139.195C177.141 140.667 177.705 143.534 178.128 145.566C178.915 149.346 178.835 152.828 177.878 156.372C177.582 157.472 177.216 159.047 177.067 159.872C176.918 160.697 176.635 161.597 176.44 161.872C176.244 162.147 175.629 163.609 175.073 165.122C170.925 176.4 170.589 182.888 173.811 189.503C176.361 194.74 179.885 198.339 183.671 199.573C187.42 200.795 188.632 200.826 192.818 199.803ZM51.4611 160.928C50.8291 154.664 51.459 130.777 52.438 123.872C53.958 113.152 55.799 102.143 56.869 97.3724C57.116 96.2724 57.4701 94.5844 57.6551 93.6224C58.0841 91.3874 59.8071 83.9774 60.5031 81.3724C61.5501 77.4534 62.9021 73.0634 63.4301 71.8724C63.6741 71.3224 64.7741 68.1683 65.8751 64.8623C68.3181 57.5293 71.898 49.6224 72.775 49.6224C73.141 49.6224 73.4301 50.2184 73.4431 50.9974C73.4891 53.9624 74.4691 68.6144 74.9051 72.8724C75.6571 80.2054 76.612 83.4294 80.312 91.1174C83.368 97.4684 89.401 105.863 92.438 107.99C93.538 108.76 93.7801 108.057 92.7691 107.033C90.8101 105.049 86.214 96.9924 84.407 92.3724C80.319 81.9204 79.4721 78.7744 78.4301 70.1674C77.4501 62.0774 78.1661 45.2103 79.5471 43.8293C79.7531 43.6233 79.9211 42.6264 79.9211 41.6134C79.9211 40.6004 80.1221 39.1194 80.3671 38.3224C80.6121 37.5244 81.0861 35.5224 81.4211 33.8724C81.7551 32.2224 82.2591 30.2464 82.5421 29.4814C82.8241 28.7164 82.9351 27.9704 82.7881 27.8224C82.4931 27.5274 76.9971 31.5754 75.9021 32.8954C75.5221 33.3534 73.852 34.6413 72.191 35.7583C68.174 38.4603 67.218 39.2684 59.995 46.0624C56.598 49.2584 53.129 52.8854 52.286 54.1224C51.444 55.3594 49.7931 57.6094 48.6171 59.1224C43.1321 66.1774 39.761 70.8834 39.16 72.3214C38.799 73.1854 38.0201 74.3304 37.4281 74.8654C36.8371 75.4014 35.5651 77.4084 34.6021 79.3274C33.6401 81.2454 32.4691 83.3904 32.0011 84.0934C31.1891 85.3154 29.1641 89.3764 26.1291 95.8724C25.3581 97.5224 24.3871 99.4094 23.9711 100.066C23.2721 101.171 20.677 108.067 20.093 110.372C19.516 112.654 15.7421 124.558 14.8631 126.872C13.8481 129.543 12.7061 134.683 11.8641 140.372C11.5801 142.297 11.1481 145.222 10.9061 146.872C9.40405 157.093 8.59005 167.622 9.30205 167.622C9.59305 167.622 9.94705 166.328 10.088 164.747C10.43 160.896 11.1131 157.35 12.0381 154.622C12.4581 153.385 13.068 150.91 13.395 149.122C14.155 144.956 15.2331 139.935 16.4541 134.872C17.3511 131.152 21.551 118.501 23.468 113.747C24.564 111.026 24.8571 110.271 25.4501 108.622C25.7971 107.66 26.691 105.522 27.438 103.872C28.185 102.222 29.1931 99.9724 29.6791 98.8724C31.9001 93.8384 34.2611 89.1124 36.0131 86.1964C37.0621 84.4494 37.9211 82.9234 37.9211 82.8054C37.9211 82.4934 44.434 72.7724 46.452 70.0714C47.397 68.8064 49.8951 65.4313 52.0031 62.5713C54.1101 59.7123 57.2601 55.8683 59.0031 54.0293C60.7451 52.1913 63.5211 49.1144 65.1711 47.1924C67.9961 43.9024 69.2831 42.8184 69.7771 43.3124C69.8941 43.4294 69.785 43.9403 69.534 44.4483C69.284 44.9563 68.5491 46.4974 67.9011 47.8724C67.2541 49.2474 66.3601 50.9344 65.9161 51.6224C65.4711 52.3104 64.801 53.8854 64.427 55.1224C64.053 56.3594 63.5611 57.5863 63.3341 57.8473C63.1071 58.1083 62.9211 58.6254 62.9211 58.9964C62.9211 59.3674 62.4711 60.6023 61.9211 61.7403C61.3711 62.8783 60.9211 64.2044 60.9211 64.6864C60.9211 65.1694 60.6961 65.7024 60.4211 65.8724C60.1461 66.0424 59.9211 66.6214 59.9211 67.1584C59.9211 67.6964 59.7241 68.5264 59.4841 69.0044C58.4751 71.0054 55.712 79.6864 54.911 83.3724C54.671 84.4724 54.228 86.3854 53.925 87.6224C52.933 91.6734 52.4391 94.3144 51.9591 98.1224C51.6991 100.184 51.1561 104.459 50.7531 107.622C48.7891 123.027 48.2121 151.172 49.7421 156.872C50.1861 158.522 50.642 161.447 50.757 163.372C50.871 165.297 51.1021 167.209 51.2701 167.622C51.9301 169.241 52.0111 166.384 51.4611 160.928ZM326.444 153.872C326.13 150.847 325.635 146.91 325.345 145.122C324.771 141.586 321.723 128.634 320.7 125.388C320.351 124.279 319.773 122.359 319.416 121.122C316.96 112.612 314.326 105.432 311.345 99.1224C310.24 96.7854 308.99 93.8594 308.566 92.6224C308.143 91.3854 307.192 89.4724 306.453 88.3724C305.714 87.2724 304.269 84.6484 303.243 82.5404C302.216 80.4324 301.049 78.4364 300.649 78.1044C300.249 77.7714 299.92 77.2464 299.919 76.9364C299.918 76.6264 299.063 75.2464 298.019 73.8704C296.976 72.4944 295.989 71.0314 295.826 70.6204C295.512 69.8284 291.808 64.6864 288.285 60.1524C287.122 58.6554 284.885 55.7543 283.314 53.7043C279.516 48.7473 268.834 38.9154 260.879 33.0534C259.522 32.0534 257.42 30.4224 256.207 29.4284C253.529 27.2344 252.846 27.1274 253.458 28.9974C253.968 30.5514 255.237 36.5444 255.9 40.5234C256.143 41.9814 256.578 43.4594 256.866 43.8064C257.155 44.1544 257.661 48.0234 257.991 52.4054C258.652 61.1844 258.174 70.6814 256.765 76.7204C255.942 80.2514 253.061 89.0224 252.446 89.8724C252.247 90.1474 251.558 91.7224 250.915 93.3724C250.271 95.0224 249.159 97.2724 248.443 98.3724C247.726 99.4724 246.845 100.959 246.484 101.676C246.123 102.394 244.937 104.158 243.848 105.597C242.759 107.035 241.941 108.431 242.03 108.698C242.302 109.516 248.034 103.501 250.539 99.7674C259.142 86.9444 262.921 73.7973 262.921 56.6913C262.921 52.4183 263.111 49.1364 263.343 49.3974C263.575 49.6584 264.291 51.2224 264.935 52.8724C265.578 54.5224 266.386 56.3224 266.731 56.8724C267.076 57.4224 267.719 58.9974 268.159 60.3724C268.598 61.7474 269.318 63.5214 269.757 64.3144C270.197 65.1074 270.727 66.4574 270.936 67.3144C271.145 68.1714 271.66 69.8854 272.081 71.1224C273.452 75.1514 275.804 83.3104 276.369 85.9974C277.585 91.7804 279.368 100.383 280.436 105.622C280.975 108.268 282.334 116.894 282.996 121.872C283.639 126.706 284.32 134.777 284.957 145.122C285.554 154.814 285.549 154.402 285.124 161.297C284.921 164.597 285.003 166.404 285.371 166.772C285.771 167.172 285.921 165.89 285.921 162.072C285.921 158.822 286.137 156.606 286.489 156.254C286.892 155.851 287.04 150.86 286.999 139.029C286.943 122.692 286.518 115.619 285.081 107.122C284.096 101.294 283.547 97.9444 282.949 94.1224C282.467 91.0374 281.978 88.7404 280.898 84.4974C280.636 83.4664 280.223 81.7784 279.982 80.7474C279.396 78.2454 277.093 71.1414 275.578 67.1604C274.906 65.3934 273.791 62.2434 273.101 60.1604C272.411 58.0764 270.993 54.5724 269.95 52.3724C267.769 47.7704 265.767 43.5414 265.513 42.9974C265.417 42.7914 265.583 42.6224 265.883 42.6224C266.769 42.6224 275.843 51.9544 280.467 57.6224C285.169 63.3854 293.782 75.8874 295.783 79.8544C296.481 81.2394 297.665 83.2724 298.413 84.3724C302.066 89.7454 306.822 99.2814 309.883 107.372C311.474 111.577 311.719 112.207 312.306 113.622C313.547 116.608 315.852 123.054 316.42 125.122C317.077 127.519 317.783 129.743 318.402 131.372C319.302 133.739 320.199 137.233 321.931 145.122C322.505 147.734 323.17 150.66 323.41 151.622C323.65 152.584 324.104 154.722 324.419 156.372C324.734 158.022 325.201 160.186 325.456 161.18C325.712 162.174 325.921 163.675 325.921 164.514C325.921 165.353 326.09 166.452 326.296 166.956C326.947 168.546 327.048 159.673 326.444 153.872ZM189.293 88.3104C190.46 87.6354 191.782 86.3744 192.23 85.5084C192.678 84.6414 193.472 83.5814 193.994 83.1524C195.099 82.2444 195.492 77.9934 194.557 77.0584C193.218 75.7194 188.098 78.9534 182.397 84.7384C179.129 88.0554 178.529 88.9004 179.024 89.4964C179.972 90.6394 186.588 89.8754 189.293 88.3104ZM156.921 89.0874C156.921 87.9984 150.731 81.6814 148.579 80.5754C147.355 79.9454 146.151 79.0534 145.905 78.5914C145.372 77.5974 142.106 75.9494 141.459 76.3494C140.689 76.8244 140.34 80.3444 140.914 81.8524C141.214 82.6424 142.691 84.4714 144.196 85.9184C146.462 88.0954 147.385 88.6304 149.552 89.0254C153.245 89.6994 156.921 89.7304 156.921 89.0874Z" fill="black"/>
</svg>
