<svg xmlns="http://www.w3.org/2000/svg" viewBox="0 0 200 201" width="200" height="201"><path d="M 13.700,189.117 C 13.397,188.915 12.884,188.246 12.560,187.630 C 11.350,185.332 14.208,183.000 18.233,183.000 C 20.183,183.000 20.533,182.815 21.478,181.285 C 22.754,179.222 25.617,176.632 27.431,175.902 C 28.156,175.609 30.208,175.118 31.990,174.810 L 35.231,174.250 L 35.808,171.642 C 36.584,168.135 38.602,164.828 40.792,163.474 C 41.782,162.862 44.203,161.941 46.171,161.427 C 49.974,160.434 51.580,159.503 53.179,157.361 L 54.170,156.033 L 52.585,153.517 C 51.713,152.133 50.286,149.866 49.413,148.480 C 48.051,146.319 47.820,145.478 47.788,142.576 C 47.720,136.512 51.322,131.922 57.267,130.496 C 59.488,129.963 60.219,129.993 62.349,130.700 C 65.181,131.641 67.590,133.773 69.154,136.724 C 70.064,138.440 70.230,139.598 70.239,144.288 C 70.250,149.611 70.195,149.899 68.828,151.691 C 68.047,152.716 65.852,154.719 63.951,156.142 C 62.050,157.564 60.358,159.183 60.190,159.739 C 59.686,161.404 57.636,163.834 55.751,164.999 C 53.612,166.321 49.145,167.999 47.757,168.002 C 45.956,168.005 43.634,169.827 43.006,171.732 C 41.978,174.846 42.122,174.919 51.050,175.825 L 53.850,176.109 L 56.050,173.434 C 59.987,168.646 63.675,165.275 65.750,164.571 C 69.650,163.247 71.821,161.647 72.938,159.271 C 74.308,156.355 75.724,150.865 76.489,145.500 C 77.699,137.019 78.139,136.417 88.010,129.718 C 90.818,127.813 93.402,125.845 93.753,125.345 C 94.529,124.237 94.223,122.856 92.944,121.700 C 92.031,120.873 91.906,120.904 90.119,122.401 C 86.916,125.085 77.913,131.580 77.697,131.363 C 77.583,131.250 77.751,126.611 78.071,121.055 L 78.651,110.953 L 76.950,109.170 C 76.015,108.189 73.279,105.930 70.871,104.150 C 65.834,100.428 64.354,98.294 63.484,93.500 C 62.794,89.702 60.773,84.931 59.247,83.497 C 58.658,82.944 56.856,82.147 55.242,81.727 C 53.628,81.306 51.611,80.532 50.760,80.006 C 47.935,78.260 46.028,73.423 46.717,69.750 C 47.015,68.160 47.200,68.000 48.737,68.000 C 50.739,68.000 52.000,69.089 52.000,70.819 C 52.000,71.505 52.243,72.520 52.540,73.075 C 53.084,74.091 55.811,75.500 57.234,75.500 C 58.630,75.500 58.061,73.034 55.944,69.918 C 54.118,67.228 53.953,66.751 54.463,65.632 C 55.749,62.809 61.473,65.629 63.312,69.990 C 63.740,71.006 64.004,73.004 63.946,74.789 C 63.860,77.445 64.043,78.138 65.333,80.049 C 67.432,83.158 68.777,86.272 69.522,89.750 C 69.875,91.400 70.466,93.360 70.835,94.106 C 71.417,95.282 77.960,101.000 78.723,101.000 C 78.875,101.000 79.003,100.381 79.006,99.625 C 79.024,95.544 82.475,87.752 86.774,82.087 C 88.167,80.252 92.107,76.341 95.528,73.398 C 99.195,70.244 101.818,67.609 101.915,66.982 C 102.080,65.919 100.766,64.000 99.874,64.000 C 99.204,64.000 89.326,72.776 85.730,76.567 C 84.070,78.318 82.045,80.818 81.230,82.124 C 80.416,83.430 79.581,84.499 79.375,84.499 C 79.169,84.500 79.000,80.030 79.000,74.566 L 79.000,64.633 L 75.108,60.941 C 72.816,58.768 69.989,56.655 68.233,55.803 C 66.093,54.765 63.939,53.011 60.612,49.598 L 55.974,44.839 L 51.089,45.370 C 39.157,46.667 33.595,42.868 30.046,31.000 C 29.430,28.938 28.758,26.698 28.554,26.023 C 28.311,25.222 27.673,24.676 26.716,24.450 C 25.910,24.260 24.607,23.958 23.821,23.779 C 23.034,23.600 21.234,22.366 19.821,21.036 C 18.407,19.707 16.549,18.469 15.693,18.285 C 12.664,17.634 11.270,15.299 12.518,12.967 C 13.026,12.017 14.529,12.000 99.690,12.000 C 183.005,12.000 186.377,12.035 187.173,12.914 C 188.991,14.924 187.446,17.993 184.206,18.806 C 183.583,18.962 182.455,19.982 181.699,21.073 C 179.985,23.547 178.341,24.735 175.620,25.468 C 174.454,25.782 173.500,26.112 173.500,26.201 C 173.500,26.290 173.271,27.570 172.991,29.045 C 171.912,34.739 168.305,37.763 161.978,38.277 C 159.928,38.444 157.087,38.925 155.665,39.346 C 153.413,40.013 152.954,40.379 152.110,42.181 C 146.435,54.288 145.029,56.143 139.704,58.557 C 137.954,59.351 136.177,60.000 135.756,60.000 C 134.172,60.000 130.185,62.300 127.824,64.577 L 125.377,66.935 L 125.703,69.593 C 125.882,71.054 126.052,75.737 126.081,80.000 C 126.128,86.949 126.016,88.059 124.989,90.737 C 124.271,92.611 122.941,94.679 121.422,96.286 C 118.992,98.855 118.483,100.283 119.600,101.400 C 120.626,102.426 121.776,102.073 124.113,100.016 C 125.352,98.925 126.509,98.175 126.683,98.350 C 126.857,98.524 126.999,99.923 126.999,101.458 C 126.998,102.994 127.230,107.287 127.514,111.000 C 127.799,114.713 128.152,119.336 128.299,121.274 C 128.639,125.755 129.050,126.512 130.610,125.538 C 131.760,124.819 132.785,124.302 138.248,121.686 C 140.396,120.657 141.343,119.896 141.588,119.000 C 142.808,114.542 143.293,113.373 144.556,111.840 C 147.259,108.561 152.873,106.893 154.016,109.029 C 154.984,110.839 154.179,112.661 152.005,113.579 C 150.859,114.063 149.617,115.104 149.022,116.079 C 147.803,118.078 147.767,118.442 148.751,118.820 C 150.027,119.309 152.088,118.512 153.527,116.971 C 154.538,115.889 155.360,115.500 156.639,115.500 C 158.876,115.500 159.611,116.370 159.045,118.344 C 158.290,120.974 157.495,122.025 155.117,123.534 C 153.155,124.778 152.299,125.000 149.470,125.000 C 146.887,125.000 145.847,125.227 144.858,126.004 C 144.156,126.556 141.595,127.920 139.166,129.035 C 134.812,131.034 132.000,133.101 132.000,134.302 C 132.000,135.027 135.156,137.538 137.149,138.397 C 137.918,138.729 139.155,139.002 139.899,139.005 C 143.317,139.019 148.240,141.204 150.266,143.607 C 152.616,146.394 153.147,148.286 153.095,153.696 C 153.039,159.548 153.280,160.127 157.482,164.250 C 159.164,165.900 161.457,168.656 162.579,170.375 L 164.617,173.500 L 167.401,173.500 C 172.063,173.500 175.229,175.555 178.671,180.814 C 179.641,182.297 180.638,183.250 181.251,183.280 C 181.800,183.307 183.164,183.367 184.281,183.414 C 187.741,183.560 189.757,186.672 187.714,188.714 C 187.006,189.423 178.419,189.499 100.589,189.492 C 53.103,189.488 14.002,189.319 13.700,189.117 Z M 155.500,172.468 C 155.500,172.176 153.809,170.162 151.742,167.992 C 146.792,162.795 146.000,160.906 146.000,154.296 C 146.000,149.630 145.900,149.081 144.875,148.120 C 143.412,146.750 141.379,146.000 139.128,146.000 C 136.906,146.000 134.303,145.139 132.028,143.652 C 131.082,143.033 130.210,142.623 130.093,142.741 C 129.975,142.859 130.123,144.371 130.422,146.103 C 130.721,147.834 131.230,150.861 131.555,152.830 C 131.879,154.799 132.618,157.328 133.197,158.450 C 134.868,161.687 141.785,169.370 144.086,170.544 C 147.616,172.345 155.500,173.674 155.500,172.468 Z M 61.979,149.077 C 63.808,147.337 64.000,146.921 64.000,144.683 C 64.000,139.484 60.649,135.768 57.619,137.607 C 54.306,139.617 53.776,143.681 56.401,146.956 C 57.191,147.943 58.107,149.256 58.436,149.875 C 59.247,151.397 59.632,151.310 61.979,149.077 Z M 107.523,116.984 C 110.167,115.101 111.082,113.284 111.066,109.947 C 111.054,107.443 110.819,106.607 109.718,105.164 C 106.905,101.476 103.214,100.323 99.686,102.031 C 92.865,105.333 93.189,115.841 100.177,117.980 C 102.391,118.657 105.827,118.191 107.523,116.984 Z M 120.806,54.951 C 123.209,53.037 125.272,51.939 125.687,52.353 C 125.859,52.526 126.000,53.529 126.000,54.583 C 126.000,55.638 126.100,56.500 126.221,56.500 C 126.343,56.500 127.187,56.068 128.096,55.541 C 129.006,55.013 131.550,53.986 133.750,53.258 C 139.797,51.257 142.239,48.373 145.400,39.500 C 147.458,33.726 147.975,31.683 148.124,28.750 C 148.237,26.505 148.148,26.263 147.250,26.379 C 138.502,27.512 134.136,28.767 130.885,31.082 C 128.782,32.580 127.018,36.604 126.976,40.000 C 126.922,44.437 126.366,46.714 125.288,46.922 C 123.606,47.245 116.000,52.082 116.000,52.828 C 116.000,54.024 117.479,56.500 118.194,56.500 C 118.562,56.500 119.737,55.803 120.806,54.951 Z M 78.000,52.125 C 78.000,51.007 76.684,44.257 76.049,42.116 C 74.532,37.001 70.340,31.558 67.370,30.846 C 66.754,30.699 64.900,30.231 63.250,29.807 C 59.229,28.773 59.000,28.799 59.000,30.279 C 59.000,32.237 60.057,36.105 60.973,37.500 C 61.425,38.188 62.334,39.835 62.994,41.160 C 64.450,44.086 66.398,46.055 69.734,47.976 C 71.118,48.773 73.375,50.217 74.750,51.185 C 77.634,53.215 78.000,53.321 78.000,52.125 Z M 49.644,38.414 C 51.994,38.056 53.460,37.609 53.340,37.286 C 53.019,36.417 52.041,31.899 51.743,29.907 C 51.475,28.120 51.380,28.046 48.608,27.474 C 45.379,26.806 41.871,25.168 39.624,23.278 C 37.889,21.817 36.893,21.674 35.995,22.756 C 34.905,24.070 37.718,33.725 39.911,36.196 C 40.730,37.118 44.253,38.964 45.250,38.992 C 45.525,39.000 47.502,38.740 49.644,38.414 Z M 163.995,30.812 C 165.379,30.177 166.345,28.497 166.589,26.301 C 166.741,24.936 166.545,24.767 163.250,23.404 C 161.093,22.512 159.079,22.013 158.000,22.103 C 156.069,22.265 156.348,21.529 155.231,29.402 L 154.854,32.055 L 158.802,31.719 C 160.973,31.534 163.310,31.126 163.995,30.812 Z M 36.018,115.033 C 35.733,114.501 35.500,113.038 35.500,111.783 L 35.500,109.500 L 33.361,109.500 C 30.765,109.500 28.882,108.325 29.097,106.839 C 29.290,105.498 31.195,104.517 33.625,104.507 L 35.500,104.500 L 35.500,101.850 C 35.500,98.861 36.079,98.000 38.090,98.000 C 39.601,98.000 39.871,98.567 40.117,102.250 L 40.250,104.250 L 42.737,104.407 C 45.719,104.595 46.500,105.148 46.500,107.074 C 46.500,108.764 45.124,109.500 41.967,109.500 L 40.000,109.500 L 40.000,112.150 C 40.000,113.608 39.730,115.070 39.400,115.400 C 38.481,116.319 36.596,116.114 36.018,115.033 Z M 161.591,82.360 C 161.299,82.008 160.990,80.489 160.905,78.985 L 160.750,76.250 L 159.000,76.367 C 155.094,76.628 153.207,75.034 154.709,72.743 C 155.339,71.782 155.995,71.524 158.119,71.401 L 160.750,71.250 L 161.000,68.250 C 161.240,65.366 161.307,65.244 162.725,65.082 C 164.672,64.861 165.500,66.046 165.500,69.054 C 165.500,71.648 165.882,71.999 168.306,71.629 C 170.340,71.319 172.000,72.235 172.000,73.668 C 172.000,75.291 171.070,76.000 168.941,76.000 C 165.922,76.000 165.500,76.348 165.500,78.836 C 165.500,80.063 165.267,81.501 164.982,82.033 C 164.395,83.130 162.391,83.323 161.591,82.360 Z M 100.317,112.964 C 99.305,112.168 99.000,111.485 99.000,110.019 C 99.000,107.370 100.289,105.921 102.706,105.853 C 106.473,105.746 108.338,110.026 105.682,112.682 C 104.082,114.282 102.124,114.384 100.317,112.964 Z" fill="#000000" fill-rule="evenodd" /></svg>