<svg xmlns="http://www.w3.org/2000/svg" viewBox="0 0 539 462" width="539" height="462"><path d="M 359.750,449.256 C 346.122,446.417 333.764,437.290 326.161,424.449 C 325.119,422.689 324.005,420.575 323.685,419.750 C 323.365,418.925 322.631,417.071 322.055,415.630 C 320.220,411.040 318.497,401.181 318.526,395.437 C 318.574,385.669 319.856,379.169 324.539,364.949 C 327.621,355.591 328.135,353.029 328.194,346.741 C 328.249,340.859 328.214,340.657 326.538,337.241 C 324.223,332.523 319.919,328.297 315.000,325.912 C 309.947,323.462 308.147,323.013 302.000,322.667 C 297.858,322.434 296.358,322.537 294.893,323.153 C 292.876,324.001 292.766,324.251 292.036,329.618 C 291.496,333.583 289.716,337.500 288.454,337.500 C 286.918,337.500 284.643,332.494 282.432,324.250 C 281.995,322.620 281.768,318.877 281.780,313.500 C 281.802,303.569 282.756,299.078 286.542,291.069 C 291.905,279.727 299.615,271.578 310.873,265.350 C 315.224,262.944 320.588,261.000 322.880,261.000 C 324.401,261.000 325.500,261.783 325.500,262.867 C 325.500,263.235 323.242,265.821 320.482,268.616 C 317.723,271.411 315.529,274.025 315.607,274.425 C 315.691,274.851 317.514,275.726 320.000,276.534 C 326.772,278.735 328.455,279.410 333.630,282.006 C 350.269,290.351 361.243,302.575 366.390,318.500 C 368.524,325.103 369.500,330.763 369.500,336.540 C 369.500,348.146 366.914,357.978 359.254,375.500 C 358.593,377.012 357.168,380.275 356.087,382.750 C 350.271,396.072 349.795,400.408 352.979,411.088 C 353.845,413.995 357.350,418.823 360.394,421.303 C 364.007,424.246 367.182,425.830 371.923,427.053 C 375.201,427.900 376.204,427.964 378.913,427.499 C 385.728,426.332 390.911,423.586 395.555,418.683 C 398.732,415.329 399.396,414.179 401.005,409.250 C 402.412,404.938 402.547,397.943 401.319,392.843 C 399.741,386.285 402.827,385.652 408.297,391.409 C 409.955,393.154 412.471,398.086 413.319,401.250 C 414.123,404.253 414.209,413.414 413.467,417.100 C 412.687,420.976 410.155,427.105 407.880,430.625 C 400.152,442.582 384.967,450.098 368.856,449.940 C 365.498,449.908 361.400,449.600 359.750,449.256 Z M 243.582,416.603 C 229.922,402.777 216.708,393.917 202.817,389.266 C 196.007,386.986 185.983,382.999 181.596,380.825 C 179.756,379.914 176.943,378.648 175.345,378.014 C 171.603,376.527 170.941,377.030 172.474,380.196 C 174.484,384.349 182.578,390.861 193.849,397.395 C 197.654,399.601 201.597,401.801 202.611,402.285 C 204.346,403.112 205.344,404.323 204.767,404.900 C 204.517,405.150 198.600,403.873 191.000,401.928 C 184.884,400.363 174.969,396.985 171.750,395.369 C 165.202,392.082 159.308,387.244 153.130,380.083 C 147.497,373.555 143.374,369.440 140.256,367.235 C 138.711,366.143 136.008,364.182 134.249,362.877 L 131.049,360.504 L 131.826,358.627 C 132.254,357.595 133.043,355.779 133.579,354.593 C 134.116,353.406 135.791,349.244 137.303,345.343 C 144.053,327.927 149.523,319.914 150.774,325.611 C 151.716,329.897 156.767,336.990 160.985,339.949 C 164.020,342.078 169.862,344.000 173.297,344.000 C 176.003,344.000 177.279,344.775 181.609,349.048 C 187.464,354.824 191.670,357.532 197.250,359.116 C 199.398,359.727 200.559,359.729 205.500,359.134 C 208.662,358.753 213.613,358.534 216.500,358.646 C 221.369,358.835 222.061,358.995 226.046,360.856 C 228.409,361.960 234.131,365.157 238.760,367.962 C 243.390,370.766 247.794,373.184 248.547,373.334 C 250.031,373.631 252.211,372.608 259.250,368.309 C 267.136,363.494 270.165,361.816 273.500,360.416 C 275.969,359.379 277.324,359.229 286.750,358.948 C 292.525,358.776 298.234,358.405 299.436,358.123 C 302.976,357.295 310.490,353.281 314.112,350.283 C 317.531,347.452 319.501,346.754 319.499,348.375 C 319.497,349.728 317.173,358.128 315.037,364.500 C 310.549,377.893 309.011,385.619 309.004,394.795 C 308.999,400.723 309.917,399.874 299.750,403.349 C 284.253,408.645 280.250,409.741 280.250,408.687 C 280.250,407.990 291.266,398.537 294.959,396.064 L 297.669,394.250 L 291.959,394.106 C 284.923,393.928 282.419,394.705 275.500,399.218 C 269.389,403.204 263.255,408.406 255.758,415.961 C 252.462,419.283 249.574,422.000 249.340,422.000 C 249.106,422.000 246.515,419.571 243.582,416.603 Z M 61.000,397.036 C 54.357,396.249 45.844,393.607 40.695,390.734 C 28.378,383.862 20.538,372.518 18.482,358.594 C 16.298,343.806 24.716,327.307 36.677,322.935 C 39.645,321.851 41.060,321.760 41.900,322.600 C 42.885,323.585 42.603,324.686 40.549,327.864 C 34.780,336.789 33.808,339.618 33.801,347.500 C 33.796,353.172 33.915,354.004 35.081,356.500 C 37.226,361.090 40.402,364.862 44.337,367.494 C 54.787,374.483 66.128,374.676 76.625,368.043 C 83.717,363.562 88.189,356.412 91.978,343.500 C 92.584,341.438 93.503,338.400 94.022,336.750 C 94.541,335.100 95.525,331.613 96.209,329.000 C 96.893,326.387 97.822,323.012 98.273,321.500 C 98.724,319.988 99.411,317.625 99.799,316.250 C 104.762,298.669 114.135,283.436 125.893,273.846 C 136.010,265.595 144.635,262.513 163.390,260.449 C 169.307,259.798 169.124,260.186 166.206,254.500 C 164.197,250.582 163.000,247.294 163.000,245.687 C 163.000,244.681 163.247,244.500 164.625,244.503 C 166.453,244.506 167.266,244.982 172.823,249.306 C 185.058,258.826 192.182,270.729 194.038,284.750 C 194.835,290.777 194.335,301.140 193.024,305.750 C 192.477,307.675 192.023,309.661 192.015,310.163 C 192.007,310.665 191.098,313.383 189.995,316.204 C 187.784,321.858 185.156,325.500 183.287,325.500 C 182.243,325.500 182.107,325.167 181.595,321.375 C 181.288,319.106 180.888,315.848 180.705,314.133 C 180.522,312.419 180.120,310.816 179.811,310.570 C 177.959,309.094 163.935,307.177 159.250,307.759 C 151.596,308.709 144.721,312.947 139.603,319.870 C 135.869,324.921 133.831,329.120 128.013,343.750 C 126.044,348.700 123.886,353.863 123.217,355.223 C 122.548,356.583 122.000,358.052 122.000,358.487 C 122.000,358.922 121.609,359.834 121.132,360.514 C 120.654,361.194 119.526,363.164 118.624,364.891 C 112.157,377.279 99.399,388.616 86.000,393.881 C 79.082,396.599 68.540,397.929 61.000,397.036 Z M 375.279,360.047 C 375.100,359.758 375.158,359.122 375.409,358.635 C 376.162,357.170 377.861,349.533 378.449,344.974 C 379.781,334.639 378.777,326.891 374.145,311.750 C 373.977,311.200 372.976,309.118 371.920,307.123 C 370.864,305.129 370.000,303.209 370.000,302.858 C 370.000,302.506 371.343,300.890 372.984,299.266 C 376.956,295.335 381.010,287.035 382.290,280.214 C 382.535,278.906 382.926,278.412 383.910,278.165 C 385.686,277.719 391.989,278.840 396.238,280.357 C 400.524,281.887 412.777,287.734 413.228,288.464 C 413.407,288.755 413.076,290.696 412.492,292.779 C 411.044,297.939 410.177,302.949 408.035,318.522 C 407.485,322.522 406.682,326.638 406.252,327.669 C 405.400,329.708 404.258,330.458 403.366,329.566 C 403.055,329.255 401.591,329.000 400.114,329.000 C 396.657,329.000 393.943,330.550 390.243,334.640 C 386.481,338.797 385.529,342.656 385.510,353.822 C 385.503,358.230 385.329,359.949 384.875,360.096 C 383.385,360.581 375.584,360.541 375.279,360.047 Z M 85.074,310.228 C 80.795,306.203 76.814,301.491 75.083,298.402 C 73.402,295.403 71.059,288.332 68.737,279.250 C 67.541,274.575 66.027,268.725 65.372,266.250 C 63.419,258.876 63.000,257.043 63.000,255.879 C 63.000,254.773 63.001,254.773 64.223,256.011 C 65.690,257.497 71.821,266.986 77.859,277.116 C 80.274,281.168 82.475,284.412 82.750,284.326 C 83.496,284.091 83.663,273.683 82.972,270.500 C 81.551,263.953 80.025,260.377 75.505,253.000 C 70.969,245.599 67.803,241.448 59.488,232.000 C 55.787,227.795 53.000,224.267 53.000,223.787 C 53.000,223.612 55.446,220.592 58.436,217.075 C 65.368,208.922 69.634,203.380 73.219,197.870 C 76.388,193.001 80.000,185.655 80.000,184.081 C 80.000,182.461 80.913,182.311 82.904,183.605 C 84.967,184.946 86.947,185.903 91.000,187.518 C 96.306,189.632 99.374,190.333 107.000,191.172 L 112.250,191.750 L 112.088,195.250 C 111.912,199.030 112.181,198.386 104.519,213.385 C 99.376,223.454 99.354,222.678 105.136,234.797 C 112.150,249.498 112.800,251.869 113.197,264.208 L 113.470,272.665 L 110.110,276.216 C 103.049,283.677 96.440,295.885 91.823,310.000 C 91.123,312.139 90.282,313.814 89.865,313.899 C 89.463,313.981 87.307,312.329 85.074,310.228 Z M 446.500,289.537 C 439.952,288.369 430.299,285.500 425.110,283.180 C 423.658,282.531 422.393,282.000 422.298,282.000 C 422.202,282.000 419.340,280.684 415.937,279.075 C 407.093,274.893 404.418,273.691 403.000,273.259 C 402.312,273.049 401.525,272.705 401.250,272.493 C 399.285,270.982 390.432,269.000 385.650,269.000 C 380.246,269.000 369.479,272.172 368.467,274.061 C 368.122,274.706 368.257,275.814 368.931,277.861 C 370.767,283.435 370.685,287.000 368.721,287.000 C 367.503,287.000 361.088,281.483 358.087,277.855 C 352.706,271.350 349.665,265.071 347.689,256.380 C 346.696,252.017 346.990,242.478 348.261,237.750 C 350.151,230.722 356.471,220.284 358.647,220.593 C 359.717,220.745 359.745,220.910 359.598,226.125 L 359.446,231.500 L 360.918,231.500 C 361.727,231.500 364.168,231.163 366.343,230.750 C 371.736,229.727 383.260,229.098 387.646,229.588 C 392.373,230.116 399.270,231.784 404.250,233.604 C 407.860,234.923 417.327,239.833 420.500,242.032 C 441.408,256.523 453.030,261.485 466.094,261.496 C 476.217,261.505 484.663,257.682 492.046,249.750 C 497.118,244.301 498.805,241.203 501.458,232.465 C 502.164,230.139 502.156,221.444 501.445,218.808 C 499.347,211.028 494.266,203.878 487.828,199.644 C 484.367,197.368 477.286,194.809 470.830,193.502 C 467.918,192.912 466.000,191.636 466.000,190.288 C 466.000,188.958 468.451,186.617 470.123,186.351 C 471.018,186.209 472.762,185.827 474.000,185.502 C 477.887,184.482 487.051,185.103 491.750,186.704 C 503.172,190.597 513.310,199.362 518.117,209.500 C 522.644,219.046 524.267,233.868 521.733,242.511 C 519.690,249.481 518.723,252.096 516.469,256.750 C 508.878,272.422 493.559,284.492 475.500,289.029 C 469.287,290.590 453.915,290.859 446.500,289.537 Z M 429.747,237.496 C 428.291,235.887 421.407,231.659 415.091,228.493 C 408.712,225.296 406.534,224.420 401.250,222.925 C 399.325,222.381 397.573,221.762 397.357,221.549 C 396.907,221.108 392.668,213.019 389.208,206.000 C 384.533,196.516 384.421,196.047 384.136,184.707 L 383.897,175.164 L 388.288,171.207 C 397.114,163.253 400.667,159.665 403.676,155.664 C 406.939,151.327 412.441,142.336 413.492,139.625 C 413.838,138.731 414.395,138.000 414.729,138.000 C 415.676,138.000 420.905,145.315 422.567,148.964 C 423.390,150.771 424.932,155.287 425.994,159.000 C 427.056,162.713 428.526,167.775 429.260,170.250 C 432.469,181.069 434.170,189.500 433.144,189.500 C 432.884,189.500 431.108,187.419 429.196,184.875 C 425.813,180.374 424.155,177.938 420.267,171.750 C 417.960,168.080 415.096,164.500 414.467,164.500 C 413.769,164.500 413.903,169.172 414.765,174.937 C 415.556,180.231 416.316,182.924 418.262,187.324 C 420.807,193.080 431.230,207.102 441.374,218.415 C 443.674,220.981 445.488,223.270 445.403,223.503 C 444.974,224.687 431.789,238.500 431.088,238.500 C 430.850,238.500 430.246,238.048 429.747,237.496 Z M 156.941,205.875 C 156.807,204.465 157.180,203.601 159.256,200.500 C 162.516,195.633 164.145,192.244 163.778,191.089 C 162.966,188.529 154.961,183.661 148.796,181.976 C 144.100,180.693 134.687,180.491 128.250,181.534 C 125.987,181.901 120.342,182.174 115.250,182.162 C 107.672,182.145 105.507,181.963 101.550,181.012 C 87.867,177.722 78.305,171.222 69.164,159.000 C 66.510,155.451 63.259,148.909 59.548,139.647 C 55.580,129.744 55.137,128.819 52.334,124.615 C 48.762,119.259 44.580,116.721 37.922,115.871 C 32.740,115.210 29.171,116.114 21.115,120.128 C 15.838,122.758 14.788,123.119 13.615,122.709 C 11.577,121.997 11.519,119.743 13.476,117.281 C 14.314,116.226 15.000,115.083 15.000,114.742 C 15.000,114.400 16.614,112.599 18.586,110.738 C 22.484,107.062 28.777,103.687 34.000,102.471 C 38.613,101.398 46.666,101.630 50.750,102.952 C 62.110,106.632 67.847,112.106 76.473,127.500 C 83.078,139.288 87.923,144.826 94.267,147.838 C 103.474,152.211 111.396,152.084 127.095,147.312 C 135.000,144.910 138.321,144.178 144.655,143.441 C 150.967,142.708 157.624,143.318 165.171,145.322 C 167.689,145.991 170.875,146.827 172.250,147.179 C 173.625,147.532 175.241,148.085 175.842,148.410 C 177.552,149.334 178.971,149.125 179.476,147.875 C 179.726,147.256 180.188,143.938 180.502,140.500 C 180.816,137.062 181.276,134.042 181.523,133.789 C 181.797,133.507 182.480,133.558 183.271,133.919 C 184.188,134.336 185.144,135.737 186.525,138.683 C 189.562,145.163 190.549,149.908 190.855,159.500 C 191.096,167.016 191.017,168.128 189.975,172.000 C 186.168,186.141 176.784,197.880 163.833,204.701 C 160.380,206.520 157.056,207.086 156.941,205.875 Z M 322.000,200.561 C 320.060,200.064 313.719,196.724 310.059,194.272 C 305.573,191.266 297.663,183.770 294.614,179.636 C 286.079,168.065 283.252,155.349 285.468,138.500 C 286.675,129.316 290.220,119.562 292.774,118.398 C 293.971,117.852 294.220,117.912 295.059,118.948 C 295.595,119.610 296.000,120.894 296.001,121.930 C 296.001,123.864 297.134,130.147 297.752,131.643 C 298.531,133.530 305.127,135.567 313.672,136.561 C 322.260,137.559 336.980,135.918 345.816,132.978 C 355.173,129.864 364.317,123.567 369.746,116.500 C 372.350,113.110 373.623,110.643 375.211,105.913 C 377.413,99.353 377.671,96.364 377.745,76.500 C 377.791,64.286 378.023,56.704 378.411,54.750 C 378.739,53.100 379.264,50.400 379.579,48.750 C 379.893,47.100 380.451,45.149 380.818,44.414 C 381.185,43.679 381.816,42.104 382.220,40.914 C 385.097,32.439 392.387,23.952 400.534,19.591 C 403.166,18.182 407.441,16.311 410.034,15.432 C 414.579,13.892 415.058,13.832 423.250,13.795 L 431.750,13.756 L 436.000,15.460 C 444.836,19.004 449.543,22.309 454.045,28.130 C 459.292,34.916 461.783,41.075 462.587,49.253 C 463.043,53.885 462.985,54.629 461.807,59.275 C 461.107,62.036 460.090,65.297 459.545,66.522 C 458.163,69.636 453.290,75.378 451.173,76.387 C 449.482,77.194 449.375,77.189 448.703,76.270 C 447.765,74.987 447.817,73.741 448.934,70.750 C 450.435,66.732 451.181,59.389 450.509,55.252 C 449.287,47.723 444.410,41.072 437.627,37.686 C 433.827,35.789 433.641,35.750 428.250,35.756 C 423.075,35.762 422.554,35.857 419.435,37.378 C 412.602,40.709 408.869,45.896 407.898,53.410 C 407.358,57.593 407.629,65.675 408.466,70.319 C 408.756,71.931 409.356,75.500 409.798,78.250 C 410.239,81.000 410.944,85.275 411.364,87.750 C 412.401,93.867 412.388,108.794 411.340,114.500 C 409.653,123.686 408.354,127.878 404.512,136.529 C 400.959,144.529 396.941,150.037 388.949,157.860 C 380.650,165.983 374.392,169.969 359.359,176.705 C 350.545,180.656 337.522,183.822 322.875,185.576 C 318.903,186.052 318.000,186.314 318.000,186.989 C 318.000,187.445 319.372,189.922 321.049,192.494 C 324.997,198.547 325.318,199.264 324.512,200.235 C 324.163,200.656 323.736,200.973 323.564,200.941 C 323.391,200.908 322.688,200.738 322.000,200.561 Z M 65.000,182.865 C 65.000,182.516 65.423,180.659 65.941,178.740 C 66.458,176.820 67.025,174.631 67.200,173.875 C 67.376,173.119 67.796,172.507 68.135,172.517 C 69.002,172.540 71.000,174.288 71.000,175.024 C 71.000,176.131 66.374,183.500 65.679,183.500 C 65.305,183.500 65.000,183.214 65.000,182.865 Z M 102.250,141.323 C 98.351,140.194 92.000,135.840 92.000,134.296 C 92.000,133.952 93.200,132.338 94.668,130.710 C 104.691,119.588 110.549,111.675 111.852,107.500 C 113.015,103.771 114.052,94.082 113.690,90.323 C 113.293,86.193 113.467,86.019 118.000,86.007 C 126.466,85.985 140.610,82.040 147.503,77.777 C 151.329,75.411 154.907,71.516 159.575,64.637 C 162.133,60.867 165.229,56.985 166.775,55.607 C 169.925,52.799 175.395,49.991 183.500,47.021 C 186.662,45.862 190.375,44.495 191.750,43.984 C 199.090,41.257 213.571,36.500 214.534,36.500 C 215.615,36.500 211.165,40.741 205.750,44.871 C 198.518,50.387 197.019,51.674 197.009,52.375 C 196.998,53.106 198.595,53.135 205.841,52.534 C 210.600,52.140 211.239,51.951 215.628,49.641 C 223.192,45.659 238.382,34.132 244.726,27.562 C 246.617,25.603 248.439,24.000 248.775,24.000 C 249.110,24.000 249.724,24.506 250.139,25.125 C 252.237,28.256 263.161,38.290 269.041,42.486 C 279.784,50.154 291.424,56.477 300.250,59.440 C 309.082,62.405 312.830,63.884 318.577,66.673 C 321.782,68.228 324.651,69.500 324.952,69.500 C 326.729,69.500 324.485,65.894 319.555,60.824 C 313.794,54.902 304.582,48.793 292.881,43.137 C 291.077,42.264 290.059,41.474 290.137,41.006 C 290.330,39.853 291.698,39.838 295.372,40.951 C 297.230,41.513 302.315,42.996 306.672,44.246 C 326.254,49.864 332.116,53.131 341.750,63.794 C 351.689,74.796 358.015,80.302 364.962,84.000 L 368.250,85.750 L 368.219,91.773 C 368.186,97.952 367.632,101.008 365.820,105.000 C 364.498,107.910 361.872,112.042 359.955,114.225 C 358.263,116.152 352.640,120.421 350.080,121.723 C 348.505,122.524 348.354,122.523 347.457,121.711 C 346.933,121.237 345.166,118.689 343.530,116.049 C 339.482,109.516 336.635,106.047 333.073,103.306 C 328.345,99.668 325.389,98.719 315.832,97.771 C 312.325,97.423 311.519,97.026 304.426,92.155 C 299.355,88.673 298.490,88.264 293.907,87.180 C 290.361,86.342 287.429,86.000 283.798,86.000 C 277.821,86.000 273.703,85.333 270.527,83.850 C 268.238,82.782 259.216,77.649 253.892,74.386 C 248.294,70.957 248.669,70.962 242.337,74.238 C 239.264,75.827 236.155,77.548 235.428,78.060 C 232.852,79.877 223.321,84.995 220.661,85.990 C 217.184,87.291 212.548,87.298 206.725,86.011 C 198.143,84.114 190.880,84.971 185.776,88.482 C 183.929,89.753 181.077,93.537 176.816,100.370 C 175.176,103.000 170.751,106.532 166.625,108.505 C 164.906,109.327 162.015,110.711 160.201,111.580 C 155.944,113.619 154.308,115.292 151.250,120.738 C 147.609,127.221 144.541,130.311 138.644,133.435 C 135.952,134.861 132.512,136.333 131.000,136.705 C 129.488,137.078 126.000,138.096 123.250,138.968 C 114.059,141.880 106.935,142.679 102.250,141.323 Z M 126.726,105.700 C 127.981,104.159 129.825,101.436 130.825,99.648 C 132.828,96.067 132.623,95.324 129.774,95.844 C 127.262,96.302 126.077,97.349 125.496,99.624 C 125.198,100.793 124.757,102.312 124.517,103.000 C 123.863,104.873 123.535,108.500 124.020,108.500 C 124.254,108.500 125.472,107.240 126.726,105.700 Z" fill="#000000" fill-rule="evenodd" /></svg>