<svg xmlns="http://www.w3.org/2000/svg" viewBox="0 0 678 700" width="678" height="700"><path d="M 107.158,577.352 C 107.023,577.133 107.808,575.221 108.901,573.102 C 112.712,565.721 115.680,555.709 118.490,540.750 C 119.804,533.753 120.776,520.980 121.494,501.250 C 121.784,493.275 122.241,482.137 122.509,476.500 C 123.302,459.818 124.039,433.299 124.148,417.500 C 124.228,405.886 124.100,402.325 123.546,400.750 C 122.238,397.039 114.515,381.784 111.622,377.199 C 106.006,368.300 99.746,360.288 92.206,352.353 L 88.028,347.956 L 88.109,338.478 C 88.153,333.265 88.355,329.000 88.557,329.000 C 90.744,329.000 116.961,353.687 122.750,361.199 C 124.125,362.983 125.510,364.455 125.827,364.471 C 126.210,364.490 126.497,362.780 126.680,359.375 C 127.126,351.118 128.020,301.534 128.010,285.678 C 127.998,267.538 128.119,268.016 118.466,248.247 C 112.217,235.450 106.615,226.145 98.376,214.879 C 96.051,211.699 95.932,211.387 96.279,209.379 C 96.482,208.208 96.621,203.931 96.588,199.875 C 96.552,195.602 96.723,192.500 96.993,192.500 C 97.250,192.500 98.538,193.674 99.855,195.108 C 101.172,196.543 104.500,200.095 107.250,203.002 C 111.471,207.463 122.133,220.386 127.154,227.125 C 127.922,228.156 128.739,229.000 128.968,229.000 C 129.198,229.000 129.532,222.306 129.710,214.125 C 129.889,205.944 130.246,190.025 130.503,178.750 C 130.761,167.475 131.117,148.856 131.295,137.375 L 131.618,116.500 L 149.478,116.500 L 167.339,116.500 L 167.668,131.875 C 167.850,140.331 167.999,151.225 167.999,156.084 C 168.000,160.943 168.137,165.274 168.303,165.709 C 168.629,166.557 169.808,166.788 170.083,166.057 C 170.175,165.813 172.752,162.944 175.810,159.682 C 186.518,148.259 194.744,138.442 196.512,134.977 C 197.303,133.426 197.559,131.487 197.868,124.692 L 198.250,116.318 L 206.749,116.450 C 211.423,116.522 215.347,116.680 215.469,116.802 C 215.590,116.924 215.758,123.487 215.841,131.387 C 216.185,163.919 218.463,301.325 219.515,352.985 C 220.215,387.339 220.133,390.905 218.561,394.219 C 215.731,400.183 213.883,407.669 210.029,428.767 C 208.373,437.833 205.794,451.212 204.297,458.500 C 200.021,479.317 199.627,481.262 197.976,489.750 C 196.285,498.441 194.610,504.075 193.625,504.386 C 192.852,504.630 192.797,501.409 193.479,495.737 C 194.543,486.893 195.780,433.142 196.742,354.000 C 196.891,341.762 197.151,328.507 197.321,324.543 L 197.629,317.336 L 200.444,314.293 C 201.992,312.619 204.009,310.073 204.926,308.634 C 208.048,303.733 208.158,302.950 208.279,284.750 C 208.339,275.675 208.278,267.176 208.143,265.863 L 207.897,263.476 L 202.906,268.267 C 196.888,274.043 196.291,274.151 194.717,269.750 C 192.695,264.099 189.407,257.745 184.239,249.500 L 179.068,241.250 L 178.909,234.874 C 178.795,230.325 178.914,228.499 179.323,228.499 C 179.638,228.500 182.900,231.919 186.573,236.097 C 195.810,246.606 197.082,248.000 197.439,248.000 C 197.610,247.999 197.737,230.168 197.721,208.375 C 197.705,186.581 197.836,166.162 198.012,163.000 C 198.359,156.754 197.993,155.445 196.475,157.500 C 195.967,158.188 193.300,161.787 190.549,165.500 C 185.370,172.489 172.164,191.952 169.765,196.131 L 168.398,198.512 L 168.702,214.631 C 169.164,239.102 169.465,258.723 169.802,286.250 C 169.971,300.000 170.283,311.437 170.496,311.666 C 170.709,311.896 171.738,311.108 172.783,309.916 C 175.979,306.272 191.028,291.436 194.902,288.110 C 196.911,286.386 198.768,285.106 199.027,285.267 C 199.289,285.428 199.500,288.764 199.500,292.723 L 199.500,299.888 L 197.676,302.569 C 196.672,304.044 194.803,306.600 193.523,308.250 C 188.132,315.195 184.403,321.646 180.416,330.925 C 176.075,341.030 175.079,344.094 172.428,355.500 C 171.690,358.672 171.588,368.307 172.119,384.500 C 172.322,390.688 172.609,404.863 172.757,416.000 C 172.905,427.137 173.244,442.550 173.511,450.250 C 173.778,457.950 174.225,471.337 174.505,480.000 C 175.748,518.521 176.265,527.312 178.020,539.838 C 180.483,557.413 183.835,567.387 189.359,573.578 C 190.812,575.206 192.000,576.754 192.000,577.019 C 192.000,577.323 178.133,577.504 154.375,577.510 C 133.681,577.515 114.647,577.571 112.077,577.635 C 109.507,577.698 107.294,577.571 107.158,577.352 Z M 399.018,577.618 C 389.744,577.545 382.082,577.282 381.828,577.028 C 381.550,576.750 382.107,574.668 383.240,571.742 C 386.208,564.084 388.996,554.470 388.998,551.890 C 389.000,549.137 387.669,545.988 383.726,539.415 C 382.227,536.917 381.000,534.809 381.000,534.733 C 381.000,534.656 379.397,531.816 377.438,528.421 C 370.711,516.767 365.666,507.673 361.707,500.068 C 357.908,492.769 355.603,490.218 352.375,489.739 C 351.069,489.545 348.932,489.547 347.626,489.743 C 344.171,490.261 342.499,492.370 337.268,502.807 C 334.803,507.726 332.193,512.771 331.468,514.020 C 330.743,515.268 328.962,518.530 327.510,521.270 C 326.058,524.009 324.595,526.587 324.258,527.000 C 323.921,527.413 322.628,529.550 321.384,531.750 C 320.141,533.950 317.627,538.211 315.798,541.218 C 312.169,547.187 310.738,551.092 311.249,553.633 C 311.658,555.668 312.696,558.766 316.208,568.435 C 317.744,572.662 319.000,576.431 319.000,576.810 C 319.000,577.385 315.782,577.500 299.750,577.500 C 277.808,577.500 279.978,577.958 276.910,572.683 C 274.425,568.411 273.113,565.432 271.109,559.516 C 269.476,554.696 269.324,553.763 269.316,548.500 C 269.309,543.766 269.639,541.160 271.184,533.750 C 277.176,504.995 284.814,481.257 296.981,453.574 C 301.701,442.834 302.737,439.526 304.439,429.750 C 304.726,428.100 305.251,425.175 305.606,423.250 C 305.987,421.178 306.249,415.873 306.247,410.250 C 306.244,400.793 306.236,400.728 304.591,396.000 C 303.681,393.387 301.381,388.147 299.478,384.354 C 297.575,380.561 294.873,374.261 293.473,370.354 C 290.010,360.688 289.933,360.500 289.481,360.500 C 288.759,360.500 284.101,366.946 276.399,378.608 C 272.743,384.142 270.447,387.256 263.160,396.558 C 259.455,401.289 258.463,403.787 257.025,412.000 C 256.423,415.438 255.696,419.262 255.410,420.500 C 254.910,422.654 247.622,438.934 240.524,453.750 C 235.355,464.539 233.923,468.704 233.208,475.018 C 232.681,479.674 233.517,481.745 238.079,487.092 C 242.257,491.990 244.150,495.427 248.920,506.768 C 250.694,510.988 251.540,513.753 251.751,516.018 C 252.125,520.039 250.823,537.377 250.093,538.107 C 249.258,538.942 246.667,537.638 245.542,535.816 C 244.248,533.720 242.137,527.331 240.966,521.966 C 239.427,514.913 238.572,513.367 234.841,510.892 C 232.259,509.179 231.255,509.146 230.210,510.741 C 227.202,515.332 225.741,526.654 227.208,534.009 C 228.338,539.671 230.163,543.434 235.167,550.416 C 239.645,556.664 241.000,558.957 241.000,560.289 C 241.000,561.783 236.477,560.958 233.380,558.900 C 229.040,556.016 219.143,546.571 218.074,544.292 C 217.547,543.169 216.840,540.112 216.503,537.500 C 215.496,529.692 215.279,528.750 214.484,528.750 C 213.062,528.750 212.420,533.205 212.684,541.250 C 212.961,549.699 213.725,552.536 217.431,558.881 C 221.291,565.490 221.938,568.621 219.500,568.886 C 218.640,568.980 217.627,568.454 216.250,567.199 C 211.821,563.161 205.893,557.252 205.055,556.038 C 203.646,554.000 201.598,548.405 200.038,542.338 C 199.248,539.264 197.903,535.000 197.051,532.862 C 194.744,527.078 194.895,525.553 198.478,518.503 C 203.456,508.708 206.419,498.802 208.475,485.084 C 209.335,479.344 210.007,475.993 213.008,462.500 C 213.955,458.241 215.186,451.882 216.785,443.000 C 217.917,436.704 220.628,423.212 222.260,415.750 C 225.506,400.902 228.391,393.736 235.544,382.750 C 237.334,380.000 239.773,375.950 240.964,373.750 C 242.921,370.135 246.809,363.423 252.114,354.500 C 256.256,347.533 258.869,341.357 260.471,334.750 C 263.046,324.135 264.307,321.189 269.258,314.225 C 273.567,308.162 278.011,305.134 289.146,300.668 C 299.378,296.565 304.138,294.191 306.769,291.877 C 308.665,290.209 315.159,281.772 315.628,280.367 C 315.969,279.342 317.463,280.451 319.858,283.507 C 324.619,289.581 326.467,293.338 328.465,301.000 C 328.716,301.962 329.187,303.762 329.512,305.000 C 331.636,313.083 337.068,319.052 344.292,321.244 C 348.169,322.420 354.671,322.214 358.089,320.808 C 365.843,317.619 370.249,311.495 372.490,300.791 C 374.023,293.466 376.203,289.066 381.115,283.377 C 382.757,281.475 383.816,280.630 384.247,280.877 C 384.605,281.082 385.936,282.635 387.205,284.327 C 392.517,291.411 397.339,294.623 410.706,299.983 C 419.420,303.476 422.820,305.467 427.464,309.797 C 434.488,316.346 438.975,325.103 440.249,334.750 C 440.587,337.311 443.397,344.870 445.174,348.000 C 445.720,348.962 447.177,351.663 448.411,354.000 C 449.644,356.337 451.594,359.825 452.743,361.750 C 453.892,363.675 456.827,368.850 459.266,373.250 C 461.705,377.650 465.000,383.275 466.589,385.750 C 470.602,392.002 473.754,397.795 474.750,400.750 C 475.214,402.125 476.233,406.288 477.014,410.000 C 481.296,430.330 481.941,433.574 485.506,452.750 C 485.761,454.125 486.437,457.950 487.008,461.250 C 487.579,464.550 488.912,470.625 489.971,474.750 C 491.030,478.875 492.163,484.837 492.488,488.000 C 492.813,491.163 493.527,495.550 494.075,497.750 C 495.372,502.956 499.337,513.015 502.546,519.242 C 505.716,525.393 506.059,527.783 504.524,533.019 C 503.922,535.071 503.019,538.325 502.517,540.250 C 500.821,546.759 499.041,551.740 497.604,554.000 C 494.702,558.563 482.745,568.500 480.156,568.500 C 479.503,568.500 478.845,568.178 478.694,567.785 C 478.543,567.391 480.247,563.385 482.479,558.882 C 484.712,554.379 486.876,549.470 487.288,547.972 C 488.311,544.255 488.792,532.867 488.042,530.125 C 487.463,528.007 486.553,527.438 485.643,528.625 C 485.379,528.969 484.885,531.163 484.544,533.500 C 483.741,539.000 482.176,544.847 480.995,546.759 C 479.665,548.909 472.708,555.374 469.753,557.204 C 467.093,558.851 461.184,561.500 460.169,561.500 C 458.219,561.500 459.074,558.765 462.513,554.000 C 468.352,545.908 470.510,542.338 471.502,539.124 C 474.369,529.843 473.946,520.825 470.258,512.607 C 468.556,508.815 467.635,508.425 464.880,510.331 C 460.793,513.158 460.022,514.795 457.265,526.500 C 455.242,535.090 453.335,538.021 450.165,537.413 C 449.327,537.253 449.218,536.336 448.866,526.494 C 448.654,520.585 448.574,514.962 448.688,514.000 C 448.802,513.038 449.673,510.562 450.624,508.500 C 451.575,506.438 452.972,503.005 453.728,500.873 C 455.375,496.229 457.734,492.463 461.948,487.750 C 466.487,482.673 467.245,481.045 467.189,476.500 C 467.105,469.693 465.315,465.107 452.647,439.250 C 447.310,428.355 445.275,422.119 443.820,412.191 C 442.418,402.632 441.512,400.444 436.692,394.985 C 434.878,392.931 432.702,390.238 431.856,389.000 C 431.011,387.762 429.379,385.625 428.230,384.250 C 427.082,382.875 423.653,377.925 420.611,373.250 C 411.172,358.747 410.974,358.574 409.440,363.502 C 408.969,365.014 407.985,368.163 407.253,370.500 C 405.623,375.703 402.123,383.890 399.236,389.250 C 394.504,398.038 393.024,408.705 394.727,421.750 C 396.583,435.956 397.431,438.824 405.224,457.250 C 418.671,489.045 423.711,504.806 428.971,531.500 C 431.871,546.220 432.076,551.912 429.952,558.786 C 428.778,562.590 422.267,576.156 421.186,577.053 C 420.329,577.765 419.685,577.781 399.018,577.618 Z M 502.500,577.405 C 502.500,576.992 502.941,576.255 503.481,575.767 C 504.967,574.423 508.707,568.686 510.688,564.714 C 512.652,560.775 513.510,558.364 514.733,553.342 C 515.506,550.170 515.771,548.788 517.009,541.500 C 518.026,535.510 518.977,523.592 519.483,510.500 C 519.775,502.938 520.247,491.012 520.533,484.000 C 521.691,455.563 521.990,443.908 522.309,414.750 C 522.663,382.378 522.630,381.663 520.202,369.550 C 517.775,357.440 509.345,341.857 499.376,331.053 C 493.653,324.849 493.445,324.257 493.612,314.649 C 493.704,309.364 493.930,306.750 494.295,306.750 C 494.595,306.750 498.308,310.042 502.545,314.065 C 506.783,318.088 510.994,322.000 511.903,322.758 C 512.813,323.516 515.618,326.412 518.138,329.193 C 520.658,331.974 523.008,334.323 523.360,334.412 C 523.782,334.518 524.005,334.007 524.016,332.912 C 524.025,331.998 524.124,327.425 524.238,322.750 C 524.351,318.075 524.573,303.225 524.731,289.750 C 524.889,276.275 525.243,255.463 525.518,243.500 C 526.281,210.336 526.336,197.499 525.717,197.500 C 525.424,197.500 524.659,198.456 524.018,199.625 C 523.377,200.794 519.652,206.025 515.741,211.250 C 506.793,223.203 503.757,227.872 500.219,235.117 C 496.405,242.929 496.332,243.722 496.729,273.125 C 496.906,286.256 496.897,297.000 496.709,297.000 C 496.520,297.000 494.765,295.479 492.808,293.621 C 488.243,289.284 485.695,287.352 484.896,287.618 C 484.393,287.786 484.292,291.735 484.414,306.540 C 484.499,316.830 484.783,326.082 485.046,327.098 C 485.363,328.322 487.312,331.025 490.813,335.097 C 493.722,338.480 496.433,341.887 496.837,342.668 C 497.433,343.822 497.657,348.699 498.028,368.669 C 498.280,382.189 498.816,403.938 499.220,417.000 C 499.624,430.062 500.079,445.700 500.232,451.750 C 500.384,457.800 500.651,465.844 500.825,469.625 C 501.142,476.526 500.820,477.948 499.567,475.197 C 498.688,473.269 494.918,453.951 490.013,426.250 C 489.186,421.575 488.301,416.850 488.047,415.750 C 487.794,414.650 486.909,410.488 486.080,406.500 C 483.717,395.126 482.738,392.767 476.564,383.568 C 474.466,380.443 471.189,375.381 469.281,372.318 C 465.875,366.853 465.807,366.677 465.600,362.809 C 465.483,360.641 465.695,348.379 466.069,335.559 C 467.086,300.744 467.050,298.700 465.328,293.250 C 463.456,287.326 458.821,277.799 455.233,272.500 C 453.650,270.163 450.291,265.887 447.768,263.000 C 441.249,255.538 441.466,255.987 441.136,249.277 C 440.935,245.195 441.015,243.500 441.408,243.500 C 442.072,243.500 444.414,245.447 449.500,250.226 C 456.865,257.147 466.069,265.253 466.734,265.403 C 467.750,265.633 467.898,262.089 468.481,223.500 C 469.090,183.156 470.011,126.547 470.153,120.750 L 470.250,116.750 L 481.829,116.616 L 493.409,116.482 L 493.693,120.616 C 493.850,122.890 494.216,141.287 494.507,161.500 C 495.212,210.459 495.289,213.956 495.668,214.335 C 496.153,214.819 497.447,213.527 505.194,204.823 C 511.814,197.386 516.837,190.964 522.458,182.750 C 527.172,175.861 526.718,179.505 527.000,146.250 L 527.250,116.750 L 545.072,116.619 L 562.894,116.487 L 563.188,124.119 C 563.350,128.316 563.718,142.775 564.006,156.250 C 565.149,209.816 565.482,231.323 565.192,232.875 C 565.025,233.769 565.061,234.500 565.272,234.500 C 566.438,234.500 575.322,225.871 585.219,215.125 C 586.549,213.681 587.916,212.500 588.258,212.500 C 588.716,212.500 588.941,214.564 589.115,220.375 L 589.353,228.250 L 587.175,231.611 C 585.977,233.459 583.280,238.072 581.181,241.861 C 579.081,245.650 575.837,251.450 573.971,254.750 C 572.104,258.050 569.631,263.113 568.475,266.000 L 566.373,271.250 L 566.695,291.750 C 567.044,313.996 567.736,341.889 568.298,356.375 C 568.551,362.894 568.822,365.500 569.247,365.500 C 569.918,365.500 573.388,361.902 580.831,353.492 C 586.256,347.362 589.384,344.184 589.648,344.534 C 589.737,344.653 589.657,349.171 589.471,354.574 L 589.132,364.398 L 587.441,367.227 C 582.431,375.611 574.038,391.443 572.719,394.998 C 572.361,395.962 571.604,397.984 571.035,399.493 C 570.093,401.989 570.000,403.318 570.001,414.243 C 570.001,425.219 570.743,448.440 571.973,476.000 C 572.236,481.913 572.587,490.462 572.751,495.000 C 574.078,531.637 576.734,548.649 584.264,568.753 C 585.217,571.297 586.333,574.025 586.745,574.814 C 587.157,575.604 587.495,576.531 587.497,576.875 C 587.499,577.369 580.034,577.500 551.829,577.500 C 532.210,577.500 513.085,577.647 509.329,577.828 C 503.446,578.110 502.500,578.051 502.500,577.405 Z M 262.037,513.875 C 261.795,513.256 260.763,510.050 259.745,506.750 C 256.909,497.556 252.984,490.079 246.199,480.943 C 243.813,477.729 243.000,476.224 243.000,475.016 C 243.000,471.704 245.629,465.049 253.869,447.500 C 256.922,440.998 261.787,429.996 262.216,428.625 C 262.409,428.006 262.747,427.500 262.966,427.500 C 263.640,427.500 264.000,431.795 263.990,439.695 C 263.984,443.850 264.251,462.139 264.583,480.336 C 265.080,507.552 265.071,513.562 264.532,514.211 C 263.604,515.330 262.552,515.188 262.037,513.875 Z M 235.167,323.694 C 235.351,301.175 235.717,273.975 235.982,263.250 C 236.247,252.525 236.586,232.742 236.735,219.289 C 236.884,205.835 237.099,194.734 237.214,194.619 C 237.328,194.505 238.918,196.666 240.746,199.421 C 244.855,205.612 249.273,210.155 254.358,213.417 C 256.498,214.790 258.619,216.246 259.071,216.653 C 259.790,217.300 259.913,219.270 260.063,232.571 C 260.157,240.919 260.230,249.269 260.226,251.125 C 260.221,253.487 260.405,254.500 260.840,254.500 C 261.507,254.500 269.454,248.006 271.462,245.820 C 272.129,245.094 272.916,244.504 273.212,244.509 C 273.922,244.521 277.000,249.252 277.000,250.331 C 277.000,250.795 275.457,253.216 273.571,255.712 C 267.139,264.225 264.007,270.070 262.567,276.250 C 261.936,278.961 261.012,294.660 261.005,302.806 C 261.000,307.711 260.944,307.964 259.109,311.306 C 255.552,317.785 253.545,322.396 252.244,327.072 C 248.797,339.470 247.733,342.007 239.374,357.750 C 238.206,359.950 237.025,362.298 236.750,362.968 C 236.475,363.637 235.931,364.287 235.542,364.412 C 234.934,364.607 234.881,358.886 235.167,323.694 Z M 345.475,313.334 C 344.773,313.013 343.044,311.771 341.633,310.575 C 338.667,308.061 336.872,304.262 335.999,298.656 C 334.850,291.276 334.242,289.929 327.233,279.250 C 321.994,271.266 321.155,269.071 320.434,261.449 C 320.111,258.040 319.619,254.957 319.340,254.598 C 318.960,254.110 317.880,254.028 315.041,254.272 C 303.236,255.287 293.289,250.377 284.862,239.375 C 282.251,235.966 279.516,231.016 279.505,229.678 C 279.502,229.364 279.856,228.970 280.291,228.804 C 282.293,228.035 302.274,229.995 306.000,231.326 C 307.238,231.768 311.100,233.450 314.583,235.065 C 318.066,236.679 321.160,238.000 321.458,238.000 C 322.356,238.000 322.079,237.045 320.528,234.791 C 318.256,231.488 314.055,227.928 309.115,225.119 C 303.597,221.982 300.289,220.585 293.500,218.525 C 290.613,217.649 286.000,216.251 283.250,215.418 C 268.151,210.849 263.007,208.379 255.655,202.167 C 252.539,199.533 248.493,194.266 246.714,190.525 C 245.158,187.253 244.002,181.101 244.001,176.092 C 244.000,172.096 244.551,170.500 245.930,170.500 C 247.462,170.500 248.999,172.705 250.797,177.485 C 251.749,180.015 253.227,183.472 254.081,185.167 C 256.156,189.288 261.372,194.395 265.554,196.401 C 269.569,198.327 272.000,198.873 272.000,197.851 C 272.000,197.450 271.663,196.843 271.250,196.500 C 269.772,195.273 265.921,189.437 264.241,185.878 C 263.299,183.882 261.799,179.550 260.907,176.250 C 259.336,170.439 259.284,169.935 259.267,160.250 C 259.246,147.828 259.947,144.023 263.594,136.762 C 266.573,130.833 267.110,130.024 271.666,124.599 C 274.589,121.119 275.362,120.473 276.451,120.599 C 278.619,120.851 278.339,122.704 274.990,130.273 C 269.684,142.265 269.314,143.651 269.125,152.250 C 268.960,159.741 269.809,168.422 270.729,168.641 C 270.979,168.701 271.761,167.810 272.467,166.662 C 275.487,161.748 279.593,156.525 282.846,153.461 C 288.257,148.362 295.196,144.566 297.875,145.237 C 300.016,145.774 299.169,147.434 293.981,152.868 C 287.946,159.189 284.869,163.391 282.974,167.900 C 279.766,175.535 279.810,184.655 283.084,191.145 C 284.495,193.940 290.654,200.193 294.545,202.780 C 299.124,205.824 308.555,210.112 309.216,209.450 C 309.349,209.317 309.131,207.193 308.731,204.729 C 307.747,198.671 307.811,196.217 309.058,192.178 C 311.372,184.679 315.966,178.000 318.810,178.000 C 319.820,178.000 319.999,178.245 319.994,179.625 C 319.990,180.519 319.428,183.273 318.744,185.746 C 316.568,193.611 317.207,199.673 321.009,207.250 C 324.179,213.566 327.401,217.515 333.069,222.031 C 337.995,225.955 338.231,226.079 340.207,225.774 C 341.331,225.601 345.212,225.335 348.832,225.182 C 355.138,224.916 357.586,225.221 361.655,226.783 C 362.472,227.096 370.021,220.946 374.034,216.697 C 382.083,208.174 385.253,196.163 382.069,186.250 C 381.450,184.325 380.732,182.359 380.472,181.882 C 379.716,180.491 379.924,179.076 380.967,178.518 C 381.499,178.233 382.044,178.000 382.179,178.000 C 382.753,178.000 386.698,182.420 387.806,184.306 C 392.137,191.676 393.170,198.852 391.211,207.951 L 390.844,209.653 L 392.861,209.330 C 395.897,208.845 401.326,206.485 405.250,203.946 C 410.332,200.657 414.448,196.616 416.896,192.513 C 419.831,187.594 420.704,183.956 420.272,178.435 C 419.481,168.330 416.241,162.072 407.583,153.929 C 402.691,149.328 401.233,147.416 401.696,146.210 C 401.940,145.573 402.420,145.483 404.075,145.763 C 412.220,147.139 422.494,156.370 427.249,166.583 C 427.932,168.050 428.492,169.531 428.495,169.875 C 428.498,170.219 428.718,170.500 428.984,170.500 C 429.250,170.500 430.064,168.545 430.793,166.155 C 432.038,162.074 432.103,161.369 431.866,154.530 C 431.522,144.599 429.593,137.866 423.963,126.941 C 419.963,119.178 422.305,117.852 428.559,124.337 C 433.760,129.730 438.159,137.442 439.918,144.250 C 441.707,151.173 442.000,153.378 441.999,159.900 C 441.999,167.037 441.181,172.545 439.283,178.198 C 437.175,184.479 432.260,193.678 429.305,196.876 C 427.536,198.790 428.001,199.799 430.409,199.270 C 432.755,198.755 440.613,193.328 443.233,190.413 C 445.741,187.624 448.182,183.195 450.271,177.646 C 451.806,173.568 453.707,170.219 454.705,169.837 C 455.107,169.682 456.013,170.010 456.718,170.564 C 458.274,171.788 458.357,173.432 457.202,180.124 C 456.224,185.790 455.423,188.244 453.090,192.714 C 450.922,196.870 447.191,201.016 442.333,204.669 C 436.630,208.957 432.058,210.955 416.750,215.847 C 414.550,216.550 411.175,217.684 409.250,218.366 C 407.325,219.049 404.962,219.773 404.000,219.976 C 403.038,220.178 399.144,221.861 395.349,223.715 C 386.032,228.267 380.486,232.943 379.692,236.917 C 379.269,239.028 380.048,238.982 383.443,236.695 C 388.068,233.581 394.691,231.106 402.739,229.484 C 406.777,228.670 420.257,228.559 421.032,229.333 C 422.477,230.776 417.112,239.979 412.213,244.460 C 408.392,247.955 403.137,251.352 399.663,252.573 C 396.369,253.730 391.120,254.464 385.975,254.485 C 383.726,254.494 381.958,254.742 381.600,255.100 C 381.270,255.430 380.999,256.836 380.998,258.225 C 380.995,261.963 379.730,269.087 378.627,271.573 C 378.096,272.770 375.860,276.450 373.659,279.750 C 366.977,289.765 365.619,292.846 364.511,300.500 C 363.567,307.018 360.660,311.111 355.351,313.398 C 353.596,314.154 347.173,314.113 345.475,313.334 Z M 366.913,264.890 C 368.744,264.209 369.867,263.421 370.508,262.367 C 371.504,260.728 372.782,256.115 372.357,255.690 C 371.884,255.217 367.769,256.577 365.610,257.919 C 363.291,259.361 359.169,265.061 359.758,266.012 C 360.194,266.719 363.309,266.231 366.913,264.890 Z M 341.500,265.575 C 341.500,264.823 338.727,261.299 336.817,259.624 C 334.757,257.817 330.482,255.500 329.210,255.500 C 328.512,255.500 328.439,255.863 328.733,257.875 C 329.381,262.318 331.567,264.576 336.077,265.463 C 339.016,266.041 341.500,266.092 341.500,265.575 Z M 237.419,160.851 C 237.326,160.521 237.363,150.463 237.500,138.500 L 237.750,116.750 L 248.568,116.615 C 258.243,116.495 259.419,116.568 259.703,117.307 C 260.058,118.233 259.136,123.975 258.507,124.750 C 257.284,126.259 252.933,135.842 251.810,139.500 C 250.032,145.294 249.517,148.281 249.153,154.921 C 248.966,158.331 248.624,160.657 248.296,160.754 C 247.996,160.843 245.464,161.037 242.669,161.185 C 238.945,161.381 237.544,161.292 237.419,160.851 Z" fill="#000000" fill-rule="evenodd" /></svg>