<svg xmlns="http://www.w3.org/2000/svg" viewBox="0 0 738 652" width="738" height="652"><path d="M 306.000,636.209 C 295.588,635.657 288.619,634.066 279.523,630.165 L 275.297,628.352 L 265.273,628.657 C 254.637,628.980 251.320,629.292 234.250,631.570 C 225.290,632.766 198.810,632.035 192.612,630.420 C 189.918,629.718 189.678,629.306 190.773,627.273 C 192.081,624.844 191.563,624.201 187.917,623.727 C 186.175,623.500 172.825,623.273 158.250,623.222 C 134.170,623.137 131.185,623.036 125.567,622.106 C 119.454,621.095 118.080,620.585 118.712,619.562 C 119.474,618.329 135.835,615.079 149.500,613.447 C 155.527,612.727 165.587,610.781 166.805,610.099 C 167.923,609.473 167.952,609.481 159.750,608.242 C 156.725,607.785 153.784,607.115 153.214,606.752 C 152.644,606.390 151.231,605.810 150.075,605.463 C 147.710,604.755 147.602,603.996 149.783,603.411 C 152.086,602.792 176.498,600.007 188.500,598.994 C 191.662,598.727 196.500,598.296 199.250,598.037 C 202.000,597.777 207.906,597.405 212.375,597.209 C 221.089,596.827 221.452,596.683 219.857,594.236 C 218.032,591.435 215.998,582.466 216.006,577.250 C 216.013,571.937 217.746,567.347 223.612,557.094 C 229.691,546.471 234.507,540.301 248.020,525.825 C 252.113,521.441 252.551,520.545 253.007,515.622 C 253.507,510.208 254.416,503.402 254.991,500.750 C 255.740,497.299 256.481,487.805 257.271,471.564 C 258.069,455.132 259.174,445.725 261.284,437.380 C 262.896,431.002 263.746,426.437 264.534,419.910 C 265.211,414.316 264.893,408.073 263.281,395.250 C 261.405,380.332 260.750,373.917 258.485,348.250 C 257.528,337.404 258.170,333.086 261.983,324.750 C 264.496,319.255 266.906,312.786 267.627,309.598 C 268.314,306.564 268.302,306.418 267.309,305.723 C 265.083,304.163 264.383,304.654 261.866,309.539 C 259.038,315.029 256.610,318.419 254.642,319.626 C 251.894,321.310 250.134,322.001 248.601,321.995 C 246.740,321.989 242.594,319.515 239.858,316.779 C 237.986,314.907 237.253,314.500 235.757,314.500 C 233.629,314.500 232.512,313.984 229.666,311.684 C 227.233,309.719 227.081,309.695 224.904,310.961 C 223.066,312.030 219.032,312.743 218.238,312.139 C 217.956,311.925 216.287,308.092 214.527,303.622 C 211.640,296.285 211.107,295.298 209.048,293.478 C 207.793,292.369 205.638,290.927 204.258,290.274 C 202.879,289.621 201.205,288.504 200.538,287.793 C 199.305,286.478 198.500,286.143 198.500,286.944 C 198.500,287.188 199.287,288.533 200.250,289.932 C 201.212,291.331 202.000,292.715 202.000,293.008 C 202.000,293.300 202.450,294.422 203.000,295.500 C 204.236,297.922 204.428,305.948 203.308,308.298 C 202.927,309.097 202.478,311.687 202.310,314.054 C 201.969,318.867 202.818,322.314 205.214,325.840 C 208.346,330.449 205.047,328.734 201.306,323.809 C 198.435,320.029 198.008,318.614 197.472,311.106 C 196.777,301.379 195.908,298.978 190.740,292.500 C 184.443,284.608 182.344,280.584 180.491,272.854 C 179.337,268.041 179.234,263.782 180.178,259.980 C 180.552,258.479 181.345,254.775 181.942,251.750 C 186.004,231.166 195.325,216.167 208.614,208.830 C 216.015,204.744 225.263,202.710 234.476,203.142 C 239.376,203.372 241.083,203.693 245.750,205.266 C 256.217,208.794 258.381,210.277 269.970,221.868 C 275.774,227.673 280.035,231.518 281.470,232.246 C 286.765,234.932 289.584,235.910 297.353,237.755 C 308.213,240.334 311.561,241.269 311.654,241.749 C 311.707,242.019 310.681,242.436 309.375,242.674 C 307.163,243.078 306.044,244.000 307.766,244.000 C 308.709,244.000 314.454,247.121 317.500,249.287 L 319.750,250.888 L 328.750,251.129 C 336.027,251.325 338.942,251.630 343.977,252.726 C 347.403,253.471 350.877,254.428 351.698,254.853 C 352.520,255.277 353.767,255.804 354.471,256.023 C 357.321,256.910 366.550,260.991 371.204,263.422 C 373.928,264.845 376.259,265.908 376.383,265.784 C 376.706,265.461 372.704,261.824 369.606,259.626 C 368.152,258.594 365.958,257.020 364.731,256.129 C 363.505,255.237 360.420,253.490 357.876,252.246 C 350.781,248.778 350.151,247.957 353.125,246.065 C 363.952,239.174 370.646,232.376 376.081,222.750 C 378.310,218.802 378.803,217.673 382.225,208.682 C 385.727,199.483 387.210,192.247 387.823,181.375 C 388.069,177.008 388.323,175.500 388.814,175.500 C 389.832,175.500 390.759,177.742 392.256,183.824 C 393.858,190.330 394.174,191.026 395.104,190.096 C 396.566,188.635 395.933,171.848 394.205,166.244 C 393.781,164.872 393.215,162.625 392.946,161.250 C 392.236,157.624 391.650,155.022 391.030,152.750 C 390.730,151.650 390.370,149.963 390.229,149.000 C 390.089,148.037 389.755,146.519 389.487,145.625 C 388.908,143.692 388.488,142.149 387.003,136.500 C 386.389,134.162 385.574,131.541 385.193,130.674 C 384.812,129.808 384.500,128.856 384.500,128.559 C 384.500,126.059 373.661,103.180 370.047,98.053 C 369.542,97.336 368.691,95.850 368.156,94.750 C 367.621,93.650 365.998,90.551 364.550,87.863 C 358.272,76.214 356.069,66.589 357.476,56.952 C 357.813,54.641 358.265,52.525 358.479,52.250 C 358.694,51.975 359.154,50.868 359.501,49.791 C 360.393,47.027 361.763,44.764 364.914,40.851 C 371.594,32.559 380.501,26.073 391.500,21.493 C 393.562,20.634 395.925,19.633 396.750,19.269 C 397.575,18.904 399.038,18.455 400.000,18.271 C 400.962,18.088 402.381,17.694 403.153,17.397 C 404.152,17.011 404.710,17.010 405.092,17.392 C 405.475,17.775 404.244,19.294 400.815,22.674 C 395.499,27.912 394.813,29.341 397.875,28.799 C 405.501,27.450 410.085,27.000 416.206,26.997 C 429.682,26.990 443.500,30.057 443.500,33.054 C 443.500,33.981 443.296,34.053 441.523,33.754 C 438.773,33.289 434.289,34.322 432.494,35.832 C 430.797,37.260 430.937,37.998 432.905,38.005 C 434.379,38.010 443.068,39.653 446.250,40.529 C 455.209,42.993 465.572,46.551 472.500,49.541 C 476.571,51.298 491.785,59.218 492.725,60.070 C 493.864,61.101 492.156,61.448 489.242,60.777 C 487.596,60.399 484.788,60.012 483.000,59.919 C 480.369,59.782 479.750,59.893 479.750,60.500 C 479.750,61.011 481.501,61.828 485.250,63.065 C 494.306,66.055 498.812,69.178 518.818,86.333 C 523.495,90.343 531.000,95.731 540.750,102.077 C 543.775,104.046 547.487,106.493 549.000,107.514 C 550.513,108.536 552.987,109.993 554.500,110.753 C 556.013,111.513 558.150,112.749 559.250,113.500 C 560.350,114.251 562.150,115.317 563.250,115.869 C 565.629,117.063 574.032,121.467 578.250,123.730 C 582.977,126.265 597.322,132.492 601.999,134.038 C 608.116,136.061 616.689,139.315 618.873,140.445 L 620.750,141.416 L 619.309,141.970 C 613.461,144.223 592.100,145.392 586.704,143.755 C 585.355,143.346 583.462,142.996 582.500,142.977 C 581.538,142.959 578.882,142.322 576.598,141.563 C 574.314,140.804 572.353,140.334 572.239,140.518 C 572.125,140.703 575.231,144.318 579.142,148.552 C 583.052,152.786 586.772,156.925 587.409,157.750 C 588.045,158.575 592.452,163.300 597.202,168.250 C 605.454,176.850 608.135,179.835 613.763,186.689 C 616.805,190.395 621.000,196.655 621.000,197.490 C 621.000,197.823 621.466,198.750 622.036,199.551 C 622.606,200.351 622.991,201.398 622.892,201.878 C 622.641,203.093 619.512,202.852 616.967,201.422 C 615.891,200.817 614.882,200.451 614.725,200.609 C 614.032,201.301 617.777,204.485 621.349,206.242 L 625.250,208.160 L 627.854,213.455 C 631.840,221.558 634.346,225.823 639.342,233.000 C 643.805,239.413 657.940,254.123 665.794,260.530 C 666.320,260.958 669.366,263.546 672.564,266.280 C 675.761,269.013 680.141,272.600 682.296,274.250 C 686.812,277.708 688.000,278.802 688.000,279.500 C 688.000,280.192 686.580,280.125 683.964,279.310 C 673.463,276.039 667.345,273.769 663.000,271.530 C 662.038,271.035 660.688,270.496 660.000,270.333 C 658.091,269.880 643.951,261.873 642.250,260.282 C 641.425,259.510 640.188,258.515 639.500,258.070 C 636.372,256.049 626.330,247.741 622.286,243.829 C 619.831,241.454 617.724,239.610 617.604,239.730 C 617.483,239.850 618.177,241.366 619.144,243.099 C 621.758,247.780 624.685,253.517 625.471,255.500 C 625.853,256.462 626.440,257.587 626.776,258.000 C 627.113,258.413 628.619,261.113 630.123,264.000 C 631.627,266.887 634.108,271.616 635.636,274.508 C 637.164,277.399 639.347,282.124 640.487,285.008 C 641.627,287.891 643.079,291.262 643.713,292.500 C 644.347,293.738 645.032,295.312 645.237,296.000 C 645.832,298.002 648.006,303.664 648.576,304.698 C 650.303,307.827 655.186,323.211 660.019,340.750 C 661.687,346.800 663.701,353.663 664.497,356.000 C 667.029,363.444 669.939,371.453 670.475,372.454 C 671.077,373.578 675.243,390.171 675.759,393.500 C 675.951,394.738 676.419,396.988 676.799,398.500 C 677.413,400.944 678.841,408.089 679.997,414.500 C 680.599,417.839 681.979,427.618 681.990,428.625 C 682.011,430.457 681.100,429.379 680.089,426.375 C 676.259,414.998 674.562,410.293 673.008,406.750 C 672.525,405.650 671.984,404.276 671.805,403.698 C 671.625,403.119 670.021,399.905 668.239,396.556 C 666.458,393.207 665.000,390.378 665.000,390.270 C 665.000,390.162 663.840,388.201 662.423,385.912 C 661.005,383.623 659.149,380.459 658.298,378.881 C 657.447,377.303 656.442,375.894 656.065,375.749 C 655.268,375.442 655.208,375.112 657.660,384.500 C 660.277,394.522 660.996,398.388 662.212,409.000 C 662.637,412.712 663.333,418.562 663.758,422.000 C 664.183,425.438 664.766,430.163 665.053,432.500 C 665.340,434.837 665.776,437.425 666.022,438.250 C 666.735,440.644 668.055,450.351 668.157,453.952 C 668.240,456.909 668.043,457.655 666.250,461.165 C 664.451,464.686 664.332,465.139 665.066,465.665 C 665.516,465.987 666.866,466.946 668.066,467.796 C 669.267,468.646 670.619,470.109 671.071,471.046 C 672.948,474.942 673.501,476.476 673.515,477.826 C 673.523,478.609 674.213,481.613 675.048,484.500 C 675.884,487.387 676.982,491.325 677.490,493.250 C 677.997,495.175 679.013,498.663 679.747,501.000 C 680.481,503.337 682.190,508.850 683.543,513.250 C 684.896,517.650 686.359,522.309 686.794,523.604 C 687.553,525.861 687.452,527.000 686.492,527.000 C 686.246,527.000 684.965,526.373 683.647,525.606 C 679.846,523.395 675.568,522.266 674.612,523.221 C 674.461,523.372 674.768,524.408 675.294,525.522 C 676.063,527.151 676.912,527.899 679.632,529.339 C 685.723,532.566 689.933,538.397 694.370,549.750 C 694.800,550.850 695.522,552.200 695.973,552.750 C 696.764,553.713 699.000,558.064 699.000,558.640 C 699.000,558.795 700.125,560.869 701.500,563.250 C 702.875,565.631 704.000,567.688 704.000,567.822 C 704.000,568.864 717.213,589.308 722.375,596.254 C 725.228,600.092 724.625,600.332 719.114,597.549 C 708.950,592.418 692.910,579.623 687.900,572.649 C 687.268,571.769 685.681,569.704 684.375,568.062 C 683.069,566.420 682.000,564.841 682.000,564.555 C 682.000,564.268 680.946,562.847 679.658,561.397 C 678.200,559.755 676.228,556.484 674.431,552.727 C 671.347,546.281 670.464,545.087 667.067,542.771 C 660.506,538.300 656.694,528.476 654.739,511.000 C 653.576,500.605 648.698,476.501 647.518,475.319 C 646.911,474.710 646.168,475.287 645.844,476.618 C 645.693,477.240 645.303,478.650 644.977,479.750 C 644.651,480.850 644.241,484.113 644.067,487.000 C 643.893,489.887 643.548,492.250 643.300,492.250 C 643.053,492.250 642.566,491.428 642.219,490.424 C 641.871,489.420 640.868,487.058 639.990,485.174 C 636.381,477.434 633.437,464.151 632.475,451.276 C 631.672,440.523 629.801,427.887 628.289,423.000 C 627.906,421.762 627.201,419.231 626.722,417.375 C 626.243,415.519 625.716,414.000 625.551,414.000 C 625.175,414.000 625.335,488.051 625.734,498.250 C 626.306,512.910 629.039,537.679 631.043,546.376 C 632.152,551.188 633.636,561.399 633.967,566.500 C 634.174,569.676 634.650,572.532 635.173,573.730 C 635.648,574.819 636.566,577.519 637.214,579.730 C 637.861,581.941 638.967,585.269 639.673,587.125 C 640.940,590.461 640.813,591.787 639.481,589.125 C 639.103,588.369 638.466,587.355 638.066,586.872 C 637.215,585.843 636.259,584.231 635.509,582.560 C 635.215,581.905 634.474,580.682 633.863,579.841 C 631.220,576.212 620.099,553.673 617.041,545.750 C 613.912,537.642 612.960,535.564 610.880,532.297 C 609.846,530.674 608.957,528.874 608.905,528.297 C 608.852,527.721 608.794,522.075 608.775,515.750 C 608.756,509.425 608.550,503.856 608.317,503.375 C 607.797,502.302 606.830,502.250 606.000,503.250 C 605.658,503.663 604.983,504.000 604.500,504.000 C 604.017,504.000 603.342,504.337 603.000,504.750 C 601.418,506.656 600.553,505.288 598.755,498.039 C 598.102,495.405 597.234,492.012 596.827,490.500 C 595.762,486.539 595.047,482.422 594.483,477.000 C 593.761,470.048 593.510,469.000 592.569,469.000 C 591.423,469.000 589.191,471.954 588.570,474.292 C 588.285,475.369 587.814,478.275 587.524,480.750 C 586.935,485.784 585.599,512.739 585.442,522.750 C 585.332,529.817 585.872,549.277 586.287,553.166 C 586.513,555.275 586.434,555.561 585.669,555.413 C 584.665,555.220 583.281,551.652 580.950,543.250 C 578.958,536.070 578.582,534.575 577.489,529.500 C 576.986,527.163 576.089,523.000 575.496,520.250 C 572.835,507.904 571.293,495.312 570.711,481.190 L 570.358,472.629 L 573.155,465.871 C 574.693,462.153 576.212,457.613 576.531,455.782 C 577.050,452.801 577.019,452.349 576.228,451.476 C 575.742,450.939 574.953,450.500 574.474,450.500 C 573.507,450.500 570.928,447.779 569.767,445.532 C 569.083,444.210 569.109,443.701 570.057,439.914 C 570.867,436.677 570.984,435.416 570.583,434.250 C 570.299,433.425 569.805,431.738 569.485,430.500 C 568.175,425.442 567.152,425.931 564.438,432.914 C 563.366,435.673 561.720,432.393 560.970,426.000 C 559.585,414.202 559.548,413.958 556.744,398.500 C 556.320,396.163 555.642,392.937 555.236,391.332 C 554.830,389.727 554.365,387.139 554.202,385.582 C 553.897,382.675 551.862,375.339 550.989,374.000 C 550.208,372.801 549.518,374.305 549.499,377.250 C 549.479,380.174 548.299,388.305 547.556,390.635 C 547.007,392.355 545.825,400.185 544.933,408.000 C 544.571,411.173 544.520,417.812 544.778,428.000 C 545.313,449.089 545.313,448.991 544.750,448.968 C 543.542,448.916 535.641,428.878 533.446,420.297 C 532.877,418.071 532.215,415.125 531.976,413.750 C 530.057,402.716 528.513,392.641 528.261,389.500 C 528.095,387.438 527.869,384.738 527.758,383.500 C 527.647,382.262 527.428,378.100 527.270,374.250 C 526.783,362.355 526.467,357.500 525.727,350.500 C 524.969,343.320 524.707,341.529 522.698,329.750 C 521.994,325.625 521.215,320.900 520.966,319.250 C 520.219,314.290 519.075,308.222 517.338,300.000 C 516.669,296.837 515.840,291.775 515.495,288.750 C 514.598,280.889 511.805,268.238 509.423,261.250 C 506.951,253.998 500.562,237.976 497.203,230.610 C 496.542,229.158 496.000,227.870 496.000,227.748 C 496.000,227.423 493.266,221.506 491.193,217.344 C 490.209,215.367 488.997,212.512 488.501,211.000 C 488.005,209.488 486.698,206.338 485.597,204.000 C 484.496,201.662 482.415,197.162 480.973,194.000 C 477.572,186.544 470.734,173.189 468.082,168.824 C 466.937,166.940 466.000,165.293 466.000,165.164 C 466.000,165.035 465.352,163.989 464.560,162.838 C 463.768,161.687 462.643,159.902 462.060,158.873 C 461.477,157.843 460.524,156.156 459.942,155.125 C 459.360,154.094 458.723,153.137 458.527,153.000 C 458.330,152.863 456.966,150.950 455.496,148.750 C 454.025,146.550 451.793,143.366 450.536,141.675 C 447.229,137.226 446.294,135.944 445.902,135.327 C 445.711,135.026 445.418,134.915 445.251,135.082 C 445.084,135.249 445.803,136.747 446.849,138.411 C 451.645,146.045 453.377,148.903 455.059,151.962 C 456.054,153.770 457.906,157.050 459.175,159.250 C 461.768,163.747 474.853,189.735 477.426,195.500 C 478.346,197.562 479.275,199.925 479.490,200.750 C 479.704,201.575 481.173,205.277 482.755,208.977 C 484.336,212.678 486.297,217.515 487.112,219.727 C 490.356,228.529 491.981,232.873 493.012,235.500 C 493.605,237.012 494.392,239.150 494.761,240.250 C 495.130,241.350 495.930,243.600 496.540,245.250 C 497.150,246.900 497.823,249.150 498.037,250.250 C 498.250,251.350 498.659,253.037 498.945,254.000 C 500.464,259.104 502.563,267.226 503.274,270.750 C 503.718,272.950 504.609,276.550 505.253,278.750 C 505.898,280.950 506.569,283.762 506.744,285.000 C 506.920,286.238 507.383,288.712 507.773,290.500 C 509.537,298.574 513.000,317.423 513.000,318.947 C 513.000,319.875 513.216,321.448 513.480,322.442 C 515.368,329.560 518.357,356.221 517.337,356.851 C 516.660,357.269 515.311,355.524 513.973,352.500 C 513.305,350.988 511.696,347.950 510.398,345.750 C 509.101,343.550 507.438,340.625 506.702,339.250 C 505.967,337.875 504.834,336.114 504.183,335.337 C 503.532,334.559 503.000,333.695 503.000,333.416 C 503.000,333.137 502.132,331.636 501.070,330.079 C 500.009,328.523 497.197,324.297 494.822,320.688 C 490.086,313.491 489.000,312.227 489.000,313.915 C 489.000,314.486 489.213,315.470 489.474,316.101 C 490.335,318.184 492.409,325.645 493.967,332.258 C 495.001,336.648 495.740,341.694 496.237,347.758 C 496.642,352.704 497.220,358.966 497.521,361.674 C 497.823,364.382 497.941,366.726 497.785,366.882 C 497.434,367.233 497.997,368.255 493.030,358.250 C 490.709,353.575 487.991,348.512 486.991,347.000 C 485.990,345.488 485.026,343.913 484.847,343.500 C 484.036,341.632 473.959,325.871 473.271,325.396 C 472.313,324.734 471.921,325.871 472.438,327.813 C 474.225,334.531 475.302,340.339 476.000,347.020 C 476.272,349.621 476.635,352.369 476.806,353.125 C 477.030,354.116 476.926,354.487 476.433,354.453 C 475.675,354.401 463.126,341.178 460.108,337.250 C 459.051,335.875 456.888,332.894 455.302,330.625 C 451.653,325.407 450.905,325.209 452.011,329.750 C 453.773,336.995 455.325,347.342 454.736,347.930 C 454.385,348.281 451.233,344.986 444.750,337.492 C 437.092,328.639 433.499,324.643 431.098,322.310 C 430.283,321.518 428.521,319.452 427.183,317.720 C 423.645,313.141 421.894,312.574 424.386,316.814 C 426.656,320.678 429.122,325.285 432.380,331.750 C 435.229,337.405 436.423,339.926 439.363,346.500 C 440.040,348.012 441.105,350.375 441.730,351.750 C 446.629,362.524 450.959,373.875 456.036,389.250 C 457.216,392.825 458.678,397.212 459.284,399.000 C 461.507,405.553 462.928,410.360 464.013,415.000 C 464.624,417.613 465.547,421.100 466.063,422.750 C 467.665,427.866 471.390,446.188 472.975,456.750 C 473.553,460.600 474.248,465.002 474.520,466.533 C 475.064,469.595 475.240,487.485 474.750,489.798 C 474.447,491.223 473.507,494.787 472.387,498.750 C 471.541,501.745 466.813,511.488 465.180,513.601 C 464.394,514.619 463.075,516.384 462.250,517.523 C 460.134,520.445 453.726,526.469 450.155,528.895 C 448.495,530.022 445.250,531.844 442.944,532.943 C 437.669,535.458 433.573,539.365 433.016,542.414 C 432.813,543.522 432.783,544.641 432.949,544.901 C 433.114,545.160 434.360,545.875 435.717,546.490 C 438.835,547.904 442.584,547.720 444.945,546.039 C 446.778,544.734 454.166,541.000 454.915,541.000 C 455.189,541.000 456.952,541.865 458.832,542.923 C 461.635,544.500 462.859,545.637 465.633,549.241 C 470.170,555.136 470.237,555.530 467.190,558.299 C 464.310,560.914 459.703,563.362 454.500,565.040 C 449.384,566.691 439.768,566.728 433.750,565.122 C 424.866,562.750 411.839,560.458 401.717,559.484 L 395.183,558.855 L 392.717,560.100 C 391.360,560.785 388.712,562.449 386.833,563.797 C 384.953,565.146 382.028,567.200 380.333,568.361 C 378.637,569.521 375.450,571.790 373.250,573.402 C 371.050,575.014 367.337,577.605 365.000,579.160 C 360.048,582.454 359.000,583.243 359.000,583.680 C 359.000,584.368 360.245,583.885 366.383,580.815 C 372.520,577.745 374.340,576.785 379.750,573.761 C 386.464,570.009 390.746,567.934 393.824,566.939 C 397.058,565.895 397.469,565.875 403.476,566.477 C 406.927,566.822 411.550,567.441 413.750,567.852 C 415.950,568.264 418.875,568.790 420.250,569.022 C 421.625,569.255 427.475,570.242 433.250,571.217 C 444.792,573.165 448.725,573.366 453.842,572.270 C 462.151,570.491 467.482,567.665 473.077,562.074 C 475.182,559.971 478.190,557.475 479.762,556.528 C 485.319,553.179 490.938,554.096 496.451,559.253 C 499.117,561.747 504.730,569.267 508.762,575.748 C 512.879,582.365 517.988,586.714 525.250,589.783 C 532.696,592.931 539.440,597.465 543.621,602.135 C 545.334,604.049 547.063,606.095 547.462,606.682 C 547.861,607.270 549.130,608.875 550.282,610.250 C 552.864,613.333 554.500,616.496 554.500,618.405 C 554.500,620.482 553.538,622.944 552.512,623.493 C 550.935,624.337 543.862,624.642 539.490,624.055 C 535.198,623.478 525.623,621.228 521.500,619.827 C 519.541,619.162 515.801,618.224 508.250,616.506 C 504.033,615.547 501.079,615.061 496.250,614.534 C 493.500,614.234 489.225,613.767 486.750,613.496 C 477.509,612.483 467.758,613.152 450.000,616.017 C 446.562,616.572 442.175,617.260 440.250,617.545 C 438.325,617.831 435.962,618.260 435.000,618.500 C 434.038,618.739 431.056,619.223 428.375,619.575 C 421.744,620.445 421.840,620.769 429.175,622.262 C 434.007,623.246 442.689,626.097 446.875,628.075 C 450.246,629.667 450.922,630.972 448.928,632.039 C 447.104,633.015 424.303,632.683 413.881,631.529 C 398.036,629.774 396.142,629.748 387.750,631.167 C 373.267,633.615 366.617,634.274 344.000,635.501 C 333.780,636.056 311.083,636.479 306.000,636.209 Z M 259.781,592.697 C 259.602,591.980 259.248,587.312 258.996,582.322 C 258.743,577.332 258.387,571.000 258.203,568.250 C 257.572,558.800 259.253,551.792 263.711,545.280 C 264.922,543.512 266.973,540.082 268.269,537.658 C 269.565,535.233 271.369,532.097 272.277,530.687 C 275.612,525.510 278.429,519.625 279.907,514.750 C 282.823,505.129 283.478,502.720 284.258,498.750 C 284.690,496.550 285.473,493.175 285.997,491.250 C 287.320,486.395 288.826,479.990 289.761,475.250 C 291.176,468.071 295.132,453.990 298.260,445.000 C 298.882,443.212 299.733,440.625 300.151,439.250 C 300.568,437.875 301.388,435.512 301.972,434.000 C 304.818,426.633 304.965,425.345 305.109,406.681 C 305.241,389.459 305.229,389.224 304.121,387.125 C 303.505,385.956 302.510,384.044 301.911,382.875 C 299.717,378.593 296.102,374.569 295.039,375.226 C 294.783,375.384 295.134,377.215 295.838,379.380 C 297.050,383.112 297.103,383.822 297.312,399.250 C 297.476,411.295 297.339,417.227 296.757,423.250 C 295.994,431.154 295.881,431.644 291.930,444.208 C 291.419,445.834 291.000,447.567 291.000,448.059 C 291.000,448.869 290.736,449.674 289.461,452.750 C 289.233,453.300 288.353,456.788 287.505,460.500 C 286.658,464.212 285.769,468.038 285.531,469.000 C 285.293,469.962 284.825,472.325 284.491,474.250 C 284.158,476.175 283.688,478.312 283.448,479.000 C 283.209,479.688 282.684,481.837 282.284,483.776 C 281.883,485.715 281.235,488.303 280.842,489.526 C 280.450,490.749 279.839,493.438 279.484,495.500 C 279.129,497.562 278.681,499.475 278.487,499.750 C 278.294,500.025 277.645,502.275 277.044,504.750 C 273.733,518.399 271.871,522.817 264.461,534.597 C 261.562,539.206 258.998,543.613 256.954,547.500 C 256.100,549.125 254.452,555.678 253.972,559.363 C 253.088,566.143 254.446,579.850 256.833,588.250 C 257.537,590.725 258.193,593.031 258.291,593.375 C 258.388,593.719 258.838,594.000 259.289,594.000 C 259.922,594.000 260.034,593.704 259.781,592.697 Z M 321.161,498.347 C 326.285,491.765 336.000,477.590 336.000,476.696 C 336.000,476.503 336.518,475.648 337.152,474.797 C 337.785,473.946 340.155,470.276 342.417,466.642 C 347.997,457.681 351.342,452.907 354.957,448.750 C 356.631,446.825 358.452,444.292 359.004,443.122 C 359.903,441.215 359.954,440.615 359.487,437.372 C 359.200,435.380 358.757,432.738 358.501,431.500 C 356.922,423.852 356.903,423.387 357.699,411.737 C 358.643,397.942 359.273,366.904 358.588,368.000 C 358.075,368.821 356.716,375.025 354.755,385.500 C 354.060,389.212 353.274,393.375 353.009,394.750 C 352.744,396.125 352.066,400.062 351.502,403.500 C 350.938,406.938 350.153,411.663 349.756,414.000 C 348.498,421.409 348.056,424.605 347.507,430.250 C 346.886,436.626 346.339,439.352 344.662,444.414 C 343.481,447.982 342.891,449.409 339.930,455.863 C 339.144,457.575 338.121,459.937 337.655,461.113 C 337.189,462.288 336.176,464.329 335.404,465.647 C 334.632,466.965 334.000,468.245 334.000,468.490 C 334.000,468.735 330.456,476.092 326.125,484.838 C 316.890,503.487 317.818,501.507 318.333,501.472 C 318.562,501.457 319.835,500.050 321.161,498.347 Z M 597.425,417.881 C 599.334,406.818 599.363,394.740 597.499,387.000 C 596.936,384.663 596.283,381.738 596.048,380.500 C 595.813,379.262 595.263,377.238 594.826,376.000 C 594.389,374.762 593.479,371.950 592.804,369.750 C 590.742,363.024 589.505,360.736 588.905,362.536 C 588.660,363.269 589.820,373.349 590.712,378.250 C 591.112,380.450 591.580,383.488 591.752,385.000 C 591.924,386.512 592.485,390.113 592.999,393.000 C 593.513,395.887 594.187,399.712 594.496,401.500 C 594.806,403.288 595.176,408.238 595.318,412.500 C 595.460,416.762 595.670,420.546 595.784,420.907 C 596.202,422.222 596.897,420.941 597.425,417.881 Z M 576.697,353.709 C 576.863,353.274 577.000,348.554 577.000,343.221 C 577.000,332.680 576.683,331.098 573.306,324.791 C 572.582,323.438 571.731,321.470 571.416,320.416 C 570.472,317.266 569.743,318.110 569.074,323.125 C 568.735,325.669 568.217,329.340 567.925,331.284 L 567.392,334.817 L 570.112,340.284 C 571.608,343.290 573.107,346.875 573.442,348.250 C 574.775,353.707 575.064,354.500 575.716,354.500 C 576.088,354.500 576.530,354.144 576.697,353.709 Z M 632.375,339.625 C 632.088,332.419 630.853,326.628 628.828,323.000 C 628.291,322.038 627.184,319.955 626.367,318.372 C 624.832,315.397 623.015,313.653 616.680,309.078 C 613.122,306.508 612.000,306.019 612.000,307.036 C 612.000,307.711 613.790,315.347 614.804,319.000 C 616.470,324.997 617.038,326.001 620.982,329.912 C 626.332,335.217 628.012,337.943 630.666,345.625 C 630.833,346.106 631.347,346.500 631.809,346.500 C 632.568,346.500 632.622,345.838 632.375,339.625 Z M 72.000,615.056 C 72.000,614.812 72.902,611.856 74.004,608.486 C 76.097,602.091 76.820,599.413 78.254,592.750 C 78.727,590.550 79.419,587.850 79.791,586.750 C 80.163,585.650 80.716,582.500 81.019,579.750 C 81.323,577.000 81.993,572.050 82.510,568.750 C 84.081,558.709 84.650,545.242 84.341,525.429 C 84.079,508.716 83.357,490.665 82.809,487.182 C 82.686,486.394 82.446,483.500 82.277,480.750 C 82.108,478.000 81.748,473.725 81.477,471.250 C 80.837,465.397 79.720,455.464 78.750,447.000 C 78.325,443.288 77.926,438.954 77.863,437.369 C 77.692,433.014 76.686,433.391 75.515,438.250 C 74.953,440.582 74.621,442.511 72.762,454.250 C 72.370,456.725 71.697,460.325 71.266,462.250 C 70.835,464.175 70.149,467.325 69.743,469.250 C 67.661,479.109 63.757,489.227 62.158,488.904 C 61.693,488.810 60.914,487.198 60.150,484.750 C 59.463,482.550 58.506,480.300 58.023,479.750 C 57.540,479.200 56.726,478.019 56.214,477.125 C 55.703,476.231 55.018,475.500 54.693,475.500 C 53.221,475.500 53.767,489.149 55.454,494.531 C 56.437,497.667 56.449,498.017 55.730,502.460 C 54.837,507.982 53.608,512.073 50.911,518.500 C 44.410,533.993 35.411,546.646 27.000,552.117 C 24.227,553.921 21.723,554.967 22.069,554.177 C 22.171,553.942 23.412,551.388 24.825,548.500 C 28.265,541.473 30.580,533.913 33.000,521.810 C 34.107,516.277 35.351,510.062 35.766,508.000 C 36.431,504.699 38.075,492.798 39.532,480.750 C 39.798,478.550 40.350,474.275 40.757,471.250 C 41.901,462.760 43.006,439.648 42.768,429.174 C 42.386,412.392 42.499,388.433 42.995,381.000 C 43.877,367.774 43.496,362.425 41.952,366.347 C 41.648,367.119 40.999,368.650 40.510,369.750 L 39.621,371.750 L 39.102,369.750 C 38.447,367.227 38.753,344.732 39.513,339.521 C 40.404,333.417 42.385,322.026 43.213,318.250 C 45.086,309.707 48.461,298.732 49.819,296.764 C 50.194,296.221 50.500,295.434 50.500,295.014 C 50.501,294.594 51.195,292.788 52.044,291.000 C 52.892,289.212 53.932,286.738 54.355,285.500 C 55.067,283.411 60.494,271.566 65.007,262.250 C 68.740,254.543 73.044,244.243 75.349,237.500 C 75.772,236.262 76.510,234.688 76.988,234.000 C 77.997,232.549 78.553,230.091 77.954,229.722 C 77.728,229.582 77.167,230.206 76.709,231.109 C 76.251,232.011 75.119,233.684 74.194,234.826 C 73.270,235.968 71.761,238.346 70.841,240.110 C 67.806,245.934 61.262,254.250 59.716,254.250 C 58.931,254.250 58.774,253.942 58.879,252.608 C 59.030,250.688 57.791,248.000 56.755,248.000 C 55.851,248.000 55.000,249.546 55.000,251.185 C 55.000,251.873 54.307,254.206 53.460,256.370 C 52.120,259.793 51.552,260.601 49.085,262.593 C 41.199,268.962 28.451,276.359 21.225,278.761 C 19.039,279.488 16.800,280.366 16.250,280.712 C 14.963,281.522 12.581,282.109 12.011,281.757 C 11.767,281.606 16.232,276.818 21.933,271.116 C 27.905,265.144 33.399,259.161 34.897,257.000 C 44.802,242.710 50.007,234.110 55.019,223.750 C 56.217,221.275 58.050,217.900 59.094,216.250 C 60.137,214.600 60.993,212.979 60.995,212.647 C 60.998,212.316 61.568,211.207 62.263,210.184 C 62.957,209.160 63.661,207.744 63.826,207.037 C 63.991,206.329 64.728,204.738 65.464,203.500 C 66.200,202.262 67.322,200.125 67.957,198.750 C 68.592,197.375 69.845,195.238 70.740,194.000 C 71.636,192.762 73.305,190.088 74.448,188.056 C 75.592,186.024 77.028,183.734 77.639,182.967 C 78.250,182.201 79.875,180.047 81.250,178.182 C 84.062,174.367 89.131,168.450 94.048,163.243 C 95.862,161.322 98.526,158.400 99.967,156.750 C 101.409,155.100 105.074,151.331 108.113,148.375 C 111.152,145.419 113.500,143.000 113.333,143.000 C 113.165,143.000 110.940,143.985 108.389,145.189 C 101.298,148.536 92.601,152.000 91.290,152.000 C 90.104,152.000 90.315,151.482 92.343,149.405 C 93.356,148.367 94.054,147.387 93.894,147.227 C 93.734,147.067 92.511,147.497 91.177,148.183 C 89.706,148.938 87.408,149.566 85.343,149.776 C 82.397,150.076 81.737,150.335 80.475,151.687 L 79.014,153.250 L 70.882,153.417 C 62.877,153.582 59.699,153.152 60.098,151.957 C 60.322,151.285 61.217,150.801 69.250,147.011 C 72.825,145.325 77.100,143.095 78.750,142.056 C 80.400,141.018 83.888,138.857 86.500,137.255 C 91.249,134.344 100.010,128.727 102.650,126.901 C 103.420,126.369 106.418,124.954 109.313,123.758 C 114.726,121.521 118.219,119.454 118.698,118.204 C 118.919,117.630 118.565,117.554 116.861,117.810 C 114.607,118.149 114.599,118.149 113.583,118.059 C 112.500,117.963 113.068,117.272 116.458,114.563 C 119.558,112.085 125.676,106.877 131.457,101.795 C 132.993,100.445 137.963,95.714 142.500,91.282 C 155.688,78.399 164.948,71.064 179.411,62.043 C 181.700,60.616 184.063,59.237 184.661,58.980 C 185.260,58.723 187.100,57.715 188.750,56.740 C 192.162,54.723 195.682,53.001 199.277,51.589 C 200.637,51.055 201.750,50.422 201.750,50.184 C 201.750,49.945 197.756,49.689 192.875,49.613 C 181.867,49.444 181.563,49.081 189.375,45.432 C 199.093,40.892 204.808,38.639 210.500,37.103 C 221.468,34.143 236.584,33.587 246.772,35.769 C 248.960,36.237 251.555,36.781 252.539,36.977 C 253.522,37.174 254.575,37.488 254.879,37.675 C 255.183,37.863 255.574,37.784 255.749,37.501 C 256.049,37.017 249.081,29.742 244.814,26.083 C 242.114,23.768 242.851,23.255 247.820,23.994 C 251.812,24.587 252.545,24.811 258.749,27.329 C 265.514,30.076 272.448,35.456 275.886,40.625 C 276.572,41.656 277.361,42.500 277.639,42.500 C 278.136,42.500 277.862,37.974 277.175,34.825 C 276.630,32.328 278.421,33.434 281.098,37.250 C 288.664,48.033 291.237,59.049 289.447,73.000 C 289.147,75.338 288.834,77.812 288.750,78.500 C 288.601,79.722 286.385,86.766 285.525,88.750 C 285.286,89.300 283.407,94.025 281.348,99.250 C 275.757,113.441 274.241,119.980 273.601,132.650 C 273.105,142.502 274.496,157.014 276.704,165.000 C 277.122,166.512 277.920,169.438 278.477,171.500 C 279.910,176.808 282.915,184.919 285.911,191.567 C 290.698,202.188 298.677,213.517 314.095,231.582 C 317.068,235.065 319.500,238.159 319.500,238.457 C 319.500,239.399 318.334,239.068 312.598,236.500 C 309.526,235.125 306.566,234.000 306.020,234.000 C 305.474,234.000 304.064,233.566 302.888,233.036 C 301.712,232.506 298.837,231.343 296.500,230.452 C 294.163,229.561 291.125,228.119 289.750,227.248 C 288.375,226.377 286.538,225.233 285.668,224.707 C 284.087,223.751 281.298,221.223 272.658,212.919 C 267.852,208.299 262.794,204.220 260.250,202.912 C 259.425,202.487 257.437,201.436 255.833,200.575 C 250.426,197.673 238.368,195.011 230.596,195.004 C 222.783,194.996 212.302,197.469 207.500,200.453 C 207.088,200.710 204.937,201.946 202.720,203.201 C 198.513,205.584 191.058,212.401 188.074,216.593 C 184.885,221.073 183.179,223.806 182.512,225.500 C 182.134,226.463 181.220,228.600 180.482,230.250 C 178.995,233.577 178.700,234.438 176.466,242.000 C 174.364,249.118 173.932,250.542 173.433,252.000 C 173.198,252.688 172.648,255.161 172.210,257.497 C 171.330,262.198 171.499,264.794 173.037,270.250 C 176.197,281.454 176.234,281.662 175.683,285.303 C 175.396,287.199 173.973,293.250 172.520,298.750 C 171.068,304.250 169.696,309.650 169.472,310.750 C 165.905,328.251 164.886,338.118 164.904,355.000 C 164.911,362.012 165.150,370.113 165.436,373.000 C 165.722,375.887 166.222,383.802 166.548,390.588 C 167.192,403.979 166.864,410.256 164.935,421.500 C 163.357,430.698 162.419,432.688 161.814,428.125 C 161.499,425.756 157.771,408.940 156.299,403.250 C 153.932,394.102 151.491,382.067 150.627,375.290 C 150.420,373.662 150.025,372.257 149.750,372.167 C 149.475,372.078 147.506,376.672 145.374,382.377 C 141.037,393.983 140.300,396.318 139.493,401.026 C 138.694,405.687 138.503,405.878 136.193,404.308 C 135.134,403.589 134.101,403.000 133.897,403.000 C 133.693,403.000 133.182,403.664 132.763,404.475 C 132.165,405.631 132.000,407.828 132.000,414.632 C 132.000,422.452 132.361,426.609 133.983,437.500 C 138.306,466.508 138.732,471.518 138.361,489.000 C 138.060,503.162 137.079,511.551 135.363,514.625 C 134.498,516.174 133.500,517.081 133.500,516.318 C 133.500,516.218 133.273,514.938 132.995,513.473 C 132.717,512.008 132.149,508.434 131.732,505.530 C 130.953,500.101 130.698,498.786 129.016,491.500 C 128.108,487.567 127.446,484.164 125.272,472.250 C 124.820,469.775 124.102,465.907 123.677,463.654 C 122.888,459.472 122.940,457.117 123.969,450.500 C 124.317,448.262 124.422,444.885 124.229,442.125 C 123.744,435.174 122.638,436.075 121.463,444.379 C 121.103,446.921 120.654,449.000 120.466,449.000 C 119.899,449.000 119.151,447.830 118.867,446.500 C 118.720,445.812 117.818,442.550 116.862,439.250 C 111.452,420.564 108.803,404.534 107.484,382.500 C 106.716,369.653 106.208,368.922 104.704,378.500 C 103.943,383.353 103.811,387.175 103.861,403.000 C 103.945,429.615 105.103,447.817 108.249,472.006 C 109.723,483.338 110.914,498.226 110.397,498.862 C 109.596,499.846 106.773,500.141 103.949,499.536 C 102.507,499.226 101.147,499.153 100.928,499.372 C 100.386,499.914 101.613,504.263 103.058,506.925 C 103.708,508.122 105.420,510.464 106.863,512.130 L 109.486,515.159 L 109.263,519.705 C 108.905,527.014 107.546,537.929 106.518,541.750 C 106.296,542.575 105.830,544.600 105.482,546.250 C 103.028,557.882 100.249,566.106 98.553,566.757 C 97.499,567.161 96.000,565.275 96.000,563.545 C 96.000,562.240 95.219,561.000 94.397,561.000 C 93.484,561.000 94.690,568.305 96.088,571.250 C 97.705,574.656 97.682,575.009 95.421,581.499 C 91.721,592.117 83.751,604.938 76.383,612.125 C 73.102,615.325 72.000,616.062 72.000,615.056 Z M 59.287,365.125 C 62.789,357.227 62.997,356.415 63.497,348.691 C 64.214,337.621 64.163,335.531 63.163,335.148 C 62.027,334.712 59.817,337.364 57.871,341.500 C 56.695,343.998 56.242,345.849 55.914,349.500 C 55.679,352.113 55.377,354.550 55.243,354.916 C 54.553,356.805 56.681,368.000 57.731,368.000 C 57.886,368.000 58.586,366.706 59.287,365.125 Z M 141.391,349.961 C 141.468,349.020 141.844,346.675 142.226,344.750 C 142.608,342.825 143.079,339.632 143.272,337.654 C 143.646,333.825 143.132,323.500 142.566,323.500 C 141.999,323.500 140.097,327.617 139.563,330.000 C 139.286,331.238 138.677,333.763 138.209,335.613 C 137.237,339.453 137.394,341.732 139.053,347.889 C 140.205,352.163 141.142,352.993 141.391,349.961 Z" fill="#000000" fill-rule="evenodd" /></svg>