<svg width="311" height="349" viewBox="0 0 311 349" fill="none" xmlns="http://www.w3.org/2000/svg">
<path fill-rule="evenodd" clip-rule="evenodd" d="M2.43133 348.244C0.0783257 346.946 -0.390674 345.648 0.278326 342.277C0.991326 338.682 2.61033 334.331 4.01633 332.231C4.56933 331.406 6.63633 328.706 8.61033 326.231C12.4343 321.437 15.3333 316.499 16.2403 313.231C16.9203 310.783 18.6423 304.906 19.4343 302.33C20.0443 300.345 22.5763 297.747 24.6793 296.948C26.6483 296.199 30.0493 296.404 34.0993 297.515C39.9323 299.115 39.5803 299.341 54.3413 284.526C66.4053 272.418 70.9583 268.454 77.3413 264.502C80.9653 262.258 93.0533 256.284 95.5913 255.482C96.6913 255.135 97.8163 254.685 98.0913 254.483C98.3663 254.281 100.166 253.499 102.091 252.746C106.898 250.864 108.345 249.926 114.018 245.005C121.331 238.661 120.295 239.018 124.214 241.494C126.071 242.667 128.491 244.271 129.591 245.058C130.691 245.845 133.067 247.372 134.871 248.451C138.225 250.458 144.752 255.298 146.646 257.182C148.594 259.12 151.841 263.038 151.841 263.451C151.841 264.155 135.179 271.981 133.68 271.981C133.548 271.981 131.562 272.85 129.266 273.912C126.97 274.974 123.516 276.338 121.591 276.944C119.666 277.55 116.291 278.735 114.091 279.578C111.891 280.42 108.628 281.668 106.841 282.351C102.169 284.135 99.1613 285.518 89.5913 290.284C68.6953 300.689 60.5523 305.57 47.0503 315.783C40.7903 320.518 30.3663 328.819 29.8413 329.488C29.7033 329.663 28.3313 330.801 26.7913 332.018C25.2523 333.235 21.3453 336.481 18.1093 339.231C11.2963 345.022 9.29433 346.56 6.73633 347.963C4.64133 349.113 4.07533 349.15 2.43133 348.244ZM170.06 276.606C168.611 269.967 164.263 262.603 158.023 256.219C154.591 252.708 152.831 251.396 141.591 243.974C138.291 241.795 134.691 239.395 133.591 238.64C132.491 237.885 129.309 235.756 126.519 233.909C116.706 227.411 106.122 217.417 101.259 210.058C99.3793 207.213 97.9473 204.714 98.0763 204.505C98.2063 204.295 101.43 204.088 105.241 204.044C109.395 203.996 113.557 203.653 115.631 203.187C117.534 202.76 119.991 202.215 121.091 201.976C123.999 201.345 129.779 199.515 132.091 198.493C133.191 198.007 135.554 196.973 137.341 196.195C142.705 193.86 145.44 191.907 154.091 184.238C163.091 176.259 170.266 171.574 177.55 168.919C181.637 167.429 183.076 167.126 194.091 165.437C197.666 164.888 201.716 164.264 203.091 164.049C204.466 163.834 206.491 163.192 207.591 162.622C210.031 161.359 214.674 156.565 216.522 153.402C220.842 146.006 226.516 126.981 224.402 126.981C224.109 126.981 222.682 127.513 221.23 128.163C215.595 130.687 212.441 132.133 208.591 133.959C206.391 135.002 203.129 136.502 201.342 137.293C196.61 139.387 181.719 146.967 180.841 147.729C179.633 148.776 170.399 153.481 169.552 153.481C169.126 153.481 167.547 154.043 166.044 154.731C164.541 155.418 162.969 155.981 162.551 155.981C162.133 155.981 161.173 156.301 160.417 156.692C159.661 157.083 157.591 157.889 155.817 158.483C149.856 160.479 142.392 163.431 135.77 166.412C132.724 167.783 129.203 170.504 126.144 173.851C123.172 177.103 115.832 183.351 113.187 184.88C111.103 186.086 108.383 186.323 107.441 185.381C106.281 184.221 106.867 182.516 109.585 179.14C111.094 177.265 112.331 175.457 112.335 175.122C112.346 173.986 105.391 174.748 102.056 176.248C96.0993 178.928 90.0243 181.005 87.2693 181.305C83.9673 181.665 80.8383 181.191 80.8473 180.333C80.8543 179.718 85.3253 175.978 91.5913 171.345C97.4953 166.98 103.21 163.613 106.22 162.725C107.799 162.259 109.653 161.688 110.341 161.456C111.029 161.223 113.218 160.563 115.207 159.988C120.085 158.58 125.344 156.297 129.31 153.868C131.115 152.763 135.516 150.069 139.091 147.881C142.666 145.694 149.304 141.557 153.841 138.689C158.378 135.822 165.522 131.792 169.716 129.736C173.91 127.679 177.341 125.819 177.341 125.602C177.341 124.149 164.213 123.471 155.796 124.49C148.977 125.316 134.012 128.74 126.841 131.116C121.716 132.814 113.452 133.899 107.091 133.711C98.0053 133.441 92.6383 132.2 86.2433 128.89C82.4963 126.95 75.8723 121.86 75.4623 120.606C75.3053 120.125 76.9223 119.981 82.4563 119.981C91.1483 119.981 101.489 118.648 113.091 116.033C114.191 115.785 116.216 115.343 117.591 115.052C118.966 114.76 121.666 114.051 123.591 113.476C125.516 112.902 127.766 112.232 128.591 111.989C135.776 109.872 150.076 106.981 153.361 106.981C155.142 106.981 155.774 106.097 154.236 105.757C148.876 104.572 138.232 104.029 133.341 104.691C132.653 104.784 130.403 105.019 128.341 105.213C126.279 105.408 121.554 106.02 117.841 106.575C114.128 107.129 109.179 107.766 106.841 107.991C104.503 108.215 100.341 108.786 97.5913 109.259C91.3623 110.332 69.9113 110.585 66.3413 109.628C65.1033 109.296 62.5163 108.653 60.5913 108.199C50.2543 105.758 40.8003 100.026 33.9113 92.0222C30.6463 88.2282 30.0273 86.6772 31.9663 87.1432C32.5853 87.2922 35.2283 87.7502 37.8413 88.1612C56.0803 91.0272 72.6373 90.9822 101.841 87.9892C117.181 86.4172 125.291 85.8942 135.216 85.8392C141.335 85.8042 146.341 85.7132 146.341 85.6352C146.341 85.3112 142.803 84.0552 139.688 83.2742C130.89 81.0672 129.1 80.9542 102.091 80.8872C75.4983 80.8212 65.0063 80.4962 57.4013 79.5032C51.4863 78.7322 41.3603 76.9972 39.8413 76.4962C39.1533 76.2692 37.2413 75.6902 35.5913 75.2102C33.9413 74.7292 30.5813 73.3332 28.1233 72.1072C16.8773 66.4962 8.77033 58.8452 3.41033 48.7862C1.01933 44.2982 1.58533 42.6802 4.76433 44.9132C5.49433 45.4262 7.55433 46.3452 9.34133 46.9552C11.1283 47.5642 13.2663 48.3632 14.0913 48.7292C16.0383 49.5922 20.2223 50.7922 24.6013 51.7432C26.5213 52.1592 30.2293 52.9632 32.8413 53.5292C42.2573 55.5672 61.9863 57.7752 74.5913 58.2002C79.2663 58.3582 97.2663 58.6062 114.591 58.7522C147.317 59.0272 151.268 59.2462 159.591 61.2452C168.718 63.4372 179.612 69.8632 191.309 79.9542C194.15 82.4052 197.934 85.4302 201.841 88.3732C203.577 89.6812 208.667 92.5702 211.216 93.6952C212.385 94.2112 213.341 94.8032 213.341 95.0102C213.341 95.4582 220.447 98.4812 221.5 98.4812C221.901 98.4812 223.408 97.6702 224.849 96.6792C228.794 93.9652 235.899 90.4812 237.488 90.4812C239.506 90.4812 245.694 89.0082 248.212 87.9292C250.982 86.7422 254.966 82.7492 256.298 79.8252C258.003 76.0822 257.812 75.8872 254.067 77.5432C246.951 80.6912 233.573 81.1872 222.841 78.7012C213.019 76.4262 202.558 71.5072 190.727 63.6022C174.069 52.4722 169.679 50.2012 158.841 47.1062C154.377 45.8322 153.504 45.7532 144.341 45.7872C134.575 45.8252 125.071 46.9862 121.603 48.5672C120.076 49.2622 119.444 48.8112 120.375 47.6912C121.332 46.5372 125.94 43.4842 130.341 41.0872C143.003 34.1922 158.992 32.1272 173.341 35.5362C176.316 36.2422 181.469 38.0282 182.066 38.5592C182.327 38.7912 183.013 38.9812 183.591 38.9812C184.169 38.9812 184.855 39.1722 185.116 39.4062C185.377 39.6392 186.491 40.1822 187.591 40.6112C188.691 41.0402 191.504 42.2872 193.841 43.3832C202.715 47.5442 206.269 48.8852 211.841 50.1712C217.704 51.5252 227.341 51.7332 227.341 50.5052C227.341 50.3052 225.71 49.8622 223.716 49.5202C219.004 48.7132 215.437 47.4762 208.091 44.1042C202.661 41.6112 191.628 35.5872 185.841 31.9562C181.15 29.0122 176.046 26.8702 170.17 25.3802C160.452 22.9142 152.24 23.3072 137.841 26.9262C136.878 27.1682 135.697 27.5282 135.216 27.7272C133.683 28.3592 134.266 27.1242 136.216 25.6052C144.3 19.3082 153.103 15.1292 161.621 13.5452C165.885 12.7512 175.035 12.8442 179.672 13.7272C186.13 14.9572 189.175 15.9592 200.341 20.5262C217.506 27.5482 219.57 28.0922 229.341 28.1692C233.832 28.2052 237.152 28.0322 237.236 27.7582C237.316 27.4982 235.516 26.9002 233.236 26.4282C227.735 25.2902 221.323 23.0302 217.06 20.7282C213.091 18.5852 207.339 13.2232 205.819 10.2492C205.252 9.1392 204.26 7.3312 203.615 6.2312C202.404 4.1672 201.431 -0.0337949 202.172 0.000205137C202.402 0.0112051 204.391 1.4842 206.591 3.2752C215.08 10.1842 226.423 13.9212 239.341 14.0642C244.588 14.1232 248.085 13.7672 255.091 12.4642C256.466 12.2082 261.079 11.7532 265.341 11.4532C271.852 10.9942 273.73 11.0292 277.091 11.6692C283.214 12.8352 283.976 13.0212 285.592 13.7412C286.418 14.1092 288.121 14.8512 289.378 15.3902C292.009 16.5182 297.232 21.1662 299.387 24.2972C300.479 25.8852 300.983 27.3822 301.335 30.0852C301.596 32.0902 302.349 35.4192 303.009 37.4812C303.668 39.5432 304.364 42.7132 304.555 44.5252C304.934 48.1132 306.205 51.2262 309.023 55.4702C311.218 58.7752 311.286 59.7252 309.402 60.7002C307.601 61.6312 307.344 62.3062 307.329 66.1472C307.322 67.8432 307.114 70.1312 306.866 71.2312C306.618 72.3312 306.287 74.4692 306.131 75.9812C305.914 78.0912 305.549 78.9932 304.566 79.8562C303.181 81.0732 302.528 81.1532 295.309 80.9952C288.558 80.8472 286.693 81.7802 283.88 86.7112C282.285 89.5082 280.798 96.7152 281.131 100.039C281.514 103.859 282.705 108.7 284.194 112.481C286.068 117.242 289.281 126.282 290.325 129.731C290.825 131.381 291.499 133.405 291.822 134.23C292.146 135.054 292.708 137.005 293.072 138.565C294.319 143.91 292.227 150.232 287.64 154.981C285.42 157.28 284.95 157.599 277.023 162.199C270.5 165.984 265.315 170.363 258.592 177.767C251.84 185.202 247.739 190.455 245.347 194.731C244.424 196.381 243.064 198.631 242.325 199.731C241.587 200.831 240.123 203.419 239.073 205.481C236.004 211.508 227.037 225.603 223.645 229.731C216.004 239.033 208.716 246.822 199.786 255.231C188.646 265.722 173.167 277.981 171.061 277.981C170.676 277.981 170.225 277.362 170.06 276.606ZM76.7433 251.716C76.4443 251.417 71.8623 250.614 68.0913 250.2C66.7163 250.048 64.9163 249.837 64.0913 249.729C63.2663 249.621 60.1323 249.285 57.1263 248.981C54.1203 248.677 51.5333 248.354 51.3763 248.263C51.2193 248.171 48.3913 247.946 45.0913 247.763C41.7913 247.579 37.2913 247.226 35.0913 246.979C32.8913 246.732 27.7163 246.395 23.5913 246.23C14.4453 245.864 12.7493 245.471 11.4483 243.415C10.1453 241.358 10.5183 240.273 13.2423 238.193C15.8073 236.235 20.8923 234.568 28.5913 233.161C34.1933 232.138 39.2083 229.881 47.2663 224.759C51.3013 222.195 52.3283 221.763 54.7663 221.607C58.6913 221.356 60.4563 222.405 63.9423 227.061C65.5193 229.167 67.5363 231.408 68.4243 232.04L70.0383 233.19L90.0653 233.21C101.079 233.222 110.485 233.424 110.966 233.659C111.447 233.895 111.841 234.302 111.841 234.564C111.841 235.453 108.667 238.993 106.124 240.941C102.485 243.728 101.119 244.403 91.0363 248.396C84.0843 251.149 81.4043 251.981 79.4953 251.981C78.1273 251.981 76.8883 251.862 76.7433 251.716Z" fill="black"/>
</svg>
