<svg xmlns="http://www.w3.org/2000/svg" viewBox="0 0 507 444" width="507" height="444"><path d="M 158.000,426.459 C 150.332,425.911 148.308,425.480 148.090,424.349 C 147.880,423.259 152.199,417.800 155.914,414.461 C 159.512,411.226 165.268,407.821 169.479,406.437 C 174.214,404.881 176.022,403.863 179.184,400.973 C 181.898,398.492 182.000,398.308 182.000,395.858 C 182.000,393.932 181.387,391.856 179.468,387.283 C 176.105,379.267 174.166,375.318 171.967,372.000 C 168.096,366.159 167.017,363.059 167.007,357.750 C 166.999,353.473 167.382,351.337 170.184,340.000 C 171.169,336.012 172.226,331.625 172.533,330.250 C 172.840,328.875 173.556,326.259 174.124,324.437 L 175.157,321.124 L 174.078,319.610 C 172.656,317.612 172.714,316.825 174.500,313.923 C 175.325,312.582 176.000,311.364 176.000,311.215 C 176.000,311.067 176.900,309.620 178.000,308.000 C 179.100,306.380 180.000,304.937 180.000,304.793 C 180.000,304.185 185.542,295.196 190.348,288.010 C 193.194,283.753 195.717,279.478 195.953,278.510 C 197.368,272.710 198.077,269.944 198.774,267.500 C 199.400,265.306 199.513,262.930 199.337,255.750 C 199.094,245.830 198.874,244.862 195.482,238.750 C 193.298,234.813 186.729,226.250 185.894,226.250 C 185.594,226.250 183.749,229.400 181.794,233.250 C 178.168,240.390 175.322,244.951 171.938,249.045 C 169.761,251.678 169.030,254.229 169.012,259.250 C 168.993,264.210 167.859,269.550 166.037,273.251 C 164.138,277.107 156.879,284.934 150.406,290.102 C 145.903,293.698 141.473,298.691 140.489,301.279 C 139.483,303.926 140.352,306.366 143.513,309.764 C 147.136,313.658 147.873,315.079 148.480,319.346 C 148.747,321.218 149.551,323.963 150.267,325.445 C 152.801,330.686 152.430,338.034 149.311,344.421 C 147.644,347.834 146.567,348.751 144.758,348.297 C 143.809,348.058 143.457,347.380 142.728,344.379 C 140.726,336.134 139.628,333.751 136.053,329.893 C 132.932,326.525 128.676,326.869 125.734,330.727 C 123.169,334.089 120.647,343.939 121.137,348.683 C 121.447,351.685 124.307,358.152 127.578,363.250 C 130.284,367.466 130.683,368.745 129.625,369.804 C 128.421,371.007 124.900,370.262 120.321,367.833 C 114.969,364.996 110.427,361.131 108.027,357.373 C 105.889,354.025 105.179,351.501 104.610,345.224 C 104.157,340.224 103.277,339.943 101.558,344.250 C 100.726,346.334 100.286,348.625 100.118,351.752 C 99.892,355.964 99.997,356.609 101.745,361.752 C 102.927,365.230 103.709,368.582 103.873,370.875 C 104.122,374.368 104.091,374.500 103.017,374.500 C 101.683,374.500 94.984,369.858 92.435,367.166 C 90.719,365.355 89.662,363.259 86.929,356.250 C 85.456,352.475 85.324,345.848 86.659,342.798 C 87.129,341.725 87.411,340.744 87.285,340.619 C 87.160,340.493 86.341,340.901 85.465,341.525 C 83.173,343.157 81.671,346.898 80.758,353.250 C 79.361,362.959 78.439,363.625 74.677,357.639 C 70.328,350.719 70.419,351.094 70.594,340.818 L 70.750,331.706 L 72.367,329.667 C 73.256,328.545 75.547,326.348 77.458,324.784 C 80.897,321.971 83.543,318.343 86.602,312.250 C 88.319,308.830 93.486,299.926 94.303,298.977 C 94.670,298.552 95.996,296.112 97.250,293.554 C 99.214,289.549 100.854,284.944 104.658,272.750 C 109.996,255.642 113.658,249.647 127.565,235.250 C 131.667,231.004 132.562,229.010 133.973,220.973 C 135.286,213.497 136.543,208.437 138.241,203.794 C 138.936,201.894 139.426,200.260 139.330,200.163 C 138.973,199.806 135.060,205.880 133.000,209.989 C 131.831,212.320 130.101,216.370 129.155,218.989 C 126.552,226.198 124.593,229.335 120.407,232.996 C 110.338,241.803 105.600,248.506 103.266,257.250 L 102.197,261.250 L 100.224,261.109 C 96.670,260.856 88.236,258.997 84.707,257.690 C 82.806,256.986 80.636,256.222 79.886,255.993 C 79.136,255.764 75.761,253.928 72.386,251.913 C 66.387,248.332 66.178,248.251 63.000,248.296 C 59.631,248.344 51.719,248.791 43.500,249.399 C 36.918,249.885 35.787,249.704 33.816,247.843 C 32.476,246.579 32.052,245.704 31.765,243.612 C 31.327,240.427 31.933,239.282 35.270,236.986 C 36.526,236.122 37.474,235.171 37.374,234.873 C 37.267,234.550 35.494,234.303 32.972,234.261 C 28.802,234.190 25.222,233.052 22.770,231.017 C 21.796,230.208 21.766,227.028 22.712,224.765 C 23.582,222.682 26.959,220.151 29.835,219.427 C 32.452,218.767 33.391,217.824 32.500,216.750 C 32.158,216.338 31.674,216.000 31.426,216.000 C 30.364,216.000 21.333,211.378 20.219,210.265 C 19.180,209.226 19.000,208.571 19.000,205.840 C 19.000,201.735 20.015,200.294 23.421,199.564 C 26.085,198.992 28.175,199.404 34.017,201.653 C 36.356,202.553 37.528,202.774 38.142,202.430 C 39.192,201.843 39.263,200.570 38.269,200.188 C 37.160,199.763 32.116,193.401 31.257,191.344 C 30.841,190.347 30.500,188.444 30.500,187.114 C 30.500,185.042 30.733,184.471 32.127,183.119 C 33.852,181.447 37.248,179.991 38.500,180.387 C 39.561,180.722 44.234,183.786 47.626,186.369 L 50.502,188.560 L 50.188,191.227 C 49.902,193.659 49.980,193.964 51.062,194.671 C 53.058,195.976 61.919,199.500 63.203,199.500 C 64.632,199.500 67.000,196.926 67.000,195.373 C 67.000,194.741 65.505,192.785 63.250,190.468 C 58.669,185.761 58.521,184.906 62.078,183.724 C 68.534,181.580 78.678,185.064 80.999,190.223 C 82.356,193.239 82.902,196.535 83.229,203.691 C 83.390,207.234 83.662,210.358 83.832,210.633 C 84.033,210.958 86.178,210.993 89.946,210.734 C 93.138,210.514 98.241,210.298 101.285,210.252 C 104.330,210.207 107.080,210.010 107.397,209.814 C 107.714,209.618 108.200,208.624 108.478,207.604 C 109.411,204.185 112.964,198.162 116.391,194.189 C 118.260,192.022 120.517,189.190 121.406,187.894 C 122.295,186.598 124.376,183.834 126.030,181.752 C 127.685,179.670 128.904,177.749 128.740,177.483 C 128.575,177.218 126.665,177.000 124.495,177.000 C 118.053,177.000 111.062,175.220 103.500,171.653 C 100.888,170.421 97.850,169.060 96.750,168.627 C 95.650,168.195 94.525,167.676 94.250,167.473 C 93.975,167.270 91.162,166.385 88.000,165.508 C 80.739,163.492 78.521,162.487 76.309,160.209 C 74.624,158.475 73.000,154.502 73.000,152.117 C 73.000,151.579 72.351,149.701 71.557,147.944 C 70.764,146.187 69.618,142.613 69.010,140.000 C 68.403,137.387 67.713,134.575 67.476,133.750 C 66.497,130.340 65.893,123.208 65.848,114.500 C 65.801,105.613 66.010,103.442 67.804,94.146 C 68.801,88.983 68.680,86.160 67.336,83.250 C 65.442,79.147 65.066,77.192 63.486,63.250 C 63.206,60.775 62.617,57.099 62.178,55.081 C 61.252,50.821 61.489,47.402 62.816,45.907 C 64.970,43.478 67.611,42.000 69.796,42.000 C 70.976,42.000 72.074,41.784 72.237,41.520 C 72.400,41.257 72.668,39.513 72.832,37.645 C 73.170,33.798 75.452,29.304 77.877,27.710 C 79.405,26.705 83.271,26.480 87.075,27.174 L 89.400,27.599 L 90.185,24.901 C 91.084,21.806 92.322,20.459 95.500,19.118 C 100.935,16.823 109.878,16.289 111.258,18.176 C 112.348,19.668 111.485,21.106 106.792,25.609 L 102.250,29.968 L 102.326,34.359 C 102.404,38.871 103.114,41.797 103.999,41.251 C 104.275,41.080 104.503,40.561 104.507,40.095 C 104.511,39.630 104.793,38.765 105.132,38.173 C 105.472,37.580 106.406,35.946 107.209,34.540 C 109.090,31.244 113.327,27.763 116.783,26.674 C 121.022,25.338 124.484,26.459 130.580,31.144 C 132.574,32.676 133.942,35.258 133.169,36.031 C 132.693,36.507 129.401,37.499 124.797,38.554 C 121.741,39.254 120.655,40.408 118.091,45.680 C 113.925,54.245 114.353,64.347 118.984,66.742 C 122.752,68.690 127.240,66.291 128.516,61.647 C 128.878,60.329 129.642,58.785 130.212,58.218 C 130.783,57.650 131.475,56.794 131.750,56.316 C 133.310,53.602 136.000,60.896 136.000,67.841 C 136.000,70.102 135.791,72.470 135.535,73.101 C 135.279,73.733 134.941,74.851 134.785,75.586 C 134.367,77.549 132.425,79.588 129.674,80.952 C 125.801,82.871 124.923,83.315 121.769,84.950 C 120.130,85.799 118.024,86.638 117.089,86.813 C 115.180,87.171 111.419,89.142 110.476,90.279 C 109.725,91.184 110.168,97.954 111.089,99.650 C 112.762,102.730 117.998,118.663 118.008,120.704 C 118.022,123.558 118.520,123.805 122.086,122.716 C 126.453,121.383 135.289,121.382 140.584,122.715 L 144.419,123.680 L 147.834,120.924 C 153.276,116.533 154.548,115.669 158.278,113.826 C 164.812,110.597 170.679,109.584 177.984,110.426 C 183.129,111.018 185.185,110.392 190.352,106.658 C 192.221,105.308 195.325,103.286 197.250,102.165 C 199.175,101.045 202.156,99.278 203.875,98.239 L 207.000,96.350 L 207.000,89.204 C 207.000,84.622 207.194,81.939 207.541,81.725 C 208.223,81.303 210.358,83.305 213.830,87.625 C 216.880,91.419 218.000,91.880 218.000,89.340 C 218.000,86.396 219.883,78.847 221.502,75.302 C 223.182,71.621 225.979,67.576 228.317,65.443 C 230.107,63.810 235.135,60.514 237.639,59.332 C 242.498,57.037 255.594,55.785 262.008,57.001 C 270.233,58.561 277.927,62.673 282.670,68.044 C 286.709,72.617 289.963,80.566 290.845,88.016 C 291.009,89.398 291.324,90.641 291.546,90.779 C 291.768,90.916 292.693,90.211 293.600,89.211 C 294.508,88.212 295.848,86.767 296.579,86.000 C 297.310,85.233 298.292,84.019 298.761,83.303 C 300.760,80.253 301.663,82.938 301.440,91.275 C 301.371,93.881 301.525,96.218 301.782,96.467 C 302.039,96.716 305.246,98.496 308.908,100.424 C 312.570,102.351 317.182,105.145 319.158,106.631 C 324.613,110.735 324.301,110.641 331.212,110.242 C 339.852,109.744 343.826,110.614 351.668,114.720 C 356.503,117.250 360.601,120.118 362.416,122.239 C 363.241,123.203 363.898,123.524 364.666,123.338 C 365.262,123.193 368.075,122.581 370.916,121.977 C 376.028,120.891 376.139,120.889 381.666,121.754 C 384.737,122.235 388.175,122.732 389.307,122.859 L 391.363,123.090 L 391.714,119.062 C 391.975,116.078 392.841,112.794 395.056,106.392 C 397.018,100.720 398.149,96.583 398.347,94.355 C 398.634,91.117 398.583,90.891 397.231,89.480 C 396.451,88.666 395.486,88.000 395.086,88.000 C 394.686,88.000 391.972,86.892 389.054,85.537 C 386.137,84.182 382.673,82.686 381.357,82.212 C 376.354,80.410 372.500,74.204 372.500,67.947 C 372.500,63.668 375.248,55.500 376.687,55.500 C 377.120,55.500 378.207,57.115 379.293,59.375 C 381.570,64.109 382.838,65.883 384.600,66.799 C 388.904,69.034 392.474,65.906 393.216,59.250 C 393.729,54.645 392.882,50.267 390.548,45.472 C 387.568,39.348 387.157,38.970 382.651,38.186 C 378.708,37.501 375.000,35.609 375.000,34.282 C 375.000,33.211 378.872,30.126 382.387,28.395 C 388.191,25.538 392.749,26.067 397.629,30.165 C 400.001,32.157 403.981,38.613 404.694,41.625 C 404.873,42.381 405.245,43.000 405.522,43.000 C 406.509,43.000 407.000,40.353 407.000,35.025 C 407.000,29.673 406.985,29.605 405.625,28.723 C 402.900,26.954 398.482,22.817 397.749,21.347 C 396.040,17.923 397.444,16.907 403.358,17.286 C 408.381,17.608 411.575,18.263 413.892,19.445 C 416.385,20.718 417.396,21.926 418.164,24.551 L 418.807,26.750 L 423.595,26.574 C 429.236,26.366 431.214,27.055 433.180,29.912 C 435.067,32.655 435.617,34.360 435.949,38.500 L 436.250,42.250 L 439.750,42.506 C 443.820,42.805 445.220,43.546 446.542,46.105 C 447.691,48.330 447.751,50.653 446.764,54.718 C 446.359,56.386 445.562,61.800 444.992,66.750 C 443.912,76.139 443.144,80.216 441.743,84.000 C 440.322,87.839 440.321,90.768 441.742,100.750 C 443.051,109.951 443.076,110.552 442.545,119.845 C 442.002,129.345 441.846,130.496 439.926,139.250 C 438.847,144.171 438.145,146.214 435.972,150.750 C 435.182,152.400 434.390,154.686 434.211,155.830 C 433.787,158.546 431.456,161.335 428.546,162.607 C 427.283,163.159 424.000,164.356 421.250,165.267 C 418.500,166.178 414.562,167.711 412.500,168.674 C 400.838,174.116 390.185,177.000 381.743,177.000 C 380.542,177.000 379.445,177.185 379.305,177.410 C 378.872,178.111 380.628,180.455 388.173,189.250 C 395.579,197.883 397.892,201.369 399.782,206.750 L 400.835,209.750 L 407.043,210.059 C 410.457,210.229 415.859,210.543 419.048,210.756 L 424.846,211.144 L 425.166,209.947 C 425.342,209.289 425.489,207.196 425.493,205.297 C 425.497,203.397 425.976,199.291 426.557,196.171 C 428.184,187.444 429.882,185.477 437.269,183.764 C 441.166,182.860 444.097,182.841 446.500,183.705 C 449.371,184.737 449.074,185.908 444.782,190.498 C 442.702,192.722 441.000,194.972 441.000,195.498 C 441.000,196.397 445.079,200.000 446.096,200.000 C 447.033,200.000 455.812,195.540 457.250,194.333 C 458.455,193.322 458.627,192.949 458.125,192.437 C 456.893,191.181 457.408,189.199 459.447,187.358 C 461.802,185.230 466.481,182.184 469.361,180.904 C 471.454,179.974 471.491,179.975 473.611,181.039 C 476.602,182.540 477.935,183.894 478.291,185.791 C 478.807,188.543 478.095,190.190 473.964,195.799 C 471.775,198.771 470.062,201.438 470.156,201.726 C 470.503,202.780 472.460,202.511 477.053,200.779 C 481.958,198.929 484.301,198.634 486.899,199.540 C 488.947,200.254 490.246,203.467 489.863,206.869 C 489.636,208.882 489.279,209.520 487.548,211.000 C 486.422,211.963 483.982,213.390 482.126,214.171 C 477.710,216.031 476.474,216.849 476.799,217.697 C 476.946,218.079 478.959,219.107 481.273,219.980 C 485.738,221.665 487.500,223.194 487.500,225.384 C 487.500,227.449 486.420,230.404 485.301,231.402 C 484.165,232.416 479.346,233.791 475.114,234.309 C 473.664,234.487 472.337,234.859 472.165,235.138 C 471.993,235.416 472.867,236.589 474.108,237.745 C 475.948,239.459 476.428,240.276 476.714,242.186 C 477.294,246.052 474.922,248.924 470.483,249.728 C 468.650,250.061 465.582,249.742 454.260,248.046 C 448.632,247.203 446.926,247.110 445.510,247.568 C 443.178,248.323 438.559,250.650 436.170,252.275 C 435.114,252.993 433.125,254.097 431.750,254.728 C 430.375,255.359 428.238,256.341 427.000,256.911 C 422.812,258.840 415.541,260.734 410.163,261.297 L 407.076,261.621 L 406.473,259.435 C 403.540,248.810 399.923,243.436 389.533,234.270 C 386.740,231.806 383.782,228.774 382.960,227.532 C 382.137,226.290 380.706,222.906 379.780,220.012 C 378.854,217.118 377.273,213.175 376.267,211.250 C 372.550,204.138 369.733,199.503 369.125,199.502 C 368.203,199.499 368.327,200.169 370.227,205.450 C 372.690,212.296 373.799,216.417 375.003,223.208 C 375.585,226.485 376.376,229.776 376.761,230.522 C 377.147,231.268 380.790,235.163 384.856,239.178 C 388.923,243.193 393.196,247.889 394.352,249.614 C 399.012,256.569 403.212,267.014 406.770,280.500 C 408.773,288.092 410.278,291.787 413.473,296.956 C 415.119,299.620 417.013,303.035 417.681,304.545 C 418.348,306.055 419.258,307.591 419.702,307.960 C 420.145,308.328 421.484,310.569 422.675,312.940 C 425.943,319.438 426.560,320.295 431.935,325.780 C 438.654,332.637 439.000,333.388 439.000,341.139 C 439.000,345.145 438.740,348.186 438.261,349.784 C 437.383,352.713 431.559,361.677 430.387,361.902 C 429.111,362.148 428.621,360.672 427.521,353.268 C 426.513,346.487 425.532,343.445 423.569,341.007 C 422.134,339.226 421.812,339.996 422.716,343.041 C 423.147,344.493 423.500,346.441 423.500,347.370 C 423.500,350.368 421.474,359.173 420.145,361.951 C 417.754,366.948 408.056,374.979 405.114,374.399 C 403.217,374.025 403.340,372.790 406.030,365.221 C 409.428,355.657 409.774,351.731 407.749,345.700 C 405.429,338.788 404.308,338.974 403.754,346.363 C 403.296,352.474 402.649,354.599 400.106,358.344 C 397.625,361.998 394.211,365.122 389.949,367.640 C 384.210,371.032 379.776,371.721 378.347,369.443 C 377.770,368.524 377.814,368.413 380.512,364.000 C 381.604,362.212 383.533,358.742 384.798,356.287 C 387.069,351.881 387.098,351.763 387.087,346.999 C 387.074,341.581 386.304,336.546 385.140,334.271 C 383.836,331.724 380.602,328.164 378.981,327.492 C 376.481,326.456 374.039,327.494 371.382,330.722 C 369.207,333.363 368.196,335.739 365.196,345.250 C 364.437,347.657 364.022,348.282 363.097,348.413 C 362.464,348.503 361.627,348.313 361.238,347.990 C 359.884,346.866 358.081,343.005 357.293,339.541 C 356.105,334.316 356.253,330.477 357.769,327.162 C 359.133,324.180 360.481,319.098 360.493,316.892 C 360.498,315.930 361.442,314.488 363.722,311.956 C 371.326,303.513 370.563,301.120 356.349,288.830 C 352.699,285.674 343.933,275.808 342.821,273.605 C 341.066,270.126 340.017,265.420 339.721,259.700 C 339.384,253.181 339.277,252.860 336.246,249.250 C 332.620,244.931 329.097,239.331 327.258,234.963 C 325.148,229.951 323.466,226.899 322.671,226.638 C 321.385,226.215 313.395,236.972 311.424,241.780 C 309.946,245.383 308.845,254.210 309.150,260.000 C 309.402,264.783 309.737,266.493 311.792,273.500 C 312.155,274.738 312.775,276.914 313.171,278.337 C 314.203,282.053 316.140,285.789 319.511,290.570 C 322.818,295.259 331.378,309.261 333.568,313.562 C 335.215,316.796 335.302,317.574 334.205,319.248 C 333.358,320.542 333.446,321.283 335.203,327.625 C 341.213,349.314 342.000,352.755 342.000,357.354 C 341.999,362.186 341.300,364.118 337.060,371.000 C 334.252,375.557 332.702,378.568 331.180,382.421 C 330.457,384.252 329.694,385.975 329.484,386.250 C 328.802,387.143 327.500,392.137 327.500,393.857 C 327.500,397.092 329.612,400.555 333.127,403.081 C 333.884,403.625 336.809,405.026 339.627,406.194 C 344.609,408.259 349.049,411.095 355.242,416.170 C 359.982,420.055 362.347,423.867 360.910,425.305 C 359.839,426.376 346.695,426.899 324.250,426.765 C 308.200,426.668 304.856,426.513 299.000,425.591 C 290.919,424.319 288.901,423.788 286.190,422.223 C 283.200,420.497 282.558,418.733 283.017,413.500 C 283.230,411.065 283.865,408.076 284.505,406.500 C 286.424,401.773 286.988,398.912 286.994,393.866 C 286.998,390.605 286.679,387.780 286.035,385.366 C 284.357,379.082 283.000,371.499 283.000,368.408 C 283.000,366.113 283.462,364.244 285.000,360.309 C 286.100,357.496 287.000,354.588 287.000,353.848 C 287.000,352.864 286.039,351.491 283.415,348.729 C 279.160,344.249 278.715,344.354 277.930,350.023 C 277.650,352.045 277.125,354.611 276.765,355.725 C 276.404,356.839 275.466,359.836 274.680,362.385 C 273.696,365.574 273.033,366.978 272.554,366.885 C 271.787,366.736 271.796,366.750 269.348,361.750 C 268.143,359.288 267.324,358.203 266.587,358.093 C 265.360,357.909 264.992,358.665 261.770,368.000 C 258.910,376.288 254.992,386.000 254.509,386.000 C 253.720,386.000 253.090,384.568 250.549,377.000 C 249.118,372.738 247.749,368.800 247.507,368.250 C 247.264,367.700 246.572,365.788 245.968,364.000 C 244.390,359.331 243.581,357.911 242.603,358.099 C 242.142,358.188 240.494,360.283 238.942,362.755 C 235.058,368.942 234.688,368.849 232.943,361.250 C 230.282,349.658 229.357,346.414 228.635,346.137 C 227.920,345.862 221.000,352.242 221.000,353.175 C 221.000,353.423 221.634,354.892 222.409,356.438 C 225.715,363.034 226.253,364.953 226.207,370.000 C 226.166,374.656 225.737,376.637 222.725,386.100 C 221.509,389.920 221.214,397.370 222.187,399.686 C 222.634,400.751 223.000,402.057 223.000,402.588 C 223.000,403.120 223.442,404.525 223.982,405.710 C 225.180,408.341 226.278,416.109 225.807,418.622 C 225.407,420.755 222.756,423.226 220.000,424.034 C 219.037,424.316 214.988,425.010 211.000,425.576 C 204.872,426.446 200.693,426.629 184.000,426.756 C 173.137,426.838 161.438,426.705 158.000,426.459 Z M 262.374,149.795 C 265.825,149.054 267.000,148.336 267.000,146.968 C 267.000,145.418 268.092,145.266 269.117,146.674 C 270.158,148.103 272.329,148.471 273.400,147.400 C 274.366,146.434 274.117,141.334 272.960,138.394 C 271.133,133.746 269.720,133.063 268.562,136.267 C 267.729,138.569 266.562,138.491 264.560,136.000 C 262.738,133.732 261.634,133.527 259.234,135.010 L 257.600,136.020 L 256.103,134.760 C 254.190,133.150 253.148,133.171 251.389,134.856 L 249.973,136.213 L 248.294,135.309 C 245.984,134.065 244.958,134.407 243.594,136.881 C 242.951,138.046 242.120,139.000 241.747,139.000 C 240.973,139.000 239.306,136.812 238.773,135.097 C 238.191,133.225 237.326,134.088 236.082,137.782 C 234.542,142.354 234.381,146.807 235.721,147.789 C 237.094,148.795 239.457,148.702 239.854,147.625 C 240.587,145.639 242.121,145.817 243.261,148.021 C 243.848,149.156 244.484,149.512 246.618,149.901 C 250.527,150.614 258.816,150.558 262.374,149.795 Z M 243.569,114.688 C 244.081,114.224 244.500,113.657 244.500,113.426 C 244.500,111.843 232.339,104.876 230.000,105.120 C 227.847,105.344 228.160,107.306 230.951,111.069 C 232.864,113.648 233.896,114.565 235.581,115.183 C 238.201,116.143 242.237,115.893 243.569,114.688 Z M 272.983,114.240 C 275.794,112.744 279.500,108.074 279.500,106.028 C 279.500,105.482 279.041,104.790 278.481,104.490 C 277.243,103.827 273.510,105.393 270.000,108.048 C 268.762,108.984 266.794,110.372 265.625,111.132 C 263.448,112.548 263.021,113.480 264.127,114.398 C 265.556,115.584 270.627,115.493 272.983,114.240 Z" fill="#000000" fill-rule="evenodd" /></svg>