<svg xmlns="http://www.w3.org/2000/svg" viewBox="0 0 446 398" width="446" height="398"><path d="M 351.706,386.063 C 349.471,385.479 348.981,385.076 348.185,383.171 C 347.543,381.635 347.579,381.025 348.537,377.107 C 349.768,372.076 349.961,370.375 352.006,346.500 C 354.338,319.268 354.474,317.267 354.520,309.500 C 354.564,302.112 354.802,299.055 356.198,288.000 C 357.615,276.767 358.929,264.883 359.542,257.750 C 359.873,253.900 360.192,250.687 360.252,250.611 C 360.312,250.535 361.011,250.719 361.806,251.021 C 364.911,252.202 372.866,253.991 375.029,253.995 C 379.171,254.004 379.198,254.082 378.275,263.271 C 377.834,267.660 377.026,274.175 376.480,277.750 C 375.934,281.325 375.269,286.275 375.001,288.750 C 374.734,291.225 374.289,294.488 374.013,296.000 C 373.737,297.512 373.162,301.788 372.736,305.500 C 372.310,309.212 371.599,314.950 371.157,318.250 C 370.602,322.384 370.239,330.626 369.988,344.750 C 369.738,358.808 369.372,367.135 368.822,371.250 C 368.381,374.550 368.015,378.150 368.009,379.250 C 367.995,381.510 366.643,384.056 364.823,385.248 C 363.419,386.168 354.278,386.736 351.706,386.063 Z M 93.183,385.041 C 89.952,383.070 89.223,380.483 90.947,377.105 C 92.562,373.941 94.733,372.511 103.597,368.774 C 106.538,367.534 112.163,365.043 116.097,363.237 C 120.031,361.432 124.990,359.275 127.116,358.445 C 129.242,357.614 131.116,356.717 131.279,356.452 C 131.443,356.187 130.798,354.796 129.846,353.360 C 128.894,351.925 126.325,347.375 124.137,343.250 C 116.064,328.026 115.207,325.544 115.677,318.763 C 115.849,316.281 116.350,313.012 116.790,311.500 C 118.090,307.028 118.036,306.717 116.000,306.949 C 112.163,307.385 112.246,307.422 112.302,305.250 C 112.345,303.568 115.243,295.276 117.718,289.750 C 118.088,288.925 119.566,285.438 121.003,282.000 C 123.994,274.848 130.901,260.620 131.589,260.195 C 131.843,260.038 133.129,260.887 134.448,262.080 C 148.742,275.017 175.211,284.000 199.037,284.000 C 204.233,284.000 214.566,282.883 219.250,281.814 C 220.900,281.438 223.909,280.760 225.938,280.309 C 227.966,279.857 230.329,279.187 231.188,278.821 C 232.047,278.454 233.650,277.871 234.750,277.526 C 239.431,276.056 252.843,269.336 254.250,267.757 C 254.800,267.139 256.038,266.168 257.000,265.597 C 257.962,265.027 259.753,263.535 260.979,262.280 C 262.205,261.026 263.370,260.000 263.567,260.000 C 263.765,260.000 264.492,261.181 265.183,262.625 C 265.874,264.069 267.006,266.262 267.699,267.500 C 273.081,277.108 283.000,301.777 283.000,305.555 C 283.000,307.755 281.825,308.290 279.720,307.049 C 277.421,305.692 276.868,306.063 277.815,308.329 C 278.718,310.490 279.979,317.844 279.991,321.020 C 279.996,322.268 279.654,324.631 279.231,326.270 C 278.441,329.333 275.448,336.280 273.962,338.500 C 273.502,339.188 271.947,342.000 270.506,344.750 C 269.066,347.500 266.992,351.071 265.898,352.686 C 263.578,356.110 263.579,356.112 268.500,358.230 C 270.288,358.999 272.650,360.025 273.750,360.510 C 274.850,360.995 277.887,362.297 280.500,363.404 C 283.113,364.511 286.960,366.207 289.049,367.172 C 291.139,368.138 294.129,369.300 295.694,369.755 C 299.317,370.808 303.333,374.587 304.607,378.140 C 305.577,380.847 305.345,381.919 303.255,384.403 L 301.911,386.000 L 272.081,385.995 C 243.118,385.990 231.848,385.577 228.750,384.408 C 226.848,383.691 224.055,381.128 223.401,379.500 C 223.125,378.812 222.919,376.363 222.943,374.057 C 222.987,369.788 222.972,369.850 227.558,355.347 C 228.324,352.925 229.418,348.875 229.989,346.347 C 230.560,343.819 231.471,340.123 232.014,338.136 C 232.556,336.148 233.000,334.210 233.000,333.829 C 233.000,333.449 233.660,331.537 234.467,329.581 L 235.933,326.025 L 233.482,321.012 C 232.095,318.177 230.723,316.000 230.323,316.000 C 229.394,316.000 228.440,317.503 224.668,324.900 C 221.100,331.898 219.730,334.000 218.738,334.000 C 218.356,334.000 216.771,332.425 215.215,330.500 C 213.660,328.575 212.192,327.000 211.954,327.000 C 211.469,327.000 209.818,330.080 209.274,332.000 C 208.469,334.844 202.660,346.538 200.394,349.875 C 197.676,353.880 196.640,352.825 189.920,339.200 C 186.880,333.036 184.178,327.860 183.915,327.698 C 183.224,327.271 181.604,328.862 179.662,331.875 C 178.731,333.319 177.740,334.500 177.461,334.500 C 176.333,334.500 174.470,331.650 170.827,324.356 C 168.722,320.141 167.000,316.448 167.000,316.150 C 167.000,315.851 166.689,315.488 166.309,315.342 C 165.146,314.896 160.000,323.745 160.000,326.192 C 160.000,326.866 160.416,328.392 160.924,329.584 C 161.433,330.775 162.804,335.688 163.972,340.500 C 166.091,349.228 169.203,360.289 171.006,365.500 C 173.184,371.793 173.046,378.961 170.697,381.561 C 169.079,383.351 165.356,384.897 161.309,385.460 C 158.867,385.800 145.805,385.999 126.089,385.998 C 96.121,385.996 94.681,385.954 93.183,385.041 Z M 78.607,338.719 C 77.994,338.289 75.300,336.793 72.621,335.393 C 69.942,333.994 66.814,332.211 65.670,331.431 C 60.581,327.963 55.953,320.444 53.234,311.225 C 51.171,304.232 51.376,300.755 54.500,289.750 C 55.905,284.800 57.624,279.175 58.318,277.250 C 59.664,273.522 60.215,270.802 61.005,264.000 C 61.276,261.663 61.725,257.950 62.002,255.750 C 62.280,253.550 62.722,249.838 62.986,247.500 C 65.779,222.706 67.658,215.574 75.039,201.750 C 86.526,180.238 87.933,177.634 89.462,175.053 C 92.720,169.551 96.941,160.121 97.989,156.000 C 99.999,148.100 101.585,144.626 106.614,137.112 C 109.997,132.055 113.678,128.616 118.375,126.121 C 122.073,124.157 131.228,121.307 132.129,121.839 C 132.337,121.963 132.894,122.780 133.367,123.657 C 134.115,125.043 134.238,127.074 134.316,139.271 C 134.411,154.220 134.602,155.709 136.941,159.750 C 140.882,166.558 147.539,171.778 156.750,175.285 C 161.988,177.279 169.500,181.383 171.490,183.338 C 174.123,185.923 179.226,188.587 184.000,189.867 C 187.713,190.863 189.483,191.011 198.000,191.036 C 207.883,191.064 210.839,190.634 216.000,188.415 C 220.201,186.610 226.374,182.647 226.772,181.500 C 227.040,180.728 235.005,176.686 239.000,175.296 C 240.238,174.865 243.542,173.155 246.344,171.496 C 252.606,167.788 256.168,164.034 259.150,158.000 L 261.250,153.750 L 261.119,141.519 C 261.000,130.355 261.077,129.026 262.002,126.269 C 263.550,121.656 263.515,121.687 266.422,122.432 C 272.033,123.870 279.717,127.396 282.848,129.970 C 287.023,133.401 288.852,135.755 292.393,142.250 C 295.303,147.587 296.175,149.977 297.501,156.250 C 298.641,161.642 300.482,167.705 301.676,170.000 C 302.320,171.238 303.805,174.050 304.975,176.250 C 308.643,183.145 311.296,188.590 313.259,193.250 C 314.302,195.725 315.449,197.994 315.809,198.292 C 316.169,198.590 318.103,199.121 320.107,199.472 C 330.512,201.297 337.722,202.868 342.140,204.273 C 344.975,205.175 345.047,205.174 345.936,204.221 C 346.435,203.687 347.215,202.238 347.670,201.000 C 349.469,196.106 351.932,193.763 357.181,191.954 C 360.954,190.653 365.363,191.913 369.062,195.348 C 370.325,196.521 370.675,196.572 378.312,196.690 C 387.336,196.831 389.758,197.338 393.143,199.798 C 396.930,202.548 397.606,204.004 397.224,208.580 C 396.931,212.086 397.003,212.545 398.077,214.001 C 399.048,215.317 399.242,216.165 399.201,218.921 C 399.173,220.792 398.790,223.098 398.326,224.186 C 397.811,225.392 397.500,227.493 397.500,229.756 C 397.500,233.323 397.450,233.465 394.750,237.545 C 393.238,239.831 392.000,241.963 392.000,242.283 C 392.000,243.667 389.816,245.414 386.412,246.754 C 380.024,249.267 371.214,248.627 364.334,245.148 C 363.555,244.754 361.929,243.400 360.720,242.139 L 358.523,239.845 L 354.387,240.423 C 340.221,242.403 304.572,239.456 296.058,235.601 C 291.789,233.669 290.456,232.019 283.955,220.628 C 282.267,217.670 280.430,214.463 279.872,213.500 C 278.198,210.610 276.791,208.032 273.731,202.250 C 269.454,194.168 269.257,193.836 268.601,193.617 C 268.263,193.504 268.000,193.866 268.000,194.441 C 268.000,195.005 267.193,196.933 266.208,198.726 L 264.415,201.987 L 265.172,204.369 C 265.588,205.678 266.643,209.675 267.517,213.250 C 268.969,219.191 269.107,220.460 269.123,228.000 C 269.137,234.975 268.970,236.868 268.044,240.250 C 265.082,251.062 258.643,258.636 246.615,265.458 C 241.826,268.174 231.947,272.196 228.000,273.037 C 206.675,277.581 194.123,277.936 176.446,274.496 C 165.814,272.427 159.958,270.487 150.784,265.992 C 142.002,261.688 133.772,254.678 130.460,248.678 C 129.311,246.596 128.189,244.185 127.968,243.321 C 126.271,236.695 126.001,234.907 125.970,230.110 C 125.924,223.034 127.796,212.299 130.065,206.628 L 131.113,204.007 L 130.096,201.842 C 129.536,200.652 128.696,198.509 128.229,197.081 C 127.762,195.653 127.192,194.369 126.962,194.226 C 126.732,194.084 126.154,194.594 125.677,195.359 C 124.413,197.385 111.611,216.898 110.003,219.250 C 108.238,221.829 108.093,222.341 106.738,230.714 C 104.951,241.757 104.278,243.811 98.663,255.348 C 96.214,260.378 94.484,264.860 92.158,272.196 C 91.296,274.918 91.396,275.257 94.480,280.000 C 97.404,284.496 98.917,287.300 99.727,289.721 C 101.101,293.829 101.994,301.350 101.997,308.837 C 102.000,315.733 101.965,315.965 100.706,317.462 C 99.595,318.781 99.074,319.000 97.039,319.000 C 94.987,319.000 94.395,318.746 92.661,317.125 C 91.037,315.607 90.401,314.440 89.321,311.000 C 87.573,305.432 86.540,303.122 85.642,302.778 C 84.454,302.322 81.519,304.013 80.679,305.636 C 80.109,306.740 79.952,308.213 80.087,311.194 C 80.337,316.704 81.852,319.858 86.689,324.936 C 89.454,327.838 90.519,329.342 90.774,330.703 C 91.225,333.109 89.922,336.556 87.926,338.236 C 86.646,339.313 85.927,339.500 83.073,339.500 C 80.844,339.500 79.349,339.238 78.607,338.719 Z M 375.000,191.187 C 373.181,190.579 367.886,187.718 366.927,186.825 C 365.897,185.865 365.883,185.631 366.296,176.546 C 366.529,171.433 366.680,166.283 366.631,165.102 C 366.574,163.700 365.304,160.054 362.973,154.602 C 359.473,146.415 358.770,144.830 355.498,137.750 C 353.174,132.720 350.565,125.349 349.666,121.270 C 348.708,116.927 348.581,107.722 349.427,103.908 C 350.181,100.510 352.722,96.434 357.936,90.261 C 367.851,78.521 373.910,73.417 381.250,70.620 C 391.592,66.679 402.214,67.983 410.305,74.187 C 416.463,78.909 426.554,92.486 428.869,99.164 C 430.254,103.159 430.516,107.464 429.533,110.070 C 428.305,113.324 428.104,113.779 426.471,117.000 C 424.493,120.904 424.073,121.601 420.350,127.180 C 415.748,134.074 409.817,138.005 405.159,137.248 C 398.657,136.192 392.128,132.316 389.069,127.697 C 387.132,124.773 385.785,120.437 386.238,118.590 C 386.892,115.931 387.873,115.000 390.025,115.000 C 391.719,115.000 392.359,115.333 394.191,117.164 C 396.989,119.963 399.169,121.500 400.338,121.500 C 403.276,121.500 408.154,114.110 408.205,109.583 C 408.242,106.327 406.184,101.351 403.605,98.462 C 401.165,95.729 396.208,93.000 393.682,93.000 C 389.346,93.000 382.202,97.072 377.892,101.999 C 374.324,106.078 373.290,108.555 373.092,113.500 C 372.943,117.213 373.123,118.351 374.509,122.500 C 376.035,127.066 381.367,138.250 384.434,143.318 C 388.817,150.559 391.000,156.403 391.000,160.895 C 391.000,164.011 389.417,173.920 388.746,175.007 C 388.324,175.690 387.517,180.438 386.836,186.250 L 386.250,191.250 L 381.000,191.344 C 378.113,191.395 375.413,191.325 375.000,191.187 Z M 190.649,183.995 C 188.394,183.761 185.806,183.243 184.899,182.844 C 183.992,182.444 182.463,181.828 181.500,181.475 C 180.537,181.122 178.850,180.116 177.750,179.240 C 176.650,178.364 175.001,177.262 174.086,176.791 C 173.171,176.320 171.371,175.131 170.086,174.150 C 168.801,173.169 167.075,172.084 166.250,171.740 C 165.425,171.396 162.950,170.366 160.750,169.451 C 151.466,165.588 146.694,162.077 143.540,156.788 L 141.830,153.921 L 141.468,140.836 C 141.161,129.732 140.942,127.148 140.023,123.774 C 138.779,119.205 135.835,114.333 134.175,114.097 C 133.583,114.012 130.771,114.518 127.925,115.221 C 120.465,117.063 116.258,116.834 108.500,114.162 C 104.106,112.648 102.709,111.979 99.000,109.606 C 94.831,106.939 82.549,94.056 78.642,88.250 C 76.076,84.437 68.565,77.029 62.750,72.577 C 56.074,67.465 34.066,56.792 25.750,54.633 C 24.100,54.204 20.959,53.321 18.769,52.669 C 12.576,50.826 10.265,47.795 13.375,45.595 C 16.121,43.652 29.007,39.223 39.250,36.702 C 40.900,36.296 43.038,35.758 44.000,35.507 C 44.962,35.256 48.675,34.547 52.250,33.932 C 57.770,32.982 60.672,32.809 71.500,32.782 C 84.495,32.749 88.076,33.063 97.250,35.039 C 110.661,37.926 127.494,44.512 133.846,49.357 C 136.663,51.506 136.885,51.295 140.703,42.863 C 144.575,34.308 154.208,24.197 162.750,19.720 C 165.644,18.203 173.170,15.220 175.000,14.864 C 175.688,14.730 178.613,13.986 181.500,13.211 C 186.481,11.874 187.302,11.801 197.500,11.791 C 207.948,11.780 208.426,11.824 214.500,13.367 C 234.513,18.450 248.298,29.116 256.332,45.734 C 257.913,49.005 258.905,50.500 259.493,50.500 C 259.964,50.500 261.227,49.871 262.300,49.101 C 270.469,43.241 284.996,37.653 300.500,34.408 C 308.204,32.795 308.335,32.785 322.500,32.795 C 335.763,32.805 337.252,32.897 344.000,34.138 C 351.795,35.570 364.380,38.859 369.250,40.736 C 370.900,41.372 373.746,42.281 375.574,42.756 C 377.401,43.232 379.746,44.100 380.785,44.685 C 382.685,45.757 383.852,47.862 383.318,49.254 C 382.876,50.406 376.353,53.117 372.500,53.750 C 371.262,53.953 369.415,54.543 368.395,55.060 C 367.375,55.577 366.250,55.999 365.895,55.998 C 365.540,55.997 362.325,57.158 358.750,58.577 C 339.822,66.092 324.181,76.796 316.488,87.501 C 312.198,93.470 307.405,99.279 303.341,103.432 C 297.294,109.613 292.419,112.527 284.489,114.700 C 278.282,116.402 270.200,116.531 265.750,115.000 C 264.151,114.450 262.473,114.000 262.020,114.000 C 260.711,114.000 258.247,117.006 257.101,120.000 C 255.009,125.465 254.836,126.903 254.933,137.980 C 255.065,152.997 254.366,155.737 249.063,160.991 C 245.248,164.770 242.450,166.510 236.118,169.041 C 228.834,171.952 223.596,174.912 216.750,179.984 C 213.289,182.549 208.276,183.861 200.750,184.172 C 197.450,184.309 192.905,184.229 190.649,183.995 Z M 163.844,153.422 C 174.083,149.591 193.783,147.272 205.911,148.470 C 217.789,149.644 223.564,150.697 230.361,152.929 C 231.950,153.451 234.212,154.021 235.388,154.197 C 238.155,154.610 238.511,153.790 237.072,150.317 C 236.320,148.502 236.000,146.673 236.000,144.184 C 236.000,142.233 235.786,139.507 235.524,138.126 C 234.940,135.046 232.072,128.500 231.308,128.501 C 230.727,128.502 229.611,130.512 225.770,138.473 C 224.516,141.071 223.252,143.344 222.961,143.524 C 222.670,143.704 221.378,143.682 220.091,143.476 C 210.714,141.973 207.831,141.750 197.750,141.755 C 188.720,141.758 185.472,141.964 179.614,142.903 C 175.690,143.531 172.292,143.930 172.064,143.789 C 171.835,143.648 171.263,142.457 170.791,141.141 C 169.310,137.007 167.842,133.840 166.149,131.125 C 164.532,128.532 163.640,127.908 163.287,129.125 C 163.188,129.469 162.632,131.331 162.053,133.264 C 161.422,135.369 160.998,138.176 160.996,140.264 C 160.994,142.305 160.581,145.097 160.000,147.000 C 159.454,148.787 159.006,151.206 159.004,152.375 C 158.999,154.927 159.520,155.040 163.844,153.422 Z M 204.284,130.352 C 205.028,129.609 205.926,129.000 206.280,129.000 C 207.356,129.000 209.872,126.130 211.540,123.000 C 213.009,120.245 216.564,116.463 220.477,113.493 C 222.014,112.327 222.132,112.032 222.108,109.432 C 222.071,105.250 219.771,100.500 217.783,100.500 C 217.627,100.500 217.500,101.632 217.500,103.016 C 217.500,106.512 216.509,108.537 213.690,110.804 C 209.100,114.495 207.000,116.802 207.000,118.156 C 207.000,120.128 205.130,122.861 202.566,124.638 C 200.540,126.041 199.857,126.238 197.113,126.209 C 193.002,126.167 191.858,125.282 189.000,119.930 C 185.927,114.178 186.134,114.442 182.601,111.772 C 180.869,110.463 179.153,108.910 178.787,108.321 C 177.802,106.735 177.482,104.307 178.013,102.454 C 178.272,101.553 178.379,100.712 178.251,100.585 C 177.891,100.224 174.456,104.091 173.802,105.593 C 173.481,106.331 173.310,107.904 173.423,109.087 C 173.609,111.040 174.051,111.651 178.240,115.744 C 180.777,118.222 183.817,121.713 184.995,123.500 C 188.945,129.492 191.218,131.325 195.451,131.937 C 199.342,132.499 202.749,131.888 204.284,130.352 Z M 271.729,94.235 C 273.928,90.234 274.961,86.434 275.483,80.425 C 275.795,76.826 276.170,75.115 276.817,74.335 C 279.600,70.977 282.158,68.624 285.500,66.349 C 289.237,63.806 302.275,57.124 307.500,55.075 C 312.558,53.091 323.513,50.478 331.967,49.240 C 334.873,48.814 337.680,48.334 338.206,48.173 C 339.145,47.886 339.145,47.871 338.212,47.349 C 336.067,46.148 314.538,47.030 308.750,48.555 C 307.650,48.845 305.962,49.281 305.000,49.524 C 298.181,51.242 288.424,54.943 285.659,56.860 C 284.884,57.398 283.902,57.962 283.477,58.114 C 282.256,58.551 275.109,64.370 272.650,66.928 C 269.765,69.931 267.836,73.975 267.864,76.964 C 267.876,78.221 268.120,81.275 268.407,83.750 C 268.694,86.225 268.945,90.350 268.964,92.917 C 268.988,96.043 269.180,97.523 269.544,97.402 C 269.843,97.302 270.826,95.877 271.729,94.235 Z M 126.822,91.988 C 126.639,89.195 126.747,84.310 127.065,80.953 C 127.502,76.353 127.497,74.463 127.046,72.956 C 125.840,68.931 117.082,60.865 109.276,56.592 C 106.673,55.166 104.347,54.000 104.108,54.000 C 103.868,54.000 102.227,53.406 100.461,52.681 C 96.628,51.106 91.386,49.817 83.250,48.448 C 76.253,47.271 56.000,46.492 56.000,47.400 C 56.000,48.130 56.760,48.316 64.500,49.475 C 74.888,51.030 81.279,52.800 94.000,57.642 C 101.933,60.662 112.562,67.495 117.032,72.447 L 120.000,75.736 L 120.018,79.993 C 120.040,85.396 120.897,88.956 123.253,93.439 C 124.633,96.067 125.389,97.000 126.137,97.000 C 127.109,97.000 127.137,96.797 126.822,91.988 Z M 167.565,95.767 C 168.564,95.608 170.814,94.550 172.565,93.416 C 174.317,92.282 177.029,90.921 178.593,90.392 C 183.139,88.853 183.670,87.275 180.155,85.748 C 179.107,85.293 176.787,84.136 175.000,83.178 C 165.014,77.823 156.242,74.474 152.349,74.531 C 151.195,74.547 149.012,74.949 147.500,75.423 C 144.979,76.214 144.750,76.409 144.750,77.768 C 144.750,79.208 144.811,79.245 146.909,79.079 C 150.131,78.823 151.000,79.836 151.000,83.847 C 151.000,87.672 152.053,90.028 154.920,92.618 C 157.549,94.994 158.799,95.640 161.500,96.023 C 163.735,96.339 164.082,96.324 167.565,95.767 Z M 237.412,95.217 C 239.960,94.155 242.921,91.179 244.092,88.500 C 244.839,86.793 245.037,85.405 244.913,82.750 L 244.750,79.250 L 248.083,79.250 C 251.794,79.250 252.239,79.042 251.760,77.532 C 251.172,75.679 248.748,74.885 243.535,74.837 C 238.915,74.795 238.565,74.873 233.391,77.094 C 230.444,78.359 225.567,80.768 222.555,82.447 C 219.542,84.126 216.842,85.500 216.555,85.500 C 215.280,85.500 212.500,87.254 212.500,88.059 C 212.500,88.968 213.009,89.204 216.095,89.723 C 217.110,89.894 219.810,91.273 222.095,92.787 C 224.380,94.300 226.700,95.634 227.250,95.750 C 227.800,95.866 228.700,96.068 229.250,96.200 C 230.881,96.588 235.436,96.040 237.412,95.217 Z" fill="#000000" fill-rule="evenodd" /></svg>