<svg xmlns="http://www.w3.org/2000/svg" viewBox="0 0 313 387" width="313" height="387"><path d="M 122.277,373.375 C 122.172,373.031 121.956,371.962 121.798,371.000 C 121.640,370.038 121.272,368.125 120.979,366.750 C 118.724,356.151 118.452,348.000 120.000,337.500 C 120.547,333.788 120.996,330.694 120.998,330.625 C 121.004,330.262 119.016,330.570 118.769,330.970 C 118.531,331.355 108.318,338.217 102.250,342.069 C 101.425,342.593 98.012,344.760 94.667,346.885 C 88.833,350.591 78.797,359.036 72.710,365.361 C 68.593,369.638 68.669,369.866 69.523,355.785 C 70.045,347.160 71.194,340.517 73.247,334.250 C 75.717,326.709 80.103,316.725 82.514,313.152 C 84.575,310.098 84.254,309.277 81.396,310.292 C 80.216,310.711 77.338,311.582 75.000,312.227 C 69.644,313.705 64.048,315.703 60.500,317.406 C 58.987,318.131 57.581,318.806 57.375,318.904 C 56.446,319.348 57.220,316.647 60.006,309.722 C 64.018,299.751 69.253,289.728 73.441,284.000 C 77.402,278.582 88.089,267.333 91.561,264.926 C 92.215,264.472 92.610,263.957 92.439,263.781 C 92.268,263.605 88.668,263.251 84.439,262.994 C 76.611,262.517 70.950,261.837 70.018,261.261 C 68.997,260.630 69.556,259.993 73.375,257.429 C 88.619,247.193 105.280,231.708 112.577,220.993 C 115.344,216.930 118.000,209.242 118.000,205.297 C 118.000,200.554 115.361,194.629 111.124,189.858 C 109.927,188.510 109.031,187.156 109.134,186.848 C 109.681,185.206 126.428,187.001 134.500,189.566 C 138.081,190.704 144.073,194.162 145.338,195.820 C 146.788,197.722 147.535,197.993 147.138,196.474 C 146.202,192.894 133.093,184.412 123.981,181.490 C 120.425,180.350 113.016,178.566 109.500,178.004 C 99.330,176.379 86.961,174.917 77.600,174.235 C 66.250,173.408 57.478,172.220 52.460,170.830 C 50.926,170.405 48.502,169.902 47.074,169.713 C 45.646,169.523 44.347,169.156 44.186,168.897 C 43.815,168.297 45.946,166.000 46.874,166.000 C 47.259,166.000 49.301,165.419 51.412,164.709 C 65.450,159.989 84.749,159.088 104.933,162.211 C 107.783,162.652 110.331,163.145 110.593,163.307 C 110.855,163.470 112.686,164.005 114.660,164.498 C 123.878,166.798 129.961,168.641 134.500,170.508 C 135.738,171.017 138.799,172.246 141.304,173.238 C 146.439,175.271 153.022,178.536 156.750,180.898 C 158.125,181.768 159.515,182.485 159.839,182.490 C 160.813,182.506 161.197,177.289 160.475,173.843 C 158.958,166.608 155.568,160.677 149.048,153.852 C 144.523,149.116 143.096,148.097 135.250,144.009 C 120.434,136.288 117.224,134.262 112.343,129.554 C 108.948,126.278 105.944,121.052 103.261,113.750 C 98.455,100.672 94.286,95.070 86.356,91.033 C 83.960,89.813 82.002,88.575 82.005,88.283 C 82.014,87.295 86.967,81.141 90.839,77.306 C 101.392,66.855 112.439,62.533 131.260,61.492 C 143.517,60.814 165.549,61.784 177.000,63.505 C 180.292,64.000 193.459,66.163 198.500,67.037 C 200.012,67.299 202.600,67.730 204.250,67.993 C 205.900,68.257 209.500,68.936 212.250,69.502 C 221.436,71.394 226.062,70.824 241.000,65.958 C 245.372,64.534 251.952,61.781 257.564,59.028 C 271.180,52.348 279.626,46.494 290.502,36.199 C 293.372,33.483 295.756,31.599 296.074,31.796 C 296.955,32.341 296.312,48.972 295.254,53.000 C 294.061,57.544 289.895,65.696 286.808,69.526 C 284.532,72.349 278.510,77.662 275.709,79.316 C 273.830,80.426 275.540,80.629 279.742,79.794 C 282.089,79.328 284.964,78.514 286.130,77.984 C 290.107,76.179 290.366,76.806 287.771,81.958 C 281.792,93.830 268.093,105.347 255.884,108.764 C 254.308,109.205 252.863,109.817 252.673,110.124 C 252.477,110.441 253.066,111.236 254.039,111.966 C 268.254,122.633 283.774,150.411 287.496,171.848 C 288.048,175.028 288.500,178.282 288.500,179.080 C 288.500,181.423 287.193,181.406 285.165,179.036 C 283.410,176.986 276.566,172.000 275.506,172.000 C 275.209,172.000 273.857,171.438 272.500,170.750 C 271.143,170.063 269.801,169.500 269.517,169.500 C 268.556,169.500 268.992,170.956 270.451,172.618 C 271.249,173.527 272.829,176.498 273.962,179.220 C 276.923,186.334 278.101,191.325 280.988,209.000 C 282.779,219.957 284.503,226.978 286.822,232.750 C 288.825,237.735 291.479,243.195 293.306,246.088 C 293.963,247.129 294.500,248.210 294.500,248.490 C 294.500,249.630 288.619,248.876 284.750,247.240 C 278.112,244.433 274.923,242.651 271.128,239.628 C 269.961,238.698 268.833,238.044 268.622,238.174 C 267.998,238.560 269.254,254.124 270.564,262.250 C 274.061,283.928 277.430,294.709 283.555,303.819 C 285.918,307.333 293.848,315.156 296.974,317.058 C 300.629,319.280 297.461,320.022 284.000,320.097 C 274.369,320.150 268.746,319.501 261.899,317.543 C 256.927,316.121 249.156,312.511 245.250,309.810 C 241.673,307.336 233.481,300.593 230.381,297.572 C 228.345,295.588 226.843,294.479 226.586,294.769 C 226.352,295.034 225.881,296.600 225.539,298.250 C 224.192,304.751 221.855,312.028 219.920,315.750 C 217.344,320.706 215.189,324.466 213.418,327.096 C 211.061,330.597 205.246,337.487 203.809,338.481 C 203.227,338.883 200.838,340.809 198.500,342.761 C 196.162,344.712 193.430,346.805 192.427,347.413 C 191.424,348.020 190.225,349.096 189.762,349.802 C 189.299,350.509 188.777,350.944 188.603,350.769 C 188.428,350.595 188.349,348.719 188.427,346.601 C 188.598,341.932 187.942,337.596 186.213,331.977 C 184.261,325.636 181.963,319.406 181.056,317.998 C 180.613,317.309 180.009,316.310 179.714,315.778 C 179.118,314.700 178.000,314.140 178.000,314.919 C 178.000,315.354 174.498,321.625 172.060,325.556 C 170.961,327.328 167.524,332.104 164.722,335.750 C 159.885,342.046 147.500,353.694 132.028,366.500 C 129.203,368.837 126.046,371.481 125.011,372.375 C 122.940,374.163 122.561,374.302 122.277,373.375 Z M 153.904,122.457 C 161.715,120.650 166.489,114.802 167.340,106.000 L 167.751,101.750 L 171.500,101.894 C 175.345,102.042 185.047,103.662 187.366,104.544 C 189.263,105.265 189.889,104.326 188.275,103.181 C 187.553,102.669 185.902,101.436 184.606,100.442 C 181.476,98.039 178.865,96.758 173.885,95.180 C 170.342,94.057 168.877,93.872 163.647,93.887 C 156.988,93.906 153.500,94.315 153.500,95.077 C 153.500,95.346 154.056,96.295 154.735,97.185 C 158.234,101.773 158.501,108.037 155.342,111.419 C 152.148,114.837 145.822,114.799 142.583,111.342 C 140.643,109.271 139.825,104.781 140.724,101.133 C 141.043,99.837 140.954,99.451 140.277,99.191 C 139.813,99.013 138.941,99.099 138.341,99.382 C 137.427,99.813 132.040,101.772 127.000,103.507 C 126.312,103.744 124.107,104.199 122.098,104.519 C 119.156,104.987 118.477,105.259 118.604,105.921 C 118.844,107.167 122.933,107.742 126.890,107.086 C 130.528,106.483 131.000,106.597 131.000,108.081 C 131.000,108.644 131.822,110.668 132.827,112.580 C 134.606,115.966 138.583,120.169 141.138,121.365 C 144.402,122.893 149.963,123.369 153.904,122.457 Z M 24.334,182.125 C 20.577,175.853 18.859,171.857 17.562,166.375 C 17.253,165.069 16.719,162.931 16.375,161.625 C 15.981,160.129 15.758,155.919 15.771,150.250 C 15.792,141.527 15.842,141.095 17.396,136.227 C 18.278,133.464 19.000,131.051 19.000,130.864 C 19.000,130.678 19.698,129.002 20.550,127.141 C 23.092,121.591 27.751,116.208 34.435,111.098 C 37.361,108.862 46.787,104.003 50.572,102.781 C 51.770,102.394 55.000,101.251 57.750,100.240 C 60.500,99.230 65.225,97.850 68.250,97.174 C 73.076,96.095 74.087,96.014 76.500,96.514 C 79.812,97.201 83.137,99.335 87.514,103.582 C 90.870,106.840 92.139,108.978 94.968,116.145 C 100.460,130.058 105.216,136.542 113.663,141.633 C 116.832,143.543 127.592,149.000 128.190,149.000 C 129.191,149.000 140.080,156.090 142.451,158.285 C 145.200,160.830 149.963,168.204 149.291,168.875 C 149.159,169.007 146.508,168.039 143.401,166.723 C 127.614,160.039 120.617,157.900 105.250,155.059 C 84.570,151.236 72.159,150.940 58.500,153.942 C 52.644,155.229 51.682,155.555 46.000,158.180 C 36.887,162.389 29.362,170.948 26.384,180.490 C 25.810,182.330 24.894,183.060 24.334,182.125 Z M 78.160,120.804 C 78.956,118.730 73.312,112.070 70.636,111.925 C 68.396,111.803 66.282,112.051 65.827,112.489 C 65.594,112.713 66.677,113.876 68.235,115.073 C 69.792,116.271 72.314,118.206 73.838,119.375 C 76.769,121.622 77.725,121.938 78.160,120.804 Z M 216.750,61.156 C 215.925,61.050 213.000,60.543 210.250,60.030 C 207.500,59.516 201.706,58.575 197.375,57.938 C 193.044,57.300 189.500,56.631 189.500,56.450 C 189.500,56.095 190.948,55.479 194.500,54.322 C 200.591,52.339 211.258,46.375 218.575,40.863 C 223.138,37.425 232.788,27.583 236.833,22.241 C 240.947,16.807 241.339,16.511 242.024,18.314 C 243.684,22.680 243.867,39.740 242.313,45.287 C 241.054,49.779 238.512,55.303 237.112,56.587 C 235.484,58.079 230.791,60.312 227.859,60.989 C 225.815,61.461 219.806,61.551 216.750,61.156 Z" fill="#000000" fill-rule="evenodd" /></svg>