<svg xmlns="http://www.w3.org/2000/svg" viewBox="0 0 324 357" width="324" height="357"><path d="M 124.500,341.703 C 123.537,340.730 120.972,338.205 118.798,336.092 C 109.687,327.234 106.147,319.685 104.484,305.569 C 103.907,300.670 104.009,296.835 104.768,294.875 C 106.283,290.964 96.077,301.453 93.213,306.750 C 89.660,313.322 89.113,314.753 88.474,319.139 C 87.843,323.473 87.167,324.423 86.463,321.969 C 85.209,317.604 84.752,314.035 84.771,308.750 C 84.795,301.947 85.664,297.380 88.341,290.000 C 90.837,283.119 98.479,264.179 101.419,257.587 C 102.809,254.472 104.223,250.647 104.563,249.087 C 104.903,247.527 105.609,245.238 106.131,244.000 C 107.772,240.114 111.458,227.001 112.455,221.500 C 113.757,214.316 113.958,213.086 114.506,209.000 C 115.223,203.659 114.990,190.912 114.172,190.640 C 113.824,190.525 113.368,191.505 113.028,193.099 C 112.716,194.557 111.948,196.537 111.320,197.500 C 110.693,198.463 109.887,200.375 109.531,201.750 C 108.921,204.102 105.012,212.484 103.867,213.896 C 103.579,214.251 102.854,215.489 102.256,216.646 C 100.499,220.047 99.242,222.146 96.308,226.574 C 94.787,228.871 92.721,232.775 91.718,235.250 C 90.714,237.725 89.578,240.463 89.192,241.335 C 88.806,242.207 88.346,243.643 88.169,244.528 C 87.624,247.256 84.279,255.628 83.750,255.589 C 83.160,255.544 82.867,254.314 81.464,246.000 C 80.627,241.044 80.471,238.586 80.707,234.125 C 80.880,230.856 80.814,228.500 80.549,228.500 C 79.769,228.500 76.034,233.295 75.009,235.613 C 73.815,238.313 72.231,245.117 71.776,249.500 C 71.268,254.399 70.027,259.992 68.956,262.209 C 68.430,263.297 68.002,264.427 68.004,264.719 C 68.006,265.011 66.825,266.392 65.379,267.787 C 63.933,269.182 62.083,271.095 61.268,272.037 C 60.025,273.475 57.927,275.000 57.193,275.000 C 56.685,275.000 57.149,273.324 58.772,269.300 C 60.847,264.155 61.586,260.860 61.568,256.835 C 61.539,250.241 58.420,251.189 52.699,259.530 C 47.576,267.000 45.807,277.396 46.682,294.901 C 46.920,299.659 46.982,303.685 46.820,303.847 C 45.793,304.873 39.390,295.315 37.825,290.421 C 34.675,280.569 33.870,276.008 33.868,268.000 C 33.866,260.457 34.684,255.936 37.393,248.500 C 37.944,246.988 39.231,243.387 40.252,240.500 C 41.274,237.613 42.310,235.036 42.555,234.775 C 42.800,234.514 43.000,233.988 43.000,233.607 C 43.000,233.225 43.713,231.921 44.584,230.708 C 47.368,226.832 45.659,227.291 39.774,232.000 C 33.762,236.811 28.554,242.128 25.817,246.250 C 23.215,250.169 20.382,255.305 19.774,257.209 C 19.239,258.882 18.476,257.346 18.411,254.461 C 18.237,246.790 22.027,235.183 27.077,227.923 C 27.585,227.193 28.000,226.465 28.000,226.306 C 28.000,225.619 33.776,218.053 37.114,214.367 C 39.114,212.158 44.519,206.560 49.125,201.925 C 53.731,197.291 57.500,193.256 57.500,192.960 C 57.500,192.391 55.082,192.696 53.250,193.494 C 52.700,193.734 50.000,194.890 47.250,196.063 C 42.103,198.259 37.877,200.403 35.250,202.151 C 32.979,203.662 26.113,210.471 24.435,212.875 C 22.821,215.187 21.663,215.713 22.231,213.875 C 22.422,213.256 22.924,211.175 23.348,209.250 C 24.583,203.633 28.485,196.595 32.827,192.152 C 35.856,189.052 43.576,182.745 45.659,181.668 C 46.519,181.223 49.142,179.591 51.487,178.041 C 53.831,176.491 56.763,174.699 58.000,174.059 C 59.237,173.419 61.461,171.850 62.941,170.573 C 64.422,169.295 67.066,167.163 68.817,165.835 C 74.246,161.717 81.342,152.461 85.364,144.250 C 86.172,142.600 87.337,140.371 87.952,139.297 C 89.155,137.197 90.980,130.633 90.992,128.363 C 90.998,127.300 90.678,126.859 89.625,126.477 C 86.255,125.257 80.818,121.363 76.906,117.367 C 72.294,112.656 69.000,105.071 69.000,99.164 C 69.000,95.281 69.501,94.608 70.704,96.875 C 71.106,97.631 72.293,99.308 73.342,100.602 C 74.391,101.895 75.654,103.526 76.148,104.226 C 77.199,105.716 81.316,108.450 86.243,110.929 C 91.570,113.610 97.187,113.692 94.799,111.054 C 94.360,110.569 94.000,109.987 94.000,109.762 C 94.000,109.299 90.790,105.268 89.212,103.750 C 87.512,102.114 84.003,96.635 83.203,94.367 C 80.713,87.309 80.021,76.416 81.702,70.750 C 83.280,65.433 86.740,58.958 89.518,56.124 C 90.933,54.679 92.307,53.631 92.570,53.793 C 92.863,53.974 92.870,54.314 92.589,54.670 C 92.336,54.989 91.855,56.487 91.521,58.000 C 91.187,59.513 90.708,61.564 90.457,62.558 C 89.366,66.876 90.557,76.179 92.979,82.250 C 94.784,86.777 99.166,92.876 102.239,95.140 C 105.159,97.291 110.126,99.574 110.679,99.021 C 110.962,98.738 110.818,97.877 110.308,96.802 C 107.650,91.201 108.317,77.000 111.237,77.000 C 111.651,77.000 112.178,77.804 112.467,78.875 C 114.280,85.604 116.145,89.060 119.845,92.544 C 121.816,94.401 126.942,97.713 130.000,99.107 C 132.265,100.140 135.569,101.500 135.811,101.500 C 136.386,101.500 135.775,100.224 133.965,97.647 C 132.076,94.956 131.945,94.554 132.128,92.000 C 132.305,89.533 133.199,84.561 134.528,78.654 C 134.788,77.501 135.000,75.500 135.000,74.209 C 135.000,71.728 134.497,71.019 131.889,69.825 C 128.122,68.101 121.654,60.949 119.385,56.000 C 116.900,50.581 116.749,49.872 116.786,43.750 C 116.818,38.510 116.989,37.323 118.138,34.377 C 120.968,27.122 124.110,23.019 129.836,19.102 C 131.254,18.132 131.559,18.072 131.806,18.714 C 131.966,19.132 131.743,19.828 131.311,20.260 C 128.334,23.237 126.406,32.994 127.502,39.537 C 128.275,44.155 129.669,47.206 131.692,48.708 C 133.589,50.115 138.874,53.000 139.556,53.000 C 139.827,53.000 140.882,52.186 141.900,51.192 C 148.591,44.653 153.442,42.136 160.250,41.668 C 167.684,41.158 174.092,43.640 180.474,49.499 C 182.106,50.997 183.663,52.000 184.357,52.000 C 188.592,52.000 192.806,48.783 195.346,43.609 C 196.579,41.098 196.747,40.203 196.722,36.250 C 196.689,31.133 195.624,26.723 193.377,22.410 C 190.574,17.028 193.201,17.635 198.620,23.622 C 204.409,30.018 205.353,31.778 206.735,38.744 C 207.924,44.741 207.580,49.023 205.467,54.521 C 204.573,56.847 203.282,59.650 202.597,60.750 C 200.858,63.545 196.284,67.872 192.380,70.415 C 190.567,71.597 188.987,72.831 188.871,73.157 C 188.754,73.483 189.298,77.688 190.080,82.500 C 191.666,92.269 191.602,94.476 189.625,98.128 C 188.917,99.435 188.483,100.650 188.660,100.827 C 188.952,101.119 195.447,98.825 198.497,97.352 C 199.183,97.021 201.445,95.062 203.524,93.000 C 207.811,88.748 211.407,82.419 211.870,78.311 C 212.120,76.090 212.181,76.009 213.034,76.781 C 214.974,78.536 216.001,81.783 215.988,86.120 C 215.973,91.188 215.329,94.175 213.725,96.614 C 213.051,97.640 212.500,98.676 212.500,98.918 C 212.500,99.608 217.289,98.348 218.363,97.375 C 218.894,96.894 219.594,96.500 219.917,96.500 C 220.241,96.500 221.528,95.463 222.779,94.195 C 227.854,89.046 230.903,83.563 232.266,77.133 C 233.069,73.341 233.243,63.140 232.544,60.785 C 232.294,59.941 231.730,58.125 231.292,56.750 C 230.320,53.701 230.315,53.500 231.211,53.500 C 232.546,53.500 236.542,58.742 239.057,63.793 C 243.704,73.124 244.407,79.479 241.876,89.250 C 240.059,96.262 238.106,99.832 233.259,105.000 C 230.663,107.769 227.663,112.329 228.130,112.797 C 228.637,113.304 235.279,113.155 236.250,112.615 C 236.800,112.310 238.372,111.658 239.744,111.166 C 243.620,109.778 248.571,105.197 251.292,100.480 C 254.669,94.625 255.208,94.567 255.047,100.079 C 254.747,110.350 250.784,116.546 239.746,124.001 C 237.818,125.303 235.512,126.528 234.621,126.723 C 232.377,127.216 232.477,128.249 235.536,136.177 C 238.330,143.418 238.361,143.483 242.990,151.581 C 248.107,160.532 254.382,166.329 269.544,176.113 C 282.471,184.454 286.922,187.878 291.385,192.914 C 295.173,197.188 298.986,203.470 300.392,207.750 C 301.774,211.962 302.106,213.504 301.799,214.303 C 301.525,215.015 301.146,214.717 299.780,212.715 C 296.548,207.977 288.292,201.173 282.500,198.474 C 280.712,197.641 278.859,196.744 278.382,196.480 C 277.904,196.216 277.229,196.001 276.882,196.001 C 276.534,196.002 275.238,195.513 274.000,194.915 C 271.782,193.842 271.339,193.669 268.127,192.619 C 265.522,191.767 265.673,192.805 268.581,195.729 C 270.049,197.205 271.621,198.826 272.076,199.331 C 272.530,199.837 274.780,202.049 277.076,204.249 C 293.114,219.613 302.010,233.344 304.450,246.500 C 305.172,250.395 305.353,256.617 304.750,256.802 C 304.475,256.886 303.702,255.784 303.032,254.353 C 299.246,246.265 294.845,240.334 288.635,234.953 C 281.819,229.047 280.139,227.840 279.225,228.191 C 278.516,228.462 278.514,228.628 279.202,229.871 C 280.683,232.547 284.888,242.296 286.158,246.000 C 290.754,259.400 290.773,274.881 286.213,290.250 C 284.478,296.097 278.404,305.570 277.176,304.343 C 276.990,304.156 277.099,301.584 277.419,298.627 C 278.668,287.098 277.926,276.272 275.371,268.750 C 273.729,263.914 271.825,259.760 271.023,259.264 C 270.750,259.096 270.163,258.190 269.718,257.252 C 269.273,256.315 268.354,254.949 267.676,254.217 C 266.668,253.130 266.157,252.944 264.883,253.198 C 264.025,253.370 263.194,253.639 263.036,253.797 C 262.879,253.955 262.780,256.396 262.816,259.223 C 262.879,264.109 262.987,264.602 265.010,269.213 C 266.374,272.323 266.964,274.236 266.655,274.545 C 266.132,275.068 260.542,271.145 260.515,270.235 C 260.507,269.952 259.724,268.922 258.775,267.945 C 255.898,264.982 253.248,258.943 252.547,253.750 C 250.859,241.232 249.709,237.495 246.102,232.807 L 243.750,229.750 L 243.455,234.750 C 243.293,237.500 242.917,240.650 242.621,241.750 C 241.974,244.151 241.000,251.582 241.000,254.121 C 241.000,256.044 240.162,257.072 239.487,255.979 C 239.266,255.621 238.602,253.736 238.011,251.789 C 237.420,249.843 236.734,247.800 236.488,247.250 C 236.241,246.700 235.335,244.113 234.475,241.500 C 232.399,235.198 229.225,228.768 227.231,226.824 C 226.343,225.958 224.610,223.093 223.380,220.456 C 222.150,217.820 220.798,215.529 220.374,215.367 C 219.951,215.204 219.209,213.882 218.726,212.428 C 218.243,210.974 217.207,208.617 216.424,207.190 C 215.641,205.763 215.000,204.267 215.000,203.867 C 215.000,203.466 214.358,201.701 213.572,199.944 C 212.787,198.187 211.841,195.344 211.469,193.625 C 211.098,191.906 210.525,190.500 210.196,190.500 C 209.349,190.500 208.928,194.952 208.917,204.020 C 208.910,210.259 209.152,213.004 210.170,218.250 C 211.424,224.712 211.702,225.837 212.516,227.750 C 212.751,228.300 213.540,230.775 214.271,233.250 C 216.077,239.365 217.920,244.940 218.734,246.750 C 219.105,247.575 219.998,250.050 220.718,252.250 C 221.942,255.991 223.877,260.920 226.064,265.870 C 226.579,267.035 227.000,268.220 227.000,268.503 C 227.000,268.785 228.210,271.432 229.689,274.383 C 232.559,280.111 236.398,289.300 237.466,293.000 C 237.824,294.238 238.313,295.812 238.553,296.500 C 239.911,300.381 239.855,315.780 238.467,320.413 C 237.789,322.677 236.658,323.176 236.288,321.375 C 235.169,315.922 234.645,314.273 232.994,311.000 C 229.730,304.532 228.820,302.977 227.338,301.341 C 226.546,300.466 225.078,298.740 224.074,297.506 C 220.304,292.868 218.684,292.245 219.180,295.625 C 219.976,301.058 220.111,307.017 219.513,310.301 C 218.346,316.708 216.022,322.804 213.412,326.310 C 209.195,331.971 206.210,335.449 204.449,336.750 C 203.332,337.575 201.424,339.122 200.209,340.189 C 198.994,341.255 197.975,341.930 197.945,341.689 C 197.812,340.637 198.077,338.672 198.475,337.750 C 200.498,333.068 201.856,327.857 202.187,323.500 C 202.322,321.712 202.590,318.334 202.782,315.991 C 203.433,308.025 201.221,299.373 196.841,292.750 C 194.652,289.441 193.028,287.500 192.446,287.500 C 192.238,287.500 192.100,291.044 192.142,295.375 C 192.218,303.484 192.217,303.493 189.718,310.378 C 188.433,313.918 184.319,321.017 181.387,324.750 C 179.461,327.204 173.319,332.500 172.400,332.500 C 171.869,332.500 172.255,330.959 173.337,328.750 C 173.742,327.925 174.768,323.988 175.617,320.000 C 176.969,313.656 177.165,311.750 177.181,304.750 C 177.195,298.634 177.002,296.122 176.364,294.082 C 175.383,290.950 173.599,287.884 172.894,288.119 C 172.622,288.209 171.896,289.739 171.281,291.517 C 170.666,293.295 169.329,296.550 168.309,298.750 C 167.290,300.950 165.731,304.438 164.844,306.500 C 162.779,311.304 161.926,311.430 159.759,307.250 C 157.939,303.741 154.761,296.471 152.490,290.625 C 151.609,288.356 150.706,286.500 150.485,286.500 C 150.083,286.500 148.667,290.578 147.474,295.169 C 146.655,298.321 146.660,309.036 147.484,314.750 C 147.841,317.225 148.747,321.163 149.498,323.500 C 151.873,330.895 152.213,332.487 151.559,333.141 C 151.111,333.589 150.052,332.775 147.060,329.686 C 142.630,325.111 140.993,322.867 138.143,317.471 C 133.383,308.460 131.334,300.423 131.592,291.783 C 131.704,288.051 131.582,286.498 131.177,286.499 C 130.244,286.501 127.722,289.688 126.372,292.570 C 122.224,301.428 121.775,303.780 122.140,314.775 C 122.418,323.168 123.315,328.373 125.713,335.500 C 126.916,339.077 127.423,343.516 126.625,343.486 C 126.419,343.478 125.463,342.676 124.500,341.703 Z M 156.996,84.355 C 159.020,83.331 158.723,82.374 155.878,80.752 C 150.546,77.713 146.327,75.500 145.864,75.500 C 145.110,75.500 145.971,79.053 147.069,80.473 C 150.039,84.313 154.009,85.866 156.996,84.355 Z M 173.426,84.288 C 174.183,83.897 175.772,82.524 176.958,81.238 C 178.872,79.161 179.082,78.700 178.829,77.137 C 178.446,74.777 178.234,74.654 176.360,75.704 C 173.302,77.417 167.024,81.717 166.828,82.233 C 166.720,82.517 166.820,83.256 167.050,83.875 C 167.400,84.817 167.840,85.000 169.759,85.000 C 171.019,85.000 172.669,84.680 173.426,84.288 Z" fill="#000000" fill-rule="evenodd" /></svg>