<svg xmlns="http://www.w3.org/2000/svg" viewBox="0 0 506 453" width="506" height="453"><path d="M 154.339,438.672 C 153.587,437.920 154.143,437.139 157.127,434.759 C 158.845,433.388 163.400,429.657 167.250,426.467 C 183.130,413.310 189.896,408.988 197.389,407.218 C 199.391,406.745 201.140,406.177 201.277,405.957 C 201.413,405.736 200.381,404.024 198.983,402.153 C 197.585,400.281 194.097,395.600 191.232,391.750 C 188.367,387.900 184.003,382.098 181.534,378.856 C 177.475,373.525 170.975,363.480 171.017,362.602 C 171.048,361.937 172.764,360.237 179.307,354.386 C 187.717,346.865 189.499,344.554 190.216,340.236 C 190.500,338.525 190.377,338.066 189.400,337.189 C 188.218,336.127 184.526,333.870 179.250,330.985 C 177.600,330.082 174.350,328.142 172.027,326.672 C 169.705,325.202 167.515,324.000 167.161,324.000 C 166.560,324.000 164.000,328.401 164.000,329.434 C 164.000,331.003 156.437,345.979 153.740,349.750 C 149.265,356.007 140.588,363.475 134.312,366.470 C 129.474,368.780 127.930,368.473 129.958,365.605 C 132.300,362.292 131.607,361.114 128.381,362.926 C 127.475,363.436 125.386,364.308 123.741,364.865 C 119.940,366.152 113.829,368.000 113.373,368.000 C 112.267,368.000 106.547,371.117 105.441,372.323 C 103.503,374.436 97.252,388.280 95.991,393.250 C 95.782,394.075 94.792,397.412 93.792,400.665 C 91.616,407.738 90.000,414.488 90.000,416.502 C 90.000,418.188 90.574,418.564 94.541,419.477 C 98.143,420.306 102.309,423.167 104.392,426.241 C 106.001,428.615 106.031,428.762 105.892,433.457 L 105.750,438.250 L 88.250,438.371 C 75.044,438.462 70.443,438.339 69.500,437.867 C 67.607,436.921 66.414,433.915 65.907,428.816 C 65.658,426.305 65.098,422.900 64.663,421.250 C 63.754,417.796 63.654,413.365 64.431,410.932 C 64.726,410.007 66.086,405.875 67.452,401.750 C 72.168,387.510 74.436,379.321 77.282,366.250 C 77.702,364.325 78.260,361.936 78.522,360.942 C 78.785,359.948 79.000,358.555 79.000,357.846 C 79.000,357.138 79.225,356.420 79.500,356.250 C 79.775,356.080 80.000,355.539 80.000,355.048 C 80.000,353.769 81.379,352.696 84.250,351.739 C 89.786,349.895 101.724,342.286 105.410,338.253 C 108.065,335.348 110.571,330.648 111.558,326.722 C 111.900,325.362 112.575,323.169 113.057,321.847 C 114.115,318.950 113.971,318.846 109.323,319.134 C 105.219,319.389 104.387,318.976 105.834,317.401 C 107.465,315.627 111.315,308.069 112.151,305.000 C 112.563,303.488 113.046,301.125 113.224,299.750 C 113.402,298.375 113.894,295.151 114.317,292.584 C 114.740,290.018 114.971,287.805 114.832,287.665 C 114.692,287.525 113.335,288.329 111.815,289.452 C 107.402,292.712 97.281,298.231 91.672,300.435 C 85.460,302.876 73.000,305.344 73.000,304.133 C 73.000,303.866 74.345,302.209 75.989,300.449 C 77.634,298.690 78.984,297.118 78.989,296.956 C 78.995,296.795 75.568,296.767 71.372,296.895 C 63.955,297.120 56.701,296.545 53.000,295.437 C 49.583,294.415 42.951,291.219 38.870,288.629 C 35.805,286.683 30.964,282.463 31.256,281.991 C 31.379,281.791 32.744,281.920 34.288,282.279 C 37.405,283.004 43.892,282.813 44.719,281.972 C 45.322,281.360 45.413,281.436 39.650,277.768 C 30.061,271.666 19.877,257.182 17.135,245.750 C 15.555,239.160 14.822,235.012 15.175,234.659 C 15.345,234.488 17.396,236.182 19.731,238.424 C 22.066,240.666 24.279,242.500 24.648,242.500 C 25.181,242.500 25.087,241.377 24.189,237.017 C 22.448,228.567 21.709,218.693 22.410,213.250 C 23.130,207.660 25.961,195.500 26.542,195.500 C 26.964,195.500 28.097,199.053 28.775,202.500 C 29.194,204.637 29.873,206.000 30.518,206.000 C 30.783,206.000 31.000,205.577 31.000,205.061 C 31.000,203.261 33.381,198.106 36.667,192.791 C 42.022,184.130 48.239,177.888 55.250,174.132 C 62.313,170.348 63.198,170.394 60.048,174.380 C 56.555,178.798 52.644,187.823 49.702,198.250 C 48.196,203.587 48.203,220.000 49.711,220.000 C 50.052,220.000 51.848,218.312 53.701,216.250 C 55.554,214.188 57.304,212.500 57.590,212.500 C 57.910,212.500 57.994,213.218 57.808,214.375 C 56.445,222.859 56.403,231.184 57.703,235.420 C 60.284,243.835 62.940,249.510 66.573,254.375 C 68.871,257.453 70.276,257.886 69.816,255.375 C 68.692,249.226 69.030,243.500 70.518,243.500 C 70.736,243.500 71.822,245.356 72.931,247.625 C 76.614,255.156 82.023,260.692 89.013,264.083 C 94.206,266.603 97.279,267.233 104.250,267.205 C 114.564,267.164 119.072,265.179 125.771,257.728 C 135.944,246.413 137.183,245.390 150.387,237.419 C 161.557,230.675 169.357,222.984 175.655,212.500 C 177.225,209.887 179.658,206.124 181.062,204.136 C 184.232,199.648 184.102,198.963 180.153,199.352 C 178.557,199.510 176.642,199.945 175.900,200.319 C 175.157,200.694 174.201,201.000 173.775,201.000 C 172.895,201.000 172.738,200.221 173.520,199.738 C 174.161,199.341 179.000,192.083 179.000,191.517 C 179.000,191.292 180.325,189.678 181.945,187.929 C 186.139,183.402 189.500,179.243 189.500,178.582 C 189.500,177.870 184.133,178.336 181.257,179.298 C 180.161,179.664 179.080,179.780 178.856,179.556 C 178.337,179.037 182.830,173.595 186.750,169.994 C 191.537,165.596 193.677,164.121 196.798,163.067 C 198.407,162.524 199.804,161.837 199.903,161.540 C 200.121,160.888 196.144,159.115 193.525,158.696 C 191.130,158.313 190.092,157.702 190.754,157.065 C 191.027,156.803 194.043,154.895 197.456,152.824 C 204.290,148.678 210.142,143.785 211.386,141.177 C 212.412,139.025 211.949,138.553 208.462,138.194 C 205.590,137.899 199.390,135.673 195.479,133.534 C 192.707,132.017 188.500,128.264 188.500,127.307 C 188.500,126.922 189.940,126.155 191.875,125.509 C 193.731,124.890 198.514,122.839 202.503,120.950 C 206.492,119.061 211.063,117.253 212.660,116.932 C 215.944,116.273 216.691,115.521 219.538,110.000 C 223.929,101.488 231.431,93.429 238.022,90.141 C 241.656,88.328 242.847,87.989 246.500,87.726 C 251.271,87.381 252.171,86.956 254.605,83.897 C 255.546,82.716 259.450,77.856 263.282,73.096 C 267.115,68.336 270.794,63.668 271.459,62.721 C 272.124,61.775 272.979,61.000 273.359,61.000 C 275.726,61.000 279.874,65.436 282.008,70.250 C 282.618,71.625 283.453,73.513 283.865,74.446 C 285.862,78.967 285.268,82.077 280.621,91.434 C 277.448,97.823 277.343,98.149 278.246,98.809 C 279.486,99.716 280.849,99.658 283.039,98.608 C 286.445,96.974 290.000,93.145 290.000,91.109 C 290.000,90.566 290.304,89.870 290.675,89.562 C 292.204,88.294 297.190,92.527 298.659,96.340 C 300.703,101.648 299.711,103.843 291.694,111.750 C 286.773,116.604 285.267,118.438 283.810,121.354 C 280.732,127.513 279.765,131.795 279.768,139.250 C 279.772,147.877 280.653,151.230 285.871,162.500 C 288.754,168.727 291.955,177.310 291.987,178.899 C 291.994,179.256 292.450,180.480 293.000,181.618 C 293.550,182.756 294.000,183.758 294.000,183.844 C 294.000,184.454 292.535,183.710 290.569,182.102 C 289.294,181.059 287.627,179.813 286.866,179.335 C 285.621,178.552 285.452,178.544 285.179,179.256 C 285.012,179.690 285.332,181.554 285.889,183.398 C 287.369,188.290 287.838,190.622 288.556,196.676 C 289.115,201.378 289.090,203.078 288.367,209.426 C 287.524,216.830 286.345,222.000 285.500,222.000 C 285.082,222.000 284.653,220.716 283.806,216.938 C 283.645,216.217 283.064,215.092 282.516,214.438 C 281.256,212.935 280.698,213.624 280.257,217.226 C 279.554,222.969 278.526,226.785 276.460,231.320 C 275.191,234.106 273.705,236.426 267.125,245.889 C 265.956,247.570 265.000,249.086 265.000,249.257 C 265.000,249.429 264.325,250.551 263.500,251.750 C 262.675,252.949 262.002,254.227 262.005,254.590 C 262.012,255.584 266.243,260.709 275.760,271.250 C 278.242,274.000 281.761,278.050 283.579,280.251 C 285.397,282.451 288.516,285.702 290.510,287.474 C 296.413,292.720 297.058,294.002 299.710,305.750 C 300.447,309.012 302.027,315.036 304.497,324.000 C 306.141,329.966 306.304,332.945 305.114,335.276 C 303.895,337.662 299.730,343.404 298.316,344.648 C 294.776,347.760 289.403,349.357 285.598,348.427 C 282.387,347.643 281.038,346.904 277.612,344.053 C 275.506,342.301 274.349,340.862 273.549,339.003 C 272.934,337.573 272.566,336.267 272.732,336.101 C 272.898,335.935 275.062,335.863 277.540,335.942 C 281.019,336.052 282.326,335.901 283.273,335.281 C 284.807,334.276 284.812,333.472 283.302,330.839 C 280.646,326.206 279.749,318.706 280.966,311.302 C 281.811,306.161 281.278,305.002 276.296,301.145 C 271.900,297.742 264.283,292.408 262.500,291.484 C 261.812,291.128 258.640,289.129 255.450,287.043 C 252.259,284.957 247.004,281.562 243.772,279.500 C 240.539,277.438 235.837,274.403 233.322,272.757 C 227.519,268.957 226.597,268.936 219.284,272.438 C 212.373,275.746 205.500,280.484 205.500,281.938 C 205.500,282.561 209.381,286.500 213.942,290.507 C 218.183,294.232 229.986,307.091 232.435,310.653 C 237.285,317.709 240.551,326.893 240.554,333.483 C 240.557,339.094 238.877,346.500 237.601,346.500 C 237.354,346.500 236.746,345.600 236.250,344.500 C 235.265,342.315 234.000,341.831 234.000,343.639 C 234.000,345.601 230.641,351.892 228.201,354.501 C 225.654,357.224 225.000,357.530 225.000,356.000 C 225.000,354.494 223.805,354.784 220.885,356.998 C 218.057,359.142 214.205,361.122 210.532,362.318 C 209.277,362.727 206.844,363.718 205.125,364.520 C 200.579,366.642 200.610,366.794 207.466,375.845 C 209.510,378.543 211.747,381.538 212.438,382.500 C 213.129,383.462 215.994,386.950 218.804,390.250 C 221.615,393.550 224.462,396.908 225.131,397.712 L 226.348,399.174 L 228.553,397.685 C 229.766,396.867 232.924,394.376 235.571,392.150 C 238.218,389.925 242.471,386.701 245.021,384.986 C 250.134,381.548 248.363,382.033 265.000,379.518 C 273.248,378.271 283.905,376.238 286.500,375.416 C 289.428,374.488 290.775,373.229 299.508,363.255 C 304.136,357.970 308.807,352.945 309.888,352.089 C 312.104,350.334 315.774,348.426 318.750,347.482 C 323.408,346.004 324.949,345.354 325.172,344.772 C 325.302,344.433 325.549,341.815 325.721,338.953 C 325.893,336.091 326.242,330.712 326.496,327.000 C 326.749,323.288 327.204,315.637 327.506,310.000 C 328.040,300.040 329.491,278.921 330.478,266.750 C 330.746,263.450 331.093,258.275 331.251,255.250 C 331.504,250.381 332.383,236.577 334.005,212.000 C 334.286,207.738 334.743,201.325 335.020,197.750 C 335.298,194.175 335.623,189.900 335.744,188.250 C 335.865,186.600 336.192,182.213 336.470,178.500 C 337.178,169.068 337.912,157.811 338.508,147.250 C 339.131,136.192 339.817,127.080 340.766,117.250 C 341.164,113.125 341.710,106.263 341.980,102.000 C 342.249,97.737 342.622,91.952 342.809,89.144 L 343.148,84.038 L 339.766,80.144 C 337.905,78.002 333.828,73.608 330.704,70.378 L 325.025,64.507 L 324.987,38.378 L 324.948,12.250 L 338.599,12.250 L 352.250,12.250 L 352.250,22.500 L 352.250,32.750 L 363.125,32.885 L 374.000,33.020 L 374.000,22.502 L 374.000,11.985 L 388.375,12.117 L 402.750,12.250 L 402.796,22.380 C 402.822,27.951 402.945,32.612 403.070,32.737 C 403.416,33.083 423.045,33.122 423.390,32.777 C 423.555,32.611 423.667,27.869 423.638,22.238 L 423.586,12.000 L 437.543,12.000 L 451.500,12.000 L 451.500,38.549 L 451.500,65.097 L 448.353,68.424 C 446.622,70.253 444.458,72.650 443.544,73.750 C 442.630,74.850 440.004,77.689 437.707,80.060 L 433.532,84.369 L 433.750,86.810 C 433.870,88.152 434.204,92.737 434.492,97.000 C 435.308,109.061 435.986,118.661 436.522,125.750 C 436.793,129.325 437.463,138.775 438.012,146.750 C 438.561,154.725 439.221,163.725 439.478,166.750 C 440.105,174.110 440.357,177.657 441.239,191.500 C 441.651,197.963 442.094,204.713 442.224,206.500 C 442.354,208.287 442.694,213.688 442.981,218.500 C 443.880,233.623 444.457,242.992 444.981,251.000 C 445.260,255.262 445.607,260.663 445.753,263.000 C 446.003,267.027 446.794,277.814 447.237,283.250 C 447.583,287.497 447.968,293.038 448.261,298.000 C 448.415,300.613 448.875,307.021 449.283,312.241 C 450.117,322.919 449.854,322.318 455.000,325.333 C 464.244,330.749 465.598,331.849 466.366,334.568 C 470.702,349.929 472.040,354.913 477.020,374.250 C 478.366,379.475 479.940,385.438 480.518,387.500 C 481.097,389.562 482.209,393.613 482.990,396.500 C 484.428,401.821 485.642,406.209 487.554,413.000 C 488.493,416.337 492.149,430.470 493.436,435.737 C 493.702,436.830 493.823,437.882 493.703,438.076 C 493.584,438.269 417.662,438.429 324.989,438.431 C 232.316,438.433 156.084,438.565 155.585,438.723 C 155.086,438.881 154.525,438.859 154.339,438.672 Z M 377.167,323.061 C 385.606,318.653 393.788,315.821 402.000,314.467 C 404.062,314.126 405.942,313.679 406.176,313.473 C 406.684,313.026 406.747,276.471 406.244,273.392 C 405.401,268.223 400.546,261.838 395.440,259.185 C 393.084,257.960 392.222,257.791 388.500,257.824 C 383.703,257.867 380.041,259.177 376.827,262.000 C 374.539,264.009 371.350,269.111 370.541,272.059 C 369.796,274.773 369.426,326.500 370.151,326.500 C 370.389,326.500 373.546,324.953 377.167,323.061 Z M 399.951,146.309 C 400.363,145.812 400.476,141.155 400.353,129.684 C 400.188,114.253 400.146,113.675 399.031,111.364 C 397.718,108.644 396.516,107.570 392.676,105.692 C 390.425,104.591 389.512,104.410 387.328,104.636 C 383.017,105.081 380.193,107.055 377.869,111.250 C 376.788,113.201 376.761,113.654 376.756,129.750 L 376.750,146.250 L 379.750,146.541 C 381.400,146.701 386.491,146.870 391.064,146.916 C 397.605,146.982 399.500,146.853 399.951,146.309 Z M 244.334,105.145 C 246.617,104.064 247.499,103.262 249.061,100.845 C 250.117,99.211 250.860,97.677 250.711,97.437 C 249.865,96.069 244.210,97.806 242.174,100.059 C 240.632,101.765 239.000,104.856 239.000,106.069 C 239.000,107.336 240.116,107.142 244.334,105.145 Z" fill="#000000" fill-rule="evenodd" /></svg>