<svg xmlns="http://www.w3.org/2000/svg" viewBox="0 0 214 251" width="214" height="251"><path d="M 46.750,238.225 C 40.754,237.377 27.514,233.223 27.505,232.188 C 27.502,231.878 28.141,231.497 28.925,231.340 C 32.892,230.547 40.692,225.702 45.312,221.162 C 47.524,218.988 52.985,212.120 52.994,211.500 C 52.996,211.363 49.905,211.244 46.124,211.236 C 39.134,211.222 33.356,210.488 29.750,209.155 C 25.074,207.428 20.500,205.378 20.500,205.011 C 20.500,204.793 21.662,204.235 23.082,203.771 C 26.700,202.587 29.974,200.359 35.672,195.204 C 43.284,188.317 45.505,186.595 48.814,185.019 C 53.939,182.577 57.559,181.864 63.500,182.126 C 73.138,182.551 80.071,185.843 89.078,194.269 C 94.225,199.084 96.857,200.621 102.378,202.033 C 110.017,203.986 119.240,202.843 128.000,198.857 C 135.821,195.299 146.108,184.533 149.274,176.592 C 149.894,175.039 149.983,174.283 149.591,173.891 C 149.200,173.500 148.026,174.444 145.399,177.263 C 138.009,185.193 127.876,191.189 118.774,193.020 C 112.963,194.189 109.761,194.241 103.750,193.265 C 91.389,191.258 82.454,185.346 78.030,176.250 C 75.464,170.972 74.838,167.823 75.076,161.390 L 75.271,156.104 L 78.142,150.427 C 80.541,145.682 81.011,144.326 81.006,142.165 C 80.999,139.225 78.800,133.508 75.582,128.063 C 71.368,120.932 68.929,114.847 68.878,111.338 C 68.795,105.522 76.427,98.491 84.443,97.001 C 90.254,95.920 94.083,96.513 100.717,99.521 C 104.496,101.235 103.938,101.386 108.331,97.461 C 111.466,94.659 114.322,93.734 118.493,94.170 C 120.311,94.360 121.575,94.282 121.770,93.968 C 122.148,93.357 120.127,90.602 117.013,87.484 C 114.618,85.086 112.308,83.824 106.970,81.997 C 103.296,80.741 102.702,80.366 101.113,78.308 C 100.153,77.064 100.000,76.251 100.000,72.410 L 100.000,67.955 L 101.754,68.284 C 104.061,68.716 108.387,66.648 110.230,64.231 C 112.010,61.898 113.747,57.875 114.462,54.432 C 114.989,51.895 115.193,51.586 116.523,51.320 C 118.314,50.962 118.327,50.745 116.768,47.337 C 115.222,43.957 114.655,41.412 114.211,35.857 C 113.993,33.135 113.659,31.530 113.332,31.639 C 113.042,31.736 112.005,33.376 111.027,35.283 C 108.619,39.981 106.721,42.626 102.566,47.075 C 98.312,51.631 93.772,54.895 85.750,59.164 C 84.650,59.750 83.674,60.272 83.581,60.325 C 83.488,60.378 83.931,61.124 84.566,61.982 C 85.433,63.155 85.766,64.377 85.905,66.896 C 86.254,73.223 83.214,78.250 78.250,79.554 C 73.269,80.862 72.059,81.260 69.139,82.550 C 65.264,84.262 61.679,87.766 59.720,91.756 C 56.946,97.406 57.588,106.164 61.525,116.394 C 63.192,120.725 66.979,127.336 68.742,128.993 C 70.202,130.364 70.281,131.483 69.484,139.500 C 68.239,152.027 66.618,158.810 63.631,164.000 C 61.672,167.405 58.255,171.702 55.877,173.753 C 51.124,177.852 47.386,178.837 34.192,179.468 C 25.212,179.898 23.803,180.090 19.635,181.454 C 17.096,182.285 14.446,183.340 13.744,183.800 C 13.043,184.259 12.347,184.514 12.198,184.365 C 12.049,184.215 12.837,182.187 13.949,179.857 C 16.368,174.788 20.458,170.445 25.693,167.388 C 30.321,164.684 33.589,163.604 39.750,162.739 C 42.597,162.339 45.562,161.738 46.338,161.403 C 52.122,158.906 54.867,154.549 55.350,147.100 C 55.834,139.624 54.212,134.588 48.948,127.220 C 42.520,118.224 40.024,112.183 39.628,104.667 C 39.421,100.733 39.211,99.642 38.699,99.839 C 37.769,100.196 35.000,107.603 35.000,109.734 C 35.000,113.776 33.613,110.620 32.421,103.864 C 31.492,98.600 32.718,91.849 35.808,85.218 C 38.055,80.396 41.616,75.512 45.940,71.322 C 48.170,69.162 49.871,67.195 49.720,66.952 C 49.349,66.350 46.445,67.618 43.732,69.566 C 42.505,70.447 41.373,71.040 41.216,70.883 C 40.645,70.311 46.676,61.742 50.426,57.799 C 58.081,49.748 59.166,47.954 61.188,40.000 C 63.670,30.235 68.898,21.761 74.956,17.685 C 85.054,10.890 99.487,10.125 110.844,15.781 C 116.119,18.408 118.969,20.741 122.273,25.137 C 129.728,35.053 131.776,46.175 128.550,59.214 C 126.710,66.654 126.687,66.545 131.917,75.082 C 134.977,80.076 136.236,84.348 136.244,89.763 C 136.254,96.772 133.412,101.969 132.905,95.867 C 132.785,94.419 132.150,92.159 131.494,90.846 C 130.347,88.550 125.214,83.119 124.688,83.645 C 124.548,83.786 125.050,85.104 125.805,86.575 C 126.932,88.774 127.189,89.962 127.249,93.250 C 127.313,96.759 127.502,97.526 128.786,99.500 C 130.098,101.516 130.250,102.169 130.250,105.785 C 130.250,110.863 129.048,113.422 124.825,117.332 C 122.117,119.838 121.823,120.314 121.611,122.518 C 121.483,123.852 121.540,126.025 121.738,127.346 C 122.205,130.460 124.595,132.801 129.306,134.762 C 131.200,135.550 133.172,136.473 133.687,136.813 C 134.534,137.372 134.438,137.466 132.687,137.792 C 128.521,138.569 122.265,141.108 111.500,146.391 C 109.253,147.494 108.985,149.022 110.790,150.442 C 111.530,151.024 112.480,151.500 112.902,151.500 C 113.325,151.500 116.662,150.051 120.320,148.279 C 144.780,136.433 165.779,133.855 181.515,140.766 C 193.376,145.975 199.989,153.784 202.269,165.273 C 204.659,177.316 199.926,190.380 189.685,200.010 C 186.790,202.732 179.941,208.000 179.296,208.000 C 179.114,208.000 178.396,208.373 177.701,208.828 C 175.453,210.301 165.362,214.548 161.250,215.751 C 154.282,217.791 147.504,218.913 138.883,219.452 C 134.281,219.739 130.231,219.872 129.883,219.746 C 129.535,219.620 126.325,219.287 122.750,219.007 C 119.175,218.727 115.125,218.292 113.750,218.040 C 105.431,216.517 103.376,216.250 99.955,216.250 C 96.411,216.250 95.976,216.373 93.361,218.109 C 91.612,219.271 89.551,221.334 87.865,223.609 C 81.269,232.512 74.394,236.578 63.044,238.290 C 57.522,239.123 52.964,239.105 46.750,238.225 Z" fill="#000000" fill-rule="evenodd" /></svg>