<svg xmlns="http://www.w3.org/2000/svg" viewBox="0 0 597 559" width="597" height="559"><path d="M 302.750,541.043 C 294.458,540.301 283.982,537.187 274.500,532.648 C 269.672,530.336 257.813,522.473 253.029,518.410 C 246.449,512.822 234.963,501.340 232.861,498.250 C 231.739,496.600 229.324,493.425 227.495,491.194 C 225.666,488.964 223.512,486.074 222.709,484.772 C 219.769,480.004 219.176,479.577 214.750,479.029 C 207.827,478.171 198.005,476.844 192.250,475.987 C 190.325,475.701 184.475,474.915 179.250,474.241 C 174.025,473.567 167.275,472.672 164.250,472.253 C 161.225,471.833 155.274,471.043 151.027,470.497 C 146.779,469.950 143.098,469.298 142.848,469.048 C 142.574,468.774 142.832,468.357 143.495,468.003 C 144.520,467.454 162.817,463.578 174.250,461.487 C 177.000,460.984 181.613,460.083 184.500,459.485 C 194.288,457.457 202.245,456.010 203.641,456.005 C 204.406,456.002 205.147,455.700 205.287,455.333 C 205.428,454.966 204.746,452.941 203.772,450.831 C 202.797,448.722 202.000,446.890 202.000,446.760 C 202.000,446.631 201.299,445.001 200.442,443.138 C 199.586,441.274 198.365,438.621 197.731,437.241 C 195.566,432.535 189.704,417.228 189.022,414.500 C 188.781,413.538 187.655,410.050 186.521,406.750 C 182.120,393.950 176.372,369.789 174.030,354.250 C 173.449,350.400 172.647,345.450 172.246,343.250 C 171.845,341.050 171.269,336.887 170.966,334.000 C 170.662,331.113 170.220,327.062 169.983,325.000 C 169.746,322.938 169.298,318.100 168.989,314.250 C 168.679,310.400 168.270,306.125 168.081,304.750 L 167.737,302.250 L 160.993,301.670 C 152.453,300.935 144.109,300.062 140.250,299.499 C 138.600,299.258 134.775,298.808 131.750,298.499 C 128.725,298.190 124.338,297.736 122.000,297.491 C 119.662,297.246 115.500,296.810 112.750,296.522 C 110.000,296.233 103.362,295.546 98.000,294.994 C 80.526,293.194 78.355,292.960 70.000,291.975 C 56.061,290.331 46.887,289.282 35.250,288.000 C 21.706,286.509 17.500,285.899 17.500,285.427 C 17.500,285.192 17.820,285.000 18.211,285.000 C 18.603,285.000 22.709,284.428 27.336,283.728 C 39.443,281.898 49.725,280.500 61.875,279.032 C 71.780,277.835 91.355,275.319 109.000,272.975 C 118.668,271.690 123.179,271.103 128.125,270.484 C 130.394,270.200 133.825,269.757 135.750,269.499 C 137.675,269.241 143.300,268.573 148.250,268.016 C 156.654,267.070 162.621,266.314 166.304,265.728 L 167.859,265.481 L 168.195,259.866 C 169.549,237.290 171.381,220.326 174.245,203.846 C 174.660,201.456 175.323,197.644 175.717,195.375 C 176.800,189.146 179.860,175.204 181.011,171.250 C 182.026,167.766 182.521,165.922 183.529,161.875 C 183.821,160.706 184.494,158.287 185.025,156.500 C 185.556,154.713 186.685,150.887 187.532,148.000 C 188.380,145.113 189.310,141.963 189.598,141.000 C 190.426,138.238 194.949,126.555 196.469,123.250 C 197.228,121.600 198.221,119.406 198.675,118.375 C 199.129,117.344 199.873,115.656 200.330,114.625 C 200.786,113.594 202.811,109.298 204.830,105.079 C 206.848,100.860 208.500,97.316 208.500,97.204 C 208.500,97.092 207.836,97.000 207.025,97.000 C 206.214,97.000 203.121,96.550 200.150,96.000 C 197.180,95.449 193.400,94.759 191.750,94.466 C 190.100,94.173 187.850,93.741 186.750,93.506 C 184.863,93.103 183.504,92.850 176.250,91.549 C 170.394,90.499 158.216,88.134 155.250,87.472 C 154.150,87.226 151.450,86.781 149.250,86.482 C 144.335,85.815 143.277,85.522 143.825,84.979 C 144.426,84.382 154.495,82.401 164.250,80.961 C 165.900,80.717 168.713,80.182 170.500,79.772 C 172.287,79.361 176.113,78.650 179.000,78.191 C 187.378,76.859 188.592,76.650 191.500,76.045 C 193.012,75.731 197.287,75.032 201.000,74.493 C 204.713,73.954 209.213,73.281 211.000,72.998 C 212.787,72.715 216.155,72.254 218.484,71.974 C 224.737,71.221 224.724,71.229 227.846,67.074 C 233.988,58.902 242.787,49.422 249.000,44.283 C 254.321,39.883 260.907,34.911 263.250,33.527 C 264.350,32.877 266.423,31.586 267.857,30.658 C 271.173,28.511 277.873,25.427 281.750,24.263 C 283.400,23.767 285.200,23.119 285.750,22.823 C 288.272,21.464 297.825,19.268 303.500,18.743 C 315.051,17.673 325.683,18.880 336.924,22.537 C 344.346,24.952 347.892,26.654 358.750,33.017 C 359.850,33.661 361.762,35.000 363.000,35.992 C 364.238,36.984 365.812,38.152 366.500,38.587 C 368.379,39.778 376.211,46.725 380.774,51.250 C 387.105,57.526 395.000,66.790 395.000,67.943 C 395.000,68.182 395.372,68.686 395.827,69.064 C 396.282,69.441 398.714,72.900 401.231,76.750 C 408.416,87.737 410.359,91.030 414.658,99.500 C 416.403,102.938 418.070,106.200 418.364,106.750 C 419.771,109.386 423.008,116.296 423.004,116.657 C 423.002,116.880 423.649,118.455 424.442,120.157 C 425.236,121.858 426.275,124.263 426.751,125.500 C 428.144,129.118 433.500,144.625 433.500,145.041 C 433.500,145.864 428.735,150.216 423.500,154.175 C 421.712,155.527 419.511,157.278 418.608,158.067 C 417.704,158.855 416.757,159.500 416.502,159.500 C 416.247,159.500 415.783,158.551 415.471,157.391 C 415.158,156.231 414.483,154.375 413.971,153.266 C 413.458,152.157 412.350,149.338 411.510,147.000 C 410.669,144.662 409.783,142.300 409.541,141.750 C 409.300,141.200 408.710,139.850 408.232,138.750 C 404.340,129.805 396.243,114.748 395.065,114.266 C 394.249,113.932 394.132,113.535 397.725,123.250 C 397.928,123.800 398.490,125.375 398.972,126.750 C 399.454,128.125 400.126,130.037 400.465,131.000 C 400.804,131.963 401.382,133.875 401.750,135.250 C 403.700,142.534 404.074,143.833 404.480,144.750 C 405.338,146.682 408.995,163.574 408.999,165.621 C 409.000,165.825 406.131,168.112 402.625,170.703 C 399.119,173.294 395.643,175.890 394.901,176.473 C 393.629,177.473 393.526,177.482 393.084,176.641 C 392.826,176.151 392.160,174.175 391.604,172.250 C 389.662,165.523 387.498,158.722 386.194,155.250 C 384.421,150.525 384.226,150.032 383.301,147.924 C 382.860,146.920 382.500,145.963 382.500,145.796 C 382.500,145.007 378.560,135.611 375.942,130.154 C 368.954,115.592 360.082,102.584 350.757,93.229 C 346.842,89.302 339.184,83.000 338.325,83.000 C 338.165,83.000 336.282,81.897 334.142,80.549 C 325.170,74.900 312.169,72.599 302.657,74.976 C 293.570,77.247 288.220,79.884 279.855,86.212 C 271.829,92.284 264.130,100.472 258.118,109.327 C 255.931,112.549 250.000,122.375 250.000,122.777 C 250.000,122.917 249.149,124.543 248.109,126.390 C 241.954,137.324 234.024,158.525 229.459,176.250 C 228.397,180.375 227.286,184.650 226.990,185.750 C 225.746,190.380 224.470,195.963 223.963,199.000 C 223.664,200.787 223.221,203.375 222.980,204.750 C 220.667,217.899 218.882,233.796 217.506,253.500 C 216.804,263.554 216.799,294.657 217.498,306.500 C 218.668,326.347 221.519,348.645 225.265,367.250 C 226.559,373.675 226.748,374.407 229.974,385.500 C 235.127,403.220 239.756,417.176 242.495,423.250 C 245.300,429.472 245.504,431.039 243.147,428.250 C 242.450,427.425 241.168,425.962 240.299,425.000 C 237.077,421.432 233.644,417.103 231.358,413.725 C 230.064,411.814 227.967,408.904 226.697,407.258 C 225.428,405.613 223.540,402.545 222.501,400.441 C 221.462,398.338 219.687,395.032 218.556,393.096 C 217.425,391.160 216.500,389.401 216.500,389.187 C 216.500,388.974 215.286,386.313 213.801,383.274 C 212.317,380.236 210.808,376.850 210.448,375.750 C 210.088,374.650 209.521,373.413 209.189,373.000 C 208.395,372.013 201.859,353.079 199.351,344.500 C 198.324,340.987 197.001,334.584 197.000,333.125 C 197.000,332.506 196.775,332.000 196.500,332.000 C 195.650,332.000 195.860,336.212 197.485,351.750 C 198.865,364.957 200.928,376.749 204.481,391.750 C 205.263,395.050 206.185,398.988 206.530,400.500 C 207.415,404.375 216.736,431.346 219.232,437.250 C 220.616,440.524 223.643,447.031 225.278,450.246 C 226.822,453.283 235.737,467.593 237.561,469.965 C 238.105,470.672 240.710,474.175 243.349,477.750 C 245.988,481.325 249.407,485.519 250.948,487.070 C 252.489,488.621 254.875,491.105 256.250,492.591 C 257.625,494.077 260.663,496.806 263.000,498.655 C 265.337,500.504 268.062,502.674 269.054,503.477 C 271.700,505.619 279.960,510.022 286.250,512.642 C 293.965,515.857 306.589,517.299 315.603,515.995 C 320.363,515.307 328.150,512.728 332.250,510.483 C 336.959,507.905 345.005,501.000 343.301,501.000 C 343.191,501.000 341.014,502.045 338.462,503.323 C 332.233,506.441 328.649,507.371 321.062,507.837 C 316.561,508.113 309.097,507.448 305.625,506.462 C 304.731,506.208 303.156,505.759 302.125,505.464 C 299.053,504.585 292.343,501.893 291.000,501.002 C 290.312,500.545 288.288,499.352 286.500,498.349 C 284.712,497.347 279.998,493.872 276.023,490.627 C 268.767,484.704 266.003,481.684 260.466,473.632 C 257.513,469.336 250.609,456.031 249.039,451.609 C 247.196,446.418 247.920,446.422 251.880,451.625 C 258.432,460.231 261.914,463.195 276.750,472.798 C 280.769,475.399 281.494,475.840 283.250,476.753 C 284.075,477.183 285.762,478.114 287.000,478.823 C 290.027,480.557 298.368,483.427 302.903,484.295 C 310.075,485.667 317.243,485.045 327.000,482.203 C 330.865,481.078 340.704,475.023 345.809,470.630 C 351.598,465.647 361.132,454.343 365.577,447.190 C 366.582,445.573 369.113,441.584 371.202,438.326 C 373.291,435.068 375.000,432.332 375.000,432.247 C 375.000,432.162 376.012,429.926 377.250,427.277 C 378.488,424.629 379.500,422.343 379.500,422.199 C 379.500,421.939 381.141,418.141 382.935,414.250 L 383.857,412.250 L 395.219,411.495 C 401.468,411.080 406.785,410.867 407.036,411.022 C 407.286,411.177 406.952,412.754 406.294,414.527 C 405.636,416.299 403.935,421.125 402.514,425.250 C 401.093,429.375 399.496,433.704 398.965,434.870 C 398.434,436.035 398.000,437.100 398.000,437.237 C 398.000,437.373 397.342,438.843 396.537,440.504 C 395.732,442.165 394.927,444.250 394.746,445.137 C 394.446,446.612 394.579,446.516 396.302,444.006 C 398.282,441.124 401.929,433.988 403.589,429.750 C 404.127,428.375 405.094,426.125 405.737,424.750 C 408.001,419.909 409.883,415.225 410.491,412.920 C 411.162,410.372 411.743,410.019 415.287,410.007 C 417.156,410.001 422.672,409.262 430.250,408.004 C 431.900,407.730 433.557,407.504 433.932,407.503 C 435.046,407.498 434.213,411.264 431.184,419.916 C 429.676,424.225 428.017,429.033 427.499,430.602 C 426.596,433.333 424.828,437.581 422.131,443.500 C 421.442,445.012 420.484,447.150 420.003,448.250 C 418.536,451.602 414.542,459.791 414.215,460.119 C 414.045,460.288 412.963,462.412 411.809,464.838 C 410.655,467.265 409.069,470.262 408.284,471.500 C 398.227,487.366 393.592,494.098 387.973,501.000 C 381.973,508.369 375.858,514.270 368.237,520.043 C 352.128,532.247 343.244,536.481 325.750,540.290 C 321.764,541.157 308.780,541.583 302.750,541.043 Z M 197.000,224.774 C 197.000,224.100 197.362,222.244 197.804,220.649 C 198.247,219.055 198.894,216.344 199.243,214.626 C 199.592,212.908 200.108,210.883 200.389,210.126 C 200.669,209.369 201.400,206.838 202.012,204.500 C 203.314,199.528 205.264,193.298 208.352,184.250 C 209.572,180.675 211.220,175.789 212.014,173.392 C 212.809,170.996 213.898,168.071 214.434,166.892 C 214.970,165.714 216.575,161.825 218.000,158.250 C 219.425,154.675 221.046,150.738 221.602,149.500 C 222.157,148.262 223.160,146.012 223.830,144.500 C 224.954,141.965 226.560,138.485 227.575,136.388 C 229.299,132.826 234.748,122.328 235.821,120.500 C 236.548,119.263 237.703,117.237 238.387,116.000 C 239.072,114.763 240.615,112.257 241.816,110.433 C 243.017,108.608 244.000,106.997 244.000,106.851 C 244.000,105.807 256.305,89.084 262.837,81.250 C 268.171,74.854 271.891,71.229 276.694,67.747 C 278.588,66.374 280.844,64.652 281.708,63.920 C 284.358,61.677 295.016,56.148 299.405,54.739 C 309.243,51.582 321.486,51.196 331.250,53.735 C 335.312,54.791 343.380,57.955 346.097,59.557 C 347.486,60.376 348.726,60.940 348.855,60.812 C 349.183,60.484 345.480,57.200 341.556,54.340 C 337.515,51.394 327.330,46.317 323.250,45.214 C 313.036,42.454 306.832,42.107 297.250,43.763 C 291.152,44.817 289.524,45.240 286.039,46.677 C 284.273,47.404 282.460,48.000 282.011,48.000 C 281.562,48.000 280.448,48.551 279.535,49.224 C 278.623,49.897 277.286,50.581 276.563,50.744 C 275.841,50.907 274.012,51.934 272.500,53.026 C 270.988,54.118 268.850,55.442 267.750,55.968 C 266.650,56.494 264.850,57.796 263.750,58.861 C 262.650,59.927 261.261,61.134 260.664,61.544 C 258.307,63.162 252.021,69.495 246.055,76.264 C 244.002,78.592 237.637,87.082 236.250,89.342 C 235.700,90.238 233.583,93.734 231.546,97.111 C 229.508,100.487 227.492,103.812 227.065,104.500 C 225.855,106.449 223.286,111.541 222.399,113.750 C 221.957,114.850 220.824,117.438 219.881,119.500 C 217.246,125.263 211.935,139.439 210.514,144.500 C 210.167,145.738 209.486,147.875 209.000,149.250 C 206.949,155.058 204.413,166.110 202.002,179.750 C 201.418,183.050 200.743,186.762 200.501,188.000 C 199.487,193.188 198.287,201.875 197.496,209.750 C 197.193,212.775 196.732,217.030 196.472,219.205 C 195.869,224.260 195.876,226.000 196.500,226.000 C 196.775,226.000 197.000,225.448 197.000,224.774 Z M 302.478,468.855 C 291.123,465.416 280.758,456.286 268.658,439.065 C 267.507,437.427 264.881,432.749 262.821,428.669 C 256.200,415.549 253.909,410.188 250.783,400.500 C 249.762,397.337 248.744,394.300 248.521,393.750 C 248.297,393.200 247.837,391.738 247.499,390.500 C 247.161,389.262 246.699,387.688 246.473,387.000 C 244.404,380.717 240.256,363.711 238.545,354.500 C 237.127,346.872 234.197,322.636 233.526,313.000 C 233.229,308.738 232.874,303.872 232.736,302.189 C 232.598,300.505 232.482,290.717 232.478,280.439 C 232.460,237.132 237.782,198.089 247.802,168.000 C 253.447,151.052 263.106,129.253 268.557,121.159 C 277.782,107.461 286.814,98.535 296.000,94.041 C 301.904,91.152 303.824,90.748 311.500,90.781 C 317.882,90.809 319.079,90.950 321.500,91.959 C 323.012,92.589 325.082,93.413 326.098,93.791 C 331.057,95.631 342.300,105.141 346.333,110.906 C 347.619,112.745 349.167,114.812 349.771,115.500 C 353.155,119.348 362.399,135.894 365.974,144.500 C 366.602,146.012 367.783,148.825 368.598,150.750 C 371.653,157.967 374.141,165.026 376.791,174.000 C 378.293,179.088 379.641,183.631 379.786,184.097 C 380.084,185.053 379.773,185.158 370.500,187.228 C 367.337,187.934 363.512,188.829 362.000,189.219 C 357.828,190.292 349.764,191.978 341.250,193.557 C 339.600,193.863 335.550,194.752 332.250,195.534 C 328.950,196.316 324.450,197.331 322.250,197.790 C 320.050,198.248 317.746,198.734 317.131,198.869 C 314.919,199.354 316.516,199.802 320.843,199.910 C 323.267,199.971 330.762,200.251 337.500,200.532 C 357.054,201.350 382.727,200.357 386.472,198.639 C 393.440,195.443 407.429,185.708 422.250,173.740 C 424.450,171.964 428.343,168.877 430.902,166.880 C 441.539,158.580 444.091,156.472 449.565,151.460 C 452.142,149.100 455.262,146.468 456.500,145.611 C 457.738,144.753 459.875,143.142 461.250,142.031 C 462.625,140.920 463.925,140.008 464.140,140.005 C 465.351,139.989 484.666,126.143 486.750,123.796 C 494.813,114.719 496.964,111.949 502.591,103.389 C 506.446,97.523 508.326,95.979 513.500,94.423 C 516.944,93.388 526.635,90.084 529.102,89.105 C 531.995,87.955 545.832,88.510 551.750,90.012 C 554.225,90.640 556.877,91.591 557.643,92.124 C 558.409,92.657 559.358,92.970 559.752,92.819 C 560.146,92.667 560.586,92.735 560.731,92.970 C 561.030,93.454 559.777,96.110 559.418,95.752 C 559.093,95.426 550.258,96.890 547.348,97.751 C 544.761,98.517 538.152,101.219 533.157,103.554 C 531.455,104.349 529.943,105.000 529.797,105.000 C 529.651,105.000 528.005,105.989 526.141,107.197 C 522.785,109.371 516.500,115.408 516.500,116.457 C 516.500,117.280 518.444,117.108 520.717,116.084 C 521.835,115.580 523.644,114.872 524.736,114.511 C 525.828,114.150 527.364,113.213 528.149,112.428 C 528.935,111.642 529.809,111.000 530.092,111.000 C 530.375,111.000 532.102,110.278 533.929,109.396 C 538.029,107.417 541.043,107.386 548.000,109.253 C 550.612,109.955 553.312,110.651 554.000,110.802 C 555.122,111.048 560.740,113.218 564.000,114.665 C 564.688,114.970 566.191,115.845 567.340,116.610 C 568.490,117.374 569.615,118.002 569.840,118.005 C 570.291,118.011 575.302,122.984 579.799,127.887 C 581.839,130.112 582.520,131.180 582.141,131.559 C 581.784,131.916 581.300,131.931 580.679,131.604 C 577.470,129.915 571.236,128.857 556.750,127.541 C 542.911,126.283 542.784,126.285 541.245,127.711 C 540.480,128.420 539.633,129.000 539.363,129.000 C 539.093,129.000 536.707,130.091 534.061,131.425 C 531.415,132.759 528.181,134.158 526.875,134.534 C 525.569,134.910 524.500,135.362 524.500,135.538 C 524.500,135.875 528.702,136.576 536.250,137.501 C 541.921,138.195 544.914,138.825 548.938,140.169 C 551.523,141.032 552.516,141.695 554.188,143.674 C 555.322,145.016 558.322,148.224 560.855,150.803 C 565.966,156.009 565.944,155.960 567.588,165.250 C 569.122,173.921 569.178,174.500 568.484,174.500 C 568.142,174.500 566.183,172.981 564.130,171.125 C 558.667,166.186 556.217,164.377 551.750,161.986 C 549.550,160.809 546.809,159.205 545.660,158.423 L 543.570,157.000 L 534.160,157.010 C 524.293,157.020 517.383,157.797 515.399,159.119 C 512.814,160.842 506.902,166.470 504.231,169.750 C 502.664,171.675 501.071,173.430 500.690,173.650 C 498.439,174.953 497.320,181.281 498.554,185.727 C 499.166,187.929 501.921,191.000 503.286,191.000 C 503.773,191.000 504.526,191.318 504.961,191.707 C 505.846,192.499 513.301,195.223 517.500,196.287 C 519.013,196.671 522.088,196.988 524.334,196.992 C 528.867,197.001 530.000,197.266 530.000,198.319 C 530.000,199.923 524.227,204.001 517.500,207.149 C 512.754,209.370 512.558,209.388 496.645,209.088 L 489.040,208.945 L 485.645,205.872 C 483.778,204.181 481.575,202.103 480.750,201.253 C 477.428,197.830 471.735,194.721 468.194,194.395 C 463.727,193.984 459.509,196.958 449.392,207.652 C 445.189,212.094 440.512,216.827 439.000,218.170 C 435.681,221.118 428.113,227.991 427.174,228.911 C 426.803,229.274 426.500,229.758 426.500,229.986 C 426.500,230.215 425.769,230.837 424.875,231.370 C 423.981,231.903 421.762,233.668 419.943,235.294 C 418.124,236.920 415.024,239.488 413.055,241.000 C 411.087,242.512 408.830,244.256 408.041,244.875 C 407.251,245.494 406.319,246.000 405.969,246.000 C 405.619,246.000 403.514,246.976 401.291,248.168 C 398.693,249.562 395.286,250.831 391.750,251.722 C 388.725,252.485 384.900,253.529 383.250,254.043 C 381.600,254.556 378.562,255.451 376.500,256.030 C 374.438,256.610 369.038,258.311 364.500,259.811 C 359.962,261.310 355.575,262.731 354.750,262.966 C 351.288,263.956 344.194,266.143 343.500,266.435 C 343.087,266.608 345.450,266.824 348.750,266.915 C 357.251,267.149 373.488,265.890 384.163,264.169 C 387.855,263.574 389.219,263.519 389.650,263.950 C 390.059,264.359 390.212,269.341 390.188,281.386 C 390.156,297.004 389.833,303.764 388.461,317.500 C 386.774,334.388 387.249,333.046 383.392,331.817 C 382.214,331.442 379.900,330.850 378.250,330.501 C 376.600,330.152 373.337,329.255 371.000,328.507 C 368.663,327.759 365.062,326.625 363.000,325.988 C 360.938,325.350 358.462,324.427 357.500,323.938 C 356.538,323.448 354.738,322.719 353.500,322.318 C 352.262,321.916 348.438,320.472 345.000,319.109 C 335.807,315.464 334.006,314.827 333.714,315.120 C 333.460,315.373 337.599,318.591 343.465,322.702 C 344.997,323.775 347.293,325.462 348.568,326.452 C 349.843,327.441 351.965,328.925 353.283,329.750 C 354.601,330.575 356.033,331.478 356.465,331.756 C 356.897,332.035 358.375,332.916 359.750,333.714 C 361.125,334.513 362.700,335.542 363.250,336.002 C 363.800,336.462 365.038,337.136 366.000,337.499 C 366.962,337.862 368.478,338.695 369.367,339.349 C 370.256,340.003 371.933,340.873 373.092,341.283 C 374.252,341.692 375.549,342.333 375.975,342.707 C 377.692,344.215 386.415,347.329 392.000,348.428 C 400.707,350.140 402.171,350.249 416.000,350.227 C 429.141,350.206 435.961,349.775 443.625,348.484 C 451.140,347.218 452.917,346.773 455.116,345.607 C 458.853,343.623 472.449,328.785 476.666,322.088 C 477.995,319.977 479.683,317.614 480.416,316.836 C 481.841,315.325 485.438,313.495 489.041,312.449 C 490.256,312.096 491.714,311.515 492.281,311.158 C 495.642,309.041 517.123,309.620 517.866,311.847 C 517.971,312.162 516.750,313.187 515.153,314.126 C 513.556,315.065 508.637,318.230 504.221,321.159 C 497.719,325.472 496.020,326.843 495.285,328.367 C 494.114,330.794 492.885,336.585 493.425,337.125 C 493.654,337.354 494.834,337.209 496.046,336.802 C 497.258,336.396 500.275,335.579 502.750,334.988 C 507.295,333.902 519.586,329.669 523.219,327.938 C 524.302,327.422 525.373,327.000 525.599,327.000 C 525.826,327.000 527.021,326.550 528.255,326.000 C 529.490,325.450 531.510,324.550 532.745,324.000 C 533.979,323.450 535.174,323.000 535.401,323.000 C 535.627,323.000 536.729,322.557 537.849,322.016 L 539.885,321.032 L 544.318,322.812 C 546.755,323.790 550.212,325.267 552.000,326.094 C 553.788,326.920 556.150,327.956 557.250,328.395 C 564.567,331.319 571.781,337.794 576.027,345.250 C 577.907,348.551 580.000,352.974 580.000,353.647 C 580.000,353.994 580.450,354.663 581.000,355.134 C 582.117,356.091 582.365,358.500 581.346,358.500 C 580.986,358.500 579.354,357.692 577.721,356.704 C 576.087,355.717 572.388,353.785 569.500,352.413 C 566.612,351.040 563.913,349.720 563.500,349.480 C 560.178,347.540 556.605,346.000 555.428,346.000 C 554.651,346.000 551.661,345.212 548.784,344.250 C 545.908,343.288 543.260,342.496 542.902,342.490 C 542.543,342.485 538.700,344.227 534.362,346.362 C 528.852,349.073 526.517,350.470 526.617,350.997 C 526.724,351.557 528.039,351.906 531.755,352.357 C 537.659,353.075 546.651,354.746 550.460,355.832 C 553.960,356.830 557.154,359.822 563.067,367.643 C 567.876,374.004 568.395,375.050 569.937,381.500 C 571.072,386.252 572.273,398.927 571.646,399.554 C 571.036,400.164 570.437,399.590 567.418,395.500 C 564.255,391.216 560.901,388.042 555.000,383.750 C 552.731,382.100 549.722,379.723 548.313,378.469 C 542.883,373.635 544.202,374.000 532.183,374.000 C 526.307,374.000 521.500,374.197 521.500,374.439 C 521.500,374.680 523.019,375.998 524.875,377.368 C 529.536,380.809 534.255,385.209 535.933,387.679 C 537.231,389.589 539.911,394.285 542.098,398.481 C 543.361,400.904 543.314,407.378 542.000,412.121 C 541.450,414.106 541.000,416.457 541.000,417.346 C 541.000,419.011 539.243,424.362 538.405,425.250 C 537.584,426.119 536.642,424.174 534.194,416.560 C 532.843,412.358 531.229,408.382 530.397,407.208 C 528.361,404.335 521.319,398.008 517.212,395.362 C 511.185,391.479 509.932,390.998 505.895,391.018 C 502.088,391.036 500.108,391.409 490.342,393.952 C 476.775,397.483 470.910,397.694 461.000,395.004 C 457.837,394.146 454.350,393.211 453.250,392.927 C 449.576,391.977 443.322,391.914 435.750,392.752 C 427.805,393.631 424.809,393.967 414.000,395.192 C 389.713,397.945 381.660,397.989 371.000,395.424 C 367.562,394.596 364.300,393.722 363.750,393.481 C 363.200,393.240 359.825,392.111 356.250,390.973 C 348.691,388.566 343.401,386.724 341.263,385.754 C 340.431,385.376 338.738,384.736 337.500,384.331 C 333.520,383.028 330.126,381.715 326.000,379.881 C 321.993,378.101 315.467,375.867 315.162,376.171 C 314.667,376.666 315.512,377.415 319.735,380.226 C 322.062,381.774 324.095,383.250 324.253,383.505 C 324.410,383.759 327.512,385.964 331.145,388.405 C 334.778,390.845 338.795,393.552 340.073,394.421 C 341.350,395.289 342.561,396.000 342.763,396.000 C 342.965,396.000 344.219,396.782 345.550,397.738 C 348.145,399.602 361.943,406.477 365.250,407.553 C 366.350,407.911 367.457,408.376 367.710,408.587 C 368.800,409.494 363.677,421.858 358.735,430.250 C 357.764,431.900 356.409,434.469 355.724,435.960 C 355.040,437.450 354.057,438.966 353.541,439.328 C 353.024,439.690 351.373,441.851 349.871,444.132 C 345.647,450.545 342.153,454.348 335.693,459.565 C 325.674,467.655 321.305,469.547 312.000,469.825 C 307.120,469.971 305.679,469.824 302.478,468.855 Z M 146.750,398.721 C 140.637,397.633 129.997,395.952 123.250,395.008 C 114.394,393.768 101.187,391.780 93.150,390.476 C 88.145,389.664 83.669,389.000 83.204,389.000 C 82.112,389.000 75.344,386.989 75.594,386.739 C 75.698,386.635 78.691,385.961 82.243,385.242 C 85.796,384.522 88.870,383.830 89.074,383.704 C 89.485,383.450 98.781,381.620 102.823,380.997 C 104.238,380.779 105.813,380.472 106.323,380.316 C 107.338,380.004 111.781,379.205 124.750,377.002 C 129.425,376.208 136.062,375.011 139.500,374.341 C 150.333,372.231 153.903,371.797 154.735,372.488 C 155.140,372.823 156.072,375.045 156.806,377.424 C 157.541,379.803 158.569,383.100 159.090,384.750 C 160.625,389.612 161.190,393.932 160.691,397.000 L 160.244,399.750 L 156.747,399.814 C 154.824,399.849 150.325,399.357 146.750,398.721 Z M 408.250,336.030 C 402.725,335.772 402.257,335.674 402.334,334.790 C 402.413,333.876 403.458,323.738 404.528,313.500 C 405.309,306.027 405.918,283.691 405.627,273.175 L 405.362,263.599 L 407.421,262.300 C 408.554,261.585 409.604,261.000 409.755,261.000 C 409.906,261.000 412.283,259.537 415.037,257.750 C 417.792,255.962 420.260,254.500 420.523,254.500 C 421.290,254.500 421.084,298.453 420.254,311.750 C 419.413,325.240 418.547,335.620 418.238,335.929 C 417.874,336.292 414.580,336.326 408.250,336.030 Z M 432.004,334.415 C 432.006,333.774 432.333,330.775 432.730,327.750 C 435.752,304.731 436.803,274.971 435.410,251.808 L 434.813,241.866 L 436.781,240.124 C 437.864,239.166 441.166,235.999 444.120,233.086 C 447.528,229.724 449.662,227.965 449.963,228.270 C 451.428,229.757 454.006,259.848 453.987,275.250 C 453.978,282.642 452.794,308.865 452.294,312.754 C 451.025,322.614 449.964,329.094 449.212,331.579 C 448.950,332.448 445.056,333.484 438.250,334.497 C 436.325,334.783 434.131,335.144 433.375,335.299 C 432.187,335.541 432.001,335.421 432.004,334.415 Z M 144.500,192.962 C 142.713,192.739 140.472,192.321 139.521,192.033 C 137.812,191.516 129.104,190.021 116.000,187.995 C 112.287,187.421 108.237,186.742 107.000,186.486 C 105.763,186.230 102.388,185.661 99.500,185.222 C 96.612,184.782 92.338,184.130 90.000,183.772 C 87.662,183.414 83.667,182.825 81.122,182.463 C 76.221,181.766 75.184,181.415 75.676,180.620 C 75.973,180.140 82.245,178.615 88.250,177.563 C 89.900,177.274 93.162,176.693 95.500,176.272 C 97.838,175.851 102.450,175.068 105.750,174.532 C 109.050,173.996 115.800,172.854 120.750,171.994 C 125.700,171.135 131.325,170.237 133.250,169.998 C 135.175,169.759 140.012,169.004 144.000,168.322 C 147.988,167.639 152.713,166.932 154.500,166.751 C 157.415,166.456 157.871,166.535 158.921,167.523 C 159.807,168.357 160.015,168.945 159.775,169.938 C 159.600,170.659 159.034,173.500 158.517,176.250 C 157.325,182.591 155.769,188.806 154.713,191.446 L 153.891,193.500 L 150.821,193.434 C 149.132,193.398 146.287,193.186 144.500,192.962 Z" fill="#000000" fill-rule="evenodd" /></svg>