<svg xmlns="http://www.w3.org/2000/svg" viewBox="0 0 181 172" width="181" height="172"><path d="M 95.500,160.237 C 90.478,159.579 86.931,158.581 86.668,157.750 C 86.581,157.475 87.834,156.397 89.452,155.354 C 93.754,152.582 97.290,148.595 99.296,144.254 C 100.296,142.090 101.487,140.282 102.134,139.947 C 104.972,138.475 107.587,135.632 111.643,129.609 C 116.400,122.544 118.111,118.915 119.260,113.453 C 121.261,103.942 118.813,94.867 110.507,81.000 C 105.149,72.056 101.923,65.384 99.748,58.750 C 96.969,50.276 97.664,36.477 101.257,28.750 C 106.131,18.268 115.237,11.928 125.509,11.864 C 129.072,11.842 130.175,12.040 132.259,13.076 C 134.223,14.053 134.784,14.605 134.911,15.688 C 135.138,17.620 134.495,18.180 130.180,19.812 C 119.572,23.824 112.712,35.253 114.462,46.000 C 115.763,53.994 116.727,56.065 124.904,68.440 C 139.393,90.370 141.005,94.431 140.995,109.000 C 140.991,116.631 140.018,122.063 137.495,128.548 C 134.725,135.668 129.381,143.710 123.545,149.541 C 116.801,156.279 111.024,159.620 105.000,160.266 C 103.487,160.428 101.800,160.628 101.250,160.710 C 100.700,160.792 98.112,160.580 95.500,160.237 Z M 126.241,141.917 C 129.392,139.439 129.370,135.521 126.198,134.196 C 123.942,133.254 122.864,133.319 121.375,134.491 C 118.910,136.430 119.178,140.752 121.852,142.202 C 123.764,143.239 124.633,143.183 126.241,141.917 Z M 131.814,131.000 C 133.234,131.000 135.000,128.645 135.000,126.750 C 135.000,122.042 128.548,120.871 126.719,125.247 C 126.075,126.787 126.076,127.213 126.721,128.758 C 127.452,130.507 129.146,131.636 130.416,131.219 C 130.782,131.098 131.411,131.000 131.814,131.000 Z M 136.330,118.033 C 138.180,116.905 138.718,115.569 138.275,113.208 C 138.050,112.009 137.524,111.279 136.502,110.751 C 134.393,109.660 132.989,109.823 131.402,111.344 C 129.532,113.136 129.454,115.999 131.227,117.773 C 132.703,119.249 134.210,119.326 136.330,118.033 Z M 136.028,105.985 C 137.471,105.213 138.615,102.660 138.253,101.015 C 137.820,99.040 136.381,97.912 134.218,97.851 C 131.991,97.787 130.000,99.741 130.000,101.990 C 130.000,105.100 133.431,107.375 136.028,105.985 Z M 133.676,92.074 C 135.031,89.747 134.382,87.167 132.110,85.845 C 130.695,85.022 130.264,84.976 128.962,85.516 C 127.315,86.198 126.000,88.258 126.000,90.157 C 126.000,90.821 126.604,91.968 127.342,92.706 C 128.430,93.794 129.066,94.020 130.693,93.899 C 132.370,93.775 132.861,93.474 133.676,92.074 Z M 125.658,82.418 C 128.373,80.972 128.819,77.962 126.625,75.886 C 125.053,74.397 124.263,74.156 122.495,74.626 C 121.096,74.997 119.500,77.323 119.500,78.991 C 119.500,80.387 122.103,83.000 123.494,83.000 C 124.084,83.000 125.057,82.738 125.658,82.418 Z M 120.357,71.188 C 120.711,70.704 121.000,69.468 121.000,68.441 C 121.000,64.965 117.154,63.301 114.727,65.727 C 113.194,67.261 113.137,69.403 114.580,71.238 C 115.527,72.442 115.908,72.577 117.687,72.338 C 118.802,72.189 120.004,71.671 120.357,71.188 Z M 114.114,60.822 C 116.866,57.407 112.719,52.751 109.151,55.251 C 107.942,56.098 107.258,58.450 107.760,60.033 C 108.159,61.289 110.840,62.567 112.250,62.173 C 112.800,62.019 113.639,61.411 114.114,60.822 Z M 110.683,50.464 C 113.329,48.382 111.771,44.000 108.383,44.000 C 105.366,44.000 103.264,48.268 105.375,50.107 C 107.251,51.741 108.916,51.853 110.683,50.464 Z M 110.869,39.736 C 112.235,38.779 112.874,35.803 111.952,34.692 C 110.800,33.304 109.084,32.931 107.532,33.733 C 104.571,35.265 104.842,38.984 108.000,40.145 C 109.246,40.603 109.728,40.534 110.869,39.736 Z M 115.305,29.240 C 117.079,27.466 116.781,25.515 114.567,24.410 C 110.807,22.532 107.959,25.906 110.536,29.183 C 111.856,30.860 113.663,30.882 115.305,29.240 Z M 121.389,22.722 C 123.635,21.148 122.224,16.500 119.500,16.500 C 116.673,16.500 115.504,20.644 117.817,22.464 C 119.395,23.705 119.930,23.744 121.389,22.722 Z M 50.750,160.207 C 33.539,157.774 21.337,149.475 15.157,136.000 C 11.977,129.066 11.027,117.217 13.012,109.250 C 16.175,96.561 21.469,88.868 40.199,69.750 C 47.423,62.377 50.336,58.594 52.580,53.673 C 53.912,50.753 54.149,49.626 54.196,46.000 C 54.259,41.028 53.165,37.534 51.086,36.074 C 47.600,33.625 43.738,33.483 41.152,35.707 C 39.444,37.176 39.342,39.672 40.900,41.860 C 42.184,43.663 42.284,44.642 41.269,45.484 C 40.697,45.959 40.129,45.959 38.644,45.483 C 32.109,43.389 29.337,35.829 32.574,28.926 C 35.067,23.608 39.164,20.661 45.604,19.554 C 52.266,18.410 58.996,20.863 64.506,26.445 C 70.013,32.024 72.216,37.953 72.237,47.250 C 72.244,50.757 71.970,54.289 71.576,55.750 C 68.804,66.030 63.999,73.500 49.988,89.312 C 41.483,98.910 37.217,105.369 35.232,111.651 C 31.782,122.574 35.603,132.299 45.055,136.650 C 51.636,139.679 62.911,138.822 70.228,134.736 L 72.438,133.503 L 75.138,136.204 C 79.941,141.006 87.637,143.784 93.063,142.673 C 95.043,142.267 95.644,142.294 95.838,142.800 C 96.206,143.758 93.374,147.598 90.644,149.845 C 88.438,151.661 83.316,155.000 82.737,155.000 C 82.601,155.000 81.535,155.435 80.370,155.966 C 74.313,158.725 67.946,160.013 59.250,160.238 C 55.400,160.338 51.575,160.324 50.750,160.207 Z M 61.462,155.206 C 62.720,154.147 63.000,153.537 63.000,151.858 C 63.000,148.929 61.095,147.000 58.201,147.000 C 53.938,147.000 51.923,152.000 54.962,155.038 C 56.877,156.954 59.309,157.017 61.462,155.206 Z M 47.194,155.021 C 48.525,154.515 50.000,152.191 50.000,150.599 C 50.000,149.078 47.873,146.351 46.375,145.953 C 44.287,145.397 42.373,146.137 41.125,147.983 C 39.800,149.944 39.688,151.833 40.803,153.425 C 42.135,155.326 44.704,155.968 47.194,155.021 Z M 35.750,148.795 C 37.023,147.776 37.250,147.249 37.250,145.309 C 37.250,142.650 35.731,140.719 33.250,140.226 C 31.274,139.833 28.473,141.683 27.912,143.750 C 26.630,148.474 31.907,151.870 35.750,148.795 Z M 26.774,138.177 C 30.823,133.808 24.665,127.325 20.153,131.207 C 18.988,132.209 18.750,132.810 18.750,134.750 C 18.750,136.690 18.988,137.291 20.153,138.293 C 22.148,140.009 25.124,139.957 26.774,138.177 Z M 22.538,124.038 C 23.621,122.956 24.000,122.103 24.000,120.750 C 24.000,119.397 23.621,118.544 22.538,117.462 C 20.169,115.092 16.709,115.747 15.240,118.843 C 12.930,123.709 18.736,127.841 22.538,124.038 Z M 24.316,110.114 C 25.928,108.808 26.628,107.087 26.286,105.266 C 25.842,102.898 24.329,101.750 21.654,101.750 C 18.849,101.750 17.000,103.564 17.000,106.316 C 17.000,109.972 21.566,112.342 24.316,110.114 Z M 32.206,96.462 C 33.868,94.486 33.919,92.043 32.336,90.203 C 31.392,89.105 30.725,88.841 28.793,88.800 C 26.774,88.758 26.232,88.962 25.207,90.153 C 22.407,93.407 24.495,98.000 28.774,98.000 C 30.547,98.000 31.132,97.738 32.206,96.462 Z M 41.682,84.682 C 43.429,82.934 43.438,80.598 41.706,78.538 C 38.996,75.318 34.000,77.238 34.000,81.500 C 34.000,85.616 38.772,87.592 41.682,84.682 Z M 51.464,74.683 C 52.476,73.396 52.812,70.894 52.189,69.272 C 51.769,68.176 49.378,67.000 47.569,67.000 C 46.518,67.000 45.699,67.463 44.742,68.601 C 43.615,69.940 43.439,70.530 43.666,72.220 C 44.016,74.827 45.445,76.000 48.269,76.000 C 50.005,76.000 50.630,75.742 51.464,74.683 Z M 59.875,63.723 C 61.252,62.158 61.296,60.742 60.034,58.673 C 58.314,55.851 54.298,56.007 52.774,58.954 C 51.786,60.864 51.799,61.729 52.840,63.317 C 54.482,65.823 57.856,66.017 59.875,63.723 Z M 64.086,51.910 C 65.327,50.296 65.216,48.380 63.793,46.843 C 62.196,45.121 60.466,44.733 58.624,45.686 C 55.657,47.220 55.382,51.522 58.161,52.932 C 59.872,53.800 63.053,53.251 64.086,51.910 Z M 61.989,41.026 C 62.955,40.284 63.227,39.618 63.227,38.000 C 63.227,32.998 56.481,32.550 55.690,37.500 C 55.101,41.179 58.971,43.345 61.989,41.026 Z M 54.683,32.464 C 56.464,31.062 56.584,27.466 54.889,26.278 C 53.374,25.217 51.887,25.301 50.317,26.536 C 48.009,28.352 48.681,32.109 51.500,33.145 C 52.823,33.632 53.338,33.521 54.683,32.464 Z M 45.500,31.500 C 46.940,30.060 46.756,28.179 45.004,26.427 C 43.863,25.287 43.239,25.012 42.379,25.274 C 40.472,25.855 39.500,27.055 39.500,28.827 C 39.500,30.930 40.996,32.500 43.000,32.500 C 43.833,32.500 44.944,32.056 45.500,31.500 Z M 119.875,159.642 C 118.103,159.373 118.122,158.439 119.921,157.376 C 122.078,156.102 130.781,146.828 132.848,143.601 C 133.852,142.033 135.223,139.913 135.895,138.890 C 136.566,137.867 138.187,136.342 139.498,135.501 C 146.380,131.085 151.002,122.687 150.999,114.600 C 150.999,112.205 149.915,105.468 149.092,102.742 C 148.842,101.913 146.934,97.638 144.852,93.242 C 140.133,83.276 139.000,79.351 139.000,72.965 C 139.000,59.495 145.741,49.671 155.683,48.653 C 162.347,47.970 168.258,52.780 165.982,57.033 C 165.400,58.122 163.904,58.263 161.571,57.450 C 160.164,56.959 159.734,57.067 157.595,58.439 C 154.455,60.454 153.022,63.048 152.660,67.369 C 152.239,72.398 153.304,75.640 159.159,87.153 C 164.988,98.616 167.187,104.685 168.375,112.594 C 169.123,117.577 169.124,118.421 168.379,123.378 C 167.489,129.300 166.658,132.121 164.364,137.000 C 158.705,149.035 147.853,156.998 134.000,159.282 C 130.025,159.937 123.005,160.116 119.875,159.642 Z M 135.980,155.511 C 137.443,154.728 138.115,152.173 137.282,150.562 C 136.212,148.492 134.405,147.711 132.506,148.498 C 131.657,148.849 130.745,149.541 130.481,150.036 C 128.631,153.492 132.519,157.363 135.980,155.511 Z M 147.406,150.981 C 149.300,149.216 148.807,145.943 146.464,144.732 C 144.575,143.754 144.326,143.790 142.538,145.294 C 140.567,146.953 140.348,149.987 142.111,151.222 C 143.661,152.307 146.101,152.196 147.406,150.981 Z M 156.038,143.538 C 157.764,141.813 157.900,140.143 156.464,138.317 C 155.109,136.595 152.897,136.557 151.227,138.227 C 149.377,140.077 149.874,143.298 152.182,144.415 C 153.874,145.234 154.480,145.097 156.038,143.538 Z M 161.528,133.485 C 163.047,132.672 164.136,130.189 163.498,128.995 C 162.652,127.415 160.669,126.349 159.241,126.708 C 156.097,127.497 155.064,130.609 157.227,132.773 C 158.537,134.082 159.969,134.320 161.528,133.485 Z M 164.843,120.913 C 167.155,118.741 165.482,115.000 162.199,115.000 C 160.454,115.000 158.500,116.849 158.500,118.500 C 158.500,118.976 158.966,119.958 159.536,120.683 C 160.847,122.349 163.205,122.451 164.843,120.913 Z M 163.706,108.962 C 164.417,108.116 165.000,107.201 165.000,106.929 C 165.000,105.857 163.897,104.473 162.447,103.723 C 161.064,103.008 160.814,103.007 159.729,103.717 C 157.088,105.448 156.919,108.107 159.355,109.612 C 161.346,110.841 162.236,110.708 163.706,108.962 Z M 159.821,97.712 C 160.839,96.158 160.520,94.551 158.963,93.393 C 157.368,92.207 155.282,92.604 154.166,94.308 C 153.095,95.943 153.659,97.710 155.546,98.624 C 157.440,99.541 158.814,99.248 159.821,97.712 Z M 154.123,89.305 C 155.562,88.213 155.781,85.781 154.552,84.552 C 153.224,83.224 151.992,83.219 150.317,84.536 C 148.618,85.873 148.618,87.627 150.317,88.964 C 151.830,90.153 152.882,90.248 154.123,89.305 Z M 150.964,79.183 C 151.534,78.458 152.000,77.588 152.000,77.250 C 152.000,76.259 149.999,74.000 149.121,74.000 C 147.800,74.000 146.000,76.052 146.000,77.559 C 146.000,79.024 147.543,80.500 149.075,80.500 C 149.544,80.500 150.394,79.907 150.964,79.183 Z M 150.125,70.097 C 151.756,68.696 150.772,65.881 148.500,65.447 C 146.106,64.990 143.953,67.544 145.033,69.561 C 146.047,71.456 148.270,71.690 150.125,70.097 Z M 152.192,61.768 C 153.307,60.067 153.203,58.699 151.889,57.778 C 150.364,56.711 149.657,56.797 148.227,58.227 C 146.735,59.719 146.719,60.008 148.036,61.683 C 149.352,63.355 151.129,63.391 152.192,61.768 Z M 157.400,56.400 C 157.730,56.070 158.000,55.215 158.000,54.500 C 158.000,52.854 157.153,52.000 155.520,52.000 C 153.317,52.000 152.574,54.352 154.139,56.375 C 154.753,57.169 156.617,57.183 157.400,56.400 Z M 87.750,139.203 C 80.453,137.538 75.534,133.425 73.516,127.301 C 72.242,123.435 74.556,117.242 78.553,113.820 C 82.416,110.514 84.571,109.804 90.750,109.799 C 97.179,109.794 99.476,110.580 103.311,114.101 C 106.531,117.057 107.989,120.335 107.995,124.630 C 108.004,130.436 104.867,134.931 98.902,137.659 C 96.258,138.868 90.050,139.728 87.750,139.203 Z M 93.343,127.413 C 95.705,125.193 94.056,121.000 90.820,121.000 C 87.426,121.000 85.826,124.871 88.227,127.273 C 89.753,128.799 91.808,128.855 93.343,127.413 Z M 51.187,135.036 C 48.819,134.016 46.477,128.664 45.419,121.851 C 44.939,118.758 44.944,117.154 45.445,114.101 C 47.369,102.384 51.453,96.924 68.553,83.208 C 81.878,72.520 85.111,68.147 85.111,60.814 C 85.111,56.824 84.772,55.961 81.853,52.536 C 77.240,47.121 82.976,45.631 88.509,50.807 C 93.540,55.513 95.086,63.594 92.421,71.250 C 90.055,78.048 86.310,82.842 76.175,92.047 C 68.051,99.426 64.540,103.783 63.043,108.345 C 60.617,115.734 62.655,123.471 68.347,128.481 C 70.265,130.170 70.573,130.654 69.980,131.057 C 68.471,132.081 64.178,133.961 62.250,134.441 C 59.251,135.188 52.397,135.556 51.187,135.036 Z M 67.560,122.765 C 65.538,119.575 64.711,115.291 65.490,112.041 C 67.207,104.885 74.840,98.050 83.690,95.745 C 87.381,94.783 95.619,94.783 99.310,95.745 C 105.823,97.441 111.801,101.587 115.270,106.813 L 117.149,109.644 L 116.296,113.262 C 115.318,117.410 112.994,122.250 111.980,122.250 C 111.601,122.250 111.149,121.575 110.975,120.750 C 109.887,115.578 105.502,110.397 100.009,107.795 C 95.570,105.691 89.200,105.364 84.193,106.982 C 76.232,109.554 70.000,116.657 70.000,123.160 C 70.000,125.598 69.283,125.481 67.560,122.765 Z M 122.465,139.208 C 121.648,138.224 122.391,136.819 123.845,136.601 C 125.357,136.374 126.215,137.669 125.408,138.961 C 124.636,140.198 123.375,140.304 122.465,139.208 Z M 129.600,128.400 C 128.168,126.968 129.756,124.287 131.417,125.333 C 132.570,126.059 132.702,127.226 131.739,128.189 C 130.771,129.158 130.395,129.195 129.600,128.400 Z M 132.795,115.187 C 132.445,114.274 133.293,113.000 134.250,113.000 C 134.595,113.000 135.158,113.338 135.500,113.750 C 135.997,114.348 135.997,114.652 135.500,115.250 C 134.677,116.241 133.186,116.206 132.795,115.187 Z M 133.195,102.787 C 132.740,101.602 133.384,100.404 134.373,100.595 C 134.927,100.701 135.250,101.219 135.250,102.000 C 135.250,103.425 133.672,104.030 133.195,102.787 Z M 128.819,90.250 C 128.392,89.137 128.985,88.000 129.992,88.000 C 130.479,88.000 131.158,88.338 131.500,88.750 C 132.266,89.673 131.377,91.000 129.992,91.000 C 129.505,91.000 128.977,90.662 128.819,90.250 Z M 122.333,79.667 C 121.713,79.046 121.996,78.038 122.931,77.537 C 124.170,76.874 125.686,77.933 125.224,79.138 C 124.900,79.981 122.996,80.329 122.333,79.667 Z M 116.333,69.667 C 115.721,69.055 115.990,67.472 116.756,67.178 C 117.968,66.713 119.076,67.924 118.472,69.053 C 117.964,70.002 116.958,70.291 116.333,69.667 Z M 110.493,59.242 C 109.944,58.580 109.972,58.314 110.664,57.621 C 111.638,56.648 112.700,57.348 112.422,58.780 C 112.188,59.986 111.289,60.201 110.493,59.242 Z M 107.182,48.253 C 107.009,47.802 107.107,47.193 107.400,46.900 C 108.162,46.138 109.605,46.834 109.406,47.868 C 109.185,49.019 107.582,49.296 107.182,48.253 Z M 108.000,37.000 C 108.000,36.333 108.333,36.000 109.000,36.000 C 109.667,36.000 110.000,36.333 110.000,37.000 C 110.000,37.667 109.667,38.000 109.000,38.000 C 108.333,38.000 108.000,37.667 108.000,37.000 Z M 112.000,27.000 C 112.000,26.444 112.333,26.000 112.750,26.000 C 113.167,26.000 113.500,26.444 113.500,27.000 C 113.500,27.556 113.167,28.000 112.750,28.000 C 112.333,28.000 112.000,27.556 112.000,27.000 Z M 118.723,20.456 C 118.538,20.157 118.647,19.653 118.964,19.336 C 119.401,18.899 119.651,18.935 119.988,19.480 C 120.464,20.251 120.224,21.000 119.500,21.000 C 119.257,21.000 118.908,20.755 118.723,20.456 Z M 56.762,153.013 C 55.918,152.081 55.916,151.953 56.716,150.732 C 57.679,149.262 58.817,149.277 59.809,150.773 C 60.386,151.645 60.373,151.959 59.715,152.898 C 58.761,154.261 57.921,154.294 56.762,153.013 Z M 43.523,152.278 C 42.100,150.563 44.063,147.665 45.875,148.806 C 47.101,149.579 47.242,150.904 46.216,152.037 C 45.178,153.185 44.338,153.260 43.523,152.278 Z M 31.286,146.714 C 30.256,145.684 30.293,144.842 31.414,143.827 C 32.602,142.753 33.150,142.784 34.238,143.987 C 35.075,144.912 35.079,145.055 34.304,146.237 C 33.354,147.688 32.409,147.837 31.286,146.714 Z M 21.989,135.989 C 20.704,134.704 21.423,133.000 23.250,133.000 C 24.923,133.000 25.678,134.523 24.698,135.923 C 23.761,137.260 23.272,137.272 21.989,135.989 Z M 17.788,122.042 C 16.347,120.449 18.158,118.075 20.066,119.054 C 21.341,119.707 21.615,121.044 20.685,122.072 C 19.617,123.252 18.876,123.244 17.788,122.042 Z M 20.333,107.667 C 19.717,107.051 19.993,105.128 20.792,104.465 C 22.351,103.172 24.304,105.679 22.980,107.274 C 22.353,108.030 20.910,108.244 20.333,107.667 Z M 27.625,95.169 C 26.685,94.789 26.860,92.128 27.862,91.567 C 29.063,90.895 30.500,91.767 30.500,93.168 C 30.500,94.995 29.287,95.839 27.625,95.169 Z M 36.965,82.708 C 36.077,81.638 36.970,80.250 38.548,80.250 C 40.046,80.250 40.471,81.919 39.209,82.842 C 38.052,83.688 37.764,83.670 36.965,82.708 Z M 46.467,72.439 C 46.001,71.567 46.076,71.202 46.889,70.389 C 47.702,69.576 48.067,69.501 48.939,69.967 C 50.111,70.595 50.328,71.972 49.400,72.900 C 48.472,73.828 47.095,73.611 46.467,72.439 Z M 55.520,62.274 C 54.561,61.119 55.093,59.750 56.500,59.750 C 57.292,59.750 57.798,60.073 57.909,60.649 C 58.083,61.548 57.212,63.000 56.500,63.000 C 56.292,63.000 55.851,62.673 55.520,62.274 Z M 59.194,50.285 C 58.696,48.988 59.394,47.915 60.623,48.090 C 61.449,48.207 61.750,48.584 61.750,49.500 C 61.750,50.416 61.449,50.793 60.623,50.910 C 59.947,51.006 59.375,50.756 59.194,50.285 Z M 58.608,38.880 C 57.871,37.992 58.631,36.856 59.810,37.083 C 60.960,37.304 61.077,39.173 59.954,39.390 C 59.516,39.474 58.910,39.244 58.608,38.880 Z M 51.220,29.952 C 51.034,29.651 51.246,29.040 51.691,28.595 C 52.436,27.849 52.564,27.849 53.309,28.595 C 54.254,29.540 53.846,30.500 52.500,30.500 C 51.982,30.500 51.407,30.253 51.220,29.952 Z M 42.250,29.500 C 41.831,28.823 42.396,28.000 43.280,28.000 C 43.676,28.000 44.000,28.450 44.000,29.000 C 44.000,30.035 42.794,30.380 42.250,29.500 Z M 133.000,151.963 C 133.000,150.682 134.655,150.827 134.906,152.131 C 135.021,152.731 134.752,153.000 134.037,153.000 C 133.321,153.000 133.000,152.679 133.000,151.963 Z M 143.778,149.045 C 143.436,148.492 143.957,147.000 144.492,147.000 C 145.173,147.000 146.097,148.438 145.764,148.978 C 145.366,149.621 144.159,149.662 143.778,149.045 Z M 153.000,141.000 C 153.000,140.247 153.261,139.977 153.875,140.095 C 154.356,140.188 154.750,140.595 154.750,141.000 C 154.750,141.405 154.356,141.812 153.875,141.905 C 153.261,142.023 153.000,141.753 153.000,141.000 Z M 159.000,130.530 C 159.000,129.996 159.179,129.448 159.399,129.312 C 160.111,128.872 161.154,129.877 160.839,130.700 C 160.405,131.829 159.000,131.699 159.000,130.530 Z M 161.220,119.452 C 160.709,118.625 162.107,117.448 162.968,117.980 C 163.563,118.348 163.574,118.559 163.032,119.212 C 162.264,120.137 161.691,120.213 161.220,119.452 Z M 160.161,107.200 C 159.808,106.278 161.017,105.317 161.687,105.987 C 162.233,106.533 161.732,108.000 161.000,108.000 C 160.708,108.000 160.330,107.640 160.161,107.200 Z M 156.500,96.292 C 156.500,95.856 156.856,95.500 157.292,95.500 C 158.175,95.500 158.021,96.576 157.094,96.885 C 156.767,96.994 156.500,96.727 156.500,96.292 Z M 151.833,87.167 C 151.258,86.591 151.469,86.000 152.250,86.000 C 152.662,86.000 153.000,86.338 153.000,86.750 C 153.000,87.531 152.409,87.742 151.833,87.167 Z M 148.000,77.250 C 148.000,76.735 148.328,76.490 148.875,76.595 C 149.929,76.798 149.862,77.686 148.776,77.912 C 148.323,78.006 148.000,77.730 148.000,77.250 Z M 147.347,68.680 C 146.947,68.281 147.399,67.500 148.030,67.500 C 148.288,67.500 148.500,67.838 148.500,68.250 C 148.500,69.023 147.910,69.243 147.347,68.680 Z M 149.500,60.208 C 149.500,59.773 149.767,59.506 150.094,59.615 C 151.021,59.924 151.175,61.000 150.292,61.000 C 149.856,61.000 149.500,60.644 149.500,60.208 Z" fill="#000000" fill-rule="evenodd" /></svg>