<svg xmlns="http://www.w3.org/2000/svg" viewBox="0 0 144 164" width="144" height="164"><path d="M 65.250,152.514 C 42.493,152.253 42.225,152.238 39.932,151.097 C 35.233,148.759 31.271,144.251 29.518,139.250 C 28.277,135.708 28.976,122.619 30.501,120.853 C 30.689,120.635 32.280,121.535 34.036,122.853 C 37.167,125.203 37.296,125.248 40.592,125.155 C 44.617,125.041 46.000,124.418 46.000,122.720 C 46.000,121.090 44.155,120.379 41.009,120.796 C 38.477,121.132 37.742,120.829 33.875,117.857 C 31.705,116.189 31.616,115.556 33.067,112.067 C 34.169,109.415 35.296,108.800 36.469,110.212 C 37.148,111.031 42.331,113.578 45.187,114.496 C 50.405,116.173 55.763,110.592 54.016,105.299 C 53.305,103.143 50.876,101.000 49.145,101.000 C 47.256,101.000 43.931,99.903 43.658,99.190 C 43.436,98.612 44.895,97.097 48.909,93.741 L 50.568,92.354 L 52.926,94.677 C 54.368,96.097 55.736,97.000 56.446,97.000 C 57.942,97.000 57.795,96.644 53.937,90.906 C 49.349,84.083 45.549,75.564 43.943,68.500 C 43.017,64.428 42.009,54.342 42.004,49.113 C 42.000,44.056 42.020,43.968 43.283,43.488 C 43.988,43.219 45.537,43.000 46.724,43.000 C 49.298,43.000 49.483,43.397 49.493,48.936 C 49.507,56.151 51.715,68.462 54.167,74.990 C 55.985,79.830 60.285,87.839 62.495,90.500 C 63.711,91.963 64.096,92.159 64.849,91.696 C 66.155,90.894 66.216,89.708 65.036,88.051 C 63.670,86.133 63.728,85.671 65.375,85.339 C 66.886,85.034 68.000,86.005 68.000,87.628 C 68.000,89.821 71.882,97.294 73.305,97.840 C 74.873,98.442 75.225,97.135 74.100,94.889 C 69.991,86.691 68.228,75.460 69.513,65.661 C 70.895,55.111 72.610,49.760 78.094,38.875 C 82.555,30.020 82.598,29.987 86.306,32.539 C 88.824,34.271 88.834,34.533 86.536,38.451 C 85.031,41.018 82.004,48.310 80.454,53.106 C 77.538,62.130 76.316,73.461 77.461,80.875 C 78.400,86.952 80.862,94.000 82.048,94.000 C 83.441,94.000 87.075,90.736 88.854,87.887 C 91.145,84.218 91.834,82.507 92.152,79.700 C 92.280,78.573 93.086,76.214 93.942,74.458 C 94.799,72.702 95.500,70.966 95.500,70.600 C 95.500,70.235 94.825,69.367 94.000,68.673 C 93.175,67.979 92.500,67.130 92.500,66.786 C 92.500,65.960 94.671,65.000 96.539,65.000 C 100.060,65.000 106.500,68.054 106.500,69.723 C 106.500,70.025 105.692,70.708 104.705,71.239 C 102.644,72.349 101.046,75.200 98.530,82.250 C 97.647,84.725 96.041,89.000 94.960,91.750 C 92.984,96.779 92.547,99.000 93.533,99.000 C 95.462,99.000 97.254,96.423 98.486,91.875 C 98.840,90.569 99.375,89.500 99.675,89.500 C 100.435,89.500 106.000,95.079 106.000,95.841 C 106.000,97.400 108.177,102.026 109.805,103.928 C 111.222,105.584 111.534,106.298 111.281,107.306 C 110.889,108.868 108.681,111.000 107.456,111.000 C 105.828,111.000 103.212,112.950 102.038,115.039 C 100.702,117.416 100.833,119.553 102.480,122.217 C 105.458,127.037 111.926,126.150 118.655,120.000 C 120.192,118.595 121.589,117.008 121.759,116.473 C 122.228,114.993 122.852,115.301 123.586,117.375 C 124.513,119.993 124.483,132.929 123.542,136.250 C 122.305,140.619 120.590,143.821 117.928,146.733 C 113.142,151.970 109.440,153.051 96.850,152.889 C 92.120,152.829 77.900,152.660 65.250,152.514 Z M 92.038,145.686 C 93.970,143.590 96.219,142.834 98.288,143.582 C 99.757,144.113 100.127,144.087 100.807,143.407 C 101.499,142.715 101.518,142.369 100.948,140.795 C 100.327,139.077 100.363,138.910 101.633,137.639 C 102.783,136.490 103.172,136.368 104.355,136.784 C 105.433,137.163 105.803,137.680 106.040,139.140 C 106.429,141.534 106.720,141.791 108.385,141.209 C 111.142,140.245 110.164,135.000 106.851,132.980 C 102.746,130.477 97.000,133.231 97.000,137.702 C 97.000,138.758 96.764,139.000 95.734,139.000 C 92.983,139.000 88.000,142.132 88.000,143.861 C 88.000,144.853 89.519,147.000 90.220,147.000 C 90.553,147.000 91.371,146.409 92.038,145.686 Z M 60.201,142.786 C 60.611,141.217 59.218,139.603 56.877,138.933 C 54.062,138.128 53.663,137.775 53.283,135.752 C 53.107,134.810 52.278,133.355 51.443,132.519 C 50.137,131.214 49.559,131.002 47.337,131.011 C 43.156,131.029 41.000,133.651 41.000,138.716 C 41.000,142.018 40.754,141.911 48.791,142.112 C 53.799,142.237 54.520,142.375 56.290,143.551 C 58.430,144.973 59.694,144.726 60.201,142.786 Z M 80.634,131.328 C 83.302,130.023 89.000,125.382 89.000,124.515 C 89.000,123.549 83.189,118.509 80.614,117.241 C 76.593,115.260 71.540,115.254 67.302,117.225 C 63.917,118.799 59.500,122.686 59.500,124.090 C 59.500,126.325 64.955,130.773 69.750,132.449 C 72.453,133.393 77.470,132.877 80.634,131.328 Z M 66.500,112.084 C 68.115,111.282 68.238,111.062 68.088,109.238 C 68.000,108.150 67.826,107.159 67.702,107.036 C 67.579,106.912 66.470,107.301 65.239,107.899 C 62.973,109.000 62.487,110.082 63.303,112.209 C 63.684,113.201 64.297,113.177 66.500,112.084 Z M 84.237,111.525 C 84.657,110.713 85.000,109.819 85.000,109.538 C 85.000,108.377 78.757,106.018 75.655,106.007 C 73.173,105.999 72.969,106.229 73.436,108.512 C 73.779,110.192 73.885,110.262 76.630,110.605 C 78.191,110.800 80.320,111.409 81.359,111.958 C 82.399,112.507 83.300,112.966 83.362,112.978 C 83.424,112.990 83.818,112.336 84.237,111.525 Z M 105.292,121.047 C 104.260,119.906 104.392,117.016 105.500,116.504 C 109.794,114.518 111.352,113.504 113.018,111.610 C 115.654,108.616 117.000,104.850 117.000,100.469 C 117.000,97.179 117.075,96.947 118.283,96.488 C 118.988,96.219 120.563,96.000 121.783,96.000 L 124.000,96.000 L 123.994,99.625 C 123.983,106.154 122.053,111.113 117.614,116.019 C 115.772,118.055 113.945,119.453 111.770,120.490 C 108.104,122.240 106.497,122.378 105.292,121.047 Z M 44.000,110.334 C 39.636,108.877 36.102,106.632 32.481,103.015 C 28.487,99.027 26.642,96.193 25.036,91.582 C 23.891,88.297 22.742,81.592 23.238,81.096 C 23.424,80.909 24.961,80.755 26.652,80.753 L 29.727,80.750 L 30.057,83.000 C 31.313,91.554 37.328,99.824 44.842,103.326 C 46.818,104.247 48.779,105.000 49.200,105.000 C 50.685,105.000 51.144,106.875 50.155,108.898 C 49.386,110.472 48.987,110.763 47.500,110.834 C 46.538,110.881 44.962,110.656 44.000,110.334 Z M 128.079,98.998 C 128.248,94.430 128.235,94.370 126.835,93.316 C 125.677,92.444 124.766,92.259 121.835,92.299 C 115.211,92.390 112.130,93.884 112.743,96.707 C 113.635,100.820 113.653,102.000 112.823,102.000 C 112.378,102.000 111.410,101.086 110.671,99.970 C 106.900,94.272 110.256,85.799 117.087,83.771 C 120.306,82.814 121.331,82.808 123.945,83.731 C 126.998,84.808 129.162,86.670 130.751,89.590 C 131.917,91.734 132.168,92.815 132.195,95.810 C 132.224,99.127 132.097,99.596 130.709,101.311 C 128.164,104.455 127.886,104.210 128.079,98.998 Z M 16.260,88.357 C 13.774,86.949 12.019,83.968 12.008,81.135 C 11.994,77.595 13.902,72.717 16.377,69.965 C 20.836,65.005 26.943,63.910 32.976,66.988 C 36.155,68.609 37.918,70.435 39.493,73.735 C 41.194,77.299 41.496,81.091 40.268,83.465 C 39.326,85.287 36.695,87.500 35.471,87.500 C 34.432,87.500 33.806,85.887 34.084,83.926 C 34.218,82.979 34.513,82.777 35.599,82.890 C 37.357,83.072 38.181,81.688 37.339,79.968 C 36.191,77.624 33.382,76.750 27.000,76.750 C 21.609,76.750 21.102,76.837 18.880,78.143 C 16.473,79.558 15.763,80.810 16.084,83.074 C 16.215,84.005 16.557,84.250 17.725,84.250 C 19.292,84.250 19.845,85.212 19.950,88.125 C 20.013,89.850 19.008,89.913 16.260,88.357 Z M 30.109,72.211 C 30.936,70.395 30.099,69.250 27.946,69.250 C 26.455,69.250 26.230,69.421 26.088,70.667 C 25.842,72.810 26.307,73.500 27.995,73.500 C 29.150,73.500 29.664,73.187 30.109,72.211 Z M 82.444,87.625 C 82.151,86.869 81.786,85.493 81.631,84.568 C 81.384,83.088 81.465,82.919 82.300,83.169 C 82.823,83.325 83.925,83.607 84.750,83.795 C 85.575,83.984 86.422,84.235 86.632,84.353 C 87.082,84.606 84.029,89.000 83.403,89.000 C 83.168,89.000 82.736,88.381 82.444,87.625 Z M 104.503,77.625 C 104.509,76.965 106.193,74.732 108.125,72.821 C 110.548,70.424 110.733,67.871 108.625,65.904 C 103.720,61.326 95.752,59.626 92.068,62.372 C 90.824,63.299 90.742,63.627 90.607,68.177 C 90.450,73.451 89.898,74.222 88.135,71.625 C 85.695,68.031 85.408,65.250 87.104,61.641 C 90.251,54.945 98.523,51.159 105.335,53.296 C 111.387,55.195 114.895,60.866 114.388,67.928 C 114.052,72.612 112.643,75.157 109.509,76.746 C 107.134,77.949 104.496,78.412 104.503,77.625 Z M 35.500,53.527 C 34.812,53.304 33.266,52.824 32.063,52.460 C 25.893,50.595 24.316,43.116 28.311,34.667 C 30.013,31.068 35.086,26.415 38.841,25.006 C 41.222,24.114 42.567,23.946 46.250,24.083 C 51.534,24.279 54.884,25.644 58.867,29.225 C 64.757,34.521 66.630,44.793 62.465,48.959 C 61.016,50.407 54.273,53.228 53.459,52.725 C 53.207,52.569 53.000,50.542 53.000,48.220 C 53.000,44.228 53.058,44.000 54.081,44.000 C 54.676,44.000 56.121,44.562 57.293,45.249 C 59.655,46.633 61.000,46.467 61.000,44.790 C 61.000,41.743 54.610,38.996 47.542,39.006 C 42.724,39.013 39.357,39.763 35.354,41.721 C 31.728,43.495 30.337,44.829 30.700,46.184 C 30.858,46.770 30.989,47.419 30.993,47.625 C 31.007,48.357 32.376,47.980 35.045,46.509 C 36.533,45.689 37.928,45.014 38.144,45.009 C 38.361,45.004 38.474,46.966 38.394,49.369 C 38.239,54.068 38.041,54.352 35.500,53.527 Z M 37.252,36.498 C 38.558,35.055 37.593,33.000 35.611,33.000 C 33.171,33.000 32.150,35.078 33.786,36.714 C 34.854,37.783 36.163,37.701 37.252,36.498 Z M 46.538,32.149 C 47.193,30.427 46.306,29.000 44.582,29.000 C 42.818,29.000 42.000,29.829 42.000,31.616 C 42.000,34.119 45.628,34.545 46.538,32.149 Z M 91.206,45.029 C 88.456,44.371 88.364,44.135 89.823,41.455 C 91.754,37.907 92.389,37.495 93.584,39.016 C 96.232,42.386 95.983,42.239 97.124,41.098 C 98.051,40.171 98.088,39.910 97.500,38.411 C 97.143,37.497 95.252,35.101 93.300,33.086 C 88.054,27.671 82.340,25.016 75.911,25.005 C 73.497,25.002 72.347,25.224 71.763,25.808 C 70.489,27.083 71.097,27.671 74.285,28.249 C 78.615,29.032 78.609,29.021 77.022,32.781 C 76.261,34.585 75.414,36.286 75.141,36.559 C 74.406,37.294 69.296,32.426 68.008,29.767 C 67.074,27.836 67.013,27.307 67.516,25.440 C 68.717,20.980 73.101,15.761 77.602,13.432 C 86.794,8.677 98.610,12.735 103.278,22.250 C 106.094,27.989 105.428,36.917 101.836,41.586 C 99.149,45.080 95.867,46.143 91.206,45.029 Z M 95.400,24.900 C 95.730,24.570 96.000,23.715 96.000,23.000 C 96.000,21.428 95.165,20.500 93.750,20.500 C 92.389,20.500 91.500,21.415 91.500,22.814 C 91.500,24.947 94.010,26.290 95.400,24.900 Z M 86.469,20.875 C 86.757,20.131 86.689,19.411 86.266,18.750 C 84.856,16.541 81.574,18.408 82.531,20.875 C 82.852,21.702 83.374,22.000 84.500,22.000 C 85.626,22.000 86.148,21.702 86.469,20.875 Z M 45.838,137.299 C 45.398,136.153 46.680,134.831 47.867,135.208 C 48.974,135.559 49.688,136.791 49.222,137.545 C 48.777,138.266 46.135,138.073 45.838,137.299 Z M 71.536,126.683 C 68.617,122.972 73.046,118.087 76.889,120.778 C 78.479,121.892 78.453,125.400 76.843,126.913 C 75.205,128.451 72.847,128.349 71.536,126.683 Z" fill="#000000" fill-rule="evenodd" /></svg>