<svg xmlns="http://www.w3.org/2000/svg" viewBox="0 0 402 378" width="402" height="378"><path d="M 74.114,361.201 C 73.765,361.041 73.129,360.234 72.702,359.407 C 72.034,358.116 72.007,357.296 72.507,353.577 C 72.827,351.197 73.012,348.277 72.919,347.087 C 72.758,345.021 72.615,344.847 69.750,343.220 C 68.100,342.283 66.000,341.141 65.083,340.681 C 62.380,339.327 62.404,339.723 64.056,324.250 C 64.853,316.789 64.986,294.462 64.298,283.624 L 63.846,276.499 L 69.619,270.624 C 77.473,262.634 79.644,259.040 81.240,251.389 C 82.746,244.169 81.970,236.372 78.811,226.985 C 75.502,217.153 74.777,202.531 77.134,193.171 C 78.252,188.732 80.407,183.537 82.560,180.090 C 83.711,178.247 82.598,177.752 78.928,178.474 C 72.313,179.776 67.809,183.169 64.829,189.097 C 61.891,194.941 61.412,199.476 62.756,208.750 C 64.631,221.693 62.384,238.342 57.596,246.986 C 51.553,257.892 43.128,263.666 30.544,265.526 C 25.449,266.279 13.127,265.842 12.160,264.874 C 11.319,264.033 11.752,263.511 15.151,261.276 C 18.837,258.852 22.017,254.949 24.727,249.522 C 28.679,241.610 29.078,237.973 28.898,211.500 C 28.783,194.579 28.899,189.139 29.422,187.000 C 34.638,165.651 49.126,153.646 68.477,154.638 C 76.219,155.035 82.723,157.389 90.358,162.558 C 92.342,163.901 94.098,165.000 94.260,165.000 C 94.422,165.000 95.932,164.065 97.616,162.921 C 100.715,160.816 107.877,157.645 112.690,156.246 C 119.684,154.213 132.509,153.345 139.042,154.464 C 140.531,154.719 143.325,155.184 145.250,155.498 C 147.175,155.811 150.277,156.395 152.143,156.794 C 163.608,159.247 182.803,161.106 190.003,160.460 C 205.404,159.077 215.297,154.873 224.018,146.004 C 228.106,141.847 230.511,137.830 233.079,130.872 C 235.696,123.781 238.546,115.843 239.316,113.500 C 240.515,109.853 246.700,97.556 249.375,93.500 C 258.510,79.649 274.078,67.728 289.621,62.682 C 291.201,62.169 292.494,61.581 292.496,61.375 C 292.502,60.815 285.612,60.923 282.217,61.536 C 265.284,64.595 247.413,80.126 237.828,100.111 C 234.943,106.126 233.917,108.704 231.503,116.000 C 226.523,131.053 223.066,137.476 216.684,143.535 C 210.814,149.108 205.810,151.000 196.947,151.000 C 193.529,151.000 190.928,150.789 190.747,150.496 C 190.576,150.219 191.519,149.538 192.843,148.983 C 202.071,145.114 205.145,140.998 208.512,128.000 C 216.007,99.072 221.222,87.341 232.674,73.643 C 238.693,66.444 244.528,61.501 253.000,56.424 C 262.745,50.584 276.467,47.055 289.581,47.016 C 297.391,46.993 302.567,48.122 306.117,50.624 C 306.871,51.155 307.522,50.679 311.117,46.963 C 314.961,42.989 318.929,40.149 322.891,38.534 C 323.794,38.166 324.660,37.993 324.816,38.149 C 324.972,38.305 324.852,40.707 324.550,43.486 C 323.870,49.736 323.834,57.839 324.485,58.241 C 325.445,58.834 328.948,56.451 340.750,47.176 C 354.726,36.194 389.222,11.555 389.805,12.139 C 390.672,13.005 340.218,69.096 336.520,71.379 C 335.156,72.221 335.218,72.597 337.174,75.374 C 338.094,76.681 340.425,80.787 342.352,84.500 C 344.280,88.213 346.303,92.037 346.847,93.000 C 347.392,93.963 348.920,96.775 350.243,99.250 C 351.566,101.725 353.403,105.056 354.324,106.652 C 355.246,108.248 356.000,109.666 356.000,109.804 C 356.000,109.942 356.869,111.336 357.931,112.902 C 362.176,119.163 363.000,121.251 363.000,125.746 C 363.000,130.698 362.171,133.696 359.851,137.136 C 358.922,138.513 356.157,140.000 354.525,140.000 C 354.055,140.000 352.572,140.728 351.228,141.619 C 349.177,142.977 348.339,143.231 346.017,143.196 C 340.832,143.119 339.441,142.089 334.305,134.522 C 328.391,125.808 327.511,125.115 321.177,124.190 C 312.573,122.933 307.559,121.086 303.076,117.524 C 301.447,116.230 300.221,115.579 299.941,115.859 C 299.081,116.719 298.017,125.229 298.017,131.250 C 298.017,140.156 299.420,147.710 304.518,166.250 C 305.493,169.797 305.968,172.045 307.263,179.250 C 308.081,183.801 308.238,195.514 307.523,198.654 C 305.263,208.575 303.945,212.630 301.233,218.000 C 300.330,219.787 298.462,222.851 297.081,224.807 C 294.323,228.713 285.183,237.567 281.265,240.126 C 279.374,241.362 278.576,242.287 277.925,244.000 C 275.881,249.378 271.194,270.319 268.299,287.000 C 267.608,290.988 266.679,296.275 266.236,298.750 C 264.303,309.557 264.004,312.070 264.005,317.500 C 264.006,322.805 264.397,325.689 265.464,328.250 C 265.693,328.800 266.288,330.226 266.786,331.420 C 267.285,332.613 269.280,335.692 271.221,338.262 C 275.765,344.279 277.653,347.426 279.973,352.849 C 282.140,357.915 282.601,359.531 282.104,360.324 C 281.861,360.712 277.781,360.945 269.083,361.069 L 256.416,361.250 L 255.185,359.820 C 253.986,358.428 253.958,358.209 254.102,351.418 L 254.250,344.444 L 251.987,342.347 C 250.742,341.194 248.660,339.523 247.362,338.635 C 245.101,337.090 245.000,336.918 245.001,334.635 C 245.002,333.323 245.438,329.212 245.971,325.500 C 247.252,316.572 247.736,303.538 247.001,297.750 C 246.687,295.275 246.241,287.850 246.011,281.250 C 245.780,274.650 245.348,267.320 245.050,264.960 C 244.179,258.062 242.574,249.374 242.078,248.878 C 241.801,248.601 238.487,248.616 233.685,248.916 C 221.461,249.678 206.939,248.408 193.750,245.423 C 189.753,244.519 175.820,239.825 168.750,237.001 C 165.175,235.573 161.350,234.119 160.250,233.769 C 155.840,232.366 151.027,231.020 146.796,230.008 C 141.559,228.756 141.734,228.663 139.765,233.750 C 137.025,240.827 131.672,249.757 125.979,256.750 C 120.371,263.639 110.883,271.779 104.000,275.607 C 98.656,278.579 97.656,279.206 95.025,281.233 C 91.700,283.795 87.890,287.791 86.861,289.796 C 84.378,294.633 83.256,302.427 82.727,318.500 L 82.390,328.750 L 84.889,332.500 C 86.264,334.562 89.116,338.275 91.228,340.750 C 96.387,346.797 101.413,357.062 100.648,359.988 C 100.396,360.951 99.994,361.000 92.317,361.003 C 87.880,361.004 82.112,361.115 79.500,361.248 C 76.888,361.382 74.464,361.361 74.114,361.201 Z M 329.840,90.696 C 330.233,89.673 326.955,86.315 323.750,84.458 C 319.473,81.980 318.818,82.521 320.252,87.349 C 321.189,90.507 321.929,90.882 328.148,91.357 C 329.018,91.423 329.657,91.174 329.840,90.696 Z M 164.250,350.612 C 159.536,347.991 153.972,343.906 149.875,340.058 C 147.394,337.728 147.300,335.300 149.553,331.747 C 150.407,330.401 151.660,328.086 152.339,326.603 C 153.511,324.040 153.529,323.861 152.708,322.954 C 152.233,322.429 151.583,322.000 151.263,322.000 C 149.935,322.000 146.506,318.321 144.953,315.232 C 144.048,313.431 142.033,310.448 140.476,308.604 C 136.345,303.713 126.351,294.963 119.860,290.554 C 115.948,287.898 113.500,285.315 113.500,283.845 C 113.500,280.410 115.023,277.828 120.194,272.500 C 132.163,260.166 138.814,251.289 143.476,241.425 C 144.600,239.046 145.797,236.993 146.135,236.863 C 147.055,236.510 175.378,246.211 176.394,247.228 C 177.097,247.931 172.475,255.120 167.585,260.929 C 163.929,265.273 156.451,271.616 149.253,276.480 C 143.126,280.620 142.486,281.195 141.999,283.002 C 141.262,285.740 142.128,287.221 146.618,290.904 C 150.473,294.065 164.499,308.179 167.645,312.063 C 170.117,315.114 170.840,317.528 171.473,324.836 C 172.801,340.176 171.234,351.407 167.700,351.876 C 167.177,351.946 165.625,351.377 164.250,350.612 Z M 307.937,309.882 C 307.098,308.314 306.048,298.315 306.022,291.642 C 306.000,286.053 306.005,286.029 307.574,284.242 C 309.430,282.128 311.426,281.000 313.309,281.000 C 314.057,281.000 316.093,280.752 317.834,280.449 L 321.000,279.897 L 321.000,276.932 C 321.000,273.835 322.306,270.503 324.805,267.223 C 327.946,263.102 331.421,249.655 330.021,247.039 C 329.039,245.204 328.027,245.050 321.990,245.816 C 318.833,246.217 314.450,246.749 312.250,247.000 C 310.050,247.251 305.438,247.786 302.000,248.190 C 289.118,249.703 280.000,249.790 280.000,248.400 C 280.000,248.121 280.312,248.013 280.693,248.159 C 281.074,248.305 282.030,247.745 282.818,246.915 C 283.605,246.084 286.275,243.871 288.750,241.998 C 291.225,240.124 293.946,237.839 294.796,236.920 C 298.465,232.955 303.276,225.726 305.420,220.957 C 307.142,217.126 306.469,217.217 316.500,219.463 C 319.113,220.048 323.275,220.973 325.750,221.519 C 328.225,222.065 333.492,223.367 337.454,224.413 C 345.620,226.569 346.634,227.252 349.265,232.365 C 350.421,234.611 350.738,235.859 350.694,238.000 C 350.645,240.414 347.671,253.544 345.032,263.000 C 344.533,264.788 343.619,268.500 343.002,271.250 C 340.339,283.114 339.583,284.954 334.990,290.750 C 328.048,299.510 318.867,307.352 312.558,309.909 C 309.192,311.273 308.680,311.271 307.937,309.882 Z" fill="#000000" fill-rule="evenodd" /></svg>