<svg xmlns="http://www.w3.org/2000/svg" viewBox="0 0 588 527" width="588" height="527"><path d="M 192.659,504.875 C 191.344,503.417 190.388,501.557 188.742,497.250 C 185.501,488.773 184.492,484.994 183.533,477.750 L 182.673,471.250 L 180.996,471.389 C 178.912,471.562 178.000,472.285 178.000,473.764 C 178.000,475.382 175.995,478.936 174.469,480.022 C 171.557,482.096 167.052,482.357 155.750,481.106 C 153.275,480.833 150.688,480.364 150.000,480.064 C 149.312,479.765 147.001,479.075 144.864,478.532 C 139.616,477.197 138.309,476.319 136.488,472.903 L 134.941,470.000 L 129.346,469.993 C 126.268,469.989 123.279,469.860 122.702,469.705 C 121.827,469.470 121.435,469.873 120.315,472.163 C 118.703,475.458 117.491,476.328 113.662,476.940 C 111.309,477.317 110.418,477.251 109.021,476.597 C 106.759,475.538 103.877,472.530 102.029,469.300 C 101.214,467.876 99.998,466.071 99.327,465.290 C 97.982,463.725 97.304,460.731 97.816,458.616 C 98.224,456.931 102.440,450.731 105.469,447.362 C 110.807,441.425 116.676,442.304 120.455,449.605 L 121.250,451.139 L 128.453,451.092 C 132.415,451.065 135.827,450.865 136.036,450.647 C 136.245,450.429 137.475,448.113 138.770,445.500 C 140.064,442.887 142.034,439.402 143.148,437.755 C 144.261,436.108 145.790,433.397 146.545,431.731 C 147.755,429.062 154.285,408.891 157.060,399.250 C 158.461,394.382 164.008,377.227 165.063,374.500 C 165.541,373.262 166.752,370.000 167.753,367.250 C 168.754,364.500 170.880,359.550 172.478,356.250 C 178.457,343.900 179.000,342.745 179.000,342.371 C 179.000,342.161 179.432,341.035 179.961,339.870 C 181.003,337.571 182.540,333.076 183.507,329.500 C 183.842,328.262 184.300,326.688 184.524,326.000 C 184.748,325.312 185.273,323.288 185.690,321.500 C 186.107,319.712 186.900,316.337 187.451,314.000 C 188.003,311.663 188.905,307.275 189.456,304.250 C 193.076,284.372 196.689,268.814 199.847,259.500 C 201.562,254.442 204.771,248.325 207.410,245.082 C 208.604,243.615 209.478,242.311 209.351,242.184 C 209.160,241.994 205.214,244.046 203.200,245.385 C 202.897,245.586 201.742,246.355 200.633,247.094 C 197.033,249.495 193.469,254.684 190.396,262.000 C 187.830,268.111 186.728,272.335 184.948,282.893 C 184.215,287.239 183.490,288.529 182.323,287.561 C 181.892,287.203 181.387,286.424 181.203,285.830 C 180.630,283.990 178.006,281.046 175.774,279.738 C 171.413,277.182 169.170,276.846 157.750,277.038 C 132.725,277.460 128.821,276.859 116.250,270.644 C 112.244,268.664 107.379,265.100 107.785,264.443 C 107.936,264.200 109.134,264.000 110.448,264.000 C 115.670,264.000 130.306,261.253 137.000,259.017 C 139.338,258.237 144.569,256.527 148.625,255.218 C 152.681,253.909 156.000,252.681 156.000,252.488 C 156.000,252.050 152.108,251.656 141.250,250.996 C 125.266,250.024 109.466,247.887 102.000,245.689 C 87.478,241.413 78.862,236.712 68.350,227.330 C 64.889,224.240 58.500,217.022 58.500,216.200 C 58.500,215.769 60.944,216.162 66.500,217.487 C 75.594,219.655 75.597,219.656 88.000,221.349 C 93.234,222.064 98.099,222.192 117.926,222.133 C 130.949,222.095 141.742,221.925 141.912,221.755 C 142.750,220.917 140.309,220.280 122.750,216.754 C 105.628,213.315 95.352,210.732 89.750,208.457 C 89.200,208.234 87.175,207.538 85.250,206.911 C 81.049,205.542 70.849,200.431 63.161,195.842 C 53.490,190.069 43.191,180.942 37.893,173.446 C 32.455,165.755 27.000,155.472 27.000,152.914 C 27.000,151.595 27.932,151.779 30.757,153.657 C 32.128,154.568 34.825,156.182 36.750,157.244 C 38.675,158.305 40.997,159.589 41.911,160.098 C 42.824,160.607 46.312,162.161 49.661,163.552 C 53.010,164.943 56.875,166.605 58.250,167.246 C 64.572,170.193 73.198,173.400 80.000,175.332 C 82.338,175.996 85.825,176.999 87.750,177.562 C 89.675,178.124 92.263,178.769 93.500,178.995 C 96.143,179.478 112.653,183.552 119.750,185.474 C 120.575,185.697 123.162,186.377 125.500,186.984 C 127.838,187.592 130.285,188.302 130.940,188.563 C 132.279,189.097 132.783,188.862 132.226,187.962 C 131.825,187.312 117.269,180.212 109.000,176.633 C 97.721,171.751 73.104,159.493 69.423,156.926 C 68.693,156.417 67.877,156.000 67.609,156.000 C 67.341,156.000 66.839,155.658 66.492,155.241 C 66.146,154.823 65.154,154.145 64.289,153.735 C 61.215,152.276 51.729,144.721 46.757,139.772 C 40.988,134.029 37.405,129.825 34.729,125.655 C 33.703,124.057 32.121,121.625 31.213,120.250 C 27.490,114.610 25.284,109.271 22.499,99.153 C 20.950,93.529 18.516,82.856 18.502,81.625 C 18.501,81.556 18.809,81.500 19.186,81.500 C 19.563,81.500 22.207,83.782 25.061,86.571 C 34.007,95.315 37.616,98.618 43.014,103.006 C 52.688,110.869 55.743,113.063 67.000,120.234 C 67.963,120.847 69.987,122.142 71.500,123.112 C 73.013,124.082 77.513,126.563 81.500,128.626 C 92.908,134.529 100.953,138.729 104.750,140.764 C 106.675,141.796 111.821,144.422 116.185,146.600 C 120.550,148.779 125.524,151.447 127.239,152.530 C 128.955,153.614 130.502,154.500 130.679,154.500 C 131.659,154.500 130.602,153.297 127.375,150.742 C 125.381,149.163 123.412,147.507 122.999,147.061 C 122.586,146.615 121.239,145.575 120.006,144.750 C 118.773,143.925 115.174,141.333 112.007,138.989 C 105.980,134.528 105.030,133.854 100.746,131.000 C 96.518,128.184 91.634,124.642 83.432,118.447 C 75.461,112.427 59.369,97.698 56.750,94.027 C 55.925,92.870 54.792,91.322 54.232,90.587 C 41.427,73.765 34.951,58.168 33.574,40.839 C 32.972,33.259 34.419,17.733 35.689,18.138 C 36.195,18.300 40.054,23.800 43.956,29.922 C 46.913,34.562 55.983,46.685 59.294,50.423 C 63.714,55.414 73.941,65.620 77.750,68.841 C 79.400,70.237 82.791,73.149 85.287,75.314 C 87.782,77.479 90.482,79.743 91.287,80.345 C 104.368,90.137 111.643,95.084 122.500,101.573 C 138.266,110.995 143.388,114.000 143.683,114.000 C 143.858,114.000 145.745,115.113 147.876,116.473 C 163.323,126.331 164.452,127.140 170.432,132.643 C 177.350,139.011 183.455,148.757 186.491,158.282 C 187.362,161.014 188.303,163.925 188.582,164.750 C 189.242,166.700 190.632,172.213 191.733,177.250 C 193.817,186.782 196.074,196.004 197.116,199.250 C 198.645,204.010 202.248,210.924 205.715,215.750 C 210.774,222.791 211.252,223.016 210.767,218.125 C 210.337,213.795 211.218,206.788 212.739,202.435 C 214.061,198.651 215.764,195.918 221.878,187.771 C 227.486,180.298 231.037,172.981 230.162,170.702 C 229.733,169.584 229.124,169.871 227.804,171.813 C 227.127,172.809 225.427,174.815 224.026,176.269 C 219.308,181.168 214.217,187.384 213.026,189.700 C 212.375,190.965 211.669,192.000 211.457,192.000 C 210.538,192.000 209.887,186.020 210.150,180.000 C 210.686,167.742 213.385,161.308 222.771,149.916 C 224.432,147.900 226.478,145.238 227.316,144.000 C 230.359,139.507 233.216,132.217 234.467,125.750 C 235.438,120.734 235.920,118.519 237.510,111.750 C 242.651,89.867 256.853,72.609 273.490,68.030 C 279.836,66.283 288.275,66.708 294.351,69.081 L 296.952,70.097 L 299.666,68.769 C 305.093,66.114 312.904,66.108 321.382,68.753 C 326.130,70.234 327.806,71.143 333.000,75.052 C 340.480,80.681 344.701,86.013 349.648,96.081 C 353.508,103.935 355.230,109.698 357.542,122.500 C 358.514,127.881 359.619,131.808 361.341,136.000 C 363.588,141.471 364.322,142.655 369.472,149.118 C 375.967,157.268 377.073,158.913 378.913,163.169 C 382.559,171.603 383.777,180.209 382.419,187.942 C 381.714,191.959 381.245,192.606 380.419,190.701 C 379.022,187.479 375.858,183.495 370.927,178.750 C 368.069,176.000 365.090,172.906 364.306,171.875 C 362.581,169.604 362.000,169.513 362.000,171.514 C 362.000,174.357 366.194,181.549 372.376,189.309 C 376.456,194.429 378.569,198.211 380.233,203.367 C 381.635,207.709 382.496,215.525 381.953,218.980 C 381.504,221.837 382.190,222.718 383.525,221.000 C 389.040,213.901 393.019,206.319 396.248,196.750 C 397.294,193.654 400.823,178.975 402.260,171.750 C 405.030,157.821 410.510,145.854 418.345,136.629 C 423.691,130.333 435.766,121.475 448.000,114.873 C 451.719,112.867 467.846,103.122 475.500,98.256 C 477.288,97.120 479.650,95.658 480.750,95.008 C 483.189,93.566 493.702,86.261 498.752,82.500 C 504.491,78.226 519.098,65.357 525.383,59.040 C 534.667,49.707 541.100,41.523 552.629,24.378 C 555.170,20.598 557.398,17.504 557.578,17.503 C 558.400,17.496 559.433,30.977 559.168,38.250 C 558.851,46.957 556.780,56.823 553.606,64.750 C 547.545,79.887 540.194,90.507 526.750,103.549 C 517.840,112.193 510.295,118.402 500.750,124.947 C 499.375,125.890 496.845,127.638 495.127,128.831 C 493.410,130.024 491.894,131.000 491.759,131.000 C 491.501,131.000 488.935,132.681 483.196,136.608 C 479.830,138.912 472.745,144.217 469.750,146.678 C 462.819,152.372 461.728,153.395 462.145,153.812 C 462.540,154.206 465.272,153.154 467.077,151.913 C 467.807,151.411 468.616,151.000 468.875,151.000 C 469.133,151.000 469.752,150.550 470.250,150.000 C 470.748,149.450 471.426,149.000 471.757,149.000 C 472.088,149.000 473.572,148.359 475.055,147.576 C 476.537,146.792 481.350,144.285 485.750,142.004 C 490.150,139.723 495.550,136.910 497.750,135.752 C 499.950,134.595 504.675,132.121 508.250,130.255 C 511.825,128.388 514.975,126.691 515.250,126.483 C 515.525,126.275 516.875,125.485 518.250,124.727 C 519.625,123.969 522.604,122.145 524.870,120.674 C 527.137,119.204 529.108,118.000 529.251,118.000 C 529.645,118.000 538.384,112.179 541.500,109.840 C 549.757,103.643 563.917,90.438 569.750,83.495 C 573.295,79.274 573.685,79.456 573.257,85.125 C 572.610,93.684 568.850,106.775 564.461,115.750 C 561.811,121.168 555.923,129.095 548.893,136.705 C 545.353,140.538 536.376,148.122 530.911,151.897 C 522.331,157.824 506.680,166.238 493.500,172.010 C 487.663,174.566 483.995,176.265 476.250,179.996 C 470.360,182.834 467.869,183.971 463.622,185.759 C 458.931,187.734 460.028,188.657 465.351,187.214 C 466.945,186.781 472.300,185.425 477.250,184.200 C 482.200,182.975 487.038,181.768 488.000,181.518 C 489.749,181.063 492.869,180.342 496.875,179.465 C 501.395,178.476 503.816,177.920 505.500,177.484 C 508.902,176.603 514.772,174.866 516.500,174.229 C 517.462,173.874 519.471,173.210 520.964,172.753 C 522.457,172.296 524.594,171.503 525.714,170.993 C 526.834,170.482 529.212,169.461 531.000,168.724 C 536.866,166.305 550.065,159.990 555.500,157.002 C 557.562,155.868 560.683,154.155 562.435,153.196 C 564.187,152.238 565.742,151.575 565.891,151.724 C 566.383,152.216 564.819,156.170 561.856,161.925 C 556.524,172.278 551.700,178.414 541.733,187.519 C 532.115,196.305 515.450,204.719 496.250,210.482 C 493.518,211.302 480.289,214.562 478.000,214.979 C 471.852,216.100 459.828,218.673 456.500,219.580 C 454.438,220.143 452.246,220.718 451.631,220.858 C 447.965,221.697 453.329,221.998 471.655,221.985 C 494.163,221.969 509.735,220.951 516.912,219.025 C 517.923,218.754 520.663,218.180 523.000,217.750 C 525.337,217.321 528.678,216.623 530.423,216.199 C 532.168,215.776 533.697,215.531 533.821,215.655 C 534.312,216.146 530.540,220.970 526.506,225.009 C 522.055,229.466 515.280,235.012 512.109,236.795 C 495.211,246.296 479.689,249.739 448.361,250.932 C 441.671,251.187 437.766,251.534 437.394,251.906 C 437.077,252.223 436.914,252.543 437.033,252.617 C 437.298,252.780 443.082,254.830 451.741,257.830 C 459.826,260.631 470.983,262.938 478.421,263.346 C 485.138,263.715 485.759,264.225 482.711,266.866 C 479.274,269.842 470.356,273.804 463.500,275.400 C 456.747,276.972 453.987,277.149 442.899,276.725 C 436.767,276.491 430.512,276.343 429.000,276.397 C 425.689,276.516 419.134,277.879 418.730,278.532 C 418.571,278.789 418.127,279.000 417.743,279.000 C 416.795,279.000 413.697,281.136 411.172,283.530 C 410.030,284.613 408.848,285.500 408.547,285.500 C 408.227,285.500 408.000,284.510 408.000,283.117 C 408.000,278.171 403.633,263.501 400.152,256.750 C 398.465,253.478 394.867,248.826 392.852,247.311 C 390.504,245.545 383.066,241.767 382.686,242.147 C 382.507,242.327 383.135,243.332 384.083,244.381 C 388.231,248.973 391.666,255.450 394.486,264.000 C 396.000,268.592 396.538,270.850 398.540,281.000 C 399.055,283.613 399.935,287.887 400.496,290.500 C 401.462,294.998 402.054,298.025 402.745,302.000 C 403.554,306.657 406.154,318.865 406.525,319.750 C 406.755,320.300 407.092,321.762 407.275,323.000 C 407.877,327.089 411.878,338.228 415.282,345.294 C 421.047,357.261 424.000,363.725 424.000,364.381 C 424.000,364.729 424.206,365.404 424.458,365.882 C 425.650,368.142 428.900,377.297 430.535,383.000 C 430.890,384.238 431.334,385.475 431.523,385.750 C 432.052,386.523 434.000,392.855 434.000,393.803 C 434.000,394.562 435.459,399.177 436.513,401.750 C 436.738,402.300 437.064,403.425 437.237,404.250 C 437.588,405.926 439.891,413.700 440.496,415.250 C 440.710,415.800 441.176,417.262 441.530,418.500 C 441.884,419.738 442.360,420.964 442.587,421.225 C 442.814,421.486 443.000,422.075 443.000,422.533 C 443.000,423.390 444.363,427.139 446.026,430.855 C 446.544,432.013 446.806,433.057 446.609,433.175 C 446.136,433.458 442.872,432.849 434.000,430.822 C 429.589,429.814 419.469,428.867 417.354,429.263 C 415.436,429.623 415.037,429.171 412.263,423.500 C 411.523,421.988 410.667,420.300 410.362,419.750 C 410.056,419.200 408.315,415.825 406.493,412.250 C 404.671,408.675 401.937,403.613 400.418,401.000 C 398.899,398.387 396.582,394.247 395.270,391.799 C 393.958,389.351 392.280,386.313 391.541,385.049 C 386.911,377.123 380.954,363.799 378.665,356.250 C 378.249,354.875 377.703,353.359 377.454,352.882 C 377.204,352.404 377.000,351.654 377.000,351.215 C 377.000,350.424 372.379,336.174 371.499,334.250 C 371.247,333.700 370.325,331.337 369.451,329.000 C 368.576,326.663 366.992,322.898 365.930,320.635 C 364.869,318.372 364.000,316.291 364.000,316.010 C 364.000,315.730 363.718,315.500 363.373,315.500 C 362.740,315.500 360.298,320.839 355.220,333.326 C 353.313,338.014 351.578,343.705 349.983,350.500 C 348.109,358.486 348.487,370.836 350.870,379.500 C 351.564,382.025 354.641,390.161 356.258,393.750 C 356.630,394.575 358.085,397.837 359.492,401.000 C 360.900,404.163 362.518,407.762 363.089,409.000 C 363.660,410.238 364.304,411.700 364.521,412.250 C 364.738,412.800 365.856,415.500 367.007,418.250 C 369.451,424.089 371.765,430.902 371.421,431.246 C 371.289,431.378 365.347,431.708 358.216,431.980 C 351.085,432.251 337.488,432.811 328.000,433.223 C 299.551,434.459 285.657,434.978 267.250,435.493 C 236.864,436.344 231.876,436.506 226.693,436.812 C 223.911,436.976 221.155,436.958 220.568,436.771 C 219.278,436.362 219.191,434.671 220.310,431.750 C 220.732,430.650 221.705,428.062 222.472,426.000 C 223.724,422.634 227.369,413.607 229.336,409.000 C 229.747,408.038 230.291,406.913 230.545,406.500 C 230.799,406.087 231.260,405.188 231.568,404.500 C 231.877,403.812 232.758,401.900 233.527,400.250 C 239.439,387.563 241.294,383.107 242.580,378.500 C 243.156,376.438 243.841,372.725 244.103,370.250 C 244.616,365.405 244.283,355.435 243.511,352.533 C 243.250,351.552 242.673,349.288 242.228,347.500 C 241.784,345.712 241.249,343.572 241.039,342.742 C 240.830,341.913 240.320,340.451 239.906,339.492 C 239.492,338.534 238.859,336.850 238.500,335.750 C 238.140,334.650 236.794,331.500 235.509,328.750 C 234.223,326.000 232.402,321.899 231.461,319.638 C 230.520,317.376 229.512,315.520 229.221,315.513 C 228.679,315.500 227.962,317.005 226.015,322.250 C 225.403,323.900 224.376,326.488 223.733,328.000 C 223.091,329.512 222.198,331.875 221.749,333.250 C 221.300,334.625 220.644,336.425 220.291,337.250 C 219.457,339.201 218.851,340.972 217.553,345.250 C 212.882,360.645 209.705,369.071 206.562,374.397 C 205.703,375.853 204.997,377.315 204.993,377.647 C 204.989,377.979 203.750,380.500 202.240,383.250 C 200.730,386.000 198.566,390.050 197.432,392.250 C 196.298,394.450 194.091,398.387 192.528,401.000 C 190.966,403.613 188.374,408.337 186.770,411.500 C 184.127,416.713 180.703,423.256 179.491,425.412 C 178.069,427.943 175.979,432.856 175.706,434.307 C 175.457,435.634 175.766,436.698 177.204,439.478 C 180.312,445.484 181.895,448.215 182.357,448.369 C 182.603,448.451 183.098,446.433 183.459,443.884 C 184.224,438.477 185.748,432.864 187.976,427.250 C 190.335,421.308 193.068,415.942 193.900,415.623 C 194.794,415.280 201.596,418.709 205.377,421.409 C 207.408,422.859 207.441,424.008 205.570,428.112 C 204.211,431.092 201.756,437.663 200.554,441.535 C 200.249,442.518 200.000,444.175 200.000,445.220 L 200.000,447.118 L 204.125,446.797 C 206.394,446.621 214.662,446.253 222.500,445.980 C 230.338,445.707 242.150,445.273 248.750,445.016 C 255.350,444.759 264.462,444.420 269.000,444.262 C 273.538,444.104 282.312,443.759 288.500,443.496 C 294.688,443.232 303.688,442.900 308.500,442.758 C 313.312,442.616 319.725,442.389 322.750,442.254 C 329.258,441.963 334.852,441.745 360.500,440.779 C 371.087,440.381 387.175,439.761 396.250,439.402 C 418.830,438.510 426.443,438.560 430.500,439.627 C 433.315,440.367 440.592,442.034 444.500,442.833 C 446.045,443.149 451.742,444.746 455.750,445.987 C 457.400,446.498 460.550,447.408 462.750,448.010 C 466.296,448.979 472.952,451.284 475.750,452.511 C 476.300,452.752 477.762,453.277 479.000,453.678 C 482.602,454.843 485.534,456.008 488.758,457.556 C 490.413,458.350 492.016,459.000 492.322,459.000 C 492.628,459.000 493.179,459.363 493.548,459.807 C 494.125,460.503 494.025,460.780 492.831,461.807 C 492.068,462.463 491.052,463.000 490.572,463.000 C 490.092,463.000 489.486,463.180 489.225,463.400 C 488.964,463.620 487.400,464.315 485.750,464.944 C 484.100,465.573 482.300,466.283 481.750,466.523 C 477.693,468.290 451.930,476.331 442.000,478.929 C 430.765,481.869 428.192,482.132 414.000,481.796 C 406.712,481.624 394.900,481.271 387.750,481.011 C 380.600,480.752 370.025,480.415 364.250,480.263 C 358.475,480.111 351.500,479.879 348.750,479.747 C 346.000,479.616 339.925,479.387 335.250,479.239 C 330.575,479.091 321.688,478.758 315.500,478.498 C 309.312,478.238 299.637,477.898 294.000,477.743 C 288.363,477.588 278.238,477.256 271.500,477.006 C 264.762,476.755 255.537,476.420 251.000,476.262 C 246.463,476.103 240.387,475.870 237.500,475.743 C 234.613,475.616 227.412,475.388 221.500,475.235 C 215.588,475.082 208.539,474.714 205.836,474.417 C 202.869,474.092 200.741,474.059 200.465,474.335 C 200.026,474.774 200.896,480.387 201.925,483.750 C 202.776,486.531 205.564,493.234 206.786,495.438 C 207.454,496.641 208.000,497.910 208.000,498.257 C 208.000,498.604 206.160,499.870 203.910,501.069 C 201.661,502.269 198.680,503.864 197.285,504.614 C 194.195,506.277 193.937,506.291 192.659,504.875 Z M 435.500,464.252 C 443.164,463.052 452.000,460.834 452.000,460.111 C 452.000,459.316 451.969,459.307 445.250,458.281 C 442.225,457.819 437.613,457.099 435.000,456.680 C 429.306,455.768 405.293,455.696 368.750,456.484 C 315.984,457.621 298.116,458.054 285.500,458.502 C 278.212,458.762 265.725,459.128 257.750,459.316 C 249.775,459.505 242.688,459.707 242.000,459.765 C 241.312,459.823 236.711,459.900 231.775,459.936 C 226.629,459.972 223.003,460.186 223.275,460.436 C 223.536,460.677 229.938,461.018 237.500,461.194 C 249.434,461.473 262.772,461.947 280.500,462.720 C 283.113,462.834 294.363,463.058 305.500,463.217 C 316.637,463.376 330.137,463.615 335.500,463.748 C 340.863,463.881 356.725,464.127 370.750,464.293 C 384.775,464.460 396.344,464.687 396.458,464.798 C 396.573,464.909 404.335,464.999 413.708,464.998 C 426.324,464.997 431.984,464.803 435.500,464.252 Z M 298.657,276.721 C 302.682,269.837 311.696,261.269 321.750,254.769 C 332.417,247.873 341.000,239.072 341.000,235.031 C 341.000,233.872 339.697,232.921 336.500,231.746 C 329.043,229.007 323.132,225.260 320.453,221.571 C 318.216,218.492 316.126,211.029 315.924,205.400 C 315.795,201.796 315.409,201.537 312.877,203.355 C 310.332,205.183 305.065,207.675 302.006,208.498 C 298.552,209.429 292.834,209.182 289.333,207.952 C 285.056,206.450 279.266,203.673 278.509,202.760 C 277.206,201.190 276.636,201.929 276.298,205.625 C 275.219,217.421 272.973,222.197 266.560,226.335 C 263.397,228.376 258.107,231.000 257.156,231.000 C 255.984,231.000 251.921,233.125 251.627,233.891 C 251.471,234.298 251.761,235.445 252.273,236.440 C 253.242,238.326 257.419,243.795 259.846,246.356 C 261.961,248.589 267.842,253.093 271.491,255.275 C 280.794,260.839 290.995,270.857 294.757,278.125 C 295.291,279.156 295.957,279.996 296.239,279.990 C 296.520,279.985 297.608,278.514 298.657,276.721 Z M 303.250,195.981 C 310.789,192.422 318.805,185.505 323.190,178.777 C 325.905,174.612 326.654,173.169 328.523,168.500 C 331.170,161.891 333.591,149.778 334.273,139.733 C 334.654,134.122 334.623,134.053 331.250,133.014 C 328.096,132.043 320.083,128.094 316.275,125.635 C 309.009,120.943 301.040,113.320 298.427,108.564 C 297.505,106.885 296.623,105.509 296.468,105.506 C 296.312,105.503 295.823,106.231 295.380,107.125 C 294.024,109.865 288.936,115.262 283.206,120.040 C 280.205,122.543 277.413,124.728 277.000,124.897 C 276.587,125.065 275.350,125.807 274.250,126.545 C 273.150,127.283 270.562,128.762 268.500,129.832 C 265.145,131.573 263.336,132.273 259.626,133.266 C 257.994,133.703 257.809,135.234 258.492,142.643 C 259.013,148.292 259.817,152.781 261.958,162.000 C 262.782,165.549 265.547,172.738 267.321,175.947 C 272.542,185.390 282.191,193.989 290.750,196.828 C 293.837,197.852 300.200,197.421 303.250,195.981 Z" fill="#000000" fill-rule="evenodd" /></svg>