<svg xmlns="http://www.w3.org/2000/svg" viewBox="0 0 432 554" width="432" height="554"><path d="M 354.401,536.545 C 350.544,534.099 350.297,533.422 350.675,526.348 C 351.003,520.190 351.604,513.000 352.479,504.750 C 352.742,502.275 353.190,497.550 353.474,494.250 C 353.759,490.950 354.248,485.550 354.563,482.250 C 354.877,478.950 355.180,475.575 355.237,474.750 C 355.293,473.925 355.474,472.462 355.638,471.500 C 355.803,470.538 356.192,466.712 356.503,463.000 C 357.058,456.391 358.021,446.477 359.028,437.000 C 359.306,434.387 359.743,430.113 360.000,427.500 C 360.257,424.887 360.691,420.613 360.964,418.000 C 361.238,415.387 361.688,410.887 361.966,408.000 C 362.244,405.113 362.934,398.250 363.500,392.750 C 365.019,377.981 365.460,373.422 366.039,366.500 C 366.327,363.062 366.773,357.887 367.031,355.000 C 367.289,352.113 367.717,347.163 367.983,344.000 C 368.248,340.837 369.257,330.375 370.226,320.750 C 371.877,304.345 372.691,295.823 374.084,280.355 C 374.482,275.934 374.499,273.799 374.140,273.440 C 373.855,273.155 372.638,272.807 371.436,272.669 C 370.233,272.530 368.402,272.097 367.365,271.708 C 364.349,270.575 364.216,270.676 363.531,274.625 C 362.762,279.053 361.193,282.433 359.737,282.798 C 358.610,283.081 357.648,283.009 346.000,281.772 C 332.372,280.325 313.371,276.551 307.500,274.126 C 302.167,271.923 297.186,268.702 295.592,266.426 C 294.984,265.558 294.751,262.737 294.445,252.543 C 293.999,237.725 293.852,235.826 292.217,223.789 C 291.548,218.861 291.000,214.755 291.000,214.664 C 291.000,214.236 289.518,214.567 289.210,215.064 C 288.367,216.428 288.025,225.350 287.957,247.750 C 287.871,276.046 287.544,280.942 285.449,285.346 C 283.706,289.011 280.533,292.000 278.385,292.000 C 277.596,292.000 276.343,292.312 275.600,292.693 C 272.953,294.052 262.211,296.236 255.500,296.780 C 254.262,296.880 250.100,297.226 246.250,297.550 C 238.722,298.182 223.755,297.932 214.000,297.011 L 208.250,296.468 L 207.280,297.731 C 206.034,299.352 204.000,304.341 204.000,305.774 C 204.000,306.381 204.281,307.100 204.625,307.373 C 204.969,307.645 208.738,308.023 213.000,308.212 C 217.262,308.402 221.728,308.775 222.924,309.042 C 226.375,309.811 245.514,309.634 253.307,308.761 C 260.418,307.965 264.482,307.255 266.250,306.502 C 266.800,306.268 269.153,305.713 271.479,305.269 C 275.064,304.585 279.798,303.161 283.068,301.782 C 284.106,301.344 285.726,303.548 286.171,306.000 C 286.345,306.962 286.915,309.663 287.438,312.000 C 287.960,314.337 289.191,319.874 290.172,324.304 C 291.154,328.733 292.171,332.896 292.434,333.554 C 292.696,334.212 293.287,336.550 293.747,338.750 C 294.206,340.950 294.917,343.988 295.326,345.500 C 296.460,349.694 296.858,351.288 298.262,357.250 C 298.974,360.275 299.984,364.550 300.507,366.750 C 301.029,368.950 301.911,372.671 302.467,375.019 C 304.075,381.821 306.500,394.305 306.500,395.785 C 306.500,396.530 306.106,397.449 305.625,397.827 C 301.405,401.140 281.525,407.205 268.163,409.255 C 266.449,409.518 265.989,409.412 265.590,408.663 C 265.083,407.710 264.041,401.613 262.785,392.250 C 262.380,389.225 261.696,384.500 261.267,381.750 C 258.762,365.708 258.099,360.384 257.239,349.418 C 256.822,344.100 256.343,335.137 256.176,329.500 C 255.933,321.350 255.714,319.071 255.108,318.375 C 254.124,317.247 253.222,317.265 252.403,318.429 C 252.038,318.949 251.200,319.335 250.500,319.304 L 249.250,319.250 L 248.931,329.250 C 248.755,334.750 248.133,345.438 247.547,353.000 C 246.962,360.562 246.264,369.562 245.998,373.000 C 245.732,376.438 245.045,385.438 244.473,393.000 C 243.075,411.472 243.056,411.590 241.365,412.400 C 240.328,412.898 236.234,413.068 224.621,413.096 C 200.065,413.156 181.914,411.765 166.500,408.640 C 163.062,407.943 159.350,407.199 158.250,406.986 C 155.454,406.444 147.655,404.468 144.500,403.501 C 136.147,400.941 126.786,397.709 125.551,396.958 C 123.440,395.674 123.425,395.935 126.299,383.500 C 126.712,381.712 127.156,379.744 127.285,379.125 C 127.580,377.706 128.143,377.717 134.000,379.263 C 155.910,385.046 171.192,385.902 180.992,381.895 C 186.154,379.784 190.194,375.721 192.073,370.750 C 193.561,366.812 194.829,360.849 195.208,356.000 C 195.703,349.670 197.031,336.676 197.737,331.250 C 198.131,328.225 198.608,323.669 198.798,321.125 C 199.088,317.242 199.026,316.500 198.412,316.500 C 198.010,316.500 197.191,317.062 196.593,317.750 C 195.996,318.437 195.311,319.000 195.071,319.000 C 194.832,319.000 194.048,319.848 193.330,320.885 C 192.165,322.565 191.914,323.770 191.007,332.010 C 188.122,358.218 187.081,365.428 185.799,368.098 C 184.863,370.048 181.105,373.213 177.750,374.879 C 174.977,376.255 170.103,377.002 163.959,376.991 C 153.499,376.972 135.440,372.836 122.471,367.488 C 115.963,364.804 112.764,361.731 112.221,357.639 C 111.668,353.470 113.952,337.000 115.084,337.000 C 115.311,337.000 117.129,337.858 119.123,338.906 C 123.479,341.195 127.822,343.000 128.973,343.000 C 129.434,343.000 130.698,343.419 131.781,343.930 C 134.020,344.988 134.565,345.110 144.500,346.773 C 152.621,348.132 154.995,348.242 159.283,347.457 C 164.980,346.414 169.135,343.627 171.291,339.404 C 173.525,335.025 178.551,318.615 178.842,314.750 C 179.057,311.891 178.420,310.380 177.421,311.379 C 177.079,311.721 176.422,312.000 175.959,312.000 C 174.475,312.000 172.028,315.813 170.985,319.750 C 170.055,323.259 166.542,332.454 165.202,334.884 C 164.021,337.028 163.238,337.773 161.000,338.884 C 158.507,340.122 157.736,340.250 152.750,340.250 C 146.934,340.250 141.541,339.489 137.000,338.027 C 135.488,337.540 133.238,336.834 132.000,336.458 C 123.109,333.757 117.979,328.762 118.748,323.554 C 119.273,319.998 121.709,311.481 124.697,302.750 C 125.355,300.825 126.390,297.600 126.995,295.583 L 128.096,291.917 L 126.985,290.734 C 125.487,289.139 125.971,287.834 127.864,288.363 C 129.904,288.933 140.017,288.695 141.694,288.038 C 142.489,287.727 143.231,287.565 143.345,287.678 C 143.458,287.791 143.068,289.380 142.477,291.208 C 141.151,295.311 141.428,295.750 145.633,296.223 C 147.348,296.415 150.662,297.021 153.000,297.568 C 155.338,298.115 158.150,298.750 159.250,298.978 C 172.650,301.755 176.914,302.488 178.116,302.225 C 179.871,301.839 180.962,299.826 181.127,296.672 C 181.264,294.034 181.654,294.330 176.000,292.782 C 173.238,292.025 160.391,289.558 153.625,288.485 C 147.927,287.581 148.965,286.196 156.778,284.281 C 167.896,281.556 179.248,277.262 182.285,274.632 C 183.765,273.350 184.693,270.543 183.756,270.183 C 183.366,270.034 182.793,270.069 182.481,270.262 C 182.170,270.454 180.640,270.895 179.082,271.242 C 177.525,271.589 174.000,272.488 171.250,273.239 C 168.500,273.991 165.125,274.785 163.750,275.004 C 162.375,275.223 160.575,275.760 159.750,276.198 C 158.925,276.636 157.795,276.995 157.240,276.997 C 156.684,276.999 154.659,277.416 152.740,277.925 C 145.670,279.797 142.257,280.231 135.000,280.181 C 128.859,280.138 127.138,279.944 123.750,278.919 C 110.612,274.942 103.916,265.661 103.979,251.515 C 104.015,243.350 105.467,236.539 110.191,222.363 C 112.229,216.247 116.363,205.482 118.490,200.750 C 118.985,199.650 119.998,197.175 120.741,195.250 C 121.485,193.325 123.457,188.975 125.123,185.584 L 128.153,179.417 L 129.951,179.730 C 131.703,180.034 133.238,180.557 140.054,183.172 C 145.636,185.313 159.852,192.184 162.500,194.021 C 163.188,194.498 166.225,196.084 169.250,197.546 C 172.275,199.007 175.468,200.690 176.346,201.285 C 177.224,201.879 179.136,202.746 180.596,203.211 C 182.056,203.677 184.204,204.494 185.370,205.029 C 188.612,206.515 189.186,206.364 188.826,204.125 C 188.660,203.094 188.178,201.125 187.755,199.750 L 186.986,197.250 L 170.118,188.877 C 160.841,184.272 152.912,180.295 152.500,180.038 C 152.088,179.782 149.162,178.520 146.000,177.234 C 142.838,175.948 140.025,174.735 139.750,174.538 C 139.475,174.341 138.238,173.884 137.000,173.523 C 135.762,173.162 133.498,172.446 131.967,171.933 C 130.436,171.420 128.818,171.000 128.371,171.000 C 125.582,171.000 127.687,167.826 136.000,159.496 C 141.895,153.589 146.006,150.459 151.875,147.406 C 153.044,146.798 154.000,146.052 154.000,145.748 C 154.000,145.445 153.200,144.421 152.222,143.473 C 150.588,141.890 150.222,141.760 147.717,141.869 C 137.859,142.300 119.767,161.773 116.505,175.463 C 115.892,178.035 115.914,178.221 116.929,179.043 C 117.518,179.520 118.000,180.200 118.000,180.555 C 118.000,180.910 116.986,183.236 115.747,185.725 C 114.508,188.214 112.954,191.713 112.294,193.500 C 111.633,195.287 110.598,197.988 109.994,199.500 C 109.390,201.012 108.564,203.150 108.159,204.250 C 107.754,205.350 107.080,207.037 106.661,208.000 C 105.327,211.060 105.094,211.663 103.572,216.000 C 99.977,226.243 97.561,234.101 96.424,239.250 C 95.539,243.261 95.546,257.833 96.435,261.500 C 97.412,265.530 101.354,273.364 103.669,275.876 C 108.409,281.018 116.012,285.777 121.962,287.326 C 123.495,287.725 124.903,288.209 125.089,288.401 C 125.276,288.593 124.315,290.270 122.953,292.128 C 119.464,296.889 117.166,301.258 116.315,304.750 C 115.912,306.400 115.110,309.438 114.532,311.500 C 113.591,314.859 112.013,322.288 110.442,330.750 C 109.672,334.900 108.624,338.498 107.947,339.314 C 106.734,340.776 81.267,339.737 74.526,337.952 C 65.679,335.608 62.196,333.951 55.885,329.080 C 51.540,325.726 47.536,320.087 45.737,314.786 C 45.306,313.518 45.089,312.261 45.254,311.994 C 45.442,311.690 48.778,311.627 54.175,311.827 C 63.647,312.176 69.950,311.564 72.978,310.000 C 76.308,308.280 80.630,302.649 82.189,298.000 C 83.645,293.657 83.803,290.501 84.294,256.000 C 84.577,236.111 84.520,229.825 84.044,228.382 C 83.317,226.182 78.991,221.714 76.082,220.162 C 73.796,218.942 67.837,217.478 60.000,216.212 C 57.112,215.745 53.783,215.203 52.601,215.007 C 49.585,214.508 49.286,214.070 49.976,211.174 C 50.294,209.841 50.859,206.950 51.231,204.750 C 51.980,200.323 52.576,197.668 55.216,187.000 C 56.203,183.012 57.252,178.625 57.548,177.250 C 57.845,175.875 58.292,173.936 58.543,172.942 C 59.098,170.747 59.128,169.497 58.625,169.508 C 57.838,169.523 52.598,174.828 51.767,176.451 C 50.324,179.267 48.039,187.038 46.460,194.500 C 45.676,198.200 44.994,199.527 43.603,200.056 C 40.752,201.140 37.501,200.231 36.497,198.070 C 34.986,194.816 35.309,191.338 38.669,174.676 C 40.452,165.835 42.156,158.143 42.455,157.583 C 42.755,157.024 43.000,156.171 43.000,155.688 C 43.000,154.508 46.966,147.999 47.682,148.003 C 47.995,148.004 49.825,149.265 51.750,150.803 C 59.142,156.713 60.834,157.031 84.656,156.992 C 107.808,156.955 107.852,156.949 112.069,153.570 C 113.881,152.118 115.877,150.236 116.504,149.388 L 117.644,147.846 L 116.447,148.257 C 115.789,148.483 108.555,148.757 100.372,148.866 C 86.693,149.048 85.467,148.995 85.165,148.210 C 84.937,147.614 85.277,147.045 86.294,146.325 C 91.521,142.622 96.051,133.931 98.296,123.292 C 99.155,119.226 99.271,109.556 98.510,105.549 C 97.733,101.458 95.989,95.902 95.042,94.500 C 94.577,93.812 93.647,92.160 92.974,90.828 C 91.139,87.195 85.302,81.530 81.465,79.656 C 73.407,75.721 64.047,77.047 57.938,82.988 C 55.360,85.496 51.255,91.455 50.506,93.777 C 50.156,94.862 49.692,95.976 49.475,96.253 C 49.258,96.530 48.742,98.330 48.330,100.253 C 47.031,106.311 47.901,118.734 49.731,120.250 C 50.063,120.525 50.496,121.398 50.693,122.191 C 51.517,125.499 57.326,132.360 60.818,134.149 C 63.471,135.509 66.945,135.647 70.529,134.536 C 74.104,133.428 75.535,132.235 76.733,129.368 C 77.162,128.341 77.829,127.500 78.215,127.500 C 79.589,127.500 81.142,120.851 81.128,115.032 C 81.108,106.449 79.058,101.560 74.515,99.258 C 71.522,97.741 70.758,97.711 67.769,98.992 C 65.980,99.759 65.275,100.410 64.657,101.867 C 63.490,104.618 63.517,109.138 64.708,110.454 C 66.130,112.025 67.205,111.738 69.446,109.192 C 70.613,107.867 71.766,106.995 72.154,107.144 C 73.169,107.533 75.000,113.028 75.000,115.682 C 75.000,119.433 71.502,126.000 69.504,126.000 C 68.984,126.000 68.420,126.225 68.250,126.500 C 67.805,127.221 64.743,127.115 62.822,126.312 C 60.711,125.430 58.374,122.607 56.356,118.500 C 54.791,115.316 54.758,115.107 54.754,108.250 C 54.752,103.793 54.989,100.523 55.409,99.250 C 56.499,95.942 58.569,92.019 59.707,91.107 C 60.295,90.636 61.275,89.544 61.883,88.680 C 62.639,87.608 64.061,86.680 66.370,85.751 C 69.249,84.592 70.218,84.433 72.902,84.679 C 80.799,85.402 87.268,92.454 90.830,104.223 C 91.877,107.682 92.049,109.258 92.050,115.395 C 92.050,119.325 91.820,123.262 91.539,124.145 C 91.258,125.028 90.656,126.987 90.202,128.500 C 88.704,133.492 85.995,137.961 82.018,141.999 C 76.629,147.471 74.812,148.239 67.250,148.238 C 61.435,148.237 61.150,148.186 58.000,146.571 C 48.982,141.950 43.238,134.791 39.550,123.579 C 37.257,116.610 36.811,113.230 37.189,105.696 C 37.848,92.570 41.895,82.802 50.107,74.512 C 53.154,71.437 56.172,69.589 62.750,66.773 L 66.250,65.274 L 83.000,65.094 C 99.920,64.913 105.087,65.252 108.748,66.781 C 111.205,67.808 117.466,73.014 120.884,76.872 C 124.145,80.552 128.198,88.038 129.889,93.500 C 130.442,95.287 131.158,98.662 131.479,101.000 C 131.800,103.338 132.306,106.416 132.603,107.841 C 133.234,110.866 132.817,127.392 132.013,131.222 C 131.727,132.582 131.672,133.872 131.890,134.090 C 132.109,134.309 133.066,133.958 134.018,133.312 C 134.971,132.666 136.933,131.519 138.379,130.764 C 141.231,129.275 141.269,129.197 141.729,123.916 C 142.575,114.211 142.546,110.645 141.568,104.000 C 141.022,100.287 140.131,95.887 139.589,94.221 C 136.825,85.729 131.178,76.566 124.049,69.002 C 122.365,67.216 121.085,65.501 121.203,65.191 C 121.359,64.787 127.981,64.602 144.710,64.535 L 168.000,64.442 L 167.991,66.596 C 167.979,69.243 166.845,75.567 165.542,80.250 C 165.006,82.175 164.421,84.312 164.242,85.000 C 164.063,85.688 163.715,86.700 163.468,87.250 C 162.781,88.784 160.773,94.752 159.263,99.750 C 158.515,102.225 157.713,104.738 157.481,105.334 C 157.092,106.333 156.920,107.667 156.260,114.823 C 155.758,120.271 158.748,125.189 163.340,126.464 C 166.989,127.477 167.117,127.281 165.208,123.601 C 163.434,120.182 163.142,116.162 164.247,110.380 C 164.734,107.833 165.538,104.625 166.035,103.250 C 167.422,99.414 169.487,93.029 170.240,90.250 C 170.613,88.875 171.264,86.850 171.687,85.750 C 172.110,84.650 172.473,83.188 172.494,82.500 C 172.515,81.812 172.862,80.813 173.266,80.279 C 173.670,79.746 174.000,78.575 174.000,77.679 C 174.000,76.783 174.216,74.969 174.481,73.650 C 175.402,69.055 176.129,54.656 175.532,52.847 C 174.979,51.170 174.761,51.012 168.447,47.684 C 165.925,46.355 160.203,41.571 158.471,39.343 C 157.582,38.199 157.426,37.498 157.641,35.593 C 157.864,33.613 158.241,32.951 160.077,31.321 C 163.421,28.351 165.154,27.562 180.500,22.021 C 182.562,21.276 185.121,20.292 186.186,19.833 C 187.251,19.375 188.586,19.000 189.153,19.000 C 189.720,19.000 191.099,18.577 192.217,18.060 C 196.431,16.112 205.666,14.520 212.750,14.520 C 216.833,14.520 219.140,14.775 226.000,15.981 C 228.966,16.503 237.378,19.305 238.824,20.253 C 239.452,20.664 240.170,21.000 240.421,21.000 C 241.207,21.000 251.263,26.776 255.092,29.427 C 264.607,36.015 272.365,43.824 275.457,49.929 C 277.652,54.260 280.749,63.170 281.218,66.500 C 281.392,67.737 281.846,70.100 282.228,71.750 C 282.609,73.400 283.389,77.225 283.960,80.250 C 284.531,83.275 285.590,88.675 286.313,92.250 C 290.371,112.322 291.057,120.882 289.064,126.600 C 287.714,130.474 284.604,134.950 279.880,139.819 L 275.933,143.887 L 277.841,145.422 C 291.379,156.310 296.228,161.478 302.443,171.638 C 303.814,173.880 303.787,173.940 299.041,179.099 C 292.011,186.739 280.148,195.068 272.750,197.557 C 271.650,197.927 269.962,198.718 269.000,199.316 C 266.998,200.558 260.327,202.492 253.750,203.737 C 244.545,205.479 227.428,205.318 223.882,203.456 C 222.488,202.724 222.000,202.919 222.000,204.207 C 222.000,205.126 222.627,205.798 224.625,207.022 C 226.069,207.906 228.110,209.556 229.162,210.689 L 231.074,212.750 L 239.162,213.000 L 247.250,213.250 L 248.059,219.500 C 248.503,222.938 249.131,228.562 249.453,232.000 C 249.776,235.438 250.288,240.275 250.593,242.750 C 251.161,247.380 251.445,278.355 251.000,287.240 C 250.774,291.757 250.835,292.246 251.649,292.406 C 252.789,292.630 255.923,290.267 256.501,288.748 C 258.218,284.231 258.702,253.659 257.288,239.000 C 256.877,234.738 256.415,229.675 256.263,227.750 C 256.111,225.825 255.744,222.787 255.449,221.000 C 255.154,219.213 254.988,216.530 255.081,215.039 L 255.250,212.328 L 258.000,211.619 C 265.951,209.569 276.496,205.569 282.500,202.325 C 287.645,199.545 296.452,192.956 300.231,189.059 C 301.596,187.651 302.946,186.501 303.231,186.503 C 303.890,186.507 304.763,188.001 309.548,197.311 C 318.219,214.183 321.916,220.088 324.829,221.716 C 330.688,224.991 341.852,226.872 357.013,227.139 L 363.276,227.250 L 365.548,225.389 C 369.213,222.386 373.194,220.768 377.171,220.664 C 379.052,220.615 380.666,220.501 380.756,220.410 C 380.847,220.320 381.273,216.084 381.703,210.998 C 382.133,205.911 382.702,199.500 382.966,196.750 C 383.830,187.758 384.693,176.954 385.787,161.424 C 386.136,156.470 385.759,154.204 382.957,144.414 C 379.294,131.618 380.598,124.584 387.712,118.754 C 394.774,112.968 405.445,114.058 411.474,121.183 C 416.908,127.604 417.319,137.744 412.434,144.845 C 410.234,148.044 407.182,154.378 406.096,158.000 C 404.652,162.813 403.086,171.917 402.484,179.000 C 401.935,185.444 399.461,210.638 398.447,220.100 C 398.132,223.043 398.008,225.799 398.171,226.225 C 398.336,226.654 399.058,227.000 399.789,227.000 C 401.562,227.000 406.799,229.842 408.774,231.876 C 413.383,236.622 414.094,245.880 410.934,260.000 C 409.615,265.892 409.206,266.754 405.772,270.890 C 401.904,275.549 399.941,276.833 395.658,277.504 C 393.784,277.798 392.016,278.346 391.731,278.721 C 391.225,279.385 390.785,282.807 389.220,298.250 C 388.803,302.375 388.239,307.887 387.968,310.500 C 387.146,318.430 386.503,324.880 385.750,332.750 C 384.371,347.163 383.042,360.285 382.510,364.750 C 382.009,368.949 379.997,390.085 378.964,402.000 C 378.468,407.722 376.835,423.087 375.961,430.250 C 375.660,432.725 375.232,436.550 375.012,438.750 C 374.614,442.726 372.988,458.690 372.008,468.250 C 371.726,471.000 371.280,475.500 371.018,478.250 C 370.755,481.000 370.295,485.500 369.997,488.250 C 369.698,491.000 369.247,495.613 368.995,498.500 C 368.098,508.759 366.187,526.543 365.569,530.391 C 365.120,533.182 363.937,534.853 361.259,536.477 C 358.479,538.163 356.976,538.178 354.401,536.545 Z M 187.345,314.875 C 191.985,309.120 198.240,297.504 201.009,289.500 C 201.628,287.712 202.576,285.238 203.117,284.000 C 203.657,282.762 204.296,281.300 204.536,280.750 C 205.274,279.058 207.816,270.489 208.970,265.807 C 209.713,262.790 209.901,261.201 209.555,260.855 C 209.209,260.509 208.035,260.700 205.898,261.449 C 204.166,262.056 202.188,262.683 201.500,262.842 C 200.131,263.158 198.645,264.294 197.984,265.530 C 197.533,266.372 196.001,271.840 194.489,278.000 C 193.983,280.062 193.215,282.762 192.782,284.000 C 185.491,304.866 182.756,314.841 183.673,317.229 C 184.160,318.498 184.706,318.149 187.345,314.875 Z M 397.234,266.515 C 397.930,265.861 398.500,265.079 398.500,264.778 C 398.500,264.477 399.160,262.660 399.966,260.741 C 402.221,255.371 403.121,250.655 402.922,245.240 C 402.733,240.083 402.150,239.048 399.416,239.016 C 397.998,238.999 396.813,240.505 395.495,244.000 C 394.537,246.540 393.594,247.443 391.556,247.770 C 383.432,249.074 383.361,249.165 383.585,257.935 C 383.738,263.942 383.837,264.515 384.927,265.674 C 386.448,267.291 388.980,267.978 392.859,267.826 C 395.341,267.729 396.223,267.465 397.234,266.515 Z M 371.808,262.117 C 372.713,261.521 372.941,260.159 373.505,252.000 C 373.800,247.738 374.299,243.384 374.615,242.325 C 375.301,240.020 376.847,238.874 378.814,239.209 C 379.604,239.344 381.712,239.710 383.500,240.023 C 389.002,240.986 388.754,241.061 388.724,238.459 C 388.673,234.043 384.519,230.698 378.379,230.128 C 375.887,229.897 375.260,230.028 373.629,231.120 C 370.257,233.378 363.555,240.485 362.959,242.436 C 362.098,245.253 361.776,255.057 362.476,257.176 C 363.153,259.230 365.136,260.834 368.170,261.783 C 370.653,262.559 371.078,262.598 371.808,262.117 Z M 193.555,254.233 C 196.118,253.928 201.713,252.865 205.500,251.963 C 206.463,251.733 208.150,251.342 209.250,251.093 C 213.351,250.165 217.997,247.916 219.447,246.157 C 221.507,243.657 222.665,238.799 222.761,232.250 C 222.887,223.670 221.492,214.975 219.814,213.883 C 218.868,213.266 212.930,213.472 209.703,214.233 C 208.027,214.629 205.010,215.506 202.999,216.184 C 198.973,217.539 198.059,217.427 195.161,215.216 C 193.038,213.597 192.514,213.670 190.436,215.875 C 186.805,219.728 180.996,230.450 181.004,233.287 C 181.008,234.797 183.483,245.026 184.806,249.000 C 185.218,250.238 186.125,252.118 186.820,253.179 C 187.908,254.837 188.281,255.069 189.473,254.830 C 190.236,254.678 192.073,254.409 193.555,254.233 Z M 141.750,232.465 C 143.400,232.172 146.325,231.494 148.250,230.960 C 159.863,227.740 165.120,226.348 168.000,225.733 C 172.815,224.703 175.180,223.915 175.837,223.122 C 176.422,222.415 176.206,219.125 175.524,218.364 C 175.334,218.152 173.619,218.335 171.714,218.770 C 162.620,220.850 160.101,221.438 158.250,221.915 C 148.190,224.507 138.763,228.683 135.147,232.149 C 133.990,233.258 133.156,234.349 133.295,234.572 C 133.433,234.796 134.717,234.533 136.148,233.989 C 137.579,233.445 140.100,232.759 141.750,232.465 Z M 203.500,206.579 C 204.738,206.289 206.956,205.786 208.431,205.462 L 211.112,204.873 L 210.795,202.486 C 210.451,199.888 207.216,188.914 205.494,184.500 C 204.904,182.988 204.196,180.993 203.921,180.069 C 203.180,177.574 195.894,163.279 193.310,159.250 C 186.720,148.976 183.148,144.836 177.666,141.113 C 171.928,137.216 168.090,136.000 161.530,136.000 C 157.415,136.000 156.944,136.093 157.094,136.875 C 157.186,137.356 158.751,138.875 160.571,140.250 C 168.608,146.320 173.410,151.499 178.887,160.000 C 180.570,162.613 182.634,165.816 183.473,167.120 C 184.313,168.423 185.000,169.785 185.000,170.147 C 185.000,170.508 185.675,171.869 186.500,173.169 C 187.325,174.470 188.000,175.721 188.000,175.948 C 188.000,176.323 189.439,179.685 192.033,185.370 C 192.565,186.535 193.000,187.784 193.000,188.145 C 193.000,188.505 193.192,189.014 193.427,189.275 C 193.985,189.896 196.737,198.790 197.745,203.231 C 198.544,206.753 199.138,207.628 200.500,207.292 C 200.912,207.190 202.262,206.869 203.500,206.579 Z M 249.175,157.875 C 250.729,155.606 253.238,152.436 254.750,150.829 C 256.263,149.222 257.500,147.724 257.500,147.499 C 257.500,147.275 256.656,147.490 255.625,147.977 C 254.283,148.612 252.399,148.883 249.000,148.929 C 244.724,148.988 242.193,148.621 236.415,147.105 C 232.288,146.022 222.202,138.793 216.796,133.042 C 215.396,131.553 213.548,129.621 212.690,128.749 C 208.609,124.601 207.872,121.979 207.724,111.095 C 207.660,106.335 207.487,102.321 207.341,102.174 C 206.402,101.236 202.021,114.444 201.638,119.366 C 201.422,122.142 201.564,123.535 202.249,125.366 C 203.342,128.287 207.251,133.699 210.155,136.312 C 212.722,138.620 226.161,147.833 233.750,152.484 C 235.125,153.327 238.500,155.813 241.250,158.008 C 244.000,160.203 246.272,161.999 246.299,162.000 C 246.327,162.000 247.620,160.144 249.175,157.875 Z M 248.231,122.061 C 251.685,120.438 252.714,120.643 255.453,123.500 C 256.772,124.875 257.978,126.000 258.134,126.000 C 258.861,126.000 260.500,122.446 260.500,120.871 C 260.500,118.456 259.240,117.107 255.999,116.055 C 253.736,115.319 252.482,115.231 248.905,115.555 C 239.365,116.420 236.045,121.066 241.095,126.486 L 242.139,127.608 L 244.056,125.365 C 245.110,124.132 246.989,122.645 248.231,122.061 Z M 234.250,111.501 C 235.505,110.106 240.881,107.373 244.501,106.289 C 246.245,105.767 248.760,105.497 251.382,105.551 C 255.979,105.646 258.014,106.450 262.923,110.111 C 264.393,111.207 265.777,111.912 265.999,111.677 C 266.221,111.442 266.770,109.796 267.218,108.019 C 270.018,96.924 270.264,69.382 267.617,63.399 C 266.700,61.326 263.974,58.000 263.191,58.000 C 263.002,58.000 261.085,59.017 258.930,60.260 C 253.130,63.606 248.989,64.948 244.359,64.982 C 241.294,65.005 240.928,64.151 242.806,61.363 C 246.115,56.450 246.329,55.233 243.799,55.708 C 238.061,56.784 228.058,64.997 222.741,72.997 C 219.004,78.619 215.000,86.218 215.000,87.687 C 215.000,88.049 214.571,88.733 214.048,89.207 C 213.208,89.967 212.641,92.249 212.424,95.750 C 212.332,97.229 214.018,101.400 216.268,105.258 C 218.564,109.197 221.727,112.865 225.175,115.591 L 227.603,117.510 L 230.426,115.061 C 231.979,113.714 233.700,112.112 234.250,111.501 Z M 141.978,537.055 C 136.734,536.652 133.278,535.250 132.200,533.087 C 131.405,531.493 131.798,520.275 132.990,510.500 C 133.510,506.238 134.193,500.050 134.508,496.750 C 134.823,493.450 135.638,486.137 136.321,480.500 C 138.563,461.974 138.520,462.133 140.893,463.609 C 146.223,466.923 154.335,469.336 164.186,470.537 C 168.888,471.110 177.411,470.934 179.875,470.213 C 181.374,469.774 181.336,470.349 179.488,475.957 C 178.656,478.481 177.661,481.717 177.277,483.148 C 176.893,484.579 175.798,488.337 174.844,491.500 C 173.890,494.663 173.000,497.812 172.866,498.500 C 172.733,499.188 172.254,501.473 171.801,503.578 C 170.862,507.953 170.638,507.311 175.840,515.178 C 180.075,521.583 183.130,528.044 183.387,531.139 C 183.592,533.613 183.496,533.931 182.247,534.913 C 181.498,535.502 180.067,536.222 179.067,536.513 C 176.853,537.156 148.663,537.568 141.978,537.055 Z M 254.714,536.963 C 249.589,536.463 247.295,535.024 245.210,531.000 C 244.407,529.451 244.298,527.787 244.262,516.500 C 244.225,504.911 244.075,502.748 242.621,492.750 C 241.742,486.700 240.778,479.950 240.480,477.750 C 240.182,475.550 239.701,472.663 239.410,471.335 C 238.790,468.505 239.283,467.581 240.939,468.468 C 242.352,469.224 257.655,470.167 263.250,469.843 C 267.763,469.582 272.743,468.681 278.141,467.151 C 280.347,466.526 281.171,466.471 281.616,466.916 C 282.040,467.340 282.208,472.545 282.225,485.848 L 282.250,504.195 L 288.369,508.223 C 294.711,512.396 307.571,520.066 311.500,522.017 C 317.532,525.012 320.500,528.343 320.500,532.116 C 320.500,534.721 319.819,535.664 317.380,536.434 C 315.483,537.034 260.217,537.500 254.714,536.963 Z M 162.250,461.997 C 151.495,460.069 146.006,458.218 141.628,455.039 C 139.964,453.830 139.020,452.492 137.253,448.836 C 136.014,446.271 135.000,443.586 135.000,442.868 C 135.000,441.198 136.325,435.466 137.262,433.084 C 138.128,430.883 140.186,423.915 141.773,417.811 C 142.408,415.370 143.139,413.161 143.398,412.902 C 143.892,412.408 145.026,412.587 153.500,414.493 C 156.113,415.080 159.262,415.747 160.500,415.976 C 161.738,416.204 165.000,416.875 167.750,417.467 C 170.500,418.060 174.550,418.775 176.750,419.057 C 189.635,420.707 193.746,421.150 198.159,421.361 C 203.395,421.611 204.078,421.985 202.995,424.009 C 202.462,425.005 200.065,433.147 198.507,439.250 C 195.474,451.136 191.465,457.533 185.322,460.290 C 179.120,463.073 171.430,463.642 162.250,461.997 Z M 252.000,462.213 C 247.121,461.662 242.988,460.755 240.640,459.719 C 237.412,458.296 233.436,454.663 230.987,450.900 C 228.989,447.829 229.039,448.129 228.234,434.500 C 228.079,431.887 227.717,428.224 227.429,426.360 C 227.140,424.495 227.015,422.681 227.151,422.328 C 227.333,421.854 229.271,421.660 234.574,421.584 C 238.521,421.528 242.537,421.343 243.500,421.173 C 245.894,420.751 248.620,419.298 249.381,418.038 C 249.728,417.464 250.246,414.014 250.533,410.372 C 250.819,406.730 251.397,399.812 251.819,395.000 C 252.240,390.188 252.709,384.281 252.862,381.875 C 253.014,379.469 253.332,377.500 253.569,377.500 C 253.806,377.500 254.000,377.556 254.000,377.625 C 254.000,377.694 254.432,381.238 254.960,385.500 C 255.488,389.762 256.175,395.725 256.488,398.750 C 257.514,408.665 258.512,415.072 259.253,416.506 C 259.723,417.414 260.540,418.039 261.548,418.261 C 264.618,418.935 272.541,417.541 282.748,414.531 C 288.111,412.950 287.998,412.894 288.010,417.125 C 288.016,419.119 288.364,423.900 288.784,427.750 C 290.236,441.073 290.262,443.441 288.997,447.038 C 287.196,452.158 285.705,454.734 283.339,456.817 C 280.784,459.067 279.997,459.471 275.250,460.975 C 272.290,461.914 270.361,462.110 262.750,462.248 C 257.800,462.337 252.963,462.322 252.000,462.213 Z M 50.000,304.434 C 47.663,304.206 44.850,303.799 43.750,303.531 C 42.650,303.263 40.175,302.674 38.250,302.221 C 36.325,301.769 34.188,301.110 33.500,300.757 C 32.812,300.405 31.365,299.696 30.284,299.183 C 29.203,298.670 26.933,296.900 25.240,295.250 C 22.355,292.438 22.091,291.984 21.021,288.000 C 19.978,284.116 19.907,283.083 20.196,276.000 C 20.569,266.860 20.947,261.201 21.293,259.580 C 21.479,258.706 21.759,258.500 22.396,258.766 C 27.158,260.755 29.831,261.506 39.250,263.500 C 51.651,266.126 58.631,265.000 64.813,259.374 C 67.870,256.592 70.775,251.702 74.764,242.625 C 75.519,240.906 76.300,239.500 76.499,239.500 C 77.320,239.500 77.476,247.802 76.996,266.000 C 76.717,276.587 76.291,287.401 76.049,290.030 C 75.352,297.602 72.994,301.768 68.250,303.810 C 65.930,304.809 56.969,305.115 50.000,304.434 Z M 41.035,256.214 C 37.382,255.548 35.196,254.977 28.250,252.875 C 19.981,250.372 17.871,247.946 19.478,242.785 C 19.741,241.941 20.614,239.113 21.419,236.500 C 23.794,228.789 26.714,224.587 32.027,221.233 C 34.544,219.644 38.694,219.594 47.740,221.042 C 66.291,224.012 77.015,226.904 76.990,228.929 C 76.984,229.381 75.536,230.698 73.771,231.857 C 70.153,234.234 68.699,236.325 66.714,242.007 C 63.694,250.650 61.013,254.854 57.616,256.274 C 55.408,257.196 46.240,257.164 41.035,256.214 Z" fill="#000000" fill-rule="evenodd" /></svg>