<svg xmlns="http://www.w3.org/2000/svg" viewBox="0 0 222 302" width="222" height="302"><path d="M 29.750,287.391 C 27.321,286.533 23.697,283.900 21.985,281.750 C 20.283,279.612 19.637,278.282 18.950,275.500 C 18.712,274.538 18.512,219.188 18.504,152.500 L 18.491,31.250 L 20.215,27.750 C 22.177,23.770 24.814,20.819 28.036,19.000 L 30.250,17.750 L 111.921,17.618 L 193.592,17.485 L 196.476,18.780 C 200.010,20.365 203.391,23.741 205.461,27.750 L 207.009,30.750 L 207.000,152.250 C 206.990,283.273 207.131,276.186 204.427,281.075 C 203.780,282.245 202.299,283.927 201.137,284.813 C 196.690,288.200 202.222,288.004 112.423,287.961 C 56.619,287.933 30.781,287.755 29.750,287.391 Z M 189.935,271.625 C 191.150,270.611 191.685,269.659 191.974,268.000 C 192.189,266.762 192.323,213.958 192.271,150.657 C 192.192,54.728 192.064,35.429 191.500,34.750 C 189.522,32.366 193.011,32.467 113.461,32.492 C 32.585,32.517 36.857,32.367 34.584,35.257 L 33.500,36.635 L 33.500,152.750 L 33.500,268.865 L 34.583,270.241 C 36.839,273.110 32.503,272.959 113.519,272.980 L 188.288,273.000 L 189.935,271.625 Z M 63.800,266.897 C 63.697,266.541 63.195,264.455 62.682,262.262 C 61.583,257.558 59.388,253.903 55.452,250.223 C 52.201,247.183 45.513,243.390 42.750,243.019 L 40.750,242.750 L 40.750,153.040 L 40.750,63.329 L 43.683,62.663 C 48.169,61.644 52.348,59.184 56.251,55.265 C 60.306,51.194 61.553,49.024 62.766,43.932 C 63.248,41.907 63.707,39.992 63.786,39.676 C 63.998,38.827 162.485,38.803 162.711,39.651 C 162.798,39.981 163.112,41.542 163.408,43.122 C 165.051,51.890 171.792,59.085 181.392,62.315 C 183.152,62.908 184.797,63.597 185.048,63.848 C 185.319,64.119 185.452,100.478 185.376,153.765 L 185.250,243.227 L 182.630,243.809 C 173.754,245.780 165.645,253.975 162.996,263.653 L 162.200,266.558 L 114.094,266.515 C 80.762,266.485 65.680,266.636 64.986,267.007 C 64.231,267.411 63.940,267.384 63.800,266.897 Z M 113.437,227.375 C 114.328,224.557 115.401,219.964 116.735,213.250 C 118.144,206.163 119.093,201.921 121.997,189.750 C 123.046,185.350 124.061,180.778 124.252,179.590 C 124.443,178.402 124.904,177.314 125.276,177.171 C 125.911,176.927 136.308,182.467 144.340,187.327 C 149.366,190.369 149.925,190.285 147.572,186.840 C 146.787,185.691 144.617,181.825 142.751,178.250 C 140.886,174.675 138.603,170.325 137.680,168.583 C 135.620,164.701 135.574,164.000 137.377,164.000 C 138.135,164.000 140.328,163.415 142.252,162.699 C 144.176,161.984 146.425,161.220 147.250,161.003 C 148.075,160.786 150.875,159.901 153.471,159.037 C 156.068,158.173 160.994,156.677 164.418,155.712 C 167.843,154.747 171.062,153.735 171.572,153.461 C 172.625,152.898 172.814,152.000 171.880,152.000 C 170.955,152.000 137.345,140.925 136.662,140.395 C 136.231,140.061 136.444,139.382 137.462,137.845 C 138.224,136.693 140.500,132.600 142.519,128.750 C 144.538,124.900 146.822,120.750 147.595,119.527 C 148.368,118.305 149.000,116.872 149.000,116.345 C 149.000,115.411 148.963,115.410 147.625,116.293 C 140.514,120.988 125.493,128.693 124.801,128.001 C 124.529,127.729 123.665,124.411 122.881,120.628 C 122.097,116.845 121.135,112.212 120.745,110.332 C 120.354,108.452 119.813,106.202 119.543,105.332 C 118.549,102.132 115.932,90.573 114.826,84.500 C 114.045,80.210 113.479,78.250 113.024,78.250 C 112.240,78.250 110.016,87.326 105.000,111.000 C 102.973,120.566 101.475,126.731 100.987,127.522 C 100.645,128.075 100.072,127.973 97.920,126.976 C 92.738,124.575 82.416,118.980 79.443,116.962 C 77.782,115.833 76.303,115.030 76.157,115.176 C 76.011,115.322 77.041,117.450 78.446,119.905 C 79.851,122.360 81.000,124.499 81.000,124.658 C 81.000,124.816 81.757,126.252 82.682,127.848 C 83.607,129.444 84.983,131.875 85.738,133.250 C 86.494,134.625 87.653,136.676 88.314,137.807 C 89.337,139.559 89.410,139.952 88.805,140.455 C 87.686,141.383 78.776,144.652 66.125,148.776 C 58.122,151.385 54.500,152.789 54.500,153.283 C 54.500,153.677 54.897,154.000 55.382,154.000 C 55.868,154.000 58.511,154.771 61.257,155.712 C 64.003,156.654 67.938,157.879 70.000,158.433 C 72.062,158.988 77.237,160.576 81.500,161.963 C 85.763,163.350 89.531,164.488 89.875,164.492 C 90.923,164.505 90.607,165.298 87.841,169.608 C 86.378,171.886 84.003,175.960 82.562,178.660 C 81.121,181.361 79.153,184.804 78.189,186.312 C 77.224,187.820 76.510,189.280 76.602,189.556 C 76.694,189.832 77.682,189.398 78.797,188.590 C 79.911,187.782 82.832,186.108 85.287,184.869 C 87.742,183.631 92.096,181.354 94.962,179.809 C 97.829,178.264 100.327,177.000 100.512,177.000 C 101.220,177.000 104.923,192.935 109.838,217.124 C 111.164,223.655 112.401,228.999 112.586,228.999 C 112.771,229.000 113.154,228.269 113.437,227.375 Z" fill="#000000" fill-rule="evenodd" /></svg>