<svg xmlns="http://www.w3.org/2000/svg" viewBox="0 0 473 447" width="473" height="447"><path d="M 44.782,429.552 C 44.392,428.920 48.138,419.103 51.766,411.250 C 52.402,409.875 53.517,407.418 54.244,405.790 C 54.972,404.162 56.790,400.713 58.284,398.125 C 59.778,395.538 61.000,393.312 61.000,393.180 C 61.000,392.625 67.198,383.989 69.864,380.830 C 75.746,373.858 81.267,367.620 85.644,363.000 C 92.498,355.765 113.548,333.955 124.493,322.750 C 129.865,317.250 138.297,308.475 143.232,303.250 C 148.167,298.025 153.589,292.400 155.280,290.750 C 156.972,289.100 160.349,285.613 162.785,283.000 C 165.221,280.387 173.078,272.175 180.246,264.750 C 187.413,257.325 195.169,249.225 197.480,246.750 C 199.792,244.275 203.393,240.562 205.482,238.500 C 209.780,234.259 220.914,222.750 227.967,215.260 C 230.561,212.504 239.449,203.277 247.717,194.755 C 255.985,186.233 264.901,177.008 267.529,174.255 C 270.158,171.502 279.045,162.264 287.279,153.725 C 295.513,145.186 305.263,134.949 308.946,130.975 C 312.628,127.001 319.052,120.263 323.221,116.000 C 330.690,108.363 338.000,100.048 338.000,99.188 C 338.000,98.440 333.937,94.384 329.913,91.115 C 323.731,86.093 314.464,80.599 305.330,76.541 L 301.910,75.022 L 305.290,70.636 C 312.000,61.931 318.033,55.000 318.900,55.000 C 319.382,55.000 320.969,56.512 322.440,58.375 C 328.203,65.672 337.601,75.435 366.836,104.500 C 399.209,136.684 403.706,141.034 410.309,146.549 C 412.614,148.475 414.500,150.326 414.500,150.663 C 414.500,151.840 408.552,157.413 403.250,161.204 C 396.360,166.130 394.887,167.064 394.342,166.852 C 393.802,166.643 392.058,163.373 388.954,156.750 C 386.342,151.175 371.757,131.128 370.250,131.040 C 369.715,131.009 340.403,160.007 262.481,237.653 C 111.577,388.023 111.230,388.366 98.500,399.548 C 95.035,402.591 87.952,408.139 85.000,410.123 C 84.312,410.584 82.400,411.901 80.750,413.048 C 76.674,415.882 62.631,423.095 56.364,425.573 C 53.551,426.685 50.062,428.136 48.610,428.798 C 45.713,430.117 45.195,430.219 44.782,429.552 Z M 105.325,369.140 C 110.045,364.663 148.864,326.579 172.739,303.002 C 196.084,279.949 323.781,152.310 336.506,139.311 L 345.745,129.871 L 343.248,127.668 C 339.710,124.546 338.817,124.431 336.531,126.808 C 327.707,135.985 284.483,180.261 270.639,194.303 C 267.003,197.991 261.828,203.421 259.139,206.369 C 256.450,209.318 253.912,212.096 253.500,212.543 C 253.088,212.990 247.125,219.072 240.250,226.059 C 233.375,233.046 224.492,242.247 220.511,246.506 C 216.529,250.765 211.804,255.725 210.011,257.528 C 208.217,259.331 204.399,263.269 201.526,266.278 C 198.653,269.288 193.584,274.562 190.262,278.000 C 178.078,290.608 158.550,311.158 152.249,318.000 C 150.349,320.062 145.523,325.231 141.523,329.485 C 137.523,333.739 132.450,339.136 130.250,341.478 C 128.050,343.820 122.662,349.452 118.276,353.993 C 113.891,358.535 107.912,364.725 104.990,367.750 C 102.068,370.775 99.484,373.576 99.248,373.973 C 98.576,375.108 101.408,372.855 105.325,369.140 Z M 425.689,428.543 C 424.006,427.760 421.801,426.847 420.791,426.513 C 417.778,425.519 400.524,416.569 396.750,414.042 C 384.769,406.022 378.939,401.414 370.250,393.094 C 357.982,381.348 245.000,268.777 245.001,268.300 C 245.002,267.998 247.432,265.338 250.403,262.390 L 255.803,257.030 L 258.515,259.390 C 260.006,260.688 270.343,270.750 281.485,281.750 C 316.071,315.894 329.834,329.446 341.750,341.095 C 348.075,347.279 357.937,356.930 363.667,362.544 C 369.396,368.157 374.346,372.837 374.667,372.944 C 374.987,373.050 374.777,372.600 374.199,371.944 C 373.621,371.287 372.496,369.967 371.699,369.009 C 369.508,366.378 364.494,360.996 357.249,353.500 C 353.660,349.788 347.470,343.262 343.492,339.000 C 339.515,334.738 334.343,329.225 331.999,326.750 C 329.655,324.275 326.061,320.450 324.013,318.250 C 313.015,306.440 294.520,287.036 285.000,277.322 C 280.188,272.412 274.792,266.787 273.010,264.822 C 271.228,262.857 267.798,259.260 265.386,256.827 L 261.002,252.405 L 262.029,251.100 C 263.720,248.950 271.504,241.000 271.917,241.000 C 272.292,241.000 297.904,267.059 307.785,277.494 C 310.516,280.378 316.692,286.790 321.510,291.744 C 326.328,296.697 336.104,306.825 343.234,314.250 C 363.381,335.230 379.094,351.564 386.759,359.497 C 393.765,366.746 403.271,377.592 407.578,383.250 C 411.111,387.891 414.963,394.445 419.922,404.250 C 424.095,412.501 426.684,418.400 429.467,426.000 C 430.990,430.158 430.243,430.661 425.689,428.543 Z M 237.500,425.141 C 232.065,423.112 223.152,418.425 216.000,413.834 C 206.686,407.857 188.966,394.548 186.250,391.490 C 185.700,390.871 183.423,388.833 181.190,386.962 C 174.583,381.424 155.500,359.772 155.500,357.812 C 155.500,357.052 166.091,346.500 166.854,346.500 C 167.177,346.500 168.514,347.906 169.825,349.625 C 178.084,360.456 194.192,377.017 204.187,384.954 C 210.076,389.630 221.458,397.577 225.747,400.007 C 226.711,400.553 228.238,401.418 229.140,401.930 C 230.043,402.441 232.434,403.715 234.454,404.761 L 238.127,406.662 L 241.189,405.070 C 242.872,404.195 245.375,402.803 246.750,401.978 C 248.125,401.153 249.588,400.329 250.000,400.149 C 252.346,399.120 266.696,389.093 272.250,384.601 C 283.018,375.892 298.067,360.580 305.397,350.875 C 307.280,348.381 309.067,346.500 309.552,346.500 C 310.507,346.500 320.500,357.221 320.500,358.245 C 320.500,359.979 310.200,371.915 300.047,381.946 C 291.249,390.639 283.790,397.070 275.765,402.881 C 273.007,404.879 269.400,407.492 267.750,408.689 C 263.738,411.600 258.178,415.007 251.500,418.646 C 249.988,419.470 248.525,420.317 248.250,420.529 C 247.657,420.985 238.596,425.518 238.391,425.461 C 238.314,425.439 237.912,425.295 237.500,425.141 Z M 237.726,396.368 C 237.334,395.347 237.715,276.618 238.111,276.222 C 238.756,275.578 241.492,278.122 257.750,294.481 C 266.550,303.336 280.219,317.017 288.125,324.883 C 296.031,332.750 302.500,339.468 302.500,339.813 C 302.500,341.408 287.706,358.408 279.928,365.750 C 267.618,377.371 261.176,382.599 250.086,389.966 C 238.682,397.543 238.261,397.761 237.726,396.368 Z M 342.366,300.572 C 339.415,297.586 337.000,294.809 337.000,294.402 C 337.000,293.994 337.426,291.993 337.947,289.955 C 338.468,287.917 339.483,283.550 340.204,280.250 C 340.924,276.950 341.960,272.337 342.506,270.000 C 344.635,260.875 345.840,254.105 347.267,243.250 C 348.771,231.813 348.798,231.472 350.451,202.000 C 350.675,198.012 350.895,187.550 350.941,178.750 L 351.024,162.750 L 358.742,155.022 C 362.987,150.771 366.589,147.422 366.746,147.579 C 366.903,147.737 367.031,160.102 367.030,175.058 C 367.027,209.928 366.247,224.533 362.974,251.000 C 361.643,261.759 358.675,276.009 355.683,286.000 C 353.810,292.252 349.969,303.177 349.450,303.725 C 349.202,303.986 349.000,304.605 349.000,305.100 C 349.000,306.847 347.676,305.943 342.366,300.572 Z M 126.065,303.375 C 125.185,301.295 121.856,290.954 119.990,284.500 C 114.965,267.128 110.939,240.861 109.755,217.728 C 109.601,214.715 109.366,211.070 109.233,209.628 C 108.886,205.855 108.926,147.907 109.276,147.557 C 109.631,147.203 122.946,160.646 124.274,162.699 C 125.139,164.035 125.218,165.435 125.285,180.699 C 125.408,208.586 126.472,227.320 128.953,245.250 C 129.219,247.175 129.585,249.988 129.765,251.500 C 130.037,253.778 131.354,260.130 134.015,272.000 C 134.745,275.255 136.831,282.722 138.531,288.160 L 140.221,293.569 L 134.150,299.535 C 130.811,302.816 127.828,305.500 127.522,305.500 C 127.215,305.500 126.560,304.544 126.065,303.375 Z M 138.825,252.121 C 138.529,251.642 137.304,243.376 136.769,238.250 C 134.988,221.164 134.074,206.678 133.757,190.500 C 133.592,182.113 133.344,174.519 133.206,173.625 C 133.018,172.412 133.142,172.000 133.693,172.000 C 134.100,172.000 138.329,175.887 143.091,180.638 C 151.222,188.750 168.258,205.461 187.918,224.609 C 192.638,229.207 196.500,233.244 196.500,233.581 C 196.500,233.917 194.300,236.456 191.610,239.221 C 188.921,241.987 185.065,246.050 183.041,248.250 L 179.362,252.250 L 159.235,252.414 C 147.419,252.511 138.991,252.390 138.825,252.121 Z M 296.750,252.040 C 295.346,251.452 278.871,235.133 279.079,234.536 C 279.435,233.517 341.595,171.500 342.260,171.500 C 342.874,171.500 342.121,206.020 341.268,217.005 C 340.373,228.536 340.442,227.893 338.681,241.326 L 337.295,251.902 L 335.738,252.155 C 333.079,252.587 297.807,252.483 296.750,252.040 Z M 177.153,201.397 C 162.906,187.315 141.048,165.603 128.580,153.147 C 116.111,140.691 105.720,130.500 105.489,130.500 C 104.408,130.500 95.016,142.581 91.496,148.500 C 88.190,154.057 88.083,154.253 84.790,160.710 C 83.118,163.988 81.525,166.739 81.250,166.823 C 79.916,167.233 62.351,153.393 61.733,151.445 C 61.316,150.131 63.661,147.596 69.000,143.591 C 74.038,139.812 141.838,71.984 148.777,63.780 C 157.733,53.192 156.675,54.172 158.130,55.125 C 158.822,55.579 161.945,59.167 165.071,63.100 C 172.566,72.529 173.500,73.806 173.500,74.623 C 173.500,75.160 164.370,80.000 163.356,80.000 C 163.231,80.000 161.018,81.161 158.439,82.579 C 151.306,86.504 145.692,90.460 141.009,94.863 L 136.768,98.851 L 138.219,100.753 C 139.017,101.800 142.950,106.075 146.960,110.255 C 150.969,114.435 158.390,122.218 163.450,127.552 C 168.510,132.886 175.710,140.426 179.450,144.307 C 189.801,155.049 199.000,164.863 202.362,168.750 C 204.026,170.675 207.232,174.050 209.485,176.250 C 217.447,184.025 230.500,198.060 230.500,198.848 C 230.500,199.286 228.108,201.966 225.184,204.802 L 219.869,209.959 L 212.568,202.355 C 201.893,191.235 197.161,186.376 188.469,177.603 C 180.679,169.741 154.808,143.189 142.935,130.870 L 136.620,124.318 L 133.310,126.952 C 131.489,128.401 130.000,129.787 130.000,130.032 C 130.000,130.277 147.678,148.201 169.285,169.864 C 190.891,191.526 209.818,210.656 211.345,212.374 L 214.120,215.498 L 212.714,217.374 C 210.925,219.761 203.951,227.000 203.441,227.000 C 203.229,227.000 191.400,215.479 177.153,201.397 Z M 237.518,151.875 C 237.525,130.906 237.714,113.456 237.937,113.096 C 238.249,112.597 239.863,113.205 244.797,115.681 C 248.346,117.461 253.838,120.073 257.000,121.483 C 260.163,122.894 263.200,124.252 263.750,124.502 C 267.089,126.016 273.932,128.370 281.994,130.777 C 287.077,132.295 291.444,133.744 291.697,133.997 C 291.978,134.278 291.261,135.492 289.862,137.104 C 285.179,142.504 274.672,153.516 273.092,154.682 C 272.193,155.345 270.961,156.499 270.354,157.246 C 266.394,162.120 238.768,190.000 237.899,190.000 C 237.682,190.000 237.511,172.844 237.518,151.875 Z M 169.535,120.441 C 165.940,116.789 163.167,113.654 163.374,113.475 C 163.581,113.295 164.875,112.863 166.250,112.515 C 172.998,110.810 186.922,106.625 190.750,105.152 C 191.850,104.729 195.000,103.646 197.750,102.745 C 202.040,101.339 207.106,99.342 214.500,96.141 C 218.686,94.329 228.201,89.428 233.150,86.535 L 238.521,83.396 L 241.635,85.388 C 247.870,89.375 257.974,94.642 267.125,98.674 C 268.156,99.128 269.731,99.821 270.625,100.214 C 274.620,101.969 286.042,105.946 291.500,107.482 C 292.738,107.831 294.312,108.312 295.000,108.552 C 297.002,109.249 309.117,112.594 310.625,112.866 C 311.459,113.016 312.003,113.435 312.008,113.932 C 312.012,114.382 309.270,117.413 305.914,120.668 L 299.813,126.586 L 297.532,126.251 C 294.851,125.858 291.151,124.777 282.250,121.786 C 266.921,116.635 257.430,112.823 246.655,107.490 L 237.559,102.988 L 229.405,107.190 C 221.101,111.469 215.986,113.786 211.250,115.415 C 210.425,115.699 207.613,116.760 205.000,117.774 C 198.638,120.242 185.072,124.713 180.817,125.744 C 178.930,126.201 177.090,126.689 176.728,126.827 C 176.348,126.974 173.324,124.289 169.535,120.441 Z M 86.940,101.349 C 82.919,97.170 78.307,92.179 76.690,90.258 C 75.073,88.337 72.042,84.962 69.953,82.758 C 64.858,77.379 51.989,62.164 48.592,57.504 C 47.088,55.439 45.056,52.906 44.077,51.875 L 42.297,50.000 L 38.076,50.000 C 34.283,50.000 33.488,49.824 30.239,48.261 C 26.013,46.228 23.963,44.101 21.825,39.532 C 16.514,28.183 23.161,15.070 35.500,12.557 C 42.774,11.075 52.535,15.969 55.685,22.679 C 57.175,25.850 58.158,30.448 57.720,32.193 C 57.139,34.506 57.901,35.832 61.373,38.545 C 74.887,49.111 114.500,85.909 114.500,87.897 C 114.500,88.310 113.661,89.683 112.636,90.949 C 109.748,94.513 95.406,109.003 94.795,108.974 C 94.495,108.960 90.960,105.528 86.940,101.349 Z M 373.176,101.395 C 366.089,94.473 361.000,88.887 361.000,88.032 C 361.000,86.834 374.014,73.794 385.731,63.250 C 404.165,46.663 410.736,41.066 416.724,36.852 C 417.906,36.020 418.000,35.666 418.000,32.067 C 418.000,27.210 418.945,23.965 421.373,20.490 C 423.896,16.878 427.382,14.334 431.655,12.986 C 436.104,11.582 439.480,11.854 443.709,13.959 C 448.569,16.378 451.401,19.153 453.430,23.485 C 455.048,26.942 455.190,27.619 455.167,31.750 C 455.146,35.441 454.917,36.745 453.896,39.000 C 452.305,42.513 448.703,46.503 445.920,47.835 C 441.852,49.782 440.952,50.000 436.984,50.000 L 433.015,50.000 L 430.720,52.875 C 429.459,54.456 428.286,56.087 428.115,56.500 C 427.744,57.393 423.309,62.746 420.037,66.250 C 418.752,67.625 416.026,70.775 413.979,73.250 C 411.931,75.725 408.672,79.438 406.735,81.500 C 404.799,83.562 401.337,87.388 399.041,90.000 C 393.825,95.936 382.627,107.397 381.404,108.051 C 380.633,108.464 379.340,107.418 373.176,101.395 Z" fill="#000000" fill-rule="evenodd" /></svg>