<svg xmlns="http://www.w3.org/2000/svg" viewBox="0 0 257 312" width="257" height="312"><path d="M 24.812,294.284 C 22.596,293.305 19.122,289.604 18.233,287.274 C 17.540,285.460 17.453,282.721 17.591,266.964 C 17.775,245.857 17.532,246.960 23.343,240.940 C 27.266,236.876 31.925,234.511 36.773,234.122 C 40.483,233.824 41.471,233.030 42.700,229.358 C 43.998,225.477 43.794,224.572 41.030,221.936 C 36.938,218.033 36.483,213.682 39.784,210.028 C 42.328,207.212 43.934,206.965 57.574,207.288 C 63.996,207.440 69.523,207.373 69.856,207.139 C 70.189,206.906 72.402,202.346 74.772,197.008 C 78.613,188.360 79.057,187.052 78.847,185.025 C 78.718,183.774 78.345,180.387 78.018,177.500 C 76.426,163.421 79.430,142.583 84.758,130.750 C 85.748,128.550 86.803,126.101 87.102,125.308 C 89.123,119.939 98.546,103.000 99.510,103.000 C 99.723,103.000 100.154,104.969 100.469,107.375 C 102.065,119.564 102.737,122.670 103.709,122.348 C 104.035,122.240 104.386,119.602 104.591,115.710 C 104.951,108.901 105.697,102.085 106.585,97.500 C 107.578,92.366 109.656,89.320 120.094,77.700 C 130.350,66.281 143.255,55.572 154.533,49.123 C 156.064,48.248 157.730,47.075 158.236,46.516 C 159.364,45.269 160.503,45.197 160.491,46.375 C 160.487,46.856 160.172,48.716 159.792,50.508 C 159.412,52.300 158.940,55.056 158.743,56.633 C 158.436,59.087 158.501,59.500 159.192,59.500 C 159.637,59.500 160.000,59.209 160.000,58.854 C 160.000,57.744 165.880,46.372 167.754,43.856 C 170.516,40.148 176.816,35.869 186.380,31.207 C 191.126,28.893 195.145,27.000 195.311,27.000 C 195.476,27.000 197.780,26.184 200.431,25.188 C 210.800,21.288 225.096,17.440 232.500,16.556 C 241.808,15.445 242.994,15.403 243.292,16.179 C 243.618,17.029 242.601,19.141 240.007,23.000 C 238.991,24.512 237.185,27.550 235.994,29.750 C 234.804,31.950 233.385,34.538 232.842,35.500 C 231.021,38.726 221.762,57.178 218.542,64.000 C 213.322,75.056 209.936,80.500 207.221,82.201 C 204.367,83.989 198.726,86.714 195.873,87.683 C 190.826,89.396 184.500,92.146 184.500,92.626 C 184.500,93.159 191.712,92.907 200.500,92.067 C 202.838,91.843 204.951,91.836 205.196,92.051 C 205.445,92.269 204.969,93.502 204.117,94.846 C 203.278,96.168 201.819,98.713 200.873,100.500 C 197.206,107.434 195.067,111.353 193.564,113.897 C 192.704,115.353 192.000,116.661 192.000,116.803 C 192.000,116.946 189.958,120.085 187.463,123.779 C 182.410,131.256 174.454,140.000 170.025,142.942 C 163.236,147.451 154.364,150.219 143.250,151.294 C 139.075,151.698 137.124,152.324 137.833,153.033 C 138.563,153.763 150.391,154.979 156.875,154.990 C 161.329,154.998 162.500,155.144 162.500,155.692 C 162.500,156.073 161.994,156.725 161.375,157.140 C 160.756,157.555 159.350,158.726 158.250,159.741 C 146.909,170.210 129.421,181.127 115.750,186.273 C 105.035,190.306 93.369,193.188 94.090,191.625 C 98.576,181.899 110.176,160.390 117.751,147.750 C 130.598,126.315 138.198,115.706 157.793,91.850 C 164.645,83.508 181.074,66.408 191.447,56.822 C 194.228,54.251 195.476,52.776 195.146,52.446 C 194.282,51.582 175.173,67.057 165.680,76.309 C 155.231,86.493 141.974,101.750 131.134,116.066 C 126.378,122.348 113.080,142.107 110.147,147.250 C 109.049,149.175 106.962,152.662 105.509,155.000 C 101.733,161.073 95.902,172.177 90.902,182.818 C 89.886,184.981 87.725,189.562 86.101,193.000 C 80.317,205.236 79.908,206.301 80.732,206.985 C 81.188,207.364 85.103,207.439 93.569,207.230 C 105.672,206.933 105.763,206.938 107.703,208.090 C 110.378,209.679 111.469,211.320 111.801,214.257 C 112.199,217.773 111.077,220.176 108.234,221.893 C 106.257,223.088 106.000,223.448 106.000,225.031 C 106.000,227.934 107.392,231.843 108.829,232.973 C 109.547,233.538 110.836,234.003 111.692,234.006 C 113.676,234.013 117.736,235.091 120.214,236.267 C 123.227,237.696 127.664,242.137 129.544,245.604 L 131.250,248.750 L 131.404,266.590 C 131.502,278.027 131.368,285.133 131.030,286.390 C 130.261,289.243 128.551,291.530 125.805,293.375 L 123.387,295.000 L 74.818,294.959 C 36.710,294.928 25.940,294.782 24.812,294.284 Z" fill="#000000" fill-rule="evenodd" /></svg>