<svg xmlns="http://www.w3.org/2000/svg" viewBox="0 0 338 348" width="338" height="348"><path d="M 54.858,333.265 C 48.800,331.940 41.245,326.693 37.448,321.174 C 35.494,318.335 33.258,312.902 32.739,309.733 C 32.515,308.367 32.390,296.438 32.461,283.224 C 32.567,263.606 32.468,259.105 31.920,258.693 C 31.552,258.415 30.026,257.889 28.531,257.524 C 14.998,254.217 9.478,240.842 18.192,232.473 C 20.027,230.710 28.575,225.000 29.379,225.000 C 29.553,225.000 30.274,224.446 30.981,223.768 C 33.071,221.766 42.585,216.024 44.750,215.458 C 49.257,214.280 50.398,213.885 53.625,212.380 C 55.481,211.515 57.000,210.639 57.000,210.435 C 57.000,209.645 50.615,206.999 48.000,206.706 C 44.684,206.334 41.091,207.451 36.818,210.185 C 33.872,212.069 32.504,212.446 32.494,211.375 C 32.491,211.031 32.490,184.313 32.494,152.000 C 32.498,110.564 32.658,93.197 33.037,93.071 C 33.332,92.973 34.401,93.557 35.412,94.369 C 39.661,97.783 44.379,99.206 48.987,98.463 C 52.126,97.958 55.500,96.728 55.500,96.089 C 55.500,94.641 51.965,92.276 47.436,90.694 C 42.576,88.996 39.659,87.463 33.756,83.508 C 31.003,81.663 26.950,79.074 24.750,77.755 C 19.218,74.436 16.738,72.333 15.128,69.594 C 13.965,67.616 13.755,66.704 13.782,63.750 C 13.816,59.927 14.659,57.746 16.923,55.614 C 20.194,52.534 25.749,51.614 29.845,53.473 C 32.807,54.818 33.238,54.168 32.719,49.128 C 32.185,43.937 32.172,42.840 32.597,38.777 C 33.553,29.631 39.730,20.940 47.945,17.182 C 51.229,15.680 56.114,14.375 57.640,14.592 L 58.750,14.750 L 59.000,35.608 L 59.250,56.466 L 61.983,59.233 C 63.627,60.898 65.148,62.000 65.800,62.000 L 66.884,62.000 L 66.964,38.394 C 67.009,25.411 67.131,14.702 67.237,14.596 C 67.399,14.434 201.939,14.326 239.814,14.458 L 251.879,14.500 L 252.401,15.875 C 252.688,16.631 253.407,18.825 254.000,20.750 C 255.890,26.889 258.693,30.261 264.377,33.234 C 266.739,34.468 269.254,35.040 275.547,35.771 L 277.845,36.038 L 278.460,40.394 C 279.191,45.565 279.711,47.516 281.133,50.411 C 282.509,53.213 286.960,57.309 290.926,59.421 C 294.297,61.217 296.309,61.340 300.750,60.025 C 308.904,57.610 314.132,58.298 318.205,62.325 C 321.879,65.956 322.914,72.917 320.495,77.726 C 318.792,81.113 317.059,82.622 307.412,89.128 C 302.825,92.220 295.963,97.120 292.162,100.016 C 284.156,106.116 279.281,109.000 276.973,109.000 C 275.096,109.000 270.500,112.213 270.500,113.525 C 270.500,113.976 270.974,114.774 271.554,115.298 C 272.450,116.106 273.282,116.233 277.080,116.134 C 281.279,116.025 281.785,115.891 285.400,113.927 C 287.518,112.777 291.210,110.523 293.606,108.918 C 296.002,107.313 298.252,106.000 298.606,106.000 C 299.127,106.000 299.231,113.991 299.151,147.866 C 299.085,175.835 298.883,189.789 298.542,189.903 C 298.261,189.996 295.493,188.397 292.391,186.349 C 284.854,181.374 284.038,181.000 280.722,181.000 C 278.113,181.000 273.820,182.528 272.321,183.989 C 271.730,184.566 278.054,188.531 279.068,188.220 C 280.221,187.866 282.339,188.894 285.279,191.236 C 286.669,192.344 290.211,194.920 293.148,196.962 L 298.488,200.674 L 298.182,203.284 L 297.875,205.894 L 303.062,209.446 C 313.399,216.525 314.709,217.494 317.016,219.765 C 321.835,224.512 323.313,230.792 320.868,236.132 C 319.484,239.157 317.731,240.636 313.856,242.053 C 311.180,243.031 306.062,243.333 305.225,242.563 C 304.530,241.923 298.241,240.000 296.845,240.000 C 293.759,240.000 288.664,242.471 285.168,245.664 C 281.062,249.414 278.974,254.595 278.381,262.500 C 278.256,264.172 278.161,264.253 276.250,264.323 C 267.739,264.635 263.062,266.375 259.172,270.678 C 256.361,273.788 254.618,277.420 253.513,282.470 L 252.686,286.250 L 159.968,286.250 L 67.250,286.250 L 67.120,264.375 C 67.048,252.344 66.802,242.500 66.572,242.500 C 66.343,242.500 65.727,242.973 65.203,243.552 C 64.680,244.130 63.238,245.188 62.001,245.903 C 60.763,246.617 59.585,247.438 59.383,247.726 C 59.181,248.014 59.012,256.854 59.008,267.370 L 59.000,286.490 L 55.694,288.102 C 51.698,290.050 48.457,293.216 46.625,296.962 C 43.215,303.931 46.238,313.811 53.114,318.169 C 54.564,319.088 56.515,320.101 57.450,320.420 C 59.394,321.084 283.503,321.287 283.497,320.625 C 283.495,320.419 282.932,318.597 282.247,316.577 C 281.561,314.557 281.000,312.162 281.000,311.256 C 281.000,310.214 280.709,309.495 280.210,309.304 C 279.775,309.137 232.943,309.005 176.138,309.011 C 83.027,309.020 72.738,308.943 71.656,308.234 C 69.095,306.557 69.160,302.434 71.785,299.967 L 73.081,298.750 L 177.032,298.621 L 280.983,298.493 L 281.260,297.121 C 281.412,296.367 281.978,293.885 282.518,291.607 C 283.058,289.328 283.500,287.251 283.500,286.991 C 283.500,286.713 278.925,286.464 272.375,286.385 L 261.250,286.250 L 261.276,283.969 C 261.324,279.640 264.485,275.164 268.889,273.185 C 271.213,272.142 272.277,272.000 277.797,272.000 C 283.810,272.000 285.723,271.631 286.621,270.300 C 286.825,269.998 286.969,266.825 286.941,263.250 C 286.883,255.735 287.637,253.197 290.670,250.697 C 292.677,249.042 296.191,247.843 298.319,248.086 L 299.750,248.250 L 299.809,260.500 C 299.842,267.238 299.718,275.196 299.535,278.185 C 299.202,283.612 299.199,283.623 297.441,285.185 C 296.473,286.046 295.298,286.975 294.832,287.250 C 294.365,287.525 293.303,289.762 292.472,292.222 C 290.670,297.555 290.145,303.600 290.907,310.256 C 291.614,316.428 292.493,318.720 294.968,320.838 C 298.502,323.864 299.406,327.189 297.683,330.821 C 296.047,334.268 306.281,334.005 175.900,333.949 C 82.630,333.908 57.141,333.764 54.858,333.265 Z M 224.692,263.385 C 225.948,263.010 227.756,261.793 229.332,260.260 C 233.531,256.178 233.591,255.760 233.406,231.891 L 233.250,211.750 L 231.750,209.536 C 230.841,208.195 229.364,206.871 228.000,206.176 L 225.750,205.028 L 198.938,205.014 C 169.346,204.999 169.347,204.998 166.122,208.124 C 165.225,208.994 164.240,210.503 163.934,211.478 C 163.585,212.589 163.287,220.549 163.134,232.830 C 162.914,250.429 162.977,252.672 163.750,255.001 C 165.163,259.255 167.880,261.760 172.750,263.301 C 175.582,264.196 221.724,264.272 224.692,263.385 Z M 44.271,248.760 C 48.372,247.217 53.873,244.387 57.566,241.922 C 61.906,239.025 64.632,235.132 65.474,230.626 C 66.014,227.732 65.752,227.220 64.236,228.213 C 63.591,228.636 62.206,229.458 61.157,230.040 C 60.108,230.622 58.125,231.939 56.750,232.966 C 53.537,235.366 43.919,240.747 40.563,242.022 C 38.178,242.928 37.846,242.946 36.483,242.241 C 34.948,241.448 34.720,240.661 34.974,237.055 C 35.127,234.900 34.122,233.000 32.831,233.000 C 31.737,233.000 27.198,235.424 24.624,237.383 C 20.995,240.145 21.997,244.903 26.724,247.362 C 32.378,250.302 38.812,250.815 44.271,248.760 Z M 311.887,233.998 C 315.499,231.796 315.068,227.817 310.871,224.613 C 309.430,223.513 307.537,221.968 306.666,221.181 C 300.921,215.989 289.521,207.000 288.680,207.000 C 288.479,207.000 287.794,207.489 287.157,208.087 C 285.366,209.770 285.638,211.745 288.015,214.324 C 289.713,216.166 289.946,216.666 289.497,217.505 C 288.814,218.781 288.506,218.761 285.127,217.215 C 279.323,214.560 272.515,209.297 266.551,202.853 C 264.367,200.493 261.437,198.671 260.629,199.170 C 260.058,199.523 261.153,207.949 261.964,209.447 C 263.395,212.090 267.072,215.359 273.319,219.543 C 280.946,224.652 283.788,225.780 287.828,225.305 C 290.961,224.937 292.165,224.423 294.085,222.633 L 295.421,221.389 L 297.519,223.070 C 300.134,225.164 300.549,226.230 299.693,228.658 C 299.113,230.305 299.126,230.727 299.785,231.733 C 300.205,232.374 301.157,233.116 301.899,233.382 C 305.557,234.691 306.397,234.897 308.250,234.945 C 309.448,234.976 310.907,234.596 311.887,233.998 Z M 53.927,227.815 C 55.755,226.889 58.938,225.291 61.000,224.264 C 66.544,221.503 74.121,217.429 79.500,214.316 C 84.084,211.664 84.245,211.511 84.110,209.936 C 83.936,207.912 81.786,205.000 80.465,205.000 C 79.923,205.000 78.641,205.528 77.615,206.174 C 76.589,206.819 72.347,209.070 68.188,211.175 C 58.894,215.878 51.934,219.684 49.125,221.599 C 47.368,222.797 47.000,223.325 47.002,224.649 C 47.004,226.591 48.679,229.500 49.795,229.500 C 50.240,229.500 52.099,228.742 53.927,227.815 Z M 89.250,225.589 C 92.837,224.196 103.207,218.612 105.026,217.092 C 107.572,214.967 109.936,210.263 110.324,206.551 C 110.553,204.357 110.476,203.500 110.051,203.500 C 108.704,203.500 105.079,205.819 102.260,208.483 C 100.605,210.048 98.463,211.789 97.500,212.352 C 90.569,216.408 85.294,219.000 83.973,219.000 C 82.520,219.000 75.000,222.530 75.000,223.212 C 75.000,224.115 77.993,225.663 81.000,226.317 C 84.010,226.970 86.186,226.778 89.250,225.589 Z M 70.583,203.558 C 72.417,202.289 75.273,200.294 76.931,199.125 C 78.589,197.956 81.477,196.198 83.348,195.218 C 85.219,194.239 87.650,192.892 88.750,192.227 C 89.850,191.561 91.484,191.013 92.380,191.008 C 94.083,191.000 97.751,189.513 100.153,187.858 C 101.519,186.917 101.533,186.864 100.653,185.875 C 98.379,183.317 93.792,182.408 89.106,183.588 C 84.435,184.765 73.593,191.024 69.712,194.785 C 67.518,196.911 66.927,197.887 66.048,200.839 C 64.640,205.566 64.656,206.675 66.125,206.217 C 66.744,206.024 68.750,204.827 70.583,203.558 Z M 100.951,202.840 C 103.040,201.653 106.100,200.035 107.750,199.247 C 109.400,198.458 112.100,197.017 113.750,196.045 C 117.962,193.563 118.851,193.065 124.028,190.294 C 130.407,186.880 130.989,185.357 127.566,181.028 C 126.628,179.843 126.536,179.828 124.425,180.524 C 123.229,180.919 120.338,182.384 118.000,183.780 C 115.662,185.177 112.175,187.186 110.250,188.246 C 108.325,189.306 106.019,190.584 105.125,191.087 C 104.231,191.589 102.769,192.411 101.875,192.913 C 100.981,193.416 98.730,194.673 96.872,195.708 C 93.238,197.732 91.902,199.134 92.370,200.432 C 93.033,202.270 95.310,204.979 96.201,204.989 C 96.724,204.995 98.861,204.028 100.951,202.840 Z M 62.974,199.836 C 67.365,190.119 67.102,193.298 66.916,152.186 L 66.750,115.697 L 64.892,111.973 C 62.518,107.216 60.927,105.229 59.830,105.650 C 59.065,105.944 59.000,109.647 59.000,153.077 L 59.000,200.186 L 60.073,201.327 C 61.377,202.716 61.763,202.517 62.974,199.836 Z M 136.609,200.492 C 143.078,197.085 149.467,193.046 151.344,191.174 C 152.496,190.027 153.982,187.999 154.645,186.669 C 156.115,183.721 157.202,179.502 156.637,178.937 C 155.897,178.197 148.748,182.292 146.500,184.743 C 143.559,187.950 133.208,193.653 128.906,194.436 C 125.606,195.038 120.000,197.708 120.000,198.678 C 120.000,199.352 122.024,200.538 124.750,201.461 C 125.575,201.741 128.050,201.917 130.250,201.852 C 133.390,201.760 134.757,201.467 136.609,200.492 Z M 277.250,201.075 C 278.075,200.569 279.027,199.405 279.365,198.490 C 279.959,196.880 279.912,196.762 277.964,194.908 C 276.856,193.854 273.992,191.636 271.599,189.980 C 264.006,184.722 259.244,181.322 255.950,178.805 C 252.668,176.297 249.373,174.530 247.942,174.511 C 246.508,174.491 244.500,176.476 244.502,177.911 C 244.506,180.868 246.200,182.352 264.500,195.431 C 270.014,199.372 274.192,202.000 274.939,201.998 C 275.385,201.997 276.425,201.582 277.250,201.075 Z M 182.361,192.746 C 182.415,186.821 182.361,186.459 181.334,185.879 C 179.666,184.937 176.417,184.016 174.733,184.008 L 173.216,184.000 L 173.336,191.375 C 173.402,195.431 173.466,198.806 173.478,198.875 C 173.490,198.944 175.481,199.000 177.902,199.000 L 182.304,199.000 L 182.361,192.746 Z M 222.982,191.625 C 222.954,179.787 221.400,174.997 215.778,169.414 C 209.688,163.368 204.275,160.924 196.750,160.823 C 191.841,160.757 191.686,160.790 188.250,162.671 C 183.534,165.251 182.984,165.808 184.544,166.422 C 187.124,167.436 189.928,167.961 194.240,168.237 C 199.877,168.597 202.138,169.203 204.877,171.087 C 208.316,173.454 210.529,175.941 211.848,178.924 C 212.866,181.225 213.153,182.991 213.558,189.427 C 213.826,193.682 213.937,197.442 213.807,197.783 C 213.401,198.840 214.027,199.000 218.583,199.000 L 223.000,199.000 L 222.982,191.625 Z M 248.888,195.237 C 250.301,194.817 251.614,194.220 251.805,193.910 C 252.009,193.582 250.924,192.242 249.202,190.693 C 246.923,188.644 245.874,188.035 244.600,188.019 C 242.554,187.995 240.827,187.115 235.829,183.548 C 229.813,179.255 228.780,178.560 228.375,178.529 C 227.734,178.480 227.964,183.946 228.674,185.641 C 229.712,188.117 231.627,190.117 235.362,192.622 C 240.475,196.053 243.906,196.716 248.888,195.237 Z M 114.305,180.694 C 115.375,179.975 117.714,177.981 119.504,176.263 C 121.294,174.545 123.994,172.518 125.504,171.758 C 127.014,170.998 129.713,169.532 131.500,168.500 C 133.705,167.227 136.116,166.350 139.000,165.772 C 143.434,164.884 147.000,163.277 147.000,162.168 C 147.000,161.367 143.534,159.555 140.427,158.733 C 137.289,157.902 133.613,158.600 129.608,160.785 C 127.880,161.728 126.170,162.500 125.809,162.500 C 124.848,162.500 116.527,167.807 114.582,169.661 C 111.659,172.447 110.268,176.339 110.843,180.125 C 111.180,182.346 111.715,182.434 114.305,180.694 Z M 199.210,179.356 C 203.457,178.232 203.457,176.689 199.212,174.201 C 197.284,173.071 196.496,172.949 190.422,172.831 C 183.409,172.695 179.511,171.913 175.991,169.935 C 174.158,168.904 174.148,168.904 172.201,169.880 C 171.128,170.418 169.631,171.007 168.875,171.189 C 166.970,171.646 167.175,172.484 169.640,174.324 C 173.954,177.544 178.296,179.403 183.000,180.047 C 186.734,180.557 196.192,180.154 199.210,179.356 Z M 146.500,177.742 C 151.708,175.023 157.083,172.376 159.750,171.218 C 165.193,168.855 171.656,165.426 173.125,164.122 C 173.606,163.695 174.000,162.670 174.000,161.845 C 174.000,160.034 171.819,157.000 170.516,157.000 C 169.351,157.000 138.838,172.474 137.604,173.690 C 137.108,174.180 137.086,174.664 137.511,175.788 C 138.211,177.639 140.445,180.006 141.469,179.980 C 141.898,179.969 144.162,178.962 146.500,177.742 Z M 263.339,172.487 C 263.001,168.113 262.384,166.716 259.391,163.551 C 257.313,161.353 249.142,155.600 245.124,153.506 C 239.731,150.695 229.500,151.653 229.500,154.969 C 229.500,156.517 234.121,159.038 237.422,159.289 C 239.632,159.457 240.771,159.894 242.976,161.422 C 244.502,162.480 247.572,164.609 249.799,166.153 C 252.210,167.825 254.739,170.117 256.049,171.817 C 258.940,175.567 261.865,177.734 262.890,176.884 C 263.476,176.398 263.570,175.481 263.339,172.487 Z M 234.392,171.720 C 236.101,170.523 237.142,168.199 236.503,167.006 C 236.021,166.105 230.475,162.000 229.741,162.000 C 228.977,162.000 218.907,154.744 215.548,151.774 C 213.511,149.973 211.670,148.500 211.457,148.500 C 210.834,148.500 209.190,151.091 208.539,153.101 C 207.745,155.548 208.236,156.351 211.830,158.479 C 217.711,161.961 222.127,165.137 225.460,168.281 C 227.336,170.052 229.294,171.503 229.811,171.508 C 230.327,171.512 231.088,171.733 231.500,172.000 C 232.544,172.674 233.106,172.620 234.392,171.720 Z M 161.125,156.233 C 164.068,154.074 164.201,152.867 161.625,151.690 C 160.594,151.218 159.351,150.493 158.863,150.078 C 157.551,148.961 156.742,150.060 156.787,152.901 C 156.835,155.983 157.370,158.003 158.135,157.988 C 158.473,157.981 159.819,157.191 161.125,156.233 Z M 219.500,149.528 C 219.500,147.466 217.532,145.264 216.096,145.720 C 214.531,146.216 214.735,147.195 216.827,149.226 C 219.048,151.383 219.500,151.434 219.500,149.528 Z M 173.225,148.828 C 175.397,145.979 174.936,144.957 169.966,141.614 C 168.710,140.769 166.235,139.349 164.466,138.459 C 162.697,137.568 160.350,136.230 159.250,135.484 C 156.604,133.691 144.674,127.480 142.895,126.970 C 141.103,126.456 138.830,128.234 137.978,130.818 C 137.229,133.086 137.429,133.290 143.250,136.215 C 145.725,137.458 148.650,139.004 149.750,139.650 C 150.850,140.296 153.438,141.734 155.500,142.847 C 157.562,143.960 160.835,145.757 162.773,146.841 C 166.815,149.102 169.874,150.437 171.100,150.474 C 171.567,150.488 172.523,149.748 173.225,148.828 Z M 204.735,148.000 C 205.706,147.450 207.231,146.585 208.125,146.078 C 209.019,145.570 212.363,143.545 215.557,141.578 C 218.751,139.610 221.518,138.000 221.706,138.000 C 221.895,138.000 223.404,137.100 225.060,136.000 C 226.716,134.900 228.245,134.000 228.458,134.000 C 228.671,134.000 229.252,133.550 229.750,133.000 C 230.248,132.450 230.860,132.000 231.111,132.000 C 231.362,132.000 232.359,131.396 233.327,130.657 C 234.851,129.495 235.047,129.110 234.785,127.800 C 234.439,126.070 232.194,123.499 231.031,123.502 C 230.021,123.505 226.994,125.077 220.613,128.912 C 217.788,130.611 215.362,132.000 215.221,132.000 C 214.651,132.000 204.520,138.303 201.375,140.614 C 197.321,143.593 197.050,144.736 199.786,147.316 C 201.865,149.277 202.360,149.345 204.735,148.000 Z M 142.050,147.431 C 144.174,146.720 147.000,144.657 147.000,143.817 C 147.000,142.913 143.943,141.579 139.936,140.737 C 133.827,139.451 124.135,134.193 120.016,129.928 C 117.617,127.444 113.229,124.500 111.926,124.500 C 111.197,124.500 111.459,128.757 112.361,131.568 C 113.646,135.572 116.469,138.041 125.257,142.849 C 129.378,145.103 133.312,147.170 134.000,147.442 C 135.722,148.123 140.000,148.117 142.050,147.431 Z M 237.582,144.326 C 240.429,143.469 253.000,135.786 256.106,133.004 C 259.119,130.306 260.477,127.471 260.842,123.118 C 261.174,119.155 260.496,118.322 258.328,120.028 C 257.648,120.563 256.936,121.000 256.746,121.000 C 256.183,121.000 252.189,125.174 251.850,126.116 C 251.286,127.682 237.738,136.000 235.752,136.000 C 235.288,136.000 232.904,137.035 230.454,138.301 C 225.075,141.079 224.814,141.850 228.625,143.693 C 231.586,145.126 234.288,145.317 237.582,144.326 Z M 177.672,136.235 C 183.091,134.504 189.247,134.121 194.140,135.209 L 197.947,136.057 L 200.599,134.755 C 204.678,132.751 205.830,131.750 205.085,130.852 C 203.949,129.483 199.589,127.998 193.804,127.009 C 185.303,125.556 178.684,126.478 171.984,130.049 C 169.250,131.506 166.485,133.703 166.515,134.395 C 166.534,134.837 171.979,137.403 173.000,137.452 C 173.412,137.471 175.515,136.924 177.672,136.235 Z M 155.911,124.961 C 156.276,118.806 153.499,115.179 144.858,110.524 C 143.424,109.751 140.225,107.967 137.750,106.560 C 133.876,104.358 132.876,104.002 130.558,104.001 C 126.875,104.000 124.362,104.844 121.979,106.884 C 120.374,108.258 120.083,108.748 120.544,109.303 C 120.862,109.687 121.688,110.000 122.378,110.000 C 123.069,110.000 124.504,110.225 125.567,110.500 C 126.630,110.775 128.344,111.219 129.375,111.487 C 130.406,111.755 134.041,113.555 137.452,115.487 C 140.863,117.419 143.867,119.000 144.126,119.000 C 144.385,119.000 146.094,120.422 147.924,122.159 C 152.014,126.044 154.591,128.039 155.250,127.830 C 155.525,127.743 155.822,126.452 155.911,124.961 Z M 127.976,124.620 C 128.634,124.087 129.167,122.952 129.328,121.745 C 129.726,118.744 129.987,118.940 114.750,110.830 C 100.954,103.488 97.829,102.022 95.952,102.011 C 93.857,101.998 92.659,103.081 92.194,105.407 C 91.784,107.453 92.419,108.193 96.220,110.106 C 97.887,110.945 102.400,113.446 106.250,115.664 C 116.990,121.852 124.115,125.475 125.570,125.488 C 126.295,125.495 127.378,125.104 127.976,124.620 Z M 221.500,121.960 C 222.463,120.976 223.866,119.480 224.620,118.636 C 226.848,116.140 236.675,110.237 242.361,107.979 C 248.544,105.525 251.000,104.168 251.000,103.209 C 251.000,102.828 249.882,101.951 248.517,101.258 C 244.770,99.360 240.217,99.478 235.955,101.583 C 231.961,103.556 220.609,111.013 219.210,112.583 C 217.471,114.533 216.000,118.861 216.000,122.025 C 216.000,123.891 216.222,124.993 216.625,125.131 C 217.442,125.411 219.323,124.188 221.500,121.960 Z M 100.000,121.593 C 101.237,120.831 102.250,119.887 102.250,119.495 C 102.250,118.002 95.047,115.000 91.466,115.000 C 89.522,115.000 75.895,107.068 74.696,105.238 C 74.281,104.604 73.211,103.740 72.318,103.316 C 71.425,102.892 69.837,101.864 68.788,101.030 C 67.739,100.197 66.654,99.655 66.378,99.826 C 65.809,100.177 66.155,104.219 67.004,107.134 C 67.305,108.171 68.359,109.826 69.346,110.812 C 72.519,113.985 85.047,121.607 89.473,123.057 C 90.175,123.287 92.325,123.364 94.250,123.227 C 96.908,123.038 98.291,122.645 100.000,121.593 Z M 246.851,121.385 C 248.614,120.610 258.822,114.477 262.598,111.925 C 264.164,110.866 265.579,110.000 265.742,110.000 C 266.524,110.000 275.011,103.882 276.217,102.448 C 277.889,100.461 277.693,98.358 275.669,96.579 C 273.593,94.754 271.715,95.485 263.000,101.509 C 261.762,102.364 257.375,105.263 253.250,107.951 C 249.125,110.640 245.321,113.325 244.798,113.919 C 244.274,114.514 243.558,115.000 243.206,115.000 C 241.417,115.000 242.149,119.847 244.150,121.248 C 245.433,122.148 245.150,122.133 246.851,121.385 Z M 110.398,99.027 C 110.213,95.820 109.916,94.673 108.860,93.076 C 107.516,91.045 104.536,88.006 103.885,88.002 C 103.684,88.001 101.793,86.840 99.682,85.423 C 97.572,84.005 94.099,81.980 91.964,80.923 C 88.432,79.173 87.731,79.002 84.166,79.027 C 78.032,79.070 73.769,81.165 75.522,83.276 C 76.354,84.278 79.540,85.723 82.020,86.223 C 82.971,86.415 87.170,88.263 91.350,90.330 C 97.008,93.127 99.756,94.816 102.100,96.937 C 106.765,101.158 109.143,103.000 109.928,103.000 C 110.489,103.000 110.583,102.209 110.398,99.027 Z M 82.558,99.942 C 84.057,98.443 83.608,95.292 81.662,93.668 C 79.979,92.262 75.588,89.564 70.697,86.928 C 68.743,85.875 65.900,84.265 64.379,83.349 C 59.207,80.234 53.244,77.438 51.187,77.162 C 49.434,76.927 49.017,77.056 48.318,78.055 C 47.868,78.697 47.500,80.182 47.500,81.354 C 47.500,83.438 47.564,83.520 50.375,85.017 C 51.956,85.859 53.925,87.009 54.750,87.573 C 55.575,88.137 59.850,90.628 64.250,93.109 C 79.294,101.590 80.470,102.030 82.558,99.942 Z M 265.635,93.463 C 267.623,91.517 270.150,89.060 271.250,88.003 C 273.742,85.607 282.179,80.086 283.940,79.698 C 288.006,78.804 293.500,75.990 293.500,74.801 C 293.500,73.893 289.369,72.202 286.174,71.801 C 284.370,71.575 282.875,71.724 281.186,72.298 C 276.879,73.760 264.598,81.661 261.848,84.740 C 260.452,86.303 259.631,88.480 259.236,91.666 C 258.830,94.945 259.546,97.000 261.095,97.000 C 261.604,97.000 263.647,95.408 265.635,93.463 Z M 291.507,91.666 C 293.016,90.657 295.189,89.069 296.337,88.137 C 297.485,87.205 301.263,84.449 304.732,82.012 C 311.780,77.064 312.986,75.812 313.355,73.064 C 314.188,66.854 305.446,64.020 300.655,68.947 C 298.957,70.693 298.912,70.839 299.221,73.587 L 299.541,76.424 L 297.146,78.054 C 292.926,80.926 285.758,86.337 285.062,87.175 C 284.138,88.289 284.724,90.301 286.487,92.064 C 287.277,92.854 288.112,93.500 288.343,93.500 C 288.574,93.500 289.998,92.675 291.507,91.666 Z M 65.038,76.150 C 65.727,74.338 64.857,70.805 63.050,68.075 C 61.107,65.140 58.909,63.588 50.000,58.859 C 47.938,57.764 45.688,56.474 45.000,55.993 C 43.370,54.852 39.340,53.500 37.570,53.500 C 36.762,53.500 35.721,53.982 35.099,54.645 C 34.172,55.631 34.091,56.037 34.514,57.570 C 35.111,59.731 36.121,60.672 38.750,61.514 C 40.836,62.182 46.701,65.175 48.000,66.233 C 48.413,66.570 50.100,67.593 51.750,68.508 C 55.200,70.420 57.766,72.297 61.104,75.348 C 62.398,76.532 63.697,77.500 63.991,77.500 C 64.285,77.500 64.756,76.892 65.038,76.150 Z M 34.798,72.713 C 35.208,71.731 35.412,70.510 35.250,70.000 C 35.088,69.490 33.470,67.683 31.653,65.984 C 26.125,60.813 23.759,59.877 22.205,62.248 C 20.587,64.718 22.279,68.045 26.250,70.200 C 27.075,70.648 28.843,71.799 30.180,72.757 C 31.516,73.716 32.934,74.500 33.330,74.500 C 33.727,74.500 34.387,73.696 34.798,72.713 Z M 293.556,51.655 C 291.566,50.660 288.743,47.873 287.575,45.750 C 286.927,44.572 286.745,42.802 286.727,37.500 C 286.715,33.788 286.540,30.272 286.339,29.688 C 285.994,28.689 285.544,28.609 278.861,28.360 C 274.950,28.214 270.850,27.797 269.750,27.433 C 266.561,26.377 263.256,22.711 262.089,18.936 C 261.406,16.723 261.260,15.559 261.614,15.125 C 262.416,14.140 294.536,14.235 296.457,15.228 C 299.386,16.742 299.527,17.740 299.382,35.840 L 299.250,52.250 L 297.250,52.376 C 296.126,52.447 294.508,52.131 293.556,51.655 Z M 195.453,249.103 C 193.914,247.728 193.885,247.618 193.620,242.009 C 193.359,236.515 193.290,236.234 191.695,234.144 C 188.003,229.307 189.179,223.946 194.527,221.236 C 197.429,219.766 199.521,219.691 202.308,220.957 C 207.720,223.414 209.113,229.876 205.232,234.521 C 203.528,236.562 203.500,236.669 203.500,241.265 C 203.500,243.833 203.284,246.503 203.020,247.197 C 201.687,250.703 198.220,251.576 195.453,249.103 Z" fill="#000000" fill-rule="evenodd" /></svg>