<svg xmlns="http://www.w3.org/2000/svg" viewBox="0 0 381 380" width="381" height="380"><path d="M 178.250,366.205 C 171.218,365.782 162.982,364.565 151.750,362.288 C 141.414,360.192 125.384,354.591 114.500,349.272 C 107.125,345.667 96.613,339.146 88.014,332.841 C 66.328,316.939 50.370,298.855 36.753,274.750 C 34.067,269.994 29.000,259.258 29.000,258.322 C 29.000,257.980 28.800,257.486 28.555,257.225 C 27.910,256.536 23.559,244.010 21.095,235.750 C 19.850,231.573 18.601,225.563 17.979,220.750 C 17.730,218.825 17.167,214.662 16.727,211.500 C 16.156,207.396 15.910,201.457 15.864,190.750 C 15.800,175.473 16.027,172.322 18.071,160.070 C 18.987,154.576 19.814,151.191 23.524,137.750 C 24.056,135.825 24.924,133.463 25.455,132.500 C 25.985,131.537 26.899,129.512 27.486,128.000 C 28.072,126.487 29.819,122.459 31.369,119.049 L 34.186,112.848 L 32.968,111.881 C 31.820,110.969 22.706,105.703 16.379,102.296 C 14.800,101.446 13.506,100.472 13.504,100.132 C 13.502,99.792 14.231,99.199 15.125,98.815 C 16.019,98.431 18.492,97.291 20.621,96.283 C 22.751,95.274 25.901,93.918 27.621,93.269 C 30.587,92.151 37.742,89.096 42.370,86.973 C 43.535,86.438 44.583,86.000 44.698,86.000 C 44.813,86.000 47.122,84.965 49.829,83.700 C 54.290,81.614 61.980,78.282 66.500,76.476 C 67.463,76.092 69.915,74.916 71.950,73.864 C 74.454,72.569 75.814,72.114 76.158,72.458 C 76.665,72.965 76.136,86.308 75.007,101.500 C 74.232,111.938 72.500,138.632 72.500,140.146 C 72.500,140.891 72.331,141.498 72.125,141.496 C 71.593,141.489 55.386,127.999 54.597,126.905 C 54.237,126.407 53.771,126.000 53.561,126.000 C 52.565,126.000 45.462,145.109 43.742,152.413 C 43.310,154.249 42.641,157.100 42.256,158.750 C 41.341,162.669 40.596,167.367 39.721,174.750 C 38.748,182.949 38.761,203.233 39.744,209.787 C 40.878,217.348 42.299,224.396 43.415,228.000 C 43.969,229.787 44.998,233.162 45.702,235.500 C 46.405,237.838 47.690,241.662 48.558,244.000 C 49.425,246.338 50.474,249.222 50.888,250.410 C 52.515,255.074 59.123,267.232 64.142,274.795 C 79.207,297.499 100.037,316.041 122.750,326.969 C 126.325,328.689 130.600,330.748 132.250,331.546 C 142.259,336.384 157.772,340.733 171.500,342.550 C 175.964,343.141 198.090,343.281 202.927,342.748 C 207.762,342.216 216.157,340.987 218.250,340.505 C 225.286,338.883 227.341,338.316 232.500,336.569 C 243.330,332.903 252.179,329.069 260.250,324.546 C 264.259,322.300 274.826,315.306 278.947,312.171 C 281.250,310.419 282.000,310.141 282.000,311.039 C 282.000,311.666 286.122,316.780 291.930,323.361 C 294.169,325.897 295.996,328.147 295.991,328.361 C 295.980,328.875 286.413,336.055 282.683,338.349 C 272.872,344.381 270.202,345.901 265.250,348.271 C 256.216,352.595 252.240,354.188 241.250,357.886 C 231.914,361.027 225.385,362.619 215.250,364.225 C 212.500,364.661 209.012,365.233 207.500,365.497 C 204.612,366.001 183.398,366.514 178.250,366.205 Z M 215.500,316.258 C 206.395,312.766 195.822,308.947 188.500,306.506 C 178.571,303.196 174.372,301.640 170.373,299.792 C 168.240,298.806 166.166,298.000 165.762,298.000 C 165.359,298.000 163.760,297.439 162.209,296.753 C 160.658,296.067 158.007,295.068 156.319,294.533 C 153.298,293.574 145.127,290.697 139.250,288.521 C 137.600,287.910 133.887,286.553 131.000,285.506 C 128.113,284.458 123.838,282.885 121.500,282.010 C 119.162,281.134 113.875,279.182 109.750,277.671 C 105.625,276.160 100.112,274.133 97.500,273.167 C 94.888,272.200 91.712,271.093 90.444,270.706 C 87.116,269.690 85.500,268.268 85.500,266.354 C 85.500,264.245 87.790,257.692 90.250,252.760 C 92.502,248.244 92.340,248.313 97.861,249.516 C 99.572,249.889 101.095,250.071 101.245,249.921 C 101.396,249.771 102.435,246.971 103.556,243.699 C 105.639,237.615 107.211,233.792 109.085,230.250 C 109.667,229.150 110.438,227.688 110.798,227.000 C 111.159,226.312 113.000,223.500 114.890,220.750 C 118.371,215.685 124.021,210.148 131.448,204.524 C 134.208,202.434 144.142,197.000 145.202,197.000 C 145.948,197.000 157.889,191.084 158.218,190.552 C 158.405,190.248 159.064,190.000 159.682,190.000 C 161.241,190.000 165.105,187.451 166.684,185.380 C 168.667,182.781 168.470,180.126 165.786,173.262 C 164.569,170.148 162.562,165.609 161.328,163.175 C 155.158,151.014 150.993,135.905 150.998,125.706 C 151.000,121.169 151.824,113.750 152.770,109.750 C 153.292,107.547 156.202,98.784 157.753,94.750 C 159.824,89.361 159.857,89.000 158.283,89.000 C 156.025,89.000 154.197,87.685 153.044,85.231 L 151.958,82.921 L 153.414,79.586 C 154.215,77.751 155.136,75.125 155.460,73.750 C 156.688,68.556 158.236,66.500 160.918,66.500 C 161.992,66.500 180.811,72.922 184.250,74.462 C 185.625,75.078 189.225,76.480 192.250,77.578 C 195.275,78.676 199.887,80.360 202.500,81.320 C 205.113,82.280 211.412,84.418 216.500,86.070 C 221.588,87.722 228.338,90.094 231.500,91.342 C 234.662,92.589 238.537,94.024 240.110,94.529 C 241.683,95.035 243.455,95.709 244.049,96.026 C 244.642,96.343 248.867,97.913 253.438,99.514 C 264.064,103.234 274.529,107.205 277.844,108.773 C 279.270,109.448 280.646,110.000 280.902,110.000 C 282.310,110.000 290.991,113.267 292.375,114.317 C 294.422,115.871 294.485,117.460 292.690,122.252 C 291.970,124.176 291.019,127.190 290.576,128.950 C 289.209,134.393 286.764,135.931 282.096,134.284 C 280.548,133.738 279.960,133.708 279.617,134.159 C 278.975,135.003 277.000,139.396 277.000,139.979 C 277.000,140.912 272.796,150.266 270.810,153.750 C 267.823,158.994 261.507,166.943 257.044,171.079 C 250.751,176.911 238.089,184.295 226.369,188.969 C 219.223,191.819 213.093,195.323 211.941,197.216 C 209.712,200.882 210.264,204.702 214.115,212.250 C 215.238,214.450 216.719,217.375 217.406,218.750 C 218.093,220.125 218.929,221.588 219.264,222.000 C 219.863,222.740 221.649,227.419 223.548,233.222 C 225.284,238.527 227.012,246.470 227.286,250.405 C 227.434,252.520 227.638,255.375 227.740,256.750 C 228.297,264.226 224.654,282.834 221.760,287.295 C 221.387,287.870 220.825,289.293 220.511,290.458 C 219.852,292.905 220.241,293.658 222.710,294.720 C 223.557,295.084 224.784,295.893 225.436,296.517 C 226.452,297.490 226.582,297.981 226.345,299.951 C 225.994,302.868 222.903,311.979 221.487,314.271 C 219.774,317.043 218.580,317.440 215.500,316.258 Z M 208.988,288.022 C 209.814,286.479 213.848,272.689 214.845,268.000 C 216.090,262.146 216.100,250.055 214.863,245.554 C 213.044,238.935 209.758,230.481 205.902,222.500 C 200.462,211.239 198.895,206.449 198.860,200.977 C 198.838,197.421 199.047,196.237 200.109,193.917 C 203.242,187.075 208.275,183.739 229.038,174.747 C 241.030,169.554 251.311,161.476 257.353,152.500 C 259.526,149.272 264.500,139.784 264.500,138.866 C 264.500,138.439 265.175,136.663 266.000,134.920 C 267.634,131.465 267.857,129.919 266.842,129.077 C 266.481,128.777 264.174,127.873 261.717,127.069 C 259.260,126.265 256.462,125.262 255.500,124.841 C 252.422,123.493 238.322,118.100 236.250,117.478 C 235.150,117.148 231.325,115.760 227.750,114.394 C 224.175,113.028 219.450,111.234 217.250,110.408 C 215.050,109.581 212.800,108.710 212.250,108.471 C 211.700,108.233 208.920,107.241 206.073,106.268 C 203.225,105.294 200.188,104.185 199.323,103.803 C 198.458,103.421 196.192,102.507 194.288,101.771 C 191.100,100.540 189.226,99.908 180.000,96.952 C 178.213,96.379 176.300,95.729 175.750,95.506 C 172.398,94.148 171.405,93.896 171.010,94.303 C 170.508,94.818 167.743,101.681 166.700,105.000 C 163.503,115.165 162.844,118.681 162.852,125.500 C 162.865,135.552 164.613,142.164 170.698,155.171 C 171.964,157.878 173.000,160.301 173.000,160.557 C 173.000,160.812 173.561,161.869 174.247,162.905 C 175.786,165.232 179.177,173.852 179.917,177.320 C 180.897,181.911 179.549,188.901 177.009,192.409 C 175.423,194.598 170.257,198.450 167.500,199.500 C 166.537,199.867 160.832,202.595 154.821,205.564 C 138.259,213.744 130.875,219.111 125.013,227.231 C 121.256,232.436 119.099,236.423 116.752,242.500 C 115.744,245.113 114.374,248.600 113.708,250.250 C 113.042,251.900 112.498,253.427 112.499,253.643 C 112.501,254.256 120.575,257.517 129.000,260.306 C 130.238,260.715 131.700,261.242 132.250,261.476 C 132.800,261.711 134.488,262.352 136.000,262.902 C 137.512,263.452 141.113,264.809 144.000,265.918 C 146.887,267.026 151.780,268.853 154.871,269.976 C 157.963,271.100 163.026,272.940 166.121,274.066 C 169.217,275.191 173.550,276.735 175.750,277.497 C 182.615,279.873 183.179,280.071 186.000,281.098 C 187.512,281.649 191.787,283.245 195.500,284.644 C 203.855,287.795 207.073,288.920 207.857,288.965 C 208.191,288.984 208.700,288.560 208.988,288.022 Z M 301.171,305.125 C 301.348,302.169 301.716,297.387 301.989,294.500 C 302.262,291.613 302.819,284.863 303.226,279.500 C 303.634,274.137 304.222,266.825 304.533,263.250 C 304.844,259.675 305.358,253.378 305.674,249.257 C 306.131,243.309 306.405,241.734 307.000,241.620 C 307.413,241.541 311.192,244.631 315.399,248.488 C 319.606,252.345 323.407,255.500 323.844,255.500 C 324.708,255.500 325.959,254.121 325.984,253.140 C 325.993,252.804 326.543,251.342 327.206,249.890 C 332.629,238.026 336.963,222.306 338.550,208.750 C 339.413,201.380 339.426,181.745 338.573,174.500 C 337.297,163.665 334.832,153.020 331.267,142.947 C 330.256,140.089 329.116,136.847 328.734,135.744 C 328.353,134.640 327.173,131.940 326.112,129.744 C 325.051,127.547 323.871,124.963 323.490,124.000 C 322.612,121.780 319.141,115.144 317.999,113.500 C 317.521,112.812 316.626,111.237 316.010,110.000 C 313.172,104.301 302.327,90.653 295.636,84.359 C 281.791,71.337 276.981,67.557 264.119,59.598 C 260.323,57.249 252.047,53.000 251.268,53.000 C 251.086,53.000 249.545,52.347 247.843,51.549 C 241.768,48.698 227.761,43.743 223.000,42.759 C 222.037,42.560 220.463,42.222 219.500,42.009 C 207.259,39.292 203.008,38.842 189.250,38.804 C 177.497,38.773 173.188,39.084 165.000,40.555 C 153.541,42.614 141.248,46.152 133.612,49.588 C 131.887,50.365 130.234,51.000 129.940,51.000 C 129.646,51.000 128.245,51.630 126.827,52.400 C 125.410,53.171 123.463,54.105 122.500,54.476 C 118.217,56.129 108.296,62.197 101.180,67.516 C 99.325,68.902 97.540,69.972 97.212,69.893 C 96.885,69.814 94.093,66.600 91.010,62.750 C 87.926,58.900 84.742,55.113 83.934,54.333 L 82.465,52.917 L 84.608,50.979 C 85.786,49.913 86.914,49.032 87.115,49.021 C 87.316,49.009 88.666,48.101 90.115,47.002 C 91.564,45.903 92.945,45.003 93.183,45.002 C 93.421,45.001 94.659,44.246 95.933,43.324 C 101.778,39.095 113.139,33.009 120.500,30.163 C 122.287,29.472 124.987,28.385 126.500,27.746 C 128.987,26.697 139.467,23.319 146.500,21.300 C 150.818,20.061 161.928,17.955 172.250,16.419 C 179.028,15.411 201.177,15.582 208.250,16.697 C 211.275,17.173 215.325,17.785 217.250,18.055 C 219.175,18.325 221.762,18.852 223.000,19.226 C 224.238,19.600 226.713,20.167 228.500,20.486 C 234.361,21.533 250.076,26.517 254.463,28.721 C 255.721,29.353 257.312,30.036 258.000,30.238 C 261.284,31.202 275.528,38.831 282.004,43.093 C 300.919,55.543 313.692,67.348 326.500,84.220 C 330.617,89.644 335.534,96.806 336.758,99.162 C 337.355,100.311 338.955,103.162 340.315,105.500 C 341.675,107.838 343.208,110.650 343.722,111.750 C 344.236,112.850 345.727,116.008 347.036,118.768 C 348.345,121.527 349.863,125.015 350.410,126.518 C 350.956,128.020 351.975,130.825 352.674,132.750 C 354.122,136.741 357.582,148.895 358.438,153.000 C 361.827,169.260 362.230,173.281 362.241,191.000 C 362.251,207.916 362.104,209.531 358.991,226.750 C 358.310,230.518 353.814,246.206 352.113,250.750 C 351.290,252.950 349.938,256.212 349.110,258.000 C 345.607,265.561 344.335,269.127 344.849,269.947 C 345.322,270.701 352.345,274.867 361.125,279.603 C 363.256,280.752 365.000,281.938 365.000,282.238 C 365.000,282.912 363.003,284.117 359.732,285.416 C 358.367,285.959 355.562,287.181 353.500,288.133 C 351.438,289.085 347.725,290.661 345.250,291.635 C 342.775,292.610 337.938,294.681 334.500,296.238 C 331.062,297.795 327.350,299.477 326.250,299.976 C 313.766,305.636 302.360,310.500 301.574,310.500 C 300.967,310.500 300.902,309.629 301.171,305.125 Z M 198.000,278.170 C 193.115,276.263 187.941,274.336 181.000,271.838 C 173.718,269.217 167.378,266.865 165.250,265.995 C 162.940,265.050 153.487,261.698 146.000,259.169 C 142.287,257.915 139.025,256.714 138.750,256.499 C 138.475,256.285 135.887,255.320 133.000,254.355 C 125.546,251.866 123.500,250.982 123.500,250.251 C 123.500,249.118 127.756,243.786 130.596,241.359 C 135.598,237.086 143.823,233.305 157.000,229.222 C 164.967,226.754 168.843,225.245 170.930,223.799 C 173.492,222.023 178.423,220.314 179.177,220.940 C 179.497,221.205 180.071,222.508 180.452,223.836 C 181.247,226.603 185.396,234.335 191.138,243.750 C 195.864,251.500 198.503,256.990 200.755,263.758 C 202.128,267.881 202.451,269.688 202.586,273.992 C 202.778,280.118 202.842,280.060 198.000,278.170 Z M 179.521,213.423 C 179.009,212.280 178.721,211.005 178.881,210.589 C 179.246,209.637 182.076,207.034 182.768,207.015 C 183.428,206.996 186.500,210.966 186.500,211.838 C 186.500,212.706 182.610,215.500 181.401,215.500 C 180.770,215.500 180.139,214.803 179.521,213.423 Z M 185.057,201.209 C 183.380,199.077 183.229,197.928 184.492,196.906 C 185.107,196.408 186.006,196.000 186.488,196.000 C 187.606,196.000 190.000,197.864 190.000,198.734 C 190.000,199.302 186.831,202.500 186.269,202.500 C 186.161,202.500 185.616,201.919 185.057,201.209 Z M 188.191,193.731 C 187.521,192.707 187.413,191.680 187.637,188.422 C 188.248,179.499 186.811,172.757 182.360,163.661 C 181.172,161.235 179.842,158.350 179.404,157.250 C 178.965,156.150 178.046,154.012 177.361,152.500 C 173.775,144.586 173.423,143.587 171.217,135.072 C 170.551,132.500 170.128,130.198 170.276,129.958 C 170.669,129.321 176.196,129.947 180.250,131.087 C 188.538,133.417 191.341,134.718 196.750,138.744 C 203.280,143.605 209.503,147.565 213.283,149.266 C 222.499,153.412 229.243,155.000 237.638,155.000 C 242.274,155.000 243.538,155.143 243.412,155.654 C 243.128,156.800 237.727,161.323 234.179,163.387 C 230.300,165.643 223.971,168.889 220.250,170.530 C 204.873,177.314 196.760,182.900 193.741,188.783 C 191.674,192.810 190.232,194.992 189.637,194.996 C 189.299,194.998 188.649,194.429 188.191,193.731 Z" fill="#000000" fill-rule="evenodd" /></svg>