<svg xmlns="http://www.w3.org/2000/svg" viewBox="0 0 269 415" width="269" height="415"><path d="M 121.592,391.466 C 118.755,389.560 116.314,388.000 116.169,388.000 C 115.583,388.000 103.911,377.917 98.806,373.000 C 93.925,368.299 84.358,357.989 77.119,349.627 C 75.671,347.955 73.233,344.824 71.700,342.669 C 70.167,340.513 68.401,338.223 67.775,337.580 L 66.637,336.410 L 65.608,338.080 C 65.042,338.998 64.094,340.984 63.501,342.491 C 62.908,343.999 61.918,346.362 61.300,347.741 C 60.682,349.121 59.890,351.038 59.538,352.000 C 58.658,354.409 58.264,355.379 57.050,358.120 C 56.472,359.423 56.000,360.598 56.000,360.732 C 56.000,360.866 55.325,362.443 54.500,364.237 C 53.675,366.032 52.325,368.968 51.500,370.763 C 50.675,372.557 50.000,374.131 50.000,374.260 C 50.000,374.390 49.231,376.160 48.292,378.194 L 46.584,381.892 L 43.563,382.243 C 38.464,382.834 26.945,381.624 26.200,380.419 C 26.025,380.136 26.122,379.420 26.416,378.827 C 26.709,378.235 27.277,376.738 27.678,375.500 C 28.078,374.262 29.552,370.840 30.953,367.895 C 32.353,364.949 33.966,361.349 34.538,359.895 C 35.109,358.440 36.208,355.900 36.980,354.250 C 37.752,352.600 38.721,350.462 39.133,349.500 C 39.546,348.538 40.360,346.684 40.942,345.380 C 41.524,344.077 42.000,342.823 42.000,342.594 C 42.000,342.365 42.675,340.784 43.500,339.081 C 44.325,337.378 45.000,335.869 45.000,335.728 C 45.000,335.587 45.767,333.847 46.704,331.861 C 47.641,329.875 48.992,326.803 49.706,325.035 C 50.419,323.266 51.392,321.241 51.868,320.535 C 53.397,318.264 54.000,316.912 54.000,315.760 C 54.000,314.226 52.132,309.717 50.412,307.100 C 49.636,305.917 49.000,304.788 49.000,304.590 C 49.000,304.393 47.875,301.921 46.500,299.098 C 45.125,296.276 44.000,293.752 44.000,293.491 C 44.000,293.230 43.317,291.606 42.482,289.883 C 41.648,288.160 40.653,285.738 40.272,284.500 C 39.468,281.889 37.125,275.210 36.501,273.750 C 36.106,272.825 35.687,271.466 33.034,262.500 C 32.505,260.712 31.502,257.337 30.806,255.000 C 29.400,250.278 27.934,244.178 24.497,228.750 C 23.642,224.913 22.923,221.014 21.477,212.375 C 21.189,210.656 20.747,208.125 20.493,206.750 C 19.027,198.806 17.312,184.019 16.753,174.500 C 15.608,155.019 14.896,55.302 15.878,52.000 C 16.756,49.050 18.111,47.568 20.216,47.255 C 21.335,47.089 23.262,46.756 24.500,46.515 C 25.738,46.273 28.212,45.812 30.000,45.491 C 31.788,45.169 35.163,44.483 37.500,43.966 C 39.837,43.449 44.337,42.558 47.500,41.985 C 55.934,40.457 60.333,39.487 75.000,35.922 C 80.223,34.652 95.755,30.276 99.500,29.019 C 101.013,28.512 103.825,27.608 105.750,27.012 C 108.914,26.032 115.876,23.411 119.750,21.741 C 120.575,21.386 123.036,20.434 125.219,19.626 C 129.689,17.972 129.973,18.005 136.620,20.950 C 137.923,21.528 139.220,22.000 139.501,22.000 C 139.783,22.000 140.404,22.208 140.882,22.463 C 143.226,23.714 157.374,28.833 161.750,30.013 C 162.575,30.235 164.825,30.903 166.750,31.496 C 168.675,32.089 171.938,33.023 174.000,33.572 C 176.062,34.120 178.425,34.761 179.250,34.995 C 180.075,35.229 182.156,35.776 183.875,36.210 C 185.594,36.645 188.406,37.359 190.125,37.797 C 191.844,38.236 194.262,38.797 195.500,39.044 C 196.738,39.292 198.762,39.733 200.000,40.026 C 201.238,40.318 203.375,40.758 204.750,41.004 C 206.125,41.249 208.375,41.673 209.750,41.945 C 211.125,42.218 214.162,42.790 216.500,43.218 C 218.838,43.645 221.650,44.206 222.750,44.464 C 223.850,44.722 226.213,45.184 228.000,45.490 C 239.885,47.524 240.350,47.678 241.290,49.896 C 242.625,53.044 242.969,62.497 242.992,96.750 C 243.030,152.365 242.158,171.388 237.998,205.750 C 236.239,220.280 229.638,250.944 226.481,259.250 C 226.272,259.800 225.609,261.938 225.007,264.000 C 223.178,270.268 219.929,280.688 219.472,281.750 C 219.236,282.300 218.265,284.802 217.316,287.310 C 216.366,289.818 214.916,293.193 214.094,294.810 C 213.271,296.427 212.201,298.650 211.716,299.750 C 211.231,300.850 209.600,304.290 208.092,307.394 C 204.644,314.491 204.325,316.771 206.248,320.563 C 206.998,322.041 208.394,325.275 209.352,327.750 C 210.309,330.225 211.987,334.163 213.081,336.500 C 215.339,341.329 215.620,341.978 216.650,344.750 C 217.059,345.850 218.003,348.100 218.748,349.750 C 219.494,351.400 220.305,353.256 220.552,353.875 C 220.798,354.494 221.217,355.506 221.483,356.125 C 221.748,356.744 222.757,359.163 223.724,361.500 C 224.691,363.837 226.949,368.671 228.741,372.242 C 230.534,375.812 232.000,379.199 232.000,379.766 C 232.000,381.479 229.476,381.984 220.632,382.041 C 216.189,382.069 212.309,381.941 212.009,381.756 C 211.292,381.312 204.293,366.721 200.478,357.716 C 199.321,354.985 197.921,351.738 197.368,350.500 C 196.814,349.262 195.826,346.830 195.173,345.093 C 193.725,341.246 191.697,337.181 191.017,336.760 C 190.741,336.590 189.780,337.510 188.882,338.805 C 180.687,350.627 174.795,357.681 164.719,367.735 C 155.700,376.733 150.473,381.415 144.250,386.072 C 130.010,396.725 129.573,396.830 121.592,391.466 Z M 130.351,378.391 C 131.894,377.719 137.435,373.764 141.110,370.711 C 142.408,369.632 144.433,367.993 145.610,367.067 C 158.207,357.161 178.179,333.146 187.663,316.500 C 192.795,307.493 201.067,290.746 202.795,285.864 C 203.163,284.827 203.784,283.252 204.176,282.364 C 206.328,277.495 210.743,265.359 213.416,256.970 C 214.864,252.426 219.277,234.876 220.450,229.000 C 221.465,223.911 223.007,215.773 223.528,212.750 C 223.813,211.100 224.255,208.625 224.511,207.250 C 226.182,198.255 227.314,187.114 226.625,186.425 C 225.862,185.662 222.973,186.281 220.959,187.638 C 219.146,188.860 218.821,190.084 217.542,200.500 C 217.222,203.113 216.761,206.262 216.518,207.500 C 216.275,208.738 215.819,211.213 215.504,213.000 C 215.190,214.787 214.735,217.150 214.492,218.250 C 214.250,219.350 213.786,221.825 213.462,223.750 C 212.322,230.521 207.240,250.331 204.483,258.750 C 203.672,261.225 202.766,264.038 202.469,265.000 C 201.382,268.519 196.207,282.179 194.986,284.750 C 194.464,285.850 192.453,290.071 190.518,294.131 C 188.583,298.190 187.000,301.598 187.000,301.705 C 187.000,301.811 186.062,303.440 184.916,305.324 C 183.771,307.208 182.155,309.988 181.326,311.500 C 179.977,313.961 176.571,319.235 171.500,326.715 C 169.035,330.350 161.051,340.891 160.614,341.087 C 160.414,341.177 159.239,342.488 158.003,344.000 C 154.151,348.715 150.511,352.345 142.750,359.209 C 134.377,366.615 130.089,369.995 129.061,369.998 C 128.348,370.000 123.384,366.783 120.750,364.611 C 116.564,361.160 110.341,355.170 105.812,350.232 C 96.179,339.730 94.539,337.859 93.163,335.809 C 92.403,334.677 90.966,332.738 89.971,331.500 C 86.405,327.067 77.061,312.787 75.977,310.113 C 75.723,309.488 74.771,307.801 73.861,306.363 C 71.629,302.839 63.289,285.869 62.256,282.750 C 61.800,281.375 61.083,279.462 60.663,278.500 C 60.242,277.538 59.725,276.300 59.514,275.750 C 59.303,275.200 58.674,273.625 58.116,272.250 C 57.558,270.875 56.857,268.850 56.558,267.750 C 55.916,265.387 54.451,260.841 53.094,257.000 C 52.126,254.258 50.678,249.553 48.322,241.500 C 47.121,237.392 45.653,230.972 44.491,224.750 C 44.183,223.100 43.722,220.936 43.466,219.942 C 43.210,218.948 43.000,217.443 43.000,216.600 C 43.000,215.756 42.794,214.522 42.541,213.859 C 42.289,213.195 41.595,208.961 40.998,204.451 C 39.039,189.636 39.063,189.747 37.548,188.296 C 36.566,187.355 35.420,186.884 33.583,186.667 L 31.000,186.361 L 31.000,188.592 C 31.000,190.697 31.846,197.029 33.024,203.750 C 33.313,205.400 33.749,207.988 33.991,209.500 C 35.176,216.881 37.224,226.874 39.012,234.000 C 39.254,234.963 39.676,236.762 39.951,238.000 C 41.455,244.778 44.982,256.881 48.256,266.500 C 51.950,277.351 53.610,281.701 57.895,291.750 C 58.912,294.134 64.501,305.215 66.469,308.750 C 67.235,310.125 68.605,312.600 69.515,314.250 C 73.220,320.976 80.708,332.136 87.474,341.018 C 96.594,352.990 109.965,366.169 121.500,374.554 C 128.317,379.510 128.048,379.394 130.351,378.391 Z M 134.750,326.055 C 135.850,325.547 137.312,324.519 138.000,323.769 C 139.229,322.430 139.248,322.283 139.120,315.078 C 139.049,311.048 138.778,305.275 138.518,302.250 C 137.209,287.015 137.418,264.658 138.930,258.250 C 141.844,245.895 143.065,238.526 142.954,233.946 C 142.904,231.846 143.022,229.868 143.218,229.552 C 143.583,228.961 150.466,224.134 155.449,220.974 C 156.989,219.996 160.838,217.290 164.000,214.958 C 167.162,212.627 170.988,209.948 172.500,209.006 C 174.012,208.064 176.600,206.325 178.250,205.143 C 179.900,203.960 187.415,198.888 194.950,193.872 C 202.485,188.855 209.010,184.506 209.450,184.209 C 216.620,179.356 218.485,178.446 224.167,177.021 C 227.377,176.216 230.227,175.419 230.501,175.249 C 230.776,175.080 231.000,173.950 231.000,172.738 C 231.000,170.041 230.432,169.664 225.698,169.218 C 217.337,168.429 213.074,165.736 202.667,154.667 C 198.804,150.559 193.763,145.887 190.000,142.929 C 181.945,136.596 181.623,136.363 179.250,135.150 C 178.150,134.587 176.039,133.506 174.560,132.747 C 168.713,129.747 158.866,127.236 150.750,126.674 C 148.275,126.503 145.969,126.141 145.625,125.870 C 145.191,125.528 145.000,123.647 145.000,119.706 C 145.000,114.579 144.906,113.985 144.017,113.509 C 142.731,112.821 136.708,112.426 134.589,112.890 L 132.928,113.255 L 132.963,172.002 C 132.998,232.780 132.996,232.845 131.048,235.192 C 130.679,235.636 130.000,236.000 129.538,236.000 C 128.083,236.000 126.062,234.790 125.782,233.750 C 125.635,233.200 125.485,208.675 125.450,179.250 C 125.415,149.825 125.243,122.825 125.068,119.250 L 124.750,112.750 L 119.977,112.750 C 116.202,112.750 114.914,112.940 113.815,113.661 L 112.426,114.572 L 112.551,120.031 C 112.621,123.033 112.508,125.660 112.302,125.870 C 112.095,126.079 109.636,126.503 106.838,126.813 C 100.221,127.545 93.163,128.890 91.538,129.729 C 90.830,130.095 88.528,130.971 86.424,131.677 C 78.254,134.417 67.412,142.015 58.250,151.422 C 49.605,160.298 43.673,165.576 40.881,166.877 C 38.663,167.910 33.408,168.988 30.459,169.016 C 27.464,169.044 25.889,171.328 26.946,174.109 C 27.576,175.764 29.766,176.794 34.250,177.543 C 38.921,178.323 42.586,179.731 43.909,181.253 C 44.506,181.939 45.300,182.500 45.675,182.500 C 46.050,182.500 47.345,183.247 48.553,184.159 C 53.016,187.530 69.163,198.515 104.368,222.128 L 114.985,229.250 L 114.993,234.750 C 114.997,237.775 115.338,241.825 115.752,243.750 C 116.165,245.675 116.840,248.938 117.250,251.000 C 118.841,258.992 119.122,260.297 119.554,261.700 C 120.169,263.698 120.118,298.836 119.493,303.822 C 119.214,306.047 118.932,311.142 118.868,315.144 L 118.750,322.420 L 120.204,323.945 C 121.003,324.783 122.578,325.796 123.704,326.195 C 126.692,327.255 132.304,327.184 134.750,326.055 Z M 36.145,159.055 C 36.370,158.830 36.545,137.938 36.534,112.628 C 36.520,76.709 36.651,66.497 37.133,66.097 C 37.472,65.816 39.438,65.424 41.500,65.228 C 43.562,65.031 46.712,64.560 48.500,64.180 C 50.288,63.801 53.550,63.139 55.750,62.710 C 57.950,62.280 61.212,61.589 63.000,61.173 C 64.787,60.758 67.375,60.215 68.750,59.967 C 71.515,59.469 74.339,58.822 77.000,58.077 C 77.963,57.807 80.100,57.225 81.750,56.784 C 83.400,56.342 85.312,55.786 86.000,55.549 C 86.688,55.311 88.263,54.839 89.500,54.500 C 90.737,54.161 92.312,53.703 93.000,53.482 C 93.688,53.261 96.612,52.364 99.500,51.489 C 102.388,50.613 105.200,49.720 105.750,49.503 C 106.734,49.115 109.326,48.295 115.250,46.495 C 116.900,45.994 120.469,44.778 123.181,43.792 C 125.893,42.806 128.753,42.000 129.537,42.000 C 130.941,42.000 133.099,42.690 140.500,45.503 C 142.562,46.288 145.938,47.418 148.000,48.017 C 153.700,49.669 161.429,52.018 164.500,53.030 C 167.008,53.857 175.504,56.291 180.125,57.507 C 184.206,58.580 185.336,58.849 192.625,60.474 C 193.794,60.734 196.325,61.198 198.250,61.505 C 201.338,61.997 203.666,62.492 212.382,64.507 C 213.555,64.778 215.242,65.017 216.132,65.038 C 217.022,65.059 218.537,65.360 219.500,65.707 L 221.250,66.338 L 221.530,83.794 C 221.684,93.395 221.741,113.977 221.658,129.533 C 221.537,151.908 221.639,157.999 222.145,158.691 C 222.869,159.681 226.133,160.115 227.875,159.453 L 229.000,159.025 L 229.000,109.542 C 229.000,73.121 228.850,59.966 228.432,59.708 C 228.119,59.514 225.813,58.924 223.307,58.395 C 220.800,57.867 217.850,57.237 216.750,56.996 C 215.650,56.755 213.625,56.313 212.250,56.013 C 210.875,55.713 208.400,55.241 206.750,54.964 C 200.124,53.851 191.436,51.982 190.382,51.444 C 189.904,51.200 188.736,51.000 187.786,51.000 C 186.836,51.000 185.935,50.799 185.783,50.553 C 185.631,50.307 184.661,49.984 183.628,49.835 C 180.820,49.431 175.302,48.166 170.375,46.798 C 168.794,46.359 166.319,45.683 164.875,45.297 C 162.094,44.551 161.353,44.323 159.750,43.719 C 159.200,43.512 157.400,42.961 155.750,42.495 C 154.100,42.029 151.625,41.244 150.250,40.751 C 148.875,40.257 147.300,39.695 146.750,39.501 C 146.200,39.308 144.963,38.873 144.000,38.534 C 143.037,38.196 141.463,37.689 140.500,37.408 C 139.537,37.126 138.525,36.735 138.250,36.538 C 137.975,36.341 136.738,35.870 135.500,35.491 C 134.262,35.112 132.800,34.531 132.250,34.200 C 130.167,32.946 128.066,32.862 126.209,33.958 C 125.238,34.531 123.924,35.000 123.289,35.000 C 122.654,35.000 121.563,35.450 120.864,36.000 C 120.164,36.550 119.118,37.000 118.539,37.000 C 117.960,37.000 117.039,37.225 116.493,37.500 C 115.947,37.775 115.053,38.225 114.507,38.500 C 113.961,38.775 113.113,39.000 112.624,39.000 C 112.135,39.000 110.896,39.450 109.869,40.000 C 108.843,40.550 107.497,41.008 106.877,41.017 C 106.257,41.026 104.850,41.469 103.750,42.000 C 102.650,42.531 101.364,42.974 100.892,42.983 C 100.420,42.992 99.295,43.312 98.392,43.692 C 96.743,44.388 95.024,44.869 89.000,46.324 C 87.213,46.756 85.300,47.293 84.750,47.519 C 84.200,47.744 82.175,48.208 80.250,48.549 C 78.325,48.891 76.536,49.357 76.275,49.585 C 76.014,49.813 75.155,50.000 74.367,50.000 C 73.579,50.000 72.555,50.202 72.092,50.448 C 71.629,50.695 68.438,51.495 65.000,52.226 C 57.655,53.789 50.064,55.439 47.250,56.083 C 44.585,56.693 34.789,58.480 32.133,58.841 C 30.969,58.999 29.731,59.472 29.383,59.892 C 28.426,61.046 28.588,158.151 29.548,159.308 C 30.081,159.950 30.772,160.047 32.976,159.788 C 34.494,159.609 35.920,159.280 36.145,159.055 Z M 131.392,103.008 C 131.471,99.849 131.715,97.085 131.936,96.864 C 132.157,96.643 132.993,96.723 133.794,97.040 C 136.070,97.943 138.483,98.431 138.726,98.038 C 138.848,97.842 137.717,94.096 136.213,89.715 C 134.709,85.334 132.640,79.216 131.614,76.118 C 130.348,72.292 129.530,70.529 129.065,70.618 C 128.182,70.788 127.142,73.388 122.709,86.500 C 119.624,95.624 119.178,97.356 119.759,97.954 C 120.346,98.557 120.811,98.504 123.038,97.579 C 127.098,95.891 127.000,95.787 127.000,101.783 C 127.000,108.028 127.408,109.122 129.658,108.904 L 131.250,108.750 L 131.392,103.008 Z M 142.812,222.601 C 142.677,222.381 142.422,220.075 142.247,217.476 C 142.072,214.877 141.739,212.075 141.506,211.250 C 140.633,208.155 139.872,192.040 140.136,182.250 C 140.415,171.908 140.577,170.923 143.462,162.060 C 144.122,160.031 144.500,157.556 144.500,155.263 C 144.500,153.279 144.647,149.258 144.826,146.328 L 145.152,141.000 L 147.451,141.010 C 154.364,141.040 170.611,145.293 176.465,148.605 C 180.482,150.878 187.770,155.799 191.250,158.588 C 192.900,159.911 195.445,161.950 196.906,163.121 C 198.367,164.292 200.504,166.096 201.656,167.131 C 205.020,170.151 209.507,172.999 210.932,173.016 C 212.547,173.035 214.216,174.219 213.872,175.101 C 213.733,175.458 212.347,176.390 210.792,177.172 C 209.238,177.954 207.355,179.092 206.608,179.702 C 205.861,180.311 202.100,182.922 198.250,185.504 C 194.400,188.085 190.958,190.485 190.602,190.836 C 190.245,191.188 189.160,191.851 188.191,192.311 C 187.222,192.771 185.827,193.742 185.090,194.469 C 184.353,195.195 182.963,196.171 182.000,196.637 C 181.037,197.102 177.524,199.343 174.193,201.617 C 170.861,203.890 164.755,208.046 160.623,210.853 C 156.491,213.659 151.004,217.535 148.430,219.465 C 143.626,223.068 143.236,223.286 142.812,222.601 Z M 112.456,221.249 C 111.517,220.561 105.013,216.188 98.000,211.531 C 90.987,206.874 84.688,202.604 84.000,202.043 C 83.312,201.482 82.566,201.017 82.342,201.011 C 82.117,201.005 81.126,200.381 80.139,199.625 C 79.153,198.869 77.622,197.800 76.739,197.250 C 75.855,196.700 73.471,195.131 71.441,193.764 C 69.411,192.397 67.385,191.047 66.938,190.764 C 64.311,189.100 53.472,181.647 52.000,180.492 C 51.038,179.737 49.462,178.673 48.500,178.128 C 44.535,175.881 43.000,174.883 43.000,174.551 C 43.000,174.358 43.844,173.915 44.875,173.566 C 48.071,172.484 51.003,170.871 53.170,169.003 C 58.046,164.799 67.742,157.528 74.250,153.193 C 81.343,148.469 85.675,146.521 95.184,143.778 C 98.773,142.742 109.546,141.000 112.360,141.000 C 112.849,141.000 113.001,142.625 113.004,147.875 C 113.008,155.211 113.644,162.350 114.425,163.840 C 114.688,164.341 115.190,165.762 115.541,167.000 C 115.893,168.238 116.342,169.475 116.541,169.750 C 117.614,171.239 118.257,189.264 117.549,198.000 C 116.507,210.848 115.070,222.500 114.529,222.500 C 114.327,222.500 113.394,221.937 112.456,221.249 Z" fill="#000000" fill-rule="evenodd" /></svg>