<svg xmlns="http://www.w3.org/2000/svg" viewBox="0 0 403 480" width="403" height="480"><path d="M 197.250,454.191 C 194.282,451.426 173.695,437.000 172.716,437.000 C 172.536,437.000 171.345,436.135 170.069,435.077 C 168.794,434.020 165.950,431.945 163.750,430.467 C 156.445,425.558 146.794,416.381 141.439,409.250 C 138.524,405.369 135.198,398.373 134.109,393.833 C 132.905,388.811 132.929,378.402 134.155,374.000 C 135.650,368.632 138.039,360.881 138.854,358.750 C 140.011,355.728 146.890,334.839 148.322,330.000 C 152.998,314.205 154.539,300.683 152.738,291.271 C 151.637,285.516 150.821,283.046 148.484,278.392 C 145.092,271.637 145.213,271.699 134.250,271.046 C 129.850,270.783 124.900,270.206 123.250,269.762 C 119.537,268.764 113.027,265.601 109.905,263.278 C 107.094,261.187 99.117,252.152 96.053,247.588 C 92.374,242.109 88.834,234.145 86.744,226.644 C 85.421,221.895 85.257,222.000 93.988,222.000 C 106.395,222.000 117.330,224.138 127.730,228.596 C 136.482,232.348 139.475,234.089 145.500,238.931 C 149.915,242.479 153.071,243.869 154.046,242.694 C 155.251,241.243 154.265,237.893 151.313,233.410 C 145.979,225.312 140.101,220.808 126.154,214.132 C 116.357,209.443 107.624,206.665 89.750,202.552 C 80.060,200.322 79.896,200.279 74.000,198.433 C 71.112,197.529 66.132,195.486 62.932,193.894 C 59.733,192.303 56.899,191.000 56.635,191.000 C 56.089,191.000 47.072,184.363 44.659,182.185 C 41.199,179.062 34.809,169.752 32.093,163.876 C 30.380,160.171 27.939,150.637 27.644,146.500 C 27.320,141.966 28.299,138.340 29.913,138.095 C 30.783,137.962 31.599,139.296 35.421,147.095 C 40.697,157.860 43.889,162.818 48.605,167.571 C 52.614,171.612 55.891,173.816 62.437,176.875 C 67.028,179.021 75.375,182.000 76.795,182.000 C 78.019,182.000 77.590,181.260 74.125,177.390 C 70.190,172.996 66.281,167.790 64.259,164.250 C 63.473,162.875 62.561,161.412 62.230,161.000 C 61.655,160.282 61.117,159.352 57.009,151.974 C 56.006,150.172 53.299,143.984 50.995,138.224 C 48.691,132.463 44.281,122.688 41.196,116.500 C 35.223,104.520 34.315,102.287 32.176,94.320 C 30.907,89.591 30.814,88.561 30.804,79.000 C 30.790,67.466 31.315,63.744 34.201,54.899 C 38.106,42.934 44.043,32.602 51.064,25.554 C 54.174,22.432 56.343,20.971 57.315,21.344 C 58.382,21.753 58.173,22.530 55.575,27.816 C 54.242,30.530 52.192,35.225 51.020,38.250 C 49.848,41.275 48.604,44.425 48.254,45.250 C 46.253,49.970 44.547,57.493 43.945,64.244 C 42.844,76.595 44.466,86.424 49.099,95.478 C 51.587,100.339 53.193,102.500 54.316,102.500 C 54.682,102.500 55.412,100.943 56.014,98.875 C 58.639,89.870 60.884,84.727 64.687,79.000 C 67.789,74.330 74.186,66.423 77.073,63.689 C 82.751,58.315 96.139,50.040 100.891,48.968 C 103.086,48.473 105.500,48.894 105.500,49.771 C 105.500,50.127 102.294,53.417 98.375,57.084 C 87.264,67.479 81.415,74.941 76.401,85.118 C 73.527,90.952 71.894,95.127 70.972,99.000 C 70.743,99.963 70.182,102.325 69.726,104.250 C 68.578,109.090 68.596,123.112 69.758,129.005 C 71.259,136.613 74.956,147.505 77.082,150.577 C 77.587,151.307 78.000,152.104 78.000,152.348 C 78.000,152.914 82.252,159.739 85.337,164.125 C 87.704,167.490 89.475,168.652 88.766,166.375 C 88.574,165.756 88.293,162.142 88.143,158.342 C 87.749,148.370 88.661,143.305 92.482,134.250 C 96.963,123.629 107.221,111.500 111.722,111.500 C 114.010,111.500 113.563,113.488 109.807,120.000 C 108.666,121.978 106.464,126.999 105.420,130.000 C 99.413,147.272 100.190,162.360 107.884,177.900 C 110.862,183.914 114.609,187.111 126.508,193.788 C 141.549,202.229 146.274,204.892 148.500,206.183 C 152.888,208.728 153.012,207.825 149.251,200.685 C 145.814,194.161 145.634,193.884 140.710,187.500 C 132.589,176.969 127.999,167.514 126.755,158.750 C 126.146,154.460 126.434,147.426 127.271,146.148 C 128.606,144.110 129.764,144.683 130.762,147.875 C 132.403,153.124 137.390,163.519 139.997,167.122 C 141.680,169.450 149.764,178.237 155.775,184.273 C 160.847,189.366 163.809,193.094 166.882,198.255 C 169.318,202.344 172.593,210.165 173.494,214.042 C 173.841,215.531 174.338,217.343 174.599,218.068 C 175.735,221.219 179.962,223.916 188.405,226.875 C 191.973,228.126 192.844,228.224 200.500,228.236 C 208.542,228.250 208.878,228.208 213.835,226.567 C 216.632,225.642 219.703,224.405 220.659,223.817 C 224.179,221.656 227.011,217.263 229.249,210.490 C 230.461,206.821 233.952,200.206 237.011,195.781 C 239.450,192.253 242.250,189.073 253.917,176.579 C 260.590,169.434 262.113,167.515 265.583,161.878 C 268.934,156.434 271.624,150.893 272.765,147.087 C 274.538,141.167 277.014,143.969 276.983,151.859 C 276.948,160.587 274.849,167.614 269.622,176.500 C 266.767,181.355 261.908,188.281 258.223,192.750 C 256.416,194.942 254.662,197.511 251.903,202.007 C 251.478,202.699 250.971,203.993 250.776,204.883 C 250.318,206.966 251.411,207.485 253.357,206.108 C 254.123,205.566 257.225,203.862 260.250,202.320 C 263.275,200.778 267.438,198.599 269.500,197.477 C 271.562,196.356 274.825,194.616 276.750,193.612 C 288.289,187.594 292.574,182.971 297.005,171.759 C 300.213,163.639 301.681,151.764 300.529,143.241 C 299.471,135.412 296.405,126.651 291.893,118.563 C 290.302,115.711 289.000,113.215 289.000,113.016 C 289.000,112.817 289.442,112.255 289.982,111.767 C 290.930,110.909 291.056,110.940 293.656,112.666 C 298.860,116.120 305.418,124.404 308.769,131.756 C 310.798,136.210 312.318,141.217 313.286,146.643 C 314.060,150.980 314.335,162.459 313.741,165.625 C 313.509,166.861 313.575,167.500 313.934,167.500 C 314.594,167.500 321.570,157.652 323.964,153.341 C 331.424,139.907 334.621,124.917 333.152,110.250 C 331.966,98.407 328.228,87.116 322.691,78.653 C 317.987,71.460 308.988,61.071 303.391,56.369 C 299.367,52.988 296.683,49.617 297.425,48.875 C 298.139,48.161 302.727,49.012 305.160,50.310 C 306.035,50.776 307.875,51.718 309.250,52.403 C 317.540,56.531 326.958,64.749 333.997,73.996 C 339.807,81.628 343.022,88.018 345.887,97.625 C 347.396,102.687 348.060,103.052 350.458,100.143 C 355.387,94.164 358.996,82.155 358.993,71.750 C 358.992,68.259 358.070,60.436 356.989,54.750 C 355.822,48.612 350.398,33.717 345.662,23.650 C 344.802,21.822 345.097,21.000 346.612,21.000 C 348.127,21.000 354.946,28.191 358.118,33.134 C 365.823,45.141 368.979,53.082 371.258,66.194 C 372.563,73.701 372.091,87.827 370.297,95.000 C 368.827,100.875 367.514,104.443 365.328,108.500 C 362.734,113.314 356.814,125.129 354.926,129.260 C 353.923,131.455 352.387,134.815 351.513,136.727 C 350.639,138.640 349.242,141.903 348.409,143.977 C 347.576,146.052 345.887,149.775 344.656,152.250 C 341.642,158.308 333.140,172.033 331.715,173.142 C 330.475,174.106 326.000,180.639 326.000,181.484 C 326.000,182.330 327.533,182.051 331.500,180.485 C 333.562,179.670 335.435,179.003 335.662,179.002 C 336.628,178.998 346.387,173.764 347.890,172.444 C 348.795,171.650 349.696,170.998 349.892,170.996 C 350.089,170.993 351.511,169.812 353.052,168.371 C 358.014,163.730 364.074,154.544 368.952,144.269 C 372.215,137.397 372.864,136.872 374.546,139.750 C 375.259,140.971 375.376,142.041 375.176,145.500 C 374.929,149.751 374.589,151.258 372.188,158.750 C 367.617,173.008 358.261,183.968 344.250,191.479 C 335.036,196.417 334.259,196.798 332.000,197.491 C 330.762,197.870 329.525,198.340 329.250,198.535 C 328.975,198.730 327.062,199.276 325.000,199.749 C 322.938,200.222 318.656,201.247 315.485,202.027 C 312.314,202.808 307.926,203.797 305.735,204.226 C 299.327,205.481 287.731,209.195 282.250,211.750 C 280.325,212.647 277.850,213.781 276.750,214.270 C 272.000,216.383 262.722,221.907 259.467,224.561 C 256.175,227.244 254.870,228.702 251.383,233.593 C 249.639,236.041 248.297,240.123 248.704,241.744 C 249.236,243.863 250.939,243.280 256.783,238.976 C 268.477,230.363 280.486,225.367 295.750,222.764 C 302.432,221.625 314.688,221.546 316.174,222.633 C 316.989,223.228 316.991,223.455 316.212,226.508 C 314.197,234.398 310.142,242.474 303.157,252.500 C 300.923,255.708 295.034,261.778 292.290,263.702 C 286.106,268.038 277.121,271.000 270.152,271.000 C 268.345,271.000 266.052,271.217 265.058,271.481 C 264.064,271.746 262.153,272.101 260.813,272.271 C 258.858,272.519 258.038,272.943 256.669,274.415 C 254.317,276.944 251.272,283.542 250.514,287.750 C 250.168,289.675 249.685,291.902 249.442,292.700 C 248.791,294.836 248.932,302.537 249.728,308.250 C 251.699,322.397 252.279,324.526 263.026,357.000 C 265.983,365.938 268.682,374.669 269.022,376.404 C 269.778,380.251 269.357,391.090 268.311,394.750 C 266.840,399.898 263.876,405.964 260.860,410.000 C 257.677,414.261 250.643,421.699 246.500,425.187 C 242.629,428.446 232.499,435.612 228.034,438.250 C 217.145,444.684 209.878,449.756 205.291,454.121 C 203.344,455.975 201.525,457.483 201.250,457.472 C 200.975,457.461 199.175,455.985 197.250,454.191 Z M 208.905,362.248 C 211.742,361.388 215.083,358.757 216.282,356.437 C 217.368,354.338 217.200,354.098 214.625,354.068 C 213.319,354.053 211.038,353.807 209.557,353.520 C 205.929,352.820 196.902,352.863 190.599,353.611 C 185.453,354.222 185.448,354.224 185.756,355.487 C 185.925,356.181 187.197,357.905 188.582,359.316 C 190.757,361.533 191.552,361.990 194.425,362.676 C 198.411,363.627 204.993,363.433 208.905,362.248 Z M 190.375,346.013 C 192.000,345.276 192.500,344.772 192.500,343.872 C 192.500,342.171 190.624,339.878 187.121,337.300 C 185.438,336.060 183.830,334.617 183.549,334.092 C 182.823,332.734 183.602,328.463 184.913,326.623 C 186.727,324.075 189.339,323.725 197.800,324.896 C 199.752,325.166 202.565,325.290 204.050,325.171 C 210.492,324.656 214.868,324.761 216.178,325.462 C 217.839,326.350 218.719,329.312 218.321,332.678 C 217.977,335.591 217.580,336.122 214.479,337.810 C 213.164,338.525 211.946,339.480 211.773,339.931 C 211.600,340.381 211.034,341.506 210.516,342.429 C 209.997,343.353 209.683,344.396 209.818,344.747 C 210.143,345.594 215.252,347.000 218.006,347.000 C 221.172,347.000 223.555,345.188 225.195,341.532 C 226.749,338.071 226.785,337.243 225.570,332.998 C 224.136,327.987 222.085,324.573 218.189,320.713 C 211.411,313.998 202.720,311.311 195.500,313.700 C 190.307,315.418 187.296,317.189 184.223,320.337 C 178.738,325.953 175.597,334.278 176.714,340.234 C 177.077,342.167 179.989,345.818 181.734,346.525 C 183.612,347.286 188.164,347.017 190.375,346.013 Z M 226.677,286.101 C 230.141,280.813 232.825,278.456 236.722,277.284 C 240.382,276.182 242.828,274.305 244.243,271.514 C 244.934,270.150 245.500,268.562 245.500,267.986 C 245.500,266.853 246.048,266.869 238.731,267.784 C 232.284,268.589 228.419,272.411 225.615,280.750 C 224.107,285.236 223.239,290.220 224.054,289.717 C 224.290,289.571 225.470,287.944 226.677,286.101 Z M 179.002,289.125 C 179.004,288.919 178.677,287.738 178.276,286.500 C 177.874,285.262 176.982,282.333 176.293,279.991 C 174.852,275.093 173.265,272.719 169.777,270.242 C 166.967,268.247 165.291,267.732 160.055,267.259 L 156.360,266.926 L 156.681,268.529 C 157.139,270.819 160.004,274.605 162.026,275.591 C 173.258,281.073 173.280,281.089 176.300,286.375 C 177.872,289.126 178.995,290.268 179.002,289.125 Z M 115.358,370.875 C 114.899,370.531 113.324,368.496 111.857,366.353 C 110.390,364.210 107.984,361.468 106.511,360.259 C 104.249,358.403 103.288,357.970 100.325,357.471 C 94.755,356.531 90.857,357.245 83.727,360.510 C 77.323,363.444 73.802,364.203 66.728,364.177 C 61.377,364.158 59.582,363.952 56.728,363.030 C 48.606,360.406 35.000,352.421 35.000,350.278 C 35.000,349.977 36.626,348.726 38.614,347.500 C 52.623,338.855 64.860,336.622 76.986,340.495 C 81.551,341.954 85.849,343.935 89.197,346.123 C 96.161,350.674 97.124,350.426 92.152,345.360 C 90.203,343.375 87.525,340.512 86.202,339.000 C 80.593,332.590 76.786,329.285 73.720,328.164 C 69.329,326.559 65.993,326.000 60.812,326.000 C 54.067,326.000 45.698,325.061 42.250,323.918 C 33.337,320.963 26.139,315.168 20.023,306.026 C 16.330,300.504 13.000,294.318 13.000,292.977 C 13.000,292.184 32.764,292.620 37.000,293.507 C 43.281,294.821 48.918,297.192 53.822,300.582 C 58.123,303.556 60.480,306.056 66.347,313.866 C 72.039,321.443 72.874,321.864 69.859,315.638 C 68.957,313.775 67.938,311.302 67.595,310.143 C 66.485,306.394 62.999,299.353 61.101,297.021 C 60.083,295.772 57.451,292.723 55.250,290.246 C 47.814,281.874 45.687,278.353 43.983,271.591 C 42.800,266.897 42.685,257.772 43.729,251.500 C 45.266,242.270 47.786,235.000 49.450,235.000 C 51.553,235.000 63.223,247.429 66.926,253.613 C 69.318,257.609 71.706,263.403 72.544,267.250 C 73.469,271.491 73.283,282.202 72.183,288.000 C 70.564,296.539 70.918,300.814 73.800,307.500 C 75.367,311.137 80.383,319.563 83.919,324.500 C 86.680,328.354 92.283,334.376 92.712,333.951 C 92.879,333.787 92.465,332.662 91.792,331.451 C 91.120,330.240 90.093,328.031 89.509,326.540 C 88.925,325.050 88.033,322.912 87.527,321.790 C 87.020,320.668 85.992,318.010 85.241,315.883 C 83.933,312.178 83.886,311.705 84.112,304.633 C 84.322,298.095 84.523,296.731 85.873,292.714 C 86.712,290.220 88.239,286.507 89.268,284.464 C 91.284,280.460 95.608,273.801 96.583,273.199 C 97.580,272.583 100.039,275.964 103.395,282.565 C 107.618,290.871 109.127,296.186 109.197,303.000 C 109.226,305.887 108.938,309.712 108.557,311.500 C 107.856,314.787 105.372,320.639 103.251,323.999 C 102.614,325.007 101.144,327.695 99.984,329.973 C 98.085,333.699 97.904,334.363 98.170,336.614 C 98.669,340.821 100.255,343.200 107.829,351.099 C 117.713,361.408 119.802,364.687 119.144,368.857 C 118.731,371.472 117.225,372.275 115.358,370.875 Z M 283.436,370.673 C 283.059,370.218 282.750,368.916 282.750,367.779 C 282.750,364.490 285.452,360.656 294.018,351.790 C 302.846,342.654 304.502,340.083 304.496,335.527 C 304.493,333.146 304.165,332.180 302.198,328.750 C 295.592,317.233 293.996,312.452 293.934,304.000 C 293.904,299.865 294.177,297.649 295.221,293.566 C 297.167,285.961 302.487,275.379 305.163,273.792 C 306.307,273.113 307.747,274.706 311.088,280.347 C 315.327,287.504 317.472,293.941 318.483,302.539 C 319.355,309.950 318.562,313.634 313.174,327.211 C 311.982,330.215 311.131,332.797 311.283,332.950 C 312.122,333.788 322.638,318.706 326.432,311.223 C 331.407,301.411 332.023,297.296 330.100,286.750 C 327.329,271.558 329.898,261.057 339.599,247.923 C 344.493,241.298 351.581,234.679 353.141,235.278 C 354.648,235.856 357.652,244.955 358.745,252.250 C 359.695,258.593 359.697,263.239 358.751,268.662 C 357.315,276.899 355.298,280.615 347.197,289.953 C 339.417,298.920 338.481,300.433 333.707,311.750 C 332.431,314.775 331.152,317.541 330.865,317.896 C 330.496,318.353 330.527,318.719 330.972,319.146 C 331.469,319.623 331.828,319.442 332.676,318.289 C 339.898,308.467 342.839,305.070 346.979,301.767 C 350.923,298.620 352.384,297.837 357.962,295.880 C 363.920,293.790 368.433,293.084 378.000,292.746 C 382.538,292.586 386.877,292.356 387.644,292.236 C 389.685,291.916 389.880,293.150 388.297,296.377 C 385.681,301.712 379.517,310.784 376.254,314.103 C 372.796,317.620 366.878,321.642 363.396,322.842 C 362.266,323.231 360.930,323.770 360.427,324.039 C 359.121,324.738 346.634,325.988 340.900,325.995 C 330.527,326.006 325.488,328.399 317.671,337.025 C 316.340,338.494 313.394,341.700 311.125,344.148 C 308.856,346.597 307.000,348.803 307.000,349.050 C 307.000,349.984 308.396,349.431 311.275,347.355 C 315.486,344.320 317.238,343.368 322.030,341.510 C 327.764,339.287 328.620,339.062 333.422,338.512 C 343.527,337.355 356.938,341.506 365.992,348.595 C 367.695,349.928 367.702,349.948 366.759,350.991 C 363.357,354.750 353.746,360.651 347.978,362.524 C 344.041,363.801 336.887,364.572 332.500,364.192 C 328.732,363.866 321.990,362.058 317.750,360.239 C 316.925,359.885 315.350,359.210 314.250,358.738 C 312.064,357.801 303.296,357.145 300.349,357.698 C 298.092,358.122 294.493,361.315 291.906,365.190 C 287.911,371.172 285.270,372.882 283.436,370.673 Z M 151.647,161.404 C 150.659,160.172 149.388,153.988 149.976,153.279 C 150.274,152.920 151.919,152.476 153.633,152.292 C 155.348,152.108 157.425,151.748 158.250,151.492 C 160.925,150.662 170.983,149.528 183.000,148.700 C 194.043,147.940 210.730,147.970 220.750,148.767 C 226.259,149.206 234.714,150.053 238.000,150.496 C 239.787,150.736 243.333,151.206 245.879,151.540 C 252.020,152.344 252.358,152.612 251.584,156.071 C 251.252,157.554 250.521,159.523 249.960,160.445 L 248.940,162.122 L 245.845,161.766 C 237.708,160.828 227.138,160.617 195.750,160.769 C 163.471,160.926 158.146,161.051 153.961,161.757 C 152.771,161.958 151.996,161.840 151.647,161.404 Z M 147.835,146.158 C 147.437,145.384 144.489,136.910 141.284,127.329 C 135.436,109.843 130.472,96.641 128.212,92.562 C 126.566,89.591 126.643,89.000 128.676,89.000 C 130.711,89.000 136.299,92.515 138.990,95.489 C 140.402,97.049 141.174,97.500 142.430,97.500 C 146.547,97.500 151.000,102.323 151.000,106.782 C 151.000,109.792 149.851,112.138 147.441,114.047 C 146.373,114.892 145.500,115.941 145.500,116.378 C 145.500,117.511 149.379,121.050 152.072,122.375 C 155.081,123.855 157.541,123.818 159.898,122.258 C 162.908,120.266 163.687,118.462 163.913,112.954 L 164.110,108.157 L 161.805,105.562 C 159.835,103.344 159.500,102.658 159.500,100.845 C 159.500,98.409 160.439,96.816 162.506,95.747 C 164.983,94.466 166.426,94.795 168.816,97.184 C 171.238,99.607 171.327,100.036 170.250,104.169 C 169.838,105.753 169.500,107.497 169.500,108.044 C 169.500,110.966 174.105,116.241 178.166,117.971 C 182.814,119.950 187.169,118.968 190.484,115.192 C 192.394,113.016 195.500,106.792 195.500,105.139 C 195.500,104.070 195.300,104.000 192.225,104.000 C 187.332,104.000 185.003,102.438 183.034,97.834 C 181.792,94.930 181.749,93.734 182.795,91.186 C 183.922,88.444 186.273,86.177 188.749,85.446 L 190.872,84.819 L 191.158,81.760 C 191.315,80.078 191.819,77.587 192.277,76.226 C 193.377,72.961 197.168,66.189 199.100,64.040 L 200.637,62.330 L 202.083,64.040 C 206.791,69.610 209.608,75.605 210.378,81.695 L 210.750,84.641 L 213.219,85.267 C 217.485,86.349 219.948,90.591 219.272,95.691 C 218.856,98.822 218.006,100.452 215.758,102.426 C 213.957,104.008 212.846,104.266 208.875,104.027 C 206.666,103.894 206.528,104.474 207.763,108.721 C 210.150,116.932 215.712,120.487 222.312,118.021 C 225.930,116.670 226.509,116.161 229.563,111.648 C 231.917,108.168 232.515,106.378 231.529,105.768 C 230.882,105.368 230.319,101.291 230.700,99.771 C 231.105,98.156 233.303,96.143 235.424,95.443 C 237.530,94.747 239.098,95.482 240.560,97.848 C 241.827,99.898 241.502,102.680 239.711,105.113 C 237.860,107.630 236.523,110.596 236.511,112.217 C 236.491,114.929 238.090,119.437 239.756,121.365 C 241.346,123.204 241.470,123.250 244.818,123.250 C 250.287,123.250 254.529,120.600 255.290,116.708 C 255.556,115.349 255.293,114.865 253.062,112.611 C 251.671,111.205 250.388,109.478 250.211,108.774 C 248.968,103.818 255.104,96.500 260.503,96.500 C 262.009,96.500 262.677,96.094 264.712,93.937 C 266.360,92.191 268.294,90.837 270.783,89.687 C 272.791,88.759 274.562,88.000 274.717,88.000 C 275.312,88.000 274.952,89.412 273.694,92.020 C 271.545,96.476 267.581,106.755 265.233,113.963 C 264.568,116.005 263.017,120.280 261.786,123.463 C 258.448,132.100 255.619,139.908 254.708,143.000 C 253.712,146.380 253.188,147.060 251.818,146.744 C 250.495,146.440 229.700,144.172 224.250,143.738 C 204.884,142.196 180.309,142.896 162.500,145.495 C 160.713,145.756 157.450,146.211 155.250,146.506 C 153.050,146.800 150.645,147.160 149.905,147.304 C 148.803,147.519 148.429,147.311 147.835,146.158 Z" fill="#000000" fill-rule="evenodd" /></svg>