<svg xmlns="http://www.w3.org/2000/svg" viewBox="0 0 88 119" width="88" height="119"><path d="M 40.340,103.949 C 38.337,101.754 36.984,99.796 36.799,98.824 C 36.635,97.958 36.287,89.487 36.027,80.000 C 35.767,70.513 35.420,60.388 35.255,57.500 C 34.958,52.304 34.936,52.231 33.146,50.396 C 31.382,48.587 28.880,47.287 28.293,47.874 C 28.132,48.035 28.000,49.002 28.000,50.022 C 28.000,53.031 27.075,53.306 23.679,51.309 C 17.829,47.868 15.091,43.068 14.944,35.999 C 14.852,31.562 16.270,27.485 19.594,22.625 C 21.090,20.439 22.000,19.923 22.000,21.262 C 22.000,21.682 22.788,23.589 23.750,25.500 C 24.996,27.974 25.500,29.640 25.500,31.285 C 25.500,34.550 26.844,36.242 30.303,37.333 C 33.536,38.352 34.318,38.060 35.620,35.349 C 36.772,32.952 36.302,31.833 32.798,28.631 C 31.259,27.224 30.000,25.737 30.000,25.325 C 30.000,24.914 31.294,23.500 32.875,22.184 C 34.456,20.868 37.598,18.020 39.856,15.854 C 42.578,13.245 44.179,12.048 44.606,12.305 C 45.793,13.019 57.995,24.745 57.997,25.174 C 57.999,25.407 56.916,26.571 55.592,27.762 C 52.504,30.539 51.525,33.132 52.705,35.413 C 54.199,38.302 58.649,38.227 61.381,35.268 C 62.831,33.698 62.977,33.281 62.694,31.515 C 62.428,29.846 62.619,29.148 63.894,27.140 C 64.728,25.825 65.770,23.873 66.210,22.802 C 67.003,20.872 67.020,20.863 68.046,21.792 C 68.616,22.308 70.020,24.647 71.166,26.990 C 73.188,31.124 73.250,31.398 73.250,36.250 C 73.250,40.589 73.079,41.614 71.955,44.000 C 71.243,45.513 70.073,47.444 69.356,48.292 C 68.118,49.755 62.741,53.000 61.555,53.000 C 61.222,53.000 61.000,51.999 61.000,50.500 C 61.000,47.501 60.310,47.300 57.257,49.411 C 53.254,52.178 53.205,52.367 52.817,66.329 C 52.627,73.160 52.391,80.662 52.292,83.000 C 52.194,85.338 52.088,90.096 52.057,93.574 L 52.000,99.899 L 48.451,103.699 C 46.498,105.790 44.604,107.500 44.241,107.500 C 43.878,107.500 42.122,105.902 40.340,103.949 Z M 49.000,83.000 C 49.000,82.175 48.775,81.500 48.500,81.500 C 48.225,81.500 48.000,82.175 48.000,83.000 C 48.000,83.825 48.225,84.500 48.500,84.500 C 48.775,84.500 49.000,83.825 49.000,83.000 Z M 46.298,81.117 C 46.839,80.755 47.725,78.000 47.300,78.000 C 47.180,78.000 46.692,77.851 46.216,77.668 C 45.492,77.390 45.403,77.545 45.672,78.616 C 45.896,79.511 45.769,79.982 45.246,80.182 C 44.836,80.340 44.500,80.701 44.500,80.984 C 44.500,81.580 45.498,81.654 46.298,81.117 Z M 49.500,77.447 C 49.500,77.201 49.163,77.000 48.750,77.000 C 48.337,77.000 48.000,77.330 48.000,77.734 C 48.000,78.182 48.293,78.356 48.750,78.181 C 49.163,78.023 49.500,77.692 49.500,77.447 Z M 49.907,47.643 C 50.027,46.801 49.749,46.456 48.746,46.204 C 47.005,45.767 46.226,46.553 46.988,47.977 C 47.750,49.402 49.689,49.180 49.907,47.643 Z M 18.385,33.594 C 18.494,33.267 18.227,33.000 17.792,33.000 C 17.356,33.000 17.000,33.356 17.000,33.792 C 17.000,34.675 18.076,34.521 18.385,33.594 Z M 72.000,33.470 C 72.000,33.212 71.662,33.000 71.250,33.000 C 70.477,33.000 70.257,33.590 70.820,34.153 C 71.219,34.553 72.000,34.101 72.000,33.470 Z M 41.000,31.750 C 41.000,31.337 40.788,31.000 40.530,31.000 C 39.899,31.000 39.447,31.781 39.847,32.180 C 40.410,32.743 41.000,32.523 41.000,31.750 Z M 49.269,19.968 C 49.609,19.420 48.172,17.500 47.423,17.500 C 46.751,17.500 46.933,19.890 47.625,20.169 C 48.621,20.571 48.920,20.535 49.269,19.968 Z M 40.000,19.500 C 40.000,19.225 39.663,19.000 39.250,19.000 C 38.837,19.000 38.500,19.225 38.500,19.500 C 38.500,19.775 38.837,20.000 39.250,20.000 C 39.663,20.000 40.000,19.775 40.000,19.500 Z M 29.445,95.002 C 25.420,92.207 21.376,88.387 18.765,84.914 C 15.886,81.084 15.872,80.500 18.663,80.500 C 20.277,80.500 21.101,80.207 21.913,79.343 C 23.334,77.830 23.285,77.384 21.587,76.381 C 19.580,75.195 16.478,71.885 15.137,69.497 C 13.511,66.603 12.000,60.768 12.000,57.385 C 12.000,55.798 12.120,54.500 12.266,54.500 C 12.412,54.500 14.269,55.700 16.391,57.167 C 20.680,60.131 21.696,60.583 26.750,61.779 C 28.675,62.235 30.527,62.869 30.866,63.188 C 31.290,63.587 31.718,68.347 32.241,78.487 C 33.107,95.288 33.143,97.010 32.625,96.975 C 32.419,96.961 30.988,96.073 29.445,95.002 Z M 28.000,73.234 C 28.000,72.428 26.669,71.664 26.157,72.176 C 25.801,72.532 26.931,74.000 27.561,74.000 C 27.803,74.000 28.000,73.655 28.000,73.234 Z M 55.974,96.625 C 55.610,91.412 56.777,63.523 57.384,62.916 C 57.643,62.657 60.167,61.886 62.993,61.204 C 67.211,60.185 68.794,59.518 71.826,57.481 C 73.857,56.117 75.740,55.000 76.010,55.000 C 76.633,55.000 76.605,58.082 75.955,61.000 C 75.680,62.237 75.273,64.074 75.052,65.082 C 74.050,69.649 70.202,75.000 67.121,76.115 C 65.677,76.637 65.488,76.894 65.745,77.985 C 66.215,79.983 67.846,81.074 69.812,80.705 C 71.073,80.469 71.563,80.584 71.788,81.168 C 72.434,82.851 66.328,89.796 60.067,94.499 C 56.790,96.960 56.025,97.358 55.974,96.625 Z" fill="#000000" fill-rule="evenodd" /></svg>