<svg xmlns="http://www.w3.org/2000/svg" viewBox="0 0 396 382" width="396" height="382"><path d="M 191.877,359.488 C 187.353,354.702 185.000,349.987 185.000,345.707 C 185.000,342.649 185.236,341.514 187.544,333.500 C 188.896,328.805 189.404,325.323 189.458,320.375 C 189.492,317.245 189.356,316.500 188.750,316.500 C 188.338,316.500 188.000,316.713 188.000,316.973 C 188.000,317.951 180.914,327.945 176.637,333.000 C 171.335,339.266 170.752,340.494 171.173,344.520 C 171.481,347.465 171.470,347.500 170.205,347.500 C 169.337,347.500 167.999,346.616 166.042,344.749 C 161.003,339.943 159.248,335.235 160.514,329.923 C 161.722,324.858 162.722,323.368 170.062,315.704 C 174.534,311.035 178.110,306.792 179.525,304.475 C 182.024,300.383 183.287,297.620 182.855,297.189 C 182.702,297.035 181.135,298.111 179.372,299.580 C 173.145,304.770 168.647,307.635 159.375,312.318 C 145.444,319.354 141.891,323.099 141.875,330.766 C 141.867,334.512 142.461,336.188 144.768,338.930 C 146.404,340.875 145.982,341.696 143.568,341.267 C 139.724,340.583 133.688,335.312 131.258,330.516 C 129.408,326.866 128.593,320.852 129.479,317.395 C 130.534,313.276 132.721,309.640 135.962,306.613 C 137.877,304.824 143.537,301.000 144.269,301.000 C 144.387,301.000 145.850,300.338 147.519,299.530 C 149.188,298.721 151.385,297.789 152.402,297.458 C 154.293,296.841 157.620,295.408 162.500,293.106 C 166.343,291.294 170.468,288.453 173.149,285.772 C 176.543,282.378 180.964,275.500 179.751,275.500 C 179.614,275.500 178.433,276.258 177.126,277.184 C 173.355,279.858 169.638,281.000 164.711,281.000 C 161.479,281.000 160.001,280.766 158.543,280.022 C 154.783,278.104 151.856,273.366 152.099,269.594 C 152.240,267.404 152.332,267.263 153.500,267.450 C 156.708,267.963 162.848,267.492 166.193,266.476 C 169.371,265.510 170.106,265.025 173.245,261.819 C 177.033,257.952 179.221,254.388 180.303,250.325 C 181.142,247.173 181.235,235.632 180.438,233.649 C 177.939,227.433 177.997,227.457 174.032,230.972 C 168.511,235.866 162.034,246.672 160.529,253.500 C 159.580,257.801 159.702,257.633 158.134,256.796 C 157.373,256.389 155.634,255.031 154.271,253.778 C 152.908,252.525 151.558,251.505 151.271,251.511 C 148.721,251.565 141.563,257.238 129.957,268.401 C 125.261,272.918 123.898,274.512 124.156,275.184 C 124.444,275.936 124.835,276.004 126.871,275.656 C 128.180,275.433 131.096,275.250 133.352,275.250 L 137.454,275.250 L 139.485,277.235 C 144.392,282.029 144.666,286.981 140.314,292.250 C 138.730,294.167 138.023,293.568 137.571,289.927 C 137.199,286.938 137.560,287.081 132.149,287.784 C 129.867,288.081 129.259,287.954 127.199,286.746 C 122.846,284.195 117.282,283.311 114.532,284.733 C 110.853,286.636 106.761,293.101 105.228,299.434 C 104.180,303.763 102.818,305.597 100.030,306.432 C 97.407,307.218 97.409,308.188 100.040,311.177 L 102.080,313.494 L 100.757,313.997 C 97.899,315.084 93.382,314.017 91.563,311.826 C 90.627,310.699 89.045,306.077 88.697,303.459 C 88.342,300.780 88.738,299.845 91.750,296.250 C 94.517,292.948 98.081,286.881 97.560,286.360 C 96.956,285.756 92.173,288.037 89.000,290.441 C 85.434,293.144 82.975,293.838 80.464,292.852 C 78.614,292.125 78.591,292.132 77.442,293.685 C 76.805,294.546 76.164,296.150 76.017,297.250 C 75.870,298.350 75.534,299.250 75.269,299.250 C 75.005,299.250 74.107,298.238 73.275,297.000 C 71.912,294.974 71.765,294.377 71.798,291.000 C 71.870,283.662 76.140,279.208 84.000,278.271 C 86.387,277.986 88.726,277.594 93.375,276.698 C 95.117,276.362 94.713,275.346 92.319,274.038 C 90.366,272.971 89.909,272.904 87.944,273.399 C 85.190,274.091 82.017,273.446 79.776,271.736 C 77.593,270.071 76.359,270.178 74.085,272.233 C 71.834,274.267 71.000,273.902 71.000,270.884 C 71.000,265.422 75.566,260.824 82.364,259.439 C 86.083,258.681 86.500,258.836 94.025,263.766 C 99.334,267.244 100.239,267.680 104.463,268.783 C 107.165,269.488 107.186,269.485 109.572,267.954 C 113.229,265.607 115.287,263.869 121.000,258.304 C 125.879,253.551 135.500,242.462 135.500,241.591 C 135.500,241.380 134.452,240.927 133.172,240.585 C 130.298,239.816 125.724,236.185 126.481,235.273 C 126.760,234.937 128.959,233.460 131.369,231.991 C 137.229,228.419 143.500,222.041 149.796,213.250 C 157.469,202.536 158.713,200.154 160.527,192.710 C 161.329,189.415 160.132,181.184 157.696,173.260 C 156.765,170.230 156.002,167.225 156.002,166.583 C 156.001,165.873 155.756,165.498 155.375,165.624 C 154.697,165.850 154.386,167.458 153.467,175.500 C 152.024,188.120 148.144,197.518 141.790,203.783 C 138.360,207.165 132.921,210.500 130.835,210.500 C 129.756,210.500 129.769,209.566 130.951,202.188 C 132.587,191.965 133.031,187.156 133.347,176.242 C 133.573,168.455 133.500,165.559 133.073,165.295 C 132.421,164.892 132.352,165.064 131.494,169.250 C 131.156,170.900 130.322,173.825 129.641,175.750 C 128.960,177.675 127.877,181.105 127.236,183.371 C 126.594,185.638 125.354,189.463 124.480,191.871 C 123.606,194.280 122.602,197.150 122.248,198.250 C 121.179,201.571 119.708,205.069 116.783,211.246 C 115.252,214.479 114.000,217.231 114.000,217.361 C 114.000,217.955 108.407,226.072 106.053,228.895 C 101.590,234.246 95.937,238.158 89.750,240.176 C 86.728,241.162 80.279,241.425 78.234,240.646 C 77.418,240.336 76.131,239.946 75.375,239.781 C 74.619,239.616 74.000,239.250 74.000,238.968 C 74.000,238.686 75.091,236.834 76.425,234.852 C 78.538,231.712 80.064,228.991 84.892,219.750 C 86.111,217.417 91.669,204.446 92.391,202.250 C 92.662,201.425 93.128,199.850 93.427,198.750 C 93.725,197.650 94.786,194.050 95.784,190.750 C 96.782,187.450 97.783,184.075 98.008,183.250 C 98.233,182.425 98.903,180.175 99.496,178.250 C 101.635,171.308 104.976,156.309 104.995,153.564 C 105.004,152.254 103.664,153.926 102.736,156.382 C 101.825,158.793 97.550,167.729 96.222,170.000 C 95.819,170.688 94.509,173.163 93.310,175.501 C 88.391,185.089 77.804,199.794 71.843,205.317 C 64.242,212.359 58.204,215.683 51.346,216.601 C 47.595,217.102 46.500,217.064 43.374,216.324 C 41.381,215.852 38.643,214.774 37.289,213.929 L 34.829,212.392 L 37.632,209.933 C 46.020,202.575 59.687,182.148 66.878,166.223 C 67.989,163.763 70.010,159.387 71.369,156.500 C 72.727,153.613 74.345,149.900 74.963,148.250 C 75.581,146.600 76.876,143.338 77.840,141.000 C 81.310,132.592 82.256,128.373 79.970,131.500 C 79.468,132.188 77.637,134.639 75.903,136.947 C 74.169,139.256 72.075,142.084 71.250,143.233 C 68.512,147.045 60.971,154.384 56.589,157.500 C 47.229,164.158 40.484,167.000 34.039,167.000 C 30.058,167.000 29.150,166.782 25.120,164.856 C 22.870,163.781 19.000,160.711 19.000,160.003 C 19.000,159.772 20.744,158.344 22.875,156.828 C 35.962,147.524 49.634,131.309 62.928,109.324 C 65.861,104.474 65.657,103.736 62.201,106.694 C 61.113,107.626 57.641,109.623 54.486,111.132 C 42.768,116.739 41.100,117.214 33.250,117.174 C 24.240,117.128 20.100,115.253 16.975,109.806 C 14.490,105.473 14.421,105.556 23.032,102.511 C 31.766,99.421 39.416,94.971 48.000,87.983 C 50.062,86.304 53.888,83.339 56.500,81.393 C 59.112,79.447 61.344,77.775 61.458,77.677 C 62.139,77.098 60.730,76.949 58.894,77.406 C 53.989,78.629 46.025,79.126 41.811,78.472 C 35.212,77.448 29.097,74.525 25.133,70.500 C 22.183,67.506 20.801,65.196 19.660,61.354 C 18.549,57.612 18.869,57.455 26.500,57.996 C 36.820,58.727 45.634,57.525 60.250,53.391 C 64.170,52.282 64.444,51.377 61.125,50.508 C 48.618,47.230 43.382,44.782 38.279,39.826 C 35.319,36.951 34.151,35.373 32.827,32.459 C 31.048,28.545 30.040,24.396 29.859,20.250 C 29.755,17.857 29.810,17.743 31.139,17.590 C 32.039,17.487 34.072,18.222 36.910,19.677 C 47.054,24.878 62.248,28.664 84.318,31.492 C 94.712,32.825 98.378,34.406 101.765,39.021 C 104.124,42.235 104.830,44.475 105.251,50.092 C 105.720,56.342 104.885,58.445 100.714,61.526 C 95.632,65.281 94.097,66.933 93.021,69.808 C 91.527,73.802 91.666,76.825 93.470,79.548 C 96.310,83.835 98.187,84.678 105.000,84.726 C 111.502,84.771 114.035,85.808 117.095,89.680 C 119.681,92.952 119.776,93.231 120.557,99.918 C 121.304,106.307 122.186,107.895 126.340,110.329 L 128.607,111.658 L 136.504,111.196 L 144.401,110.735 L 149.325,106.211 C 154.041,101.880 158.735,95.956 158.355,94.816 C 158.240,94.471 156.692,94.333 154.053,94.433 L 149.930,94.589 L 147.965,92.524 C 145.647,90.087 145.499,89.131 147.375,88.711 C 151.147,87.866 152.289,87.436 154.110,86.174 C 156.182,84.738 158.377,81.856 159.461,79.149 C 160.384,76.841 159.983,69.276 158.809,66.883 C 158.306,65.856 157.110,64.532 156.152,63.940 C 153.320,62.189 147.795,63.049 140.538,66.368 C 137.361,67.822 135.742,67.559 134.526,65.391 C 133.829,64.151 133.851,63.937 134.809,62.648 C 135.380,61.879 136.388,60.983 137.049,60.657 C 138.429,59.975 145.300,57.208 146.667,56.784 C 148.160,56.320 147.325,55.283 145.068,54.800 C 142.562,54.264 140.768,54.761 134.111,57.830 C 127.802,60.740 125.280,61.561 121.714,61.864 C 115.619,62.383 111.255,60.049 110.022,55.609 C 108.891,51.538 109.543,51.135 113.392,53.528 C 117.286,55.949 119.840,55.978 128.756,53.704 C 134.022,52.361 137.477,51.766 140.376,51.702 C 142.645,51.652 144.534,51.417 144.574,51.180 C 144.668,50.626 141.115,48.851 136.716,47.256 C 134.333,46.391 132.226,46.000 129.955,46.000 C 126.408,46.000 125.783,46.368 124.591,49.161 C 123.734,51.170 122.542,50.702 121.029,47.762 C 119.354,44.507 119.423,41.945 121.279,38.535 C 123.474,34.502 125.878,32.845 131.084,31.776 C 131.892,31.610 132.842,30.815 133.494,29.760 C 137.120,23.893 145.501,22.943 161.750,26.557 C 168.262,28.006 172.460,27.996 176.882,26.523 C 181.025,25.143 181.818,25.412 181.249,28.006 C 180.903,29.578 177.293,33.672 175.258,34.799 C 174.295,35.333 174.309,35.406 175.745,37.299 C 178.461,40.881 181.735,43.797 184.631,45.214 C 186.209,45.986 187.500,46.894 187.500,47.231 C 187.500,48.056 186.056,49.313 184.374,49.953 C 182.847,50.533 182.547,52.001 183.750,53.000 C 184.162,53.342 184.500,53.888 184.500,54.213 C 184.500,55.034 188.305,62.822 189.583,64.617 C 190.161,65.429 191.635,66.522 192.859,67.047 C 195.517,68.186 195.454,69.187 192.711,69.408 C 191.633,69.496 190.574,69.739 190.359,69.949 C 189.964,70.336 190.443,72.362 192.713,79.915 C 193.402,82.205 194.228,85.417 194.550,87.052 C 195.435,91.551 196.574,91.584 197.242,87.131 C 197.424,85.919 198.095,82.862 198.734,80.338 C 200.405,73.739 200.698,70.787 199.758,70.007 C 198.690,69.120 198.812,68.351 200.231,67.018 C 200.908,66.382 202.917,62.878 204.695,59.232 C 206.473,55.586 208.169,52.454 208.464,52.272 C 209.511,51.625 208.974,50.681 207.085,49.848 C 205.120,48.981 203.625,47.011 204.212,46.061 C 204.394,45.768 205.376,45.299 206.396,45.020 C 207.416,44.741 208.934,44.091 209.770,43.577 C 211.463,42.536 217.000,36.436 217.000,35.612 C 217.000,35.323 215.875,34.394 214.500,33.548 C 213.125,32.701 212.000,31.771 212.000,31.480 C 212.000,31.190 211.550,30.020 211.000,28.882 C 210.450,27.744 210.000,26.629 210.000,26.406 C 210.000,25.756 211.522,25.941 214.920,27.006 C 219.635,28.485 222.723,28.344 230.750,26.285 C 232.400,25.862 236.338,25.152 239.500,24.707 C 244.316,24.029 245.819,23.997 248.750,24.509 C 253.258,25.297 254.428,25.928 256.933,28.920 C 258.568,30.872 259.482,31.502 261.371,31.973 C 268.739,33.810 273.122,40.493 270.616,46.069 C 269.039,49.577 266.000,51.697 266.000,49.288 C 266.000,48.929 265.534,48.042 264.964,47.317 C 264.026,46.125 263.605,46.000 260.525,46.000 C 258.653,46.000 256.363,46.307 255.436,46.681 C 254.509,47.056 252.119,47.976 250.125,48.725 C 248.131,49.474 246.500,50.376 246.500,50.728 C 246.500,51.166 247.646,51.450 250.125,51.626 C 252.119,51.768 257.125,52.716 261.250,53.733 C 267.308,55.226 269.262,55.518 271.411,55.251 C 274.545,54.860 277.139,53.863 279.342,52.201 C 280.217,51.540 281.173,51.000 281.467,51.000 C 283.182,51.000 280.775,56.683 277.996,59.194 C 276.489,60.555 275.501,60.990 273.284,61.267 C 269.181,61.780 263.990,60.844 259.735,58.823 C 255.791,56.950 247.886,54.806 245.939,55.082 C 243.512,55.425 245.086,56.741 250.539,58.928 C 253.762,60.220 256.500,62.512 256.500,63.916 C 256.500,67.269 252.125,68.158 248.344,65.575 C 245.209,63.434 242.843,62.823 239.050,63.178 C 233.339,63.711 231.558,66.069 231.428,73.272 C 231.333,78.549 231.941,80.312 234.907,83.354 C 237.343,85.853 240.365,87.500 242.513,87.500 C 244.214,87.500 246.000,88.268 246.000,89.000 C 246.000,89.915 242.736,93.162 241.149,93.824 C 239.260,94.614 236.424,94.695 234.095,94.027 C 232.845,93.669 232.386,93.715 232.193,94.219 C 231.709,95.480 235.036,99.909 239.387,103.798 C 241.786,105.943 244.322,108.292 245.022,109.017 C 246.165,110.203 246.775,110.367 251.065,110.649 C 253.689,110.821 256.487,111.210 257.283,111.512 C 258.971,112.154 263.029,111.732 265.296,110.679 C 266.146,110.284 267.562,109.218 268.443,108.308 C 269.876,106.830 270.092,106.212 270.489,102.453 C 271.427,93.562 272.973,89.616 276.375,87.426 C 279.731,85.265 281.168,84.865 286.750,84.540 C 291.895,84.240 292.404,84.114 294.628,82.584 C 297.817,80.390 299.173,77.699 299.118,73.674 C 299.054,68.987 297.872,67.367 290.524,61.894 C 287.090,59.336 286.308,57.593 286.090,52.012 C 285.925,47.813 286.059,46.836 287.223,43.750 C 289.086,38.806 290.614,36.712 293.377,35.316 C 298.115,32.923 301.272,32.206 315.750,30.232 C 326.726,28.736 334.955,26.868 344.360,23.738 C 349.593,21.997 350.739,21.486 356.668,18.252 C 359.267,16.834 360.226,16.526 360.668,16.968 C 361.613,17.912 361.401,26.801 360.367,29.650 C 359.056,33.258 357.786,35.519 355.732,37.901 C 353.273,40.753 347.306,44.730 343.948,45.756 C 342.464,46.210 340.688,46.814 340.000,47.100 C 336.170,48.691 332.095,50.000 330.973,50.000 C 329.422,50.000 327.721,51.144 328.176,51.881 C 328.571,52.519 335.122,54.593 341.000,55.940 C 349.260,57.833 359.750,58.653 366.699,57.949 C 369.543,57.661 371.835,57.635 372.087,57.887 C 372.710,58.510 371.637,63.265 370.201,66.250 C 368.588,69.600 366.321,71.971 362.698,74.094 C 355.375,78.386 348.690,79.522 338.219,78.255 C 334.470,77.802 331.261,77.572 331.088,77.745 C 330.572,78.262 338.472,84.588 349.500,92.491 C 355.133,96.527 367.751,102.727 372.000,103.548 C 373.788,103.893 375.664,104.556 376.169,105.021 C 377.061,105.841 377.058,105.927 376.069,107.864 C 374.702,110.544 370.378,114.368 367.000,115.886 C 364.637,116.948 363.511,117.121 359.000,117.120 C 354.160,117.118 352.091,116.775 346.750,115.087 C 341.920,113.562 333.116,109.442 329.500,107.015 C 325.501,104.330 325.520,104.960 329.625,111.152 C 331.344,113.745 333.572,117.190 334.577,118.808 C 342.319,131.275 358.227,149.071 368.875,157.179 C 370.594,158.488 372.000,159.805 372.000,160.106 C 372.000,161.084 368.092,164.293 365.141,165.737 C 362.737,166.915 361.654,167.141 358.570,167.109 C 356.539,167.088 353.724,166.802 352.314,166.474 C 348.475,165.582 341.289,161.986 336.500,158.561 C 329.558,153.596 318.786,142.444 313.381,134.626 C 311.054,131.259 309.433,129.840 310.240,131.875 C 310.431,132.356 311.341,134.775 312.262,137.250 C 315.629,146.291 317.441,150.835 319.239,154.750 C 320.249,156.950 321.426,159.537 321.854,160.500 C 327.347,172.847 338.278,191.784 343.865,198.631 C 345.382,200.491 348.958,204.242 351.812,206.966 C 354.665,209.690 357.000,212.020 357.000,212.143 C 357.000,212.666 353.029,214.923 350.356,215.920 C 345.106,217.879 337.775,217.124 332.389,214.069 C 327.437,211.261 324.998,209.685 322.750,207.841 C 319.967,205.559 312.595,197.604 309.690,193.750 C 307.689,191.096 303.000,183.718 303.000,183.224 C 303.000,183.062 302.325,181.949 301.500,180.750 C 300.675,179.551 300.000,178.426 300.000,178.250 C 300.000,178.074 299.366,176.990 298.591,175.840 C 297.097,173.625 293.222,165.870 289.679,158.007 C 286.502,150.956 285.757,151.442 287.287,159.570 C 288.005,163.380 288.640,165.951 290.852,174.000 C 291.267,175.512 291.789,177.425 292.010,178.250 C 293.480,183.722 294.235,186.239 296.525,193.310 C 303.011,213.333 306.968,222.055 314.965,233.948 C 316.687,236.509 317.906,238.776 317.673,238.986 C 316.589,239.963 311.983,241.000 308.726,241.000 C 304.419,241.000 298.105,239.089 293.758,236.471 C 284.178,230.698 273.954,213.938 266.630,192.000 C 265.666,189.113 263.694,182.588 262.248,177.500 C 259.213,166.821 258.738,165.500 257.939,165.500 C 257.502,165.500 257.431,167.932 257.658,175.125 C 257.964,184.807 259.029,194.154 260.974,204.232 C 261.670,207.839 261.856,209.844 261.527,210.173 C 260.781,210.919 254.398,208.244 251.546,205.989 C 246.918,202.331 243.296,196.959 241.010,190.359 C 238.893,184.250 237.276,176.328 236.720,169.348 C 236.525,166.898 236.209,165.514 235.870,165.627 C 234.592,166.053 231.401,179.742 230.772,187.500 C 230.254,193.881 233.054,200.897 240.259,211.266 C 244.421,217.256 246.124,219.284 252.161,225.437 C 257.365,230.740 261.350,233.770 263.526,234.077 C 265.630,234.374 265.343,236.086 262.897,237.831 C 260.028,239.877 257.771,241.000 256.525,241.000 C 255.961,241.000 255.500,241.243 255.500,241.541 C 255.500,242.989 270.703,258.881 277.500,264.539 C 282.468,268.674 283.416,269.073 286.803,268.456 C 290.163,267.843 294.149,265.955 298.788,262.779 C 300.549,261.573 303.013,260.196 304.263,259.718 C 306.384,258.909 306.713,258.905 309.143,259.661 C 310.577,260.107 312.319,260.582 313.013,260.717 C 314.921,261.088 318.274,264.216 319.517,266.786 C 320.342,268.489 320.558,269.637 320.370,271.309 C 320.231,272.541 319.976,273.691 319.803,273.863 C 319.631,274.036 318.873,273.609 318.120,272.915 C 314.897,269.946 314.809,269.934 310.993,271.891 C 307.860,273.499 307.178,273.658 303.645,273.608 C 299.553,273.550 297.000,274.186 297.000,275.262 C 297.000,276.240 303.503,278.003 307.975,278.238 C 313.880,278.548 316.336,280.239 318.723,285.639 C 320.094,288.742 320.323,291.566 319.456,294.689 C 318.888,296.735 316.835,299.195 315.944,298.898 C 315.654,298.801 314.929,297.266 314.333,295.486 L 313.250,292.250 L 309.394,292.224 C 305.888,292.201 305.367,292.063 303.644,290.703 C 301.032,288.640 294.503,285.797 293.859,286.441 C 293.250,287.050 295.453,290.681 299.596,295.901 C 301.190,297.909 302.635,300.115 302.808,300.803 C 303.279,302.679 302.716,305.239 301.053,308.793 C 299.862,311.339 299.080,312.289 297.182,313.492 C 295.874,314.321 294.319,315.000 293.727,315.000 C 292.523,315.000 289.500,314.038 289.500,313.656 C 289.500,313.520 290.265,312.515 291.200,311.423 C 293.791,308.395 293.798,307.679 291.245,306.549 C 288.681,305.415 287.519,303.815 286.935,300.610 C 285.983,295.393 280.573,287.098 276.877,285.186 C 275.702,284.579 274.610,284.479 272.094,284.748 C 268.835,285.097 268.199,285.284 264.024,287.121 C 261.536,288.215 259.136,288.376 257.593,287.550 C 256.230,286.820 255.011,286.853 254.789,287.625 C 253.945,290.571 252.804,293.000 252.266,293.000 C 251.400,293.000 250.320,291.284 249.199,288.129 C 248.399,285.877 248.361,285.243 248.906,283.207 C 249.617,280.548 252.049,276.911 253.946,275.667 C 255.293,274.785 258.531,274.662 264.125,275.280 C 266.629,275.557 267.000,275.488 267.000,274.742 C 267.000,272.781 244.985,252.614 241.299,251.200 C 240.810,251.012 239.657,251.728 238.140,253.161 C 235.055,256.075 233.224,257.500 232.565,257.500 C 232.276,257.500 231.805,256.544 231.519,255.375 C 230.538,251.364 229.901,249.739 227.157,244.250 C 223.400,236.737 216.262,228.184 214.097,228.601 C 212.510,228.906 210.962,232.719 210.370,237.779 C 209.200,247.775 211.697,255.734 217.978,262.030 C 222.165,266.227 225.416,267.558 231.554,267.591 C 233.862,267.603 236.536,267.532 237.496,267.432 C 239.142,267.260 239.283,267.366 239.945,269.270 C 240.573,271.077 240.554,271.485 239.768,273.142 C 237.082,278.801 229.223,282.393 223.031,280.790 C 218.846,279.706 216.687,278.666 214.476,276.669 C 213.375,275.674 212.323,275.010 212.139,275.194 C 211.628,275.705 214.102,280.387 216.716,283.857 C 220.156,288.421 224.507,291.403 233.984,295.692 C 238.530,297.749 243.624,299.981 245.303,300.652 C 248.349,301.869 254.078,305.402 256.559,307.594 C 257.279,308.230 258.854,310.550 260.059,312.750 C 262.179,316.620 262.249,316.888 262.210,321.000 C 262.139,328.399 260.100,333.060 254.864,337.787 C 249.299,342.812 244.006,343.482 247.214,338.755 C 251.265,332.786 250.521,326.001 245.242,320.764 C 242.683,318.225 240.722,316.977 232.250,312.496 C 221.725,306.928 219.159,305.319 213.426,300.690 C 211.311,298.983 209.460,297.707 209.312,297.855 C 208.392,298.774 215.457,309.345 220.335,314.347 C 229.933,324.192 233.220,332.569 230.049,339.108 C 228.531,342.240 225.331,345.811 222.959,347.021 C 219.723,348.672 219.539,348.509 219.858,344.287 C 220.116,340.880 220.027,340.383 218.776,338.250 C 218.027,336.971 216.060,334.430 214.404,332.604 C 211.442,329.335 207.331,323.779 204.061,318.625 C 202.191,315.677 200.715,315.063 201.239,317.451 C 201.414,318.249 201.762,320.668 202.011,322.826 C 202.658,328.426 203.251,330.934 205.348,336.941 C 208.126,344.900 207.897,347.929 204.061,354.000 C 202.125,357.065 196.657,363.000 195.770,363.000 C 195.455,363.000 193.704,361.419 191.877,359.488 Z M 246.973,38.696 C 251.052,35.264 250.093,33.928 243.906,34.424 C 241.516,34.615 239.391,34.942 239.184,35.150 C 238.654,35.679 243.829,39.916 245.087,39.982 C 245.272,39.992 246.121,39.413 246.973,38.696 Z M 148.978,37.511 C 152.531,35.717 152.941,35.180 151.317,34.440 C 149.640,33.675 142.535,34.326 142.170,35.278 C 141.788,36.273 143.897,39.000 145.048,39.000 C 145.587,39.000 147.356,38.330 148.978,37.511 Z" fill="#000000" fill-rule="evenodd" /></svg>