<svg xmlns="http://www.w3.org/2000/svg" viewBox="0 0 516 510" width="516" height="510"><path d="M 254.443,494.375 C 254.117,493.756 251.781,490.663 249.252,487.500 C 244.348,481.367 240.173,477.206 233.744,472.042 C 226.645,466.341 226.404,466.053 226.786,463.754 C 226.969,462.652 227.400,461.188 227.744,460.500 C 229.205,457.584 237.129,433.090 238.016,428.750 C 238.241,427.650 238.684,425.850 239.001,424.750 C 239.319,423.650 239.782,421.625 240.031,420.250 C 240.280,418.875 240.717,416.738 241.002,415.500 C 241.907,411.575 242.145,409.500 241.691,409.502 C 241.448,409.504 239.941,412.035 238.342,415.127 C 234.105,423.319 232.560,425.932 229.587,429.930 C 223.344,438.325 215.531,444.359 206.535,447.733 C 203.167,448.996 200.221,449.529 194.941,449.830 C 188.846,450.178 183.739,448.994 177.001,445.674 C 173.052,443.727 171.535,442.612 167.987,439.042 C 164.610,435.644 163.286,433.865 161.634,430.502 C 160.486,428.165 159.719,426.081 159.929,425.871 C 160.140,425.660 162.548,425.722 165.281,426.008 C 172.360,426.748 180.918,425.801 185.878,423.729 C 186.837,423.328 187.954,423.000 188.360,423.000 C 189.567,423.000 197.486,418.990 201.250,416.473 C 207.826,412.075 216.912,401.162 221.715,391.893 C 223.756,387.955 227.237,379.064 228.428,374.750 C 231.586,363.301 232.333,359.496 233.537,348.717 C 234.163,343.106 233.693,335.888 232.496,332.740 C 231.462,330.020 229.062,330.500 225.594,334.120 C 222.436,337.418 217.500,343.445 217.500,344.003 C 217.500,344.234 216.699,345.472 215.721,346.754 C 214.742,348.036 213.272,350.360 212.454,351.918 C 211.636,353.475 210.758,355.087 210.502,355.500 C 209.496,357.128 207.064,363.356 206.729,365.165 C 206.533,366.218 206.030,367.212 205.610,367.373 C 204.515,367.793 201.496,364.151 198.367,358.636 C 196.928,356.098 195.445,354.017 195.072,354.011 C 194.265,353.998 187.697,359.032 180.750,364.987 C 178.000,367.345 174.569,370.246 173.125,371.433 C 171.681,372.621 170.500,373.889 170.500,374.250 C 170.500,375.443 175.064,376.520 181.500,376.845 C 190.154,377.283 191.912,378.189 193.765,383.162 C 194.259,384.488 195.128,386.164 195.696,386.886 C 197.843,389.615 197.017,398.003 194.166,402.428 C 193.223,403.892 193.017,403.648 191.275,399.000 C 189.395,393.987 189.056,393.657 186.614,394.462 C 184.049,395.309 182.124,394.738 177.826,391.856 C 175.848,390.529 173.321,389.317 171.829,388.980 C 168.624,388.255 160.995,387.692 157.543,387.925 L 154.950,388.100 L 148.150,395.030 C 141.552,401.753 141.302,402.087 139.732,406.262 C 137.828,411.323 136.679,412.719 133.095,414.324 L 130.441,415.514 L 130.752,417.882 C 130.923,419.184 131.315,421.315 131.624,422.616 C 131.932,423.917 132.018,425.148 131.816,425.351 C 131.203,425.964 126.901,423.405 124.436,420.962 C 121.795,418.345 121.642,417.759 121.185,408.455 L 120.899,402.659 L 125.020,398.955 C 129.602,394.836 136.647,387.707 136.939,386.893 C 137.462,385.437 123.785,388.892 120.382,391.076 C 118.089,392.547 117.485,392.710 114.805,392.577 C 113.152,392.495 111.387,392.207 110.881,391.936 C 110.376,391.666 109.555,391.574 109.058,391.732 C 108.207,392.002 105.373,395.768 103.988,398.470 L 103.363,399.691 L 102.219,398.362 C 100.951,396.887 100.205,392.716 100.636,389.504 C 100.779,388.442 101.604,386.600 102.470,385.411 C 103.337,384.223 104.930,381.900 106.012,380.250 C 109.159,375.447 113.244,373.464 117.750,374.552 C 120.666,375.255 132.750,374.469 132.750,373.575 C 132.750,373.204 130.845,371.910 128.516,370.700 C 125.095,368.922 123.783,368.500 121.674,368.500 C 118.281,368.500 116.986,367.968 114.260,365.456 C 112.098,363.463 111.923,363.398 109.631,363.729 C 108.097,363.951 106.557,364.623 105.303,365.618 C 103.432,367.103 103.329,367.126 102.667,366.221 C 102.288,365.703 102.127,364.935 102.310,364.514 C 102.492,364.094 102.753,363.075 102.890,362.250 C 103.165,360.597 105.212,357.384 107.121,355.609 C 107.861,354.922 110.182,353.978 112.967,353.232 C 115.508,352.552 118.067,351.660 118.654,351.248 C 120.111,350.228 123.937,350.300 125.580,351.378 C 126.311,351.857 129.461,354.404 132.580,357.036 C 139.463,362.846 141.887,364.521 146.759,366.834 C 152.308,369.470 151.901,369.721 168.125,353.652 C 174.106,347.728 179.000,342.683 179.000,342.441 C 179.000,342.198 178.156,342.000 177.124,342.000 C 174.751,342.000 166.046,339.863 164.168,338.820 C 163.388,338.386 161.909,337.699 160.880,337.293 C 158.476,336.344 158.812,335.420 161.888,334.519 C 165.743,333.391 171.106,330.690 174.559,328.139 C 187.509,318.568 203.172,301.930 208.295,292.299 C 212.077,285.189 212.766,280.574 211.288,272.250 C 210.602,268.381 210.348,267.378 209.520,265.250 C 209.306,264.700 208.635,262.710 208.029,260.828 C 206.167,255.046 204.533,252.958 203.468,255.000 C 203.107,255.691 201.692,260.422 200.401,265.250 C 198.586,272.038 194.877,281.682 192.672,285.348 C 187.792,293.458 180.592,300.141 172.960,303.644 C 170.286,304.872 162.705,306.686 161.762,306.324 C 160.678,305.908 160.996,303.668 163.586,293.500 C 164.671,289.238 166.113,283.500 166.790,280.750 C 167.467,278.000 168.224,275.075 168.474,274.250 C 169.457,270.997 170.944,262.052 171.093,258.500 C 171.278,254.075 170.424,253.446 168.716,256.750 C 161.475,270.755 160.455,272.480 150.696,287.250 C 142.474,299.694 141.499,300.916 133.679,308.583 C 126.084,316.030 121.381,319.161 113.376,322.099 C 108.396,323.927 104.942,324.468 97.962,324.512 C 91.161,324.554 82.500,322.833 82.500,321.438 C 82.500,321.217 84.423,318.609 86.772,315.643 C 101.609,296.915 124.302,264.090 133.882,247.500 C 135.391,244.887 137.272,241.755 138.063,240.539 C 140.897,236.180 139.846,236.443 133.670,241.641 C 122.842,250.755 115.306,256.462 105.000,263.352 C 95.302,269.837 90.167,272.236 80.399,274.847 C 75.783,276.081 74.397,276.225 67.000,276.237 C 61.827,276.245 57.957,276.017 56.625,275.625 C 55.456,275.281 53.544,274.729 52.375,274.398 C 48.110,273.190 38.392,268.129 38.650,267.250 C 38.730,266.975 40.205,265.850 41.927,264.750 C 43.648,263.650 48.363,260.601 52.403,257.975 C 56.444,255.349 60.087,253.066 60.500,252.902 C 60.913,252.738 62.263,251.858 63.500,250.945 C 64.737,250.033 67.888,247.834 70.500,246.058 C 77.198,241.505 89.721,232.310 96.500,226.969 C 99.662,224.477 104.500,220.718 107.250,218.617 C 114.366,213.179 118.411,209.819 118.459,209.310 C 118.524,208.617 115.373,209.302 112.432,210.621 C 110.957,211.282 108.963,212.110 108.000,212.462 C 107.037,212.813 105.800,213.287 105.250,213.515 C 104.118,213.984 98.460,215.979 93.250,217.748 C 81.228,221.829 69.114,224.692 60.042,225.595 C 54.780,226.119 53.659,226.073 47.787,225.086 C 36.640,223.214 28.898,219.510 22.549,213.014 C 20.050,210.457 15.000,203.400 15.000,202.465 C 15.000,201.777 15.944,201.418 19.666,200.686 C 21.637,200.299 24.206,199.761 25.375,199.491 C 26.544,199.221 28.456,198.784 29.625,198.519 C 49.520,194.020 70.777,188.304 83.000,184.167 C 85.888,183.189 88.925,182.212 89.750,181.995 C 90.575,181.778 94.513,180.434 98.500,179.009 C 102.487,177.584 106.144,176.298 106.625,176.151 C 107.106,176.004 107.500,175.657 107.500,175.381 C 107.500,175.051 104.717,174.999 99.375,175.230 C 81.684,175.994 67.976,175.762 56.000,174.493 C 42.597,173.073 31.623,169.090 25.024,163.250 C 17.892,156.937 11.952,147.298 11.814,141.814 C 11.751,139.277 11.766,139.250 13.250,139.286 C 14.615,139.318 20.350,139.889 36.500,141.601 C 45.649,142.571 88.685,142.344 98.500,141.274 C 107.545,140.288 108.500,140.124 108.500,139.559 C 108.500,139.327 107.094,138.852 105.375,138.505 C 102.395,137.903 98.009,136.811 92.000,135.177 C 90.487,134.766 87.900,134.097 86.250,133.691 C 84.600,133.284 81.787,132.520 80.000,131.993 C 78.213,131.466 74.137,130.352 70.942,129.517 C 65.420,128.075 56.902,125.458 54.750,124.541 C 47.803,121.583 44.949,120.247 43.386,119.222 C 42.360,118.550 41.348,117.996 41.136,117.991 C 40.924,117.986 38.730,116.355 36.260,114.366 C 28.741,108.310 22.699,99.718 19.929,91.143 C 18.883,87.907 17.925,77.931 18.560,76.902 C 18.767,76.568 20.764,77.150 24.067,78.508 C 31.918,81.733 51.335,88.687 56.250,90.033 C 60.423,91.175 61.755,91.567 68.000,93.488 C 71.713,94.629 75.650,95.758 76.750,95.996 C 77.850,96.234 81.225,97.104 84.250,97.930 C 94.189,100.643 97.692,101.565 99.734,102.008 C 105.943,103.354 111.813,104.603 112.250,104.672 C 112.525,104.715 112.862,104.525 113.000,104.250 C 113.236,103.778 110.710,102.307 99.500,96.389 C 83.460,87.920 81.902,87.065 78.153,84.666 C 76.720,83.750 75.406,83.000 75.231,83.000 C 74.643,83.000 64.474,76.022 60.849,73.131 C 46.357,61.574 37.900,49.546 35.761,37.451 C 34.566,30.692 35.014,17.939 36.503,16.329 C 37.059,15.727 37.727,16.131 53.250,26.447 C 60.950,31.564 68.375,36.456 69.750,37.318 C 71.125,38.180 74.162,40.109 76.500,41.605 C 82.043,45.152 87.949,48.738 92.000,51.016 C 93.787,52.021 97.275,54.033 99.750,55.488 C 103.743,57.835 133.600,73.000 134.228,73.000 C 134.470,73.000 138.280,74.671 144.234,77.388 C 145.875,78.137 150.518,80.376 154.550,82.364 C 170.667,90.307 177.203,98.741 177.128,111.500 C 177.084,119.148 175.975,122.682 171.089,130.750 C 162.534,144.874 161.230,151.819 165.477,160.625 C 169.140,168.221 177.905,174.295 186.866,175.447 C 193.370,176.283 204.903,174.847 206.718,172.974 C 207.104,172.576 208.891,169.313 210.689,165.723 C 214.020,159.075 217.808,152.488 221.859,146.302 C 228.368,136.364 233.000,124.323 233.000,117.344 C 233.000,113.455 231.561,109.382 229.385,107.113 C 227.137,104.769 222.118,102.356 216.750,101.038 C 211.597,99.772 210.000,99.196 210.000,98.603 C 210.000,98.042 213.377,96.219 215.250,95.768 C 218.963,94.873 228.094,95.725 231.153,97.252 C 232.828,98.087 234.000,98.219 234.000,97.573 C 234.000,96.940 229.104,92.445 226.399,90.594 C 221.835,87.470 214.702,84.997 210.292,85.008 C 205.029,85.021 200.999,86.755 198.774,89.965 C 197.270,92.136 196.222,92.547 195.819,91.125 C 195.683,90.644 195.423,88.222 195.242,85.744 C 194.868,80.631 195.549,75.844 197.075,72.852 C 201.107,64.949 211.605,60.426 220.922,62.577 L 223.420,63.153 L 226.585,60.497 C 232.737,55.334 238.260,53.831 247.083,54.919 C 251.679,55.486 260.109,57.351 265.500,58.993 C 276.272,62.274 278.720,62.657 289.250,62.705 C 294.750,62.730 299.812,62.638 300.500,62.500 C 301.680,62.264 301.748,62.368 301.708,64.361 C 301.675,65.992 301.145,67.255 299.371,69.922 C 297.435,72.834 296.289,73.901 292.038,76.749 C 289.267,78.606 287.006,80.378 287.013,80.687 C 287.020,80.997 287.603,82.938 288.307,85.000 C 290.497,91.408 290.966,93.335 292.756,103.250 C 293.805,109.065 294.104,112.873 294.517,125.740 C 295.209,147.259 297.007,158.056 301.525,167.834 C 303.025,171.080 305.385,173.174 309.000,174.467 C 311.988,175.536 323.691,175.738 327.715,174.789 C 333.791,173.357 338.635,170.441 341.755,166.336 C 346.855,159.626 348.587,152.385 346.766,145.391 C 345.913,142.116 343.318,136.337 340.565,131.583 C 334.606,121.289 334.067,119.818 333.661,112.750 C 333.443,108.958 333.575,106.965 334.207,104.500 C 335.850,98.091 340.802,91.779 347.767,87.215 C 350.599,85.360 367.881,76.500 368.669,76.500 C 368.789,76.500 371.106,75.471 373.818,74.214 C 376.531,72.956 379.538,71.579 380.500,71.154 C 383.147,69.985 406.498,58.303 408.500,57.147 C 409.462,56.591 411.712,55.291 413.500,54.258 C 415.288,53.225 417.538,51.876 418.500,51.259 C 420.115,50.224 429.839,44.401 431.874,43.250 C 436.467,40.652 462.947,23.220 469.225,18.661 C 470.861,17.472 472.569,16.500 473.020,16.500 C 474.234,16.500 474.867,18.341 475.559,23.881 C 476.659,32.701 474.666,42.490 469.975,51.300 C 466.167,58.451 463.147,62.216 456.052,68.654 C 451.753,72.556 450.265,73.680 442.750,78.704 C 437.101,82.481 421.395,91.527 412.327,96.228 C 402.863,101.133 401.751,101.669 398.367,102.955 C 397.062,103.452 396.463,104.500 397.486,104.500 C 398.007,104.500 402.191,103.667 411.750,101.660 C 420.485,99.826 436.439,95.854 442.500,94.003 C 445.387,93.122 448.425,92.222 449.250,92.004 C 451.887,91.308 464.697,86.873 473.750,83.521 C 475.400,82.910 479.155,81.553 482.094,80.506 C 485.033,79.458 488.467,78.087 489.726,77.458 C 493.082,75.783 493.294,76.213 492.551,83.171 C 491.580,92.261 490.095,96.418 485.098,104.032 C 477.731,115.256 463.224,123.784 442.077,129.320 C 439.422,130.016 436.575,130.780 435.750,131.019 C 434.925,131.258 431.775,132.052 428.750,132.784 C 425.725,133.516 421.900,134.522 420.250,135.021 C 418.600,135.520 414.413,136.502 410.946,137.203 C 404.101,138.586 403.000,138.904 403.000,139.496 C 403.000,140.710 427.123,142.104 449.250,142.168 C 469.577,142.227 472.736,142.055 490.614,139.924 C 495.213,139.376 499.234,139.085 499.547,139.279 C 501.100,140.239 497.972,149.259 494.108,154.968 C 491.155,159.331 489.482,161.064 484.940,164.463 C 478.763,169.087 472.278,171.802 463.500,173.441 C 454.889,175.048 452.145,175.185 427.875,175.217 C 404.397,175.248 400.238,175.492 404.787,176.571 C 405.592,176.762 410.188,178.261 415.000,179.903 C 419.812,181.544 425.663,183.472 428.000,184.186 C 435.256,186.404 446.166,189.586 448.000,190.020 C 448.962,190.247 450.650,190.686 451.750,190.996 C 453.830,191.580 460.285,193.179 463.750,193.968 C 464.850,194.218 468.562,195.118 472.000,195.966 C 481.837,198.395 488.426,199.848 492.670,200.526 C 494.916,200.884 496.696,201.429 496.838,201.800 C 497.415,203.302 488.893,213.785 484.266,217.267 C 477.931,222.035 470.162,224.569 458.250,225.751 C 454.681,226.106 437.588,223.880 433.500,222.529 C 432.812,222.302 431.238,221.831 430.000,221.482 C 428.762,221.134 426.062,220.296 424.000,219.620 C 421.938,218.943 418.900,217.980 417.250,217.479 C 412.925,216.165 400.795,211.871 397.039,210.323 C 393.762,208.973 392.493,208.707 392.510,209.375 C 392.519,209.757 403.598,218.626 411.750,224.779 C 414.225,226.646 417.488,229.230 419.000,230.521 C 422.059,233.130 423.382,234.085 432.750,240.437 C 447.304,250.305 454.056,254.811 460.000,258.623 C 468.116,263.827 471.967,266.616 471.985,267.304 C 472.001,267.893 467.421,270.852 464.500,272.140 C 457.700,275.139 452.128,276.253 444.000,276.239 C 437.335,276.228 434.532,275.763 427.000,273.422 C 415.660,269.896 401.378,261.074 383.750,246.705 C 376.961,241.171 372.000,238.037 372.000,239.283 C 372.000,240.011 377.403,248.571 382.350,255.680 C 383.662,257.566 384.992,259.718 385.305,260.461 C 385.858,261.776 391.780,270.909 395.099,275.565 C 396.007,276.839 399.000,281.067 401.750,284.962 C 408.708,294.816 409.211,295.507 414.262,302.164 C 416.731,305.417 419.088,308.591 419.500,309.218 C 419.913,309.845 421.488,311.871 423.000,313.720 C 424.513,315.569 426.490,317.995 427.394,319.111 C 428.297,320.226 428.960,321.369 428.866,321.651 C 428.549,322.604 420.320,324.517 415.250,324.816 C 405.515,325.391 395.090,322.273 386.349,316.171 C 375.635,308.691 362.662,292.854 352.009,274.250 C 351.537,273.425 350.216,271.227 349.075,269.366 C 347.934,267.505 347.000,265.877 347.000,265.747 C 347.000,265.618 345.537,263.048 343.749,260.035 C 338.905,251.875 338.616,251.999 340.307,261.500 C 342.545,274.072 344.097,281.070 348.014,296.243 C 350.200,304.711 350.348,305.898 349.270,306.311 C 347.747,306.896 339.113,304.556 335.500,302.579 C 324.633,296.635 318.609,288.585 312.807,272.250 C 311.927,269.775 310.914,266.400 310.554,264.750 C 309.406,259.482 307.307,253.768 306.461,253.608 C 305.468,253.421 301.681,263.917 299.736,272.250 C 298.690,276.729 298.812,281.972 300.047,285.641 C 304.079,297.623 321.226,317.160 337.534,328.355 C 340.508,330.396 345.458,332.900 349.143,334.226 C 350.757,334.807 352.117,335.500 352.164,335.766 C 352.338,336.744 342.168,341.000 339.659,341.000 C 339.132,341.000 338.445,341.255 338.134,341.566 C 337.823,341.877 336.315,342.121 334.784,342.107 C 332.787,342.089 332.000,342.270 332.000,342.748 C 332.000,343.418 349.462,360.470 355.496,365.691 C 357.282,367.236 359.194,368.495 359.746,368.489 C 362.536,368.459 365.739,366.348 382.619,353.415 C 384.295,352.131 386.360,350.955 387.208,350.803 C 389.073,350.467 392.080,351.110 393.744,352.200 C 394.415,352.640 395.495,353.000 396.143,353.000 C 397.847,353.000 402.020,354.500 403.655,355.700 C 406.577,357.846 409.484,365.154 407.690,365.842 C 407.274,366.002 405.567,365.428 403.896,364.566 C 402.226,363.705 400.521,363.000 400.106,363.000 C 399.692,363.000 398.430,363.739 397.301,364.643 C 393.846,367.410 392.670,367.972 389.655,368.297 C 387.698,368.507 385.833,369.143 383.941,370.244 C 382.395,371.143 380.317,372.148 379.323,372.476 C 377.319,373.137 376.587,373.883 377.593,374.239 C 377.954,374.367 380.950,374.699 384.250,374.978 C 388.656,375.349 391.009,375.327 393.108,374.895 C 398.266,373.833 402.352,375.933 404.988,381.000 C 405.346,381.688 405.950,382.587 406.331,383.000 C 409.938,386.908 410.921,389.796 410.283,394.605 C 409.928,397.284 408.789,400.000 408.022,400.000 C 407.774,400.000 407.058,398.974 406.431,397.720 C 404.787,394.427 402.273,392.000 400.505,392.000 C 399.710,392.000 398.920,392.225 398.750,392.500 C 398.580,392.775 397.292,393.000 395.887,393.000 C 393.891,393.000 392.614,392.604 390.042,391.190 C 387.755,389.932 385.071,389.025 381.250,388.219 C 378.225,387.581 375.244,386.907 374.625,386.721 C 372.656,386.130 373.372,387.618 376.083,389.750 C 377.482,390.850 381.186,394.242 384.313,397.288 L 390.000,402.826 L 390.000,406.558 C 390.000,408.611 389.662,411.586 389.250,413.169 C 388.837,414.753 388.500,416.718 388.500,417.536 C 388.500,419.200 385.195,423.212 383.339,423.801 C 382.750,423.988 381.656,424.594 380.906,425.149 C 379.801,425.966 379.401,426.040 378.798,425.540 C 378.211,425.053 378.167,424.641 378.590,423.586 C 378.885,422.851 379.406,420.960 379.749,419.383 C 380.449,416.166 380.120,415.321 377.975,414.826 C 375.892,414.345 372.746,411.012 371.767,408.250 C 369.470,401.769 369.354,401.601 362.368,394.623 L 355.487,387.750 L 351.368,387.588 C 349.103,387.498 345.103,387.749 342.478,388.145 C 338.401,388.759 337.200,389.176 334.228,391.009 C 327.860,394.936 327.234,395.156 324.375,394.470 C 321.966,393.892 321.816,393.918 320.939,395.058 C 320.435,395.714 320.016,396.700 320.009,397.250 C 320.002,397.800 319.547,398.987 318.998,399.887 C 318.449,400.787 318.000,401.856 318.000,402.262 C 318.000,402.668 317.650,403.000 317.222,403.000 C 316.003,403.000 313.908,397.737 313.641,394.000 C 313.429,391.043 313.561,390.457 315.104,387.500 C 318.932,380.165 320.506,378.161 322.909,377.560 C 323.922,377.307 327.637,376.960 331.165,376.790 C 335.226,376.594 338.254,376.193 339.415,375.698 L 341.250,374.916 L 337.750,371.674 C 332.883,367.165 320.622,356.474 318.453,354.847 C 317.464,354.106 316.339,353.514 315.953,353.532 C 315.566,353.549 314.294,355.518 313.125,357.907 C 310.595,363.077 306.364,367.974 305.110,367.184 C 304.677,366.910 303.739,364.676 303.026,362.218 C 301.537,357.083 300.827,355.616 295.582,346.830 C 291.627,340.204 286.035,333.530 282.723,331.483 C 280.674,330.217 279.956,330.562 278.612,333.460 C 277.240,336.420 277.428,352.501 278.923,360.000 C 284.763,389.304 295.910,407.761 314.484,418.886 C 318.403,421.233 323.220,423.074 330.000,424.817 C 334.148,425.882 335.703,426.023 342.277,425.928 C 346.417,425.869 350.059,425.978 350.372,426.171 C 351.896,427.113 347.260,434.675 342.181,439.531 C 336.213,445.237 332.919,447.077 325.207,449.013 C 321.423,449.963 319.919,450.089 315.250,449.847 C 307.899,449.465 302.018,447.426 295.497,442.998 C 292.175,440.742 281.000,430.189 281.000,429.307 C 281.000,428.989 280.355,427.945 279.568,426.989 C 277.646,424.656 273.483,417.338 271.461,412.735 C 269.843,409.053 268.549,407.683 269.232,410.375 C 269.424,411.131 269.761,413.100 269.981,414.750 C 270.369,417.661 270.945,420.863 271.916,425.500 C 272.398,427.802 276.598,441.939 277.433,444.069 C 277.688,444.718 278.184,446.262 278.536,447.500 C 278.889,448.738 279.303,449.975 279.457,450.250 C 279.611,450.525 280.325,452.438 281.045,454.500 C 281.764,456.562 282.935,459.786 283.646,461.664 C 284.357,463.541 284.835,465.341 284.709,465.664 C 284.582,465.986 283.270,467.091 281.792,468.118 C 275.527,472.474 265.909,482.048 260.435,489.375 C 257.919,492.744 255.674,495.500 255.448,495.500 C 255.221,495.500 254.769,494.994 254.443,494.375 Z M 252.527,76.550 C 253.324,75.753 254.994,74.608 256.238,74.006 C 257.482,73.404 258.500,72.701 258.500,72.445 C 258.500,71.753 256.674,71.155 252.750,70.559 C 250.825,70.266 247.338,69.706 245.000,69.314 C 242.662,68.922 240.590,68.750 240.394,68.932 C 240.198,69.114 240.879,70.919 241.906,72.945 C 243.454,75.995 244.073,76.734 245.512,77.254 C 248.667,78.392 250.910,78.167 252.527,76.550 Z" fill="#000000" fill-rule="evenodd" /></svg>