<svg xmlns="http://www.w3.org/2000/svg" viewBox="0 0 461 578" width="461" height="578"><path d="M 86.743,559.475 C 83.795,557.958 80.723,554.441 80.126,551.899 C 79.789,550.466 79.644,470.080 79.692,310.500 L 79.763,71.250 L 230.132,71.124 L 380.500,70.998 L 380.494,310.374 C 380.491,442.031 380.347,550.611 380.173,551.663 C 379.743,554.266 375.778,558.609 373.098,559.412 C 370.148,560.295 367.204,560.124 364.855,558.931 C 362.103,557.534 361.499,557.044 354.650,550.659 C 351.459,547.684 348.601,545.021 348.299,544.741 C 347.997,544.461 341.813,538.723 334.556,531.991 C 327.299,525.258 316.612,515.385 310.806,510.050 C 283.146,484.633 275.413,477.493 271.250,473.532 C 262.687,465.383 248.242,452.080 246.250,450.508 C 245.150,449.639 241.152,445.875 237.366,442.142 C 231.507,436.365 230.334,435.422 229.487,435.803 C 228.940,436.049 225.527,439.062 221.901,442.500 C 218.276,445.938 213.279,450.663 210.798,453.000 C 208.317,455.337 204.817,458.712 203.019,460.500 C 201.221,462.288 199.273,464.087 198.691,464.500 C 197.634,465.249 191.872,470.479 183.288,478.481 C 180.792,480.807 177.850,483.539 176.750,484.550 C 175.650,485.561 173.175,487.840 171.250,489.615 C 169.325,491.389 164.893,495.434 161.400,498.603 C 157.908,501.772 151.494,507.714 147.147,511.807 C 142.800,515.901 136.558,521.725 133.276,524.750 C 129.994,527.775 126.604,530.925 125.743,531.750 C 124.881,532.575 122.304,534.938 120.014,537.000 C 117.725,539.062 113.691,542.841 111.051,545.398 C 96.241,559.734 92.010,562.185 86.743,559.475 Z M 232.986,372.463 C 236.470,367.495 240.333,358.429 241.232,353.108 C 241.427,351.952 241.804,350.871 242.068,350.708 C 242.333,350.544 244.216,350.781 246.253,351.235 C 249.188,351.888 250.532,351.952 252.730,351.546 C 255.710,350.995 257.500,350.235 257.500,349.520 C 257.500,349.026 253.437,345.014 252.928,345.005 C 252.751,345.002 251.367,343.369 249.852,341.375 C 243.288,332.733 238.506,319.025 238.314,308.296 L 238.250,304.750 L 241.242,304.750 L 244.234,304.750 L 245.299,309.750 C 246.651,316.105 247.584,318.746 250.302,323.916 C 254.178,331.288 259.057,335.869 265.329,338.027 C 272.328,340.435 279.858,338.136 284.087,332.300 C 286.059,329.578 285.935,329.002 283.375,328.991 C 277.354,328.967 269.410,325.925 265.750,322.243 C 263.530,320.010 259.342,313.080 258.804,310.750 C 257.562,305.372 257.501,304.808 258.123,304.417 C 258.468,304.200 259.087,304.114 259.500,304.226 C 259.913,304.337 262.500,304.574 265.250,304.751 C 270.984,305.120 273.023,304.556 275.170,302.004 C 277.614,299.099 277.377,295.001 274.613,292.364 C 272.562,290.407 270.766,289.941 265.522,290.004 C 258.211,290.093 258.499,290.139 258.509,288.875 C 258.523,287.001 260.255,280.926 261.756,277.489 C 266.527,266.559 275.044,259.051 284.432,257.499 C 288.792,256.778 291.328,257.099 294.842,258.818 C 298.171,260.445 300.823,263.037 302.137,265.946 C 303.605,269.195 303.532,277.892 302.000,282.250 C 300.425,286.731 300.433,286.775 302.750,286.591 C 304.986,286.414 310.743,284.588 314.368,282.907 C 321.587,279.558 328.849,272.687 331.894,266.323 C 334.287,261.323 335.071,257.459 335.093,250.559 C 335.127,239.351 330.931,230.894 321.812,223.793 C 316.202,219.424 312.183,217.656 305.149,216.460 C 297.134,215.098 286.201,218.067 277.639,223.932 C 265.645,232.147 256.747,244.060 250.888,259.750 C 248.057,267.331 245.210,280.249 244.883,287.000 L 244.750,289.750 L 241.802,289.902 C 240.181,289.986 238.649,289.849 238.399,289.599 C 237.865,289.065 239.077,275.485 240.258,268.750 C 242.310,257.058 246.246,243.875 251.904,229.750 C 259.669,210.363 261.241,205.134 262.500,194.501 C 263.008,190.214 262.560,182.511 261.454,176.500 C 260.689,172.340 258.633,166.323 256.192,161.098 C 254.986,158.518 254.000,156.319 254.000,156.211 C 254.000,155.966 251.413,151.641 249.088,148.000 C 243.001,138.465 231.371,123.962 229.865,124.026 C 229.176,124.056 219.211,136.038 215.479,141.324 C 211.744,146.614 206.211,155.872 204.466,159.750 C 201.856,165.552 201.602,166.162 200.818,168.500 C 200.103,170.631 198.453,177.271 197.728,180.932 C 196.673,186.267 198.029,200.526 200.255,207.500 C 201.982,212.911 206.081,224.483 208.226,230.000 C 209.241,232.613 210.750,236.550 211.579,238.750 C 212.408,240.950 213.286,243.255 213.531,243.872 C 213.775,244.489 214.848,248.089 215.914,251.872 C 217.630,257.960 218.422,261.661 220.489,273.250 C 220.783,274.900 221.166,279.344 221.340,283.125 L 221.656,290.000 L 218.578,290.000 C 216.454,290.000 215.497,289.806 215.491,289.375 C 215.462,287.248 214.385,278.891 213.718,275.622 C 212.397,269.140 209.759,260.775 207.293,255.250 C 206.679,253.875 205.875,251.963 205.506,251.000 C 205.137,250.037 204.571,248.912 204.248,248.500 C 203.925,248.088 202.800,246.175 201.749,244.250 C 193.781,229.670 177.512,217.852 163.173,216.230 C 159.192,215.779 151.401,216.834 148.266,218.248 C 146.882,218.872 145.188,219.553 144.500,219.762 C 142.703,220.306 138.113,223.514 134.811,226.531 C 130.441,230.525 127.914,234.817 125.703,242.000 C 124.598,245.591 124.782,255.179 126.046,259.869 C 129.369,272.202 139.848,282.088 153.205,285.492 C 158.260,286.780 159.738,286.813 159.240,285.625 C 156.792,279.797 156.790,279.786 156.774,274.000 C 156.761,268.954 156.899,267.987 157.901,266.102 C 160.409,261.387 164.958,257.996 169.818,257.220 C 176.559,256.145 186.791,260.545 191.977,266.750 C 194.820,270.151 198.697,278.313 199.997,283.631 C 201.659,290.433 201.937,290.116 194.250,290.189 C 186.964,290.257 185.156,290.892 183.311,294.026 C 182.030,296.202 182.442,300.589 184.095,302.359 C 186.422,304.850 187.595,305.121 195.203,304.928 L 202.250,304.750 L 202.113,306.000 C 201.821,308.660 199.459,315.410 198.126,317.395 C 194.804,322.341 190.787,325.472 185.250,327.430 C 182.906,328.259 177.689,329.059 175.679,328.897 C 174.663,328.815 173.768,328.996 173.659,329.306 C 173.326,330.249 177.245,334.734 179.815,336.352 C 183.468,338.653 185.594,339.166 190.260,338.875 C 196.203,338.504 199.542,336.875 204.021,332.159 C 209.369,326.530 212.992,318.542 214.641,308.750 L 215.314,304.750 L 218.230,304.598 C 219.834,304.514 221.356,304.656 221.614,304.914 C 222.427,305.727 220.772,317.897 219.154,323.000 C 216.064,332.740 210.719,341.530 204.754,346.680 C 203.239,347.988 202.000,349.281 202.000,349.553 C 202.000,350.401 206.143,351.977 208.401,351.989 C 209.585,351.995 212.144,351.638 214.088,351.196 C 218.103,350.283 218.236,350.355 218.765,353.740 C 219.194,356.488 222.711,365.559 224.837,369.404 C 226.990,373.298 229.337,376.031 230.231,375.688 C 230.601,375.546 231.841,374.095 232.986,372.463 Z M 399.447,69.443 C 397.745,68.818 396.988,67.053 396.640,62.894 C 396.483,61.029 396.083,59.276 395.750,59.000 C 395.348,58.666 339.856,58.541 229.698,58.624 L 64.250,58.750 L 63.936,62.620 C 63.217,71.463 60.117,71.501 46.000,62.840 C 44.212,61.744 41.288,60.013 39.500,58.994 C 30.016,53.588 26.237,51.373 21.125,48.219 C 18.032,46.311 14.713,44.300 13.752,43.750 C 12.790,43.200 12.002,42.501 12.001,42.196 C 12.000,41.590 14.368,39.955 22.750,34.774 C 25.775,32.905 29.150,30.798 30.250,30.093 C 33.670,27.900 40.065,24.000 40.240,24.000 C 40.332,24.000 42.675,22.653 45.448,21.007 C 51.918,17.165 58.133,14.000 59.208,14.000 C 60.498,14.000 62.834,15.357 63.262,16.357 C 63.473,16.848 63.781,18.938 63.948,21.000 L 64.250,24.750 L 68.750,25.072 C 74.506,25.484 386.305,25.594 392.064,25.186 L 396.378,24.881 L 396.606,20.946 C 396.840,16.915 397.458,15.593 399.662,14.413 C 400.843,13.781 404.653,15.272 410.500,18.653 C 412.837,20.005 415.698,21.651 416.856,22.311 C 418.015,22.971 420.940,24.735 423.356,26.232 C 427.664,28.899 434.372,32.877 442.609,37.649 C 447.932,40.732 448.680,41.311 448.373,42.109 C 448.135,42.731 436.633,49.921 425.750,56.251 C 423.000,57.850 417.825,60.887 414.250,62.998 C 408.551,66.364 401.450,70.076 400.929,69.961 C 400.830,69.939 400.164,69.706 399.447,69.443 Z" fill="#000000" fill-rule="evenodd" /></svg>