<svg xmlns="http://www.w3.org/2000/svg" viewBox="0 0 515 607" width="515" height="607"><path d="M 246.750,605.151 C 242.897,602.339 235.997,595.136 233.433,591.250 C 230.469,586.759 226.285,578.824 225.523,576.250 C 225.197,575.150 224.744,573.800 224.516,573.250 C 222.743,568.976 221.169,562.196 220.743,557.000 C 220.351,552.230 220.047,551.000 219.257,551.000 C 218.908,551.000 218.333,551.349 217.979,551.775 C 216.482,553.579 211.539,555.192 204.250,556.253 C 197.910,557.177 193.567,557.187 188.878,556.290 C 185.595,555.662 177.948,552.923 176.838,551.977 C 176.611,551.784 177.976,550.595 179.871,549.335 C 185.309,545.721 195.663,535.152 199.759,529.037 C 207.337,517.723 210.744,511.985 213.587,505.750 C 214.590,503.550 216.130,500.175 217.008,498.250 C 217.886,496.325 218.901,493.850 219.264,492.750 C 219.627,491.650 220.750,488.500 221.759,485.750 C 225.709,474.987 229.090,460.742 230.124,450.500 L 230.250,449.250 L 250.250,449.250 L 270.250,449.250 L 270.597,453.078 C 271.288,460.696 274.775,475.818 278.251,486.268 C 281.240,495.255 286.825,507.941 291.011,515.250 C 291.641,516.350 292.408,517.721 292.716,518.296 C 294.806,522.209 300.302,530.269 303.209,533.685 C 308.357,539.734 316.046,547.087 319.739,549.493 C 322.802,551.488 323.901,553.000 322.289,553.000 C 321.898,553.000 319.648,553.656 317.289,554.459 C 310.754,556.681 305.362,557.289 298.732,556.550 C 292.959,555.907 286.827,554.357 282.807,552.526 C 281.485,551.924 280.273,551.560 280.114,551.719 C 279.956,551.877 279.544,554.199 279.200,556.879 C 278.060,565.735 276.620,571.554 274.283,576.750 C 273.912,577.575 273.026,579.540 272.314,581.117 C 270.338,585.497 266.287,591.770 262.586,596.180 C 258.622,600.904 251.658,607.005 250.250,606.988 C 249.700,606.981 248.125,606.154 246.750,605.151 Z M 139.000,521.276 C 134.551,520.486 129.123,519.188 126.000,518.168 C 119.089,515.911 110.547,510.296 106.159,505.125 C 101.881,500.085 101.149,498.910 98.691,493.125 C 98.311,492.231 97.630,490.666 97.177,489.647 C 95.608,486.111 94.950,482.719 94.675,476.750 C 94.235,467.203 96.381,459.192 101.824,450.052 C 105.387,444.069 109.025,440.207 114.499,436.595 C 121.869,431.733 126.892,430.016 137.375,428.776 C 138.819,428.605 140.000,428.593 140.000,428.749 C 140.000,428.906 139.466,430.095 138.814,431.392 C 136.325,436.341 134.795,443.980 135.117,449.847 C 135.763,461.641 142.548,470.854 152.740,473.780 C 156.680,474.911 164.539,474.538 168.515,473.032 C 172.422,471.552 177.619,467.518 180.307,463.879 C 182.332,461.138 185.849,454.484 187.445,450.375 L 187.979,449.000 L 203.989,449.000 C 212.795,449.000 220.000,449.067 220.000,449.149 C 220.000,449.622 217.415,461.233 216.750,463.750 C 215.033,470.244 209.848,482.483 206.478,488.000 C 200.085,498.467 197.891,501.257 192.590,505.666 C 182.706,513.887 172.517,518.969 162.250,520.796 C 156.191,521.874 143.808,522.130 139.000,521.276 Z M 341.500,521.261 C 335.912,520.338 330.490,518.914 327.250,517.519 C 313.533,511.611 304.340,503.823 295.948,491.000 C 293.339,487.012 290.734,482.738 290.161,481.500 C 289.127,479.271 287.543,475.748 286.174,472.637 C 284.226,468.210 279.998,452.793 279.999,450.125 L 280.000,449.000 L 295.914,449.000 L 311.828,449.000 L 313.424,453.201 C 316.604,461.572 322.913,469.108 329.209,472.054 C 333.335,473.985 339.541,475.032 343.128,474.402 C 345.938,473.908 350.691,472.360 352.874,471.228 C 355.817,469.701 359.296,465.580 361.426,461.098 C 363.971,455.744 364.697,451.798 364.297,445.500 C 363.968,440.319 363.425,438.152 360.991,432.306 C 360.108,430.184 359.483,428.351 359.602,428.231 C 360.056,427.777 368.892,429.102 372.000,430.090 C 373.788,430.658 377.837,432.371 381.000,433.898 C 386.310,436.460 387.132,437.058 391.750,441.711 C 397.003,447.005 398.986,449.901 401.771,456.342 C 404.139,461.819 405.015,466.539 405.040,473.953 C 405.089,488.439 400.669,498.578 389.835,508.834 C 386.464,512.024 384.617,513.298 380.207,515.472 C 373.420,518.819 373.541,518.770 369.000,519.957 C 361.161,522.007 349.394,522.565 341.500,521.261 Z M 179.250,437.310 C 176.497,436.262 173.084,433.964 171.226,431.908 C 168.383,428.761 167.343,425.942 167.108,420.750 C 166.826,414.504 168.011,411.374 172.231,407.224 C 177.754,401.791 170.547,402.250 250.250,402.250 L 319.250,402.250 L 322.367,403.690 C 325.815,405.282 329.261,408.592 330.980,411.961 C 332.530,414.999 332.907,421.343 331.771,425.252 C 330.672,429.032 328.034,433.014 325.530,434.671 C 324.456,435.382 322.216,436.422 320.554,436.982 C 317.568,437.988 316.696,437.999 249.141,437.940 C 199.224,437.897 180.345,437.726 179.250,437.310 Z M 83.250,405.523 C 82.425,405.310 80.175,404.869 78.250,404.542 C 66.018,402.468 54.928,398.903 46.500,394.337 C 44.987,393.517 42.899,392.385 41.859,391.822 C 35.836,388.559 24.333,378.430 18.736,371.461 C 15.456,367.377 10.351,359.654 8.517,356.000 C 5.628,350.248 2.926,341.495 1.493,333.250 C 1.158,331.325 0.685,329.098 0.442,328.300 C -0.179,326.264 -0.128,307.638 0.500,307.250 C 0.775,307.080 1.001,306.111 1.003,305.095 C 1.004,304.080 1.202,302.462 1.442,301.500 C 1.682,300.538 2.176,298.400 2.539,296.750 C 2.902,295.100 3.625,292.625 4.145,291.250 C 4.665,289.875 5.382,287.844 5.738,286.736 C 7.589,280.978 13.240,271.643 18.684,265.351 C 22.955,260.414 33.300,251.764 38.250,248.991 C 54.801,239.719 67.813,236.296 86.500,236.297 C 96.959,236.298 105.473,237.545 115.500,240.543 C 117.315,241.086 117.601,241.193 121.750,242.894 C 123.125,243.458 125.263,244.291 126.500,244.746 C 129.832,245.969 140.362,251.539 144.042,254.024 C 145.806,255.215 148.608,257.104 150.268,258.220 C 167.194,269.603 189.941,296.232 198.770,315.000 C 199.481,316.512 200.820,319.325 201.746,321.250 C 202.671,323.175 203.869,325.875 204.409,327.250 C 204.949,328.625 205.961,330.988 206.658,332.500 C 212.739,345.701 219.695,374.328 220.143,388.000 L 220.250,391.250 L 204.000,391.500 C 195.062,391.637 187.553,391.598 187.311,391.411 C 186.892,391.088 186.576,390.070 184.773,383.250 C 183.616,378.872 178.514,368.956 174.648,363.573 C 165.490,350.819 154.601,341.795 141.500,336.102 C 133.137,332.468 129.924,331.814 120.500,331.823 C 112.380,331.831 112.170,331.858 107.143,333.586 C 96.645,337.194 89.613,342.978 84.557,352.163 C 80.256,359.976 79.000,364.652 79.000,372.850 C 79.000,377.566 79.293,379.990 80.498,385.250 C 82.830,395.429 83.415,397.363 85.531,401.897 C 86.339,403.629 87.000,405.260 87.000,405.522 C 87.000,406.076 85.397,406.077 83.250,405.523 Z M 414.282,405.551 C 414.106,405.267 414.391,404.183 414.916,403.142 C 418.053,396.918 422.000,379.908 422.000,372.616 C 422.000,365.108 419.491,357.415 414.684,350.179 C 407.179,338.882 393.849,331.481 381.061,331.510 C 372.279,331.530 364.304,333.339 357.092,336.946 C 354.429,338.278 351.688,339.538 351.000,339.747 C 346.755,341.036 333.889,352.220 328.276,359.500 C 322.709,366.721 316.324,378.214 315.049,383.310 C 314.782,384.377 314.164,386.656 313.676,388.375 L 312.788,391.500 L 296.394,391.500 L 280.000,391.500 L 280.000,387.831 C 280.000,375.905 287.207,346.608 293.981,331.000 C 294.996,328.663 296.362,325.400 297.017,323.750 C 298.621,319.712 304.272,308.682 307.265,303.750 C 315.800,289.686 331.017,272.296 342.500,263.484 C 352.571,255.756 363.741,248.910 371.865,245.487 C 374.002,244.587 376.425,243.563 377.250,243.211 C 386.357,239.332 403.451,236.029 414.500,236.014 C 418.627,236.009 427.911,236.960 433.500,237.960 C 437.458,238.668 446.213,241.271 450.000,242.866 C 456.683,245.679 467.508,252.163 470.828,255.342 C 471.636,256.116 474.099,258.325 476.300,260.250 C 481.187,264.525 483.629,267.412 487.232,273.179 C 488.755,275.615 490.000,277.686 490.000,277.782 C 490.000,277.878 490.622,279.035 491.383,280.353 C 492.143,281.671 493.292,284.100 493.935,285.750 C 494.578,287.400 495.454,289.534 495.881,290.492 C 496.309,291.451 496.864,293.026 497.116,293.992 C 498.600,299.697 499.622,304.794 500.075,308.750 C 500.750,314.641 500.260,328.801 499.237,333.000 C 497.057,341.945 496.535,343.727 494.254,350.000 C 492.882,353.774 489.013,360.998 485.746,365.886 C 482.670,370.488 473.155,380.766 468.242,384.792 C 456.414,394.487 439.568,401.548 420.626,404.749 C 418.084,405.179 415.688,405.651 415.302,405.799 C 414.917,405.947 414.457,405.836 414.282,405.551 Z M 230.306,390.715 C 230.138,390.277 229.993,388.193 229.984,386.084 C 229.975,383.975 229.627,380.000 229.209,377.250 C 228.792,374.500 228.247,370.612 227.998,368.610 C 227.749,366.609 227.285,363.684 226.966,362.110 C 226.648,360.537 226.213,358.238 226.000,357.000 C 225.206,352.386 221.162,336.366 218.681,328.000 C 217.987,325.663 217.005,322.175 216.497,320.250 C 215.990,318.325 215.346,316.075 215.067,315.250 C 213.955,311.970 208.987,297.884 206.778,291.750 C 205.491,288.175 204.090,284.125 203.664,282.750 C 203.239,281.375 202.371,279.012 201.737,277.500 C 201.102,275.988 199.992,272.950 199.270,270.750 C 198.547,268.550 197.516,265.796 196.978,264.630 C 196.440,263.465 196.000,262.216 196.000,261.855 C 196.000,261.495 195.821,260.986 195.602,260.725 C 195.383,260.464 194.903,259.350 194.535,258.250 C 194.167,257.150 193.466,255.350 192.979,254.250 C 192.491,253.150 191.656,250.900 191.124,249.250 C 190.591,247.600 189.032,242.875 187.659,238.750 C 186.286,234.625 184.875,230.238 184.524,229.000 C 184.172,227.762 183.698,226.188 183.470,225.500 C 183.243,224.812 182.581,222.113 181.999,219.500 C 181.417,216.887 180.623,213.512 180.235,212.000 C 178.633,205.760 177.413,189.386 177.832,179.750 C 178.304,168.866 181.473,152.849 185.400,141.500 C 188.280,133.175 190.410,127.532 191.663,124.910 C 192.362,123.447 194.095,119.662 195.514,116.500 C 198.916,108.923 202.971,100.560 204.000,99.000 C 204.454,98.312 205.135,96.963 205.513,96.000 C 205.891,95.037 206.865,93.125 207.677,91.750 C 208.489,90.375 209.942,87.787 210.905,86.000 C 213.526,81.133 218.435,72.581 220.231,69.750 C 222.868,65.595 230.000,53.510 230.000,53.197 C 230.000,53.036 230.434,52.294 230.965,51.548 C 231.496,50.803 232.738,48.585 233.723,46.621 C 234.709,44.656 235.723,42.921 235.976,42.765 C 236.230,42.608 236.752,41.866 237.137,41.115 C 237.522,40.364 238.352,38.850 238.982,37.750 C 239.612,36.650 241.127,33.837 242.350,31.500 C 247.825,21.034 249.922,17.500 250.654,17.500 C 250.991,17.500 252.119,19.581 253.162,22.125 C 255.786,28.528 257.810,32.690 260.153,36.500 C 261.942,39.409 262.891,41.133 266.186,47.454 C 266.701,48.442 269.120,52.430 271.561,56.317 C 274.003,60.204 276.000,63.544 276.000,63.740 C 276.000,63.936 276.416,64.693 276.924,65.423 C 277.432,66.153 278.526,67.987 279.356,69.500 C 281.423,73.268 286.171,81.470 288.908,86.000 C 292.392,91.768 305.987,119.037 309.124,126.550 C 312.801,135.358 315.006,141.104 315.003,141.869 C 315.001,142.209 315.652,144.572 316.450,147.119 C 317.247,149.666 318.017,152.312 318.161,153.000 C 318.305,153.688 318.900,156.387 319.485,159.000 C 321.199,166.666 321.514,168.441 322.234,174.498 C 323.320,183.641 322.582,196.931 320.430,207.000 C 319.872,209.613 319.229,212.650 319.001,213.750 C 318.068,218.250 316.875,222.980 315.683,226.900 C 314.989,229.182 313.444,234.357 312.248,238.400 C 308.948,249.556 306.817,255.452 301.999,266.750 C 301.530,267.850 300.187,271.562 299.015,275.000 C 297.843,278.438 296.693,281.488 296.461,281.779 C 296.228,282.069 295.701,283.532 295.290,285.029 C 294.879,286.525 293.661,290.225 292.585,293.250 C 289.636,301.536 287.725,306.868 286.310,310.750 C 284.190,316.567 280.092,331.057 278.036,340.000 C 277.436,342.613 276.524,346.550 276.010,348.750 C 273.206,360.749 271.538,370.879 270.577,381.750 L 269.738,391.250 L 250.175,391.381 C 232.661,391.498 230.579,391.428 230.306,390.715 Z" fill="#000000" fill-rule="evenodd" /></svg>