<svg xmlns="http://www.w3.org/2000/svg" viewBox="0 0 427 335" width="427" height="335"><path d="M 367.250,320.995 C 366.425,320.488 364.175,319.887 362.250,319.661 C 360.325,319.435 344.565,319.363 327.227,319.500 C 298.301,319.729 295.594,319.822 294.370,320.625 C 291.575,322.457 290.528,321.086 291.480,316.839 C 292.416,312.663 295.702,308.638 299.739,306.722 C 301.082,306.084 302.220,305.955 304.384,306.194 C 312.874,307.130 314.259,307.143 314.967,306.289 C 315.573,305.560 314.945,304.407 309.702,296.612 C 302.640,286.111 296.686,278.000 296.041,278.000 C 294.979,278.000 292.532,280.663 291.673,282.752 C 291.165,283.987 290.467,284.997 290.121,284.998 C 288.863,285.002 284.013,273.052 283.992,269.895 C 283.982,268.311 283.177,267.123 282.543,267.757 C 282.268,268.032 281.275,270.383 280.335,272.982 C 279.395,275.581 278.394,277.785 278.109,277.880 C 277.825,277.975 276.696,276.185 275.601,273.901 C 269.339,260.845 267.813,257.256 265.760,250.750 C 264.979,248.275 264.095,246.001 263.795,245.696 C 263.495,245.392 261.337,244.749 259.000,244.268 C 253.842,243.207 242.946,239.669 238.500,237.612 C 236.713,236.785 232.550,234.826 229.250,233.259 C 217.622,227.738 213.483,226.417 204.905,225.494 C 199.930,224.958 196.315,225.155 189.625,226.327 C 188.322,226.555 188.000,226.444 188.000,225.768 C 188.000,224.667 191.647,218.495 194.362,215.000 C 195.537,213.488 196.271,212.174 195.993,212.081 C 195.143,211.797 191.091,214.436 188.690,216.836 C 187.441,218.085 185.632,220.337 184.671,221.840 C 183.114,224.274 178.500,233.603 178.500,234.317 C 178.500,234.470 177.352,237.331 175.949,240.673 C 169.113,256.955 162.833,263.977 151.750,267.729 C 148.753,268.743 146.576,269.210 139.000,270.461 C 128.014,272.276 126.098,273.329 120.564,280.602 C 118.984,282.679 116.929,289.357 116.651,293.321 C 116.313,298.139 116.352,298.179 121.750,298.707 C 128.548,299.372 133.055,301.395 135.790,305.010 C 138.075,308.031 138.651,309.938 138.558,314.184 C 138.418,320.608 140.713,320.000 116.607,319.998 C 96.837,319.996 95.667,319.946 94.157,319.025 C 91.626,317.482 91.348,316.510 91.732,310.555 C 92.357,300.848 92.974,296.114 94.256,291.179 C 94.955,288.490 95.422,286.019 95.295,285.688 C 94.967,284.832 91.208,285.998 89.739,287.413 C 88.157,288.935 87.500,288.769 87.500,286.849 C 87.500,285.827 88.044,284.444 88.926,283.224 C 90.601,280.906 97.000,269.185 97.000,268.435 C 97.000,268.099 95.871,268.041 93.750,268.268 C 91.654,268.493 90.500,268.436 90.500,268.108 C 90.500,267.600 93.132,263.350 94.903,261.000 C 95.421,260.312 95.994,259.141 96.176,258.396 C 96.377,257.579 97.350,256.472 98.629,255.605 C 101.250,253.830 101.478,253.745 108.267,252.023 C 123.018,248.281 126.278,243.431 127.480,223.436 C 128.118,212.839 128.654,209.627 130.310,206.504 C 132.724,201.950 131.430,201.830 126.600,206.160 C 122.614,209.735 118.900,213.942 110.190,224.751 C 98.553,239.193 91.309,244.753 80.508,247.535 C 76.907,248.462 75.395,248.586 70.508,248.356 C 64.272,248.061 61.724,247.346 56.721,244.484 C 50.846,241.122 45.379,234.141 43.709,227.867 C 42.867,224.708 42.789,217.046 43.561,213.400 C 44.711,207.964 48.445,201.376 53.532,195.810 C 56.381,192.693 63.319,186.853 73.000,179.423 C 81.481,172.914 84.559,169.579 87.111,164.134 C 90.227,157.485 89.905,152.611 86.067,148.364 C 81.298,143.084 74.767,141.786 67.744,144.720 C 65.571,145.628 65.235,146.477 64.465,153.000 C 63.693,159.550 62.548,162.737 59.877,165.771 C 56.431,169.686 53.270,171.877 49.410,173.027 C 44.894,174.372 44.230,173.868 46.620,170.912 C 48.667,168.379 49.500,166.884 49.500,165.740 C 49.500,165.151 48.824,165.510 47.130,167.001 C 45.826,168.149 42.845,170.021 40.505,171.161 L 36.250,173.235 L 29.250,173.243 C 22.849,173.249 22.061,173.149 20.042,172.072 C 17.122,170.516 12.009,166.414 12.004,165.625 C 12.001,165.170 13.242,165.000 16.552,165.000 C 20.439,165.000 21.481,164.812 23.677,163.716 C 26.747,162.184 29.755,159.410 30.959,157.000 C 31.440,156.037 32.352,153.562 32.986,151.500 C 34.807,145.573 38.716,140.702 43.733,138.105 C 46.006,136.928 46.855,136.792 52.500,136.699 C 57.630,136.614 59.422,136.373 62.500,135.353 C 70.055,132.850 74.640,132.283 79.870,133.204 C 85.128,134.130 88.969,135.941 92.240,139.035 C 97.512,144.021 99.231,148.505 99.221,157.250 C 99.215,162.894 99.119,163.467 97.617,166.904 C 95.636,171.436 91.725,177.155 88.610,180.074 C 86.243,182.293 80.346,187.216 72.230,193.750 C 64.062,200.326 58.375,207.284 56.185,213.381 C 55.672,214.808 55.318,217.341 55.294,219.750 C 55.261,223.146 55.462,224.172 56.626,226.547 C 59.153,231.701 62.654,234.270 68.916,235.563 C 74.321,236.680 80.875,234.645 87.347,229.842 C 90.812,227.270 94.645,222.924 105.065,209.750 C 118.639,192.590 128.417,183.879 141.250,177.513 C 156.165,170.115 170.606,166.571 187.624,166.133 C 195.173,165.939 197.834,166.058 201.286,166.743 C 203.644,167.211 205.678,167.489 205.805,167.361 C 206.997,166.170 199.276,158.191 194.798,155.986 C 188.768,153.018 187.513,152.835 172.500,152.739 C 151.914,152.607 147.724,152.002 137.655,147.709 C 131.989,145.293 126.189,141.461 124.125,138.770 C 123.231,137.605 122.500,136.477 122.500,136.262 C 122.500,136.048 126.381,135.976 131.125,136.103 C 135.869,136.230 142.450,136.144 145.750,135.911 C 165.376,134.529 170.895,134.541 181.935,135.995 C 184.237,136.298 186.250,136.417 186.407,136.259 C 186.854,135.813 184.994,134.218 182.288,132.727 C 176.254,129.403 164.694,128.015 142.968,128.005 C 132.957,128.000 128.470,127.643 118.250,126.037 C 101.883,123.465 86.642,113.445 80.285,101.079 C 79.813,100.159 79.547,99.286 79.695,99.138 C 79.843,98.990 80.764,99.248 81.741,99.712 C 82.718,100.176 84.695,100.763 86.134,101.016 C 87.573,101.269 90.385,101.922 92.383,102.466 C 101.725,105.012 122.529,106.987 140.241,107.010 C 144.646,107.016 151.287,107.333 155.000,107.715 C 163.807,108.622 177.180,111.635 178.725,113.061 C 179.327,113.618 180.500,113.633 180.500,113.084 C 180.500,112.349 174.849,108.423 171.622,106.917 C 163.643,103.192 152.537,100.870 136.250,99.521 C 121.309,98.283 117.454,97.879 111.750,96.950 C 96.723,94.503 84.465,89.986 73.958,83.023 C 66.904,78.348 61.962,73.115 57.630,65.733 C 55.466,62.044 53.037,54.154 53.724,53.043 C 53.887,52.778 55.873,53.898 58.136,55.532 C 71.701,65.327 88.041,70.262 121.000,74.519 C 123.338,74.821 126.600,75.273 128.250,75.524 C 129.900,75.774 133.050,76.219 135.250,76.513 C 139.537,77.084 140.846,77.318 150.500,79.230 C 159.624,81.038 162.438,81.894 168.912,84.836 C 175.240,87.712 175.389,86.583 169.250,82.277 C 160.039,75.816 149.241,72.455 124.250,68.270 C 108.462,65.626 93.089,61.489 84.082,57.458 C 72.779,52.401 63.860,45.511 57.273,36.750 C 52.359,30.213 49.974,24.971 48.986,18.531 C 48.709,16.726 48.356,14.631 48.201,13.875 C 47.741,11.620 49.346,12.169 53.500,15.690 C 62.287,23.136 74.585,30.005 86.398,34.064 C 99.231,38.474 110.658,41.267 131.000,44.967 C 142.129,46.991 144.341,47.298 156.500,48.503 C 174.901,50.328 189.785,52.330 197.750,54.052 C 200.225,54.587 203.375,55.264 204.750,55.557 C 208.244,56.301 216.675,60.454 220.446,63.289 C 227.247,68.401 231.789,76.249 233.301,85.500 C 234.295,91.579 234.178,97.485 232.965,102.500 C 230.204,113.913 231.614,122.614 237.665,131.500 C 239.708,134.500 244.206,139.199 246.993,141.245 C 250.084,143.513 257.919,148.000 258.789,148.000 C 260.070,148.000 259.539,147.098 257.125,145.174 C 255.819,144.132 253.850,142.484 252.750,141.511 C 251.650,140.537 249.997,139.157 249.076,138.444 L 247.401,137.147 L 251.115,133.433 C 253.158,131.390 255.444,128.670 256.195,127.389 C 257.726,124.777 259.719,118.293 259.316,117.241 C 258.946,116.278 256.340,117.080 253.610,118.997 C 252.434,119.824 251.333,120.500 251.165,120.500 C 250.642,120.500 251.384,115.384 252.325,112.500 C 253.213,109.782 257.075,101.866 260.652,95.435 C 262.203,92.646 262.384,92.026 261.792,91.535 C 261.000,90.877 258.013,91.881 256.390,93.349 C 255.056,94.557 254.770,93.815 255.433,90.855 C 257.284,82.583 264.458,69.800 271.375,62.449 C 273.094,60.623 274.500,59.010 274.500,58.866 C 274.500,58.722 273.431,57.918 272.125,57.079 C 265.687,52.943 262.002,46.554 260.760,37.375 C 260.367,34.468 260.876,34.343 264.342,36.497 C 267.279,38.322 276.234,41.488 282.000,42.739 C 287.244,43.877 291.597,43.949 301.222,43.058 C 315.721,41.714 325.523,42.938 331.250,46.807 C 334.251,48.834 335.287,50.194 336.458,53.642 L 337.343,56.250 L 341.297,56.626 C 350.420,57.494 356.203,61.141 359.663,68.207 C 360.838,70.606 360.999,71.533 360.995,75.844 C 360.992,78.582 360.684,81.744 360.299,83.000 C 359.245,86.431 357.934,89.500 357.521,89.500 C 357.317,89.500 356.539,88.063 355.793,86.307 C 355.047,84.551 353.944,82.676 353.343,82.140 C 349.974,79.136 341.625,77.550 334.110,78.486 C 326.748,79.403 322.277,80.699 320.979,82.292 C 320.314,83.108 320.338,83.149 321.250,82.751 C 323.267,81.871 336.013,81.859 340.258,82.733 C 344.056,83.516 346.500,84.564 346.500,85.412 C 346.500,86.379 345.109,87.000 342.944,87.000 C 339.446,87.000 333.264,88.306 330.268,89.678 C 326.891,91.223 323.594,94.199 322.433,96.750 C 320.654,100.656 321.536,107.089 324.508,111.891 C 325.311,113.189 326.405,115.037 326.940,116.000 C 327.474,116.963 329.677,119.888 331.835,122.500 C 337.915,129.859 338.662,130.920 341.332,136.000 C 344.021,141.113 345.484,145.378 346.764,151.835 C 348.044,158.287 347.236,160.872 345.118,157.103 C 343.858,154.861 340.120,150.500 339.458,150.500 C 338.731,150.500 338.919,151.729 340.042,154.334 C 343.130,161.492 344.656,172.234 343.972,182.000 C 343.317,191.368 339.280,204.850 337.466,203.729 C 337.210,203.571 337.000,202.905 337.000,202.250 C 337.000,201.135 336.205,200.128 335.713,200.620 C 335.592,200.742 335.291,202.395 335.045,204.295 C 334.472,208.725 331.486,216.957 328.004,223.706 C 325.535,228.491 329.103,225.240 333.442,218.750 C 335.281,216.000 337.086,213.019 337.453,212.125 C 337.821,211.231 338.303,210.500 338.526,210.500 C 340.050,210.500 345.595,213.773 347.365,215.718 C 349.232,217.770 349.591,217.959 351.091,217.678 C 357.019,216.569 370.215,210.519 371.885,208.144 C 373.368,206.035 374.763,201.478 376.217,194.000 C 377.744,186.144 379.200,182.789 382.248,180.106 C 384.873,177.795 387.267,177.000 391.594,177.000 C 395.121,177.000 399.500,178.228 399.500,179.218 C 399.500,179.560 398.384,180.448 397.021,181.191 C 394.034,182.816 393.201,183.822 390.771,188.739 C 388.715,192.901 387.913,196.500 389.041,196.500 C 389.411,196.500 391.323,194.756 393.290,192.625 L 396.866,188.750 L 401.308,188.761 C 406.879,188.775 408.379,189.394 411.233,192.861 C 414.326,196.619 414.237,197.000 410.263,197.000 L 407.026,197.000 L 403.388,200.081 C 397.608,204.976 386.260,216.582 385.375,218.505 C 383.987,221.520 382.345,230.047 382.217,234.910 L 382.094,239.571 L 384.547,242.812 C 385.896,244.594 387.000,246.148 387.000,246.264 C 387.000,246.744 383.957,248.000 382.794,248.000 C 380.219,248.000 375.847,245.894 373.456,243.503 C 370.235,240.283 369.570,237.277 370.707,231.083 C 371.693,225.707 371.692,225.500 370.666,225.500 C 369.124,225.500 348.356,237.116 347.020,238.725 C 346.521,239.327 346.435,240.577 346.678,243.734 C 346.886,246.446 346.817,248.054 346.482,248.261 C 346.197,248.437 344.786,248.211 343.347,247.759 C 341.905,247.305 339.614,247.006 338.241,247.093 C 336.081,247.229 335.728,247.402 335.588,248.395 C 335.498,249.025 335.892,250.332 336.463,251.299 C 337.747,253.477 337.763,254.000 336.544,254.000 C 334.335,254.000 322.498,248.660 319.741,246.419 C 318.921,245.752 317.646,244.828 316.908,244.364 C 313.281,242.084 312.346,239.152 310.497,224.250 C 309.522,216.385 308.862,213.749 308.318,215.541 C 307.946,216.765 307.063,223.031 306.462,228.714 C 305.762,235.318 306.074,238.392 308.018,244.054 C 308.833,246.427 309.500,248.703 309.500,249.111 C 309.500,249.924 319.196,269.396 320.002,270.202 C 320.276,270.476 320.500,271.131 320.500,271.658 C 320.500,272.414 320.262,272.549 319.375,272.296 C 318.756,272.120 317.600,271.834 316.805,271.661 C 315.362,271.348 315.361,271.350 315.723,273.299 C 316.363,276.734 319.886,283.793 325.814,293.516 C 328.967,298.687 334.805,305.798 336.460,306.484 C 338.324,307.255 341.003,307.010 349.360,305.303 C 354.978,304.156 356.283,304.038 358.060,304.516 C 365.619,306.552 369.338,310.333 370.978,317.653 C 371.879,321.671 370.443,322.958 367.250,320.995 Z M 322.305,60.616 C 323.650,59.826 324.750,58.858 324.750,58.465 C 324.750,58.027 323.783,57.500 322.250,57.103 C 318.849,56.223 310.846,55.457 310.338,55.963 C 309.914,56.386 314.947,61.468 316.424,62.109 C 317.715,62.669 319.645,62.179 322.305,60.616 Z M 215.000,319.337 C 209.126,317.368 204.598,313.049 189.136,294.669 C 187.589,292.830 187.491,292.789 186.777,293.699 C 186.367,294.220 186.151,294.839 186.296,295.074 C 186.797,295.885 185.130,295.496 183.876,294.510 C 181.472,292.619 178.095,286.267 176.958,281.500 C 176.436,279.309 177.888,276.004 180.050,274.465 C 184.200,271.509 186.839,265.637 186.225,260.722 C 185.910,258.199 185.583,257.624 182.643,254.421 C 178.956,250.403 178.975,250.555 181.311,243.545 C 183.423,237.213 185.421,233.533 186.929,233.201 C 187.656,233.041 189.037,232.655 190.000,232.343 C 192.851,231.418 206.114,231.608 210.367,232.635 C 216.471,234.109 223.578,237.204 225.463,239.211 C 227.610,241.496 228.102,252.327 226.317,258.033 C 225.357,261.103 223.117,265.179 221.080,267.560 C 219.489,269.422 213.555,274.000 212.734,274.000 C 212.520,274.000 211.592,274.574 210.672,275.275 C 209.318,276.308 209.000,276.896 209.000,278.363 C 209.000,282.482 215.282,291.959 220.767,296.116 C 225.638,299.807 228.841,300.607 234.135,299.454 C 239.187,298.355 242.754,298.615 246.500,300.357 C 252.250,303.031 254.513,306.528 255.712,314.595 C 256.093,317.155 256.300,319.419 256.173,319.625 C 255.773,320.271 216.978,320.000 215.000,319.337 Z" fill="#000000" fill-rule="evenodd" /></svg>