<svg xmlns="http://www.w3.org/2000/svg" viewBox="0 0 385 378" width="385" height="378"><path d="M 191.377,364.587 C 190.697,363.852 189.217,361.900 188.088,360.250 C 186.960,358.600 184.502,355.113 182.627,352.500 C 180.751,349.887 178.008,345.749 176.531,343.303 C 173.519,338.315 173.535,337.886 176.784,336.276 C 179.243,335.059 186.042,328.322 187.450,325.708 C 188.030,324.631 188.968,323.170 189.535,322.461 C 190.546,321.198 191.337,318.864 191.851,315.625 C 191.993,314.731 192.369,314.000 192.687,314.000 C 193.284,314.000 195.000,318.241 195.000,319.715 C 195.000,320.172 195.611,321.154 196.358,321.898 C 197.105,322.641 198.264,324.375 198.935,325.750 C 200.245,328.436 209.447,338.000 210.721,338.000 C 212.164,338.000 212.027,339.075 210.195,342.130 C 208.210,345.442 202.917,353.255 200.123,357.000 C 195.444,363.270 193.699,365.451 193.182,365.677 C 192.870,365.813 192.058,365.323 191.377,364.587 Z M 145.000,334.264 C 139.780,333.300 134.318,331.606 128.500,329.146 C 124.502,327.456 111.550,320.731 109.000,319.021 C 107.487,318.006 105.013,316.456 103.500,315.574 C 90.860,308.211 72.016,291.322 64.364,280.500 C 60.458,274.975 56.370,267.039 55.220,262.750 C 53.397,255.945 53.882,246.951 56.368,241.506 C 58.534,236.759 64.422,230.130 69.633,226.569 C 73.012,224.260 79.948,220.885 85.500,218.847 C 93.395,215.949 96.274,215.000 97.175,215.000 C 97.647,215.000 99.151,214.434 100.517,213.742 C 102.970,212.498 103.000,212.455 103.000,210.103 C 103.000,208.794 102.665,207.244 102.255,206.658 C 101.590,205.710 101.169,205.623 98.380,205.857 C 95.087,206.134 89.609,207.575 83.750,209.705 C 77.291,212.052 72.482,213.022 65.750,213.335 C 60.118,213.597 58.682,213.494 55.000,212.570 C 44.770,210.000 39.023,205.285 33.557,194.974 C 30.721,189.623 29.023,181.272 29.009,172.596 C 28.999,166.334 29.678,160.659 31.824,149.079 C 32.796,143.834 36.948,129.290 38.687,125.039 C 39.409,123.273 40.000,121.651 40.000,121.436 C 40.000,120.804 44.382,110.643 46.829,105.604 C 50.077,98.913 56.363,89.657 60.862,84.941 C 64.816,80.797 71.030,76.256 76.000,73.880 C 81.712,71.149 88.619,70.364 94.962,71.724 C 98.137,72.404 106.360,76.334 110.250,79.030 C 113.100,81.005 117.884,86.092 121.271,90.750 C 125.696,96.834 130.500,102.626 132.121,103.832 C 133.498,104.855 133.693,104.873 135.738,104.177 C 136.926,103.772 138.295,103.003 138.779,102.468 C 139.885,101.245 139.504,100.316 135.857,95.343 C 130.657,88.253 123.950,77.939 122.548,74.873 C 117.220,63.228 117.221,51.232 122.551,42.147 C 124.642,38.582 130.235,32.857 134.250,30.171 C 142.320,24.772 155.793,20.084 167.814,18.490 C 169.979,18.204 173.325,17.754 175.250,17.492 C 188.439,15.693 202.131,15.872 217.250,18.040 C 224.705,19.109 225.332,19.241 233.571,21.486 C 247.184,25.196 259.701,34.091 264.154,43.220 C 265.185,45.333 266.360,48.333 266.764,49.886 C 267.618,53.165 267.730,62.277 266.953,65.250 C 266.666,66.350 266.314,67.812 266.172,68.500 C 265.893,69.852 263.264,76.572 262.326,78.330 C 261.148,80.537 257.024,86.448 252.091,93.000 C 249.285,96.726 247.007,100.239 247.004,100.841 C 246.999,102.103 248.886,103.581 251.644,104.476 C 253.397,105.044 253.664,104.994 255.231,103.798 C 256.163,103.088 257.579,101.549 258.378,100.378 C 266.709,88.177 271.455,82.559 276.769,78.612 C 281.565,75.049 282.457,74.583 288.330,72.570 C 292.300,71.209 293.595,71.000 298.045,71.000 C 300.869,71.000 303.982,71.257 304.965,71.570 C 315.195,74.838 322.544,80.343 329.696,90.098 C 335.600,98.151 337.356,101.289 343.631,115.008 C 346.391,121.039 350.975,134.346 352.748,141.470 C 353.911,146.144 354.130,147.264 355.790,157.000 C 356.884,163.414 357.293,176.981 356.541,181.894 C 355.683,187.496 354.890,191.009 354.415,191.302 C 354.187,191.444 354.000,191.897 354.000,192.311 C 354.000,192.725 353.287,194.568 352.415,196.407 C 350.152,201.181 344.094,207.064 338.723,209.701 C 332.931,212.545 330.665,213.033 323.132,213.055 C 314.662,213.080 311.976,212.554 297.250,207.983 C 289.856,205.687 285.790,204.762 285.065,205.210 C 284.270,205.701 282.876,210.821 283.232,211.943 C 283.532,212.887 284.199,213.230 288.500,214.647 C 297.707,217.681 307.276,221.176 308.859,222.083 C 309.899,222.679 312.037,223.799 313.610,224.572 C 321.816,228.605 328.504,236.659 331.446,246.049 C 332.270,248.677 332.199,258.718 331.333,262.000 C 328.511,272.706 323.264,281.128 312.832,291.693 C 292.477,312.308 268.996,327.032 246.750,333.129 C 242.422,334.315 239.884,334.688 234.837,334.878 C 227.070,335.172 222.691,334.432 216.250,331.739 C 208.801,328.625 202.240,319.427 199.315,308.000 C 198.207,303.668 198.079,302.001 197.865,289.070 C 197.678,277.756 197.491,274.799 196.940,274.442 C 196.561,274.195 194.562,274.051 192.500,274.122 L 188.750,274.250 L 188.425,288.500 C 188.246,296.337 187.842,303.875 187.527,305.250 C 185.036,316.118 181.495,322.977 175.750,328.064 C 172.797,330.679 168.384,332.880 163.250,334.298 C 160.192,335.142 149.646,335.123 145.000,334.264 Z M 161.096,317.857 C 163.790,316.266 166.721,313.263 166.279,312.547 C 166.056,312.186 165.252,312.364 163.848,313.086 C 162.260,313.903 160.838,314.169 158.000,314.181 C 154.627,314.194 153.876,314.005 150.532,312.295 C 145.584,309.765 142.198,306.426 134.202,296.193 C 124.543,283.832 119.312,279.198 110.240,274.967 C 107.920,273.885 105.848,272.997 105.636,272.994 C 105.067,272.985 93.797,269.278 89.781,267.780 C 84.935,265.971 82.195,264.263 78.956,261.031 C 75.802,257.882 74.338,254.669 73.760,249.624 C 73.563,247.905 73.206,246.377 72.966,246.229 C 72.374,245.863 71.176,248.860 70.461,252.497 C 69.932,255.184 69.984,255.839 70.966,258.894 C 72.144,262.557 76.146,268.444 78.436,269.882 C 79.159,270.336 80.383,271.221 81.158,271.849 C 81.932,272.477 85.419,274.362 88.908,276.038 C 108.036,285.229 111.755,287.252 116.500,291.049 C 119.112,293.140 124.062,297.855 127.500,301.527 C 137.727,312.452 139.084,313.726 142.883,315.974 C 148.289,319.172 149.610,319.551 154.596,319.325 C 158.130,319.166 159.345,318.891 161.096,317.857 Z M 241.921,316.991 C 247.589,314.199 251.600,310.765 258.097,303.138 C 260.106,300.780 263.100,297.501 264.750,295.852 C 267.774,292.830 275.715,286.000 276.204,286.000 C 276.349,286.000 278.272,285.119 280.476,284.041 C 282.681,282.964 285.332,281.806 286.367,281.469 C 287.403,281.131 288.787,280.437 289.442,279.927 C 290.098,279.417 291.072,279.000 291.606,279.000 C 292.703,279.000 303.130,273.643 306.379,271.410 C 309.215,269.461 313.369,264.402 314.928,261.000 C 315.847,258.994 316.180,257.439 316.160,255.250 C 316.132,252.159 314.655,246.945 313.724,246.649 C 313.421,246.553 312.924,248.130 312.553,250.366 C 311.731,255.311 309.616,259.337 306.200,262.459 C 302.718,265.641 293.830,269.915 287.000,271.691 C 282.490,272.863 275.997,275.432 272.091,277.588 C 265.608,281.166 261.446,285.331 249.291,300.399 C 242.459,308.868 235.064,314.003 229.707,313.997 C 227.127,313.994 224.020,313.337 222.126,312.392 C 219.160,310.914 220.654,314.370 223.965,316.648 C 227.112,318.813 229.219,319.453 233.288,319.478 C 236.546,319.498 237.228,319.302 241.921,316.991 Z M 255.993,265.375 C 255.989,265.306 255.195,263.113 254.228,260.500 C 251.452,252.997 248.000,242.616 248.000,241.771 C 248.000,241.347 248.281,240.998 248.625,240.995 C 248.969,240.992 250.377,240.465 251.754,239.824 C 256.964,237.398 264.686,227.959 269.007,218.736 C 270.103,216.395 271.000,214.161 271.000,213.770 C 271.000,213.379 271.206,212.932 271.458,212.776 C 272.063,212.402 275.239,202.606 276.897,196.001 C 278.058,191.376 278.217,189.737 278.233,182.250 C 278.249,174.181 278.180,173.560 276.867,170.000 C 276.107,167.938 275.038,165.640 274.492,164.895 C 273.947,164.150 273.500,163.455 273.500,163.351 C 273.500,163.019 281.698,156.676 283.000,156.000 C 286.386,154.242 293.443,148.276 292.844,147.678 C 292.624,147.458 287.226,147.191 280.847,147.085 C 274.057,146.972 268.991,146.682 268.625,146.385 C 268.281,146.105 268.000,144.790 268.000,143.458 C 268.000,141.261 266.872,137.250 265.339,134.000 C 262.588,128.164 253.497,118.031 246.250,112.722 C 230.716,101.342 221.039,97.000 211.212,97.000 C 208.229,97.000 205.677,97.291 204.166,97.804 C 201.887,98.578 201.766,98.570 200.981,97.601 C 200.533,97.047 199.654,94.716 199.028,92.422 C 196.939,84.764 195.822,81.260 195.115,80.147 C 194.729,79.540 194.560,78.808 194.738,78.519 C 195.121,77.900 193.983,74.500 193.394,74.500 C 192.465,74.500 189.564,81.951 186.774,91.500 C 185.204,96.876 184.805,98.062 184.503,98.248 C 184.327,98.357 183.206,98.110 182.013,97.698 C 180.657,97.231 178.006,96.953 174.948,96.957 C 170.793,96.962 169.349,97.200 165.401,98.531 C 150.156,103.671 134.764,114.979 124.482,128.595 C 120.410,133.987 119.061,137.079 118.672,141.910 C 118.502,144.022 118.141,146.031 117.870,146.375 C 117.500,146.844 114.350,147.000 105.218,147.000 C 98.531,147.000 92.948,147.179 92.812,147.399 C 92.677,147.618 92.720,148.018 92.908,148.287 C 93.267,148.799 100.689,154.086 108.122,159.123 C 110.526,160.752 112.610,162.274 112.753,162.505 C 112.896,162.736 112.252,164.236 111.323,165.837 C 108.317,171.021 107.794,173.373 107.787,181.750 C 107.780,189.331 108.085,191.479 110.537,201.127 C 111.633,205.439 116.698,218.553 118.020,220.500 C 118.487,221.188 119.027,222.258 119.219,222.879 C 119.748,224.582 125.309,231.885 128.463,235.019 C 129.996,236.542 132.770,238.567 134.628,239.519 C 136.486,240.471 138.116,241.593 138.251,242.013 C 138.386,242.432 138.030,244.007 137.460,245.513 C 135.829,249.821 134.558,253.847 132.294,261.875 C 131.589,264.376 131.599,264.500 132.497,264.500 C 133.016,264.500 133.586,264.266 133.763,263.980 C 133.939,263.694 135.018,262.870 136.158,262.150 C 137.299,261.430 141.334,258.401 145.124,255.420 C 148.914,252.439 152.236,250.000 152.507,250.000 C 152.778,250.000 153.000,250.313 153.000,250.696 C 153.000,252.793 161.636,260.000 164.148,260.000 C 164.769,260.000 165.785,260.355 166.405,260.789 C 167.836,261.792 169.543,262.276 175.475,263.361 C 181.619,264.485 201.453,264.604 208.250,263.557 C 220.076,261.736 226.149,259.178 231.483,253.771 C 232.986,252.247 234.401,251.000 234.628,251.000 C 234.855,251.000 235.754,251.506 236.625,252.125 C 239.045,253.843 245.074,258.296 246.684,259.553 C 250.568,262.588 256.028,266.003 255.993,265.375 Z M 56.500,195.740 C 56.500,195.597 55.950,194.609 55.278,193.544 C 53.059,190.030 52.336,186.897 52.635,182.094 C 52.784,179.705 53.273,176.738 53.723,175.500 C 54.626,173.013 57.843,167.963 61.659,163.043 C 66.883,156.306 70.832,149.133 73.054,142.340 C 75.030,136.300 75.439,132.902 75.776,119.750 C 76.047,109.119 76.323,106.740 77.827,102.064 C 79.617,96.497 83.595,92.119 88.438,90.385 C 91.760,89.196 92.340,88.470 90.405,87.925 C 88.018,87.253 85.406,87.541 82.130,88.839 C 79.412,89.916 78.009,90.920 74.970,93.964 C 69.269,99.675 68.358,102.844 66.481,123.500 C 66.194,126.662 65.279,132.062 64.448,135.500 C 62.927,141.789 61.288,145.525 54.797,157.500 C 53.529,159.838 51.697,163.438 50.726,165.500 C 49.754,167.562 48.745,169.700 48.483,170.250 C 45.606,176.295 45.395,183.373 47.942,188.318 C 49.424,191.194 54.341,195.945 55.875,195.984 C 56.219,195.993 56.500,195.883 56.500,195.740 Z M 334.092,193.401 C 339.594,189.121 341.323,180.827 338.533,172.100 C 337.394,168.540 332.359,158.270 331.006,156.750 C 329.534,155.096 325.046,146.305 323.681,142.402 C 321.618,136.502 320.513,129.686 318.994,113.500 C 318.749,110.888 318.196,107.428 317.764,105.812 C 315.710,98.120 310.674,91.788 304.084,88.616 C 300.633,86.953 300.254,86.877 297.584,87.300 C 293.808,87.899 293.860,88.870 297.736,90.162 C 303.137,91.962 307.904,98.182 309.491,105.500 C 309.819,107.013 310.281,113.763 310.516,120.500 C 310.951,132.915 311.483,136.973 313.467,143.000 C 314.786,147.005 318.904,154.347 324.224,162.175 C 331.840,173.385 334.000,177.985 334.000,183.003 C 334.000,185.924 332.532,190.848 331.035,192.951 C 329.006,195.800 330.689,196.048 334.092,193.401 Z M 138.979,53.025 C 142.348,49.001 145.824,47.366 152.320,46.749 C 156.102,46.389 162.506,47.111 165.500,48.234 C 166.463,48.595 169.275,49.503 171.750,50.252 C 192.552,56.546 194.467,56.543 216.500,50.193 C 226.546,47.298 229.028,46.898 234.562,47.282 C 237.141,47.461 239.948,47.895 240.802,48.247 C 243.032,49.168 246.515,51.790 248.162,53.789 C 248.942,54.735 249.787,55.381 250.040,55.225 C 251.592,54.266 248.522,47.987 244.942,44.795 C 239.352,39.812 232.475,38.220 222.750,39.657 C 219.725,40.105 216.350,40.680 215.250,40.935 C 206.980,42.857 198.697,44.484 195.746,44.768 C 191.990,45.130 186.751,44.544 180.250,43.037 C 163.828,39.229 162.524,39.000 157.249,39.000 C 150.142,39.000 144.542,41.314 139.695,46.253 C 137.653,48.333 136.375,50.142 135.843,51.703 C 134.346,56.097 135.869,56.739 138.979,53.025 Z M 44.500,247.030 C 44.087,246.788 41.162,245.904 38.000,245.065 C 30.049,242.956 26.559,241.801 22.628,239.974 C 20.770,239.110 18.406,238.064 17.375,237.648 C 15.251,236.791 15.181,236.572 16.320,234.350 C 17.952,231.164 28.195,217.077 32.879,211.576 L 34.304,209.902 L 38.027,212.703 C 44.488,217.564 51.025,220.134 58.951,220.928 C 60.721,221.105 62.255,221.509 62.360,221.826 C 62.465,222.142 61.508,223.151 60.233,224.066 C 54.996,227.827 48.464,238.541 46.785,246.125 C 46.472,247.538 45.813,247.799 44.500,247.030 Z M 339.828,246.646 C 339.689,246.153 339.424,244.963 339.240,244.000 C 338.786,241.620 334.397,233.433 331.750,230.029 C 330.562,228.500 328.332,226.020 326.795,224.517 C 325.258,223.014 324.000,221.633 324.000,221.448 C 324.000,221.264 326.306,220.856 329.125,220.544 C 331.944,220.231 335.712,219.509 337.500,218.941 C 341.084,217.800 346.673,214.501 349.712,211.731 L 351.674,209.943 L 353.070,211.347 C 354.483,212.768 357.954,217.161 364.844,226.250 C 368.390,230.928 370.984,235.415 370.995,236.891 C 370.998,237.243 370.606,237.658 370.125,237.813 C 368.025,238.490 363.481,240.184 360.250,241.497 C 354.406,243.870 351.465,244.825 346.500,245.963 C 343.887,246.561 341.374,247.161 340.915,247.296 C 340.400,247.448 339.984,247.199 339.828,246.646 Z M 108.750,69.319 C 102.173,65.302 97.829,64.038 89.020,63.578 L 82.750,63.250 L 82.404,60.000 C 81.826,54.562 81.874,31.926 82.465,31.335 C 83.280,30.520 90.649,32.500 104.348,37.213 C 108.802,38.746 112.796,40.000 113.223,40.000 C 114.095,40.000 114.302,41.998 113.512,42.788 C 113.244,43.056 112.572,45.070 112.020,47.263 C 110.523,53.205 110.599,61.988 112.192,67.000 C 113.316,70.535 113.405,71.529 112.595,71.478 C 112.405,71.467 110.675,70.495 108.750,69.319 Z M 273.000,70.577 C 273.000,70.344 273.343,69.466 273.762,68.626 C 274.859,66.426 275.664,58.955 275.345,53.923 C 275.072,49.613 273.407,42.810 272.485,42.241 C 271.654,41.727 271.934,40.000 272.849,40.000 C 273.315,40.000 276.634,39.014 280.224,37.808 C 283.813,36.603 289.675,34.785 293.250,33.770 C 296.825,32.754 300.480,31.701 301.372,31.430 C 302.264,31.159 303.220,31.077 303.497,31.248 C 304.083,31.610 304.199,62.459 303.617,63.250 C 303.407,63.536 300.581,63.753 297.000,63.756 C 291.218,63.762 290.395,63.886 286.000,65.422 C 281.429,67.019 276.335,69.553 275.731,70.531 C 275.370,71.115 273.000,71.155 273.000,70.577 Z M 167.250,251.045 C 162.910,249.833 160.158,247.239 158.767,243.050 C 157.965,240.637 157.962,240.220 158.719,236.816 C 159.221,234.561 160.193,232.141 161.265,230.476 C 162.219,228.995 163.000,227.423 163.000,226.982 C 163.000,226.541 163.793,225.253 164.763,224.121 C 165.732,222.988 166.883,221.204 167.320,220.156 C 168.521,217.278 174.509,208.500 175.272,208.500 C 175.640,208.500 176.067,208.704 176.221,208.954 C 176.376,209.203 177.795,209.785 179.376,210.245 C 180.957,210.706 182.599,211.263 183.025,211.483 C 187.332,213.708 200.941,213.163 205.811,210.572 C 208.362,209.214 211.061,208.000 211.526,208.000 C 211.731,208.000 212.393,208.956 212.996,210.125 C 213.599,211.294 214.495,212.700 214.988,213.250 C 215.480,213.800 217.520,217.062 219.521,220.500 C 221.522,223.938 223.687,227.650 224.333,228.750 C 225.778,231.212 228.000,238.034 228.000,240.007 C 228.000,240.808 227.540,242.691 226.979,244.192 C 225.641,247.768 223.012,250.158 219.484,251.004 C 215.997,251.840 207.583,251.343 202.250,249.986 C 194.568,248.030 191.365,248.118 180.500,250.583 C 177.461,251.272 169.106,251.564 167.250,251.045 Z M 138.485,231.022 C 137.514,230.509 135.692,228.989 134.434,227.645 C 131.674,224.694 130.377,221.023 129.527,213.750 C 127.987,200.583 127.708,199.665 123.170,192.864 C 117.820,184.846 115.649,176.325 117.711,171.436 C 118.550,169.447 121.050,166.973 123.500,165.709 C 126.236,164.296 135.363,164.594 139.260,166.222 C 140.284,166.650 141.601,166.994 142.186,166.987 C 143.186,166.975 149.134,168.283 154.750,169.752 C 156.125,170.111 158.037,170.539 159.000,170.702 L 160.750,170.998 L 160.754,179.374 C 160.758,187.675 160.773,187.786 162.401,191.837 C 163.304,194.085 164.907,197.010 165.963,198.337 C 168.320,201.301 171.000,205.789 171.000,206.774 C 171.000,207.175 169.852,208.684 168.448,210.127 C 167.045,211.569 163.758,215.396 161.145,218.629 C 155.689,225.380 151.229,229.509 147.805,230.976 C 144.802,232.263 140.868,232.283 138.485,231.022 Z M 239.250,231.386 C 235.462,230.036 231.781,226.561 223.743,216.750 C 221.040,213.450 217.925,209.800 216.822,208.638 C 214.948,206.664 214.861,206.444 215.488,205.272 C 215.857,204.583 217.239,202.741 218.559,201.180 C 219.880,199.618 221.769,196.802 222.757,194.920 C 225.567,189.573 226.096,186.834 225.917,178.567 L 225.761,171.384 L 228.756,170.429 C 230.403,169.904 232.988,169.240 234.500,168.955 C 236.012,168.670 238.375,168.126 239.750,167.747 C 246.709,165.825 257.407,164.007 258.750,164.516 C 259.300,164.725 260.731,165.189 261.930,165.546 C 263.129,165.904 265.179,167.157 266.485,168.332 L 268.860,170.467 L 269.197,174.622 C 269.622,179.865 268.431,183.657 264.333,190.103 C 258.676,199.000 258.088,200.922 256.526,215.592 C 256.243,218.255 255.528,221.724 254.938,223.301 C 253.806,226.327 250.734,230.095 248.426,231.288 C 246.822,232.118 241.462,232.175 239.250,231.386 Z M 188.750,203.001 C 184.241,202.309 179.455,199.877 176.050,196.548 C 173.911,194.458 170.576,188.403 169.947,185.470 C 169.087,181.462 169.587,174.824 171.029,171.082 C 172.578,167.064 175.907,162.934 179.750,160.262 C 183.116,157.922 183.983,157.583 188.250,156.939 C 192.231,156.339 192.119,156.337 197.000,157.095 C 206.859,158.626 214.334,165.620 216.089,174.956 C 216.975,179.669 216.309,186.040 214.534,189.834 C 212.730,193.688 207.459,199.194 204.000,200.837 C 199.829,202.818 193.450,203.723 188.750,203.001 Z M 158.466,166.416 C 156.972,165.875 154.474,165.012 152.915,164.500 C 151.356,163.987 149.444,163.244 148.665,162.849 C 147.887,162.454 145.787,161.626 144.000,161.010 C 134.298,157.665 129.254,153.498 127.647,147.500 C 126.767,144.214 126.856,143.250 128.310,140.381 C 130.732,135.602 134.089,132.958 143.687,128.274 L 152.313,124.063 L 158.399,117.407 C 166.861,108.151 169.611,106.174 174.765,105.642 C 178.700,105.236 180.618,105.787 183.210,108.069 C 186.799,111.229 188.324,114.988 189.061,122.500 C 190.213,134.232 190.458,137.524 190.478,141.572 C 190.502,146.255 190.570,146.140 187.250,147.007 C 182.142,148.340 174.467,152.117 171.242,154.885 C 169.533,156.353 165.649,161.367 164.027,164.202 C 163.179,165.685 162.191,167.012 161.833,167.149 C 161.474,167.287 159.959,166.957 158.466,166.416 Z M 222.024,163.875 C 218.678,158.375 212.644,152.732 207.296,150.102 C 204.893,148.920 201.425,147.593 199.589,147.152 C 197.752,146.712 195.969,146.279 195.625,146.191 C 194.002,145.776 196.080,119.468 198.066,115.281 C 198.580,114.198 199.000,113.049 199.000,112.726 C 199.000,111.684 203.022,107.537 204.913,106.631 C 207.772,105.260 212.605,105.507 215.905,107.192 C 219.232,108.890 223.613,112.895 228.664,118.853 C 232.904,123.856 234.641,125.062 242.250,128.283 C 244.725,129.331 248.100,130.976 249.750,131.939 C 253.163,133.932 257.756,138.294 258.500,140.250 C 259.384,142.576 259.093,147.642 257.912,150.485 C 256.935,152.836 256.367,153.403 252.341,156.051 C 249.875,157.673 247.594,159.000 247.273,159.000 C 246.951,159.000 245.802,159.421 244.719,159.936 C 243.636,160.451 241.850,161.152 240.750,161.494 C 239.650,161.835 237.175,162.755 235.250,163.537 C 230.826,165.334 224.982,167.500 224.556,167.500 C 224.377,167.500 223.238,165.869 222.024,163.875 Z" fill="#000000" fill-rule="evenodd" /></svg>