<svg xmlns="http://www.w3.org/2000/svg" viewBox="0 0 725 527" width="725" height="527"><path d="M 446.748,509.841 C 446.609,509.241 446.407,507.090 446.300,505.062 C 446.187,502.935 445.851,501.217 445.506,501.004 C 444.702,500.507 440.762,500.938 438.064,501.817 C 435.789,502.559 431.874,504.640 430.394,505.895 C 429.923,506.295 429.163,506.478 428.705,506.302 C 428.000,506.031 427.925,505.519 428.216,502.948 C 428.812,497.679 430.317,493.743 432.835,490.866 C 435.611,487.693 441.612,483.859 445.928,482.500 C 450.673,481.007 453.794,481.154 462.000,483.257 C 464.765,483.966 465.735,484.001 468.500,483.492 C 475.521,482.199 478.944,479.470 482.306,472.483 C 485.772,465.282 487.143,460.124 487.113,454.400 C 487.089,449.781 485.513,446.443 481.896,443.352 C 480.381,442.059 478.976,441.000 478.773,441.000 C 478.570,441.000 477.807,440.594 477.077,440.098 C 476.347,439.602 474.738,438.777 473.500,438.264 C 470.766,437.132 458.301,430.999 454.500,428.916 C 451.221,427.118 445.604,423.532 444.785,422.713 C 444.464,422.392 443.537,421.780 442.726,421.352 C 440.592,420.227 434.857,414.144 433.345,411.402 C 432.633,410.111 431.484,408.198 430.793,407.152 C 429.117,404.617 427.339,399.602 426.194,394.181 C 424.869,387.904 424.874,373.775 426.205,366.605 C 426.953,362.576 427.028,361.329 426.554,360.855 C 426.116,360.418 423.001,360.257 415.349,360.274 C 404.472,360.299 399.481,360.944 393.000,363.163 C 391.762,363.587 389.062,364.446 387.000,365.072 C 382.054,366.574 377.102,368.704 367.750,373.352 C 364.725,374.856 362.036,376.292 361.775,376.543 C 361.514,376.794 361.035,377.000 360.711,377.000 C 360.008,377.000 354.825,379.980 352.862,381.513 C 350.669,383.226 350.000,382.565 350.000,378.682 C 350.000,375.050 349.155,369.287 348.412,367.861 C 347.755,366.598 347.003,367.278 346.982,369.155 C 346.959,371.236 345.857,375.726 344.750,378.250 C 341.438,385.802 341.350,385.933 338.250,387.900 C 334.216,390.460 326.488,394.165 322.500,395.450 C 320.712,396.026 316.942,397.260 314.120,398.193 C 311.299,399.126 308.890,399.726 308.766,399.526 C 308.643,399.327 309.067,398.170 309.709,396.957 C 311.382,393.793 312.001,390.240 311.992,383.850 C 311.984,377.912 311.537,376.062 310.554,377.900 C 310.249,378.469 310.000,379.301 310.000,379.749 C 310.000,380.198 309.527,381.731 308.948,383.157 C 308.370,384.583 307.722,386.200 307.507,386.750 C 305.794,391.150 301.549,398.790 299.817,400.592 C 297.542,402.959 296.052,403.452 288.000,404.509 C 285.663,404.815 282.512,405.273 281.000,405.525 C 279.488,405.777 275.759,406.131 272.715,406.312 L 267.179,406.639 L 266.628,405.195 C 266.325,404.400 265.824,402.175 265.516,400.250 C 265.207,398.325 264.752,395.962 264.505,395.000 C 263.451,390.900 261.000,374.907 261.000,372.132 C 261.000,370.420 260.025,368.275 259.490,368.810 C 259.230,369.070 258.422,371.638 257.694,374.516 C 255.801,382.006 256.124,388.565 258.952,400.100 C 261.970,412.405 261.737,414.699 256.963,419.750 C 253.251,423.676 249.204,428.608 248.348,430.250 C 247.918,431.075 247.029,432.315 246.373,433.006 C 245.109,434.337 242.134,438.452 239.147,443.000 C 238.154,444.512 236.590,446.891 235.671,448.287 C 234.752,449.682 234.000,450.960 234.000,451.126 C 234.000,451.293 233.132,452.739 232.071,454.340 C 229.673,457.956 224.613,468.220 224.211,470.282 C 223.954,471.599 224.147,471.993 225.583,473.088 C 226.501,473.789 228.377,474.851 229.751,475.448 C 231.126,476.045 232.588,476.752 233.000,477.018 C 233.412,477.285 234.212,477.704 234.776,477.951 C 238.559,479.606 241.935,483.080 244.480,487.938 C 245.231,489.371 245.000,496.200 244.172,497.028 C 243.759,497.441 243.041,497.173 241.431,496.004 C 239.133,494.335 234.411,492.000 233.335,492.000 C 232.986,492.000 232.486,491.811 232.225,491.580 C 231.595,491.024 227.238,490.138 222.045,489.509 C 216.243,488.807 209.822,488.901 206.250,489.740 C 198.666,491.524 194.467,492.617 191.000,493.712 C 186.161,495.240 181.935,495.999 178.220,496.005 C 173.686,496.014 169.415,497.533 165.750,500.440 C 163.979,501.845 160.013,506.978 160.005,507.875 C 160.002,508.219 159.666,508.500 159.257,508.500 C 157.242,508.500 156.276,500.236 157.610,494.413 C 158.090,492.316 158.734,491.235 160.635,489.326 C 161.964,487.993 162.965,486.645 162.860,486.330 C 162.620,485.610 156.482,485.845 152.260,486.735 C 147.499,487.740 145.733,488.717 142.244,492.275 C 139.513,495.060 138.857,495.504 138.232,494.985 C 136.566,493.603 138.651,484.001 141.541,479.750 C 143.745,476.507 145.452,475.202 151.000,472.518 C 153.887,471.122 156.588,469.778 157.000,469.533 C 159.111,468.279 163.452,467.850 167.353,468.511 C 169.496,468.874 171.985,469.474 172.883,469.845 C 176.163,471.200 181.966,472.012 184.438,471.460 C 192.822,469.591 198.070,463.937 202.758,451.725 C 203.492,449.814 204.287,447.800 204.526,447.250 C 204.764,446.700 205.418,444.788 205.979,443.000 C 206.540,441.212 207.203,439.300 207.453,438.750 C 208.413,436.635 213.660,421.186 216.480,412.169 C 217.535,408.797 216.961,404.985 214.933,401.898 C 213.976,400.441 212.888,398.462 212.513,397.500 C 212.139,396.538 211.675,395.525 211.484,395.250 C 210.312,393.570 202.082,376.513 200.470,372.424 C 198.588,367.649 197.000,362.836 197.000,361.906 C 197.000,361.400 196.783,360.596 196.517,360.118 C 195.955,359.108 194.000,348.786 194.000,346.829 C 194.000,346.026 193.724,345.500 193.303,345.500 C 192.392,345.500 191.389,350.394 191.129,356.114 C 190.982,359.327 191.194,361.568 191.932,364.614 C 192.483,366.889 193.090,369.538 193.281,370.500 C 194.055,374.403 199.075,387.957 201.375,392.356 C 203.330,396.097 202.691,396.385 197.227,394.227 C 184.508,389.202 175.350,382.920 161.622,369.803 C 157.109,365.491 152.270,359.276 152.781,358.449 C 152.911,358.240 155.432,356.895 158.383,355.461 C 162.450,353.485 164.328,352.235 166.134,350.302 C 170.488,345.643 175.138,337.954 174.021,337.263 C 173.762,337.103 173.314,337.414 173.024,337.954 C 172.408,339.106 166.056,344.336 163.442,345.844 C 158.935,348.444 148.684,350.700 146.303,349.615 C 144.699,348.884 139.754,338.791 137.296,331.231 C 135.249,324.933 133.338,316.667 133.769,315.970 C 133.928,315.711 135.339,315.495 136.905,315.490 C 139.814,315.480 144.183,314.891 147.750,314.028 C 148.850,313.762 150.425,313.387 151.250,313.195 C 152.075,313.003 154.179,311.980 155.926,310.923 C 157.673,309.865 159.211,309.000 159.344,309.000 C 160.091,309.000 166.460,302.760 166.090,302.390 C 165.690,301.990 165.079,302.152 161.750,303.542 C 157.217,305.434 150.721,307.040 146.500,307.313 C 140.669,307.690 132.993,306.840 132.174,305.725 C 130.680,303.695 130.963,283.980 132.601,276.000 C 133.315,272.522 133.792,271.853 135.071,272.538 C 138.884,274.579 151.504,274.852 156.966,273.011 C 160.842,271.706 166.500,268.991 166.500,268.437 C 166.500,268.197 162.745,268.000 158.155,268.000 C 149.529,268.000 145.196,267.469 141.750,265.991 C 136.311,263.657 136.000,263.460 136.003,262.352 C 136.009,259.721 139.462,250.043 142.400,244.415 C 145.249,238.960 147.558,235.000 147.889,235.000 C 148.051,235.000 149.436,235.420 150.967,235.933 C 157.425,238.098 158.308,238.250 164.250,238.215 C 169.284,238.186 170.807,237.983 173.712,236.956 C 175.615,236.282 177.254,235.487 177.353,235.190 C 177.470,234.841 175.886,234.547 172.892,234.361 C 164.543,233.843 154.820,230.882 152.331,228.101 C 151.295,226.944 150.642,228.126 157.647,218.476 C 159.354,216.125 162.381,212.273 164.375,209.915 C 166.369,207.557 168.000,205.349 168.000,205.007 C 168.000,204.297 168.809,204.421 174.750,206.047 C 178.239,207.002 179.101,207.070 181.500,206.578 C 184.121,206.041 190.500,203.111 190.500,202.445 C 190.500,202.271 188.081,202.026 185.125,201.900 C 179.564,201.664 177.516,201.040 175.125,198.854 C 173.521,197.388 173.713,196.304 176.145,193.087 C 185.326,180.943 188.208,170.937 186.412,157.444 L 185.823,153.026 L 188.556,150.138 C 192.269,146.214 193.346,144.586 195.314,139.918 C 196.739,136.539 196.999,135.327 196.992,132.085 C 196.988,129.881 196.662,127.399 196.225,126.250 C 195.806,125.150 195.333,123.856 195.174,123.375 C 194.602,121.652 194.000,122.546 193.996,125.125 C 193.991,128.788 193.068,134.091 192.279,134.994 C 191.916,135.410 191.449,136.312 191.243,137.000 C 190.551,139.303 184.822,145.423 180.703,148.260 C 179.271,149.246 176.621,150.589 174.814,151.245 C 171.478,152.455 170.548,152.577 157.250,153.543 C 153.125,153.843 148.226,154.404 146.364,154.789 C 143.046,155.477 139.357,157.019 138.774,157.961 C 138.612,158.223 137.795,158.778 136.959,159.196 C 133.416,160.963 123.910,169.258 122.662,171.671 C 122.229,172.507 121.993,174.040 122.088,175.394 C 122.242,177.586 122.179,177.713 120.750,178.065 C 119.925,178.268 117.562,178.917 115.500,179.507 C 108.299,181.568 98.902,181.311 94.609,178.937 C 92.035,177.512 89.671,175.153 88.224,172.563 C 86.284,169.093 86.484,168.744 90.523,168.565 C 91.773,168.510 94.473,168.047 96.523,167.537 C 103.278,165.856 103.746,165.466 103.190,161.988 L 102.881,160.055 L 105.844,160.097 C 107.473,160.120 109.356,159.856 110.028,159.511 C 110.700,159.166 115.188,155.016 120.000,150.290 C 124.812,145.563 129.949,140.646 131.414,139.361 C 135.516,135.767 134.656,134.640 127.750,134.558 C 122.077,134.492 115.150,136.324 107.112,140.017 C 105.936,140.558 104.646,141.000 104.247,141.000 C 103.411,141.000 101.500,144.465 101.500,145.980 C 101.500,147.170 100.544,147.275 97.382,146.431 C 94.414,145.638 86.571,146.542 85.665,147.781 C 85.209,148.405 85.115,149.710 85.336,152.328 C 85.628,155.773 85.585,156.000 84.644,156.000 C 84.093,156.000 82.131,155.213 80.285,154.250 C 78.438,153.287 76.631,152.500 76.269,152.500 C 75.906,152.500 74.001,153.295 72.034,154.267 C 70.068,155.239 68.258,155.910 68.012,155.758 C 67.382,155.368 66.179,151.011 65.285,145.875 C 64.572,141.781 64.584,141.201 65.480,136.849 C 67.087,129.038 68.518,125.885 72.515,121.349 C 75.034,118.490 76.483,118.345 77.228,120.875 C 77.492,121.769 77.951,122.500 78.249,122.500 C 79.258,122.500 95.224,113.893 99.387,111.104 C 105.048,107.312 108.120,103.592 112.013,95.815 C 113.784,92.276 115.766,88.901 116.417,88.315 C 117.069,87.729 118.012,86.873 118.514,86.411 C 120.804,84.308 128.477,81.000 131.067,81.000 C 132.493,81.000 137.278,78.670 139.797,76.748 C 141.378,75.542 146.618,69.473 147.753,67.533 C 148.029,67.061 150.092,64.666 152.336,62.212 C 159.064,54.854 161.108,53.586 183.500,42.866 C 185.838,41.747 189.179,39.970 190.926,38.916 C 192.673,37.862 194.215,37.000 194.353,37.000 C 194.491,37.000 195.936,35.887 197.565,34.526 C 201.133,31.544 204.435,27.770 206.914,23.838 C 209.508,19.724 210.358,18.694 210.799,19.134 C 211.466,19.798 209.618,30.194 208.208,33.718 C 205.505,40.468 199.466,47.974 194.000,51.375 C 192.762,52.145 189.599,53.820 186.971,55.097 C 181.137,57.931 177.571,60.770 173.522,65.802 C 169.973,70.214 170.007,71.772 173.588,68.884 C 176.051,66.898 182.897,62.835 187.058,60.889 C 190.640,59.214 199.915,56.332 205.844,55.051 C 218.101,52.402 227.663,48.738 235.083,43.848 C 240.489,40.285 244.615,36.163 249.114,29.830 C 252.890,24.514 253.662,24.231 253.583,28.195 C 253.435,35.549 248.185,46.794 241.821,53.385 C 236.630,58.762 231.352,62.279 220.750,67.426 C 215.525,69.963 210.238,72.579 209.000,73.239 C 206.417,74.616 205.744,76.000 207.657,76.000 C 208.334,76.000 209.991,76.759 211.340,77.687 C 215.487,80.540 217.758,81.460 222.595,82.248 C 225.155,82.666 228.600,83.256 230.250,83.560 C 233.488,84.158 241.457,86.772 245.106,88.434 C 249.323,90.355 256.500,96.803 256.500,98.670 C 256.500,99.549 256.227,99.614 253.548,99.371 C 250.633,99.107 245.518,99.844 242.905,100.906 C 241.463,101.492 240.497,102.874 240.504,104.342 C 240.513,106.078 246.568,111.479 254.294,116.641 C 260.319,120.668 266.033,127.114 269.265,133.530 C 271.018,137.012 272.778,142.388 272.315,142.851 C 272.163,143.004 270.990,142.635 269.709,142.033 C 266.570,140.558 260.289,139.017 257.375,139.008 L 255.000,139.000 L 254.922,141.125 C 254.754,145.732 255.154,146.770 259.188,152.196 C 265.402,160.554 269.437,168.142 271.032,174.469 C 272.186,179.048 272.425,190.000 271.370,190.000 C 271.024,190.000 269.231,188.455 267.385,186.566 C 263.794,182.891 259.726,180.500 257.063,180.500 C 255.056,180.500 254.526,181.732 254.156,187.251 C 253.864,191.612 254.628,195.189 256.546,198.441 C 258.220,201.277 260.476,207.323 261.270,211.097 C 262.654,217.675 261.981,229.155 260.171,229.849 C 259.784,229.998 259.009,229.487 258.398,228.682 C 256.242,225.838 252.855,222.902 250.629,221.948 C 248.456,221.017 248.315,221.013 247.382,221.857 C 245.889,223.208 245.402,224.409 245.015,227.691 C 244.775,229.724 244.878,231.429 245.330,232.932 C 245.698,234.157 246.000,236.029 246.000,237.092 C 246.000,239.071 248.544,244.813 250.721,247.750 C 251.333,248.575 252.064,249.925 252.345,250.750 C 252.863,252.269 252.780,252.651 251.109,256.478 C 249.316,260.586 248.335,267.000 249.500,267.000 C 249.775,267.000 250.000,266.654 250.000,266.230 C 250.000,265.185 251.418,262.569 254.727,257.508 C 256.690,254.506 263.494,247.801 267.422,245.000 C 278.589,237.035 288.880,229.342 291.692,226.858 C 294.868,224.052 299.015,218.441 302.421,212.343 C 304.169,209.214 307.292,200.317 308.070,196.250 C 310.588,183.093 308.858,165.228 304.003,154.250 C 303.516,153.150 302.840,151.463 302.500,150.500 C 302.160,149.537 301.458,147.796 300.941,146.630 C 300.423,145.465 300.000,144.378 300.000,144.216 C 300.000,144.054 298.317,140.470 296.259,136.252 C 294.201,132.034 292.046,127.383 291.470,125.916 C 290.894,124.450 290.134,122.575 289.781,121.750 C 289.429,120.925 288.881,119.615 288.564,118.839 C 288.248,118.063 287.721,115.308 287.393,112.717 C 286.521,105.808 287.836,98.083 291.044,91.273 C 292.163,88.897 296.298,83.500 297.000,83.500 C 297.294,83.500 297.361,84.687 297.168,86.525 C 296.818,89.879 297.581,94.038 299.137,97.250 C 300.205,99.454 303.374,103.000 304.277,103.000 C 304.593,103.000 307.875,100.019 311.572,96.375 C 319.771,88.292 332.634,77.036 339.805,71.669 C 340.600,71.074 342.262,69.827 343.500,68.898 C 346.821,66.405 360.216,57.539 364.250,55.164 C 371.817,50.708 393.042,40.311 400.363,37.472 C 402.501,36.644 404.641,35.748 405.118,35.483 C 405.596,35.217 406.217,35.000 406.499,35.000 C 406.780,35.000 407.965,34.565 409.130,34.034 C 412.382,32.552 425.662,28.011 432.500,26.043 C 439.139,24.133 441.156,23.651 453.500,21.034 C 466.771,18.221 477.622,16.770 501.000,14.683 C 510.529,13.832 536.484,13.538 545.000,14.184 C 559.306,15.269 562.777,15.545 567.500,15.977 C 575.903,16.744 582.043,17.467 585.000,18.037 C 586.513,18.328 588.987,18.676 590.500,18.810 C 592.013,18.944 594.263,19.272 595.500,19.539 C 598.701,20.230 603.507,21.132 608.500,21.981 C 615.910,23.240 629.342,26.650 641.374,30.328 C 645.775,31.673 648.354,33.214 647.000,33.689 C 646.587,33.833 643.550,34.310 640.250,34.748 C 628.684,36.283 622.958,37.581 615.000,40.473 C 606.049,43.725 594.934,49.988 588.668,55.311 C 583.590,59.624 577.263,69.412 575.089,76.318 C 572.698,83.914 572.496,88.176 574.201,95.029 C 575.832,101.579 578.003,106.569 581.588,112.012 C 583.891,115.507 584.462,116.715 583.960,117.025 C 583.596,117.250 583.119,117.323 582.900,117.188 C 582.682,117.053 580.196,117.207 577.376,117.529 C 572.985,118.032 569.665,118.743 561.250,120.984 C 547.871,124.546 532.754,134.454 526.513,143.750 C 520.535,152.654 518.200,160.629 518.668,170.538 C 518.819,173.721 519.151,176.871 519.407,177.538 C 519.663,178.204 520.151,179.650 520.491,180.750 C 521.133,182.826 524.100,188.956 525.936,192.000 C 527.455,194.518 527.659,195.008 527.330,195.337 C 527.041,195.625 526.275,195.448 520.250,193.700 C 516.294,192.551 494.221,192.367 488.750,193.436 C 480.919,194.966 473.707,197.243 469.353,199.559 C 461.516,203.728 460.172,204.709 455.091,209.965 C 446.529,218.821 442.815,226.494 441.782,237.462 C 441.642,238.953 441.349,240.351 441.131,240.569 C 440.913,240.787 439.051,240.549 436.993,240.041 C 422.892,236.559 416.099,235.764 406.750,236.499 C 401.085,236.945 397.960,237.507 390.000,239.514 C 385.844,240.561 381.036,242.181 378.250,243.472 C 376.600,244.237 374.913,245.001 374.500,245.170 C 365.831,248.724 352.550,263.358 349.695,272.500 C 349.222,274.012 348.676,275.475 348.480,275.750 C 348.010,276.410 347.341,282.000 347.732,282.000 C 347.899,282.000 348.539,281.670 349.154,281.267 C 349.769,280.864 351.955,280.189 354.011,279.767 C 361.404,278.249 364.234,276.714 370.177,271.000 C 376.862,264.572 380.786,262.372 390.785,259.449 C 394.424,258.385 394.717,258.981 392.549,263.036 C 391.014,265.907 390.063,270.671 390.918,271.199 C 391.830,271.763 397.357,272.135 399.669,271.788 C 401.324,271.540 403.991,270.172 409.351,266.825 C 417.231,261.903 420.887,260.000 422.465,260.000 C 423.002,260.000 423.563,259.803 423.711,259.563 C 423.989,259.113 426.862,258.711 433.625,258.177 C 438.091,257.825 438.589,258.365 435.958,260.709 C 434.110,262.356 432.012,266.648 432.005,268.798 C 431.999,270.536 433.068,271.727 435.346,272.521 C 437.210,273.171 443.699,272.159 448.258,270.507 C 457.685,267.091 460.064,266.391 463.954,265.889 C 467.175,265.473 469.305,265.484 472.497,265.931 C 477.782,266.671 482.000,267.934 482.000,268.775 C 482.000,269.125 480.537,270.456 478.750,271.732 C 474.996,274.410 473.882,276.187 474.098,279.153 C 474.235,281.041 474.449,281.350 476.250,282.250 C 478.051,283.151 479.367,283.260 489.481,283.348 C 495.658,283.401 502.295,283.705 504.231,284.021 C 511.136,285.152 520.923,290.102 519.810,291.903 C 519.648,292.165 518.331,292.762 516.883,293.230 C 512.371,294.686 510.233,295.964 509.629,297.564 C 508.030,301.799 514.162,306.252 523.997,307.999 C 529.581,308.991 532.341,309.641 533.500,310.240 C 534.188,310.595 535.779,311.376 537.036,311.976 C 538.294,312.575 540.492,313.951 541.921,315.033 C 543.351,316.115 544.695,317.000 544.909,317.000 C 545.630,317.000 549.117,320.906 548.822,321.383 C 548.661,321.644 547.454,321.986 546.140,322.144 C 543.486,322.463 538.219,324.690 537.873,325.640 C 537.751,325.975 537.755,327.098 537.881,328.135 C 538.225,330.950 541.913,334.032 548.125,336.696 C 551.542,338.161 553.228,338.856 555.375,339.682 C 560.569,341.681 561.874,342.284 563.813,343.582 C 566.781,345.569 570.125,349.675 569.380,350.420 C 569.061,350.739 568.504,351.000 568.143,351.000 C 567.782,351.000 567.096,351.190 566.618,351.421 C 566.141,351.653 564.681,352.359 563.375,352.991 C 559.437,354.895 560.038,356.139 569.302,365.250 C 582.432,378.163 590.151,382.904 602.684,385.751 C 608.120,386.986 618.195,386.591 623.250,384.946 C 628.575,383.212 630.837,381.873 637.150,376.718 C 642.593,372.274 646.140,366.539 647.992,359.189 C 649.133,354.663 649.381,343.881 648.449,339.400 C 646.956,332.230 643.703,325.011 640.157,321.000 C 639.792,320.587 638.432,318.788 637.135,317.000 C 634.860,313.864 622.189,300.898 609.750,288.974 C 596.737,276.500 588.872,266.618 583.906,256.500 C 582.758,254.162 581.658,251.800 581.461,251.250 C 581.263,250.700 580.758,249.463 580.337,248.500 C 579.917,247.537 578.972,244.387 578.239,241.500 C 577.506,238.613 576.671,235.350 576.383,234.250 C 576.096,233.150 575.850,228.425 575.837,223.750 C 575.814,215.733 575.904,214.909 577.412,209.250 C 579.663,200.805 583.594,192.013 588.014,185.539 C 590.999,181.167 598.968,173.033 603.356,169.879 C 607.284,167.056 617.327,161.774 621.250,160.467 C 624.505,159.383 624.818,158.882 623.534,156.805 C 621.175,152.988 615.840,149.481 608.004,146.596 C 603.297,144.863 602.955,143.940 606.601,142.809 C 612.009,141.132 618.804,139.516 625.000,138.434 C 629.974,137.565 649.841,137.537 655.500,138.391 C 672.408,140.943 685.738,145.325 701.728,153.587 C 708.028,156.842 708.649,158.306 703.939,158.801 C 700.878,159.122 694.092,160.387 692.000,161.026 C 691.038,161.321 689.013,161.890 687.500,162.291 C 684.796,163.008 680.947,164.384 677.500,165.866 C 676.538,166.280 674.962,166.947 674.000,167.348 C 663.252,171.827 653.674,178.635 644.938,188.008 C 637.246,196.260 629.626,202.792 628.733,201.900 C 628.585,201.752 628.926,199.070 629.490,195.940 C 630.635,189.593 631.989,178.750 631.995,175.875 C 631.999,174.405 631.807,174.000 631.105,174.000 C 630.158,174.000 624.490,177.437 620.077,180.687 C 617.059,182.910 610.127,190.564 607.794,194.250 C 602.085,203.271 600.012,216.628 602.804,226.414 C 603.911,230.297 607.691,238.110 609.429,240.108 C 610.214,241.011 611.170,242.352 611.553,243.088 C 612.640,245.177 621.216,254.316 625.509,257.960 C 630.353,262.072 646.465,274.377 651.749,278.000 C 653.786,279.397 660.195,285.227 664.939,290.000 C 672.938,298.048 677.656,303.712 680.770,309.010 C 681.055,309.496 681.538,310.199 681.842,310.572 C 682.771,311.711 687.736,321.564 688.986,324.750 C 689.634,326.400 690.320,327.975 690.511,328.250 C 690.703,328.525 691.027,329.538 691.231,330.500 C 691.435,331.462 691.805,333.150 692.052,334.250 C 694.056,343.181 695.006,357.577 694.065,364.750 C 693.232,371.096 690.389,383.555 689.502,384.750 C 689.297,385.025 688.847,386.150 688.500,387.250 C 687.832,389.371 683.490,397.845 681.929,400.077 C 681.418,400.807 681.000,401.577 681.000,401.788 C 681.000,401.999 680.626,402.584 680.169,403.089 C 679.713,403.594 679.094,404.423 678.794,404.932 C 674.645,411.982 665.098,421.840 657.669,426.745 C 656.064,427.804 654.149,429.077 653.415,429.572 C 647.744,433.393 634.422,438.629 626.394,440.193 C 612.440,442.911 593.647,443.042 582.250,440.501 C 568.769,437.494 566.028,436.554 554.000,430.810 C 543.427,425.761 533.048,418.967 523.000,410.519 C 519.636,407.690 512.407,402.795 507.923,400.311 C 506.093,399.297 504.336,398.155 504.020,397.774 C 503.424,397.056 503.648,395.918 506.637,384.500 C 508.057,379.076 509.281,369.939 508.763,368.631 C 508.460,367.865 506.386,373.277 503.023,383.603 C 502.781,384.347 502.247,385.585 501.837,386.353 C 501.078,387.775 499.272,392.943 497.725,398.116 C 496.452,402.378 497.419,407.608 500.797,414.721 C 503.212,419.807 511.545,427.513 517.023,429.727 C 521.622,431.585 524.779,434.019 525.178,436.015 C 525.769,438.969 525.517,439.995 522.813,445.640 C 518.945,453.714 515.500,462.239 515.500,463.736 C 515.500,464.184 514.623,466.621 513.552,469.150 C 512.481,471.680 511.218,475.212 510.747,477.000 C 510.275,478.788 509.464,481.204 508.945,482.370 C 508.425,483.535 508.001,484.885 508.002,485.370 C 508.004,486.697 506.052,493.417 504.840,496.250 C 504.252,497.625 503.204,499.312 502.511,500.000 L 501.250,501.250 L 483.500,501.279 C 473.738,501.294 464.416,501.484 462.785,501.701 C 458.451,502.276 452.860,505.075 449.669,508.265 C 447.227,510.707 446.981,510.840 446.748,509.841 Z M 309.334,242.233 C 317.707,235.452 325.973,224.034 329.953,213.750 C 330.591,212.100 331.409,210.075 331.771,209.250 C 333.149,206.104 334.722,200.607 335.779,195.250 C 336.771,190.225 337.684,173.636 337.280,168.000 C 336.813,161.493 335.546,152.981 334.732,150.875 C 334.491,150.253 334.638,150.000 335.238,150.000 C 336.231,150.000 343.297,153.431 345.428,154.949 C 346.240,155.527 347.062,156.000 347.255,156.000 C 347.447,156.000 348.612,156.680 349.843,157.511 C 351.075,158.342 353.020,159.498 354.166,160.079 C 356.002,161.011 362.456,165.226 371.000,171.073 C 372.512,172.108 375.887,174.656 378.500,176.734 C 381.113,178.812 384.150,181.189 385.250,182.016 C 392.595,187.541 415.825,211.189 422.316,219.750 C 425.571,224.044 426.410,224.602 425.179,221.657 C 424.755,220.643 423.867,219.103 423.204,218.235 C 422.542,217.366 422.000,216.519 422.000,216.353 C 422.000,215.076 411.223,200.700 402.557,190.419 C 395.151,181.631 374.740,162.658 367.000,157.366 C 365.762,156.520 363.738,154.996 362.500,153.980 C 360.605,152.423 341.494,139.624 338.056,137.609 C 337.454,137.256 337.077,136.781 337.217,136.553 C 337.741,135.706 364.134,136.400 374.500,137.532 C 385.087,138.689 393.690,140.073 404.000,142.279 C 414.085,144.437 420.396,145.978 425.250,147.468 C 432.545,149.707 443.460,153.190 445.750,154.009 C 450.188,155.596 461.735,160.147 462.250,160.513 C 462.525,160.708 464.097,161.364 465.744,161.971 C 467.391,162.578 468.985,163.280 469.287,163.531 C 469.589,163.781 470.717,164.303 471.793,164.689 C 473.993,165.479 477.745,167.202 493.827,174.808 C 497.801,176.688 499.004,176.960 498.003,175.753 C 497.472,175.114 496.101,174.224 491.068,171.250 C 490.603,170.975 487.978,169.368 485.236,167.679 C 474.825,161.267 456.808,152.172 446.250,148.000 C 444.050,147.131 441.575,146.125 440.750,145.764 C 433.103,142.425 411.708,135.804 399.500,132.999 C 396.887,132.398 393.962,131.724 393.000,131.499 C 392.038,131.275 390.012,130.835 388.500,130.521 C 386.988,130.208 384.850,129.755 383.750,129.516 C 375.113,127.638 363.260,126.034 347.788,124.649 C 345.334,124.430 343.248,124.011 343.153,123.720 C 342.874,122.864 349.715,120.116 364.250,115.246 C 380.101,109.935 402.326,104.426 413.725,102.983 C 415.664,102.737 418.825,102.304 420.750,102.019 C 424.396,101.481 430.719,100.817 440.500,99.945 C 450.174,99.082 477.273,98.817 488.750,99.471 C 508.832,100.617 527.707,103.007 544.163,106.489 C 547.217,107.136 548.645,107.139 548.250,106.500 C 548.080,106.225 547.437,106.000 546.820,106.000 C 546.204,106.000 545.486,105.816 545.225,105.591 C 544.964,105.366 543.513,104.893 542.000,104.540 C 540.487,104.187 538.237,103.566 537.000,103.161 C 535.763,102.756 533.850,102.234 532.750,102.001 C 531.650,101.767 527.938,100.880 524.500,100.028 C 512.254,96.995 493.265,93.659 483.250,92.781 C 466.874,91.346 436.244,91.190 425.795,92.487 C 408.463,94.639 391.292,97.204 385.500,98.507 C 378.117,100.167 369.720,102.155 366.250,103.065 C 361.220,104.384 347.788,108.826 345.939,109.782 C 342.515,111.552 342.642,109.681 346.125,107.044 C 347.569,105.951 350.336,103.751 352.275,102.154 C 361.094,94.891 368.821,88.809 372.138,86.522 C 374.125,85.152 376.650,83.400 377.750,82.629 C 380.342,80.812 391.308,73.853 393.250,72.792 C 394.075,72.341 395.538,71.499 396.500,70.922 C 400.398,68.582 414.312,61.706 424.750,56.962 C 428.638,55.195 442.970,49.999 446.875,48.940 C 448.753,48.431 450.310,47.997 455.500,46.532 C 460.253,45.191 468.498,43.110 471.750,42.431 C 473.125,42.144 475.038,41.719 476.000,41.486 C 481.585,40.136 482.135,40.038 498.250,37.497 C 499.900,37.237 502.938,36.803 505.000,36.532 C 507.062,36.262 510.438,35.809 512.500,35.526 C 520.738,34.395 548.522,32.678 561.714,32.485 C 562.611,32.472 562.640,32.406 561.932,31.992 C 559.490,30.565 527.747,29.507 515.220,30.434 C 500.438,31.528 488.196,32.966 478.000,34.804 C 473.106,35.687 459.586,38.402 457.000,39.021 C 456.038,39.252 453.225,39.886 450.750,40.430 C 448.275,40.974 445.350,41.681 444.250,42.001 C 443.150,42.321 441.575,42.705 440.750,42.854 C 439.925,43.003 439.025,43.282 438.750,43.473 C 438.475,43.664 437.238,44.117 436.000,44.481 C 431.595,45.775 415.733,51.553 413.882,52.538 C 413.404,52.792 412.808,53.000 412.556,53.000 C 411.678,53.000 396.333,60.309 390.127,63.683 C 380.963,68.665 370.523,75.099 364.655,79.381 C 354.370,86.886 348.352,91.470 345.250,94.164 C 333.619,104.262 326.638,114.046 322.739,125.716 C 320.948,131.077 320.999,134.370 323.008,143.000 C 326.709,158.899 328.965,173.998 328.990,183.038 C 329.014,192.147 327.161,203.453 324.159,212.500 C 322.637,217.087 318.531,225.798 316.498,228.752 C 315.674,229.950 315.000,231.094 315.000,231.294 C 315.000,231.677 311.911,235.872 309.142,239.250 C 308.240,240.350 307.220,241.603 306.876,242.034 C 306.532,242.466 305.821,243.310 305.298,243.909 C 303.397,246.086 305.818,245.080 309.334,242.233 Z M 137.064,107.294 C 139.015,106.476 140.487,105.000 141.913,102.429 C 143.128,100.236 143.824,96.259 143.072,95.795 C 142.563,95.480 135.540,98.971 133.961,100.324 C 133.526,100.696 133.017,101.000 132.828,101.000 C 132.041,101.000 127.000,104.692 127.000,105.269 C 127.000,106.254 131.036,107.999 133.314,108.000 C 134.449,108.000 136.137,107.682 137.064,107.294 Z M 333.759,492.500 C 334.190,490.176 336.098,486.427 338.116,483.942 C 342.313,478.772 352.206,474.161 358.645,474.374 C 360.512,474.436 362.450,474.706 362.953,474.975 C 364.416,475.758 373.009,476.635 375.901,476.296 C 379.665,475.855 385.972,472.553 389.163,469.352 C 392.409,466.097 393.815,464.372 394.194,463.177 C 394.357,462.664 395.510,460.895 396.756,459.247 C 398.002,457.599 399.820,454.630 400.795,452.651 C 402.365,449.466 402.529,448.776 402.219,446.651 C 401.596,442.383 400.244,440.573 390.334,430.746 C 385.063,425.518 379.936,420.231 378.941,418.996 C 376.649,416.150 372.710,408.138 371.742,404.351 C 370.378,399.018 370.935,387.792 372.728,384.500 C 373.102,383.812 373.564,382.421 373.753,381.409 C 374.015,380.015 374.570,379.256 376.039,378.284 C 377.106,377.578 378.089,377.000 378.224,377.000 C 378.360,377.000 379.703,376.436 381.210,375.747 C 383.921,374.507 394.624,370.805 398.000,369.939 C 404.872,368.178 418.055,366.876 418.686,367.897 C 418.869,368.193 418.775,369.518 418.478,370.842 C 418.181,372.167 417.946,377.188 417.956,382.000 C 417.972,389.569 418.137,391.391 419.182,395.500 C 420.632,401.201 421.996,404.970 423.703,408.000 C 424.401,409.238 425.528,411.262 426.209,412.500 C 426.889,413.738 428.118,415.743 428.940,416.958 C 430.221,418.851 430.395,419.491 430.166,421.458 C 429.860,424.082 431.110,430.750 432.469,433.743 C 432.970,434.847 435.095,437.769 437.190,440.236 C 439.286,442.703 441.000,445.094 441.000,445.550 C 441.000,448.276 438.240,451.876 425.500,465.771 C 421.770,469.840 406.000,488.806 406.000,489.224 C 406.000,490.024 401.546,493.536 400.252,493.756 C 399.426,493.896 384.054,494.064 366.093,494.130 L 333.435,494.250 L 333.759,492.500 Z M 138.500,394.935 C 136.438,393.826 133.400,392.252 131.750,391.438 C 130.100,390.624 128.188,389.640 127.500,389.250 C 126.812,388.860 125.214,388.006 123.948,387.351 C 121.981,386.334 117.408,383.457 111.809,379.713 C 111.016,379.184 109.971,378.516 109.487,378.230 C 109.003,377.945 108.221,377.391 107.750,377.000 C 106.850,376.253 106.203,375.848 103.440,374.306 C 102.511,373.788 100.945,372.730 99.961,371.957 C 97.738,370.211 87.320,365.105 85.149,364.698 C 83.369,364.364 83.569,363.987 82.464,369.750 C 81.930,372.534 81.487,373.668 79.314,377.803 C 78.253,379.824 73.732,384.028 71.500,385.071 C 67.331,387.018 61.749,387.640 58.735,386.494 C 57.194,385.908 53.000,382.585 53.000,381.949 C 53.000,381.713 53.619,381.384 54.375,381.220 C 57.417,380.557 60.135,378.717 62.916,375.438 C 68.448,368.914 68.656,365.462 64.084,356.061 C 59.994,347.651 56.824,344.746 49.250,342.463 C 48.150,342.132 46.688,341.680 46.000,341.460 C 43.234,340.573 34.195,339.158 28.500,338.721 C 24.371,338.404 24.216,338.432 23.038,339.697 C 22.371,340.414 21.624,341.000 21.378,341.000 C 21.132,341.000 19.949,341.675 18.750,342.500 C 15.986,344.402 15.497,344.383 15.512,342.375 C 15.545,337.872 18.119,333.136 23.104,328.405 C 27.512,324.224 29.353,323.759 39.769,324.199 C 44.296,324.390 48.000,324.357 48.000,324.126 C 48.000,323.220 42.925,319.943 36.271,316.554 C 30.090,313.406 28.976,313.001 26.521,313.008 C 24.997,313.012 22.850,313.339 21.750,313.736 C 18.976,314.735 16.000,314.730 16.000,313.725 C 16.000,312.284 17.422,310.259 19.934,308.125 C 21.310,306.956 22.553,306.000 22.696,306.000 C 22.839,306.000 24.035,305.365 25.353,304.588 C 28.217,302.900 33.493,302.000 39.115,302.238 C 42.508,302.383 43.425,302.645 46.615,304.383 C 51.820,307.218 52.976,307.815 55.500,308.973 C 56.737,309.541 58.087,310.203 58.500,310.445 C 58.913,310.686 59.925,311.189 60.750,311.563 C 63.610,312.856 66.592,315.767 68.624,319.250 C 72.560,325.994 76.460,331.303 78.844,333.161 C 84.183,337.322 85.168,338.000 85.870,338.000 C 86.273,338.000 87.648,338.543 88.926,339.206 C 90.204,339.869 93.275,341.013 95.750,341.747 C 98.225,342.482 102.500,343.943 105.250,344.993 C 110.340,346.937 112.192,347.543 115.750,348.431 C 120.202,349.542 123.776,350.653 124.225,351.064 C 125.093,351.861 126.002,351.518 128.136,349.591 C 130.568,347.394 133.208,345.500 133.837,345.500 C 134.075,345.500 135.032,346.906 135.965,348.625 C 137.826,352.055 140.494,356.282 142.511,359.000 C 146.837,364.829 148.768,367.365 149.551,368.250 C 155.467,374.932 161.219,380.691 165.593,384.311 C 166.882,385.377 167.951,386.515 167.968,386.838 C 167.998,387.391 165.355,389.000 164.418,389.000 C 164.182,389.000 163.035,389.430 161.870,389.955 C 160.704,390.481 158.512,391.365 157.000,391.920 C 155.488,392.475 153.243,393.425 152.013,394.031 C 144.687,397.636 143.653,397.705 138.500,394.935 Z" fill="#000000" fill-rule="evenodd" /></svg>