<svg xmlns="http://www.w3.org/2000/svg" viewBox="0 0 369 376" width="369" height="376"><path d="M 96.957,353.625 C 96.934,353.419 96.948,352.120 96.988,350.738 C 97.071,347.932 96.811,347.571 92.039,343.859 C 89.151,341.613 87.311,338.648 86.793,335.403 C 86.435,333.169 85.097,331.644 83.138,331.238 C 79.413,330.467 77.789,329.648 75.367,327.321 L 72.750,324.807 L 72.879,319.924 C 72.950,317.238 73.208,313.625 73.452,311.895 C 73.696,310.165 73.714,308.556 73.492,308.319 C 73.132,307.935 71.194,309.163 66.881,312.505 C 64.855,314.075 64.318,313.398 64.663,309.705 C 64.982,306.285 66.250,303.378 69.792,297.942 C 71.904,294.700 73.002,292.000 72.208,292.000 C 71.543,292.000 65.215,295.888 64.523,296.722 C 62.911,298.664 62.000,297.345 62.000,293.068 C 62.000,290.588 62.289,289.734 64.226,286.484 C 65.450,284.430 68.037,280.976 69.976,278.808 C 71.914,276.640 73.500,274.698 73.500,274.494 C 73.500,274.077 71.958,273.466 68.252,272.412 C 66.758,271.987 65.693,271.381 65.600,270.902 C 65.370,269.706 69.503,264.916 71.921,263.577 C 73.463,262.722 75.290,262.296 78.645,262.009 C 84.367,261.519 89.402,259.527 94.248,255.837 C 97.120,253.649 97.962,252.635 99.697,249.269 L 101.750,245.289 L 101.750,233.769 C 101.750,227.434 101.944,221.181 102.182,219.875 C 102.665,217.216 102.420,217.046 100.250,218.537 C 97.752,220.253 89.951,223.987 87.269,224.751 C 82.053,226.236 76.622,227.108 72.837,227.067 C 66.828,227.002 57.206,224.832 54.423,222.915 C 53.693,222.412 52.974,222.000 52.825,222.000 C 52.676,222.000 51.248,221.232 49.652,220.294 C 42.302,215.974 34.826,205.290 31.955,195.000 C 30.937,191.355 30.770,189.646 30.778,183.000 C 30.791,172.426 32.096,167.107 37.131,157.102 C 42.820,145.798 52.184,135.678 76.000,115.096 C 88.297,104.469 95.331,97.111 100.568,89.400 C 104.875,83.057 106.729,76.059 105.577,70.485 C 103.915,62.435 99.993,57.758 93.050,55.542 C 90.811,54.828 84.096,54.848 81.950,55.576 C 77.941,56.936 75.275,60.267 73.490,66.148 C 72.188,70.437 69.111,75.897 66.991,77.681 C 63.364,80.733 50.396,86.851 44.500,88.292 C 41.077,89.129 31.729,89.201 29.450,88.409 C 25.244,86.947 19.000,82.314 19.000,80.655 C 19.000,80.177 19.951,80.000 22.517,80.000 C 28.172,80.000 32.644,77.280 36.300,71.615 C 37.235,70.166 38.000,68.754 38.000,68.476 C 38.000,68.199 38.675,66.634 39.500,65.000 C 40.325,63.366 41.000,61.894 41.000,61.731 C 41.000,61.183 38.773,62.110 36.600,63.563 C 35.417,64.353 34.319,65.000 34.159,65.000 C 33.436,65.000 34.559,60.693 36.061,57.702 C 37.972,53.901 42.080,49.803 45.812,47.976 C 47.973,46.919 48.933,46.784 54.250,46.789 C 58.729,46.794 60.931,47.027 62.934,47.708 C 66.347,48.867 68.678,48.554 73.250,46.320 C 78.697,43.658 81.528,43.000 87.525,43.000 C 96.231,43.000 102.377,45.584 108.931,52.000 C 114.354,57.310 117.362,64.477 117.852,73.261 C 118.635,87.273 110.789,101.402 93.981,116.250 C 81.020,127.700 77.826,130.664 69.202,139.246 C 59.274,149.126 56.449,152.639 52.130,160.479 C 46.681,170.372 45.752,173.638 45.792,182.750 C 45.820,189.177 45.841,189.298 47.726,193.500 C 50.394,199.448 52.666,202.685 55.935,205.196 C 59.454,207.899 61.756,209.060 66.443,210.495 C 69.493,211.429 70.773,211.568 73.786,211.295 C 81.231,210.620 85.059,209.605 90.750,206.797 C 97.582,203.426 101.880,200.203 105.897,195.439 C 111.389,188.926 115.890,185.537 138.435,170.941 C 144.962,166.715 152.916,159.558 156.604,154.595 C 158.742,151.717 161.504,146.721 162.392,144.125 C 163.079,142.117 162.936,142.104 158.077,143.753 C 152.285,145.719 147.242,145.248 143.810,142.419 C 141.236,140.297 141.461,139.690 144.974,139.293 C 150.174,138.704 151.734,135.791 153.526,123.320 C 154.234,118.389 153.782,117.710 151.262,119.923 C 149.072,121.845 145.995,123.455 142.990,124.251 C 139.053,125.293 131.500,123.815 131.500,122.004 C 131.500,121.744 132.709,120.758 134.186,119.812 C 140.411,115.830 141.026,114.083 141.238,99.781 C 141.406,88.431 141.580,87.462 144.593,81.086 C 145.416,79.346 145.973,77.807 145.832,77.666 C 145.692,77.525 144.041,78.308 142.163,79.405 C 138.463,81.568 135.206,82.872 134.720,82.386 C 134.552,82.218 134.789,79.869 135.248,77.166 C 138.235,59.542 142.749,50.801 153.399,42.017 C 154.555,41.065 155.491,40.052 155.480,39.767 C 155.468,39.483 154.339,38.725 152.970,38.083 C 151.329,37.313 150.206,36.377 149.672,35.333 C 149.226,34.462 148.206,32.998 147.405,32.078 C 146.604,31.158 146.039,30.146 146.150,29.828 C 146.369,29.199 146.810,29.193 151.150,29.763 C 155.525,30.337 160.930,28.546 166.215,24.769 C 172.066,20.589 175.201,18.614 179.581,16.351 C 185.863,13.105 187.260,12.784 195.212,12.766 C 202.015,12.751 202.385,12.804 206.297,14.381 C 210.853,16.218 216.142,20.521 217.326,23.355 L 218.013,25.000 L 223.632,25.011 C 228.804,25.021 229.468,25.134 232.000,26.435 C 233.894,27.408 235.426,28.732 236.922,30.689 C 239.211,33.683 242.850,36.000 245.266,36.000 C 245.980,36.000 247.619,36.419 248.907,36.932 C 250.196,37.444 252.375,38.127 253.750,38.449 C 258.679,39.602 260.387,41.884 259.491,46.118 C 259.184,47.566 258.711,50.526 258.440,52.697 C 258.169,54.868 257.527,57.456 257.014,58.447 C 255.645,61.092 251.366,65.500 250.167,65.500 C 249.604,65.500 248.142,64.735 246.917,63.800 C 244.303,61.804 242.126,61.122 236.979,60.690 C 230.333,60.132 227.512,62.506 225.513,70.340 C 224.492,74.345 226.200,78.528 229.574,80.284 C 233.614,82.386 240.630,82.088 243.476,79.694 C 245.274,78.180 246.726,78.180 248.238,79.693 C 250.789,82.244 251.143,88.580 248.989,93.162 C 247.668,95.972 244.040,99.000 241.994,99.000 C 241.178,99.000 238.978,97.899 236.500,96.250 C 234.227,94.737 232.068,93.500 231.701,93.500 C 231.335,93.500 230.062,93.170 228.873,92.766 C 226.541,91.974 219.097,91.572 218.106,92.185 C 217.036,92.846 217.456,94.863 219.125,97.086 C 221.310,99.996 224.978,101.818 237.810,106.364 C 243.452,108.363 247.705,111.565 251.632,116.768 C 253.491,119.233 255.656,122.600 256.441,124.250 C 259.111,129.862 261.000,139.586 261.000,147.721 C 261.000,151.473 260.850,152.500 260.303,152.500 C 259.920,152.500 259.493,152.202 259.353,151.839 C 259.059,151.072 250.346,145.000 249.540,145.000 C 248.702,145.000 248.860,145.355 250.941,148.146 C 253.777,151.949 257.681,155.737 263.293,160.132 C 268.442,164.164 275.558,169.000 276.344,169.000 C 276.593,169.000 278.473,170.040 280.523,171.312 C 284.797,173.964 293.202,178.263 296.134,179.297 C 300.360,180.788 301.145,180.478 306.243,175.296 C 312.889,168.541 315.205,167.581 321.949,168.786 C 326.762,169.646 328.546,170.179 330.170,171.243 C 331.501,172.116 334.226,176.440 333.747,176.920 C 333.600,177.067 332.142,176.966 330.507,176.695 C 327.235,176.154 325.000,176.823 325.000,178.343 C 325.000,178.790 324.091,180.020 322.979,181.077 L 320.958,183.000 L 322.665,183.000 C 325.299,183.000 328.685,184.761 332.062,187.887 C 335.739,191.292 337.122,194.084 337.112,198.087 C 337.109,199.648 336.952,201.174 336.764,201.478 C 336.554,201.818 335.513,201.062 334.061,199.515 C 332.641,198.004 331.269,197.000 330.622,197.000 C 330.029,197.000 328.366,197.695 326.926,198.543 C 323.989,200.276 322.420,200.309 318.393,198.725 C 317.096,198.215 315.884,197.950 315.698,198.136 C 315.512,198.321 316.201,199.404 317.228,200.542 C 319.873,203.469 320.600,205.546 320.621,210.232 C 320.642,215.190 319.976,217.703 317.885,220.548 L 316.267,222.750 L 315.962,220.000 C 315.609,216.821 314.397,214.178 313.130,213.827 C 312.646,213.694 311.153,213.435 309.812,213.252 C 307.360,212.918 307.168,212.783 303.645,208.898 C 302.763,207.925 301.021,206.650 299.776,206.065 C 297.377,204.937 294.500,204.644 294.500,205.527 C 294.500,206.492 292.592,210.234 291.516,211.378 C 290.932,211.999 289.886,212.879 289.190,213.335 C 288.005,214.112 287.938,214.375 288.137,217.457 C 288.254,219.268 288.522,221.256 288.733,221.875 C 289.483,224.076 287.107,223.187 284.040,220.120 C 280.377,216.457 279.312,213.583 279.269,207.250 C 279.252,204.775 279.052,202.458 278.824,202.100 C 278.297,201.272 267.242,196.000 266.032,196.000 C 265.128,196.000 263.534,199.025 262.804,202.125 C 262.627,202.881 262.294,203.500 262.065,203.500 C 260.980,203.500 257.376,200.244 254.525,196.688 C 252.789,194.522 251.206,192.686 251.009,192.608 C 250.207,192.292 248.857,197.259 248.909,200.331 C 248.939,202.074 248.826,203.500 248.658,203.500 C 248.172,203.500 243.863,199.985 242.595,198.554 C 241.959,197.837 239.087,193.854 236.211,189.703 C 233.335,185.552 229.693,180.872 228.116,179.303 C 225.476,176.675 219.355,172.979 218.711,173.623 C 218.562,173.771 220.085,175.555 222.095,177.587 C 224.105,179.619 226.183,182.125 226.712,183.156 L 227.674,185.030 L 225.712,187.039 C 223.185,189.627 217.634,193.409 213.500,195.359 C 207.840,198.030 199.052,200.605 192.584,201.490 C 190.292,201.803 187.899,202.295 187.264,202.585 C 184.930,203.648 184.181,207.870 186.089,209.206 C 186.688,209.626 189.332,210.443 191.964,211.021 C 211.030,215.211 218.197,217.957 223.937,223.272 C 229.605,228.520 233.475,234.393 234.546,239.373 C 235.509,243.853 236.766,245.793 239.628,247.220 C 240.413,247.612 240.750,248.225 240.750,249.265 C 240.750,250.551 240.548,250.770 239.241,250.898 C 238.323,250.988 236.605,250.477 234.852,249.593 C 233.268,248.794 231.857,248.327 231.716,248.556 C 231.575,248.784 231.806,249.641 232.230,250.460 C 233.619,253.148 233.007,261.500 231.420,261.500 C 231.189,261.500 231.000,261.080 231.000,260.567 C 231.000,260.055 230.533,259.041 229.962,258.315 C 228.861,256.916 224.895,254.000 224.092,254.000 C 223.830,254.000 223.262,255.069 222.830,256.375 C 222.398,257.681 220.797,261.000 219.272,263.750 C 217.748,266.500 216.500,269.051 216.500,269.418 C 216.500,270.626 222.536,276.402 226.775,279.252 C 231.693,282.559 237.910,285.358 242.042,286.126 C 246.345,286.927 249.250,285.889 253.750,281.946 C 260.188,276.305 263.736,275.688 271.504,278.860 C 275.201,280.370 276.398,281.133 277.857,282.913 C 279.613,285.056 280.816,288.746 279.936,289.290 C 279.697,289.437 279.001,289.207 278.390,288.779 C 277.632,288.249 276.127,288.000 273.672,288.000 C 270.443,288.000 270.032,288.110 269.732,289.056 C 269.473,289.873 269.906,290.634 271.654,292.431 C 273.812,294.648 275.155,297.028 276.560,301.130 C 277.277,303.222 276.660,306.650 275.151,308.966 L 274.358,310.181 L 273.554,308.017 C 273.112,306.827 272.162,305.415 271.443,304.880 C 270.170,303.931 270.062,303.929 267.317,304.795 C 264.539,305.670 264.459,305.667 261.864,304.592 C 257.618,302.832 257.249,303.106 259.102,306.645 C 260.789,309.866 260.676,315.867 258.864,319.250 C 255.857,324.862 254.291,325.431 253.800,321.090 C 253.362,317.216 252.470,316.000 250.070,316.000 C 247.767,316.000 244.966,314.257 240.500,310.045 C 237.071,306.811 235.280,306.007 231.500,306.004 C 229.384,306.002 229.167,306.133 227.859,308.204 C 225.228,312.368 223.357,312.770 217.250,310.482 C 213.721,309.159 211.482,307.007 209.000,302.550 C 206.281,297.668 205.500,296.892 203.228,296.816 L 201.255,296.750 L 200.921,300.102 C 200.549,303.837 200.287,304.500 199.182,304.500 C 197.654,304.500 195.596,301.589 192.212,294.639 C 190.308,290.728 188.510,287.522 188.218,287.514 C 187.361,287.491 186.033,290.789 185.391,294.532 C 185.064,296.439 184.665,298.000 184.504,298.000 C 184.032,298.000 181.169,292.780 180.488,290.678 C 179.468,287.531 177.936,284.430 175.908,281.402 C 173.759,278.196 173.631,277.685 174.875,277.287 C 175.356,277.133 177.693,275.149 180.068,272.879 C 184.230,268.899 184.433,268.600 185.693,264.594 C 187.167,259.906 187.255,258.690 186.390,254.913 C 185.915,252.838 185.266,251.734 183.451,249.912 C 179.041,245.485 172.519,243.122 164.004,242.864 L 160.257,242.750 L 160.399,235.250 C 160.571,226.125 160.790,224.170 162.103,220.000 C 163.300,216.199 165.884,212.611 170.413,208.461 C 172.190,206.832 173.476,205.500 173.270,205.500 C 172.347,205.500 166.080,209.186 164.500,210.657 C 162.364,212.648 158.500,217.450 158.500,218.115 C 158.500,218.381 158.187,219.308 157.804,220.174 C 156.121,223.986 155.004,232.136 155.001,240.618 C 155.001,243.570 154.779,246.945 154.510,248.118 C 152.744,255.803 151.348,260.767 150.657,261.822 C 150.016,262.801 149.971,263.288 150.429,264.294 C 152.052,267.856 149.587,277.750 145.893,282.500 C 144.791,283.917 139.955,288.000 139.379,288.000 C 138.807,288.000 138.925,281.901 139.552,278.976 C 140.134,276.264 139.767,275.237 138.402,275.761 C 137.981,275.922 136.482,278.023 135.070,280.428 C 132.050,285.573 130.132,287.562 126.834,288.969 C 122.610,290.771 122.452,290.579 123.988,285.526 C 124.527,283.752 125.114,281.333 125.291,280.151 C 125.701,277.420 125.226,277.383 119.472,279.701 C 117.150,280.636 113.338,281.799 111.000,282.285 C 108.662,282.771 106.355,283.504 105.872,283.915 C 105.388,284.325 104.493,284.911 103.881,285.216 C 102.707,285.801 102.512,286.471 100.745,295.983 C 99.738,301.402 99.972,308.265 101.269,311.379 C 101.698,312.408 102.871,314.094 103.876,315.125 C 106.230,317.541 108.399,317.611 113.806,315.446 C 116.880,314.215 118.218,313.936 120.239,314.103 C 122.968,314.330 128.566,316.778 130.960,318.793 C 132.736,320.288 134.506,324.356 134.856,327.750 C 135.177,330.862 134.478,331.624 132.773,330.021 C 132.139,329.426 130.560,328.619 129.265,328.229 C 127.219,327.614 126.725,327.616 125.500,328.250 C 123.599,329.233 123.459,329.898 124.659,332.250 C 125.372,333.649 125.745,335.553 125.899,338.586 C 126.109,342.742 126.052,343.037 124.508,345.735 C 123.623,347.283 122.640,348.463 122.324,348.358 C 122.009,348.253 121.598,347.104 121.413,345.805 C 120.956,342.614 120.336,342.001 117.564,341.997 C 113.984,341.993 111.776,341.158 109.608,338.990 C 108.513,337.895 107.505,337.000 107.367,337.000 C 107.097,337.000 105.287,341.454 104.725,343.500 C 103.932,346.391 101.800,350.376 100.110,352.125 C 98.429,353.864 97.059,354.516 96.957,353.625 Z M 225.785,41.943 C 225.974,41.637 227.126,40.946 228.345,40.406 C 231.133,39.173 230.692,38.466 226.379,37.256 C 223.418,36.425 218.503,36.455 216.256,37.317 C 214.788,37.880 215.501,38.869 217.578,39.147 C 218.989,39.336 220.150,39.920 221.194,40.963 C 222.763,42.532 225.111,43.033 225.785,41.943 Z M 265.147,142.629 C 265.087,130.262 263.973,125.881 258.670,117.145 C 257.420,115.086 256.590,113.237 256.824,113.035 C 257.058,112.834 258.262,112.381 259.500,112.029 C 263.047,111.021 271.272,106.505 276.936,102.457 C 279.788,100.418 283.833,97.526 285.924,96.031 C 291.407,92.111 298.781,84.571 300.264,81.371 C 302.230,77.127 302.265,75.434 300.515,69.250 C 298.661,62.700 298.180,58.511 298.954,55.656 C 299.725,52.811 302.916,48.912 305.784,47.309 C 308.409,45.842 311.703,45.115 312.186,45.897 C 312.358,46.174 311.939,47.380 311.255,48.576 C 309.573,51.518 309.637,53.043 311.500,54.421 C 312.665,55.283 313.000,55.917 313.000,57.265 C 313.000,58.219 313.214,59.000 313.474,59.000 C 313.735,59.000 314.653,57.525 315.513,55.723 C 317.180,52.229 317.961,51.660 321.738,51.187 C 322.844,51.049 324.931,50.606 326.375,50.204 C 329.712,49.274 335.075,49.719 337.401,51.119 C 339.506,52.387 339.332,53.635 336.995,54.028 C 334.944,54.373 332.451,55.604 331.511,56.737 C 330.995,57.358 330.966,57.936 331.382,59.290 C 332.037,61.425 331.519,63.489 329.823,65.505 C 329.143,66.313 328.315,67.795 327.985,68.797 C 327.236,71.065 327.825,71.573 330.426,70.900 C 331.429,70.640 333.406,70.306 334.818,70.157 C 337.091,69.917 337.790,70.098 340.898,71.731 C 344.823,73.793 347.626,76.330 349.049,79.105 C 350.493,81.921 350.336,82.650 348.375,82.237 C 347.481,82.049 346.536,81.693 346.275,81.447 C 346.014,81.201 344.986,81.000 343.992,81.000 C 342.440,81.000 341.725,81.452 338.967,84.179 C 335.787,87.322 335.710,87.362 332.310,87.700 C 330.419,87.887 328.169,88.394 327.310,88.825 C 325.337,89.816 321.640,93.331 320.710,95.100 C 319.655,97.107 319.809,99.982 321.042,101.295 C 321.616,101.905 322.304,103.379 322.571,104.570 C 322.839,105.761 323.439,107.163 323.904,107.687 C 325.106,109.038 327.634,110.000 329.984,110.000 C 332.848,110.000 332.603,111.127 329.275,113.256 C 325.564,115.629 320.637,116.394 316.043,115.308 C 313.402,114.684 312.421,114.142 310.487,112.238 L 308.139,109.925 L 305.844,112.350 C 304.581,113.683 302.743,115.807 301.760,117.069 C 299.622,119.814 299.811,120.869 302.976,123.847 C 304.088,124.894 304.999,126.037 304.999,126.387 C 305.001,127.520 302.403,128.111 298.829,127.791 L 295.408,127.484 L 292.976,130.075 C 291.638,131.500 290.662,132.858 290.807,133.092 C 290.952,133.327 292.138,134.060 293.442,134.721 C 294.746,135.381 296.130,136.304 296.517,136.770 C 297.139,137.520 297.054,137.751 295.781,138.766 C 294.990,139.397 293.871,140.023 293.296,140.156 C 292.721,140.290 291.575,140.642 290.750,140.939 C 289.925,141.236 288.181,141.610 286.875,141.770 C 284.369,142.077 283.995,142.613 285.290,144.044 C 285.924,144.745 285.966,145.130 285.500,146.001 C 284.886,147.147 282.203,148.500 280.542,148.500 C 279.997,148.500 277.796,149.039 275.651,149.699 C 273.505,150.358 270.274,151.035 268.470,151.203 L 265.190,151.508 L 265.147,142.629 Z M 257.750,77.157 C 256.925,77.051 254.594,76.635 252.570,76.232 C 249.291,75.579 239.547,74.694 232.039,74.368 C 230.495,74.301 229.245,73.996 229.134,73.660 C 228.753,72.503 232.403,69.157 234.770,68.495 C 237.644,67.690 242.985,68.090 248.000,69.486 C 255.876,71.678 258.536,72.092 260.971,71.502 C 265.956,70.296 270.500,65.017 270.500,60.431 C 270.500,57.940 271.271,57.594 273.042,59.290 C 277.716,63.768 277.561,70.491 272.703,73.980 C 268.531,76.976 263.936,77.953 257.750,77.157 Z" fill="#000000" fill-rule="evenodd" /></svg>