<svg xmlns="http://www.w3.org/2000/svg" viewBox="0 0 269 239" width="269" height="239"><path d="M 117.087,226.343 C 115.187,224.320 115.645,222.914 119.292,219.572 C 121.102,217.913 123.913,215.700 125.537,214.653 C 127.162,213.606 128.493,212.599 128.496,212.414 C 128.501,211.986 126.601,211.403 119.750,209.731 C 111.858,207.806 98.230,203.213 91.372,200.167 C 87.336,198.374 79.176,194.142 77.250,192.843 C 68.301,186.806 57.924,177.673 52.937,171.445 C 36.998,151.540 29.944,132.216 29.868,108.250 C 29.827,95.308 32.248,82.158 36.358,73.000 C 40.933,62.806 43.644,58.060 48.926,51.000 C 51.914,47.007 59.349,39.000 60.069,39.000 C 60.803,39.000 60.549,39.707 59.350,41.005 C 54.484,46.271 47.147,56.567 43.674,63.000 C 40.521,68.842 36.966,79.107 35.450,86.750 C 32.308,102.589 33.364,122.253 38.083,135.750 C 42.745,149.086 48.066,158.550 56.657,168.784 C 63.661,177.128 71.234,183.594 80.750,189.355 C 92.735,196.611 102.368,200.383 120.731,205.011 C 125.966,206.331 131.226,207.749 132.418,208.162 C 134.269,208.803 134.824,208.814 136.206,208.236 C 138.309,207.357 144.505,205.731 150.557,204.470 C 157.012,203.124 167.838,199.980 172.750,198.024 C 199.290,187.453 219.529,167.547 229.703,142.005 C 234.213,130.682 235.627,124.426 236.478,112.018 C 238.137,87.817 230.780,66.230 213.808,45.500 C 211.444,42.612 209.508,40.073 209.505,39.857 C 209.477,37.678 221.822,51.814 226.110,58.870 C 229.278,64.083 234.764,75.373 235.940,79.102 C 239.025,88.876 240.202,97.217 240.196,109.250 C 240.192,117.120 239.998,119.694 239.067,124.250 C 236.316,137.713 234.856,142.146 230.004,151.750 C 224.315,163.014 220.043,169.006 212.000,177.006 C 193.958,194.951 178.886,202.692 147.037,210.372 C 143.895,211.130 141.233,212.031 141.121,212.375 C 141.008,212.719 141.176,213.000 141.493,213.000 C 143.468,213.000 153.500,221.957 153.500,223.721 C 153.500,225.202 152.125,227.000 150.993,227.000 C 150.421,227.000 148.934,225.627 147.252,223.546 C 143.488,218.887 137.506,214.500 134.917,214.500 C 132.583,214.500 125.702,219.652 122.605,223.719 C 119.317,228.036 118.875,228.246 117.087,226.343 Z M 88.590,221.208 C 85.490,220.529 81.000,218.808 81.000,218.298 C 81.000,216.971 89.414,211.935 94.217,210.388 C 99.104,208.814 110.771,208.743 114.998,210.263 C 116.687,210.869 117.808,211.582 117.907,212.111 C 118.102,213.152 114.230,217.036 111.314,218.724 C 107.200,221.105 103.293,222.004 97.292,221.950 C 94.244,221.922 90.328,221.588 88.590,221.208 Z M 167.250,221.754 C 166.975,221.662 165.400,221.185 163.750,220.694 C 160.210,219.641 155.992,217.264 153.375,214.847 C 150.394,212.094 150.780,211.597 157.089,210.058 C 165.541,207.997 173.966,208.838 181.580,212.505 C 185.083,214.192 189.500,217.246 189.500,217.981 C 189.500,218.730 185.992,220.179 181.500,221.286 C 179.105,221.877 168.643,222.220 167.250,221.754 Z M 69.250,208.943 C 65.347,207.843 57.937,204.311 56.728,202.975 C 56.006,202.178 56.056,202.030 57.347,201.135 C 58.118,200.600 60.775,199.506 63.250,198.706 C 67.077,197.468 68.535,197.253 73.000,197.268 C 78.903,197.288 82.573,198.139 88.305,200.818 C 92.893,202.962 93.314,203.466 91.955,205.193 C 90.829,206.626 88.406,208.015 84.921,209.229 C 81.747,210.335 73.665,210.187 69.250,208.943 Z M 185.708,209.282 C 181.634,207.944 177.000,205.032 177.000,203.811 C 177.000,202.962 185.946,198.750 189.822,197.774 C 194.403,196.620 202.074,196.750 206.032,198.049 C 210.392,199.481 214.108,201.424 213.871,202.150 C 213.512,203.253 207.053,206.850 202.878,208.271 C 199.521,209.414 197.723,209.702 193.250,209.815 C 189.644,209.905 187.047,209.722 185.708,209.282 Z M 121.000,203.277 C 114.676,201.497 109.573,197.930 105.160,192.206 C 102.596,188.880 99.228,182.072 99.842,181.458 C 100.576,180.724 107.682,182.761 112.465,185.076 C 119.635,188.546 125.151,195.275 126.238,201.875 L 126.588,204.000 L 124.919,203.955 C 124.001,203.931 122.237,203.626 121.000,203.277 Z M 143.000,203.019 C 143.000,201.621 144.937,196.606 146.387,194.250 C 149.545,189.120 156.072,184.486 162.750,182.634 C 170.396,180.513 170.527,180.554 169.024,184.572 C 165.758,193.301 157.344,200.900 148.272,203.317 C 144.565,204.304 143.000,204.215 143.000,203.019 Z M 97.500,196.127 C 93.610,194.842 88.872,191.876 85.717,188.750 C 82.094,185.161 80.825,183.015 79.025,177.437 C 78.006,174.278 77.448,168.886 78.077,168.257 C 78.489,167.844 81.920,169.578 85.526,172.022 C 91.912,176.349 95.899,182.343 98.059,190.861 C 99.233,195.494 99.109,196.659 97.500,196.127 Z M 172.000,193.261 C 172.000,187.121 175.380,180.179 180.965,174.847 C 184.741,171.243 191.045,167.378 191.844,168.178 C 192.545,168.879 192.048,174.111 190.959,177.500 C 189.243,182.841 187.103,186.311 183.426,189.716 C 180.396,192.521 174.018,196.500 172.552,196.500 C 172.206,196.500 172.000,195.290 172.000,193.261 Z M 53.873,193.280 C 50.287,192.258 45.521,189.817 42.118,187.259 C 38.786,184.754 34.000,179.775 34.000,178.813 C 34.000,177.970 37.950,177.000 41.382,177.000 C 46.905,177.001 54.665,179.211 59.694,182.214 C 63.017,184.198 69.228,190.183 68.887,191.073 C 67.972,193.458 59.084,194.764 53.873,193.280 Z M 206.500,193.285 C 202.788,192.434 200.999,191.653 201.005,190.887 C 201.011,190.026 207.212,184.477 210.921,182.013 C 212.572,180.916 215.684,179.396 217.837,178.634 C 221.327,177.400 222.437,177.250 228.107,177.250 C 236.318,177.250 236.844,177.616 233.953,181.322 C 230.475,185.781 223.097,190.822 217.750,192.392 C 211.593,194.200 210.771,194.265 206.500,193.285 Z M 68.905,178.380 C 60.776,170.863 57.755,162.190 59.557,151.541 C 59.863,149.731 60.333,148.025 60.601,147.750 C 61.299,147.034 67.041,153.332 69.172,157.152 C 72.160,162.507 73.068,166.025 73.077,172.274 C 73.082,175.763 72.839,178.390 72.418,179.405 L 71.750,181.010 L 68.905,178.380 Z M 197.446,179.625 C 197.155,178.869 196.890,175.662 196.856,172.500 C 196.795,166.646 197.639,162.635 199.852,158.275 C 201.700,154.633 207.595,147.000 208.559,147.000 C 209.063,147.000 209.818,149.618 210.482,153.665 C 211.424,159.401 209.921,166.885 206.735,172.321 C 205.433,174.543 199.226,181.000 198.392,181.000 C 198.163,181.000 197.737,180.381 197.446,179.625 Z M 154.514,172.391 C 154.522,172.039 155.253,170.403 156.139,168.757 C 157.378,166.456 158.411,165.328 160.609,163.879 C 162.182,162.842 163.733,161.499 164.056,160.895 C 165.126,158.896 165.988,154.794 165.978,151.750 C 165.966,147.979 165.410,147.306 158.454,142.632 C 152.999,138.966 150.694,136.427 149.483,132.750 C 148.908,131.003 148.772,125.106 149.161,118.799 C 149.331,116.040 148.149,116.904 147.544,119.981 C 147.217,121.642 146.824,123.000 146.671,123.000 C 146.518,123.000 145.011,122.356 143.321,121.568 C 141.089,120.528 138.815,119.974 135.000,119.541 C 123.912,118.284 119.463,116.683 112.875,111.580 C 109.887,109.265 109.069,107.668 111.125,108.162 C 116.116,109.360 117.529,108.831 120.966,104.483 C 124.294,100.273 123.596,99.714 119.750,103.509 C 118.375,104.865 116.631,106.111 115.875,106.277 C 114.432,106.594 108.492,105.616 101.750,103.951 C 99.550,103.408 96.759,102.915 95.548,102.857 C 93.494,102.757 93.316,102.851 92.912,104.250 C 92.674,105.075 92.278,107.288 92.031,109.169 C 91.458,113.539 92.018,115.260 94.387,116.398 C 97.230,117.764 97.390,118.424 95.953,122.852 C 95.167,125.276 94.394,126.805 93.907,126.899 C 93.424,126.992 91.367,124.939 88.523,121.528 C 84.065,116.180 83.936,115.955 84.425,114.378 C 85.053,112.348 86.000,105.049 86.000,102.232 C 86.000,99.563 87.176,96.708 88.587,95.953 C 89.186,95.633 91.718,95.280 94.213,95.170 C 101.275,94.857 105.365,94.054 108.099,92.442 C 109.444,91.649 110.872,91.000 111.272,91.000 C 111.672,91.000 112.000,90.775 112.000,90.500 C 112.000,89.579 109.149,89.987 106.226,91.325 C 104.633,92.055 102.525,92.673 101.540,92.700 L 99.750,92.750 L 99.766,89.500 C 99.774,87.713 99.942,85.653 100.138,84.923 C 100.747,82.659 104.200,78.813 109.075,74.971 C 113.543,71.449 118.258,67.033 120.120,64.625 C 120.708,63.864 121.521,63.500 122.628,63.500 C 126.040,63.500 130.037,59.990 129.971,57.051 C 129.943,55.819 129.910,55.803 129.346,56.744 C 129.018,57.290 127.933,58.584 126.934,59.619 C 124.778,61.852 122.815,62.079 119.770,60.447 C 118.131,59.568 117.314,59.448 114.861,59.726 C 113.242,59.909 111.372,60.308 110.705,60.612 C 108.219,61.744 105.600,58.784 107.967,57.518 C 108.499,57.233 109.831,57.000 110.926,57.000 C 114.528,57.000 115.740,55.725 113.226,54.580 C 110.524,53.349 106.239,54.155 104.527,56.217 C 103.581,57.358 103.164,57.191 102.549,55.425 C 101.670,52.903 101.889,50.313 103.140,48.449 C 104.295,46.728 105.420,46.234 112.208,44.464 C 113.560,44.112 115.448,43.138 116.402,42.299 C 117.913,40.973 118.652,40.731 122.084,40.436 C 126.420,40.063 128.634,38.871 130.334,35.993 C 131.988,33.193 133.347,34.488 132.203,37.774 C 131.379,40.142 131.395,40.000 131.946,40.000 C 132.191,40.000 133.480,39.100 134.811,38.000 C 136.143,36.900 137.405,36.000 137.616,36.000 C 138.363,36.000 137.986,38.494 136.958,40.360 C 136.385,41.399 135.217,43.134 134.362,44.215 C 133.275,45.589 133.073,46.079 133.690,45.842 C 134.934,45.365 136.297,46.229 137.993,48.569 C 140.159,51.560 141.094,55.398 141.076,61.234 C 141.061,66.357 140.625,68.244 137.497,76.750 C 134.869,83.893 137.881,89.867 146.398,94.405 C 147.967,95.240 152.050,96.863 155.472,98.011 C 164.664,101.095 166.489,102.035 170.361,105.688 C 174.342,109.444 176.437,110.503 179.859,110.493 C 182.834,110.483 184.396,109.716 185.860,107.544 C 188.745,103.263 186.673,98.877 177.437,89.719 C 170.032,82.376 167.372,78.476 166.529,73.727 C 165.836,69.817 166.809,66.268 169.343,63.463 C 172.009,60.512 173.999,59.750 179.040,59.750 C 182.943,59.750 183.551,59.887 185.777,61.263 C 189.660,63.665 190.957,66.246 191.464,72.583 C 191.909,78.147 192.449,79.589 194.424,80.488 C 195.249,80.864 195.487,81.213 195.148,81.552 C 194.337,82.363 192.100,81.513 190.717,79.869 L 189.436,78.347 L 186.737,81.013 C 184.342,83.378 183.997,83.570 183.681,82.714 C 183.486,82.184 183.035,81.574 182.680,81.360 C 182.168,81.050 182.222,80.636 182.938,79.360 C 184.377,76.795 185.080,74.188 185.106,71.325 C 185.135,68.140 184.169,66.431 181.667,65.244 C 176.354,62.723 170.017,67.990 171.543,73.660 C 172.506,77.241 173.461,78.566 179.720,85.000 C 187.177,92.666 189.088,95.016 190.720,98.520 C 193.870,105.289 190.869,112.647 184.197,114.515 C 182.164,115.084 180.396,115.015 176.142,114.200 L 174.534,113.892 L 174.830,116.391 C 175.244,119.885 174.289,123.446 171.392,129.208 C 169.905,132.166 168.900,134.832 168.900,135.818 C 168.900,138.083 170.579,140.606 173.526,142.769 C 174.887,143.768 176.000,144.865 176.000,145.206 C 176.000,145.548 175.411,147.273 174.690,149.039 C 173.110,152.913 172.309,155.686 171.521,160.000 C 171.194,161.787 170.832,163.734 170.717,164.325 C 170.593,164.958 169.911,165.607 169.060,165.904 C 167.844,166.328 167.464,166.912 166.668,169.579 L 165.722,172.750 L 160.111,172.891 C 155.800,173.000 154.503,172.884 154.514,172.391 Z M 105.375,48.208 C 104.898,47.732 103.943,48.504 104.298,49.078 C 104.509,49.420 104.789,49.411 105.148,49.052 C 105.442,48.758 105.545,48.378 105.375,48.208 Z M 122.226,47.420 C 122.927,47.101 123.497,46.707 123.492,46.545 C 123.470,45.701 122.563,45.057 120.975,44.759 C 119.585,44.498 118.936,44.651 117.976,45.463 C 116.775,46.478 116.770,46.514 117.721,47.250 C 118.883,48.148 120.494,48.209 122.226,47.420 Z M 40.750,171.169 C 38.072,170.593 33.011,167.521 29.890,164.577 C 23.888,158.915 16.850,146.579 18.899,145.312 C 19.751,144.786 27.093,147.186 30.560,149.125 C 34.441,151.295 38.263,154.613 40.685,157.911 C 42.913,160.947 48.000,169.919 48.000,170.814 C 48.000,171.328 47.218,171.485 44.875,171.442 C 43.156,171.410 41.300,171.287 40.750,171.169 Z M 223.078,171.094 C 222.116,170.434 227.424,160.394 231.000,156.109 C 235.150,151.135 241.507,147.262 248.427,145.491 C 251.628,144.671 252.130,145.007 251.284,147.403 C 246.664,160.499 236.450,170.503 226.893,171.295 C 225.164,171.438 223.448,171.347 223.078,171.094 Z M 124.830,163.969 C 122.399,163.753 120.282,163.448 120.125,163.291 C 119.138,162.305 124.585,156.000 126.424,156.000 C 128.027,156.000 137.835,149.172 139.361,146.993 C 139.891,146.236 139.562,145.271 137.146,140.514 C 133.426,133.187 133.162,130.735 135.586,126.000 C 137.202,122.844 137.301,122.755 139.000,122.922 C 139.963,123.017 141.982,123.692 143.489,124.422 L 146.227,125.750 L 146.784,129.250 C 147.091,131.175 147.735,133.762 148.215,135.000 C 148.696,136.238 149.023,137.812 148.942,138.500 C 148.634,141.114 148.903,145.385 149.439,146.386 C 149.745,146.959 149.877,147.725 149.731,148.089 C 149.584,148.452 147.504,150.030 145.107,151.595 C 142.711,153.160 139.582,155.586 138.154,156.987 C 135.998,159.101 135.343,159.480 134.296,159.217 C 133.170,158.934 132.914,159.159 131.893,161.325 C 130.817,163.607 130.077,164.566 129.500,164.423 C 129.363,164.388 127.261,164.184 124.830,163.969 Z M 217.332,156.158 C 216.662,154.834 215.616,152.077 215.008,150.032 C 214.057,146.835 213.933,145.469 214.122,140.282 C 214.356,133.876 215.147,130.659 217.768,125.441 C 218.512,123.961 219.200,122.662 219.298,122.554 C 220.063,121.709 222.765,126.728 224.249,131.750 C 225.569,136.219 225.474,143.755 224.039,148.282 C 222.714,152.463 219.984,158.089 219.144,158.369 C 218.818,158.477 218.002,157.483 217.332,156.158 Z M 50.098,156.625 C 48.774,154.747 46.678,150.528 45.636,147.640 C 44.459,144.379 44.480,135.337 45.673,131.500 C 46.683,128.252 49.501,122.890 50.336,122.627 C 51.206,122.353 53.745,128.131 54.966,133.165 C 56.368,138.940 56.403,146.001 55.053,150.381 C 54.199,153.153 51.788,158.000 51.263,158.000 C 51.156,158.000 50.632,157.381 50.098,156.625 Z M 28.976,141.822 C 21.372,139.102 15.310,130.168 12.722,117.868 C 11.776,113.370 11.747,107.500 12.672,107.500 C 14.019,107.500 20.389,112.481 22.714,115.354 C 28.159,122.080 30.103,127.552 31.247,139.375 C 31.414,141.094 31.370,142.490 31.150,142.478 C 30.930,142.466 29.952,142.171 28.976,141.822 Z M 238.500,142.372 C 238.500,142.302 238.840,139.340 239.255,135.790 C 240.314,126.738 241.383,123.445 245.038,117.984 C 248.427,112.920 256.220,106.520 257.473,107.773 C 258.017,108.317 257.390,116.030 256.458,120.250 C 255.578,124.237 254.007,128.532 252.343,131.500 C 250.261,135.216 245.646,139.745 242.407,141.253 C 240.089,142.332 238.500,142.787 238.500,142.372 Z M 227.663,125.854 C 221.507,119.372 219.000,112.535 219.000,102.225 C 219.000,96.123 219.146,96.000 222.890,98.961 C 225.629,101.125 229.627,106.766 231.019,110.429 C 232.652,114.725 233.212,120.231 232.517,125.132 C 232.176,127.534 231.724,129.500 231.512,129.500 C 231.300,129.500 229.568,127.859 227.663,125.854 Z M 38.150,127.625 C 37.946,126.869 37.773,123.662 37.765,120.500 C 37.747,113.584 38.875,109.582 42.292,104.439 C 44.765,100.717 49.498,96.700 50.815,97.206 C 51.547,97.487 51.609,98.257 51.349,103.887 C 51.041,110.551 50.009,115.022 47.741,119.511 C 46.422,122.122 40.240,129.000 39.213,129.000 C 38.831,129.000 38.353,128.381 38.150,127.625 Z M 22.923,107.625 C 20.159,104.713 18.256,101.568 16.949,97.750 C 15.865,94.585 15.754,93.460 15.790,86.000 C 15.830,77.760 16.655,72.123 18.014,70.802 C 19.383,69.473 25.655,78.809 27.074,84.288 C 28.766,90.821 28.738,97.270 26.994,103.007 C 26.451,104.791 26.006,106.981 26.004,107.875 C 25.999,110.024 25.134,109.954 22.923,107.625 Z M 244.586,108.125 C 244.339,107.644 243.600,105.225 242.943,102.750 C 241.584,97.625 241.332,88.775 242.444,85.250 C 243.663,81.386 245.200,77.730 246.439,75.750 C 247.861,73.478 250.500,70.500 251.091,70.500 C 251.675,70.500 252.730,73.309 253.534,77.000 C 254.439,81.150 254.448,91.860 253.550,95.500 C 252.584,99.419 250.244,104.081 247.917,106.726 C 245.714,109.229 245.252,109.423 244.586,108.125 Z M 73.717,106.947 C 73.529,106.642 72.982,103.661 72.501,100.322 C 72.020,96.982 71.475,93.891 71.290,93.453 C 71.055,92.898 71.989,91.512 74.351,88.904 C 76.221,86.841 78.987,83.559 80.500,81.612 C 84.298,76.720 84.500,76.641 89.301,78.156 C 91.473,78.842 94.662,79.680 96.387,80.019 C 98.113,80.358 99.626,80.799 99.750,80.999 C 99.874,81.200 99.521,82.303 98.967,83.450 C 98.413,84.598 97.823,86.991 97.657,88.768 C 97.484,90.621 97.120,91.997 96.803,91.992 C 96.499,91.987 94.066,90.412 91.397,88.492 C 88.729,86.571 86.317,85.000 86.038,85.000 C 85.496,85.000 79.712,92.536 78.886,94.318 C 78.497,95.159 78.676,95.872 79.728,97.667 C 81.331,100.402 81.149,100.950 77.335,104.875 C 74.660,107.628 74.275,107.849 73.717,106.947 Z M 36.206,99.316 C 35.822,98.314 37.260,90.635 38.351,87.869 C 40.470,82.492 45.012,77.908 51.417,74.682 C 56.840,71.950 57.212,72.262 55.533,78.135 C 52.760,87.830 47.857,94.410 40.451,98.375 C 37.057,100.192 36.583,100.297 36.206,99.316 Z M 229.387,97.932 C 224.194,95.196 219.759,90.508 217.032,84.874 C 215.085,80.852 213.065,73.769 213.687,73.146 C 214.197,72.636 217.857,73.947 220.901,75.731 C 228.575,80.229 232.907,87.678 234.115,98.454 C 234.189,99.115 234.025,99.727 233.750,99.812 C 233.475,99.897 231.512,99.051 229.387,97.932 Z M 142.500,85.821 C 140.988,84.920 139.459,83.635 139.104,82.966 C 138.214,81.289 138.602,78.322 140.248,74.219 C 142.245,69.243 142.964,65.809 142.964,61.250 C 142.964,55.061 141.550,50.183 138.448,45.675 L 136.841,43.338 L 138.017,42.386 C 138.984,41.602 139.644,41.494 141.722,41.776 C 145.071,42.230 149.500,44.496 149.500,45.754 C 149.500,45.933 148.881,45.949 148.125,45.791 C 147.369,45.632 146.414,45.717 146.004,45.980 C 145.391,46.373 145.637,46.838 147.394,48.604 C 149.603,50.825 153.500,56.263 153.500,57.126 C 153.500,57.396 153.106,57.493 152.625,57.341 C 149.923,56.490 149.500,56.425 149.500,56.865 C 149.500,57.129 150.208,59.237 151.074,61.548 C 153.359,67.652 153.572,71.247 151.500,68.750 C 150.628,67.699 149.665,67.817 149.352,69.012 C 149.207,69.568 149.388,71.755 149.756,73.871 C 150.123,75.987 150.313,77.899 150.177,78.118 C 150.041,78.338 149.343,78.056 148.625,77.491 C 147.440,76.559 147.249,76.537 146.535,77.250 C 145.932,77.853 145.750,79.132 145.750,82.767 C 145.750,85.369 145.637,87.490 145.500,87.480 C 145.363,87.470 144.012,86.723 142.500,85.821 Z M 29.115,73.375 C 24.589,64.151 26.471,51.276 34.085,39.375 C 34.920,38.069 35.892,37.000 36.244,37.000 C 36.899,37.000 38.534,40.674 39.471,44.250 C 39.759,45.350 39.996,48.693 39.997,51.678 C 40.000,57.438 39.184,61.687 37.396,65.220 C 35.316,69.330 31.328,75.500 30.751,75.500 C 30.425,75.500 29.688,74.544 29.115,73.375 Z M 238.148,74.625 C 237.972,74.144 236.998,72.513 235.983,71.000 C 233.408,67.161 231.538,63.330 230.637,60.048 C 229.610,56.306 229.610,46.680 230.637,43.000 C 232.774,35.341 233.205,35.328 237.486,42.791 C 241.172,49.219 242.957,55.625 242.977,62.500 C 242.998,69.664 239.524,78.385 238.148,74.625 Z M 43.000,71.495 C 43.000,70.565 45.164,66.280 47.074,63.430 C 51.307,57.110 57.037,53.886 66.000,52.780 C 69.629,52.332 70.024,52.949 68.268,56.324 C 65.797,61.077 60.983,65.780 55.352,68.943 C 51.713,70.987 43.000,72.787 43.000,71.495 Z M 220.500,70.994 C 217.321,70.446 214.190,69.121 211.000,66.974 C 206.355,63.849 200.000,56.373 200.000,54.035 C 200.000,53.128 200.305,53.000 202.475,53.000 C 211.595,53.000 220.283,58.378 224.440,66.596 C 226.884,71.427 226.365,72.006 220.500,70.994 Z M 59.125,49.169 C 57.111,48.881 57.095,48.283 59.021,45.375 C 63.441,38.702 70.989,35.036 79.000,35.672 C 83.528,36.031 86.000,36.888 86.000,38.099 C 86.000,40.118 76.965,46.203 70.998,48.202 C 68.604,49.004 61.831,49.555 59.125,49.169 Z M 198.500,48.289 C 193.817,46.994 188.279,43.683 184.852,40.129 C 183.364,38.586 183.094,38.047 183.602,37.636 C 184.837,36.636 189.807,35.889 194.030,36.069 C 199.903,36.319 203.696,38.192 208.217,43.076 C 210.023,45.026 211.500,46.896 211.500,47.231 C 211.500,48.350 208.991,49.000 204.851,48.955 C 202.596,48.931 199.738,48.631 198.500,48.289 Z M 218.105,43.066 C 210.328,36.542 207.587,32.051 205.708,22.750 C 204.866,18.582 204.790,14.689 205.541,14.225 C 206.415,13.684 211.246,17.341 215.174,21.516 C 218.887,25.463 221.944,30.495 223.235,34.782 C 224.727,39.741 224.797,47.026 223.352,46.981 C 223.021,46.971 220.660,45.209 218.105,43.066 Z M 45.983,45.729 C 45.523,45.175 45.440,43.789 45.676,40.610 C 46.112,34.729 47.541,30.701 51.034,25.500 C 54.054,21.004 62.820,13.021 63.962,13.727 C 64.698,14.181 64.877,17.108 64.421,21.245 C 63.313,31.308 58.919,38.339 50.000,44.321 C 46.680,46.548 46.666,46.552 45.983,45.729 Z M 66.770,32.533 C 66.452,32.018 67.649,28.727 69.145,26.000 C 73.571,17.934 81.429,12.861 90.625,12.133 C 93.845,11.878 94.000,11.916 94.000,12.960 C 94.000,15.125 90.759,20.242 87.001,24.013 C 82.306,28.722 79.279,30.254 70.765,32.228 C 66.836,33.140 67.131,33.117 66.770,32.533 Z M 198.250,32.258 C 191.867,30.932 187.896,28.874 183.778,24.757 C 179.957,20.935 176.000,14.837 176.000,12.770 C 176.000,10.702 185.589,12.885 191.832,16.374 C 196.049,18.731 200.117,23.655 202.315,29.064 C 204.028,33.279 203.848,33.420 198.250,32.258 Z" fill="#000000" fill-rule="evenodd" /></svg>