<svg xmlns="http://www.w3.org/2000/svg" viewBox="0 0 270 342" width="270" height="342"><path d="M 30.500,322.356 C 27.240,320.715 29.433,316.531 36.176,311.529 C 38.734,309.632 41.510,307.301 42.346,306.349 C 43.804,304.689 43.879,304.372 44.233,298.444 C 44.436,295.047 44.437,283.809 44.236,273.471 C 43.962,259.369 44.019,254.399 44.462,253.571 C 45.259,252.082 45.737,222.138 44.978,221.223 C 44.687,220.873 43.336,220.434 41.975,220.247 C 40.615,220.059 39.394,219.733 39.263,219.520 C 39.131,219.308 39.357,217.585 39.764,215.692 C 40.171,213.799 41.163,209.100 41.968,205.250 C 42.773,201.400 43.871,196.338 44.407,194.000 C 45.785,187.991 50.405,172.395 50.976,171.824 C 51.280,171.520 52.784,171.573 55.102,171.968 C 67.019,174.000 82.371,174.683 89.283,173.487 C 90.915,173.204 94.229,172.607 96.647,172.159 C 99.244,171.678 101.207,171.530 101.441,171.797 C 101.884,172.302 104.706,179.553 105.217,181.500 C 105.398,182.188 105.858,183.875 106.239,185.250 C 108.303,192.695 110.168,200.124 110.814,203.469 C 111.216,205.549 111.750,208.262 112.000,209.500 C 112.639,212.652 113.464,217.075 113.619,218.181 C 113.781,219.334 112.949,219.797 109.750,220.332 L 107.250,220.750 L 107.101,235.750 C 106.994,246.583 107.123,251.306 107.567,252.750 C 108.027,254.243 108.149,260.899 108.051,279.000 C 107.968,294.314 108.103,303.730 108.420,304.553 C 108.891,305.780 111.746,308.043 118.731,312.726 C 123.630,316.011 125.423,320.963 122.238,322.414 C 119.593,323.619 109.680,322.687 96.135,319.960 C 92.029,319.133 91.370,317.951 91.794,312.173 C 92.134,307.540 91.671,302.222 90.167,293.500 C 89.244,288.147 88.679,284.689 88.002,280.250 C 87.709,278.325 86.995,274.613 86.415,272.000 C 85.754,269.019 85.226,264.270 84.996,259.250 C 84.722,253.255 84.351,250.310 83.515,247.500 C 82.165,242.961 81.678,240.800 79.436,229.406 C 78.810,226.223 77.373,223.500 76.319,223.500 C 75.124,223.500 74.479,224.779 73.758,228.579 C 73.071,232.198 71.888,238.103 70.969,242.500 C 70.520,244.649 69.488,248.487 68.473,251.785 C 68.213,252.630 68.000,255.859 68.000,258.961 C 68.000,263.399 67.568,266.961 65.973,275.676 C 61.709,298.972 61.453,300.792 61.062,310.500 L 60.750,318.250 L 58.465,319.385 C 55.614,320.800 48.969,321.896 39.525,322.508 C 35.524,322.767 32.138,322.981 32.000,322.982 C 31.863,322.984 31.188,322.702 30.500,322.356 Z M 154.089,321.845 L 153.003,320.689 L 152.997,241.871 C 152.993,198.521 152.807,162.940 152.584,162.802 C 152.360,162.663 149.606,162.894 146.463,163.313 C 138.819,164.334 127.965,164.458 124.870,163.559 C 121.564,162.598 118.674,159.849 115.805,154.937 C 112.873,149.916 108.240,142.511 107.451,141.583 C 106.552,140.529 106.205,141.398 105.284,147.000 C 104.809,149.887 103.889,154.500 103.240,157.250 C 102.591,160.000 101.916,163.193 101.741,164.346 C 101.565,165.499 101.158,166.643 100.836,166.887 C 99.951,167.560 91.115,168.902 83.250,169.559 C 77.929,170.003 74.546,170.004 69.142,169.564 C 61.208,168.918 51.961,167.237 51.389,166.338 C 51.184,166.015 51.012,165.188 51.007,164.500 C 51.003,163.812 50.569,162.117 50.043,160.733 C 49.145,158.370 48.550,155.988 46.639,147.108 C 45.771,143.074 45.089,142.730 44.181,145.868 C 43.855,146.991 43.264,148.662 42.866,149.580 C 39.581,157.167 37.647,163.441 35.787,172.543 C 35.090,175.957 34.071,180.400 33.523,182.416 C 32.039,187.875 31.645,195.708 32.725,198.250 C 35.117,203.875 36.357,209.399 35.561,210.885 C 35.253,211.462 35.000,212.388 35.000,212.943 C 35.000,214.472 28.978,217.721 26.909,217.307 C 24.466,216.818 20.312,214.200 18.000,211.692 L 15.873,209.384 L 16.176,192.817 C 16.526,173.679 17.130,164.825 18.227,162.720 C 18.649,161.911 18.995,160.837 18.997,160.333 C 19.001,159.029 20.883,151.717 21.986,148.717 C 24.156,142.814 28.131,128.116 27.731,127.469 C 27.572,127.211 26.997,127.000 26.455,127.000 C 25.000,127.000 24.805,125.856 25.756,122.894 C 27.164,118.503 29.863,113.404 32.511,110.132 C 37.833,103.554 44.567,100.584 57.250,99.220 C 60.048,98.919 60.436,99.010 63.014,100.574 C 64.535,101.496 66.672,102.618 67.764,103.069 C 68.856,103.519 70.690,104.277 71.838,104.753 C 72.987,105.229 74.800,105.607 75.868,105.592 C 78.151,105.561 84.284,103.231 89.323,100.481 L 92.895,98.532 L 97.573,99.282 C 106.105,100.650 111.073,102.452 115.779,105.886 C 118.704,108.021 123.471,114.974 125.913,120.666 L 128.021,125.581 L 126.776,127.061 L 125.531,128.540 L 126.463,130.895 C 131.321,143.169 130.913,142.436 133.687,143.886 C 136.043,145.117 136.730,145.227 142.202,145.238 L 148.155,145.250 L 148.738,143.500 C 149.099,142.415 150.020,141.291 151.160,140.541 L 153.000,139.332 L 153.000,85.945 L 153.000,32.557 L 151.937,30.756 C 151.167,29.451 150.944,28.434 151.128,27.066 C 151.451,24.657 155.655,14.235 156.279,14.295 C 157.001,14.363 158.758,18.235 160.499,23.597 L 162.074,28.445 L 160.838,30.263 C 159.753,31.859 159.635,32.459 159.869,35.166 C 160.015,36.862 160.191,38.318 160.260,38.400 C 160.328,38.483 162.379,38.218 164.817,37.810 C 172.596,36.510 182.934,35.894 192.750,36.144 C 204.809,36.452 210.962,37.561 212.066,39.624 C 212.483,40.402 212.664,46.940 212.700,62.482 L 212.750,84.250 L 210.000,84.118 C 208.488,84.045 205.338,83.709 203.000,83.371 C 196.731,82.463 179.055,82.601 171.500,83.616 C 168.062,84.077 163.956,84.604 162.375,84.785 L 159.500,85.115 L 159.500,112.497 L 159.500,139.879 L 160.875,140.464 C 161.631,140.785 163.150,142.098 164.250,143.380 L 166.250,145.713 L 166.232,150.731 C 166.210,156.670 165.705,157.898 162.020,160.983 L 159.500,163.093 L 159.500,242.027 L 159.500,320.961 L 158.406,321.981 C 156.968,323.320 155.429,323.271 154.089,321.845 Z M 30.984,210.125 C 30.964,209.044 29.838,207.500 29.070,207.500 C 28.226,207.500 28.379,209.038 29.327,210.086 C 30.371,211.238 31.005,211.253 30.984,210.125 Z M 71.750,101.163 C 66.119,99.921 60.320,96.103 58.590,92.500 C 56.926,89.034 58.009,64.726 60.074,59.179 C 62.174,53.538 68.188,49.996 75.644,50.005 C 84.181,50.017 88.803,52.851 91.941,60.000 C 93.723,64.061 94.770,86.518 93.395,91.192 C 92.083,95.649 84.731,100.912 79.458,101.167 L 77.750,101.250 L 77.887,89.263 C 77.962,82.670 78.187,77.129 78.387,76.950 C 78.939,76.453 83.485,75.110 85.846,74.745 C 88.335,74.361 89.130,73.560 88.911,71.655 C 88.767,70.396 88.594,70.276 87.250,70.500 C 86.425,70.638 81.812,70.750 77.000,70.750 C 72.188,70.750 67.151,70.638 65.808,70.500 C 63.652,70.279 63.346,70.367 63.199,71.250 C 62.934,72.843 63.446,73.870 64.641,74.145 C 65.251,74.285 66.987,74.732 68.500,75.138 C 70.013,75.543 71.833,76.011 72.545,76.177 L 73.840,76.479 L 74.170,88.199 C 74.351,94.644 74.363,100.274 74.196,100.709 C 73.890,101.507 73.573,101.566 71.750,101.163 Z M 210.000,99.027 C 203.286,98.470 198.662,97.542 197.365,96.491 C 196.373,95.689 196.250,95.129 196.250,91.420 L 196.250,87.250 L 198.750,87.278 C 200.125,87.293 204.565,87.615 208.617,87.994 C 212.669,88.373 216.139,88.527 216.329,88.338 C 216.518,88.148 216.737,79.642 216.815,69.435 C 216.893,59.228 217.058,50.775 217.183,50.650 C 217.576,50.257 254.000,50.039 254.000,50.429 C 254.000,50.633 252.925,52.139 251.610,53.775 C 250.296,55.411 247.837,58.550 246.146,60.750 C 244.455,62.950 241.485,66.662 239.548,69.000 C 237.610,71.338 236.019,73.475 236.012,73.751 C 236.006,74.027 238.830,77.852 242.288,82.251 C 251.703,94.227 254.000,97.287 254.000,97.851 C 254.000,98.133 252.481,98.506 250.625,98.680 C 245.117,99.198 215.140,99.454 210.000,99.027 Z" fill="#000000" fill-rule="evenodd" /></svg>