<svg width="219" height="337" viewBox="0 0 219 337" fill="none" xmlns="http://www.w3.org/2000/svg">
<path fill-rule="evenodd" clip-rule="evenodd" d="M13.165 335.282C10.912 334.258 9.977 332.972 9.529 330.281C9.286 328.819 8.982 328.498 7.497 328.138C4.216 327.343 0 324.773 0 323.569C0 323.222 1.371 318.79 3.047 313.719C6.725 302.591 8.29 297.178 9.47 291.5C11.194 283.209 11.635 281.147 12.25 278.5C12.859 275.88 15.143 260.522 17.027 246.389C17.453 243.188 17.521 239.442 17.248 234.139C16.657 222.627 16.637 220.645 17.073 216.662C17.563 212.198 18.525 207.794 19.085 207.447C19.313 207.306 19.503 206.811 19.506 206.345C19.517 204.88 22.411 199.712 24.76 196.962L27.019 194.318L26.309 192.409C24.798 188.345 24.375 185.694 24.628 181.877C24.997 176.302 26.254 172.97 29.042 170.171C32.678 166.519 34.962 165.55 40 165.523C45.135 165.495 48.251 166.379 51.339 168.739C55.959 172.271 56.709 175.271 55.841 186.75C55.388 192.745 54.742 194.239 51.628 196.5C50.421 197.376 49.554 198.416 49.543 199C49.533 199.55 50.622 201.318 51.962 202.93C54.468 205.943 55.017 206.913 58.417 214.341C61.031 220.053 62.68 222.066 65.5 222.986C68.141 223.849 73.039 224.654 73.899 224.367C74.353 224.216 74.5 219.411 74.5 204.718V185.27L72.5 184.25C70.497 183.228 70.064 182.579 71 182C72.008 181.377 71.443 180.078 69 177.405C66.045 174.171 65.83 172.686 67.776 168.949C69.796 165.074 70.406 164.75 75.68 164.753C82.486 164.757 83.553 165.186 85.971 168.886C87.087 170.594 88 172.466 88 173.046C88 174.308 85.659 177.659 83.701 179.199C82.491 180.151 82.379 180.441 82.897 181.271C83.783 182.689 83.661 183.061 81.978 184.079L80.456 185L80.472 205L80.489 225L81.995 227.945C84.118 232.101 83.913 235.754 81.348 239.433C80.397 240.798 80.355 241.59 80.457 256.29L80.564 271.715L79.351 272.019C78.684 272.187 77.376 272.251 76.444 272.162L74.75 272L74.5 258L74.25 244L68.124 243.898C64.755 243.842 61.155 243.562 60.124 243.276C57.483 242.543 57.357 242.586 57.638 244.125C58.004 246.127 59.826 255.219 61.02 261C61.588 263.75 62.248 267.238 62.487 268.75C63.222 273.413 65.352 288.756 65.922 293.5C66.219 295.975 66.705 300.025 67.001 302.5C67.748 308.734 68.393 323.187 68.041 325.778C67.808 327.492 67.449 328.087 66.25 328.747C65.264 329.291 64.695 330.036 64.591 330.921C64.386 332.656 61.414 335.542 59.422 335.941C57.493 336.326 53.601 336.331 52.178 335.949C51.588 335.79 50.409 334.692 49.559 333.507L48.012 331.353L39.807 331.624C34.431 331.801 30.822 331.698 29.337 331.324C26.553 330.623 26.053 330.805 24.596 333.049C22.542 336.21 17.416 337.211 13.165 335.282ZM106.665 335.354C104.545 334.212 102.884 332.002 102.535 329.862C102.274 328.258 102.048 328.059 99.849 327.501C96.9 326.752 93.226 324.173 93.313 322.913C93.348 322.411 94.429 318.625 95.715 314.5C98.51 305.537 101.28 294.904 103.662 284C105.311 276.447 105.758 274.143 107.028 266.625C107.318 264.906 107.753 262.712 107.993 261.75C108.233 260.788 108.681 257.75 108.987 255C109.294 252.25 109.76 248.22 110.023 246.045C110.64 240.933 110.627 234.962 109.983 227.025C109.624 222.607 109.626 219.405 109.989 216.577C110.582 211.966 111.442 208.229 112.074 207.525C112.308 207.264 112.5 206.743 112.5 206.368C112.5 204.896 115.661 199.248 117.772 196.948C120.221 194.281 120.263 194.17 119.409 192.592C118.198 190.354 117.561 184.68 118.061 180.591C118.967 173.187 121.375 169.161 126.382 166.68C129.814 164.979 136.653 165.058 140.539 166.844C144.29 168.568 146.228 170.345 147.748 173.451C149.034 176.079 149.043 176.184 148.706 184.053C148.519 188.424 148.133 192.45 147.849 192.999C147.564 193.549 146.245 194.976 144.916 196.171C143.587 197.365 142.5 198.545 142.5 198.792C142.5 199.039 143.282 200.266 144.239 201.519C146.451 204.418 149.334 209.564 150.46 212.625C151.82 216.324 155.81 222.2 157.381 222.818C158.134 223.115 160.145 223.764 161.849 224.261C164.299 224.975 165.057 225.034 165.464 224.543C166.1 223.777 166.221 128.946 165.587 128.554C165.354 128.41 160.346 131.908 154.457 136.327C148.568 140.747 141.603 145.889 138.978 147.755C136.354 149.622 133.908 151.509 133.542 151.949C133.177 152.39 132.614 152.75 132.292 152.75C131.849 152.75 131.737 140.052 131.831 100.149C131.912 65.854 131.782 47.34 131.458 46.949C131.073 46.485 130.432 46.49 128.6 46.974C125.798 47.713 123.036 47.001 121.484 45.14C120.183 43.581 120.267 42.506 121.781 41.315C123.97 39.593 126.27 39.073 128.841 39.721C130.759 40.204 131.304 40.166 132.358 39.475C133.044 39.025 135.663 37.584 138.178 36.272C143.931 33.269 148.601 30.719 149.25 30.226C149.525 30.017 151.1 29.112 152.75 28.216C154.4 27.32 157.031 25.724 158.598 24.669C160.164 23.613 161.574 22.75 161.733 22.75C161.891 22.75 162.915 22.185 164.01 21.494C166.331 20.029 166.546 18.78 165 15.75C164.45 14.672 164 13.44 164 13.013C164 12.585 164.813 10.27 165.807 7.868C166.802 5.465 167.906 2.712 168.261 1.75C168.616 0.787 169.166 0 169.483 0C170.053 0 172.148 4.486 174.013 9.704C175.06 12.633 174.923 14.186 173.427 16.327C172.009 18.358 172.265 19.459 174.5 20.932C179.939 24.516 182.061 25.759 194.25 32.497C197.825 34.473 202.409 37.03 204.436 38.179C207.809 40.091 208.329 40.241 210.562 39.945C213.398 39.568 217.06 40.435 218.265 41.767C219.656 43.303 218.999 44.818 216.352 46.177C214.149 47.308 213.721 47.366 211.102 46.879C209.299 46.544 208.066 46.524 207.75 46.825C207.425 47.134 207.203 65.481 207.116 99.367C207.043 128.004 206.892 151.524 206.782 151.635C206.574 151.842 202.007 148.771 195.5 144.047C193.438 142.55 189.162 139.574 186 137.434C182.838 135.294 178.602 132.331 176.588 130.85C174.575 129.368 172.826 128.257 172.704 128.38C172.581 128.502 172.487 150.613 172.495 177.515L172.509 226.427L174.005 228.757C175.959 231.803 175.994 234.431 174.125 237.927L172.75 240.5L172.5 256.728L172.25 272.956L171.064 273.235C170.412 273.389 169.009 273.432 167.947 273.331L166.015 273.146L165.882 258.573L165.75 244L159.25 243.672C155.675 243.491 152.3 243.266 151.75 243.172C151.011 243.045 150.767 243.261 150.816 244C150.876 244.9 152.388 252.332 153.562 257.5C154.991 263.787 156.579 274.102 157.719 284.5C158.141 288.35 158.708 292.85 158.979 294.5C159.251 296.15 159.702 299.75 159.982 302.5C160.437 306.96 160.621 310.063 161.198 323C161.284 324.925 161.247 326.791 161.115 327.146C160.984 327.502 159.982 328.249 158.889 328.807C157.287 329.624 156.956 330.027 157.18 330.883C157.386 331.671 156.955 332.423 155.512 333.796C153.299 335.902 150.514 336.528 146.267 335.874C143.813 335.497 143.004 334.794 141.036 331.322C140.717 330.76 139.34 330.74 132.934 331.205C127.478 331.601 124.416 331.612 122.484 331.24C119.81 330.727 119.721 330.748 118.437 332.171C117.715 332.971 117.038 333.887 116.931 334.206C116.639 335.084 113.034 336.206 110.5 336.207C109.263 336.208 107.537 335.824 106.665 335.354ZM166 32.733C166 26.412 165.917 25.751 165.125 25.761C164.644 25.767 163.688 26.212 163 26.75C162.312 27.288 161.56 27.733 161.327 27.739C161.095 27.745 160.307 28.167 159.577 28.676C158.288 29.575 156.727 30.431 145.326 36.495C142.343 38.082 140.127 39.52 140.402 39.69C140.677 39.861 146.549 39.936 153.451 39.858L166 39.717V32.733ZM199.841 39.424C199.729 39.313 197.863 38.339 195.694 37.261C193.525 36.182 190.287 34.474 188.5 33.465C186.713 32.456 184.012 30.958 182.5 30.137C180.988 29.315 178.378 27.88 176.702 26.946C175.026 26.013 173.388 25.25 173.063 25.25C172.63 25.25 172.51 27.151 172.611 32.375L172.75 39.5L185.75 39.75C197.911 39.984 200.344 39.928 199.841 39.424ZM116.8 167.331C116.67 167.12 116.324 164.935 116.031 162.474C115.738 160.013 115.28 156.2 115.013 154C114.746 151.8 114.286 147.863 113.991 145.25C113.42 140.21 112.869 135.67 111.985 128.75C111.687 126.412 111.375 123.048 111.291 121.274C111.098 117.188 110.736 116.935 104.064 116.209C94.803 115.201 89.066 116.361 77 121.681C68.068 125.62 62.696 126.859 54.25 126.929C48.386 126.978 46.56 126.801 43 125.837C40.663 125.204 37.85 124.453 36.75 124.169C34.377 123.555 26 119.746 26 119.281C26 119.103 29.094 118.461 32.875 117.855C44.19 116.04 55.843 111.975 52.375 111.052C48.334 109.977 43.639 108.347 41 107.102C37.176 105.299 24.5 96.898 24.5 96.167C24.5 95.863 25.246 95.783 26.375 95.967C36.559 97.625 53.047 98.303 57.25 97.237C65.502 95.143 67.838 94.266 77.5 89.638C86.973 85.1 90.147 84.279 100 83.817L106.75 83.5V81.656C106.75 79.34 107.437 78.634 109.49 78.839C112.081 79.097 112.236 79.876 114.97 106.5C115.252 109.25 115.707 113.638 115.98 116.25C116.451 120.761 116.749 123.761 117.989 136.5C118.751 144.33 119.491 151.377 120.032 155.955C120.833 162.721 120.714 163.642 118.768 165.796C117.815 166.85 116.93 167.541 116.8 167.331ZM75.875 163.1C74.377 162.508 74.282 162.134 74.465 157.5C74.623 153.487 76.394 147.405 77.154 148.264C77.268 148.394 78.076 150.37 78.949 152.655C80.838 157.601 80.846 161.356 78.971 162.874C77.761 163.854 77.779 163.853 75.875 163.1Z" fill="black"/>
</svg>
