<svg xmlns="http://www.w3.org/2000/svg" viewBox="0 0 344 375" width="344" height="375"><path d="M 168.500,360.415 C 160.689,358.261 155.899,356.635 151.532,354.657 C 150.038,353.979 147.838,353.094 146.644,352.688 C 141.696,351.008 124.693,342.658 118.500,338.866 C 116.713,337.771 114.463,336.431 113.500,335.888 C 110.378,334.127 94.866,323.528 90.565,320.217 C 84.616,315.639 77.077,308.948 70.026,301.991 C 68.686,300.669 61.323,292.591 58.513,289.360 C 54.528,284.777 44.702,271.034 41.998,266.262 C 41.449,265.293 40.524,263.656 39.941,262.625 C 39.359,261.594 38.485,260.188 37.999,259.500 C 36.063,256.763 27.000,238.125 27.000,236.881 C 27.000,236.488 26.853,236.019 26.673,235.840 C 25.824,234.991 19.772,216.148 18.935,211.750 C 18.726,210.650 18.340,208.850 18.078,207.750 C 16.641,201.725 15.303,193.263 14.639,186.000 C 14.425,183.662 14.250,143.950 14.250,97.750 L 14.250,13.750 L 170.500,13.750 L 326.750,13.750 L 326.906,93.750 C 327.081,183.283 327.115,182.176 323.524,203.000 C 322.231,210.497 317.987,226.969 316.503,230.250 C 316.254,230.800 315.722,232.262 315.322,233.500 C 313.168,240.149 307.148,253.203 302.627,261.029 C 301.285,263.350 298.064,268.376 295.469,272.197 C 292.873,276.018 290.525,279.503 290.250,279.941 C 288.928,282.049 281.013,291.427 275.642,297.250 C 270.033,303.330 267.950,305.382 260.198,312.463 C 253.177,318.877 241.488,327.400 230.317,334.250 C 221.358,339.745 219.906,340.558 212.000,344.511 C 197.103,351.961 185.734,356.622 175.500,359.477 C 174.262,359.822 172.733,360.306 172.101,360.552 C 170.795,361.062 170.852,361.064 168.500,360.415 Z M 176.875,338.078 C 179.144,337.210 182.744,335.853 184.875,335.063 C 191.925,332.448 207.047,325.109 215.113,320.388 C 221.101,316.883 230.239,310.738 235.968,306.361 C 244.185,300.084 259.579,285.602 265.848,278.250 C 271.194,271.981 283.000,255.391 283.000,254.148 C 283.000,254.014 283.420,253.307 283.934,252.577 C 284.871,251.247 292.759,235.785 294.177,232.500 C 294.593,231.537 295.268,229.738 295.678,228.500 C 296.089,227.262 296.781,225.407 297.218,224.377 C 297.654,223.347 298.366,221.210 298.799,219.627 C 299.232,218.045 299.777,216.075 300.009,215.250 C 302.531,206.288 304.516,195.823 305.842,184.500 C 306.679,177.358 306.750,171.150 306.750,105.374 L 306.750,33.999 L 170.375,33.874 L 34.000,33.750 L 34.000,105.327 C 34.000,186.456 33.887,183.621 37.953,204.250 C 38.953,209.324 39.453,211.367 40.164,213.285 C 40.565,214.366 41.385,216.938 41.986,219.000 C 42.588,221.062 43.384,223.425 43.754,224.250 C 44.125,225.075 44.804,226.875 45.264,228.250 C 46.063,230.640 49.416,238.146 50.623,240.250 C 50.939,240.800 52.244,243.275 53.523,245.750 C 57.849,254.118 63.437,262.675 70.711,272.071 C 76.319,279.314 79.714,282.914 92.338,295.000 C 100.068,302.401 111.890,311.312 125.507,320.000 C 131.476,323.808 143.471,329.902 150.500,332.696 C 153.113,333.735 156.037,334.926 157.000,335.343 C 159.421,336.393 160.307,336.741 163.750,337.996 C 165.400,338.598 167.200,339.289 167.750,339.533 C 169.377,340.254 172.480,339.759 176.875,338.078 Z M 203.005,296.125 C 203.016,294.487 204.519,290.270 205.722,288.507 C 206.381,287.541 208.068,285.512 209.471,284.000 C 215.659,277.328 220.196,269.152 223.448,258.815 C 225.561,252.096 225.544,249.138 223.375,246.362 C 221.282,243.683 220.851,243.306 214.000,238.145 C 204.285,230.828 197.864,223.633 193.980,215.713 C 192.891,213.493 191.993,211.356 191.984,210.963 C 191.964,210.072 190.606,208.228 190.239,208.594 C 189.909,208.925 190.772,212.694 192.108,216.750 C 193.298,220.366 196.432,225.838 199.265,229.250 C 201.739,232.229 205.300,237.325 207.230,240.649 C 209.770,245.024 208.410,247.568 199.361,255.367 C 190.844,262.707 188.522,265.072 185.968,269.003 C 183.965,272.085 183.011,273.049 180.760,274.263 L 178.003,275.750 L 178.002,279.608 C 178.000,283.304 177.931,283.536 176.355,285.108 C 174.315,287.144 171.266,288.000 166.054,288.000 C 161.081,288.000 160.638,287.597 161.526,283.886 C 162.436,280.086 163.125,278.655 165.835,274.927 C 171.059,267.739 172.644,265.958 180.245,258.734 C 189.352,250.078 191.000,247.975 191.000,245.007 C 191.000,242.684 189.221,239.750 183.528,232.679 C 179.681,227.901 175.974,220.682 174.835,215.750 C 173.223,208.767 173.000,207.523 173.000,205.513 C 173.000,203.191 173.262,203.335 167.500,202.483 C 163.534,201.896 152.198,198.516 148.072,196.690 C 144.573,195.142 140.233,192.828 138.000,191.321 C 134.751,189.128 128.114,183.517 127.799,182.698 C 127.613,182.213 126.659,182.000 124.675,182.000 C 120.555,182.000 111.221,180.897 105.250,179.704 C 99.186,178.492 88.909,177.374 87.788,177.805 C 86.367,178.350 85.814,181.093 85.782,187.749 C 85.757,192.843 85.917,194.541 86.484,195.227 C 86.991,195.841 87.223,197.356 87.234,200.128 C 87.252,204.581 87.013,204.246 91.550,206.183 C 94.087,207.267 94.377,207.550 94.648,209.215 C 95.160,212.375 91.819,223.579 90.175,224.209 C 89.711,224.388 88.497,223.520 86.906,221.871 C 82.646,217.460 80.944,214.944 77.434,207.875 C 76.866,206.731 76.122,205.242 75.500,204.007 C 74.843,202.701 74.859,197.437 75.525,195.685 C 75.814,194.925 76.128,189.567 76.224,183.777 C 76.452,170.034 76.582,169.328 79.194,167.567 C 81.672,165.896 83.510,165.188 86.500,164.753 C 87.737,164.572 89.875,164.218 91.250,163.964 C 92.625,163.711 95.438,163.278 97.500,163.001 C 99.562,162.725 102.938,162.208 105.000,161.853 L 108.750,161.208 L 108.658,159.479 C 108.607,158.528 108.405,155.677 108.210,153.144 C 107.975,150.093 108.066,147.476 108.478,145.394 C 110.030,137.553 111.089,135.407 120.853,120.331 C 123.063,116.917 123.925,115.463 126.529,110.750 C 128.664,106.885 130.000,102.368 130.000,99.016 C 130.000,95.540 129.402,95.196 126.797,97.176 C 124.267,99.099 122.445,99.841 118.750,100.452 C 112.311,101.516 109.121,103.385 107.254,107.187 C 106.487,108.747 105.468,109.995 104.648,110.375 C 101.357,111.902 93.954,110.263 92.080,107.593 C 91.562,106.855 90.852,105.119 90.503,103.737 C 89.924,101.444 89.962,101.031 90.934,99.018 C 91.520,97.805 92.000,96.631 92.000,96.409 C 92.000,95.959 100.526,84.456 102.316,82.493 C 102.946,81.802 103.796,80.288 104.205,79.129 C 105.062,76.699 107.935,72.332 111.473,68.080 L 113.936,65.121 L 113.036,61.435 C 111.779,56.294 111.504,54.663 111.835,54.332 C 112.234,53.932 117.892,57.840 118.633,59.027 C 119.715,60.760 120.000,60.078 120.000,55.750 C 120.000,52.973 120.192,51.500 120.554,51.500 C 120.859,51.500 122.962,53.409 125.228,55.742 L 129.348,59.985 L 135.907,59.966 C 142.678,59.947 144.498,60.279 153.000,63.084 C 159.786,65.323 163.227,67.907 159.625,68.058 C 158.869,68.089 158.025,68.168 157.750,68.232 C 157.475,68.295 156.969,68.382 156.625,68.424 C 156.281,68.466 156.000,68.802 156.000,69.171 C 156.000,69.568 157.682,70.394 160.125,71.197 C 162.394,71.943 165.634,73.453 167.326,74.554 C 170.259,76.461 174.500,80.662 174.500,81.661 C 174.500,81.931 173.705,81.986 172.625,81.789 C 168.058,80.955 167.000,80.883 167.000,81.404 C 167.000,81.698 169.396,84.259 172.325,87.095 C 176.909,91.532 177.886,92.772 179.344,96.000 C 180.276,98.062 181.255,100.141 181.519,100.618 C 182.612,102.592 181.384,102.487 177.627,100.285 C 171.200,96.518 169.788,97.358 174.394,102.207 C 176.286,104.198 178.555,106.876 179.436,108.158 C 181.238,110.776 184.284,119.416 183.635,120.065 C 183.403,120.297 182.434,119.961 181.482,119.319 C 179.126,117.729 173.898,115.902 173.331,116.469 C 173.063,116.737 173.789,118.102 175.120,119.835 C 178.476,124.201 180.434,127.595 181.317,130.575 C 181.753,132.046 182.534,134.082 183.051,135.098 C 184.226,137.405 183.652,137.864 180.837,136.868 C 179.689,136.462 177.738,135.836 176.500,135.478 C 175.262,135.119 174.036,134.640 173.775,134.413 C 173.146,133.866 171.500,133.883 171.500,134.436 C 171.500,135.379 173.531,139.375 175.201,141.721 C 177.266,144.620 182.486,149.263 185.577,150.949 C 193.480,155.260 195.321,156.065 200.750,157.580 C 202.675,158.118 204.925,158.754 205.750,158.995 C 206.575,159.236 209.118,159.907 211.400,160.487 C 213.683,161.068 216.383,161.964 217.400,162.478 C 218.418,162.993 220.314,163.887 221.613,164.464 C 224.328,165.671 226.327,166.972 229.660,169.703 L 232.018,171.635 L 236.884,169.491 C 245.136,165.856 252.416,165.611 259.378,168.736 C 265.302,171.394 270.237,178.265 271.519,185.640 C 272.130,189.159 271.933,194.614 271.054,198.500 C 268.665,209.059 268.031,212.734 268.016,216.100 C 267.978,225.246 271.071,231.324 277.125,233.998 C 278.431,234.575 279.500,235.255 279.500,235.509 C 279.500,236.309 273.886,237.666 270.661,237.645 C 267.372,237.625 263.253,236.433 260.686,234.760 C 257.913,232.953 255.004,228.977 253.819,225.375 C 253.346,223.936 252.452,224.360 252.765,225.875 C 253.292,228.425 254.171,231.247 254.587,231.725 C 254.814,231.986 254.991,232.661 254.980,233.225 C 254.950,234.761 251.105,230.403 249.378,226.876 C 247.340,222.714 246.865,219.707 247.162,212.834 C 247.422,206.821 247.677,205.113 249.190,199.250 C 249.642,197.499 249.972,194.052 249.982,190.973 C 249.999,186.002 249.916,185.564 248.559,183.424 C 246.342,179.927 244.712,179.000 240.782,179.000 C 237.381,179.000 236.269,179.691 237.354,181.131 C 238.675,182.885 239.250,186.562 239.250,193.250 C 239.250,202.473 238.402,205.406 233.207,214.142 C 231.443,217.108 230.000,219.755 230.000,220.024 C 230.000,220.293 229.729,220.947 229.398,221.478 C 228.781,222.465 229.278,225.600 230.629,229.250 C 231.444,231.454 234.543,235.912 237.238,238.759 C 240.808,242.530 241.190,243.492 240.300,246.488 C 239.896,247.848 239.213,249.757 238.783,250.730 C 238.352,251.704 237.686,253.231 237.303,254.125 C 236.586,255.795 235.070,259.224 233.490,262.750 C 232.590,264.757 231.263,268.305 229.843,272.500 C 228.829,275.497 228.000,279.220 228.000,280.780 C 228.000,282.331 226.080,284.342 224.168,284.795 C 221.385,285.455 220.501,286.818 220.493,290.462 C 220.480,296.834 220.220,297.000 210.226,297.000 C 203.675,297.000 203.001,296.918 203.005,296.125 Z M 51.489,181.237 C 50.672,180.252 51.252,168.474 52.227,166.261 C 52.869,164.803 53.719,162.337 55.276,157.415 C 55.879,155.510 56.819,154.362 60.382,151.174 C 62.785,149.025 67.112,144.862 70.000,141.923 C 78.528,133.242 81.659,131.375 85.404,132.735 C 88.575,133.886 91.778,135.432 93.039,136.419 C 93.705,136.940 96.687,138.515 99.666,139.918 L 105.081,142.469 L 104.916,150.034 C 104.727,158.630 104.634,158.814 100.707,158.372 C 98.906,158.169 97.697,157.416 93.189,153.690 C 84.051,146.137 82.836,145.582 79.202,147.306 C 76.414,148.629 72.409,153.091 70.250,157.278 C 68.656,160.370 67.742,161.505 65.750,162.870 C 64.375,163.812 63.176,164.908 63.086,165.306 C 62.995,165.703 63.614,166.817 64.461,167.782 C 65.997,169.531 66.492,172.136 65.687,174.233 C 65.129,175.687 54.708,182.000 52.866,182.000 C 52.457,182.000 51.837,181.656 51.489,181.237 Z" fill="#000000" fill-rule="evenodd" /></svg>