<svg xmlns="http://www.w3.org/2000/svg" viewBox="0 0 338 362" width="338" height="362"><path d="M 87.637,350.171 C 84.562,349.728 83.633,347.168 80.503,330.500 C 79.651,325.962 78.750,321.350 78.501,320.250 C 78.252,319.150 77.571,315.663 76.987,312.500 C 75.978,307.032 71.872,286.718 71.024,283.000 C 68.686,272.752 65.659,258.539 61.919,240.250 C 61.075,236.125 59.958,230.725 59.435,228.250 C 58.913,225.775 58.156,222.175 57.754,220.250 C 57.351,218.325 56.451,214.050 55.753,210.750 C 55.056,207.450 53.924,201.825 53.239,198.250 C 52.554,194.675 51.879,191.442 51.740,191.066 C 51.600,190.689 50.719,186.527 49.783,181.816 C 48.846,177.105 47.852,172.238 47.574,171.000 C 47.296,169.762 46.809,167.287 46.493,165.500 C 46.177,163.713 45.701,161.238 45.434,160.000 C 45.168,158.762 43.724,151.562 42.224,144.000 C 39.718,131.355 39.124,128.433 37.451,120.500 C 37.132,118.987 36.323,115.662 35.653,113.110 C 34.983,110.558 34.250,107.408 34.024,106.110 C 33.468,102.920 29.192,81.745 28.543,78.970 C 27.993,76.616 25.671,64.845 24.981,60.908 C 24.422,57.720 24.110,57.245 20.033,53.378 C 18.078,51.523 16.239,49.386 15.947,48.628 C 15.255,46.831 15.686,43.570 17.550,36.500 C 18.383,33.337 19.517,28.950 20.069,26.750 C 23.201,14.262 23.970,12.000 25.079,12.000 C 25.860,12.000 28.151,14.523 35.149,23.091 C 38.505,27.199 42.665,32.290 44.395,34.405 C 46.125,36.520 47.662,38.730 47.810,39.318 C 47.958,39.905 47.521,42.155 46.838,44.318 C 44.834,50.662 44.466,53.502 45.044,58.134 C 45.327,60.398 45.764,62.457 46.015,62.711 C 46.293,62.991 48.544,62.160 51.764,60.586 C 54.675,59.164 57.238,58.000 57.460,58.000 C 57.681,58.000 59.506,57.322 61.515,56.494 C 69.441,53.225 78.838,50.388 87.250,48.724 C 99.421,46.316 98.909,46.348 101.740,47.824 C 103.120,48.544 105.201,49.785 106.364,50.583 C 111.644,54.204 116.946,56.846 121.154,57.952 C 123.576,58.588 125.702,58.965 125.878,58.789 C 126.054,58.612 125.776,56.507 125.259,54.109 C 124.742,51.712 124.223,48.906 124.107,47.875 L 123.895,46.000 L 128.072,46.007 C 131.596,46.013 139.065,47.059 149.500,49.009 C 154.195,49.887 163.874,53.500 166.250,55.262 C 168.362,56.829 168.368,56.850 173.033,81.000 C 173.856,85.263 174.750,89.570 175.020,90.573 C 175.290,91.576 176.204,95.738 177.052,99.823 C 177.899,103.908 179.014,109.275 179.528,111.750 C 180.043,114.225 180.830,118.388 181.277,121.000 C 181.723,123.612 182.496,127.325 182.994,129.250 C 184.145,133.701 185.630,140.665 186.992,148.000 C 187.579,151.162 188.256,154.650 188.496,155.750 C 188.737,156.850 189.192,159.213 189.508,161.000 C 189.825,162.787 190.397,165.735 190.781,167.549 C 191.164,169.364 191.926,173.076 192.473,175.799 C 193.021,178.522 193.827,182.405 194.266,184.427 C 194.704,186.449 194.943,188.224 194.796,188.370 C 194.421,188.745 187.103,187.683 181.750,186.476 C 173.583,184.635 161.167,183.009 155.250,183.006 C 151.534,183.004 138.370,184.102 133.715,184.802 C 131.906,185.074 131.544,184.949 130.463,183.679 C 128.088,180.888 121.541,175.000 120.814,175.000 C 119.826,175.000 115.186,183.230 113.489,187.991 C 112.756,190.049 112.467,190.309 109.970,191.154 C 105.000,192.838 93.793,197.128 90.750,198.512 C 89.100,199.262 85.106,201.070 81.875,202.528 C 77.116,204.677 76.001,205.377 76.004,206.215 C 76.006,206.784 77.029,212.200 78.278,218.250 C 79.527,224.300 80.745,230.262 80.985,231.500 C 81.226,232.738 81.891,235.775 82.464,238.250 C 83.038,240.725 83.947,244.887 84.484,247.500 C 85.022,250.113 85.923,254.387 86.486,257.000 C 87.049,259.613 88.615,267.150 89.967,273.750 C 91.318,280.350 93.354,290.137 94.492,295.500 C 96.559,305.251 99.281,318.483 99.993,322.250 C 100.201,323.350 101.107,327.625 102.007,331.750 C 102.906,335.875 103.739,340.938 103.857,343.000 C 104.060,346.548 103.994,346.841 102.639,348.442 L 101.206,350.135 L 95.228,350.269 C 91.940,350.343 88.524,350.299 87.637,350.171 Z M 73.626,183.962 C 73.833,181.920 74.244,178.338 74.539,176.000 C 75.936,164.936 75.541,143.968 73.744,133.754 C 72.878,128.835 69.580,116.855 67.892,112.500 C 66.886,109.903 66.140,108.165 63.493,102.250 C 61.858,98.596 54.353,86.458 51.590,83.000 C 50.176,81.231 49.726,82.069 50.449,85.127 C 50.789,86.570 51.620,90.338 52.294,93.500 C 52.969,96.662 54.066,101.500 54.734,104.250 C 55.401,107.000 56.540,112.175 57.264,115.750 C 58.542,122.057 59.129,124.864 63.484,145.500 C 66.582,160.180 66.566,160.105 67.078,162.250 C 67.340,163.350 67.739,165.150 67.964,166.250 C 70.359,177.959 71.016,181.261 71.572,184.380 C 71.931,186.395 72.448,187.935 72.734,187.842 C 73.018,187.749 73.419,186.003 73.626,183.962 Z M 212.250,230.248 C 196.874,228.996 186.558,227.474 176.577,224.986 C 174.556,224.482 172.807,223.974 172.690,223.857 C 172.573,223.740 174.451,221.880 176.864,219.723 C 179.276,217.567 183.162,213.977 185.500,211.745 C 187.838,209.514 192.736,205.150 196.386,202.048 C 200.035,198.947 203.327,195.811 203.701,195.079 C 204.640,193.244 204.523,192.484 199.202,165.750 C 198.765,163.550 197.068,155.225 195.432,147.250 C 193.796,139.275 191.573,128.363 190.492,123.000 C 185.363,97.570 182.639,84.683 181.989,82.783 C 181.331,80.856 181.810,80.612 185.371,81.055 C 195.257,82.284 202.644,82.610 214.500,82.340 C 221.512,82.179 228.825,81.815 230.750,81.530 C 232.675,81.244 236.050,80.767 238.250,80.469 C 244.324,79.646 253.317,77.635 262.750,74.990 C 271.037,72.667 284.457,66.747 290.098,62.928 C 293.378,60.707 294.677,60.568 296.700,62.221 L 298.149,63.406 L 296.366,70.578 C 291.680,89.421 291.755,89.248 286.942,92.286 C 282.700,94.965 272.456,103.651 272.607,104.442 C 272.843,105.677 277.001,106.570 283.875,106.861 C 289.184,107.086 290.000,107.233 290.000,107.964 C 290.000,111.246 286.764,124.536 285.242,127.505 C 283.484,130.933 264.661,147.105 256.625,152.091 C 255.731,152.645 255.000,153.275 255.000,153.490 C 255.000,154.598 260.968,157.986 273.000,163.707 C 279.256,166.682 292.000,175.941 292.000,177.512 C 292.000,178.230 290.018,179.879 288.057,180.792 C 287.063,181.255 284.944,182.391 283.348,183.317 C 281.752,184.243 280.149,185.000 279.784,185.000 C 279.420,185.000 278.845,185.335 278.505,185.744 C 278.000,186.353 278.057,186.543 278.819,186.791 C 279.331,186.957 281.234,187.730 283.047,188.510 C 287.196,190.293 291.016,191.008 293.413,190.451 C 294.423,190.216 296.488,190.020 298.000,190.016 C 300.678,190.007 300.835,190.087 304.000,193.040 C 305.788,194.708 309.441,197.750 312.119,199.801 C 320.745,206.404 320.524,207.295 308.851,212.965 C 304.396,215.129 299.850,217.179 298.750,217.519 C 297.650,217.860 296.300,218.327 295.750,218.556 C 287.713,221.915 273.537,225.474 260.306,227.455 L 254.361,228.344 L 250.306,225.255 C 241.825,218.796 237.008,216.364 235.302,217.680 C 234.611,218.213 233.440,220.945 231.098,227.493 C 230.376,229.510 229.803,230.324 228.933,230.568 C 227.177,231.061 220.704,230.937 212.250,230.248 Z M 240.805,126.104 C 242.864,124.974 250.000,118.341 250.000,117.559 C 250.000,116.655 244.665,114.369 241.947,114.108 C 236.228,113.558 225.500,119.054 225.500,122.533 C 225.500,124.431 226.963,125.359 231.320,126.224 C 236.006,127.156 238.958,127.118 240.805,126.104 Z M 162.291,214.125 C 161.155,208.164 160.810,206.268 159.585,199.250 C 159.057,196.225 158.460,193.356 158.259,192.875 C 157.953,192.143 158.167,192.000 159.572,191.997 C 161.393,191.994 172.526,193.466 182.500,195.028 C 185.938,195.566 188.919,196.005 189.125,196.003 C 190.178,195.994 188.757,197.466 180.375,205.067 C 169.006,215.377 164.715,219.000 163.875,219.000 C 163.444,219.000 162.903,217.337 162.291,214.125 Z" fill="#000000" fill-rule="evenodd" /></svg>