<svg xmlns="http://www.w3.org/2000/svg" viewBox="0 0 315 371" width="315" height="371"><path d="M 152.750,354.421 C 150.825,353.306 147.787,351.590 146.000,350.607 C 144.213,349.624 141.175,347.799 139.250,346.552 C 137.325,345.304 135.240,344.006 134.617,343.667 C 133.994,343.328 129.546,340.297 124.732,336.931 C 105.929,323.782 84.514,302.684 69.811,282.822 C 61.588,271.712 57.687,265.780 53.984,258.750 C 52.970,256.825 51.479,254.125 50.672,252.750 C 49.865,251.375 48.792,249.350 48.289,248.250 C 47.785,247.150 46.193,243.775 44.751,240.750 C 40.061,230.914 37.641,224.901 33.178,212.000 C 28.925,199.704 27.078,192.691 23.763,176.250 C 20.752,161.315 19.113,145.505 17.208,113.000 C 16.090,93.924 16.634,67.746 18.418,54.750 L 18.762,52.250 L 30.256,51.671 C 56.230,50.362 72.549,47.898 94.250,42.009 C 95.075,41.785 97.888,40.927 100.500,40.102 C 119.333,34.158 129.767,29.595 146.992,19.771 C 152.075,16.872 156.515,14.500 156.860,14.500 C 157.204,14.500 159.346,15.546 161.618,16.824 C 171.331,22.286 182.518,28.278 186.000,29.882 C 198.115,35.466 226.016,44.274 237.000,45.983 C 238.787,46.261 241.262,46.712 242.500,46.986 C 243.738,47.260 246.325,47.704 248.250,47.973 C 250.175,48.241 254.787,48.910 258.500,49.459 C 265.664,50.519 282.588,51.932 290.500,52.131 L 295.250,52.250 L 295.573,56.250 C 297.993,86.196 297.854,104.478 294.951,137.750 C 294.399,144.075 293.512,152.400 292.980,156.250 C 292.447,160.100 291.762,165.050 291.457,167.250 C 290.421,174.711 286.129,195.049 284.492,200.250 C 284.233,201.075 283.468,203.550 282.793,205.750 C 274.821,231.732 262.956,256.427 248.418,277.298 C 241.885,286.677 239.517,289.855 236.711,293.009 C 218.318,313.677 206.843,324.367 190.750,335.826 C 181.370,342.505 176.231,346.000 175.792,346.000 C 175.651,346.000 173.456,347.260 170.916,348.801 C 168.375,350.342 165.788,351.795 165.167,352.032 C 164.545,352.268 162.598,353.370 160.839,354.481 C 159.081,355.591 157.329,356.488 156.946,356.474 C 156.563,356.460 154.675,355.536 152.750,354.421 Z M 194.065,279.125 C 194.362,278.369 194.725,276.344 194.871,274.625 L 195.137,271.500 L 157.348,271.500 C 132.080,271.500 119.454,271.670 119.242,272.012 C 118.948,272.489 120.243,279.179 120.806,280.091 C 120.945,280.316 137.364,280.500 157.292,280.500 L 193.525,280.500 L 194.065,279.125 Z M 195.816,264.124 C 196.351,263.770 198.516,256.052 200.549,247.250 C 201.057,245.050 201.903,241.766 202.429,239.953 C 203.634,235.796 205.592,227.867 207.170,220.750 C 207.841,217.725 208.977,213.805 209.695,212.039 C 210.994,208.843 211.372,206.500 210.589,206.500 C 209.413,206.500 204.989,208.333 203.158,209.579 C 200.305,211.520 199.000,213.488 199.000,215.848 L 199.000,217.791 L 195.354,217.771 C 191.231,217.747 189.598,218.496 187.978,221.152 C 185.499,225.218 187.938,230.501 192.668,231.313 C 195.001,231.713 195.341,232.448 194.449,235.162 C 192.344,241.566 185.406,243.838 181.239,239.488 C 180.455,238.670 179.583,238.000 179.301,238.000 C 179.020,238.000 177.408,238.716 175.719,239.592 L 172.649,241.184 L 169.757,240.274 C 167.871,239.681 166.220,238.720 165.012,237.512 C 163.387,235.887 163.118,235.269 162.827,232.482 C 162.464,229.006 162.851,228.118 164.376,228.934 C 166.410,230.022 171.583,228.348 173.918,225.845 C 174.779,224.923 175.159,223.794 175.362,221.551 C 175.608,218.846 175.492,218.287 174.321,216.518 C 172.587,213.898 170.421,212.788 167.000,212.767 C 164.810,212.753 164.289,212.597 164.440,212.000 C 165.307,208.570 165.071,206.590 163.365,202.962 C 161.140,198.232 159.098,196.000 156.996,196.000 C 155.775,196.000 154.869,196.573 152.842,198.625 C 149.195,202.318 147.652,207.263 148.729,211.806 L 149.098,213.363 L 146.545,213.117 C 143.227,212.798 140.623,214.397 139.000,217.749 C 137.112,221.650 138.263,225.244 142.255,227.907 C 144.560,229.445 144.986,229.554 147.848,229.346 C 150.906,229.122 150.951,229.138 151.254,230.518 C 151.673,232.424 150.699,235.776 149.366,237.018 C 148.763,237.580 147.094,238.615 145.657,239.317 C 142.581,240.822 139.986,240.635 136.898,238.686 L 135.014,237.496 L 132.745,239.228 C 129.117,241.997 125.605,242.050 122.219,239.386 C 120.164,237.770 117.554,231.587 118.875,231.466 C 122.420,231.140 124.033,230.266 125.551,227.848 C 127.350,224.983 125.968,219.915 122.851,217.944 C 121.519,217.102 120.687,216.975 117.894,217.185 L 114.537,217.439 L 114.801,216.094 C 115.140,214.372 112.739,210.648 110.121,208.835 C 108.250,207.539 103.272,206.061 102.702,206.632 C 102.535,206.798 102.848,208.243 103.397,209.842 C 103.946,211.441 104.745,214.100 105.173,215.750 C 105.600,217.400 106.763,221.900 107.756,225.750 C 108.749,229.600 110.023,234.325 110.587,236.250 C 111.151,238.175 112.155,241.887 112.818,244.500 C 113.481,247.113 114.676,251.387 115.474,254.000 C 116.273,256.613 117.080,259.762 117.269,261.000 C 117.458,262.238 117.831,263.521 118.098,263.851 C 118.468,264.310 127.675,264.458 156.917,264.475 C 178.000,264.488 195.505,264.329 195.816,264.124 Z M 130.343,168.875 C 130.931,167.961 132.452,161.327 132.176,160.880 C 131.825,160.313 55.618,160.404 55.267,160.972 C 54.917,161.539 56.440,167.987 57.134,168.875 C 57.517,169.365 65.448,169.500 93.782,169.500 C 122.161,169.500 130.027,169.366 130.343,168.875 Z M 256.893,168.875 C 257.332,168.341 258.397,163.913 258.666,161.500 C 258.740,160.839 254.176,160.750 220.250,160.750 L 181.750,160.750 L 181.896,162.750 C 182.061,165.016 182.888,167.945 183.626,168.875 C 184.352,169.789 256.140,169.789 256.893,168.875 Z M 133.543,152.000 C 133.764,151.588 134.867,147.088 135.994,142.000 C 138.822,129.240 139.413,126.737 140.483,123.000 C 143.557,112.258 144.319,109.672 146.006,104.250 C 148.767,95.374 148.824,95.000 147.424,95.000 C 145.880,95.000 141.132,96.919 139.176,98.334 C 137.401,99.618 135.500,103.143 135.500,105.148 C 135.500,106.432 135.420,106.470 133.339,106.185 C 129.874,105.710 125.380,108.590 124.035,112.149 C 122.936,115.058 126.609,119.686 130.513,120.310 C 131.606,120.485 132.500,120.909 132.500,121.252 C 132.500,123.109 129.876,127.583 127.982,128.955 C 124.197,131.697 122.133,131.424 117.928,127.626 C 116.244,126.104 115.781,125.906 115.083,126.411 C 110.336,129.848 108.081,129.859 102.582,126.470 C 101.092,125.551 99.000,121.490 99.000,119.517 L 99.000,118.000 L 102.270,118.000 C 108.966,118.000 113.826,113.284 112.411,108.159 C 111.279,104.058 107.440,101.035 103.335,101.011 C 101.431,101.000 101.423,100.992 101.807,99.375 C 103.013,94.301 101.401,89.585 96.968,85.218 C 94.619,82.905 94.479,82.842 93.205,83.524 C 91.149,84.625 88.312,87.591 87.231,89.771 C 86.481,91.285 86.253,92.767 86.261,96.073 L 86.272,100.396 L 84.125,100.638 C 79.004,101.215 74.588,106.799 75.712,111.276 C 76.137,112.971 79.638,116.729 81.515,117.506 C 82.369,117.860 84.170,118.027 85.732,117.897 C 89.022,117.624 89.252,117.971 88.176,121.595 C 86.099,128.587 78.127,131.214 72.895,126.630 C 72.120,125.951 71.821,126.073 69.713,127.928 C 68.410,129.075 66.632,130.118 65.672,130.298 C 63.319,130.739 59.788,129.318 58.299,127.330 C 56.997,125.593 55.000,121.808 55.000,121.077 C 55.000,120.822 56.011,120.462 57.248,120.276 C 59.872,119.883 62.035,118.240 63.223,115.737 C 63.929,114.248 63.969,113.663 63.472,112.106 C 62.359,108.622 58.845,106.000 55.289,106.000 C 54.415,106.000 53.421,106.279 53.079,106.621 C 52.585,107.115 52.362,107.090 51.984,106.496 C 51.724,106.086 51.622,105.447 51.758,105.078 C 52.130,104.064 50.328,100.452 48.574,98.697 C 47.180,97.302 44.573,96.194 40.375,95.213 C 38.683,94.817 38.638,95.287 40.016,99.007 C 41.630,103.363 45.298,116.253 48.551,129.000 C 50.200,135.463 51.854,141.762 52.225,143.000 C 52.597,144.238 53.169,146.713 53.497,148.500 C 53.826,150.287 54.179,152.033 54.282,152.378 C 54.432,152.877 62.581,152.980 93.806,152.878 C 128.170,152.766 133.192,152.655 133.543,152.000 Z M 260.173,152.125 C 260.305,151.644 260.550,150.350 260.717,149.250 C 261.260,145.675 267.026,122.463 269.349,114.500 C 270.030,112.162 270.776,109.575 271.005,108.750 C 271.234,107.925 271.984,105.225 272.671,102.750 C 273.359,100.275 274.156,97.639 274.442,96.893 C 275.127,95.105 274.577,94.843 271.651,95.565 C 266.572,96.818 262.000,101.404 262.000,105.246 C 262.000,106.359 261.841,106.535 261.125,106.213 C 259.628,105.539 257.559,105.812 255.279,106.985 C 249.839,109.783 248.414,113.659 251.523,117.200 C 253.016,118.900 256.997,120.870 257.860,120.336 C 258.101,120.188 258.584,120.243 258.933,120.459 C 259.420,120.760 259.212,121.607 258.043,124.080 C 256.175,128.034 254.908,129.274 251.776,130.217 C 249.550,130.887 249.209,130.871 247.552,130.019 C 246.561,129.509 245.089,128.396 244.281,127.546 C 243.474,126.696 242.615,126.000 242.373,126.000 C 242.131,126.000 241.169,126.583 240.235,127.295 C 237.905,129.072 235.319,129.331 232.415,128.078 C 228.758,126.499 226.159,123.864 225.579,121.148 C 225.310,119.884 225.184,118.602 225.300,118.300 C 225.420,117.987 226.858,117.734 228.631,117.713 C 231.874,117.674 233.119,117.217 235.910,115.043 C 240.281,111.637 239.867,106.355 234.917,102.369 C 233.196,100.984 232.637,100.836 227.915,100.522 C 227.731,100.510 227.813,99.660 228.096,98.633 C 228.772,96.187 228.314,92.577 227.004,90.008 C 225.708,87.467 221.476,83.000 220.364,83.000 C 219.193,83.000 214.388,87.882 213.229,90.250 C 212.304,92.139 212.161,94.361 212.635,99.500 C 212.741,100.652 212.554,100.770 210.250,101.011 C 205.325,101.525 201.991,104.892 201.887,109.457 C 201.834,111.808 202.000,112.211 203.789,114.078 C 207.131,117.564 209.834,118.381 214.085,117.192 C 215.281,116.857 215.628,118.446 214.986,121.317 C 214.123,125.182 210.783,127.971 206.173,128.678 C 204.471,128.939 203.607,128.740 201.395,127.576 L 198.695,126.156 L 197.010,127.563 C 193.135,130.797 190.777,131.067 186.724,128.738 C 185.269,127.902 184.333,126.825 183.398,124.912 C 181.308,120.635 181.354,120.343 184.194,119.924 C 185.957,119.664 187.092,119.122 188.273,117.978 C 191.279,115.065 190.911,111.281 187.315,108.124 C 185.147,106.220 183.657,105.767 180.976,106.196 C 179.017,106.509 179.000,106.498 178.976,104.881 C 178.919,101.008 175.254,97.183 170.190,95.711 C 166.333,94.590 165.926,94.843 166.760,97.842 C 170.376,110.849 173.177,120.814 173.971,123.500 C 174.500,125.287 176.304,132.375 177.980,139.250 C 179.656,146.125 181.127,152.031 181.248,152.375 C 181.422,152.868 189.766,153.000 220.701,153.000 C 257.640,153.000 259.947,152.949 260.173,152.125 Z" fill="#000000" fill-rule="evenodd" /></svg>