<svg xmlns="http://www.w3.org/2000/svg" viewBox="0 0 494 430" width="494" height="430"><path d="M 176.987,412.875 C 176.973,411.653 175.071,403.771 173.821,399.750 C 173.393,398.375 172.710,395.900 172.303,394.250 C 171.426,390.695 169.160,382.376 168.490,380.250 C 168.230,379.425 167.332,376.387 166.494,373.500 C 165.657,370.613 164.526,366.788 163.982,365.000 C 162.873,361.358 160.608,353.540 159.999,351.250 C 159.779,350.425 158.873,347.050 157.985,343.750 C 157.097,340.450 156.200,336.962 155.992,336.000 C 155.784,335.038 155.266,333.125 154.841,331.750 C 154.415,330.375 153.580,327.562 152.985,325.500 C 152.390,323.438 151.726,321.188 151.509,320.500 C 151.293,319.812 150.846,318.238 150.516,317.000 C 150.187,315.762 149.604,313.625 149.221,312.250 C 148.839,310.875 148.200,308.512 147.802,307.000 C 145.574,298.536 143.794,292.010 143.225,290.225 C 142.870,289.111 141.986,285.961 141.260,283.225 C 139.620,277.038 136.176,264.771 135.503,262.715 C 135.226,261.870 135.000,260.798 135.000,260.333 C 135.000,259.867 134.785,259.096 134.523,258.618 C 134.261,258.141 133.595,256.175 133.045,254.250 C 130.978,247.021 129.841,243.460 129.539,243.274 C 129.367,243.168 127.770,243.424 125.989,243.843 C 117.917,245.742 107.882,243.438 101.828,238.296 C 94.591,232.150 90.896,222.501 92.507,213.960 C 93.176,210.417 93.015,209.478 91.887,210.351 C 91.537,210.622 89.787,211.244 88.000,211.732 C 86.213,212.221 84.188,212.852 83.500,213.135 C 82.812,213.418 79.775,214.503 76.750,215.547 C 60.069,221.301 57.882,222.158 55.794,223.751 C 54.893,224.438 53.893,225.000 53.571,225.000 C 53.249,225.000 52.596,225.209 52.118,225.464 C 51.641,225.719 49.683,226.451 47.768,227.089 C 43.844,228.398 40.792,230.891 40.212,233.261 C 39.623,235.672 37.178,238.840 35.438,239.447 C 31.618,240.778 28.437,239.542 26.329,235.906 C 23.835,231.605 18.804,215.836 17.538,208.351 C 17.003,205.189 17.039,204.817 18.063,202.995 C 19.223,200.931 21.527,199.500 23.690,199.500 C 25.768,199.500 29.113,201.016 31.021,202.823 C 32.556,204.276 33.123,204.496 35.271,204.470 C 36.634,204.454 38.763,204.249 40.000,204.015 C 41.237,203.781 44.388,203.226 47.000,202.781 C 49.612,202.336 52.987,201.750 54.500,201.478 C 56.013,201.206 61.413,199.658 66.500,198.038 C 71.588,196.417 78.112,194.378 81.000,193.505 C 85.907,192.021 95.023,189.077 106.750,185.186 L 111.750,183.527 L 111.578,180.230 L 111.406,176.933 L 113.536,174.967 C 115.399,173.247 115.968,173.000 118.066,173.000 C 120.028,173.000 120.782,173.278 122.202,174.525 C 123.157,175.364 124.195,176.826 124.508,177.775 C 124.821,178.724 125.182,179.500 125.309,179.500 C 125.436,179.500 126.408,179.057 127.469,178.516 C 128.530,177.975 130.939,177.083 132.824,176.535 C 137.852,175.072 149.467,171.257 169.500,164.486 C 179.262,161.187 190.116,157.606 193.618,156.528 C 197.121,155.450 200.217,154.425 200.499,154.250 C 200.980,153.953 211.003,150.364 216.000,148.699 C 217.238,148.287 218.700,147.747 219.250,147.499 C 219.800,147.251 225.088,145.434 231.000,143.462 C 236.912,141.489 242.394,139.547 243.182,139.145 C 243.969,138.744 245.881,138.094 247.432,137.702 C 248.982,137.309 250.700,136.787 251.250,136.542 C 251.800,136.298 253.560,135.593 255.161,134.976 C 257.890,133.925 258.050,133.773 257.715,132.552 C 256.879,129.497 258.364,126.092 261.013,124.995 C 263.336,124.032 266.807,124.628 268.538,126.286 C 269.342,127.057 270.000,127.982 270.000,128.344 C 270.000,129.284 271.677,129.154 274.130,128.024 C 275.296,127.487 277.712,126.504 279.500,125.840 C 282.574,124.697 286.536,122.887 288.750,121.614 C 289.300,121.298 291.603,120.140 293.868,119.040 C 298.706,116.691 305.817,112.884 309.000,110.937 C 310.238,110.181 312.615,108.772 314.283,107.808 C 320.271,104.345 331.838,95.713 336.438,91.274 C 344.003,83.973 348.108,78.602 352.316,70.500 C 357.223,61.051 357.751,59.316 360.525,43.535 C 361.367,38.747 363.443,36.816 367.796,36.775 C 370.367,36.751 370.565,36.849 373.280,39.500 C 381.255,47.286 389.216,61.055 396.264,79.250 C 397.009,81.175 397.798,83.312 398.015,84.000 C 398.233,84.688 399.128,87.162 400.006,89.500 C 400.883,91.838 401.787,94.425 402.015,95.250 C 402.243,96.075 403.133,98.775 403.993,101.250 C 404.853,103.725 406.207,108.225 407.003,111.250 C 407.798,114.275 408.769,117.875 409.160,119.250 C 409.551,120.625 410.143,123.100 410.476,124.750 C 410.809,126.400 411.271,128.650 411.502,129.750 C 414.015,141.685 415.465,161.255 414.381,168.605 C 413.829,172.348 412.022,175.696 409.836,177.029 C 406.687,178.949 405.544,178.358 397.208,170.496 C 389.316,163.053 383.611,159.291 374.250,155.360 C 365.808,151.815 358.276,149.887 347.308,148.465 C 342.436,147.833 321.646,148.150 316.000,148.942 C 308.611,149.980 305.227,150.597 304.834,150.978 C 304.605,151.201 305.185,152.478 306.123,153.816 C 309.881,159.178 311.674,166.923 310.538,172.890 C 308.963,181.160 302.675,189.733 295.709,193.106 C 293.806,194.028 291.294,195.065 290.125,195.411 C 287.977,196.047 287.646,196.411 288.432,197.275 C 288.670,197.536 289.129,198.875 289.454,200.250 C 289.778,201.625 290.479,204.213 291.011,206.000 C 292.914,212.392 297.323,228.188 297.989,231.000 C 298.217,231.963 298.763,234.044 299.202,235.625 C 301.852,245.171 302.349,247.030 302.975,249.750 C 303.494,252.007 304.714,256.312 307.012,264.000 C 307.876,266.887 308.789,269.981 309.041,270.875 C 309.294,271.769 309.725,273.288 310.000,274.250 C 310.275,275.212 310.725,276.788 311.000,277.750 C 311.275,278.712 311.709,280.231 311.964,281.125 C 312.220,282.019 313.589,286.913 315.007,292.000 C 316.425,297.087 317.791,301.981 318.042,302.875 C 319.141,306.776 319.493,308.051 320.905,313.250 C 321.727,316.275 323.117,321.113 323.995,324.000 C 325.490,328.917 326.951,333.933 328.073,338.000 C 328.339,338.962 328.748,340.425 328.983,341.250 C 329.969,344.717 331.450,350.070 332.718,354.750 C 333.463,357.500 334.422,360.988 334.848,362.500 C 335.820,365.946 335.931,367.785 335.159,367.636 C 331.677,366.967 325.945,365.743 322.500,364.932 C 318.405,363.969 311.920,362.463 307.750,361.507 C 306.650,361.255 302.938,360.372 299.500,359.545 C 285.810,356.252 281.982,355.355 275.500,353.927 C 268.337,352.349 267.001,352.036 262.250,350.825 C 255.086,348.999 247.341,347.376 246.000,347.421 C 245.312,347.443 223.548,368.999 193.384,399.533 C 179.137,413.956 177.020,415.679 176.987,412.875 Z M 193.581,381.672 C 232.019,342.755 241.368,333.500 242.247,333.500 C 242.784,333.500 246.491,334.296 250.486,335.269 C 258.653,337.258 260.570,337.703 264.500,338.522 C 266.012,338.837 267.925,339.295 268.750,339.540 C 269.575,339.785 274.413,340.992 279.500,342.224 C 284.587,343.455 293.475,345.607 299.250,347.006 C 314.800,350.772 317.980,351.437 318.263,350.979 C 318.576,350.472 317.935,347.814 315.493,339.500 C 314.887,337.438 314.055,334.512 313.643,333.000 C 313.232,331.488 312.467,328.788 311.943,327.000 C 311.420,325.212 310.741,322.850 310.435,321.750 C 310.128,320.650 309.476,318.400 308.986,316.750 C 308.495,315.100 307.383,311.050 306.515,307.750 C 305.646,304.450 304.751,301.188 304.526,300.500 C 304.300,299.812 303.847,298.238 303.519,297.000 C 303.190,295.762 302.504,293.288 301.994,291.500 C 300.537,286.397 299.613,283.050 298.541,279.000 C 297.995,276.938 296.501,271.538 295.221,267.000 C 293.942,262.462 292.371,256.837 291.731,254.500 C 289.878,247.732 288.701,243.558 287.361,239.000 C 286.674,236.662 285.751,233.287 285.310,231.500 C 284.869,229.713 284.040,226.675 283.467,224.750 C 282.894,222.825 282.025,219.675 281.536,217.750 C 280.019,211.782 276.386,199.774 275.954,199.296 C 275.708,199.025 275.282,199.037 274.896,199.325 C 274.047,199.959 265.219,202.770 255.500,205.500 C 254.537,205.770 252.287,206.427 250.500,206.960 C 248.713,207.493 245.562,208.418 243.500,209.016 C 241.438,209.614 239.188,210.290 238.500,210.518 C 237.812,210.746 235.562,211.426 233.500,212.030 C 231.438,212.635 228.512,213.530 227.000,214.019 C 225.488,214.509 221.887,215.625 219.000,216.501 C 216.113,217.376 211.725,218.715 209.250,219.476 C 206.775,220.237 203.062,221.356 201.000,221.964 C 198.938,222.571 196.688,223.252 196.000,223.476 C 195.312,223.700 193.850,224.133 192.750,224.438 C 190.373,225.096 185.012,226.662 180.500,228.017 C 177.004,229.067 169.350,231.284 166.500,232.072 C 165.537,232.339 164.019,232.769 163.125,233.028 C 162.231,233.288 160.769,233.705 159.875,233.956 C 156.615,234.870 149.169,237.075 146.000,238.064 C 144.213,238.622 142.478,239.163 142.145,239.266 C 141.492,239.468 141.701,240.364 144.537,249.500 C 145.348,252.113 146.225,255.037 146.486,256.000 C 146.747,256.962 147.619,260.000 148.425,262.750 C 149.230,265.500 151.272,272.925 152.962,279.250 C 154.652,285.575 156.452,292.212 156.961,294.000 C 157.471,295.788 158.836,300.738 159.995,305.000 C 161.154,309.262 162.281,313.312 162.500,314.000 C 162.719,314.688 163.621,317.950 164.505,321.250 C 166.485,328.644 167.963,333.853 168.548,335.500 C 168.792,336.188 169.542,338.887 170.213,341.500 C 172.882,351.888 174.078,356.349 174.768,358.500 C 175.165,359.738 175.955,362.438 176.524,364.500 C 177.092,366.562 177.754,368.925 177.994,369.750 C 179.316,374.290 181.799,383.969 182.787,388.436 C 183.014,389.459 183.271,389.586 184.650,389.359 C 185.892,389.154 187.891,387.433 193.581,381.672 Z M 123.653,230.966 C 124.699,230.675 125.682,230.107 125.838,229.702 C 125.993,229.298 125.184,225.768 124.041,221.858 C 122.897,217.949 121.616,213.512 121.194,212.000 C 119.878,207.284 118.369,203.418 117.752,203.182 C 116.527,202.712 111.369,205.143 109.271,207.179 C 105.681,210.662 104.040,217.058 105.584,221.550 C 106.354,223.791 109.126,227.403 111.214,228.889 C 114.650,231.334 119.445,232.134 123.653,230.966 Z M 144.565,225.519 C 147.142,224.704 151.613,223.343 154.500,222.495 C 157.387,221.646 161.325,220.490 163.250,219.924 C 165.175,219.358 168.325,218.386 170.250,217.764 C 172.175,217.141 177.012,215.681 181.000,214.518 C 184.988,213.356 189.938,211.889 192.000,211.259 C 194.062,210.628 197.438,209.622 199.500,209.022 C 201.562,208.423 203.812,207.748 204.500,207.524 C 205.188,207.300 206.650,206.868 207.750,206.565 C 208.850,206.261 211.550,205.443 213.750,204.747 C 215.950,204.050 221.350,202.464 225.750,201.221 C 233.134,199.137 239.595,197.208 246.500,195.027 C 248.012,194.549 251.950,193.425 255.250,192.529 C 263.600,190.261 272.446,187.491 272.712,187.062 C 272.834,186.864 271.854,182.888 270.533,178.226 C 269.212,173.564 267.617,167.838 266.989,165.500 C 266.360,163.162 265.686,161.066 265.490,160.842 C 265.181,160.488 261.995,161.257 249.000,164.824 C 247.488,165.239 244.675,165.993 242.750,166.500 C 237.609,167.853 233.692,168.917 229.750,170.031 C 227.825,170.575 225.406,171.241 224.375,171.510 C 220.031,172.645 218.100,173.188 215.500,174.008 C 210.338,175.636 209.247,175.954 204.500,177.207 C 201.887,177.897 195.925,179.613 191.250,181.020 C 186.575,182.427 181.512,183.902 180.000,184.297 C 178.488,184.692 175.338,185.656 173.000,186.439 C 170.662,187.222 167.738,188.151 166.500,188.503 C 165.262,188.856 163.238,189.476 162.000,189.881 C 160.762,190.287 159.075,190.801 158.250,191.025 C 155.531,191.761 149.273,193.435 148.000,193.766 C 147.312,193.945 144.275,194.846 141.250,195.769 C 138.225,196.692 134.625,197.752 133.250,198.127 C 130.930,198.758 130.755,198.915 130.813,200.308 C 130.848,201.133 131.552,204.046 132.378,206.779 C 133.203,209.513 134.717,214.787 135.743,218.500 C 137.806,225.973 138.225,227.000 139.208,227.000 C 139.578,227.000 141.988,226.333 144.565,225.519 Z M 288.186,181.799 C 291.271,180.435 294.496,177.449 295.939,174.619 C 296.479,173.562 297.079,171.082 297.274,169.108 C 297.595,165.847 297.507,165.274 296.303,162.814 C 295.575,161.326 293.952,159.161 292.695,158.003 L 290.411,155.897 L 284.480,156.074 C 281.119,156.174 278.314,156.486 278.006,156.794 C 277.615,157.185 277.811,158.305 278.706,160.794 C 279.389,162.695 280.650,166.950 281.508,170.250 C 283.540,178.071 284.989,183.000 285.257,183.000 C 285.375,183.000 286.693,182.460 288.186,181.799 Z M 403.124,151.949 C 402.982,146.694 402.182,138.914 401.432,135.500 C 400.366,130.646 399.920,128.681 399.500,127.000 C 399.260,126.037 398.795,124.125 398.468,122.750 C 397.715,119.586 393.112,103.166 392.511,101.500 C 388.784,91.169 385.225,82.030 383.206,77.610 C 382.543,76.158 382.000,74.836 382.000,74.672 C 382.000,74.132 375.501,61.316 373.559,58.026 C 370.609,53.029 370.329,53.304 370.715,60.814 C 371.124,68.776 372.136,75.800 374.091,84.250 C 374.919,87.825 375.707,91.312 375.844,92.000 C 376.178,93.685 378.933,102.962 379.526,104.399 C 379.787,105.030 380.000,105.968 380.000,106.483 C 380.000,106.998 380.325,108.056 380.723,108.834 C 381.120,109.613 382.261,112.838 383.259,116.000 C 385.481,123.047 387.886,129.954 388.524,131.118 C 388.786,131.596 389.000,132.209 389.000,132.481 C 389.000,133.333 394.595,145.092 396.919,149.125 C 397.514,150.156 398.472,151.844 399.049,152.875 C 400.401,155.293 402.050,157.069 402.721,156.833 C 403.055,156.716 403.203,154.912 403.124,151.949 Z M 302.000,129.255 C 302.962,129.079 305.438,128.294 307.500,127.511 C 312.933,125.447 318.063,123.628 319.500,123.254 C 321.395,122.761 335.191,116.089 341.000,112.857 C 342.238,112.168 344.341,111.005 345.674,110.272 C 350.342,107.706 360.767,100.553 362.617,98.647 L 364.484,96.724 L 363.976,93.737 C 363.696,92.094 363.231,89.062 362.943,87.000 C 362.654,84.938 362.268,82.175 362.084,80.861 C 361.900,79.547 361.525,78.448 361.250,78.419 C 360.975,78.390 360.075,79.742 359.250,81.423 C 355.983,88.079 345.721,99.395 337.450,105.462 C 325.093,114.528 318.869,118.366 305.354,125.257 C 301.176,127.387 298.094,129.248 298.271,129.534 C 298.443,129.813 298.959,129.936 299.417,129.808 C 299.875,129.680 301.038,129.431 302.000,129.255 Z M 474.000,146.192 C 473.587,146.037 472.575,145.611 471.750,145.246 C 469.001,144.028 437.519,131.500 437.208,131.500 C 436.539,131.500 433.159,129.771 431.625,128.643 C 430.329,127.691 430.000,127.095 430.000,125.700 C 430.000,119.900 435.198,118.363 442.250,122.076 C 443.075,122.511 444.650,123.151 445.750,123.498 C 446.850,123.846 447.975,124.300 448.250,124.507 C 448.525,124.714 450.325,125.459 452.250,126.163 C 454.175,126.866 456.875,127.885 458.250,128.426 C 465.207,131.167 466.364,131.632 467.750,132.240 C 468.575,132.602 471.699,133.865 474.691,135.046 C 479.060,136.770 480.316,137.495 481.064,138.722 C 482.361,140.848 482.232,142.510 480.619,144.442 C 479.507,145.774 478.801,146.133 476.994,146.285 C 475.760,146.389 474.413,146.347 474.000,146.192 Z M 431.500,95.103 C 429.519,93.764 429.033,92.895 429.016,90.663 C 428.993,87.723 430.700,85.834 434.382,84.723 C 435.959,84.248 438.712,83.418 440.500,82.880 C 442.288,82.342 445.550,81.280 447.750,80.519 C 449.950,79.758 452.762,78.850 454.000,78.501 C 455.238,78.152 457.488,77.468 459.000,76.982 C 460.512,76.496 464.113,75.371 467.000,74.482 C 469.887,73.594 473.214,72.559 474.392,72.183 C 477.118,71.314 477.712,71.325 479.564,72.283 C 481.362,73.213 482.515,75.661 482.139,77.750 C 481.592,80.793 480.923,81.124 465.500,85.982 C 460.137,87.671 455.359,89.266 454.882,89.526 C 454.404,89.787 453.703,90.000 453.323,90.000 C 452.944,90.000 451.535,90.435 450.192,90.966 C 446.403,92.465 434.745,96.003 433.693,95.974 C 433.174,95.959 432.188,95.567 431.500,95.103 Z M 413.710,66.057 C 411.726,64.847 410.645,62.357 411.326,60.563 C 411.600,59.841 413.811,56.212 416.239,52.500 C 424.750,39.487 425.883,37.695 429.995,30.750 C 436.361,19.998 436.280,20.108 438.261,19.561 C 441.237,18.739 444.516,20.624 445.254,23.581 C 445.739,25.525 444.389,28.230 438.157,37.801 C 434.549,43.342 431.890,47.595 425.433,58.151 C 423.447,61.396 421.068,64.715 420.144,65.526 C 418.161,67.267 415.988,67.447 413.710,66.057 Z M 187.051,371.375 C 186.436,369.381 185.587,366.738 185.164,365.500 C 184.189,362.649 183.534,360.287 183.016,357.750 C 182.791,356.650 182.018,353.725 181.298,351.250 C 180.578,348.775 179.734,345.850 179.423,344.750 C 179.111,343.650 178.522,341.738 178.114,340.500 C 177.405,338.351 177.123,337.271 176.088,332.750 C 175.836,331.650 175.159,329.062 174.582,327.000 C 172.903,320.997 171.643,316.521 170.499,312.500 C 169.912,310.438 169.238,307.962 169.000,307.000 C 168.762,306.038 168.082,303.562 167.489,301.500 C 166.895,299.438 166.223,297.075 165.994,296.250 C 165.766,295.425 165.098,293.062 164.510,291.000 C 157.132,265.108 151.889,245.510 152.155,244.816 C 152.298,244.446 153.052,244.002 153.832,243.831 C 154.612,243.660 157.725,242.828 160.750,241.982 C 163.775,241.137 167.825,240.038 169.750,239.541 C 171.675,239.044 175.950,237.801 179.250,236.779 C 182.550,235.757 186.713,234.498 188.500,233.981 C 192.269,232.891 200.196,230.539 207.000,228.493 C 209.613,227.708 212.762,226.801 214.000,226.477 C 215.238,226.154 216.700,225.693 217.250,225.451 C 217.800,225.210 219.488,224.687 221.000,224.288 C 225.725,223.044 239.620,218.989 242.500,218.014 C 244.012,217.502 247.613,216.377 250.500,215.512 C 262.380,211.958 265.807,210.902 266.899,210.463 C 267.530,210.208 268.675,210.000 269.443,210.000 C 270.975,210.000 270.955,209.956 272.992,217.500 C 273.549,219.562 274.217,221.925 274.476,222.750 C 274.735,223.575 275.990,228.067 277.265,232.731 C 278.541,237.396 279.876,242.121 280.233,243.231 C 280.590,244.342 281.822,248.738 282.972,253.000 C 284.121,257.262 285.865,263.562 286.846,267.000 C 288.705,273.513 289.500,276.398 291.735,284.750 C 292.940,289.252 293.758,292.257 295.002,296.750 C 295.231,297.575 295.894,299.825 296.477,301.750 C 297.059,303.675 298.223,307.837 299.063,311.000 C 299.902,314.163 300.774,317.425 301.000,318.250 C 304.708,331.782 306.699,339.968 306.364,340.303 C 306.216,340.450 304.668,340.229 302.923,339.811 C 301.178,339.393 297.613,338.565 295.000,337.970 C 292.387,337.375 282.150,334.909 272.250,332.489 C 262.350,330.070 252.000,327.597 249.250,326.993 C 246.500,326.389 243.598,325.694 242.800,325.448 C 239.649,324.475 239.357,324.666 229.876,333.875 C 224.851,338.756 217.929,345.634 214.495,349.159 C 193.893,370.304 189.195,375.014 188.709,375.007 C 188.412,375.003 187.666,373.369 187.051,371.375 Z" fill="#000000" fill-rule="evenodd" /></svg>