<svg width="345" height="317" viewBox="0 0 345 317" fill="none" xmlns="http://www.w3.org/2000/svg">
<path fill-rule="evenodd" clip-rule="evenodd" d="M218.067 316.364C213.099 315.508 211.068 313.531 210.06 308.57C208.516 300.97 206.556 294.121 205.641 293.133C204.242 291.622 203.698 288.844 203.624 282.82C203.548 276.601 201.929 262.41 200.572 256.07C200.043 253.595 199.332 250.244 198.993 248.624C198.654 247.004 197.824 244.866 197.15 243.874C195.955 242.116 195.944 242.012 196.709 239.82C197.14 238.583 197.752 235.36 198.068 232.658C198.384 229.956 199.071 226.469 199.593 224.908C200.699 221.604 200.736 221.32 200.067 221.32C199.792 221.32 199.567 221.55 199.567 221.83C199.567 222.11 198.639 223.854 197.505 225.705C196.371 227.556 195.042 229.771 194.552 230.627C192.743 233.788 192.309 234.32 191.547 234.32C191.118 234.32 190.553 234.121 190.292 233.878C190.031 233.635 188.386 232.937 186.638 232.326C184.889 231.716 179.448 229.215 174.545 226.768C169.643 224.322 165.348 222.32 165.001 222.32C164.654 222.32 163.506 221.72 162.448 220.988C161.391 220.255 159.466 219.477 158.171 219.257C156.876 219.038 154.129 218.569 152.067 218.215C150.005 217.861 146.573 217.601 144.442 217.638L140.567 217.706V213.733C140.567 209.916 139.953 208.81 139.433 211.69C139.052 213.796 137.329 218.194 136.495 219.186C136.087 219.672 135.486 221.434 135.16 223.102C134.458 226.687 133.135 229.682 128.118 239.033C126.28 242.459 120.683 248.621 116.623 251.691C114.104 253.596 110.822 255.366 105.594 257.639C104.616 258.064 102.579 259.034 101.067 259.795C99.555 260.556 97.642 261.339 96.817 261.534C95.992 261.728 94.192 262.441 92.817 263.117C86.142 266.399 81.957 271.2 79.898 277.936C77.681 285.19 76.087 295.906 76.512 300.695C76.548 301.104 77.431 301.32 79.072 301.32C84.238 301.32 88.738 304.894 90.246 310.195C90.89 312.461 90.929 313.171 90.437 313.66C89.994 314.1 86.681 314.318 78.817 314.424C65.572 314.601 63.465 314.23 61.114 311.304C59.576 309.391 59.552 309.276 59.53 303.716C59.51 298.393 60.316 291.375 61.53 286.32C61.827 285.083 62.315 282.833 62.615 281.32C62.914 279.807 63.395 277.557 63.683 276.32C63.971 275.083 64.299 270.763 64.412 266.721L64.617 259.372L66.967 257.426C68.259 256.356 71.02 254.34 73.102 252.946C79.262 248.82 82.049 245.93 84.394 241.232C86.952 236.106 87.44 233.43 87.84 222.32C88.137 214.098 88.492 210.725 89.632 205.32C90.377 201.788 91.09 197.178 90.918 197.006C90.621 196.708 87.567 202.412 87.567 203.265C87.567 203.735 87.388 204.335 87.169 204.596C86.95 204.857 86.485 205.97 86.136 207.07C85.787 208.17 85.316 209.52 85.091 210.07C84.865 210.62 84.415 212.083 84.09 213.32C82.705 218.596 81.97 220.444 79.72 224.32C75.727 231.197 74.594 232.881 72.324 235.32C70.915 236.833 69.37 238.699 68.889 239.467C68.408 240.236 67.511 241.056 66.895 241.29C66.28 241.524 65.451 242.107 65.054 242.586C64.657 243.064 63.541 243.96 62.574 244.576C61.608 245.191 60.044 246.441 59.098 247.352C56.888 249.483 56.593 248.607 58.352 245.133C59.801 242.272 59.742 240.614 58.211 241.152C57.719 241.325 56.979 241.845 56.567 242.308C54.869 244.215 47.599 248.618 44.317 249.727C39.256 251.438 29.441 251.979 25.629 250.759C24.632 250.44 23.536 250.105 23.192 250.015C22.112 249.732 22.513 248.82 23.717 248.82C24.349 248.82 25.137 248.551 25.467 248.221C25.796 247.892 26.798 247.385 27.692 247.096C30.195 246.287 29.749 245.265 26.817 245.096C23.766 244.919 17.305 242.79 14.433 241.013C7.462 236.702 1.472 226.634 0.336002 217.32L0 214.57L1.409 215.853C9.701 223.404 10.884 224.173 16.464 225.633C18.033 226.043 22.411 226.513 26.192 226.676C34.313 227.028 34.544 226.818 30.032 223.18C28.401 221.865 27.067 220.624 27.067 220.425C27.067 220.226 29.681 220.146 32.876 220.247C44.044 220.602 49.685 218.274 58.496 209.674C60.244 207.967 62.427 205.445 63.347 204.07C66.86 198.822 77.677 186.349 78.733 186.329C78.962 186.325 80.087 185.566 81.233 184.645C82.379 183.724 84.104 182.543 85.067 182.02C86.03 181.498 87.556 180.451 88.459 179.695C89.363 178.939 90.401 178.32 90.768 178.32C91.412 178.32 94.96 177.008 98.567 175.434C99.53 175.014 101.555 173.732 103.067 172.586C104.579 171.44 106.942 169.966 108.317 169.312C109.692 168.658 111.155 167.85 111.567 167.518C111.979 167.186 113.892 166.356 115.817 165.675C117.742 164.993 120.329 164.049 121.567 163.576C124.473 162.467 130.798 161.955 149.567 161.311C165.895 160.75 169.667 160.418 174.216 159.137C175.811 158.688 177.434 158.32 177.824 158.32C178.214 158.32 179.597 157.645 180.898 156.82C182.198 155.995 183.597 155.32 184.005 155.32C185.584 155.32 189.603 153.127 189.453 152.348C189.271 151.4 186.867 150.936 179.067 150.342C173.084 149.886 171.067 149.494 171.067 148.786C171.067 148.556 172.979 147.473 175.317 146.377C177.655 145.282 179.567 144.156 179.567 143.876C179.567 143.345 177.185 143.389 168.475 144.08C163.772 144.453 158.649 143.903 156.623 142.808C154.565 141.695 149.116 139.32 148.621 139.32C147.858 139.32 147.92 137.831 148.692 137.607C149.036 137.508 151.005 136.936 153.067 136.337C158.945 134.631 166.254 132.163 166.954 131.647C168.054 130.837 167.246 130.689 162.211 130.777C155.743 130.89 144.211 129.984 139.827 129.018C134.078 127.751 132.517 127.187 129.597 125.325C128.068 124.349 125.748 122.992 124.442 122.311C123.136 121.629 122.067 120.903 122.067 120.696C122.067 120.489 123.638 120.32 125.558 120.32C127.478 120.32 130.571 120.103 132.433 119.837C135.623 119.382 137.544 119.157 149.817 117.794C156.528 117.048 157.319 116.873 156.714 116.268C156.038 115.592 147.57 114.341 143.593 114.33C141.82 114.325 138.445 114.07 136.093 113.762C122.14 111.938 118.36 111.112 113.179 108.751C111.454 107.964 109.766 107.316 109.429 107.31C109.093 107.304 108.255 106.858 107.567 106.32C106.879 105.782 106.136 105.337 105.915 105.331C104.594 105.295 95.067 97.7315 95.067 96.7195C95.067 96.3855 96.167 96.3185 98.192 96.5305C111.295 97.8995 142.411 98.6435 143.441 97.6125C144.018 97.0365 143.069 96.7044 139.596 96.2654C136.249 95.8434 133.522 95.4654 126.067 94.3904C124.28 94.1334 121.805 93.5914 120.567 93.1874C119.329 92.7834 116.067 91.9555 113.317 91.3475C110.567 90.7405 107.642 90.0135 106.817 89.7335C102.282 88.1905 95.268 84.7675 91.317 82.1695C87.071 79.3785 79.567 72.6465 79.567 71.6285C79.567 71.3715 78.656 69.9555 77.543 68.4815C76.431 67.0075 75.643 65.6015 75.794 65.3575C76.161 64.7645 78.013 65.2615 79.631 66.3865C80.353 66.8895 82.266 67.6435 83.881 68.0605C85.496 68.4785 87.829 69.1525 89.067 69.5585C93.082 70.8765 97.267 72.1725 99.567 72.8115C100.805 73.1555 102.379 73.6135 103.067 73.8305C103.755 74.0475 105.442 74.4855 106.817 74.8045C108.192 75.1225 110.104 75.5855 111.067 75.8315C113.095 76.3505 115.13 76.7125 119.317 77.2965C120.967 77.5265 124.792 78.0745 127.817 78.5135C134.189 79.4385 137.264 79.5435 136.817 78.8205C136.647 78.5455 136.055 78.3205 135.501 78.3205C134.947 78.3205 132.766 77.7325 130.655 77.0145C128.544 76.2955 125.196 75.3055 123.216 74.8125C121.235 74.3205 118.894 73.5585 118.014 73.1185C117.134 72.6795 116.206 72.3205 115.953 72.3205C115.385 72.3205 105.645 68.6025 102.567 67.2105C101.329 66.6505 99.53 65.9105 98.567 65.5645C92.099 63.2445 81.751 56.6075 76.813 51.6145C73.59 48.3535 69.284 42.4745 68.359 40.0705C67.028 36.6135 66.191 31.8205 66.917 31.8205C67.11 31.8205 69.416 33.2065 72.042 34.8995C81.707 41.1325 83.373 42.1455 86.067 43.4215C90.379 45.4635 94.06 47.0505 97.317 48.2715C98.967 48.8895 101.892 50.0285 103.817 50.8015C107.637 52.3365 111.79 53.7845 116.067 55.0735C117.579 55.5285 120.28 56.3475 122.067 56.8915C130.086 59.3335 132.067 59.7155 132.067 58.8205C132.067 58.5455 131.736 58.3205 131.33 58.3205C130.925 58.3205 129.632 57.7495 128.455 57.0525C127.279 56.3555 125.53 55.4465 124.567 55.0345C122.966 54.3475 120.926 53.3465 118.317 51.9665C117.767 51.6755 116.642 51.1375 115.817 50.7715C114.992 50.4055 113.72 49.7045 112.99 49.2135C112.26 48.7225 111.288 48.3205 110.83 48.3205C110.372 48.3205 109.057 47.6945 107.907 46.9305C106.758 46.1655 105.145 45.2095 104.323 44.8055C100.642 42.9945 91.958 37.4665 91.656 36.7415C91.568 36.5295 89.865 35.1285 87.873 33.6295C82.386 29.4995 74.944 20.8935 72.583 15.9495C68.804 8.03352 68.067 5.92752 68.067 3.04852C68.067 -0.96248 68.398 -0.984503 71.901 2.7995C73.675 4.7155 76.743 7.45948 78.719 8.89648C80.695 10.3335 82.763 11.9385 83.315 12.4625C85.376 14.4215 89.645 17.1305 98.942 22.3795C99.973 22.9615 101.414 23.8615 102.144 24.3795C102.874 24.8965 103.66 25.3205 103.89 25.3205C104.12 25.3205 105.885 26.0855 107.813 27.0195C113.3 29.6815 119.014 32.3205 119.288 32.3205C119.425 32.3205 120.838 32.9075 122.427 33.6245C127.647 35.9795 128.291 36.2445 130.817 37.0735C132.192 37.5245 134.892 38.6355 136.817 39.5415C138.742 40.4485 141.78 41.6995 143.567 42.3225C145.354 42.9455 148.328 44.2115 150.176 45.1355C152.023 46.0605 155.285 47.4045 157.426 48.1225C161.113 49.3595 163.762 50.5845 165.668 51.9335C167.24 53.0445 167.076 52.0145 165.065 48.1285C163.09 44.3115 162.652 42.8205 163.506 42.8205C163.747 42.8205 164.225 43.1575 164.567 43.5705C164.909 43.9835 165.429 44.3205 165.721 44.3205C166.013 44.3205 166.717 44.7315 167.285 45.2335C168.161 46.0085 173.872 49.4195 180.926 53.3815C183.032 54.5645 187.49 58.2605 191.982 62.5495C195.089 65.5145 197.934 70.0005 198.656 73.0705C199.989 78.7415 200.12 79.9605 199.858 84.3205C199.702 86.9325 199.335 89.8575 199.043 90.8205C198.751 91.7835 198.517 95.4115 198.523 98.8835C198.534 105.166 199.041 107.683 201.228 112.32C202.953 115.979 209.327 122.895 212.474 124.523C213.334 124.967 214.259 125.745 214.531 126.253C214.802 126.76 216.412 128.164 218.108 129.373C219.804 130.581 222.42 132.546 223.922 133.737C230.943 139.305 225.471 132.003 215.597 122.628C208.027 115.44 208.295 115.804 209.222 113.982C209.617 113.206 210.091 111.22 210.277 109.57C210.462 107.92 210.805 106.008 211.038 105.32C211.272 104.632 211.954 101.82 212.555 99.0705C213.155 96.3205 214.063 92.7235 214.572 91.0775C215.081 89.4315 215.439 88.0265 215.367 87.9545C215.069 87.6565 210.72 92.1775 210.086 93.4455C209.708 94.2015 209.187 94.8205 208.928 94.8205C208.664 94.8205 208.613 94.2195 208.811 93.4455C209.005 92.6895 209.354 90.8335 209.586 89.3205C210.207 85.2785 210.738 83.8155 213.347 78.9595C214.644 76.5455 216.352 73.3425 217.143 71.8405C217.933 70.3395 219.14 68.5275 219.824 67.8135C220.508 67.0995 221.067 66.3345 221.067 66.1125C221.067 65.4105 217.41 66.3545 214.939 67.6935C213.632 68.4025 212.401 68.8205 212.204 68.6235C211.705 68.1245 214.293 63.6345 217.061 60.1955C219.896 56.6755 229.027 49.0285 231.648 47.9795C233.506 47.2365 234.219 46.3205 232.942 46.3205C231.815 46.3195 223.338 39.0605 222.852 37.6795C222.254 35.9805 222.586 35.6625 224.281 36.3065C230.122 38.5275 240.874 38.9615 247.923 37.2595C251.215 36.4655 253.885 36.2015 258.567 36.2095C266.548 36.2225 270.378 37.3815 276.677 41.6895L281.037 44.6715L286.777 45.0155C292.954 45.3845 296.595 46.3325 302.055 48.9925C305.814 50.8245 311.022 55.7135 311.999 58.3265C312.357 59.2855 312.857 60.4615 313.109 60.9385C313.94 62.5125 313.666 64.3205 312.597 64.3205C312.063 64.3205 311.503 64.1215 311.353 63.8785C311.203 63.6355 310.008 62.9325 308.698 62.3165C305.401 60.7645 298.095 60.2165 292.506 61.1005C284.449 62.3745 275.846 64.4535 274.858 65.3645C274.351 65.8325 274.514 65.8965 278.567 66.8225C280.079 67.1685 283.68 68.5065 286.567 69.7955C291.569 72.0295 296.287 73.6835 300.942 74.8335C302.111 75.1225 303.064 75.5195 303.059 75.7145C303.045 76.4025 302.303 77.0965 300.949 77.6915C299.215 78.4535 286.316 78.6095 284.471 77.8915C282.553 77.1445 276.063 76.6325 273.461 77.0225C271.018 77.3895 268.607 79.3794 265.98 83.1974C264.543 85.2854 264.481 85.6015 264.401 91.2615C264.348 94.9705 264.537 97.6005 264.912 98.3615C265.239 99.0265 266.003 100.984 266.609 102.711C267.216 104.439 267.905 105.971 268.14 106.116C269.054 106.681 268.497 107.32 267.091 107.32C265.458 107.32 264.737 107.583 258.567 110.426C251.898 113.499 250.912 114.035 250.691 114.699C250.562 115.085 250.962 115.32 251.746 115.32C254.001 115.32 253.607 116.154 250.432 118.097C245.351 121.206 243.095 123.116 241.05 126.034C239.075 128.854 239.18 130.278 241.229 128.461C241.827 127.93 243.572 126.683 245.105 125.69C246.639 124.696 248.185 123.532 248.541 123.102C248.898 122.672 249.556 122.314 250.003 122.306C250.451 122.298 251.701 121.623 252.781 120.806C253.861 119.989 254.965 119.32 255.233 119.32C255.892 119.32 260.521 117.138 260.547 116.815C260.558 116.674 260.075 116.336 259.474 116.065C256.953 114.926 258.154 113.968 263.567 112.8C265.079 112.474 266.834 112.008 267.466 111.764C268.097 111.52 269.401 111.32 270.363 111.32C272.226 111.32 274.567 109.532 274.567 108.108C274.567 107.292 275.006 106.463 279.082 99.5815C282.381 94.0105 287.664 88.3635 288.74 89.2565C289.137 89.5865 289.584 90.5784 289.734 91.4634C289.884 92.3474 290.26 94.3075 290.57 95.8205C290.881 97.3335 291.288 100.352 291.476 102.53C291.863 107.023 292.57 107.768 293.862 105.045C294.654 103.376 302.074 94.7835 305.238 91.8705C306.365 90.8325 306.583 90.7795 306.852 91.4805C307.254 92.5295 306.232 108.085 305.624 110.159C305.099 111.949 305.551 112.558 308.534 114.07C312.111 115.884 319.558 124.604 319.57 126.992C319.571 127.31 319.801 128.391 320.079 129.394C320.502 130.915 321.175 131.578 324.145 133.394C326.103 134.591 328.517 136.074 329.511 136.69C330.504 137.306 334.298 139.315 337.942 141.154C344.145 144.285 344.567 144.59 344.567 145.944C344.567 148.776 339.258 154.633 331.626 160.22C326.273 164.139 326.513 164.084 320.26 162.81C307.017 160.11 303.407 159.718 300.576 160.674C295.718 162.315 292.881 164.487 291.425 167.681C291.14 168.308 290.61 168.82 290.247 168.82C289.557 168.82 287.567 172.275 287.567 173.473C287.567 173.854 287.173 174.932 286.692 175.868C286.065 177.087 285.729 179.342 285.505 183.82C285.049 192.963 281.364 207.347 279.877 205.788C279.763 205.668 279.366 203.995 278.994 202.07C278.515 199.593 278.098 198.57 277.567 198.57C277.006 198.57 276.707 199.513 276.382 202.31C276.142 204.366 275.67 206.279 275.332 206.56C274.994 206.841 274.327 208.36 273.849 209.936C273.305 211.729 272.063 213.949 270.529 215.867C269.182 217.553 267.608 219.695 267.032 220.627C265.842 222.554 264.822 222.875 265.235 221.195C265.387 220.576 265.665 218.889 265.853 217.445C266.135 215.285 266.062 214.82 265.44 214.82C265.024 214.82 264.551 215.214 264.389 215.695C263.684 217.789 261.923 220.102 258.38 223.588C256.294 225.64 254.41 227.32 254.193 227.32C253.976 227.32 252.453 228.44 250.808 229.808C249.163 231.176 247.592 232.301 247.317 232.309C247.042 232.316 244.926 233.446 242.615 234.82C240.304 236.195 237.86 237.32 237.183 237.32C236.507 237.32 235.076 237.813 234.005 238.415C232.537 239.24 231.915 239.368 231.482 238.935C231.049 238.502 231.235 237.866 232.237 236.352C232.969 235.247 233.567 234.201 233.567 234.029C233.567 233.857 234.242 232.715 235.067 231.492C235.892 230.27 236.567 228.934 236.567 228.522C236.567 228.11 237.017 226.84 237.567 225.702C238.668 223.422 238.831 222.32 238.067 222.32C237.792 222.32 237.567 222.63 237.567 223.009C237.567 223.388 237.255 223.957 236.874 224.273C236.494 224.589 235.095 226.473 233.767 228.46C232.439 230.446 230.404 233.09 229.244 234.336C224.899 239.004 223.533 243.618 222.272 257.881C221.288 269.026 221.533 287.754 222.726 292.57C223.135 294.22 223.753 296.92 224.099 298.57C225.02 302.958 224.981 302.922 228.907 303.106C235.38 303.408 240.619 306.455 241.402 310.372C241.564 311.181 241.892 311.963 242.132 312.111C243.027 312.664 242.574 315.076 241.442 315.784C240.152 316.591 221.996 317.041 218.067 316.364ZM310.567 132.102C310.567 129.089 310.476 129.017 304.841 127.581C299.632 126.253 299.955 126.853 308.244 133.9C309.104 134.632 309.979 135.125 310.188 134.996C310.396 134.868 310.567 133.565 310.567 132.102ZM266.806 51.7345C268.425 50.9965 268.211 50.3025 266.031 49.2195C263.201 47.8145 257.152 48.3265 257.686 49.9265C258.334 51.8705 264.03 52.9995 266.806 51.7345ZM150.067 312.247C146.629 311.996 143.55 311.697 143.224 311.583C142.479 311.323 136.573 302.589 136.55 301.715C136.541 301.361 135.882 300.17 135.085 299.07C134.289 297.97 132.723 295.313 131.605 293.165C130.488 291.017 128.897 288.278 128.07 287.076C127.244 285.874 126.565 284.706 126.562 284.481C126.559 284.255 125.661 282.945 124.567 281.57C123.473 280.195 122.575 278.925 122.572 278.747C122.569 278.569 121.667 276.942 120.567 275.131C119.467 273.321 118.567 271.495 118.567 271.075C118.567 269.68 120.533 266.099 122.964 263.065C126.708 258.392 128.445 254.423 129.816 247.414C130.309 244.893 130.949 243.262 131.878 242.164C133.16 240.646 135.567 235.843 135.567 234.8C135.567 234.325 137.174 230.468 138.108 228.702C138.36 228.224 138.567 227.485 138.567 227.058C138.567 225.93 140.414 222.485 141.171 222.201C142.195 221.817 152.96 222.727 154.004 223.286C155.306 223.983 162.512 226.312 163.506 226.357C163.952 226.377 164.992 226.787 165.817 227.269C167.113 228.026 167.339 228.48 167.478 230.608C167.567 231.962 167.402 234.307 167.112 235.82C166.821 237.333 166.451 239.428 166.29 240.476C166.128 241.523 165.449 243.469 164.781 244.798C164.113 246.128 163.567 247.486 163.567 247.816C163.567 248.146 162.667 249.44 161.567 250.69C160.467 251.939 159.567 253.24 159.567 253.58C159.567 253.921 158.05 255.519 156.196 257.134C154.341 258.749 151.36 261.378 149.571 262.977C145.143 266.933 145.012 267.034 143.844 267.341C143.175 267.516 142.76 268.101 142.654 269.018C142.564 269.792 142.058 271.197 141.529 272.138C141 273.08 140.567 274.536 140.567 275.374C140.567 278.346 147.739 291.393 152.191 296.518L154.566 299.253L158.941 299.21C162.713 299.172 163.671 299.346 165.882 300.466C168.565 301.825 170.489 304.317 172.202 308.653C173.481 311.89 172.858 312.143 162.817 312.482C159.242 312.603 153.505 312.498 150.067 312.247ZM276.817 312.272C271.231 311.691 270.903 311.566 270.129 309.716C269.75 308.811 268.838 307.283 268.101 306.32C267.365 305.357 266.457 303.783 266.085 302.82C265.712 301.857 264.824 300.32 264.112 299.402C263.4 298.485 262.23 296.688 261.512 295.411C260.735 294.027 259.753 292.983 259.081 292.824C258.176 292.611 257.704 291.767 256.696 288.565C256.005 286.368 255.124 283.846 254.738 282.962C254.352 282.078 253.619 280.053 253.109 278.462C252.22 275.687 247.255 265.609 243.913 259.794C243.035 258.267 241.023 255.41 239.442 253.445C237.861 251.481 236.567 249.658 236.567 249.393C236.567 249.128 235.667 247.772 234.567 246.381C233.467 244.989 232.567 243.731 232.567 243.586C232.567 243.44 233.171 243.32 233.909 243.32C236.276 243.32 241.256 241.304 242.704 239.758C243.468 238.944 244.306 238.409 244.568 238.571C245.108 238.904 248.36 237.178 252.552 234.331C255.337 232.44 260.567 227.186 260.567 226.28C260.567 226.027 260.737 225.82 260.944 225.82C261.151 225.82 261.262 229.467 261.19 233.925C261.118 238.383 261.265 242.714 261.517 243.55C261.769 244.386 262.354 246.87 262.818 249.07C263.282 251.27 264.565 255.995 265.669 259.57C266.772 263.145 267.876 266.722 268.121 267.52C268.366 268.317 268.567 269.407 268.567 269.942C268.567 270.478 268.986 271.513 269.499 272.243C270.012 272.973 270.718 274.47 271.069 275.57C272.304 279.445 272.739 280.599 274.085 283.57C274.832 285.22 275.737 287.357 276.096 288.32C276.454 289.283 277.35 290.97 278.086 292.07C278.823 293.17 279.733 294.928 280.108 295.977C281.121 298.806 281.688 299.07 286.77 299.071C292.039 299.072 293.211 299.548 296.899 303.186C298.835 305.095 299.441 306.113 299.941 308.296C300.285 309.795 300.384 311.203 300.161 311.426C299.673 311.914 288.607 312.819 284.067 312.742C282.279 312.712 279.017 312.501 276.817 312.272Z" fill="black"/>
</svg>
