<svg xmlns="http://www.w3.org/2000/svg" viewBox="0 0 345 275"><path d="M 94.500,256.532 C 94.500,256.267 95.258,255.473 96.184,254.767 C 98.008,253.375 101.310,248.864 102.671,245.904 C 104.368,242.212 104.722,239.334 104.736,229.123 L 104.750,218.997 L 182.750,219.123 L 260.750,219.250 L 260.886,229.750 C 261.013,239.582 260.949,240.455 259.886,243.472 C 258.969,246.072 258.074,247.381 255.250,250.255 C 253.007,252.537 250.673,254.343 248.750,255.283 L 245.750,256.750 L 170.125,256.881 C 121.954,256.965 94.500,256.838 94.500,256.532 Z M 76.000,253.289 C 72.205,252.239 70.149,251.019 67.218,248.076 C 63.414,244.256 62.222,241.735 61.746,236.500 C 61.533,234.162 61.315,188.600 61.261,135.250 L 61.162,38.250 L 60.094,34.415 C 58.875,30.042 57.308,27.007 54.120,22.844 C 52.896,21.246 52.049,19.784 52.239,19.594 C 52.875,18.958 203.856,18.880 208.000,19.514 C 213.230,20.315 216.065,21.316 219.119,23.443 C 222.557,25.836 224.496,28.814 226.537,34.834 L 228.204,39.750 L 228.368,55.035 L 228.533,70.319 L 226.028,73.713 C 223.411,77.257 219.965,82.826 216.740,88.719 C 215.696,90.627 213.974,93.327 212.913,94.719 C 211.244,96.908 207.603,103.677 206.442,106.750 C 205.816,108.405 204.096,114.532 203.259,118.084 C 200.897,128.110 200.986,140.253 203.485,149.130 C 204.318,152.089 205.002,155.239 205.004,156.130 C 205.006,157.021 204.079,159.662 202.944,162.000 C 200.302,167.441 200.438,167.089 197.977,174.873 C 196.189,180.528 195.913,181.970 196.090,184.746 C 196.345,188.749 197.129,189.795 198.529,188.000 C 200.225,185.825 204.125,178.117 205.866,173.500 C 209.374,164.196 212.415,156.674 214.254,152.750 C 215.415,150.275 217.006,146.787 217.791,145.000 C 219.962,140.056 224.654,131.421 227.313,127.477 C 229.129,124.784 231.228,121.226 233.248,117.418 C 237.013,110.321 253.078,87.830 259.250,81.016 C 260.900,79.194 263.820,75.914 265.739,73.727 C 267.658,71.540 271.544,67.444 274.374,64.625 C 277.203,61.806 279.274,59.500 278.976,59.500 C 277.735,59.500 268.789,66.859 262.470,73.078 C 254.883,80.544 244.114,92.275 242.083,95.285 C 241.350,96.371 238.818,99.845 236.457,103.005 C 226.859,115.847 219.887,127.050 213.201,140.375 C 211.372,144.019 209.594,147.000 209.249,147.000 C 208.139,147.000 207.436,142.942 207.149,134.879 C 206.804,125.197 207.120,123.177 210.530,113.250 C 211.286,111.050 212.231,108.136 212.629,106.774 C 213.473,103.895 214.319,103.337 214.806,105.339 C 214.994,106.115 215.724,107.987 216.427,109.500 L 217.705,112.250 L 218.016,105.500 C 218.437,96.361 219.752,93.062 227.388,82.000 C 233.330,73.391 243.368,62.000 245.011,62.000 C 245.697,62.000 245.972,62.834 246.458,66.393 C 247.118,71.220 247.537,72.284 248.617,71.870 C 249.119,71.677 249.617,69.605 250.272,64.978 C 251.063,59.389 251.425,58.063 252.602,56.439 C 254.377,53.989 260.225,49.329 267.250,44.767 C 273.183,40.915 273.944,40.520 280.750,37.762 C 283.225,36.759 286.666,35.277 288.397,34.469 C 290.129,33.661 291.940,33.000 292.422,33.000 C 292.905,33.000 293.514,32.798 293.775,32.551 C 294.036,32.304 296.356,31.385 298.931,30.509 C 301.506,29.633 304.636,28.477 305.888,27.941 C 307.140,27.404 308.344,27.144 308.563,27.363 C 309.656,28.456 305.913,46.544 302.895,54.750 C 299.513,63.946 298.138,66.794 294.339,72.462 C 289.981,78.966 286.762,81.541 280.000,83.930 C 278.212,84.562 275.796,85.511 274.630,86.039 C 273.465,86.568 272.171,87.000 271.755,87.000 C 271.340,87.000 271.000,87.256 271.000,87.569 C 271.000,88.452 283.306,87.373 286.125,86.244 C 287.474,85.703 287.187,86.648 285.000,89.940 C 283.900,91.596 283.000,93.100 283.000,93.281 C 283.000,93.463 281.875,95.474 280.500,97.750 C 279.125,100.026 278.000,102.111 278.000,102.383 C 278.000,102.655 277.673,103.149 277.273,103.481 C 276.647,104.000 275.123,106.404 270.851,113.606 C 267.570,119.138 259.906,127.488 256.485,129.258 C 254.089,130.498 247.848,131.999 245.062,132.006 C 237.330,132.024 237.023,133.954 244.585,134.998 C 249.646,135.697 251.000,136.012 251.000,136.493 C 251.000,137.713 232.358,149.000 230.342,149.000 C 229.982,149.000 228.756,149.450 227.618,150.000 C 226.480,150.550 225.346,151.000 225.099,151.000 C 224.144,151.000 220.498,154.054 219.768,155.465 C 218.885,157.173 218.742,160.000 219.539,160.000 C 219.836,160.000 221.758,159.100 223.810,158.000 C 225.862,156.900 227.869,156.000 228.270,156.000 C 228.901,156.000 229.000,159.789 229.000,184.000 L 229.000,212.000 L 167.375,212.038 C 110.903,212.074 97.624,212.210 97.076,212.758 C 96.968,212.865 96.919,218.998 96.967,226.385 C 97.066,241.629 96.787,243.150 93.004,247.935 C 88.979,253.027 82.468,255.077 76.000,253.289 Z M 186.750,190.459 C 189.324,189.422 189.773,189.049 189.912,187.831 C 190.116,186.049 188.780,184.498 187.048,184.505 C 186.334,184.508 184.645,184.846 183.296,185.255 C 181.946,185.665 180.223,186.000 179.468,186.000 C 177.689,186.000 174.717,184.395 171.399,181.643 C 167.149,178.118 165.019,177.345 160.276,177.607 C 157.214,177.776 155.652,178.141 153.750,179.131 C 151.232,180.442 147.500,183.896 147.500,184.916 C 147.500,185.218 147.076,185.692 146.558,185.969 C 145.353,186.614 144.860,188.567 145.487,190.215 C 145.881,191.251 146.308,191.500 147.695,191.500 C 149.181,191.500 149.665,191.160 151.255,188.993 C 153.776,185.558 156.554,184.000 160.154,184.000 C 163.221,184.000 165.198,184.866 168.722,187.754 C 169.838,188.669 171.764,190.009 173.001,190.734 C 175.051,191.934 175.625,192.034 179.500,191.859 C 182.480,191.725 184.646,191.306 186.750,190.459 Z M 156.548,155.642 C 158.793,154.316 159.016,152.042 157.113,149.875 C 156.396,149.058 154.166,149.000 123.728,149.000 C 93.130,149.000 91.042,149.055 90.005,149.895 C 89.231,150.522 88.900,151.336 88.900,152.612 C 88.900,154.775 89.239,155.424 90.676,156.003 C 91.267,156.242 106.003,156.451 123.423,156.468 C 152.488,156.497 155.215,156.429 156.548,155.642 Z M 176.855,127.034 C 177.654,126.989 180.000,124.437 180.000,123.613 C 180.000,122.469 178.445,120.546 176.895,119.773 C 175.594,119.124 169.779,119.020 133.931,119.006 C 89.229,118.988 90.673,118.907 88.824,121.547 C 87.569,123.338 89.251,126.548 91.750,127.130 C 92.502,127.305 173.666,127.213 176.855,127.034 Z M 196.663,97.498 C 197.891,97.501 200.500,94.827 200.500,93.566 C 200.500,93.011 199.994,91.988 199.375,91.294 L 198.250,90.033 L 145.786,89.771 C 110.728,89.596 92.691,89.679 91.419,90.022 C 89.383,90.570 88.500,91.678 88.500,93.683 C 88.500,95.111 90.395,96.685 92.894,97.333 C 93.779,97.562 117.283,97.693 145.126,97.623 C 172.969,97.552 196.161,97.496 196.663,97.498 Z M 200.178,67.282 C 201.449,66.422 201.577,66.096 201.341,64.334 C 201.195,63.245 200.626,61.904 200.076,61.354 C 199.092,60.370 198.303,60.353 146.414,60.219 C 115.351,60.139 93.005,60.273 91.933,60.545 C 89.885,61.066 89.279,61.659 88.817,63.595 C 88.577,64.603 88.799,65.292 89.705,66.345 L 90.913,67.750 L 132.082,68.000 C 199.132,68.407 198.508,68.414 200.178,67.282 Z M 18.936,58.461 C 18.030,57.901 18.704,37.522 19.737,34.250 C 21.338,29.180 25.380,24.572 30.500,21.983 C 35.741,19.332 43.858,21.272 48.473,26.279 C 51.672,29.749 52.516,32.138 53.027,39.168 C 53.701,48.438 53.626,57.862 52.875,58.333 C 52.085,58.828 19.728,58.950 18.936,58.461 Z" fill="#ffffff" fill-rule="evenodd" /></svg>