<svg xmlns="http://www.w3.org/2000/svg" viewBox="0 0 118 102" width="118" height="102"><path d="M 54.115,87.595 C 42.997,80.716 30.660,71.269 24.061,64.580 C 19.083,59.535 15.656,54.467 13.426,48.854 C 11.885,44.975 11.795,44.394 11.777,38.250 C 11.751,29.124 13.288,25.099 18.949,19.463 C 30.261,8.202 48.095,9.887 57.044,23.065 C 58.140,24.679 59.229,26.000 59.464,26.000 C 59.699,26.000 60.034,25.432 60.208,24.738 C 60.382,24.045 62.071,21.851 63.961,19.863 C 69.031,14.533 74.662,12.012 81.500,12.012 C 92.319,12.012 101.194,18.643 105.575,30.000 C 106.011,31.129 106.245,33.878 106.236,37.750 C 106.220,44.216 105.663,46.646 102.948,52.076 C 99.473,59.027 91.712,67.767 82.992,74.550 C 77.279,78.994 60.014,90.523 59.135,90.482 C 58.923,90.472 56.664,89.173 54.115,87.595 Z" fill="#000000" fill-rule="evenodd" /></svg>