<svg width="492" height="434" viewBox="0 0 492 434" fill="none" xmlns="http://www.w3.org/2000/svg">
<path fill-rule="evenodd" clip-rule="evenodd" d="M127.631 432.913C126.921 431.764 128.049 426.848 129.901 423.017C135.519 411.4 148.557 405.133 171.654 402.946C174.954 402.634 178.125 402.266 178.7 402.13C179.282 401.992 180.593 400.552 181.655 398.884C187.335 389.969 198.904 384.445 218.154 381.458C226.277 380.198 227.658 379.762 228.223 378.284C228.45 377.688 228.702 320.5 228.781 251.2C228.895 152.175 228.794 124.932 228.31 123.95C227.971 123.262 226.947 121.648 226.034 120.363C225.121 119.077 223.503 116.139 222.438 113.834C219.273 106.983 218.14 105.995 210.424 103.354C200.156 99.8402 190.576 99.5341 175.904 102.253C172.262 102.928 162.849 105.649 159.654 106.951C157.18 107.958 151.452 110.115 149.404 110.809C148.166 111.229 144.904 112.576 142.154 113.803C135.594 116.728 122.557 121.989 120.654 122.478C119.829 122.69 116.454 123.636 113.154 124.579C105.218 126.849 102.885 127.346 98.3494 127.731C93.1454 128.173 93.0554 128.263 94.5594 131.508C96.6834 136.092 99.3194 142.28 101.931 148.817C103.309 152.264 104.992 156.299 105.67 157.782C106.349 159.266 106.904 160.656 106.904 160.871C106.904 161.086 107.354 162.194 107.904 163.332C108.454 164.47 108.904 165.617 108.904 165.879C108.904 166.142 109.579 167.861 110.404 169.7C111.229 171.539 111.904 173.385 111.904 173.804C111.904 174.222 112.341 175.382 112.875 176.382C113.41 177.382 115.325 182.025 117.131 186.7C118.937 191.375 120.975 196.386 121.66 197.836C122.344 199.286 122.904 200.783 122.904 201.164C122.904 201.544 123.342 202.721 123.877 203.778C124.412 204.835 125.74 208.063 126.828 210.95C129.721 218.63 134.797 231.237 136.415 234.759C137.187 236.442 138.182 238.886 138.625 240.191C139.068 241.496 139.835 243.494 140.329 244.632C140.823 245.769 141.581 247.6 142.013 248.7C142.445 249.8 143.362 252.05 144.05 253.7C144.738 255.35 145.466 257.262 145.668 257.95C145.869 258.638 146.422 260.1 146.895 261.2C147.369 262.3 148.272 264.438 148.903 265.95C149.534 267.462 150.37 269.44 150.76 270.345C151.151 271.25 152.371 274.4 153.472 277.345C154.573 280.29 155.739 282.956 156.064 283.269C156.388 283.582 158.258 283.956 160.218 284.101C164.329 284.405 165.75 285.111 166.178 287.061C167.18 291.621 158.024 306.365 150.087 312.974C147.924 314.775 145.254 316.936 144.154 317.777C142.046 319.387 133.032 324.838 130.904 325.789C123.152 329.254 119.669 330.475 112.663 332.184C102.634 334.631 94.8164 335.536 83.9044 335.514C73.5154 335.493 66.5074 334.748 55.1544 332.459C45.0314 330.417 36.1524 326.464 25.6544 319.322C17.3834 313.695 13.2674 309.903 8.42636 303.45C4.78036 298.59 0.63336 290.955 0.0943596 288.108C-0.14864 286.828 0.0433586 286.265 1.07536 285.233C2.23936 284.07 2.73136 283.95 6.35236 283.95C9.00636 283.95 10.4754 283.741 10.7324 283.325C10.9454 282.981 12.6124 278.983 14.4364 274.439C16.2604 269.896 17.9954 265.734 18.2914 265.189C18.5884 264.645 19.4284 262.625 20.1594 260.7C21.4154 257.392 21.8564 256.327 23.6544 252.249C24.0664 251.314 24.4054 250.358 24.4074 250.124C24.4094 249.891 24.7014 249.138 25.0564 248.45C25.4124 247.762 26.4414 245.287 27.3454 242.95C29.0734 238.476 29.7224 236.871 32.6174 229.896C33.6004 227.529 34.4044 225.446 34.4044 225.267C34.4044 225.087 35.3874 222.637 36.5884 219.82C37.7904 217.004 39.3664 213.051 40.0924 211.035C40.8184 209.019 41.9724 206.143 42.6584 204.645C43.3434 203.146 43.9044 201.721 43.9044 201.477C43.9044 201.233 44.3824 199.946 44.9674 198.616C46.1224 195.99 47.3534 192.908 49.1514 188.137C49.7864 186.452 51.0254 183.527 51.9044 181.637C52.7834 179.747 53.9484 177.075 54.4924 175.7C55.0374 174.325 55.7694 172.525 56.1204 171.7C56.8634 169.951 58.5904 165.761 60.0364 162.2C60.5944 160.825 61.3554 158.991 61.7274 158.124C62.1004 157.258 62.4044 156.402 62.4044 156.222C62.4044 156.042 62.8344 154.951 63.3594 153.798C63.8844 152.644 65.2544 149.337 66.4044 146.45C67.5544 143.563 68.8894 140.3 69.3724 139.2C69.8554 138.1 70.8874 135.625 71.6674 133.7C72.4464 131.775 73.2684 129.986 73.4944 129.725C74.6704 128.363 73.8134 127.398 69.6844 125.436C64.2274 122.843 60.3844 119.364 58.4644 115.277C55.7544 109.512 55.8584 105.6 58.8254 101.675C61.5864 98.0222 64.0864 96.4872 67.3044 96.4672C70.7554 96.4452 72.0484 97.1692 76.6294 101.692C80.4254 105.439 80.4454 105.45 83.2954 105.536C87.7814 105.671 93.0124 105.411 94.6544 104.971C102.389 102.899 106.506 101.152 122.904 92.9802C132.625 88.1352 135.747 86.4862 141.904 82.9442C144.557 81.4182 153.686 76.9212 158.154 74.9382C164.805 71.9882 172.069 69.5542 181.404 67.1492C191.615 64.5182 202.829 64.2572 214.904 66.3702C216.142 66.5872 219.016 67.7062 221.292 68.8572C223.568 70.0082 225.628 70.9502 225.871 70.9502C226.113 70.9502 227.6 69.0152 229.173 66.6492L232.035 62.3481L230.011 57.2742C227.183 50.1852 226.911 49.2352 226.371 44.5782C225.865 40.2102 226.366 35.0742 227.687 31.0802C229.089 26.8432 231.764 22.0312 237.308 13.7742C240.419 9.13915 243.52 4.13316 244.199 2.64916C245.474 -0.137839 246.235 -0.690836 246.709 0.825164C247.381 2.97516 250.48 8.03816 254.442 13.4572C257.694 17.9052 262.578 27.4012 263.952 31.9502C266.191 39.3582 265.323 49.6632 261.965 55.5372C260.216 58.5952 259.735 60.8262 260.439 62.6042C261.243 64.6332 265.834 70.9502 266.505 70.9502C266.783 70.9502 268.393 70.2912 270.083 69.4852C271.772 68.6792 273.829 67.7552 274.654 67.4312C281.539 64.7322 297.648 64.2522 308.154 66.4332C313.884 67.6222 326.751 71.7602 331.792 74.0342C333.517 74.8132 335.052 75.4502 335.201 75.4502C335.681 75.4502 350.476 82.8732 355.654 85.7112C358.404 87.2182 363.129 89.7181 366.154 91.2661C369.179 92.8131 373.241 94.8942 375.182 95.8902C378.558 97.6222 384.977 100.614 388.154 101.936C388.979 102.279 391.679 103.236 394.154 104.062C398.079 105.373 399.423 105.573 404.676 105.632C411.522 105.709 411.261 105.81 416.404 101.085C418.192 99.4431 420.374 97.7281 421.254 97.2751C426.751 94.4421 433.939 99.1042 435.13 106.272C435.565 108.894 434.744 113.41 433.308 116.285C431.258 120.39 426.522 123.96 420.529 125.916C419.36 126.298 418.404 126.896 418.404 127.245C418.404 127.594 419.059 129.302 419.858 131.04C421.205 133.965 423.177 138.676 425.892 145.45C426.498 146.962 427.221 148.626 427.499 149.148C427.776 149.669 428.407 151.244 428.9 152.648C430.696 157.757 438.191 176.045 439.956 179.622C440.477 180.679 440.904 181.838 440.904 182.196C440.904 182.555 441.464 183.827 442.148 185.024C442.832 186.221 443.395 187.656 443.398 188.214C443.401 188.771 443.713 189.671 444.09 190.214C444.467 190.756 445.354 192.775 446.06 194.7C448.682 201.841 452.648 211.862 454.164 215.175C454.846 216.666 455.404 218.025 455.404 218.195C455.404 218.366 455.832 219.449 456.355 220.602C456.878 221.756 458.579 225.962 460.134 229.95C461.69 233.938 463.305 237.977 463.724 238.927C464.143 239.877 464.82 241.677 465.228 242.927C465.637 244.177 466.275 245.875 466.646 246.7C467.016 247.525 467.925 249.775 468.664 251.7C469.404 253.625 470.798 257.113 471.764 259.45C472.729 261.787 473.921 264.851 474.413 266.257C474.905 267.663 475.674 269.522 476.122 270.388C476.569 271.253 477.741 274.378 478.726 277.331C481.306 285.065 480.663 284.45 486.154 284.45C491.579 284.45 491.904 284.693 491.904 288.749C491.904 293.418 483.989 305.574 476.335 312.661C472.535 316.179 463.522 322.37 458.573 324.86C454.659 326.83 445.769 330.45 444.845 330.45C444.437 330.45 443.89 330.634 443.629 330.859C443.199 331.229 442.098 331.517 435.654 332.941C432.76 333.581 428.232 334.357 423.69 334.991C418.111 335.771 400.103 335.784 394.654 335.012C389.352 334.261 380.93 332.588 376.904 331.485C375.942 331.222 374.366 330.792 373.404 330.531C369.925 329.586 366.551 328.181 361.056 325.39C345.468 317.473 334.486 307.014 328.338 294.23C325.7 288.746 325.425 287.152 326.822 285.427C327.603 284.462 328.344 284.259 331.813 284.058C334.054 283.929 336.076 283.57 336.306 283.261C336.912 282.45 339.904 275.079 339.904 274.398C339.904 274.082 340.539 272.558 341.316 271.012C342.092 269.465 343.918 265.162 345.373 261.45C346.828 257.738 348.782 252.87 349.716 250.634C350.65 248.398 351.95 245.135 352.605 243.384C353.26 241.633 354.85 237.725 356.139 234.7C357.428 231.675 358.666 228.638 358.89 227.95C359.113 227.262 360.461 223.775 361.884 220.2C363.307 216.625 365.095 212.012 365.857 209.95C366.62 207.888 368.321 203.613 369.638 200.45C372.873 192.684 373.145 192.042 374.306 189.45C374.86 188.212 376.478 184.275 377.903 180.7C379.328 177.125 381.006 173.075 381.633 171.7C382.259 170.325 383.577 167.063 384.561 164.45C385.545 161.837 387.271 157.45 388.396 154.7C395.159 138.165 397.904 130.918 397.904 129.595V128.099L393.779 127.798C390.145 127.533 384.191 126.325 379.654 124.932C378.829 124.678 376.466 123.993 374.404 123.41C372.342 122.826 370.204 122.167 369.654 121.946C369.104 121.724 365.616 120.361 361.904 118.917C358.192 117.473 353.579 115.563 351.654 114.673C342.293 110.342 323.545 103.548 317.815 102.409C308.721 100.601 297.474 99.9902 290.904 100.948C286.226 101.63 278.262 104.199 275.824 105.812C273.739 107.192 272.247 109.258 269.948 113.95C269.073 115.737 267.125 118.724 265.621 120.587L262.886 123.973L262.911 204.837C262.925 249.311 262.946 303.587 262.958 325.45C262.982 368.263 263.274 377.925 264.585 379.374C265.168 380.018 266.84 380.428 270.769 380.888C279.532 381.915 282.89 382.438 283.798 382.917C284.269 383.165 286.474 383.858 288.699 384.456C292.506 385.479 295.119 386.603 300.387 389.48C303.27 391.055 309.613 397.046 310.988 399.492C312.323 401.868 313.278 402.215 320.404 402.916C328.313 403.695 332.506 404.356 336.904 405.516C342.202 406.913 343.081 407.248 348.331 409.855C357.911 414.613 364.407 422.748 364.975 430.7L365.154 433.2L246.559 433.326C162.207 433.416 127.868 433.296 127.631 432.913ZM140.699 283.764C140.853 283.361 140.642 282.506 140.228 281.865C139.815 281.224 139.102 279.688 138.644 278.45C137.569 275.545 135.038 269.291 133.84 266.58C133.325 265.415 132.904 264.343 132.904 264.2C132.904 264.057 132.48 262.985 131.961 261.82C131.443 260.654 130.517 258.35 129.905 256.7C129.292 255.05 128.497 253.025 128.139 252.2C127.446 250.604 125.489 245.482 123.839 240.95C122.532 237.358 119.946 230.935 119.363 229.832C119.111 229.354 118.904 228.741 118.904 228.469C118.904 228.197 118.229 226.501 117.404 224.7C116.579 222.899 115.904 221.138 115.904 220.787C115.904 220.437 115.713 219.936 115.479 219.675C115.246 219.414 113.871 216.162 112.424 212.45C110.977 208.738 109.368 204.746 108.849 203.58C108.329 202.415 107.904 201.239 107.904 200.969C107.904 200.698 107.472 199.514 106.943 198.338C105.192 194.442 104.509 192.783 100.397 182.449C98.1554 176.812 96.0264 171.525 95.6674 170.7C94.7934 168.693 93.4784 165.204 92.5584 162.45C92.1444 161.212 91.6034 159.986 91.3554 159.725C91.1074 159.464 90.9044 158.778 90.9044 158.2C90.9044 157.622 90.7134 156.936 90.4814 156.675C90.2484 156.414 89.3234 154.288 88.4254 151.95C87.5274 149.612 86.5014 147.025 86.1464 146.2C85.7904 145.375 85.1524 143.856 84.7274 142.825C84.3024 141.794 83.7604 140.95 83.5214 140.95C83.2824 140.95 82.6854 142.244 82.1944 143.825C81.3744 146.463 79.0864 152.249 76.9044 157.2C76.4194 158.3 75.6434 160.322 75.1794 161.692C74.7164 163.063 73.6764 165.61 72.8704 167.352C72.0644 169.094 71.4044 170.631 71.4044 170.767C71.4044 170.903 70.8424 172.244 70.1544 173.747C69.4664 175.25 68.9044 176.765 68.9044 177.115C68.9044 177.464 68.7154 177.964 68.4844 178.225C68.2534 178.486 67.7724 179.488 67.4164 180.45C67.0594 181.412 66.1234 183.607 65.3354 185.326C64.5484 187.046 63.9044 188.68 63.9044 188.957C63.9044 189.234 63.4694 190.415 62.9384 191.58C62.4074 192.746 61.6034 194.825 61.1524 196.2C60.7014 197.575 60.0364 199.375 59.6754 200.2C59.3134 201.025 58.5054 203.05 57.8794 204.7C57.2534 206.35 56.5814 207.925 56.3854 208.2C56.1904 208.475 55.5204 210.162 54.8974 211.95C54.2744 213.738 53.1594 216.55 52.4204 218.2C51.6814 219.85 50.5694 222.55 49.9484 224.2C49.3274 225.85 48.3594 228.325 47.7964 229.7C47.2344 231.075 46.6074 232.65 46.4044 233.2C46.2014 233.75 45.5624 235.325 44.9854 236.7C44.4084 238.075 43.1414 241.302 42.1714 243.871C41.2014 246.44 40.0964 249.253 39.7154 250.121C39.3354 250.99 38.5354 252.938 37.9374 254.45C36.4694 258.165 35.9104 259.454 35.0674 261.071C34.6744 261.824 34.0074 263.607 33.5834 265.032C33.1604 266.457 32.5144 268.09 32.1474 268.661C31.7804 269.233 30.6514 271.837 29.6384 274.45C28.6254 277.063 27.5014 279.875 27.1394 280.7C26.7784 281.525 26.4084 282.537 26.3184 282.95C26.1734 283.612 32.2234 283.729 77.6544 283.95C105.979 284.087 131.688 284.267 134.786 284.349C139.371 284.47 140.469 284.361 140.699 283.764ZM465.799 283.827C466.193 283.352 466.147 282.768 465.63 281.687C464.813 279.975 461.346 271.61 459.626 267.2C458.336 263.892 452.419 249.144 450.8 245.2C450.235 243.825 449.59 242.25 449.367 241.7C449.144 241.15 447.802 237.662 446.385 233.95C444.968 230.238 443.381 226.246 442.857 225.08C442.333 223.915 441.904 222.74 441.904 222.47C441.904 222.2 441.357 220.784 440.689 219.323C440.02 217.862 439.144 215.774 438.742 214.683C437.951 212.538 426.734 184.665 425.669 182.2C425.313 181.375 424.295 178.9 423.407 176.7C422.518 174.5 419.872 167.975 417.525 162.2C415.178 156.425 412.435 149.337 411.429 146.45C410.298 143.204 409.336 141.2 408.91 141.2C408.53 141.2 407.848 142.212 407.394 143.45C406.94 144.688 406.397 146.15 406.188 146.7C405.98 147.25 405.345 148.938 404.779 150.45C404.212 151.962 403.558 153.414 403.326 153.675C403.094 153.936 402.904 154.622 402.904 155.2C402.904 155.778 402.713 156.464 402.481 156.725C402.248 156.986 401.329 159.112 400.439 161.45C398.882 165.54 397.513 168.939 396.081 172.276C395.708 173.142 395.404 174.008 395.404 174.2C395.404 174.392 395.082 175.258 394.688 176.124C394.294 176.991 392.937 180.38 391.673 183.656C389.402 189.54 389.039 190.42 386.962 195.07C386.38 196.373 385.904 197.661 385.904 197.931C385.904 198.202 385.468 199.386 384.935 200.562C384.402 201.738 383.025 205.175 381.875 208.2C380.726 211.225 379.158 215.275 378.391 217.2C377.625 219.125 376.381 222.275 375.627 224.2C373.996 228.369 373.109 230.51 371.903 233.2C369.478 238.605 368.904 239.97 368.904 240.324C368.904 240.828 364.022 253.441 363.39 254.568C363.123 255.046 362.904 255.648 362.904 255.907C362.904 256.371 357.786 268.699 355.883 272.82C355.345 273.985 354.904 275.234 354.904 275.595C354.904 275.955 354.717 276.464 354.488 276.725C353.899 277.397 351.904 282.447 351.904 283.264C351.904 283.834 360.206 283.966 402.529 284.073C430.373 284.143 455.877 284.263 459.205 284.34C463.714 284.444 465.395 284.314 465.799 283.827Z" fill="black"/>
</svg>
