<svg xmlns="http://www.w3.org/2000/svg" viewBox="0 0 128 129" width="128" height="129"><path d="M 104.250,117.426 C 102.896,116.690 79.398,93.367 76.950,90.330 C 74.958,87.858 74.389,85.240 75.472,83.528 C 76.013,82.674 74.554,80.386 72.691,79.166 C 71.538,78.410 71.355,78.453 68.865,80.089 C 62.501,84.266 56.591,86.000 48.710,86.000 C 45.651,86.000 42.497,85.801 41.700,85.558 C 40.902,85.315 39.237,84.828 38.000,84.475 C 28.876,81.873 19.415,73.366 15.071,63.857 C 11.345,55.701 11.047,44.798 14.310,36.065 C 20.440,19.662 38.447,9.381 55.250,12.691 C 70.082,15.612 80.889,25.612 84.875,40.102 C 86.083,44.496 86.048,53.570 84.804,58.250 C 83.611,62.740 81.360,67.747 79.478,70.096 C 78.665,71.111 78.000,72.248 78.000,72.623 C 78.000,72.997 78.773,74.053 79.718,74.969 L 81.436,76.634 L 83.527,75.798 C 85.163,75.143 85.961,75.075 87.198,75.483 C 89.391,76.206 115.168,102.072 116.225,104.609 C 117.242,107.050 117.189,109.286 116.054,111.785 C 114.041,116.216 107.646,119.272 104.250,117.426 Z M 57.153,76.196 C 62.020,74.479 64.875,72.679 68.621,68.966 C 71.449,66.163 72.917,64.220 74.070,61.757 C 79.960,49.171 76.568,34.662 65.887,26.757 C 53.951,17.922 38.040,19.472 27.868,30.459 C 23.099,35.610 21.016,41.253 21.006,49.042 C 20.989,63.063 31.143,75.038 44.750,77.044 C 48.103,77.538 54.610,77.093 57.153,76.196 Z" fill="#000000" fill-rule="evenodd" /></svg>