<svg xmlns="http://www.w3.org/2000/svg" viewBox="0 0 596 577" width="596" height="577"><path d="M 55.000,565.251 C 39.002,562.492 23.827,550.745 16.000,535.060 C 12.835,528.717 10.441,517.548 11.237,512.834 C 11.431,511.688 11.694,510.075 11.822,509.250 C 12.455,505.161 14.690,499.480 17.049,495.962 C 19.815,491.838 24.011,488.265 28.828,485.934 C 32.709,484.055 33.464,483.869 38.150,483.635 C 44.614,483.313 46.706,483.879 50.371,486.943 C 54.567,490.451 89.942,525.934 91.324,528.022 C 92.295,529.489 92.553,530.711 92.822,535.115 C 93.193,541.172 92.759,543.407 90.220,548.500 C 86.195,556.577 78.344,562.558 68.516,565.035 C 64.219,566.119 60.386,566.180 55.000,565.251 Z M 528.750,565.275 C 516.792,562.774 507.464,554.766 503.743,543.807 C 502.795,541.012 502.601,532.091 503.441,529.895 C 503.726,529.150 513.700,518.777 525.605,506.843 C 546.809,485.588 547.310,485.127 550.184,484.258 C 554.168,483.052 561.109,483.420 565.000,485.042 C 568.060,486.317 572.620,489.042 574.436,490.680 C 577.763,493.680 581.448,499.837 583.057,505.082 C 583.997,508.148 584.181,509.899 584.176,515.750 C 584.170,521.921 584.009,523.277 582.815,527.199 C 580.406,535.115 576.957,541.215 571.089,547.937 C 567.859,551.636 560.467,557.700 556.500,559.904 C 547.141,565.103 537.162,567.034 528.750,565.275 Z M 76.810,501.625 C 64.985,489.869 54.888,479.745 54.371,479.127 C 53.799,478.444 53.551,477.627 53.738,477.039 C 54.052,476.049 75.106,454.769 76.551,453.981 C 77.169,453.644 78.772,454.842 83.551,459.214 C 94.053,468.820 123.000,498.219 123.002,499.282 C 123.005,500.504 100.415,523.000 99.184,523.000 C 98.702,523.000 88.681,513.426 76.810,501.625 Z M 485.143,512.375 C 479.233,506.531 474.190,501.213 473.936,500.558 C 473.594,499.675 473.696,499.025 474.328,498.060 C 475.853,495.734 517.920,454.000 518.741,454.000 C 519.433,454.000 536.659,470.437 541.389,475.610 L 543.089,477.470 L 542.082,478.860 C 541.528,479.625 531.428,489.869 519.637,501.625 C 503.767,517.450 497.900,523.000 497.044,523.000 C 496.209,523.000 492.902,520.048 485.143,512.375 Z M 127.200,491.551 C 124.612,489.627 84.208,448.978 83.858,447.946 C 83.418,446.645 84.692,445.200 96.111,434.053 C 105.345,425.038 107.110,423.524 107.892,423.942 C 108.398,424.213 118.698,434.162 130.781,446.052 C 148.788,463.770 152.779,467.939 152.913,469.165 C 153.061,470.525 152.048,471.684 141.851,481.831 C 135.677,487.974 130.294,493.000 129.888,493.000 C 129.482,493.000 128.273,492.348 127.200,491.551 Z M 463.700,491.052 C 462.628,490.255 457.501,485.329 452.308,480.104 C 444.192,471.940 442.907,470.440 443.161,469.426 C 443.561,467.834 487.564,424.000 488.763,424.000 C 489.772,424.000 512.500,446.359 512.500,447.352 C 512.500,447.680 511.409,449.254 510.075,450.849 C 507.180,454.311 472.593,488.769 469.806,490.967 C 467.387,492.875 466.177,492.891 463.700,491.052 Z M 244.250,480.013 C 243.150,479.843 241.881,479.490 241.431,479.227 C 240.493,478.681 228.418,467.090 194.264,433.948 C 169.765,410.176 149.458,389.579 130.735,369.513 C 124.968,363.332 115.793,353.597 110.346,347.880 C 104.899,342.162 100.118,336.708 99.721,335.758 C 98.773,333.489 98.804,329.591 99.790,327.232 C 100.791,324.835 105.139,320.259 108.834,317.714 C 111.609,315.803 111.803,315.750 115.968,315.750 C 119.970,315.750 120.400,315.854 122.548,317.346 C 123.811,318.223 126.286,320.578 128.048,322.578 C 141.324,337.652 165.886,362.988 199.226,396.000 C 232.477,428.923 241.079,437.309 253.000,448.428 C 257.812,452.917 262.086,457.188 262.496,457.920 C 263.598,459.883 263.442,466.494 262.251,468.338 C 260.666,470.792 253.323,478.058 251.500,478.976 C 249.339,480.064 246.871,480.417 244.250,480.013 Z M 344.851,478.954 C 342.297,477.606 335.713,471.292 334.239,468.777 C 332.784,466.294 332.264,463.315 332.736,460.167 C 333.151,457.404 333.452,457.085 353.216,438.500 C 376.787,416.335 426.266,367.135 443.250,348.973 C 448.475,343.386 454.692,336.775 457.066,334.282 C 459.440,331.789 463.337,327.500 465.726,324.750 C 468.114,322.000 470.969,319.031 472.069,318.153 C 476.343,314.741 480.532,314.216 485.249,316.499 C 488.295,317.974 495.149,324.676 496.244,327.250 C 497.341,329.829 497.327,333.917 496.214,336.069 C 495.737,336.993 492.849,340.339 489.798,343.506 C 486.747,346.672 479.300,354.540 473.250,360.990 C 444.488,391.652 424.681,411.757 393.690,441.750 C 360.081,474.276 355.340,478.776 354.073,479.352 C 351.950,480.319 347.036,480.107 344.851,478.954 Z M 156.470,460.695 C 152.891,457.662 117.719,422.831 115.630,420.251 C 114.739,419.151 114.008,417.792 114.005,417.231 C 114.002,416.563 118.021,412.219 125.686,404.606 C 132.113,398.223 137.569,392.999 137.811,392.998 C 138.052,392.997 141.625,396.432 145.750,400.632 C 149.875,404.832 159.944,414.865 168.125,422.927 C 181.496,436.104 183.000,437.749 183.000,439.193 C 183.000,440.622 181.768,442.023 171.829,451.899 C 165.685,458.005 160.328,463.000 159.924,463.000 C 159.520,463.000 157.966,461.963 156.470,460.695 Z M 424.824,452.667 C 414.152,442.238 412.413,440.192 412.838,438.567 C 412.966,438.077 423.161,427.586 435.494,415.256 L 457.917,392.837 L 460.333,394.879 C 465.719,399.430 482.000,416.323 482.000,417.359 C 482.000,419.151 478.749,422.639 459.106,441.925 C 441.194,459.512 437.365,463.000 435.975,463.000 C 435.658,463.000 430.640,458.350 424.824,452.667 Z M 228.000,409.606 C 227.312,408.898 221.967,403.616 216.121,397.868 C 209.562,391.421 205.627,387.195 205.846,386.834 C 206.251,386.166 251.809,341.054 263.500,329.745 C 267.762,325.621 277.775,315.954 285.750,308.263 C 304.878,289.816 353.822,240.876 365.770,228.250 C 373.729,219.838 382.444,210.750 405.157,187.177 C 410.716,181.407 407.764,183.014 400.250,189.847 C 396.125,193.598 390.933,198.261 388.712,200.209 C 386.491,202.156 381.654,206.537 377.962,209.944 C 374.270,213.351 368.893,218.301 366.012,220.944 C 363.131,223.587 358.743,227.681 356.262,230.041 C 353.780,232.402 348.600,237.239 344.750,240.791 C 332.337,252.245 304.111,278.898 290.750,291.782 C 283.600,298.677 272.012,309.811 265.000,316.523 C 257.988,323.236 241.338,339.309 228.000,352.241 C 214.662,365.173 202.500,376.812 200.971,378.106 L 198.192,380.457 L 186.096,368.411 C 179.443,361.785 174.000,356.214 174.000,356.030 C 174.000,355.846 178.219,351.570 183.375,346.527 C 201.451,328.848 251.246,279.297 365.352,165.440 C 433.699,97.243 481.936,49.488 484.102,47.876 C 497.897,37.611 513.341,29.823 533.250,23.093 C 543.026,19.789 550.094,17.725 557.500,16.014 C 560.112,15.410 564.050,14.499 566.250,13.989 C 570.213,13.071 575.340,12.000 575.775,12.000 C 576.300,12.000 575.897,14.722 574.257,22.250 C 572.395,30.796 572.404,30.760 570.011,39.500 C 567.666,48.063 567.717,47.888 566.088,53.000 C 561.326,67.942 554.078,84.486 548.194,93.849 C 542.188,103.404 539.709,106.394 529.053,116.944 C 523.111,122.826 488.887,156.816 453.000,192.478 C 385.755,259.300 346.806,297.856 330.250,313.989 C 325.025,319.080 315.688,328.204 309.500,334.264 C 303.312,340.324 292.738,350.561 286.000,357.014 C 279.262,363.466 268.528,373.902 262.147,380.205 C 255.765,386.508 250.332,391.796 250.073,391.957 C 249.815,392.118 245.302,396.469 240.046,401.625 C 234.789,406.781 230.209,410.976 229.869,410.947 C 229.529,410.918 228.688,410.315 228.000,409.606 Z M 347.387,392.596 C 337.137,382.432 323.856,369.337 317.875,363.495 C 311.894,357.653 307.000,352.647 307.000,352.369 C 307.000,351.696 330.309,328.500 330.984,328.500 C 331.274,328.500 335.052,331.919 339.380,336.098 C 350.345,346.683 390.500,386.685 390.500,387.023 C 390.500,387.407 367.088,410.712 366.501,410.913 C 366.239,411.002 357.638,402.759 347.387,392.596 Z M 384.361,368.335 C 360.983,345.797 337.500,322.682 337.500,322.208 C 337.500,322.051 360.105,299.991 362.755,297.561 C 363.042,297.298 421.750,355.461 421.750,356.009 C 421.750,356.254 416.275,361.959 409.583,368.687 L 397.415,380.920 L 384.361,368.335 Z M 217.250,265.711 C 208.450,257.042 194.275,243.031 185.750,234.575 C 141.294,190.481 73.888,123.893 67.750,118.008 C 57.763,108.432 53.452,103.406 48.658,95.750 C 37.536,77.990 27.409,50.340 21.280,21.000 C 20.850,18.938 20.287,16.362 20.029,15.278 C 19.772,14.193 19.687,13.102 19.841,12.853 C 20.228,12.226 24.560,12.823 32.250,14.562 C 58.910,20.590 81.789,29.070 99.000,39.302 C 113.003,47.626 109.170,43.999 203.542,138.253 C 251.369,186.020 290.500,225.178 290.500,225.270 C 290.500,225.362 286.956,228.872 282.625,233.069 C 278.294,237.267 272.198,243.251 269.079,246.368 L 263.409,252.034 L 261.329,250.177 C 260.186,249.155 253.885,243.241 247.328,237.035 C 240.770,230.828 233.008,223.524 230.078,220.803 C 227.147,218.082 222.050,213.326 218.750,210.235 C 215.450,207.144 211.963,203.982 211.000,203.208 C 210.037,202.434 208.008,200.665 206.489,199.276 C 204.971,197.887 201.278,194.613 198.283,192.000 C 195.288,189.387 191.782,186.294 190.492,185.125 C 189.202,183.956 188.001,183.000 187.823,183.000 C 186.837,183.000 188.017,184.586 192.582,189.396 C 208.637,206.310 229.348,227.826 252.927,252.084 C 255.778,255.017 258.030,257.605 257.930,257.834 C 257.723,258.313 233.693,281.507 233.426,281.486 C 233.329,281.478 226.050,274.379 217.250,265.711 Z" fill="#000000" fill-rule="evenodd" /></svg>