<svg xmlns="http://www.w3.org/2000/svg" viewBox="0 0 144 142" width="144" height="142"><path d="M 71.632,130.254 C 71.046,129.207 71.441,88.902 72.044,88.275 C 73.346,86.919 73.507,89.500 73.381,109.739 C 73.284,125.161 73.096,130.718 72.666,130.862 C 72.344,130.969 71.879,130.695 71.632,130.254 Z M 42.194,122.285 C 42.026,121.846 42.106,121.209 42.372,120.869 C 42.638,120.528 43.534,119.013 44.364,117.500 C 45.193,115.987 47.956,111.150 50.503,106.750 C 53.051,102.350 55.591,97.916 56.149,96.898 C 57.189,94.995 58.369,94.167 59.057,94.859 C 59.665,95.470 44.301,122.494 43.125,122.879 C 42.782,122.991 42.363,122.724 42.194,122.285 Z M 100.318,121.875 C 99.931,121.256 98.206,118.275 96.486,115.250 C 93.440,109.894 90.168,104.256 88.355,101.240 C 86.578,98.284 85.317,95.516 85.613,95.220 C 86.181,94.652 87.886,95.974 89.021,97.862 C 91.140,101.388 97.000,111.592 97.000,111.757 C 97.000,111.847 98.236,114.062 99.747,116.678 C 101.365,119.480 102.370,121.757 102.193,122.218 C 101.775,123.309 101.144,123.194 100.318,121.875 Z M 60.172,113.726 C 59.848,112.883 60.041,111.841 61.465,106.750 C 62.003,104.825 63.032,101.112 63.750,98.500 C 64.469,95.888 65.213,93.211 65.404,92.552 C 65.760,91.317 67.233,90.066 67.736,90.569 C 67.892,90.726 67.440,92.968 66.731,95.552 C 64.422,103.970 64.011,105.460 63.194,108.375 C 62.750,109.956 62.277,111.854 62.142,112.591 C 61.861,114.128 60.604,114.852 60.172,113.726 Z M 82.765,113.375 C 82.653,113.031 81.962,110.500 81.230,107.750 C 80.497,105.000 79.504,101.400 79.022,99.750 C 77.708,95.252 76.806,91.027 77.098,90.735 C 78.031,89.802 79.031,91.621 80.489,96.905 C 81.376,100.120 82.278,103.312 82.493,104.000 C 82.708,104.688 83.159,106.263 83.494,107.500 C 83.830,108.737 84.306,110.267 84.552,110.899 C 85.312,112.847 85.101,114.000 83.984,114.000 C 83.426,114.000 82.877,113.719 82.765,113.375 Z M 40.231,102.968 C 39.729,102.158 52.152,89.500 53.449,89.500 C 54.714,89.500 52.165,92.955 47.087,98.125 C 41.962,103.343 40.918,104.080 40.231,102.968 Z M 98.385,99.125 C 94.461,95.298 91.000,91.156 91.000,90.285 C 91.000,89.079 93.362,90.823 98.263,95.647 C 102.139,99.462 104.000,101.652 104.000,102.397 C 104.000,103.004 103.746,103.500 103.436,103.500 C 103.125,103.500 100.852,101.531 98.385,99.125 Z M 21.156,100.686 C 20.871,99.944 22.610,98.042 23.603,98.011 C 23.797,98.005 25.035,97.365 26.353,96.588 C 29.017,95.019 44.874,86.165 50.109,83.323 C 53.400,81.537 55.000,81.079 55.000,81.923 C 55.000,82.522 53.558,83.726 51.375,84.949 C 48.445,86.591 46.467,87.732 43.603,89.430 C 42.147,90.294 40.877,91.000 40.780,91.000 C 40.462,91.000 23.760,100.587 23.275,101.048 C 22.531,101.756 21.499,101.579 21.156,100.686 Z M 120.250,100.088 C 119.425,99.588 117.287,98.383 115.500,97.408 C 107.354,92.969 105.089,91.712 99.605,88.587 C 96.385,86.752 93.135,84.933 92.383,84.545 C 90.714,83.684 89.000,82.131 89.000,81.481 C 89.000,80.731 89.500,80.877 93.383,82.761 C 96.502,84.274 100.108,86.249 115.125,94.668 C 116.431,95.401 118.569,96.589 119.875,97.309 C 122.837,98.941 123.713,99.750 123.280,100.452 C 122.799,101.230 121.973,101.131 120.250,100.088 Z M 57.199,88.709 C 57.384,86.900 58.000,83.044 58.567,80.141 L 59.598,74.863 L 53.190,68.440 C 49.165,64.406 46.962,61.847 47.266,61.558 C 47.532,61.305 50.112,60.969 53.000,60.811 C 55.888,60.653 59.747,60.381 61.577,60.207 L 64.904,59.890 L 67.268,54.320 C 71.474,44.409 72.171,42.974 72.690,43.147 C 73.278,43.343 74.500,45.463 75.486,48.000 C 76.320,50.143 79.835,57.968 80.428,59.000 C 80.937,59.886 82.633,60.207 91.000,61.001 C 94.438,61.327 97.443,61.776 97.678,62.000 C 97.914,62.224 95.168,65.390 91.577,69.036 L 85.048,75.665 L 85.514,77.707 C 88.261,89.741 88.557,92.012 87.375,91.987 C 87.031,91.980 85.062,91.057 83.000,89.936 C 80.938,88.816 77.724,87.083 75.860,86.086 L 72.470,84.272 L 68.360,86.402 C 66.099,87.573 62.788,89.307 61.000,90.256 C 59.212,91.204 57.550,91.985 57.306,91.990 C 57.058,91.996 57.011,90.548 57.199,88.709 Z M 29.668,83.216 C 29.198,81.992 29.964,81.578 35.112,80.272 C 37.754,79.602 42.241,78.392 45.083,77.582 C 51.622,75.720 53.121,75.457 54.024,76.015 C 55.164,76.720 53.742,77.708 50.500,78.464 C 48.987,78.817 43.883,80.207 39.157,81.553 C 34.430,82.899 30.430,84.000 30.266,84.000 C 30.102,84.000 29.833,83.647 29.668,83.216 Z M 110.000,82.993 C 108.487,82.508 103.763,81.166 99.500,80.011 C 95.237,78.855 91.244,77.710 90.625,77.465 C 89.280,76.935 89.166,76.170 90.375,75.799 C 91.251,75.530 92.261,75.726 97.625,77.207 C 104.710,79.162 106.472,79.635 109.907,80.504 C 114.142,81.577 115.296,82.291 114.445,83.316 C 113.763,84.138 113.515,84.120 110.000,82.993 Z M 12.090,71.875 L 12.250,70.750 L 30.736,70.599 C 40.903,70.515 49.735,70.576 50.361,70.733 C 52.012,71.148 51.758,72.323 49.938,72.688 C 49.078,72.859 40.175,73.000 30.153,73.000 L 11.930,73.000 L 12.090,71.875 Z M 93.203,72.424 C 93.007,72.107 93.262,71.545 93.769,71.174 C 95.187,70.137 131.619,70.188 132.482,71.228 C 132.814,71.629 132.941,72.191 132.764,72.478 C 132.286,73.250 93.681,73.198 93.203,72.424 Z M 42.000,64.521 C 41.312,64.302 38.500,63.605 35.750,62.973 C 30.035,61.661 29.000,61.245 29.000,60.262 C 29.000,58.872 30.181,58.910 35.920,60.483 C 43.012,62.428 45.000,63.251 45.000,64.242 C 45.000,65.060 43.982,65.155 42.000,64.521 Z M 100.000,64.591 C 100.000,63.640 102.702,62.148 106.000,61.278 C 107.787,60.806 110.037,60.196 111.000,59.922 C 114.002,59.067 114.736,59.148 114.907,60.357 C 115.030,61.218 114.752,61.537 113.657,61.792 C 112.883,61.971 110.112,62.689 107.500,63.386 C 101.410,65.010 100.000,65.237 100.000,64.591 Z M 93.951,58.470 C 93.046,57.911 93.458,57.562 97.750,55.252 C 99.675,54.216 102.375,52.752 103.750,52.000 C 105.125,51.248 107.825,49.772 109.750,48.721 C 111.675,47.669 115.124,45.727 117.414,44.405 C 119.705,43.082 121.875,42.000 122.236,42.000 C 123.433,42.000 123.516,43.468 122.359,44.178 C 120.029,45.608 109.556,51.477 105.254,53.763 C 102.782,55.077 100.082,56.530 99.254,56.990 C 96.825,58.343 94.703,58.935 93.951,58.470 Z M 45.250,57.052 C 44.425,56.569 42.400,55.439 40.750,54.540 C 30.001,48.684 21.388,43.456 21.119,42.625 C 20.573,40.938 22.883,41.664 28.352,44.896 C 34.156,48.327 36.559,49.675 43.000,53.114 C 47.970,55.769 50.000,57.055 50.000,57.549 C 50.000,58.311 46.836,57.980 45.250,57.052 Z M 56.688,56.857 C 54.789,55.772 41.000,42.124 41.000,41.330 C 41.000,40.906 41.224,40.421 41.498,40.251 C 42.089,39.886 58.500,55.909 58.500,56.851 C 58.500,57.646 58.070,57.647 56.688,56.857 Z M 85.000,57.042 C 85.000,56.424 101.886,40.290 102.735,40.097 C 103.105,40.013 103.566,40.202 103.760,40.516 C 104.194,41.219 102.676,42.830 93.826,51.061 C 87.725,56.735 85.000,58.582 85.000,57.042 Z M 61.810,54.875 C 59.917,51.889 48.663,32.919 47.349,30.500 C 46.528,28.988 45.685,27.525 45.476,27.250 C 44.640,26.151 42.000,21.061 42.000,20.548 C 42.000,20.246 42.404,20.000 42.898,20.000 C 43.520,20.000 44.778,21.731 46.987,25.625 C 48.741,28.719 51.111,32.825 52.252,34.750 C 57.760,44.041 59.450,46.924 60.608,49.000 C 61.298,50.237 62.362,52.086 62.971,53.109 C 64.496,55.666 63.384,57.358 61.810,54.875 Z M 81.500,53.866 C 81.500,53.242 82.062,51.904 82.750,50.893 C 83.438,49.881 84.000,48.952 84.000,48.829 C 84.000,48.617 91.555,35.397 97.618,25.000 C 100.354,20.307 102.000,18.809 102.000,21.011 C 102.000,21.608 101.584,22.693 101.076,23.423 C 100.568,24.153 99.472,25.988 98.641,27.500 C 97.060,30.376 90.086,42.464 85.454,50.358 C 82.775,54.923 81.500,56.054 81.500,53.866 Z M 64.498,45.625 C 63.834,43.133 62.813,39.609 61.053,33.736 C 59.705,29.236 59.693,28.000 61.000,28.000 C 61.550,28.000 62.000,28.102 62.000,28.226 C 62.000,28.591 63.308,33.316 65.197,39.774 C 66.904,45.607 67.066,48.000 65.757,48.000 C 65.412,48.000 64.845,46.931 64.498,45.625 Z M 78.110,45.184 C 78.349,42.477 82.241,29.059 83.010,28.290 C 83.330,27.970 83.706,28.006 84.093,28.393 C 85.050,29.350 79.931,46.940 78.563,47.396 C 78.049,47.567 77.945,47.058 78.110,45.184 Z M 71.566,38.329 C 70.707,37.294 70.868,12.732 71.738,12.010 C 73.286,10.725 73.519,12.676 73.384,25.770 C 73.250,38.619 73.036,40.101 71.566,38.329 Z" fill="#000000" fill-rule="evenodd" /></svg>