<svg xmlns="http://www.w3.org/2000/svg" viewBox="0 0 365 483" width="365" height="483"><path d="M 75.706,466.533 C 73.709,466.050 73.000,465.594 73.000,464.792 C 73.000,464.436 75.044,462.035 77.542,459.457 C 85.646,451.094 91.307,442.510 94.989,433.000 C 95.574,431.488 96.237,429.800 96.461,429.250 C 98.251,424.860 102.489,409.063 104.644,398.750 C 107.964,382.863 109.803,370.376 112.228,347.250 C 112.920,340.650 113.716,333.225 113.997,330.750 C 115.195,320.194 116.595,302.149 116.810,294.500 C 117.018,287.068 116.968,286.374 116.305,287.500 C 115.900,288.188 115.428,289.875 115.255,291.250 C 115.082,292.625 114.157,297.913 113.200,303.000 C 112.242,308.087 111.143,313.938 110.756,316.000 C 110.370,318.062 109.582,322.900 109.005,326.750 C 108.429,330.600 107.749,334.538 107.494,335.500 C 106.589,338.915 104.998,346.820 104.224,351.750 C 103.792,354.500 103.251,356.940 103.021,357.173 C 102.395,357.807 99.627,356.313 96.144,353.461 C 94.436,352.062 92.837,351.042 92.590,351.194 C 92.041,351.534 92.966,357.191 94.519,363.000 C 95.595,367.021 95.625,367.571 95.071,373.208 C 94.749,376.484 94.236,379.465 93.932,379.833 C 93.277,380.622 89.702,380.731 89.235,379.976 C 89.057,379.688 88.691,377.044 88.421,374.101 C 88.152,371.158 87.640,368.188 87.284,367.500 C 86.927,366.812 86.485,365.575 86.300,364.750 C 85.548,361.389 83.871,357.952 83.057,358.101 C 81.904,358.314 79.955,362.397 80.318,363.843 C 80.480,364.490 80.336,365.689 79.997,366.508 C 79.036,368.827 79.778,371.263 85.101,383.250 C 86.428,386.240 87.187,388.767 87.360,390.779 C 87.615,393.730 87.578,393.845 85.955,395.211 C 84.504,396.432 83.993,396.578 82.019,396.338 C 79.475,396.028 72.389,392.404 69.972,390.178 C 67.517,387.916 63.259,382.044 61.503,378.500 C 60.617,376.712 59.691,374.859 59.446,374.381 C 59.200,373.903 58.731,371.949 58.404,370.040 C 57.925,367.248 57.936,366.293 58.463,365.159 C 59.466,363.002 60.449,357.830 61.012,351.750 C 61.630,345.087 61.985,342.934 62.593,342.166 C 62.847,341.844 62.986,340.404 62.903,338.965 C 62.750,336.353 62.745,336.346 59.776,334.550 C 58.140,333.560 56.411,332.075 55.933,331.250 C 55.075,329.768 55.095,329.661 57.502,322.500 C 60.476,313.653 65.154,300.293 65.994,298.250 C 66.334,297.425 67.507,294.275 68.603,291.250 C 69.698,288.225 71.051,284.512 71.610,283.000 C 73.356,278.270 76.407,269.607 79.712,260.000 C 81.461,254.912 83.342,249.512 83.892,248.000 C 85.577,243.359 87.436,237.590 89.771,229.750 C 90.999,225.625 92.209,221.575 92.460,220.750 C 92.710,219.925 93.631,216.775 94.507,213.750 C 97.102,204.782 98.020,202.421 100.239,199.000 C 102.882,194.924 104.414,193.390 108.500,190.731 C 113.692,187.352 117.000,186.340 117.000,188.131 C 117.000,189.324 119.835,192.197 125.618,196.865 C 134.768,204.250 140.000,207.645 140.000,206.198 C 140.000,206.032 137.131,202.813 133.625,199.046 C 122.663,187.268 120.367,184.027 117.439,176.203 C 116.648,174.089 116.342,172.123 116.319,169.021 C 116.270,162.366 117.301,157.851 120.494,150.750 C 121.704,148.060 125.551,136.365 130.280,121.000 C 133.757,109.700 138.691,100.872 145.043,94.581 C 149.409,90.257 153.573,87.400 159.742,84.495 C 163.635,82.662 164.938,82.311 169.499,81.868 C 177.683,81.074 184.547,82.810 191.604,87.458 C 195.233,89.848 204.000,97.295 204.000,97.987 C 204.000,98.187 205.077,99.791 206.393,101.550 C 209.392,105.561 211.564,110.034 213.166,115.500 C 217.992,131.974 218.381,133.235 219.246,135.250 C 222.772,143.459 227.932,159.989 228.481,164.832 C 229.772,176.227 224.950,185.486 210.043,200.241 C 203.384,206.831 203.176,208.475 209.584,203.862 C 221.182,195.513 228.000,189.554 228.000,187.767 C 228.000,186.560 229.157,186.843 233.557,189.125 C 238.227,191.547 243.222,196.214 245.912,200.669 C 246.828,202.186 248.427,206.299 249.476,209.835 C 253.435,223.187 257.711,234.568 261.653,242.250 C 263.649,246.141 265.054,248.093 267.984,251.048 C 272.281,255.381 274.592,256.854 280.537,259.045 C 286.502,261.245 286.293,261.218 287.477,259.921 C 288.065,259.277 288.930,258.329 289.398,257.813 C 290.520,256.580 293.211,255.458 296.000,255.061 L 298.250,254.741 L 298.368,251.496 C 298.482,248.371 299.141,240.967 300.770,224.500 C 302.531,206.690 302.447,207.396 304.438,193.750 C 305.947,183.406 308.470,170.413 310.166,164.250 C 310.545,162.875 312.157,157.700 313.749,152.750 C 319.326,135.413 321.204,128.274 324.028,113.678 C 325.818,104.421 326.308,100.058 327.238,85.069 C 327.915,74.155 327.906,73.311 327.106,72.207 C 326.082,70.793 320.989,68.247 318.397,67.852 C 313.488,67.105 305.549,69.800 302.205,73.350 C 300.623,75.030 297.000,81.727 297.000,82.973 C 297.000,83.747 295.998,84.120 295.353,83.586 C 294.237,82.660 284.787,78.180 280.500,76.544 C 278.163,75.652 275.462,74.577 274.500,74.155 C 273.538,73.733 271.512,72.984 270.000,72.492 C 268.488,71.999 266.575,71.318 265.750,70.977 C 262.107,69.474 254.401,66.817 250.500,65.720 C 248.162,65.062 244.417,63.970 242.177,63.293 C 236.710,61.642 225.196,59.210 217.250,58.029 C 198.168,55.192 191.478,54.739 169.750,54.811 C 150.881,54.874 143.472,55.395 127.750,57.766 C 121.870,58.653 104.950,61.972 104.319,62.362 C 104.078,62.511 103.177,62.812 102.316,63.031 C 92.250,65.599 84.201,68.234 75.250,71.891 C 66.255,75.565 62.903,77.040 56.000,80.362 C 51.737,82.412 47.237,84.568 46.000,85.152 C 40.566,87.717 23.085,98.157 19.603,100.917 C 11.723,107.163 21.101,93.477 35.250,78.082 C 44.755,67.740 61.674,53.969 71.000,48.984 C 72.237,48.323 73.588,47.512 74.000,47.183 C 75.676,45.846 88.272,39.651 98.500,35.134 C 102.841,33.217 103.006,33.152 107.750,31.504 C 110.225,30.645 112.761,29.732 113.384,29.477 C 118.308,27.462 139.240,22.122 148.500,20.519 C 150.287,20.210 152.875,19.750 154.250,19.497 C 163.753,17.749 179.393,16.167 194.250,15.449 C 207.030,14.831 227.149,15.456 237.500,16.791 C 240.662,17.199 246.175,17.860 249.750,18.259 C 253.325,18.659 256.925,19.193 257.750,19.447 C 258.575,19.701 260.375,20.058 261.750,20.240 C 266.768,20.905 275.658,22.822 285.500,25.361 C 288.113,26.035 291.600,26.916 293.250,27.317 C 297.281,28.299 302.908,29.889 304.750,30.566 C 305.575,30.870 307.938,31.641 310.000,32.281 C 312.062,32.920 314.988,33.925 316.500,34.514 C 322.626,36.899 324.673,37.545 326.420,37.645 L 328.250,37.750 L 328.074,32.250 C 327.912,27.210 327.988,26.635 328.985,25.375 C 330.240,23.788 331.719,23.649 337.616,24.564 C 344.274,25.596 346.222,26.321 348.188,28.497 L 350.000,30.503 L 350.003,48.876 C 350.007,69.538 349.276,82.498 346.993,102.250 C 345.875,111.925 341.806,129.502 338.544,138.750 C 337.477,141.775 335.888,146.500 335.011,149.250 C 334.135,152.000 333.124,154.925 332.765,155.750 C 331.983,157.545 331.211,160.109 330.731,162.500 C 330.538,163.463 330.061,164.874 329.671,165.636 C 328.995,166.959 328.504,168.673 325.697,179.500 C 321.262,196.606 319.365,210.825 317.025,244.500 C 316.767,248.213 316.399,253.428 316.207,256.090 L 315.857,260.931 L 318.804,261.772 C 326.121,263.860 329.360,268.417 327.394,273.855 C 326.864,275.319 326.924,275.798 327.867,277.641 C 329.608,281.042 329.696,283.411 328.192,286.429 C 327.338,288.143 327.002,289.441 327.205,290.249 C 327.374,290.921 327.361,292.760 327.176,294.334 C 326.899,296.686 326.510,297.558 324.991,299.223 C 323.427,300.939 323.098,301.706 322.848,304.221 C 322.466,308.064 321.450,309.381 317.343,311.363 L 314.000,312.975 L 313.999,324.863 C 313.997,336.917 314.254,341.534 316.026,361.250 C 319.370,398.459 320.201,413.527 319.862,430.750 C 319.618,443.133 318.387,456.935 317.054,462.237 C 316.234,465.501 313.373,467.000 307.963,467.000 C 305.008,467.000 303.837,466.735 301.168,465.461 C 299.256,464.548 297.730,463.454 297.420,462.774 C 296.915,461.667 297.644,453.701 299.023,445.250 C 301.724,428.693 302.167,407.482 300.284,384.750 C 298.772,366.481 298.478,362.569 297.994,354.250 C 297.722,349.575 297.366,344.738 297.202,343.500 C 297.039,342.262 296.758,334.068 296.578,325.291 C 296.327,313.107 296.100,309.282 295.618,309.122 C 294.234,308.662 293.390,312.025 290.503,329.500 C 288.479,341.757 285.768,352.939 283.775,357.250 C 282.886,359.175 281.761,361.802 281.275,363.089 C 280.228,365.860 278.932,367.373 277.237,367.798 C 274.952,368.371 274.597,367.989 267.662,357.500 C 266.116,355.163 262.673,350.100 260.010,346.250 C 257.347,342.400 254.737,338.539 254.209,337.670 C 253.682,336.802 251.240,333.089 248.782,329.420 C 237.302,312.280 237.428,312.508 233.966,302.439 C 232.420,297.940 231.259,293.599 229.731,286.601 C 229.233,284.320 228.516,282.070 228.137,281.601 C 227.550,280.875 227.493,282.252 227.749,291.000 C 228.273,308.892 231.121,338.801 235.244,369.709 C 237.132,383.859 240.343,401.991 242.202,409.000 C 245.262,420.537 246.777,425.665 248.096,428.952 C 248.934,431.041 249.832,433.491 250.090,434.397 C 250.757,436.737 256.084,446.480 258.443,449.673 C 259.536,451.153 263.034,454.807 266.215,457.793 C 270.796,462.092 272.000,463.500 272.000,464.558 C 272.000,465.333 271.633,466.073 271.125,466.322 C 270.051,466.847 77.865,467.055 75.706,466.533 Z M 79.494,387.375 C 79.491,387.031 78.928,385.771 78.244,384.574 C 77.560,383.377 77.000,381.975 77.000,381.459 C 77.000,380.870 76.267,380.146 75.031,379.516 C 73.205,378.584 73.081,378.388 73.335,376.822 C 73.490,375.871 73.234,373.846 72.751,372.191 C 71.799,368.927 72.006,364.149 73.227,361.227 C 73.858,359.717 74.827,354.369 75.126,350.750 C 75.247,349.281 75.317,349.245 78.461,349.000 C 80.341,348.854 81.755,348.498 81.872,348.142 C 81.982,347.807 80.762,346.704 79.161,345.691 C 77.560,344.677 75.102,343.095 73.698,342.174 C 72.295,341.253 70.902,340.500 70.604,340.500 C 70.305,340.500 69.930,341.569 69.770,342.875 C 69.262,347.028 67.373,356.679 66.678,358.678 C 66.113,360.301 66.121,361.689 66.727,367.442 C 67.122,371.202 67.608,374.722 67.806,375.264 C 68.004,375.806 69.499,377.565 71.128,379.172 C 72.757,380.778 74.425,382.894 74.834,383.873 C 76.083,386.863 77.040,388.000 78.308,388.000 C 78.963,388.000 79.497,387.719 79.494,387.375 Z M 315.086,304.673 C 316.343,303.535 316.241,301.674 314.875,300.818 C 314.199,300.394 311.655,299.990 308.500,299.807 C 305.613,299.640 301.675,299.378 299.750,299.225 C 295.261,298.870 294.149,299.486 296.126,301.236 C 297.631,302.568 299.211,303.132 305.250,304.495 C 310.507,305.682 313.903,305.743 315.086,304.673 Z M 318.500,295.000 C 319.956,293.544 319.809,291.593 318.197,290.980 C 316.266,290.246 298.394,289.497 297.625,290.118 C 297.281,290.395 297.000,291.027 297.000,291.521 C 297.000,292.733 300.194,293.751 307.752,294.949 C 315.778,296.221 317.272,296.228 318.500,295.000 Z M 287.839,284.419 L 291.052,282.837 L 290.766,280.294 C 290.609,278.895 290.388,276.573 290.275,275.134 C 289.940,270.869 289.457,270.669 285.240,273.049 C 282.111,274.815 281.738,275.643 282.130,279.964 C 282.369,282.603 283.605,286.000 284.326,286.000 C 284.492,286.000 286.073,285.288 287.839,284.419 Z M 319.717,285.012 C 320.737,284.625 320.998,284.188 320.992,282.887 C 320.988,281.987 320.802,280.963 320.579,280.611 C 320.228,280.058 308.517,278.998 301.158,278.854 C 297.934,278.790 296.897,281.496 299.429,283.368 C 300.484,284.149 302.083,284.547 305.554,284.893 C 312.050,285.542 318.189,285.593 319.717,285.012 Z M 318.468,274.009 C 319.409,273.739 320.340,273.259 320.536,272.942 C 321.034,272.137 320.190,269.467 319.089,268.367 C 318.255,267.533 317.801,267.496 314.210,267.972 C 312.032,268.260 309.800,268.592 309.250,268.710 C 308.700,268.827 307.514,268.941 306.614,268.962 C 305.423,268.990 304.369,269.561 302.739,271.064 C 299.135,274.386 299.330,274.500 308.628,274.500 C 313.099,274.500 317.527,274.279 318.468,274.009 Z M 300.199,269.524 C 301.033,268.689 301.074,268.385 300.525,267.060 C 299.713,265.100 297.842,263.901 295.898,264.095 C 293.141,264.371 292.778,266.812 295.063,269.716 C 295.968,270.867 296.405,271.044 297.697,270.786 C 298.549,270.615 299.675,270.047 300.199,269.524 Z M 182.000,195.106 C 184.289,193.685 190.087,187.776 191.062,185.871 C 192.237,183.576 193.293,174.088 192.464,173.273 C 191.697,172.518 190.696,174.067 190.290,176.635 C 189.748,180.067 187.971,182.263 184.916,183.278 C 182.587,184.051 180.917,184.117 170.516,183.846 C 156.887,183.490 157.798,183.864 155.947,177.855 C 154.714,173.849 153.816,172.500 152.383,172.500 C 151.494,172.500 151.447,172.758 151.764,175.875 C 152.201,180.152 153.383,185.414 154.155,186.515 C 155.545,188.496 163.807,195.555 165.215,195.964 C 167.689,196.684 180.515,196.028 182.000,195.106 Z M 184.778,176.791 C 185.298,176.411 185.863,174.744 186.275,172.370 C 187.367,166.093 188.069,165.534 196.137,164.514 C 198.549,164.209 200.799,163.839 201.137,163.691 C 202.456,163.113 205.500,158.888 205.500,157.635 C 205.500,156.921 204.900,155.314 204.166,154.062 C 202.876,151.860 202.852,151.678 203.416,148.384 C 204.370,142.823 204.154,139.721 202.450,134.510 C 201.598,131.903 200.378,128.739 199.739,127.479 C 196.004,120.107 186.052,112.198 176.884,109.314 C 169.998,107.148 159.645,111.727 150.500,120.983 C 144.373,127.184 141.686,133.243 142.180,139.742 C 142.306,141.397 142.575,144.823 142.778,147.356 C 143.137,151.835 143.110,152.011 141.824,153.698 C 140.312,155.680 140.171,157.246 141.269,159.873 C 142.872,163.709 144.135,164.382 150.955,165.037 C 153.567,165.288 156.171,165.824 156.809,166.243 C 157.464,166.672 158.207,167.912 158.536,169.123 C 158.854,170.293 159.457,172.375 159.876,173.750 C 160.296,175.125 160.707,176.514 160.789,176.836 C 161.006,177.685 183.613,177.643 184.778,176.791 Z M 175.233,165.983 C 173.082,163.780 171.783,163.657 169.750,165.463 C 166.013,168.782 166.041,165.355 169.818,156.939 C 170.667,155.047 171.435,154.000 171.975,154.000 C 174.205,154.000 178.034,160.915 178.171,165.191 C 178.215,166.544 178.017,167.732 177.732,167.831 C 177.447,167.931 176.323,167.099 175.233,165.983 Z M 153.521,156.533 C 151.706,156.225 150.895,155.704 149.155,153.727 C 147.980,152.391 146.659,150.541 146.220,149.616 C 145.474,148.043 145.489,147.714 146.465,144.501 C 147.586,140.811 149.539,138.000 150.981,138.000 C 152.069,138.000 160.578,141.728 163.000,143.265 C 165.736,145.002 167.500,146.856 167.500,147.996 C 167.500,149.409 165.861,152.510 164.424,153.817 C 161.721,156.272 157.777,157.255 153.521,156.533 Z M 183.250,155.169 C 180.211,153.567 177.500,149.982 177.500,147.565 C 177.500,145.579 189.337,138.785 192.835,138.763 C 196.451,138.740 199.000,142.111 199.000,146.915 C 199.000,148.882 198.705,149.733 197.500,151.250 C 196.675,152.288 196.000,153.332 196.000,153.569 C 196.000,153.806 195.550,154.450 195.000,155.000 C 194.141,155.859 193.349,155.997 189.375,155.980 C 186.156,155.966 184.294,155.720 183.250,155.169 Z" fill="#000000" fill-rule="evenodd" /></svg>