<svg xmlns="http://www.w3.org/2000/svg" viewBox="0 0 110 120" width="110" height="120"><path d="M 49.228,106.703 C 48.176,105.989 46.745,105.188 46.048,104.923 C 44.344,104.275 37.592,103.000 35.865,103.000 C 33.774,103.000 27.000,98.301 27.000,96.850 C 27.000,96.550 28.069,95.362 29.375,94.210 C 31.738,92.126 31.745,92.110 30.798,91.058 C 30.274,90.476 29.534,90.000 29.155,90.000 C 28.775,90.000 27.870,89.606 27.143,89.125 C 26.416,88.644 23.780,87.671 21.285,86.963 C 16.302,85.549 15.770,85.010 14.536,80.125 C 14.241,78.956 13.750,77.132 13.444,76.072 C 12.685,73.441 13.229,71.824 14.745,72.204 C 16.177,72.563 16.710,71.465 15.732,70.174 C 15.347,69.666 15.025,69.446 15.016,69.686 C 15.007,69.926 14.659,69.839 14.242,69.493 C 13.399,68.794 13.536,66.495 14.791,60.250 C 16.399,52.256 17.317,49.253 18.207,49.081 C 19.286,48.871 21.655,49.804 24.125,51.412 L 26.000,52.633 L 26.000,58.034 C 26.000,68.914 28.472,75.412 35.309,82.505 C 39.262,86.605 41.208,87.933 46.500,90.143 C 51.691,92.312 57.332,92.586 63.381,90.965 C 68.102,89.700 70.854,88.241 74.681,84.975 C 81.108,79.489 83.756,74.918 85.962,65.500 C 87.401,59.357 88.000,55.650 88.000,52.892 C 88.000,51.021 88.199,50.407 88.875,50.198 C 89.356,50.049 90.141,49.718 90.618,49.464 C 91.096,49.209 91.698,49.000 91.956,49.000 C 92.762,49.000 94.909,54.076 95.763,58.000 C 97.746,67.115 97.822,67.994 96.625,68.016 C 95.823,68.030 95.829,68.092 96.696,68.748 C 97.538,69.386 97.603,69.883 97.292,73.317 C 96.894,77.707 95.837,82.161 94.827,83.701 C 94.449,84.278 93.265,85.046 92.195,85.408 C 91.125,85.770 89.800,86.254 89.250,86.483 C 88.700,86.712 87.528,87.170 86.646,87.502 C 84.874,88.167 80.749,93.189 81.275,94.041 C 81.452,94.327 82.138,94.767 82.799,95.018 C 84.578,95.695 84.273,96.564 81.624,98.358 C 78.456,100.503 74.004,102.466 66.750,104.912 C 59.204,107.457 57.921,107.621 57.260,106.125 C 56.914,105.343 56.334,105.000 55.355,105.000 C 54.241,105.000 53.839,105.312 53.425,106.500 C 52.777,108.359 51.743,108.409 49.228,106.703 Z M 49.777,103.544 C 49.290,102.756 48.000,102.876 48.000,103.708 C 48.000,104.549 49.069,105.040 49.681,104.481 C 49.919,104.264 49.962,103.843 49.777,103.544 Z M 38.266,99.550 C 37.838,98.202 37.160,98.208 36.730,99.562 C 36.519,100.228 36.645,100.780 37.067,101.042 C 38.008,101.623 38.665,100.806 38.266,99.550 Z M 48.428,96.055 C 48.897,95.758 49.001,95.142 48.764,94.062 C 48.365,92.246 48.174,92.196 46.513,93.473 C 45.296,94.408 45.291,94.441 46.215,95.462 C 47.263,96.619 47.456,96.671 48.428,96.055 Z M 83.500,87.250 C 83.500,86.838 83.275,86.500 83.000,86.500 C 82.725,86.500 82.500,86.838 82.500,87.250 C 82.500,87.662 82.725,88.000 83.000,88.000 C 83.275,88.000 83.500,87.662 83.500,87.250 Z M 29.625,84.304 C 30.687,83.498 30.735,82.817 29.785,82.029 C 29.214,81.555 28.962,81.637 28.535,82.435 C 27.917,83.590 27.828,85.007 28.375,84.984 C 28.581,84.975 29.144,84.669 29.625,84.304 Z M 95.000,59.791 C 95.000,58.534 94.412,57.500 93.697,57.500 C 92.869,57.500 92.807,58.205 93.518,59.533 C 94.122,60.662 95.000,60.815 95.000,59.791 Z M 53.500,88.000 C 52.812,87.462 52.061,87.017 51.829,87.011 C 51.598,87.005 49.573,85.661 47.329,84.024 C 45.086,82.388 42.294,80.356 41.125,79.508 L 39.000,77.968 L 39.000,74.234 C 39.000,72.180 39.100,70.500 39.223,70.500 C 39.346,70.500 41.539,71.984 44.098,73.798 C 49.386,77.546 51.448,78.718 51.921,78.245 C 52.102,78.064 52.234,67.833 52.214,55.509 L 52.179,33.102 L 48.089,28.628 C 45.840,26.167 44.000,23.874 44.000,23.533 C 44.000,22.536 47.103,18.500 47.870,18.500 C 48.256,18.500 48.909,18.838 49.321,19.250 C 49.734,19.663 50.299,20.000 50.577,20.000 C 51.420,20.000 50.744,18.787 49.573,18.198 C 48.521,17.668 48.623,17.505 52.010,14.310 C 55.266,11.238 55.624,11.030 56.543,11.674 C 58.535,13.069 68.000,22.542 67.997,23.138 C 67.996,23.475 66.288,25.660 64.201,27.994 C 62.115,30.327 60.211,32.605 59.971,33.055 C 59.475,33.982 59.167,77.834 59.653,78.320 C 60.195,78.861 62.835,77.494 67.613,74.198 C 70.171,72.434 72.411,71.211 72.649,71.449 C 72.884,71.684 72.891,73.408 72.664,75.280 L 72.250,78.683 L 64.750,83.822 C 60.214,86.929 56.756,88.964 56.000,88.969 C 55.312,88.974 54.188,88.538 53.500,88.000 Z M 57.586,25.173 C 58.860,24.019 58.730,23.232 57.071,22.051 L 55.643,21.034 L 54.498,22.252 C 53.493,23.322 53.439,23.579 54.052,24.360 C 55.516,26.226 56.238,26.392 57.586,25.173 Z M 46.366,70.272 C 37.094,64.980 32.477,60.588 28.560,53.329 C 22.849,42.748 23.712,32.314 31.172,21.753 C 33.657,18.235 35.000,17.619 35.000,20.000 C 35.000,22.271 36.952,29.910 38.130,32.250 C 39.387,34.747 41.886,38.508 42.948,39.500 C 43.389,39.913 44.391,40.960 45.174,41.829 L 46.598,43.407 L 45.796,46.167 C 44.669,50.041 44.267,55.821 44.949,58.331 C 45.261,59.476 46.298,61.501 47.256,62.831 C 48.214,64.162 49.348,65.736 49.776,66.330 C 50.301,67.056 50.506,68.239 50.403,69.949 L 50.250,72.489 L 46.366,70.272 Z M 32.000,36.774 C 32.000,35.959 30.728,34.000 30.199,34.000 C 29.209,34.000 28.898,34.876 29.494,35.990 C 29.949,36.839 32.000,37.480 32.000,36.774 Z M 61.718,70.253 C 61.256,67.790 61.809,66.083 63.774,63.907 C 64.711,62.871 65.850,61.174 66.307,60.136 C 67.361,57.737 67.467,50.967 66.521,46.404 L 65.828,43.057 L 67.181,41.404 C 73.385,33.824 75.019,30.782 76.502,24.047 C 77.071,21.461 77.661,19.144 77.813,18.898 C 78.833,17.248 84.343,26.574 86.259,33.194 C 87.547,37.645 87.123,44.815 85.344,48.640 C 84.605,50.229 84.000,51.692 84.000,51.890 C 83.999,52.546 80.189,58.458 78.959,59.712 C 78.294,60.390 77.300,61.430 76.750,62.025 C 74.655,64.289 63.470,72.000 62.281,72.000 C 62.151,72.000 61.898,71.214 61.718,70.253 Z M 77.516,48.224 C 78.590,46.487 78.598,45.572 77.533,46.229 C 77.240,46.411 77.000,46.883 77.000,47.280 C 77.000,47.676 76.550,48.000 76.000,48.000 C 75.036,48.000 74.645,48.978 75.333,49.667 C 75.964,50.298 76.421,49.995 77.516,48.224 Z M 82.000,49.518 C 82.000,49.252 81.550,48.794 81.000,48.500 C 80.226,48.086 80.000,48.120 80.000,48.649 C 80.000,49.025 80.150,49.483 80.333,49.667 C 80.837,50.170 82.000,50.066 82.000,49.518 Z M 81.875,35.708 C 81.398,35.232 80.443,36.004 80.798,36.578 C 81.009,36.920 81.289,36.911 81.648,36.552 C 81.942,36.258 82.045,35.878 81.875,35.708 Z" fill="#000000" fill-rule="evenodd" /></svg>