<svg xmlns="http://www.w3.org/2000/svg" viewBox="0 0 90 117" width="90" height="117"><path d="M 43.158,104.997 C 41.179,104.199 41.000,103.042 41.000,91.033 C 41.000,81.776 40.869,79.500 40.336,79.500 C 39.137,79.500 35.033,82.551 32.702,85.176 C 31.445,86.592 28.642,90.430 26.473,93.706 C 23.765,97.796 22.437,99.417 22.231,98.882 C 22.067,98.453 21.891,95.323 21.841,91.926 L 21.750,85.750 L 23.971,82.500 C 27.291,77.641 30.997,74.333 35.708,72.020 C 37.973,70.909 40.089,70.000 40.413,70.000 C 40.807,70.000 41.000,68.847 41.000,66.500 L 41.000,63.000 L 35.750,63.000 L 30.500,63.000 L 30.489,65.125 C 30.478,67.243 29.072,71.088 28.085,71.698 C 27.594,72.001 26.945,71.245 23.279,66.107 C 22.054,64.390 20.732,63.460 16.625,61.427 C 13.806,60.031 11.500,58.678 11.500,58.419 C 11.500,58.161 12.344,57.607 13.375,57.189 C 21.239,54.001 21.683,53.642 25.664,47.265 C 26.442,46.019 27.235,45.000 27.427,45.000 C 27.619,45.000 28.389,45.945 29.138,47.100 C 30.143,48.650 30.500,49.834 30.500,51.618 L 30.500,54.035 L 35.625,53.892 L 40.750,53.750 L 40.750,50.575 L 40.750,47.399 L 38.579,46.665 C 33.466,44.937 28.538,41.233 24.824,36.326 C 20.958,31.218 21.014,31.398 21.520,25.728 C 21.764,22.990 21.972,20.131 21.982,19.375 C 22.007,17.422 22.778,17.669 24.322,20.125 C 30.818,30.459 33.628,34.008 37.332,36.556 C 40.982,39.068 40.955,39.147 40.957,25.649 L 40.959,13.750 L 42.258,12.625 C 44.088,11.039 46.241,11.164 48.038,12.962 L 49.500,14.423 L 49.500,26.212 C 49.500,34.097 49.673,38.000 50.024,38.000 C 51.097,38.000 55.826,34.570 58.018,32.201 C 60.269,29.770 65.454,22.245 66.576,19.782 C 66.898,19.077 67.321,18.500 67.518,18.500 C 68.028,18.500 68.480,21.095 68.833,26.050 C 69.131,30.241 69.097,30.429 67.445,33.547 C 64.908,38.334 59.959,43.122 55.344,45.254 C 53.266,46.215 51.241,47.000 50.844,47.000 C 49.522,47.000 48.941,48.358 49.097,51.084 L 49.250,53.750 L 54.308,53.892 L 59.367,54.034 L 59.698,51.537 C 60.070,48.729 61.854,45.000 62.824,45.000 C 63.176,45.000 64.765,46.965 66.356,49.367 C 69.222,53.691 69.295,53.755 73.875,55.971 C 76.419,57.201 78.500,58.345 78.500,58.512 C 78.500,58.679 76.453,59.797 73.951,60.996 C 69.316,63.217 68.751,63.728 65.127,68.962 C 64.095,70.454 63.013,71.752 62.722,71.847 C 61.874,72.123 60.136,68.476 59.756,65.625 L 59.406,63.000 L 54.453,63.000 L 49.500,63.000 L 49.500,66.526 L 49.500,70.051 L 51.375,70.807 C 56.898,73.034 58.942,74.360 62.781,78.209 C 67.744,83.183 69.012,85.675 68.970,90.370 C 68.937,94.177 68.352,98.323 67.770,98.880 C 67.557,99.083 67.128,98.835 66.816,98.328 C 64.125,93.946 59.602,87.457 57.815,85.414 C 55.503,82.771 51.270,79.500 50.162,79.500 C 49.632,79.500 49.500,81.797 49.500,91.038 L 49.500,102.577 L 48.038,104.038 C 46.554,105.523 45.149,105.799 43.158,104.997 Z" fill="#000000" fill-rule="evenodd" /></svg>