<svg xmlns="http://www.w3.org/2000/svg" viewBox="0 0 128 169" width="128" height="169"><path d="M 59.614,152.715 L 55.977,149.949 L 56.114,141.100 L 56.250,132.250 L 58.000,131.406 C 60.451,130.223 62.583,127.954 62.300,126.827 C 61.942,125.399 62.463,124.564 64.240,123.721 C 65.929,122.920 66.891,121.356 68.065,117.500 C 68.580,115.807 69.028,115.210 69.875,115.090 L 71.000,114.930 L 71.000,132.603 L 71.000,150.275 L 67.464,152.887 C 65.519,154.324 63.775,155.496 63.589,155.491 C 63.403,155.486 61.614,154.237 59.614,152.715 Z M 43.477,142.179 C 38.952,139.252 33.225,135.580 30.750,134.019 C 20.885,127.797 13.000,122.432 13.000,121.941 C 13.000,121.217 17.893,112.417 22.352,105.122 C 25.213,100.441 26.942,98.230 29.674,95.753 C 33.625,92.171 34.735,91.790 35.147,93.875 C 35.665,96.501 34.730,99.472 32.745,101.505 C 31.196,103.091 30.930,103.655 31.209,104.764 C 31.688,106.671 32.987,108.500 33.863,108.500 C 34.450,108.500 34.539,108.116 34.276,106.714 C 34.092,105.732 33.827,104.632 33.688,104.268 C 33.548,103.905 34.452,102.462 35.695,101.062 C 36.939,99.661 38.203,98.054 38.505,97.490 C 38.807,96.926 39.693,96.336 40.474,96.180 C 41.255,96.024 42.920,95.048 44.175,94.011 L 46.456,92.126 L 48.938,92.938 C 50.303,93.385 51.578,93.909 51.772,94.103 C 51.965,94.298 48.890,97.673 44.937,101.605 C 39.486,107.026 37.293,109.591 35.857,112.224 C 34.816,114.133 34.029,116.010 34.107,116.394 C 34.186,116.778 38.300,119.828 43.250,123.171 L 52.250,129.250 L 52.386,138.375 C 52.461,143.394 52.338,147.500 52.113,147.500 C 51.888,147.500 48.002,145.105 43.477,142.179 Z M 74.500,138.750 C 74.500,131.070 74.607,129.893 75.379,129.121 C 75.862,128.638 80.137,125.682 84.879,122.551 C 89.620,119.421 93.500,116.684 93.500,116.471 C 93.500,116.100 91.504,111.766 90.444,109.836 C 90.096,109.202 90.121,108.707 90.524,108.221 C 91.306,107.279 93.933,106.000 95.088,106.000 C 96.615,106.000 99.895,103.522 100.441,101.956 C 100.720,101.155 101.178,100.500 101.459,100.500 C 102.584,100.500 114.854,121.023 114.282,121.949 C 114.065,122.300 110.220,124.858 93.500,135.773 C 77.866,145.979 75.466,147.500 74.995,147.500 C 74.687,147.500 74.500,144.194 74.500,138.750 Z M 93.151,131.943 C 93.970,130.642 93.205,129.500 91.516,129.500 C 90.267,129.500 90.000,129.703 90.000,130.650 C 90.000,132.845 92.053,133.687 93.151,131.943 Z M 86.021,129.725 C 86.553,129.084 86.515,128.803 85.801,128.100 C 84.989,127.300 84.899,127.304 84.254,128.174 C 82.953,129.928 84.630,131.400 86.021,129.725 Z M 56.243,128.375 C 56.120,128.031 55.958,119.537 55.884,109.500 C 55.752,91.581 55.732,91.252 54.750,91.374 C 53.879,91.482 50.369,91.009 45.901,90.182 C 44.824,89.982 44.085,90.362 42.238,92.065 C 39.569,94.524 38.743,94.383 37.670,91.284 L 37.009,89.376 L 40.866,85.413 C 42.987,83.233 45.910,80.661 47.361,79.698 C 48.813,78.735 50.000,77.669 50.000,77.329 C 50.000,76.990 50.622,75.967 51.383,75.056 C 52.495,73.724 53.130,73.400 54.633,73.400 C 56.073,73.400 56.500,73.201 56.500,72.530 C 56.500,72.052 55.938,71.404 55.250,71.091 C 53.726,70.397 53.524,67.853 54.875,66.363 C 55.591,65.573 55.780,64.237 55.914,58.990 L 56.078,52.582 L 58.023,51.234 C 60.320,49.642 62.315,47.160 62.778,45.318 C 63.280,43.315 62.089,43.665 59.585,46.258 C 56.147,49.818 56.010,49.625 55.933,41.125 C 55.896,37.069 55.825,33.188 55.776,32.500 C 55.728,31.812 55.645,29.871 55.594,28.186 C 55.505,25.288 55.418,25.087 54.000,24.500 C 53.175,24.158 52.500,23.617 52.500,23.297 C 52.500,22.640 56.351,18.835 60.590,15.304 C 63.357,12.999 63.467,12.957 64.840,13.682 C 66.508,14.562 75.000,22.379 75.000,23.034 C 75.000,23.283 74.213,23.816 73.250,24.218 C 71.298,25.033 71.314,24.935 71.435,35.422 C 71.480,39.332 71.397,39.679 70.117,40.955 C 69.365,41.704 68.321,42.555 67.798,42.847 C 66.554,43.538 67.090,45.280 68.379,44.738 C 68.858,44.536 69.758,44.261 70.378,44.127 L 71.507,43.882 L 71.309,53.668 L 71.111,63.454 L 69.556,65.341 C 68.091,67.118 67.406,70.000 68.448,70.000 C 68.695,70.000 69.622,69.156 70.509,68.125 C 74.533,63.448 78.254,59.952 84.750,54.747 C 88.600,51.662 92.197,48.637 92.743,48.025 C 93.492,47.185 93.780,46.013 93.920,43.247 C 94.207,37.575 93.409,35.823 87.392,28.909 C 85.793,27.072 84.686,25.444 84.932,25.292 C 85.595,24.882 95.276,27.878 98.884,29.609 C 102.680,31.431 106.689,34.931 108.062,37.621 C 108.749,38.969 109.206,41.233 109.484,44.678 C 109.834,49.005 109.767,50.046 109.025,51.762 C 108.069,53.975 101.946,60.500 100.826,60.500 C 99.652,60.500 98.855,59.098 99.161,57.571 C 99.501,55.870 98.370,54.000 97.001,54.000 C 95.613,54.000 95.353,54.794 96.056,56.885 C 96.401,57.911 96.730,59.087 96.788,59.500 C 96.846,59.913 97.049,60.936 97.239,61.774 C 97.668,63.667 96.514,64.884 86.820,72.750 C 83.093,75.775 80.033,78.481 80.021,78.763 C 79.997,79.350 84.997,84.276 92.215,90.778 C 94.946,93.238 97.927,95.952 98.840,96.809 C 100.517,98.384 101.035,100.000 99.864,100.000 C 99.514,100.000 98.445,100.640 97.489,101.423 C 94.701,103.705 93.709,104.104 92.988,103.235 C 92.396,102.523 92.447,101.554 93.280,97.625 C 93.556,96.324 93.465,96.000 92.823,96.000 C 91.939,96.000 90.000,99.392 90.000,100.939 C 90.000,102.287 88.145,106.500 87.552,106.500 C 87.087,106.500 80.937,101.255 74.847,95.665 C 73.250,94.199 71.731,93.000 71.472,93.000 C 71.206,93.000 71.000,95.293 71.000,98.244 L 71.000,103.487 L 69.125,104.684 C 68.094,105.342 66.688,106.488 66.000,107.232 C 64.898,108.423 64.769,108.948 64.913,111.666 C 65.353,119.969 65.477,119.352 62.911,121.657 C 61.498,122.927 60.354,124.487 60.002,125.623 C 59.233,128.115 56.793,129.900 56.243,128.375 Z M 61.910,31.875 C 61.822,31.256 61.413,30.750 61.000,30.750 C 60.587,30.750 60.178,31.256 60.090,31.875 C 59.967,32.741 60.177,33.000 61.000,33.000 C 61.823,33.000 62.033,32.741 61.910,31.875 Z M 68.100,111.900 C 67.770,111.570 67.500,111.007 67.500,110.650 C 67.500,109.762 69.329,108.000 70.250,108.000 C 71.328,108.000 71.291,111.781 70.209,112.197 C 69.093,112.625 68.781,112.581 68.100,111.900 Z M 38.000,70.717 C 33.737,67.264 29.731,63.862 29.096,63.157 L 27.942,61.876 L 29.087,60.657 C 29.717,59.986 30.993,58.968 31.921,58.394 C 33.564,57.379 33.600,57.285 33.281,54.880 C 32.890,51.933 33.469,50.999 35.686,51.002 C 37.683,51.004 39.501,52.130 45.648,57.170 C 48.385,59.414 51.159,61.663 51.812,62.167 C 53.308,63.321 53.303,64.056 51.786,66.386 C 51.118,67.411 50.190,69.600 49.723,71.250 C 48.586,75.273 47.650,77.001 46.612,76.997 C 46.138,76.996 42.263,74.169 38.000,70.717 Z M 22.257,57.126 C 20.700,55.544 18.842,53.265 18.129,52.062 C 16.846,49.900 16.837,49.811 17.359,44.777 C 17.699,41.502 18.256,38.957 18.919,37.659 C 20.241,35.068 24.204,31.507 27.632,29.829 C 29.935,28.703 41.033,25.006 42.125,25.002 C 43.093,24.998 42.235,26.379 39.225,29.669 C 37.423,31.639 35.259,34.648 34.415,36.356 C 32.833,39.560 32.796,40.040 33.606,46.986 C 33.722,47.983 33.389,48.394 31.875,49.115 C 29.834,50.087 29.751,50.280 30.513,52.283 C 31.250,54.224 30.794,55.127 27.774,57.707 L 25.088,60.002 L 22.257,57.126 Z M 30.500,46.346 C 30.500,45.149 29.183,43.823 28.322,44.153 C 27.503,44.467 27.199,46.032 27.833,46.667 C 28.432,47.266 30.500,47.017 30.500,46.346 Z" fill="#000000" fill-rule="evenodd" /></svg>