<svg xmlns="http://www.w3.org/2000/svg" viewBox="0 0 104 128" width="104" height="128"><path d="M 47.056,109.964 L 42.016,104.427 L 41.883,90.613 L 41.750,76.799 L 35.739,73.752 C 25.608,68.616 24.118,67.340 21.039,61.151 C 18.461,55.969 18.405,55.059 20.764,56.677 C 22.429,57.819 28.688,61.245 37.230,65.689 C 39.144,66.685 41.113,67.500 41.605,67.500 C 43.287,67.500 42.502,66.158 40.125,64.970 C 38.819,64.318 36.288,62.904 34.500,61.830 C 31.043,59.751 29.144,58.643 26.125,56.945 C 22.148,54.708 19.245,51.711 17.619,48.166 C 15.746,44.078 14.956,39.500 16.124,39.500 C 16.539,39.500 17.177,39.861 17.544,40.303 C 17.910,40.744 19.559,42.022 21.209,43.142 C 22.858,44.262 25.925,46.470 28.025,48.049 C 32.438,51.368 39.998,56.361 40.960,56.592 C 41.778,56.789 42.125,55.003 41.431,54.167 C 41.149,53.827 39.756,52.892 38.334,52.089 C 35.009,50.209 25.909,43.369 23.641,41.045 C 18.255,35.526 13.866,25.421 12.735,15.935 C 12.540,14.295 12.599,12.998 12.878,12.825 C 13.141,12.663 15.245,13.821 17.553,15.399 C 27.757,22.376 48.602,37.626 51.344,40.120 L 52.437,41.115 L 56.094,38.141 C 65.913,30.153 89.765,13.032 91.101,13.013 C 91.831,13.002 91.914,13.375 91.678,15.625 C 91.132,20.843 89.414,26.842 87.047,31.796 C 84.375,37.391 82.477,39.748 77.264,43.949 C 73.409,47.056 73.006,47.345 67.398,51.033 C 63.702,53.464 62.390,55.090 63.350,56.050 C 63.779,56.479 72.218,51.088 77.784,46.830 C 83.270,42.632 87.702,39.500 88.156,39.500 C 89.429,39.500 87.183,47.797 85.030,51.048 C 83.021,54.082 75.746,58.894 65.250,64.133 C 64.150,64.683 63.085,65.383 62.883,65.691 C 62.284,66.601 62.448,67.500 63.212,67.500 C 64.029,67.500 69.863,64.519 77.598,60.149 C 80.539,58.488 83.288,56.996 83.707,56.836 C 85.201,56.262 85.047,57.581 83.174,61.387 C 80.316,67.194 77.875,69.345 69.665,73.290 C 65.862,75.118 62.684,76.673 62.604,76.744 C 62.524,76.816 62.461,82.703 62.465,89.827 C 62.470,99.769 62.314,103.082 61.793,104.086 C 60.877,105.851 53.029,115.500 52.509,115.500 C 52.282,115.500 49.828,113.009 47.056,109.964 Z M 53.213,103.561 C 53.362,103.319 53.507,92.575 53.536,79.686 C 53.564,66.796 53.707,55.627 53.854,54.866 C 54.050,53.846 55.497,52.400 59.357,49.366 C 74.480,37.479 80.677,31.978 79.656,31.346 C 79.412,31.196 78.097,31.922 76.732,32.959 C 69.002,38.833 64.085,42.503 61.270,44.500 C 59.526,45.737 56.874,47.706 55.378,48.875 C 53.882,50.044 52.511,51.000 52.331,51.000 C 52.152,51.000 50.260,49.689 48.127,48.088 C 45.995,46.486 42.562,43.938 40.500,42.426 C 38.438,40.915 34.087,37.707 30.832,35.299 C 25.126,31.077 23.620,30.324 25.095,32.430 C 26.061,33.810 32.086,39.157 36.722,42.750 C 38.851,44.400 42.786,47.471 45.465,49.575 L 50.336,53.400 L 50.667,68.825 C 50.849,77.309 50.999,88.544 50.999,93.792 C 51.000,99.040 51.150,103.483 51.333,103.667 C 51.807,104.141 52.892,104.079 53.213,103.561 Z M 53.833,35.667 C 53.650,35.483 53.500,33.486 53.500,31.229 C 53.500,25.745 53.123,24.000 51.938,24.000 C 51.178,24.000 50.988,24.403 50.936,26.125 C 50.901,27.294 50.833,28.925 50.786,29.750 C 50.738,30.575 50.655,32.206 50.600,33.375 C 50.545,34.544 50.297,35.500 50.050,35.500 C 49.336,35.500 41.579,29.083 41.012,28.023 C 39.996,26.125 40.503,24.945 43.876,21.349 C 45.733,19.370 48.180,16.681 49.314,15.375 C 50.448,14.069 51.612,13.000 51.900,13.000 C 52.461,13.000 60.720,21.749 62.727,24.468 C 64.581,26.982 63.628,28.730 57.902,33.317 C 54.327,36.182 54.340,36.174 53.833,35.667 Z" fill="#000000" fill-rule="evenodd" /></svg>