<svg xmlns="http://www.w3.org/2000/svg" viewBox="0 0 107 117" width="107" height="117"><path d="M 47.309,102.503 C 45.021,100.772 43.544,100.269 38.500,99.504 C 32.791,98.638 31.459,98.176 28.795,96.133 C 24.909,93.152 24.859,92.869 27.757,90.314 C 30.228,88.135 30.242,88.107 29.309,87.071 C 28.792,86.496 27.896,85.876 27.319,85.692 C 26.742,85.509 25.702,84.949 25.010,84.448 C 24.317,83.946 22.344,83.316 20.627,83.046 C 15.229,82.199 13.934,81.061 12.888,76.250 C 11.200,68.484 11.206,68.185 13.055,67.914 C 14.691,67.674 14.788,66.585 13.227,65.991 C 11.898,65.486 11.880,65.420 12.222,62.363 C 12.890,56.398 15.579,44.500 16.259,44.500 C 16.890,44.500 20.987,46.327 22.588,47.323 L 24.425,48.466 L 24.147,52.152 C 23.993,54.180 24.154,58.173 24.503,61.025 C 25.052,65.510 25.442,66.805 27.392,70.620 C 30.940,77.561 38.382,84.007 45.750,86.520 C 49.405,87.767 50.749,87.999 54.285,87.994 C 58.906,87.987 62.510,87.130 66.727,85.035 C 72.653,82.091 77.996,76.890 81.268,70.879 C 82.978,67.736 85.983,55.521 86.225,50.729 C 86.434,46.594 86.657,46.000 88.000,46.000 C 88.518,46.000 89.080,45.775 89.250,45.500 C 90.626,43.274 92.772,47.857 94.519,56.750 C 94.843,58.400 95.316,60.423 95.570,61.245 C 95.927,62.401 95.858,62.867 95.266,63.300 C 94.285,64.017 94.299,64.493 95.322,65.241 C 96.083,65.798 96.079,66.259 95.267,71.546 C 94.785,74.683 94.071,77.871 93.680,78.630 C 92.969,80.011 90.571,81.359 86.750,82.527 C 83.521,83.514 82.414,84.161 81.975,85.316 C 81.748,85.914 81.309,86.559 81.000,86.750 C 80.691,86.941 80.212,87.692 79.936,88.419 C 79.498,89.571 79.614,89.889 80.842,90.894 L 82.250,92.047 L 80.500,93.582 C 78.470,95.362 74.335,97.362 68.962,99.164 C 66.879,99.863 63.729,100.992 61.962,101.674 C 56.794,103.669 56.065,103.735 55.504,102.262 C 54.786,100.371 52.597,100.514 51.847,102.500 C 51.121,104.424 49.849,104.425 47.309,102.503 Z M 48.000,100.030 C 48.000,98.825 47.093,98.207 46.378,98.922 C 45.997,99.303 46.028,99.681 46.482,100.229 C 47.356,101.282 48.000,101.197 48.000,100.030 Z M 37.000,96.467 C 37.000,95.612 36.008,94.000 35.482,94.000 C 34.769,94.000 34.896,96.375 35.625,96.669 C 36.649,97.082 37.000,97.030 37.000,96.467 Z M 46.996,91.758 C 47.439,90.931 47.508,90.192 47.205,89.543 C 46.761,88.594 46.714,88.598 45.328,89.716 C 44.048,90.748 43.972,90.969 44.573,91.931 C 45.449,93.334 46.180,93.282 46.996,91.758 Z M 81.385,83.094 C 81.494,82.767 81.227,82.500 80.792,82.500 C 80.356,82.500 80.000,82.856 80.000,83.292 C 80.000,84.175 81.076,84.021 81.385,83.094 Z M 28.675,79.994 C 29.275,79.438 28.568,77.500 27.765,77.500 C 27.237,77.500 26.000,79.854 26.000,80.858 C 26.000,81.161 28.173,80.459 28.675,79.994 Z M 93.000,55.280 C 93.000,53.890 92.155,53.145 91.415,53.885 C 91.085,54.215 91.141,54.739 91.579,55.441 C 92.455,56.843 93.000,56.781 93.000,55.280 Z M 48.143,82.547 C 42.551,79.335 37.186,75.646 35.978,74.184 C 34.671,72.601 33.953,69.708 33.941,65.976 C 33.935,64.011 34.039,62.294 34.172,62.161 C 34.305,62.028 35.952,63.456 37.832,65.335 C 40.899,68.399 48.464,73.500 49.943,73.500 C 50.532,73.500 50.664,69.434 50.720,49.599 L 50.750,38.948 L 49.500,37.784 C 48.086,36.468 44.237,34.000 43.599,34.000 C 43.367,34.000 41.627,35.341 39.731,36.980 C 36.536,39.743 36.221,39.903 35.409,39.168 C 34.055,37.942 31.000,31.589 31.000,29.999 C 31.000,28.299 34.634,21.018 36.232,19.517 L 37.363,18.454 L 44.721,23.852 C 48.768,26.821 52.519,29.564 53.057,29.947 C 54.526,30.995 54.093,31.253 67.205,21.533 L 72.161,17.860 L 73.205,19.263 C 73.780,20.034 74.836,21.697 75.553,22.958 C 76.269,24.219 77.338,26.101 77.928,27.140 C 78.517,28.180 79.000,29.486 79.000,30.043 C 79.000,31.749 73.487,39.510 72.288,39.492 C 71.992,39.487 70.660,38.461 69.328,37.211 C 65.674,33.784 65.120,33.699 61.537,36.015 L 58.500,37.978 L 58.411,52.864 C 58.321,68.015 58.403,73.070 58.746,73.413 C 59.230,73.897 66.242,69.540 69.966,66.440 C 72.239,64.548 74.273,63.000 74.487,63.000 C 75.168,63.000 75.469,65.820 75.056,68.326 C 74.310,72.847 73.463,74.074 69.196,76.816 C 58.532,83.667 55.401,85.499 54.371,85.490 C 53.755,85.485 50.952,84.160 48.143,82.547 Z M 37.688,31.258 C 38.273,30.815 38.504,30.232 38.302,29.706 C 38.003,28.925 37.908,28.929 36.990,29.759 C 36.018,30.639 35.638,32.015 36.375,31.984 C 36.581,31.975 37.172,31.649 37.688,31.258 Z M 72.264,30.978 C 72.614,30.411 71.658,29.000 70.923,29.000 C 70.119,29.000 69.831,30.586 70.552,31.043 C 71.472,31.625 71.873,31.610 72.264,30.978 Z M 45.236,62.829 C 44.694,62.460 42.788,61.403 41.000,60.480 C 39.212,59.557 37.188,58.430 36.500,57.974 C 35.812,57.519 34.640,56.998 33.894,56.818 C 32.216,56.413 27.796,52.067 26.832,49.874 C 25.057,45.839 24.772,44.562 24.853,41.000 C 24.947,36.884 26.389,30.951 27.375,30.624 C 27.761,30.496 28.000,30.883 28.000,31.634 C 28.000,33.685 29.045,36.108 31.321,39.338 C 33.636,42.622 36.305,45.044 37.221,44.692 C 37.527,44.574 38.334,43.565 39.014,42.448 C 40.601,39.841 42.570,38.725 44.011,39.616 C 45.360,40.449 45.743,42.046 45.544,46.000 C 45.212,52.604 45.313,55.812 45.931,58.250 C 47.340,63.808 47.278,64.218 45.236,62.829 Z M 61.500,63.267 C 61.500,63.140 61.821,62.071 62.214,60.892 C 63.855,55.968 64.470,49.670 63.414,48.614 C 62.965,48.165 62.965,47.724 63.415,46.737 C 63.750,46.001 63.871,44.621 63.696,43.528 C 63.450,41.985 63.596,41.404 64.445,40.555 C 66.122,38.878 67.309,39.231 69.298,42.000 C 70.286,43.375 71.190,44.500 71.307,44.500 C 72.143,44.500 75.597,41.713 77.265,39.691 C 79.882,36.520 80.711,35.170 81.478,32.829 C 82.214,30.585 82.651,30.869 83.432,34.096 C 84.366,37.956 84.145,43.571 82.929,46.856 C 81.880,49.691 79.060,54.435 77.857,55.389 C 76.847,56.190 62.570,63.500 62.016,63.500 C 61.732,63.500 61.500,63.395 61.500,63.267 Z M 48.669,21.796 C 41.225,16.190 39.590,14.636 40.500,14.031 C 41.527,13.348 45.421,12.537 50.473,11.954 C 57.689,11.122 69.266,12.974 68.903,14.904 C 68.816,15.369 66.608,17.213 63.997,19.001 C 61.386,20.789 58.260,22.983 57.050,23.876 C 55.840,24.769 54.566,25.500 54.219,25.500 C 53.872,25.500 51.375,23.833 48.669,21.796 Z" fill="#000000" fill-rule="evenodd" /></svg>