<svg xmlns="http://www.w3.org/2000/svg" viewBox="0 0 77 118" width="77" height="118"><path d="M 41.012,83.375 L 41.023,60.750 L 42.752,58.830 C 43.703,57.774 44.696,56.987 44.957,57.080 C 45.219,57.174 46.805,58.571 48.481,60.185 C 50.485,62.113 51.443,63.399 51.277,63.935 C 50.729,65.703 50.015,80.288 50.000,90.000 C 49.992,95.638 49.819,100.484 49.617,100.771 C 49.159,101.421 41.973,106.000 41.412,106.000 C 41.185,106.000 41.005,95.819 41.012,83.375 Z M 31.375,103.181 L 27.500,100.910 L 27.469,97.330 C 27.451,95.361 27.250,86.662 27.022,78.000 L 26.606,62.250 L 28.495,60.250 C 29.533,59.150 30.642,57.744 30.959,57.125 C 31.276,56.506 31.730,56.000 31.968,56.000 C 32.451,56.000 35.810,59.250 36.382,60.271 C 36.584,60.632 36.689,70.957 36.615,83.214 C 36.510,100.456 36.341,105.495 35.865,105.476 C 35.527,105.462 33.506,104.430 31.375,103.181 Z M 20.740,58.124 C 16.992,55.133 11.500,49.220 11.498,48.174 C 11.497,47.650 14.319,44.466 18.011,40.824 C 23.918,34.997 24.652,34.430 25.878,34.738 C 27.490,35.142 32.656,38.771 34.714,40.945 L 36.179,42.491 L 33.464,44.993 C 31.972,46.368 30.557,47.495 30.322,47.497 C 30.087,47.499 29.062,46.841 28.044,46.035 C 26.075,44.476 25.922,44.499 24.025,46.643 L 22.801,48.027 L 25.985,50.910 L 29.169,53.794 L 26.200,56.952 L 23.231,60.111 L 20.740,58.124 Z M 51.479,57.182 C 50.115,55.906 49.000,54.457 49.000,53.960 C 49.000,53.464 50.237,51.989 51.750,50.683 C 53.263,49.378 54.500,48.125 54.500,47.900 C 54.500,47.172 51.856,44.500 51.135,44.500 C 50.750,44.500 49.867,45.175 49.173,46.000 C 48.479,46.825 47.642,47.500 47.313,47.500 C 46.985,47.500 45.534,46.303 44.089,44.840 L 41.462,42.181 L 44.176,39.614 C 46.984,36.959 51.256,34.000 52.283,34.000 C 53.080,34.000 61.708,42.166 64.085,45.170 C 65.138,46.501 66.000,48.066 66.000,48.648 C 66.000,50.016 56.340,59.500 54.947,59.500 C 54.402,59.500 52.842,58.457 51.479,57.182 Z M 37.750,55.418 C 37.475,55.126 36.269,54.058 35.071,53.044 L 32.891,51.202 L 35.571,48.607 C 37.044,47.180 38.475,46.011 38.750,46.009 C 39.444,46.005 44.500,50.723 44.500,51.375 C 44.500,52.104 39.775,56.006 38.931,55.975 C 38.556,55.961 38.025,55.711 37.750,55.418 Z M 34.836,36.076 C 33.013,34.467 30.517,32.618 29.288,31.965 C 26.752,30.620 26.704,30.494 26.236,23.954 L 25.893,19.158 L 29.464,16.560 C 36.651,11.333 38.472,10.881 42.750,13.262 C 45.951,15.043 50.838,18.857 51.231,19.881 C 51.398,20.315 51.384,22.847 51.201,25.506 L 50.868,30.342 L 47.809,32.016 C 46.127,32.937 43.492,34.885 41.955,36.345 C 40.417,37.805 38.932,39.000 38.654,39.000 C 38.376,39.000 36.658,37.684 34.836,36.076 Z M 40.392,27.720 C 41.004,27.290 41.853,26.267 42.278,25.445 C 43.034,23.984 43.013,23.913 41.326,22.226 C 39.249,20.149 38.252,20.071 36.402,21.844 C 34.614,23.557 34.628,24.996 36.451,26.947 C 38.088,28.700 38.795,28.838 40.392,27.720 Z" fill="#000000" fill-rule="evenodd" /></svg>