<svg xmlns="http://www.w3.org/2000/svg" viewBox="0 0 148 163" width="148" height="163"><path d="M 58.672,149.989 C 50.973,147.999 45.904,144.073 42.670,137.595 L 40.750,133.750 L 40.752,127.250 C 40.754,121.257 40.883,120.358 42.399,115.722 C 44.015,110.781 45.603,107.500 46.378,107.500 C 46.594,107.500 48.787,109.526 51.251,112.001 L 55.732,116.503 L 54.256,120.626 C 52.998,124.140 52.779,125.489 52.772,129.750 C 52.765,134.304 52.897,135.018 54.256,137.750 C 55.894,141.044 61.452,146.917 64.902,149.000 C 66.041,149.688 66.979,150.419 66.987,150.625 C 67.011,151.295 62.340,150.938 58.672,149.989 Z M 82.500,150.572 C 82.500,150.337 83.819,149.220 85.431,148.089 C 89.191,145.452 93.534,140.757 94.897,137.857 C 97.141,133.084 97.103,125.297 94.810,119.814 C 94.364,118.749 94.000,117.541 94.000,117.130 C 94.000,116.154 101.901,107.500 102.792,107.500 C 104.198,107.500 107.616,117.003 108.546,123.500 C 109.668,131.339 107.291,138.663 101.979,143.730 C 98.782,146.778 94.282,149.164 89.634,150.275 C 86.375,151.054 82.500,151.215 82.500,150.572 Z M 70.925,137.000 C 70.526,136.037 69.887,134.238 69.505,133.000 C 69.122,131.762 67.886,128.946 66.758,126.741 C 61.281,116.034 56.049,110.394 37.000,94.671 C 17.463,78.544 9.476,65.088 12.751,53.819 C 13.522,51.169 16.315,46.457 17.302,46.142 C 17.641,46.033 17.973,47.109 18.163,48.925 C 19.262,59.441 24.628,66.518 47.080,87.064 C 66.782,105.094 70.960,110.841 72.515,122.054 C 73.091,126.211 72.832,134.492 72.036,137.359 L 71.649,138.750 L 70.925,137.000 Z M 76.794,136.375 C 76.611,135.481 76.326,132.256 76.159,129.207 C 75.802,122.686 76.485,118.197 78.526,113.647 C 82.154,105.557 87.232,99.966 108.403,80.750 C 122.951,67.546 129.846,57.923 130.853,49.418 C 131.010,48.088 131.294,47.000 131.482,47.000 C 132.216,47.000 134.002,49.377 135.057,51.756 C 137.428,57.106 136.715,64.547 133.220,70.904 C 129.015,78.555 123.009,85.002 108.500,97.439 C 96.811,107.459 92.741,111.479 88.186,117.500 C 84.906,121.836 80.932,129.266 78.892,134.875 C 78.267,136.594 77.613,138.000 77.440,138.000 C 77.267,138.000 76.976,137.269 76.794,136.375 Z M 60.028,94.778 L 55.325,90.056 L 56.653,88.153 C 59.102,84.644 62.510,80.500 62.948,80.500 C 63.470,80.500 70.573,88.674 71.175,89.967 C 71.502,90.671 70.878,91.871 68.457,95.190 C 66.729,97.561 65.183,99.500 65.022,99.500 C 64.862,99.500 62.614,97.375 60.028,94.778 Z M 78.247,92.682 C 73.408,86.422 68.389,80.572 61.946,73.681 C 57.475,68.899 49.108,58.819 44.883,53.125 C 42.968,50.545 41.086,48.500 40.625,48.500 C 40.171,48.500 37.716,50.646 35.169,53.268 L 30.539,58.036 L 29.476,55.952 C 27.844,52.754 27.011,49.534 27.005,46.399 C 26.999,43.066 27.398,42.033 30.634,37.000 C 32.262,34.467 32.952,32.925 32.759,32.250 C 30.699,25.043 31.364,19.318 34.922,13.626 C 36.851,10.541 37.552,10.849 38.910,15.380 C 41.303,23.362 48.350,36.026 55.601,45.375 C 59.170,49.977 68.994,61.770 73.824,67.250 C 80.678,75.028 86.577,82.107 89.622,86.209 L 92.561,90.169 L 88.166,94.584 C 85.749,97.013 83.627,99.000 83.451,99.000 C 83.275,99.000 80.933,96.157 78.247,92.682 Z M 81.329,70.293 C 78.948,67.705 77.000,65.444 77.000,65.270 C 77.000,65.096 78.757,62.883 80.904,60.352 C 97.468,40.828 106.185,27.509 109.770,16.250 C 110.470,14.050 111.151,11.938 111.282,11.557 C 111.814,10.012 114.866,14.232 116.301,18.500 C 117.589,22.327 117.576,23.913 116.187,32.110 C 115.909,33.751 116.143,34.366 118.182,37.360 C 121.331,41.984 122.271,45.282 121.524,49.081 C 120.917,52.167 119.091,57.047 118.352,57.559 C 118.106,57.728 115.798,55.760 113.222,53.184 C 110.646,50.608 108.318,48.500 108.049,48.500 C 107.779,48.500 106.589,49.762 105.404,51.305 C 96.626,62.733 86.581,75.000 86.001,75.000 C 85.812,75.000 83.709,72.882 81.329,70.293 Z" fill="#000000" fill-rule="evenodd" /></svg>