<svg xmlns="http://www.w3.org/2000/svg" viewBox="0 0 113 113" width="113" height="113"><path d="M 50.500,101.231 C 39.858,99.547 31.631,95.215 24.178,87.369 C 13.083,75.689 9.218,58.635 14.122,43.000 C 16.964,33.938 23.569,25.129 31.729,19.515 C 44.872,10.472 63.663,9.482 77.994,17.078 C 91.182,24.067 99.691,36.674 101.545,51.968 C 103.142,65.143 97.399,80.594 87.567,89.580 C 80.299,96.223 72.973,99.746 63.250,101.275 C 57.872,102.120 56.083,102.114 50.500,101.231 Z M 64.750,92.435 C 69.937,91.374 77.000,87.960 77.000,86.515 C 77.000,85.655 69.550,78.000 68.714,78.000 C 68.406,78.000 65.975,80.349 63.312,83.221 C 60.649,86.092 58.017,88.586 57.462,88.762 C 56.104,89.193 54.140,87.607 49.500,82.333 C 47.438,79.989 45.413,78.084 45.000,78.100 C 44.587,78.116 42.472,80.005 40.299,82.297 C 35.708,87.141 35.695,87.029 41.167,89.662 C 48.488,93.184 56.490,94.125 64.750,92.435 Z M 34.615,76.635 C 37.027,74.235 39.000,72.037 39.000,71.752 C 39.000,71.466 36.509,68.762 33.465,65.741 C 27.801,60.122 26.500,58.385 26.500,56.443 C 26.500,55.696 28.534,53.280 32.750,49.019 C 36.188,45.545 39.000,42.484 39.000,42.216 C 39.000,41.948 36.995,39.733 34.544,37.294 C 31.528,34.292 29.838,32.955 29.314,33.156 C 27.283,33.936 22.773,42.151 21.440,47.500 C 20.540,51.109 20.542,61.906 21.444,65.500 C 21.823,67.013 22.762,69.652 23.531,71.366 C 25.153,74.981 29.024,80.984 29.740,80.994 C 30.010,80.997 32.203,79.036 34.615,76.635 Z M 86.127,78.212 C 93.529,68.499 95.232,53.204 90.155,42.018 C 88.384,38.115 84.886,33.014 83.975,33.006 C 83.549,33.003 81.212,35.153 78.783,37.785 L 74.366,42.569 L 80.933,49.201 C 84.993,53.301 87.500,56.218 87.500,56.841 C 87.500,58.300 85.265,61.102 79.804,66.490 C 77.162,69.097 75.000,71.421 75.000,71.654 C 75.000,72.375 83.219,80.994 83.750,80.829 C 84.025,80.744 85.094,79.567 86.127,78.212 Z M 67.151,67.690 C 72.568,62.158 76.994,57.433 76.986,57.190 C 76.979,56.948 72.422,52.058 66.861,46.324 L 56.750,35.898 L 50.726,42.074 C 39.808,53.268 37.000,56.314 37.000,56.961 C 37.000,57.879 56.022,78.076 56.720,77.898 C 57.040,77.817 61.734,73.223 67.151,67.690 Z M 50.000,31.204 C 54.882,25.800 56.277,24.808 57.776,25.671 C 58.329,25.990 60.888,28.444 63.464,31.125 C 66.040,33.806 68.318,36.000 68.527,36.000 C 69.418,36.000 77.627,27.551 77.375,26.894 C 77.227,26.510 75.789,25.496 74.178,24.641 C 67.704,21.202 59.494,19.620 52.770,20.518 C 46.938,21.296 40.376,23.699 37.258,26.197 L 35.766,27.393 L 39.977,31.696 C 42.293,34.063 44.539,35.979 44.969,35.954 C 45.398,35.929 47.663,33.791 50.000,31.204 Z M 54.376,69.876 C 49.020,64.642 43.000,57.806 43.000,56.957 C 43.000,55.954 55.872,42.479 56.819,42.492 C 57.466,42.501 71.000,56.338 71.000,56.991 C 71.000,57.589 60.404,68.960 58.294,70.626 L 56.552,72.001 L 54.376,69.876 Z M 58.598,59.156 C 60.331,57.495 60.337,57.156 58.656,55.402 C 57.041,53.716 56.188,53.649 54.657,55.087 C 53.181,56.474 53.203,57.070 54.794,58.962 C 56.378,60.843 56.814,60.866 58.598,59.156 Z" fill="#000000" fill-rule="evenodd" /></svg>