<svg xmlns="http://www.w3.org/2000/svg" viewBox="0 0 161 166" width="161" height="166"><path d="M 71.750,152.424 C 60.138,150.538 50.598,147.053 42.750,141.829 C 38.282,138.855 32.000,133.061 32.000,131.914 C 32.000,130.369 32.900,129.078 34.583,128.207 C 35.949,127.501 36.611,127.480 40.057,128.040 C 45.037,128.849 45.218,128.967 44.268,130.789 C 43.399,132.456 43.319,133.440 43.970,134.468 C 44.696,135.616 45.867,134.278 46.264,131.846 C 46.628,129.616 48.260,126.500 49.065,126.500 C 49.331,126.500 50.771,127.283 52.267,128.239 C 60.440,133.468 71.451,136.993 79.625,136.998 L 82.000,137.000 L 81.987,139.875 C 81.975,142.636 81.881,142.842 79.612,145.066 C 78.013,146.634 77.029,148.132 76.566,149.705 C 75.735,152.526 74.985,152.949 71.750,152.424 Z M 79.000,151.824 C 79.000,151.098 80.147,149.349 82.000,147.250 C 84.879,143.988 85.000,143.743 85.000,141.143 C 85.000,137.160 85.390,136.730 89.864,135.780 C 92.002,135.327 94.221,134.761 94.796,134.524 C 96.301,133.904 96.896,134.468 98.243,137.794 C 99.493,140.877 100.771,141.727 102.278,140.477 C 103.397,139.548 103.140,138.441 101.478,137.036 C 100.509,136.217 99.919,135.219 99.853,134.288 C 99.760,132.965 100.089,132.631 103.296,130.788 C 113.254,125.067 119.432,118.823 124.531,109.328 C 128.063,102.751 129.064,98.849 129.359,90.500 C 129.500,86.513 129.842,82.969 130.119,82.625 C 130.396,82.281 131.146,82.000 131.786,82.000 C 132.427,82.000 133.160,81.624 133.417,81.165 C 133.820,80.445 134.091,80.416 135.389,80.954 C 136.770,81.526 137.182,81.420 140.424,79.664 C 145.819,76.740 146.369,77.433 146.450,87.263 C 146.512,94.770 145.881,99.913 144.114,106.281 C 142.535,111.975 141.831,112.461 140.171,109.000 C 139.026,106.614 138.200,106.209 137.320,107.605 C 136.772,108.473 137.631,110.688 139.854,114.139 C 140.741,115.516 140.732,115.559 138.885,119.148 C 135.314,126.084 124.371,137.748 118.488,140.888 C 115.825,142.310 115.180,142.287 114.797,140.760 C 114.626,140.077 113.694,138.727 112.726,137.760 C 111.258,136.291 110.610,136.000 108.811,136.000 C 107.297,136.000 106.388,136.295 105.758,136.991 C 104.299,138.603 105.416,139.356 108.895,139.104 C 111.690,138.902 111.882,138.965 113.180,140.508 C 114.399,141.957 114.468,142.234 113.852,143.187 C 111.272,147.174 92.216,153.000 81.755,153.000 C 79.196,153.000 79.000,152.916 79.000,151.824 Z M 116.500,126.750 C 116.984,126.167 116.989,125.840 116.525,125.280 C 115.778,124.380 114.500,124.816 114.500,125.970 C 114.500,127.570 115.497,127.959 116.500,126.750 Z M 123.495,126.256 C 124.371,125.200 123.746,124.000 122.319,124.000 C 120.927,124.000 120.214,125.302 121.053,126.313 C 121.794,127.207 122.724,127.185 123.495,126.256 Z M 135.829,102.200 C 136.773,100.758 136.318,99.383 134.797,99.084 C 132.776,98.686 131.691,101.525 133.375,102.804 C 134.603,103.736 134.864,103.672 135.829,102.200 Z M 26.858,126.875 C 21.146,119.771 17.144,111.446 14.981,102.169 C 13.744,96.864 13.745,95.671 14.990,95.005 C 16.303,94.303 18.276,94.825 20.900,96.570 C 22.083,97.357 23.273,98.000 23.545,98.000 C 23.818,98.000 24.711,98.496 25.530,99.101 C 26.593,99.887 27.752,100.209 29.578,100.226 L 32.137,100.250 L 33.974,104.750 C 34.985,107.225 36.231,109.925 36.743,110.750 C 39.749,115.592 41.178,117.574 43.694,120.394 C 45.237,122.123 46.500,123.719 46.500,123.941 C 46.500,124.163 46.040,124.762 45.477,125.271 C 44.492,126.162 44.332,126.164 41.202,125.330 C 39.170,124.789 37.257,124.585 36.100,124.788 C 33.871,125.178 30.230,127.179 29.824,128.237 C 29.357,129.454 28.684,129.145 26.858,126.875 Z M 28.033,106.482 C 29.259,105.826 29.283,104.187 28.077,103.541 C 27.413,103.186 26.853,103.259 26.077,103.802 C 24.773,104.716 24.693,105.771 25.875,106.460 C 26.973,107.099 26.882,107.098 28.033,106.482 Z M 85.807,124.141 C 85.414,123.747 85.401,93.500 85.794,93.500 C 85.956,93.500 87.691,94.963 89.650,96.750 C 91.608,98.537 93.455,100.000 93.754,100.000 C 94.568,100.000 98.000,96.321 98.000,95.448 C 98.000,94.463 97.145,93.573 91.581,88.765 C 89.045,86.573 87.032,84.528 87.110,84.220 C 87.187,83.912 89.388,81.881 92.000,79.707 C 94.612,77.532 96.825,75.583 96.917,75.376 C 97.261,74.600 98.103,75.065 100.393,77.296 C 101.689,78.559 104.473,80.942 106.580,82.592 C 110.336,85.534 110.419,85.648 110.929,88.541 C 111.214,90.163 111.822,92.277 112.278,93.238 C 113.110,94.993 115.837,98.000 116.595,98.000 C 118.526,98.000 113.911,102.213 101.585,111.702 C 99.476,113.325 95.132,116.857 91.932,119.551 C 88.733,122.244 85.977,124.310 85.807,124.141 Z M 102.214,104.714 C 103.201,103.728 103.201,103.272 102.215,102.287 C 100.755,100.827 98.187,103.167 99.505,104.756 C 100.301,105.715 101.228,105.700 102.214,104.714 Z M 110.199,96.844 C 110.647,96.106 110.527,95.755 109.554,94.956 C 108.430,94.034 108.301,94.025 107.429,94.815 C 106.346,95.795 106.255,96.555 107.119,97.419 C 107.951,98.251 109.521,97.958 110.199,96.844 Z M 103.250,88.000 C 103.711,86.549 103.076,85.000 102.021,85.000 C 101.023,85.000 100.302,86.902 100.804,88.210 C 101.234,89.331 102.872,89.190 103.250,88.000 Z M 73.233,122.981 C 72.351,122.006 65.550,116.602 54.923,108.432 C 46.907,102.268 44.054,99.799 44.028,99.000 C 44.014,98.588 44.639,97.824 45.416,97.304 C 48.022,95.557 48.926,93.610 50.241,86.904 C 50.425,85.961 52.338,83.980 56.627,80.288 C 59.995,77.389 62.990,75.013 63.284,75.008 C 63.578,75.004 65.702,76.702 68.003,78.783 C 70.304,80.863 72.595,82.783 73.094,83.050 C 74.472,83.788 74.190,84.737 72.125,86.308 C 68.367,89.167 62.500,94.571 62.500,95.173 C 62.500,95.514 63.494,96.767 64.709,97.959 L 66.917,100.127 L 68.334,99.104 C 69.113,98.542 70.753,97.051 71.979,95.791 C 73.205,94.531 74.386,93.500 74.604,93.500 C 74.822,93.500 75.000,100.362 75.000,108.750 C 75.000,117.138 74.810,124.000 74.577,124.000 C 74.345,124.000 73.740,123.542 73.233,122.981 Z M 25.074,95.327 C 22.927,93.111 19.380,91.390 16.363,91.100 C 14.893,90.959 13.808,90.583 13.645,90.158 C 13.272,89.185 14.347,78.522 15.249,74.250 C 16.785,66.978 21.522,55.324 23.949,52.847 C 24.801,51.978 24.933,51.997 27.542,53.369 C 29.031,54.152 30.763,55.121 31.390,55.522 C 32.393,56.162 32.588,56.159 33.004,55.500 C 33.927,54.037 32.539,51.501 30.814,51.498 C 29.603,51.496 26.500,49.745 26.500,49.064 C 26.500,48.816 28.550,46.447 31.057,43.798 C 35.707,38.884 43.011,32.998 44.451,33.003 C 44.890,33.004 50.312,37.866 56.500,43.805 C 69.191,55.988 71.268,57.780 71.766,56.974 C 72.149,56.354 72.092,27.926 71.708,27.541 C 71.572,27.405 69.332,27.201 66.731,27.088 C 64.129,26.974 62.000,26.680 62.000,26.435 C 62.000,26.191 62.394,25.664 62.875,25.265 C 65.034,23.475 79.744,13.000 80.099,13.000 C 80.443,13.000 95.647,24.002 97.386,25.509 C 98.591,26.553 97.430,27.000 93.511,27.000 C 91.350,27.000 89.226,27.137 88.791,27.303 C 88.093,27.571 88.000,29.427 88.000,43.024 C 88.000,53.340 88.175,58.549 88.530,58.768 C 88.821,58.948 91.829,56.262 95.213,52.798 C 98.597,49.334 101.678,46.501 102.058,46.502 C 102.528,46.504 102.793,47.249 102.885,48.826 C 102.968,50.249 103.617,52.268 104.561,54.039 L 106.103,56.931 L 104.599,58.841 C 103.163,60.663 102.676,62.035 102.240,65.476 C 102.133,66.327 101.920,67.225 101.768,67.470 C 101.474,67.946 88.795,78.289 84.069,81.909 C 81.778,83.663 80.979,84.014 79.803,83.782 C 77.272,83.282 65.728,73.333 65.190,71.188 C 64.767,69.504 65.954,67.950 68.713,66.572 C 70.007,65.926 71.258,64.886 71.497,64.258 C 71.735,63.631 72.677,62.606 73.590,61.981 C 74.503,61.356 75.531,60.499 75.875,60.077 C 76.617,59.166 76.721,54.033 76.000,53.925 C 74.467,53.695 74.287,53.865 74.227,55.601 C 74.140,58.094 73.291,59.033 71.456,58.666 C 70.123,58.400 69.997,58.497 69.963,59.812 C 69.943,60.603 69.528,61.925 69.041,62.750 C 68.121,64.307 66.710,64.595 64.125,63.751 C 63.035,63.395 63.000,63.485 63.000,66.692 C 63.000,69.193 62.829,70.000 62.301,70.000 C 61.551,70.000 56.559,65.567 49.178,58.348 C 46.663,55.888 44.370,54.021 44.081,54.200 C 42.728,55.036 37.137,63.172 35.444,66.768 C 31.759,74.596 29.655,86.822 30.870,93.348 C 31.443,96.427 31.071,97.000 28.498,97.000 C 27.111,97.000 26.323,96.615 25.074,95.327 Z M 41.222,51.389 C 42.255,49.914 42.213,49.663 40.784,48.726 C 38.533,47.251 36.147,49.647 38.011,51.511 C 39.298,52.798 40.260,52.762 41.222,51.389 Z M 81.274,49.284 C 82.383,47.592 81.486,45.875 79.609,46.095 C 78.572,46.217 78.216,46.595 77.962,47.844 C 77.414,50.545 79.775,51.571 81.274,49.284 Z M 43.750,43.965 C 43.750,43.218 43.419,42.700 42.873,42.595 C 41.749,42.378 41.198,43.784 42.019,44.773 C 42.886,45.817 43.750,45.414 43.750,43.965 Z M 128.461,76.875 C 125.927,67.587 122.446,60.596 117.719,55.306 L 116.429,53.862 L 114.215,56.035 L 112.001,58.207 L 109.040,55.163 C 106.472,52.522 106.038,51.795 105.768,49.684 C 105.597,48.345 105.077,46.488 104.613,45.557 L 103.770,43.865 L 109.760,38.199 C 113.054,35.083 115.897,32.526 116.076,32.517 C 116.864,32.476 125.536,39.652 128.385,42.701 C 135.417,50.230 139.706,57.205 143.026,66.512 C 145.406,73.184 145.432,74.576 143.183,75.032 C 142.320,75.207 140.548,75.946 139.245,76.675 C 136.120,78.421 135.831,78.369 136.195,76.125 C 137.050,70.868 137.100,69.319 136.481,67.441 C 136.039,66.102 135.571,65.509 135.038,65.610 C 134.019,65.804 133.738,67.827 134.527,69.300 C 135.215,70.586 134.906,71.700 132.564,76.374 C 131.575,78.350 130.977,78.998 130.145,78.999 C 129.269,79.000 128.920,78.560 128.461,76.875 Z M 105.277,63.544 C 104.898,62.931 106.104,60.451 107.238,59.510 C 107.855,58.998 108.179,58.979 108.631,59.431 C 109.083,59.883 109.027,60.338 108.392,61.385 C 107.341,63.118 105.712,64.247 105.277,63.544 Z" fill="#000000" fill-rule="evenodd" /></svg>