<svg xmlns="http://www.w3.org/2000/svg" viewBox="0 0 109 119" width="109" height="119"><path d="M 50.000,107.139 C 49.587,106.984 48.688,106.466 48.000,105.988 C 46.078,104.651 42.413,103.563 37.185,102.778 C 32.205,102.030 30.493,101.176 27.375,97.888 C 25.663,96.083 25.663,95.758 27.375,94.736 C 29.456,93.494 30.712,91.608 30.016,90.769 C 29.058,89.615 24.959,87.872 20.513,86.730 C 17.418,85.934 16.037,85.319 15.388,84.445 C 14.003,82.580 11.889,73.642 12.544,72.418 C 12.879,71.792 13.372,71.536 13.873,71.728 C 14.312,71.896 14.841,71.757 15.050,71.419 C 15.611,70.511 14.617,69.000 13.458,69.000 C 12.519,69.000 12.474,68.788 12.795,65.875 C 13.094,63.173 14.730,54.967 15.911,50.250 C 16.430,48.180 17.650,48.148 21.508,50.106 L 24.750,51.750 L 25.051,58.250 C 25.217,61.825 25.515,65.650 25.715,66.750 C 26.752,72.475 30.219,78.251 35.692,83.371 C 39.596,87.023 42.160,88.599 46.803,90.198 C 51.802,91.919 55.209,92.204 59.704,91.275 C 67.117,89.744 71.010,87.505 76.610,81.552 C 81.528,76.325 83.614,71.933 85.424,63.000 C 86.760,56.403 87.000,54.815 87.000,52.551 C 87.000,50.215 87.053,50.131 89.003,49.365 C 92.082,48.155 92.602,48.892 94.700,57.426 C 96.492,64.719 96.727,66.551 95.934,67.041 C 95.396,67.373 95.385,67.585 95.879,68.079 C 96.718,68.918 96.660,72.046 95.712,77.043 C 94.561,83.113 94.197,83.613 89.645,85.401 C 87.503,86.242 85.240,87.075 84.617,87.251 C 83.993,87.428 83.053,88.415 82.528,89.445 C 82.003,90.474 81.219,91.611 80.787,91.970 C 79.595,92.958 79.837,93.844 81.500,94.580 C 82.325,94.945 83.000,95.505 83.000,95.823 C 83.000,96.790 77.608,100.053 73.048,101.846 C 67.985,103.837 58.660,107.000 57.852,107.000 C 57.542,107.000 56.827,106.422 56.264,105.717 C 55.387,104.617 55.054,104.504 53.939,104.928 C 53.223,105.201 52.515,105.891 52.365,106.462 C 52.096,107.492 51.440,107.680 50.000,107.139 Z M 48.500,103.530 C 48.500,102.854 47.589,102.386 46.992,102.755 C 46.712,102.928 46.613,103.279 46.771,103.535 C 47.147,104.142 48.500,104.138 48.500,103.530 Z M 37.315,99.375 C 37.149,98.756 37.011,98.081 37.007,97.875 C 36.992,97.083 36.052,97.548 35.751,98.496 C 35.366,99.709 35.795,100.500 36.838,100.500 C 37.401,100.500 37.533,100.189 37.315,99.375 Z M 47.641,94.827 C 47.950,93.899 47.905,93.238 47.498,92.747 C 46.982,92.126 46.740,92.145 45.716,92.889 C 44.297,93.920 44.233,94.377 45.339,95.598 C 46.401,96.772 47.067,96.549 47.641,94.827 Z M 82.000,86.250 C 82.000,85.838 81.775,85.500 81.500,85.500 C 81.225,85.500 81.000,85.838 81.000,86.250 C 81.000,86.662 81.225,87.000 81.500,87.000 C 81.775,87.000 82.000,86.662 82.000,86.250 Z M 30.000,82.506 C 30.000,81.962 28.819,81.000 28.150,81.000 C 27.793,81.000 27.500,81.405 27.500,81.900 C 27.500,82.395 27.250,83.050 26.944,83.356 C 26.638,83.662 26.537,84.155 26.720,84.452 C 27.041,84.971 30.000,83.216 30.000,82.506 Z M 94.000,58.803 C 94.000,57.701 92.701,56.632 92.097,57.236 C 91.707,57.627 92.902,60.000 93.489,60.000 C 93.770,60.000 94.000,59.462 94.000,58.803 Z M 52.384,85.875 C 46.356,78.663 45.560,77.022 46.728,74.226 C 47.165,73.179 47.336,72.136 47.106,71.906 C 46.501,71.301 42.378,74.397 40.178,77.109 C 38.831,78.770 38.113,79.301 37.691,78.951 C 36.763,78.180 34.605,73.492 33.313,69.438 C 31.922,65.076 32.200,64.000 34.714,64.000 C 36.736,64.000 37.317,62.942 35.966,61.719 C 34.731,60.601 34.747,59.939 36.038,58.833 C 36.846,58.141 36.949,57.791 36.502,57.253 C 36.186,56.872 36.000,55.882 36.089,55.053 C 36.178,54.223 36.025,53.478 35.750,53.397 C 35.475,53.316 35.179,53.869 35.092,54.625 C 34.809,57.085 32.985,56.422 29.412,52.563 C 27.010,49.969 25.955,48.344 25.110,45.938 C 23.377,41.006 23.766,35.297 26.154,30.610 C 26.535,29.862 27.353,28.238 27.973,27.000 C 29.309,24.328 32.989,19.417 33.875,19.124 C 34.582,18.889 34.578,18.878 35.715,24.052 C 37.010,29.942 40.760,36.233 44.661,39.059 C 47.229,40.919 48.000,40.902 48.000,38.985 C 48.000,37.973 47.336,36.631 46.000,34.940 C 43.759,32.105 43.742,32.031 44.712,29.250 C 46.650,23.697 53.517,12.025 54.856,12.008 C 55.588,11.998 58.905,16.795 61.336,21.377 C 62.843,24.219 65.485,31.020 65.497,32.087 C 65.498,32.272 64.747,33.410 63.827,34.616 C 61.599,37.534 60.971,41.022 62.678,40.989 C 64.192,40.959 71.424,33.098 72.113,30.735 C 72.271,30.193 72.965,28.230 73.657,26.372 C 74.348,24.514 75.067,22.083 75.255,20.970 C 75.507,19.478 75.809,18.986 76.404,19.101 C 77.207,19.255 80.577,23.709 82.270,26.852 C 83.123,28.437 83.122,28.537 82.224,29.528 C 81.103,30.768 81.682,32.073 83.547,32.508 C 85.651,32.999 86.195,36.767 85.171,43.750 C 84.715,46.859 83.160,49.689 80.049,53.072 C 76.996,56.392 76.014,56.578 75.980,53.845 L 75.960,52.250 L 75.296,53.500 C 74.240,55.488 73.913,58.262 74.566,59.696 C 75.062,60.784 75.015,61.154 74.280,61.966 C 73.235,63.121 73.626,64.000 75.184,64.000 C 75.803,64.000 76.715,64.297 77.212,64.661 C 78.077,65.293 78.058,65.507 76.789,69.579 C 75.501,73.712 72.247,80.000 71.396,80.000 C 71.164,80.000 70.740,79.382 70.453,78.627 C 69.722,76.703 67.778,74.263 65.734,72.704 C 64.351,71.649 63.852,71.500 63.283,71.973 C 62.677,72.475 62.667,72.897 63.218,74.727 C 63.833,76.769 63.796,76.999 62.559,78.880 C 60.398,82.168 55.408,88.500 54.978,88.500 C 54.758,88.500 53.590,87.319 52.384,85.875 Z M 53.000,67.070 C 53.000,63.503 53.494,62.500 55.250,62.500 C 57.006,62.500 57.500,63.503 57.500,67.070 C 57.500,68.924 57.723,70.579 57.996,70.747 C 59.239,71.516 63.000,66.898 63.000,64.602 C 63.000,64.045 62.128,62.487 61.063,61.139 L 59.125,58.688 L 61.275,56.413 C 63.908,53.626 64.863,50.685 64.034,47.917 C 63.309,45.496 61.227,43.044 59.164,42.182 C 57.061,41.303 53.423,41.310 51.300,42.197 C 46.026,44.400 44.828,53.050 49.257,56.939 C 50.216,57.781 51.000,58.611 51.000,58.783 C 51.000,58.955 50.100,60.119 49.000,61.369 C 47.900,62.618 47.000,63.807 47.000,64.009 C 47.000,66.076 51.447,71.401 52.586,70.697 C 52.814,70.556 53.000,68.924 53.000,67.070 Z M 67.000,48.750 C 67.000,48.337 66.775,48.000 66.500,48.000 C 66.225,48.000 66.000,48.337 66.000,48.750 C 66.000,49.163 66.225,49.500 66.500,49.500 C 66.775,49.500 67.000,49.163 67.000,48.750 Z M 36.500,32.530 C 36.500,31.940 35.525,31.309 35.167,31.667 C 34.809,32.025 35.440,33.000 36.030,33.000 C 36.288,33.000 36.500,32.788 36.500,32.530 Z M 59.000,29.750 C 59.000,29.337 58.775,29.000 58.500,29.000 C 58.225,29.000 58.000,29.337 58.000,29.750 C 58.000,30.163 58.225,30.500 58.500,30.500 C 58.775,30.500 59.000,30.163 59.000,29.750 Z M 53.750,53.419 C 50.073,51.422 51.114,46.500 55.214,46.500 C 56.470,46.500 57.204,46.852 57.964,47.817 C 59.296,49.511 59.273,50.644 57.875,52.182 C 56.490,53.706 55.065,54.133 53.750,53.419 Z" fill="#000000" fill-rule="evenodd" /></svg>