<svg xmlns="http://www.w3.org/2000/svg" viewBox="0 0 110 118" width="110" height="118"><path d="M 50.500,106.636 C 50.087,106.479 49.188,105.914 48.500,105.380 C 46.669,103.958 44.682,103.232 40.750,102.548 C 38.825,102.213 36.166,101.728 34.842,101.471 C 32.348,100.986 29.146,99.069 27.032,96.797 L 25.814,95.487 L 28.032,93.274 C 30.445,90.866 30.717,90.088 29.375,89.429 C 28.894,89.193 28.106,88.773 27.625,88.496 C 27.144,88.219 26.188,87.745 25.500,87.443 C 24.812,87.140 23.859,86.692 23.382,86.446 C 22.904,86.201 22.048,86.000 21.478,86.000 C 19.229,86.000 15.907,84.823 15.227,83.785 C 14.208,82.230 12.024,73.265 12.356,71.998 C 12.570,71.177 12.901,70.992 13.766,71.209 C 14.439,71.378 14.988,71.242 15.124,70.871 C 15.529,69.769 14.947,69.000 13.708,69.000 C 12.788,69.000 12.501,68.732 12.503,67.875 C 12.509,65.680 13.966,57.108 14.997,53.208 C 16.496,47.532 16.508,47.500 17.159,47.500 C 17.680,47.501 23.978,50.312 24.398,50.731 C 24.487,50.820 24.668,53.898 24.800,57.572 C 25.156,67.485 26.044,70.708 30.005,76.476 C 33.546,81.633 41.797,88.493 44.471,88.503 C 44.899,88.505 45.824,88.806 46.525,89.172 C 47.226,89.538 48.914,89.983 50.275,90.160 C 51.636,90.338 53.615,90.605 54.672,90.752 C 56.615,91.024 62.449,90.029 65.913,88.836 C 71.221,87.007 78.239,80.445 81.946,73.846 C 83.949,70.279 86.972,56.965 86.991,51.625 C 86.998,49.446 87.151,49.000 87.889,49.000 C 88.378,49.000 89.270,48.655 89.873,48.233 C 90.935,47.489 91.012,47.553 92.410,50.358 C 93.704,52.952 95.354,58.831 96.298,64.205 C 96.573,65.770 96.462,66.291 95.744,66.816 C 94.925,67.415 94.919,67.500 95.673,67.790 C 96.205,67.994 96.500,68.681 96.500,69.715 C 96.500,72.556 94.913,80.667 94.121,81.876 C 93.258,83.193 90.763,84.522 87.214,85.554 C 85.210,86.137 84.472,86.725 82.661,89.180 C 80.172,92.554 80.013,93.359 81.750,93.795 C 84.281,94.430 82.761,96.317 77.566,98.989 C 74.853,100.385 58.681,106.000 57.375,106.000 C 56.827,106.000 56.293,105.566 56.145,105.000 C 55.950,104.256 55.463,104.000 54.241,104.000 C 52.865,104.000 52.513,104.244 52.075,105.500 C 51.787,106.325 51.484,106.982 51.401,106.961 C 51.318,106.939 50.913,106.793 50.500,106.636 Z M 49.000,102.561 C 49.000,102.320 48.683,101.859 48.295,101.537 C 47.511,100.887 46.710,101.626 47.250,102.500 C 47.631,103.116 49.000,103.164 49.000,102.561 Z M 37.492,98.875 C 37.488,98.531 37.273,97.914 37.013,97.504 C 36.396,96.528 35.231,97.578 35.668,98.716 C 36.025,99.646 37.503,99.775 37.492,98.875 Z M 47.761,94.488 C 48.426,93.753 48.526,93.326 48.127,92.927 C 47.825,92.625 47.697,92.068 47.843,91.689 C 48.171,90.834 47.594,90.816 45.859,91.625 C 44.495,92.261 44.415,93.366 45.622,94.875 C 46.310,95.734 46.697,95.664 47.761,94.488 Z M 82.075,86.250 C 82.075,85.989 81.833,85.694 81.537,85.596 C 81.242,85.497 81.000,85.792 81.000,86.250 C 81.000,86.708 81.242,87.003 81.537,86.904 C 81.833,86.806 82.075,86.511 82.075,86.250 Z M 29.125,83.304 C 30.211,82.480 30.220,82.072 29.177,80.919 C 28.396,80.057 28.319,80.055 27.693,80.880 C 26.850,81.989 26.806,84.005 27.625,83.984 C 27.969,83.975 28.644,83.669 29.125,83.304 Z M 94.000,58.311 C 94.000,56.989 92.776,55.650 92.288,56.438 C 91.930,57.017 92.978,59.500 93.580,59.500 C 93.811,59.500 94.000,58.965 94.000,58.311 Z M 52.377,86.510 C 51.630,85.923 51.063,85.287 51.116,85.096 C 51.169,84.906 50.936,84.251 50.598,83.642 C 50.054,82.662 49.731,79.872 49.555,74.625 C 49.489,72.672 49.124,72.634 45.907,74.250 C 41.784,76.320 41.898,76.496 42.054,68.310 L 42.190,61.120 L 40.117,58.764 C 38.976,57.468 37.753,55.754 37.399,54.953 C 36.500,52.923 35.777,53.409 35.598,56.164 C 35.514,57.449 35.271,58.500 35.058,58.500 C 34.845,58.500 33.338,57.290 31.710,55.811 C 25.991,50.616 23.148,42.783 24.378,35.610 C 24.901,32.556 25.566,30.620 27.784,25.690 C 28.658,23.746 32.856,18.000 33.401,18.000 C 33.623,18.000 34.096,19.744 34.451,21.875 C 35.224,26.519 37.580,32.902 39.662,36.000 C 41.668,38.984 48.389,45.620 49.149,45.368 C 49.787,45.156 50.293,34.270 49.764,32.141 C 49.613,31.531 48.243,29.796 46.720,28.285 L 43.951,25.539 L 44.101,22.419 L 44.250,19.300 L 48.750,15.623 C 54.805,10.674 54.699,10.722 56.638,12.079 C 59.783,14.281 65.438,19.684 65.703,20.740 C 66.244,22.897 65.011,25.447 61.976,28.444 L 59.000,31.383 L 59.000,38.358 C 59.000,42.195 59.141,45.474 59.312,45.646 C 59.765,46.098 68.237,38.196 69.750,35.910 C 72.842,31.239 74.495,27.125 75.542,21.500 C 75.874,19.712 76.220,18.162 76.311,18.054 C 76.994,17.239 82.049,25.729 83.709,30.479 C 84.772,33.523 84.998,35.062 84.988,39.212 C 84.974,44.934 84.001,48.603 81.437,52.598 C 79.798,55.152 75.574,59.105 74.917,58.699 C 74.705,58.568 74.549,57.738 74.571,56.855 C 74.592,55.972 74.392,54.692 74.126,54.011 L 73.644,52.772 L 72.840,54.326 C 72.398,55.180 70.890,57.134 69.489,58.667 C 67.484,60.861 67.036,61.646 67.387,62.353 C 67.632,62.846 67.888,65.894 67.956,69.125 C 68.096,75.817 68.036,75.893 64.091,73.987 C 62.938,73.430 61.375,72.850 60.619,72.699 L 59.243,72.424 L 59.092,78.587 C 58.955,84.144 58.833,84.859 57.845,85.863 C 56.194,87.541 54.015,87.799 52.377,86.510 Z M 62.203,64.693 C 62.399,64.182 62.876,63.982 63.506,64.146 C 64.567,64.424 65.251,63.811 64.762,63.020 C 64.373,62.390 61.029,64.045 61.012,64.875 C 60.995,65.774 61.837,65.645 62.203,64.693 Z M 56.675,61.266 C 56.995,60.431 56.250,59.786 55.500,60.250 C 54.752,60.712 54.897,62.000 55.697,62.000 C 56.080,62.000 56.520,61.670 56.675,61.266 Z M 32.923,46.985 C 33.074,45.948 32.995,45.882 32.298,46.460 C 31.355,47.243 31.225,48.674 32.125,48.378 C 32.469,48.264 32.828,47.638 32.923,46.985 Z M 76.250,44.500 C 76.008,44.109 75.720,44.080 75.387,44.413 C 75.112,44.688 75.050,45.177 75.250,45.500 C 75.492,45.891 75.780,45.920 76.113,45.587 C 76.388,45.312 76.450,44.823 76.250,44.500 Z M 27.794,29.628 C 27.248,29.081 26.873,29.950 27.266,30.853 C 27.637,31.710 27.664,31.709 27.872,30.836 C 27.991,30.333 27.956,29.789 27.794,29.628 Z M 56.343,24.913 C 57.857,23.490 57.806,22.313 56.171,21.027 C 55.013,20.116 54.713,20.069 53.824,20.659 C 51.941,21.909 51.749,22.743 52.953,24.434 C 54.273,26.288 54.800,26.362 56.343,24.913 Z" fill="#000000" fill-rule="evenodd" /></svg>