<svg xmlns="http://www.w3.org/2000/svg" viewBox="0 0 141 163" width="141" height="163"><path d="M 68.994,149.096 C 68.303,148.356 66.864,146.806 65.794,145.652 L 63.850,143.555 L 63.765,136.902 C 63.718,133.244 63.637,121.812 63.585,111.500 L 63.491,92.750 L 60.099,89.250 C 58.233,87.325 53.387,82.539 49.329,78.613 C 43.855,73.318 41.761,71.584 41.210,71.893 C 40.029,72.553 36.511,77.018 35.635,78.969 C 34.520,81.448 34.546,88.607 35.678,91.136 C 36.836,93.723 39.471,96.527 44.130,100.131 C 46.294,101.805 48.394,103.811 48.795,104.588 C 49.197,105.364 49.734,106.000 49.989,106.000 C 50.779,106.000 52.041,109.247 52.148,111.554 C 52.249,113.738 52.240,113.751 50.442,113.901 C 48.934,114.027 48.414,113.792 47.317,112.488 C 45.613,110.463 45.655,109.443 47.500,108.079 C 52.077,104.695 45.278,105.642 40.423,109.064 C 38.699,110.279 37.252,110.248 35.436,108.955 C 34.629,108.380 32.728,107.741 31.211,107.535 C 29.695,107.330 27.846,106.709 27.102,106.157 C 24.693,104.367 18.692,94.684 13.289,83.869 L 11.350,79.989 L 16.740,71.869 C 19.705,67.404 22.916,62.778 23.877,61.590 L 25.624,59.431 L 24.437,58.602 C 21.027,56.222 18.970,52.557 18.624,48.247 C 18.289,44.072 19.724,40.809 23.356,37.490 C 27.077,34.089 27.718,34.159 26.197,37.800 C 25.668,39.065 25.476,40.571 25.633,42.207 C 26.047,46.517 28.404,47.531 40.250,48.499 C 43.550,48.769 46.860,48.992 47.605,48.995 C 48.773,48.999 49.040,49.293 49.543,51.125 C 49.863,52.294 50.467,54.038 50.885,55.000 C 51.736,56.963 60.824,66.500 61.844,66.500 C 62.341,66.500 62.516,65.195 62.567,61.125 C 62.604,58.169 62.675,55.188 62.724,54.500 C 62.772,53.812 62.855,52.531 62.906,51.653 L 63.000,50.056 L 66.035,50.286 C 69.211,50.527 69.325,50.390 67.615,48.395 C 66.961,47.633 67.036,47.281 68.307,45.145 C 69.091,43.828 70.098,41.953 70.545,40.979 C 71.883,38.063 76.997,34.314 77.847,35.627 C 78.068,35.970 78.328,43.056 78.424,51.375 C 78.534,60.966 78.780,66.500 79.096,66.500 C 79.922,66.500 88.552,58.381 89.774,56.454 C 90.400,55.467 91.194,53.667 91.538,52.454 C 91.882,51.242 92.408,49.994 92.707,49.681 C 93.025,49.347 96.848,48.870 101.932,48.529 C 107.381,48.163 111.344,47.654 112.576,47.161 C 115.970,45.803 116.908,42.202 115.018,37.791 C 113.788,34.922 114.436,34.797 117.683,37.277 C 121.118,39.899 122.989,43.459 122.995,47.380 C 123.001,51.434 121.657,54.316 118.393,57.252 L 115.900,59.492 L 117.888,61.871 C 120.185,64.620 126.833,74.714 128.482,77.957 C 129.996,80.935 129.641,82.665 126.430,87.955 C 114.419,107.741 113.856,108.384 110.577,106.059 C 108.393,104.509 105.518,103.000 104.750,103.000 C 104.354,103.000 102.628,103.713 100.914,104.583 C 97.545,106.295 97.330,106.344 95.588,105.783 C 94.459,105.420 94.435,105.473 94.761,107.647 C 95.338,111.499 93.619,112.944 90.274,111.420 C 88.710,110.707 88.709,110.665 90.243,107.312 C 91.484,104.599 92.621,103.439 99.423,97.946 C 102.863,95.168 105.211,91.922 106.069,88.758 C 106.809,86.029 106.229,80.418 104.940,77.842 C 103.805,75.572 100.632,72.000 99.750,72.000 C 99.449,72.000 98.314,72.922 97.226,74.049 C 94.846,76.515 81.691,88.500 81.363,88.500 C 81.236,88.500 80.740,87.103 80.260,85.395 C 79.673,83.301 78.853,81.753 77.745,80.645 C 75.984,78.884 75.567,78.770 73.247,79.418 C 71.370,79.942 68.710,79.267 68.284,78.160 C 68.088,77.648 68.556,76.365 69.481,74.877 C 70.317,73.533 71.000,72.343 71.000,72.232 C 71.000,72.121 71.589,70.741 72.310,69.166 C 73.512,66.537 73.588,65.991 73.230,62.526 C 72.700,57.401 72.791,56.369 73.978,54.043 C 74.540,52.941 75.000,51.693 75.000,51.270 C 75.000,50.310 73.039,50.245 71.784,51.163 C 70.988,51.745 70.866,52.712 70.789,59.038 C 70.697,66.493 70.354,68.010 67.968,71.500 C 67.498,72.188 66.827,73.706 66.477,74.875 C 65.854,76.958 65.798,77.000 63.634,77.000 C 61.854,77.000 61.458,77.159 61.588,77.822 C 61.836,79.080 64.196,80.604 66.594,81.053 C 67.780,81.276 70.095,81.703 71.738,82.004 C 73.381,82.304 75.148,82.931 75.664,83.398 C 78.263,85.750 78.757,89.706 76.750,92.091 C 75.224,93.905 75.162,95.153 76.550,96.075 C 77.760,96.879 77.685,94.768 77.571,124.590 L 77.500,143.429 L 74.427,146.965 C 72.737,148.909 71.106,150.487 70.802,150.471 C 70.498,150.456 69.685,149.837 68.994,149.096 Z M 72.523,101.723 C 73.061,101.073 72.994,100.771 72.111,99.889 C 71.229,99.006 70.927,98.939 70.277,99.477 C 69.479,100.140 69.242,101.575 69.833,102.167 C 70.425,102.758 71.860,102.521 72.523,101.723 Z M 23.611,81.500 C 24.820,81.500 25.324,80.110 24.436,79.222 C 23.395,78.181 20.439,79.248 17.918,81.576 C 16.253,83.113 15.972,83.614 16.450,84.190 C 16.951,84.793 17.474,84.642 19.866,83.201 C 21.420,82.265 23.105,81.500 23.611,81.500 Z M 119.891,83.577 C 120.034,83.147 119.794,82.967 119.224,83.077 C 118.734,83.172 118.232,83.553 118.109,83.923 C 117.966,84.353 118.206,84.533 118.776,84.423 C 119.266,84.328 119.768,83.947 119.891,83.577 Z M 122.995,81.256 C 123.826,80.255 123.272,79.000 122.000,79.000 C 121.433,79.000 120.838,79.340 120.678,79.756 C 120.391,80.505 121.272,82.000 122.000,82.000 C 122.208,82.000 122.655,81.665 122.995,81.256 Z M 104.250,132.308 C 98.145,131.099 92.236,127.339 90.173,123.352 C 89.301,121.666 88.011,117.274 88.014,116.000 C 88.018,114.254 88.719,113.929 91.104,114.567 C 94.495,115.473 96.254,114.586 97.744,111.215 C 98.940,108.510 99.921,107.679 103.066,106.704 C 105.052,106.088 106.648,106.552 108.976,108.422 L 110.202,109.407 L 107.103,112.720 C 102.374,117.775 101.190,120.783 102.530,124.342 C 103.239,126.228 106.313,129.359 108.625,130.553 C 110.999,131.778 111.128,133.019 108.875,132.951 C 107.981,132.924 105.900,132.635 104.250,132.308 Z M 30.500,131.944 C 30.500,131.559 31.219,130.926 32.099,130.536 C 34.410,129.513 37.771,125.958 38.492,123.773 C 39.348,121.181 38.853,118.841 36.717,115.380 C 35.043,112.669 34.702,111.002 36.108,112.408 C 37.090,113.390 39.747,113.077 41.702,111.750 C 42.716,111.062 43.731,110.500 43.958,110.500 C 44.186,110.500 44.509,111.353 44.675,112.396 C 44.863,113.571 45.544,114.834 46.464,115.716 C 47.940,117.129 48.601,117.214 51.984,116.422 C 52.969,116.191 52.728,119.036 51.530,121.775 C 49.712,125.933 46.336,128.680 40.241,130.960 C 36.609,132.319 30.500,132.936 30.500,131.944 Z M 62.820,44.400 C 62.655,43.493 62.537,40.563 62.558,37.890 C 62.588,34.116 62.390,32.612 61.673,31.159 C 60.406,28.592 58.738,28.240 52.317,29.181 C 49.534,29.589 47.194,29.860 47.117,29.783 C 46.250,28.916 51.094,24.908 60.856,18.416 C 64.648,15.894 68.235,13.400 68.828,12.873 C 70.130,11.715 69.566,11.449 79.367,17.844 C 89.202,24.262 94.000,27.844 94.000,28.767 C 94.000,29.401 93.438,29.480 90.625,29.241 C 88.769,29.083 86.674,28.866 85.969,28.758 C 83.366,28.361 80.823,29.365 78.990,31.513 C 77.478,33.286 77.038,33.529 75.871,33.236 C 73.805,32.717 69.856,36.460 66.994,41.649 C 64.478,46.209 63.292,46.991 62.820,44.400 Z" fill="#000000" fill-rule="evenodd" /></svg>