<svg xmlns="http://www.w3.org/2000/svg" viewBox="0 0 110 113" width="110" height="113"><path d="M 50.250,100.427 C 49.700,100.117 48.800,99.470 48.250,98.989 C 47.062,97.951 41.991,96.633 37.482,96.189 C 35.578,96.002 33.531,95.440 32.500,94.820 C 30.305,93.499 27.000,90.542 27.000,89.898 C 27.000,89.631 28.064,88.449 29.365,87.271 C 31.401,85.428 31.639,85.020 31.074,84.340 C 29.743,82.735 24.937,80.496 21.149,79.715 C 19.005,79.272 16.999,78.704 16.693,78.451 C 15.731,77.656 13.853,70.871 13.800,68.000 C 13.752,65.387 13.812,65.250 15.000,65.250 C 16.144,65.250 16.299,64.997 16.075,63.500 C 16.034,63.225 15.550,63.000 15.000,63.000 C 13.905,63.000 13.875,62.890 13.990,59.250 C 14.057,57.147 14.830,53.093 16.947,43.750 C 17.412,41.700 18.589,41.673 22.500,43.627 L 25.750,45.250 L 26.048,52.000 C 26.521,62.740 27.118,65.093 30.807,70.757 C 33.363,74.680 40.425,80.661 44.400,82.269 C 52.784,85.659 58.824,85.826 66.500,82.879 C 73.461,80.207 81.009,72.809 83.721,66.000 C 85.607,61.266 86.231,58.524 87.416,49.750 C 88.259,43.513 88.344,43.243 89.522,43.077 C 90.197,42.982 91.001,42.698 91.309,42.446 C 92.756,41.259 95.825,49.490 97.248,58.375 C 97.554,60.289 97.474,60.542 96.437,60.925 L 95.287,61.351 L 96.394,61.943 C 97.198,62.374 97.500,62.993 97.500,64.212 C 97.500,66.709 96.029,73.993 95.202,75.593 C 94.376,77.191 91.984,78.541 87.853,79.742 C 85.242,80.501 84.805,80.842 82.955,83.566 C 81.317,85.979 81.040,86.696 81.523,87.278 C 81.853,87.675 82.432,88.000 82.811,88.000 C 84.338,88.000 83.431,90.000 81.211,91.527 C 78.625,93.306 75.503,94.643 66.500,97.828 C 60.200,100.056 57.250,100.430 57.250,99.000 C 57.250,98.478 56.725,98.250 55.523,98.250 C 54.091,98.250 53.745,98.464 53.502,99.500 C 53.173,100.905 51.796,101.297 50.250,100.427 Z M 49.632,97.701 C 50.197,97.137 49.393,96.000 48.429,96.000 C 47.620,96.000 47.551,96.161 48.000,97.000 C 48.542,98.012 49.087,98.246 49.632,97.701 Z M 38.227,92.875 C 37.726,91.216 37.083,90.702 36.713,91.666 C 36.272,92.816 36.807,94.000 37.768,94.000 C 38.364,94.000 38.481,93.714 38.227,92.875 Z M 48.482,88.533 C 48.842,87.861 48.836,87.135 48.463,86.158 C 47.969,84.865 47.873,84.822 47.283,85.625 C 46.929,86.106 46.383,86.500 46.070,86.500 C 45.425,86.500 45.387,86.779 45.815,88.375 C 46.188,89.765 47.773,89.859 48.482,88.533 Z M 83.000,80.250 C 83.000,79.838 82.775,79.500 82.500,79.500 C 82.225,79.500 82.000,79.838 82.000,80.250 C 82.000,80.662 82.225,81.000 82.500,81.000 C 82.775,81.000 83.000,80.662 83.000,80.250 Z M 30.375,77.357 C 31.135,77.632 31.183,76.777 30.482,75.467 C 29.754,74.107 29.193,74.259 28.295,76.061 C 27.381,77.892 27.731,78.885 28.925,77.848 C 29.379,77.453 30.031,77.232 30.375,77.357 Z M 95.000,52.600 C 95.000,51.673 94.107,50.500 93.400,50.500 C 92.783,50.500 92.927,52.227 93.600,52.900 C 94.458,53.758 95.000,53.641 95.000,52.600 Z M 53.375,80.460 C 51.451,79.340 51.122,77.610 51.444,70.332 C 51.612,66.528 51.679,63.344 51.592,63.257 C 51.505,63.171 48.311,64.703 44.495,66.661 C 40.678,68.620 37.389,70.055 37.185,69.851 C 36.981,69.648 36.320,67.967 35.716,66.115 C 34.651,62.853 34.758,61.000 36.011,61.000 C 36.273,61.000 38.065,60.055 39.993,58.900 C 43.282,56.930 44.231,56.000 42.952,56.000 C 41.755,56.000 39.471,53.832 38.191,51.481 C 37.449,50.116 36.652,49.000 36.421,49.000 C 36.189,49.000 36.000,49.916 36.000,51.037 C 36.000,52.667 35.834,53.041 35.169,52.912 C 34.093,52.702 28.969,46.043 27.159,42.500 C 25.844,39.927 25.755,39.363 25.776,33.750 C 25.796,28.066 25.885,27.553 27.457,24.000 C 29.494,19.397 34.313,12.500 35.493,12.500 C 35.662,12.500 36.082,14.451 36.426,16.835 C 37.656,25.341 41.109,31.699 47.542,37.302 C 52.469,41.594 54.890,43.136 56.189,42.810 C 59.461,41.989 69.457,32.525 71.674,28.149 C 73.505,24.538 75.332,18.786 75.734,15.375 C 75.920,13.794 76.254,12.500 76.476,12.500 C 77.151,12.500 80.908,17.773 82.061,20.339 C 82.657,21.665 83.537,23.538 84.017,24.500 C 86.298,29.074 86.620,36.433 84.768,41.682 C 83.482,45.327 82.029,47.690 78.867,51.282 C 76.698,53.747 75.883,54.059 76.020,52.375 C 76.178,50.415 76.013,49.000 75.625,49.004 C 75.419,49.007 74.406,50.319 73.374,51.920 C 72.343,53.521 70.937,55.132 70.249,55.500 C 69.562,55.868 69.000,56.341 69.000,56.550 C 69.000,57.087 71.291,58.641 74.375,60.194 C 77.498,61.768 77.496,61.761 76.483,66.875 C 76.103,68.789 75.611,70.000 75.213,70.000 C 74.401,70.000 64.859,65.244 62.509,63.668 C 61.551,63.025 60.595,62.500 60.384,62.500 C 60.173,62.500 60.000,66.069 60.000,70.432 C 60.000,78.335 59.995,78.368 58.682,79.682 C 57.288,81.075 55.006,81.410 53.375,80.460 Z M 58.000,74.030 C 58.000,73.440 57.025,72.809 56.667,73.167 C 56.309,73.525 56.940,74.500 57.530,74.500 C 57.788,74.500 58.000,74.288 58.000,74.030 Z M 42.500,49.280 C 42.500,48.302 41.531,47.769 40.900,48.400 C 40.618,48.682 40.538,49.157 40.723,49.456 C 41.213,50.249 42.500,50.121 42.500,49.280 Z M 34.734,37.475 C 34.289,36.754 32.500,36.907 32.500,37.667 C 32.500,38.033 32.642,38.475 32.816,38.649 C 33.287,39.120 35.075,38.026 34.734,37.475 Z M 78.000,37.280 C 78.000,36.472 77.292,35.875 76.854,36.312 C 76.464,36.703 77.002,38.000 77.553,38.000 C 77.799,38.000 78.000,37.676 78.000,37.280 Z" fill="#000000" fill-rule="evenodd" /></svg>