<svg xmlns="http://www.w3.org/2000/svg" viewBox="0 0 82 119" width="82" height="119"><path d="M 36.537,101.805 C 30.661,93.048 31.000,94.063 31.000,85.206 C 31.000,80.936 30.745,76.387 30.433,75.096 C 29.759,72.307 27.683,69.935 24.519,68.339 C 23.271,67.710 21.756,66.880 21.153,66.495 C 20.190,65.880 19.937,65.902 19.085,66.673 C 16.864,68.683 17.496,72.646 20.432,75.116 C 23.119,77.377 22.383,78.318 18.779,77.234 C 14.955,76.083 11.992,74.413 11.763,73.279 C 11.649,72.713 11.459,70.591 11.340,68.563 L 11.125,64.876 L 14.312,61.781 C 16.066,60.079 17.500,58.314 17.500,57.860 C 17.500,57.064 15.756,54.837 12.861,51.940 C 11.502,50.579 11.479,50.463 11.797,46.400 C 11.975,44.117 12.375,41.987 12.686,41.666 C 13.569,40.753 19.203,38.034 20.929,37.689 C 22.136,37.448 22.560,37.575 22.822,38.257 C 23.070,38.902 22.538,39.681 20.819,41.193 C 18.935,42.848 18.431,43.640 18.238,45.250 C 18.042,46.885 18.229,47.509 19.264,48.670 L 20.529,50.090 L 22.531,48.282 C 23.632,47.287 25.763,45.870 27.266,45.132 L 30.000,43.792 L 29.967,40.021 L 29.933,36.250 L 26.430,33.250 C 24.503,31.600 21.875,29.388 20.588,28.334 C 15.050,23.794 15.500,24.665 15.500,18.496 C 15.500,15.007 15.691,13.000 16.023,13.000 C 16.916,13.000 23.854,17.898 24.186,18.763 C 24.359,19.213 24.500,20.312 24.500,21.204 C 24.500,23.003 25.600,24.264 28.640,25.951 C 31.708,27.653 31.905,27.487 31.688,23.377 L 31.496,19.754 L 35.746,15.627 C 38.083,13.357 40.220,11.500 40.495,11.500 C 41.394,11.500 48.999,18.534 49.038,19.403 C 49.059,19.869 49.044,21.769 49.004,23.625 C 48.955,25.949 49.119,27.000 49.531,27.000 C 50.575,27.000 55.486,23.961 56.003,22.994 C 56.276,22.484 56.503,21.432 56.508,20.658 C 56.512,19.884 56.681,18.998 56.883,18.690 C 57.635,17.542 65.182,12.982 65.614,13.414 C 65.859,13.659 65.899,16.137 65.703,18.979 L 65.350,24.103 L 58.175,30.358 C 50.512,37.039 50.806,36.583 50.993,41.500 C 51.060,43.269 51.364,43.987 52.414,44.857 C 53.149,45.466 54.010,45.972 54.328,45.982 C 55.547,46.020 58.931,48.187 59.536,49.317 C 60.109,50.388 60.250,50.429 61.008,49.743 C 61.469,49.325 62.114,48.092 62.441,47.001 C 63.191,44.495 62.253,42.410 59.695,40.901 C 57.895,39.839 57.650,38.735 59.022,37.871 C 59.576,37.523 60.862,37.830 63.573,38.959 C 69.114,41.265 68.986,41.105 69.340,46.132 L 69.649,50.504 L 66.824,53.465 C 63.094,57.376 63.110,58.174 67.000,61.921 C 69.892,64.708 69.999,64.900 69.963,67.281 C 69.943,68.639 69.774,70.756 69.588,71.985 C 69.294,73.927 68.988,74.366 67.250,75.342 C 63.184,77.624 59.000,78.430 59.000,76.931 C 59.000,76.677 59.820,75.749 60.823,74.869 C 63.896,72.171 64.380,69.695 62.441,66.591 C 61.578,65.209 61.296,65.223 59.294,66.750 C 58.393,67.438 57.421,68.000 57.135,68.000 C 55.962,68.000 51.577,72.811 50.981,74.750 C 50.644,75.850 50.263,80.463 50.134,85.000 C 49.913,92.859 49.839,93.350 48.576,95.370 C 44.413,102.025 41.177,106.731 40.657,106.886 C 40.331,106.983 38.477,104.696 36.537,101.805 Z M 42.033,78.982 C 42.715,78.617 43.006,77.917 43.022,76.607 C 43.074,72.162 43.771,70.454 46.572,67.908 C 48.045,66.569 50.431,64.552 51.875,63.427 L 54.500,61.380 L 54.500,57.953 L 54.500,54.526 L 50.699,52.138 C 42.706,47.117 42.921,47.344 43.084,44.061 C 43.298,39.733 41.613,37.602 39.057,38.969 C 38.373,39.336 38.161,40.168 38.089,42.769 C 38.038,44.601 37.876,46.297 37.727,46.537 C 37.578,46.778 35.475,48.332 33.052,49.992 C 26.871,54.225 26.294,55.011 26.437,59.000 C 26.487,60.390 26.886,61.053 28.375,62.222 C 29.406,63.032 31.994,65.410 34.125,67.506 L 38.000,71.318 L 38.000,74.884 C 38.000,77.753 38.171,78.550 38.875,78.960 C 40.004,79.618 40.835,79.624 42.033,78.982 Z M 38.713,65.372 C 37.867,64.480 35.898,62.620 34.338,61.238 C 32.777,59.857 31.500,58.433 31.500,58.075 C 31.500,57.400 31.681,57.229 36.921,52.967 C 39.333,51.004 40.298,50.491 40.958,50.819 C 43.222,51.945 49.008,56.379 49.581,57.427 C 50.171,58.506 50.079,58.730 48.487,60.098 C 47.532,60.919 45.359,62.808 43.660,64.295 C 41.960,65.783 40.498,66.999 40.410,66.997 C 40.322,66.996 39.558,66.265 38.713,65.372 Z" fill="#000000" fill-rule="evenodd" /></svg>