<svg xmlns="http://www.w3.org/2000/svg" viewBox="0 0 80 118" width="80" height="118"><path d="M 37.344,102.401 L 34.500,98.801 L 34.451,95.026 C 34.424,92.949 34.353,90.800 34.293,90.250 C 34.233,89.700 34.143,88.438 34.092,87.445 C 33.951,84.684 30.954,81.666 24.774,78.060 C 18.623,74.473 18.000,73.604 18.000,68.623 C 18.000,64.846 19.015,62.700 22.765,58.549 C 23.780,57.426 24.493,56.204 24.351,55.833 C 24.209,55.462 22.803,54.303 21.227,53.257 C 19.209,51.917 18.150,50.814 17.643,49.523 C 17.163,48.302 16.435,47.506 15.462,47.139 C 14.177,46.654 14.000,46.341 14.000,44.557 C 14.000,42.583 15.808,38.000 16.587,38.000 C 16.800,38.000 17.295,38.619 17.686,39.376 C 18.077,40.133 18.854,41.165 19.412,41.670 C 20.406,42.570 20.538,42.518 26.213,38.980 C 29.396,36.996 32.000,35.091 32.000,34.745 C 32.000,34.110 24.875,30.948 17.999,28.531 C 15.935,27.805 13.967,27.038 13.624,26.826 C 12.409,26.076 12.892,21.798 14.558,18.543 C 16.275,15.188 17.249,14.717 17.750,17.002 C 17.932,17.828 18.732,19.155 19.529,19.952 C 20.861,21.284 31.765,27.000 32.975,27.000 C 33.300,27.000 33.500,25.409 33.500,22.822 L 33.500,18.645 L 36.544,15.322 C 38.219,13.495 39.856,12.000 40.182,12.000 C 40.508,12.000 42.382,13.631 44.346,15.625 L 47.917,19.250 L 47.921,22.688 C 47.927,26.640 48.472,27.580 50.137,26.511 C 50.749,26.118 53.171,24.855 55.520,23.705 C 60.685,21.174 62.750,19.512 63.580,17.218 C 64.316,15.182 64.848,15.234 66.379,17.493 C 68.137,20.088 68.733,22.662 68.207,25.385 L 67.750,27.750 L 65.206,28.060 C 62.819,28.352 58.347,30.058 54.610,32.103 C 53.708,32.596 52.730,33.000 52.437,33.000 C 51.759,33.000 49.000,34.950 49.000,35.428 C 49.000,35.627 50.294,36.555 51.875,37.492 C 53.456,38.429 55.925,39.956 57.361,40.887 C 58.797,41.817 60.372,42.502 60.860,42.408 C 61.349,42.314 62.199,41.369 62.749,40.308 C 63.300,39.247 63.966,38.350 64.230,38.315 C 65.316,38.168 67.000,41.647 67.000,44.038 C 67.000,46.035 66.780,46.601 65.658,47.483 C 64.919,48.064 63.919,49.191 63.435,49.987 C 62.951,50.783 61.297,52.239 59.760,53.222 C 58.222,54.206 56.835,55.348 56.677,55.761 C 56.503,56.214 57.270,57.549 58.612,59.131 C 59.835,60.571 61.246,62.384 61.748,63.160 C 62.845,64.855 63.573,69.010 63.146,71.144 C 62.802,72.865 59.550,76.354 57.244,77.478 C 54.694,78.719 49.680,82.392 48.308,84.022 C 47.047,85.521 47.000,85.807 47.000,91.941 C 47.000,97.764 46.904,98.433 45.875,99.805 C 43.913,102.419 40.800,106.000 40.488,106.000 C 40.323,106.000 38.908,104.380 37.344,102.401 Z M 45.033,80.982 C 46.373,80.265 46.243,79.500 44.780,79.500 C 43.463,79.500 42.753,80.196 43.250,81.000 C 43.637,81.626 43.834,81.624 45.033,80.982 Z M 34.046,58.782 C 34.026,49.465 33.907,41.741 33.784,41.617 C 33.543,41.376 28.565,44.345 26.515,45.952 L 25.280,46.920 L 27.827,49.614 C 29.229,51.096 30.765,53.063 31.242,53.985 C 32.537,56.488 31.615,58.946 27.952,62.761 C 25.351,65.469 25.000,66.073 25.000,67.840 C 25.000,69.215 25.317,70.132 26.008,70.757 C 27.695,72.284 33.223,75.945 33.667,75.830 C 33.896,75.771 34.067,68.099 34.046,58.782 Z M 51.759,73.258 C 57.563,69.397 57.780,67.503 53.002,62.420 C 51.419,60.735 49.878,58.554 49.576,57.573 C 49.094,56.003 49.179,55.533 50.277,53.659 C 50.964,52.487 52.532,50.687 53.763,49.658 C 54.993,48.630 56.000,47.553 56.000,47.265 C 56.000,46.767 53.765,45.271 49.125,42.662 L 47.000,41.468 L 47.000,58.734 C 47.000,68.230 47.144,76.000 47.319,76.000 C 47.495,76.000 49.493,74.766 51.759,73.258 Z" fill="#000000" fill-rule="evenodd" /></svg>