<svg xmlns="http://www.w3.org/2000/svg" viewBox="0 0 106 130" width="106" height="130"><path d="M 48.032,110.024 C 43.680,103.457 43.035,102.202 42.722,99.699 C 42.526,98.131 42.476,90.587 42.610,82.934 C 42.744,75.282 42.763,68.930 42.653,68.820 C 42.441,68.608 34.821,73.560 33.437,74.809 C 32.706,75.469 32.693,75.903 33.312,79.146 C 33.690,81.128 33.999,83.497 33.999,84.410 C 34.000,85.829 33.843,86.046 32.914,85.910 C 31.004,85.629 13.000,64.968 13.000,63.057 C 13.000,62.381 14.134,62.119 19.712,61.511 C 22.167,61.244 24.348,60.851 24.560,60.638 C 24.913,60.281 24.191,45.213 23.696,42.625 C 23.401,41.080 22.533,41.209 19.501,43.249 C 18.072,44.211 16.699,44.873 16.451,44.720 C 15.965,44.419 15.806,17.000 16.291,17.000 C 16.450,17.000 22.194,22.456 29.054,29.125 C 35.914,35.794 41.746,41.325 42.013,41.417 C 42.315,41.520 42.500,38.642 42.500,33.845 L 42.500,26.107 L 47.815,19.054 C 50.738,15.174 53.300,12.000 53.508,12.000 C 54.126,12.000 63.995,25.024 64.059,25.924 C 64.092,26.378 64.074,30.206 64.020,34.430 C 63.958,39.270 64.102,42.043 64.411,41.930 C 64.680,41.831 70.567,36.181 77.494,29.375 C 84.421,22.569 90.293,17.000 90.544,17.000 C 90.808,17.000 91.000,22.899 91.000,31.000 C 91.000,40.895 90.838,45.000 90.447,45.000 C 90.143,45.000 89.074,44.362 88.072,43.583 C 85.684,41.726 84.700,41.407 83.991,42.261 C 83.472,42.887 81.832,60.493 82.254,60.919 C 82.695,61.364 86.542,61.978 89.000,61.995 C 92.102,62.016 94.000,62.413 94.000,63.040 C 94.000,63.994 74.761,86.139 73.702,86.403 C 73.092,86.555 73.094,85.851 73.724,77.638 L 73.925,75.027 L 70.587,72.773 C 68.752,71.533 66.688,70.070 66.000,69.521 C 65.312,68.972 64.477,68.517 64.143,68.511 C 63.681,68.503 63.502,72.715 63.393,86.138 L 63.250,103.775 L 61.250,106.857 C 56.064,114.847 54.201,117.437 53.618,117.467 C 53.271,117.485 50.757,114.136 48.032,110.024 Z M 54.232,103.875 C 55.152,101.008 55.429,25.729 54.523,24.823 C 54.126,24.426 53.733,24.424 53.111,24.816 C 52.310,25.321 52.241,28.073 52.122,64.250 C 52.030,92.545 52.148,103.326 52.559,103.821 C 53.263,104.669 53.970,104.692 54.232,103.875 Z M 80.000,68.753 C 80.000,68.361 78.786,67.188 77.302,66.146 C 75.819,65.103 72.126,62.506 69.097,60.375 C 63.791,56.643 62.500,55.974 62.500,56.959 C 62.500,58.225 63.441,59.201 67.418,62.060 C 69.801,63.772 73.173,66.370 74.912,67.834 C 77.552,70.055 78.234,70.410 79.037,69.980 C 79.567,69.697 80.000,69.144 80.000,68.753 Z M 30.061,69.122 C 41.160,61.737 44.632,58.949 43.558,58.286 C 42.907,57.884 39.826,59.431 35.250,62.459 C 33.325,63.732 31.169,65.068 30.458,65.427 C 29.747,65.786 28.516,66.598 27.723,67.231 C 26.476,68.225 26.371,68.492 26.951,69.191 C 27.805,70.220 28.431,70.207 30.061,69.122 Z M 70.000,54.208 C 70.000,53.325 68.924,53.479 68.615,54.406 C 68.506,54.733 68.773,55.000 69.208,55.000 C 69.644,55.000 70.000,54.644 70.000,54.208 Z" fill="#000000" fill-rule="evenodd" /></svg>