<svg xmlns="http://www.w3.org/2000/svg" viewBox="0 0 102 131" width="102" height="131"><path d="M 49.591,116.882 C 46.255,112.034 42.417,105.078 41.670,102.527 C 41.023,100.320 40.916,98.064 41.102,90.632 C 41.373,79.810 41.195,79.196 38.288,80.911 C 37.273,81.510 35.986,82.000 35.429,82.000 C 33.967,82.000 29.032,78.448 28.692,77.152 C 28.534,76.548 26.421,74.240 23.995,72.023 C 20.050,68.417 16.384,63.706 14.639,60.000 C 12.122,54.655 11.353,47.348 12.744,42.000 C 13.742,38.161 15.785,33.500 16.470,33.500 C 16.967,33.500 17.992,36.588 17.997,38.101 C 18.000,38.899 18.366,39.977 19.660,43.000 C 22.266,49.090 28.069,54.954 34.881,58.383 L 38.590,60.250 L 38.614,65.390 C 38.627,68.217 38.528,70.639 38.394,70.772 C 38.157,71.009 31.589,66.897 29.699,65.329 C 26.724,62.861 24.817,61.517 24.599,61.734 C 24.259,62.074 26.785,65.553 28.144,66.616 C 28.752,67.093 30.825,68.723 32.750,70.238 C 34.675,71.754 36.402,72.996 36.588,72.997 C 36.941,73.000 43.257,76.819 46.803,79.174 C 47.933,79.924 49.072,81.036 49.335,81.644 C 49.598,82.252 49.862,86.912 49.921,92.000 C 50.040,102.104 50.247,104.000 51.231,104.000 C 52.300,104.000 52.486,102.231 52.493,91.986 C 52.499,84.023 52.642,82.020 53.268,81.126 C 54.064,79.990 57.424,77.654 61.750,75.230 C 65.963,72.870 73.480,66.966 75.288,64.599 C 76.813,62.601 77.462,61.000 76.746,61.000 C 76.606,61.000 74.862,62.373 72.871,64.052 C 68.265,67.934 65.283,70.000 64.285,70.000 C 63.628,70.000 63.501,69.247 63.508,65.375 C 63.512,62.831 63.682,60.488 63.886,60.168 C 64.090,59.847 65.830,58.752 67.753,57.733 C 77.058,52.803 81.812,46.938 84.218,37.418 C 85.278,33.226 85.381,33.040 86.169,33.911 C 88.602,36.599 90.889,45.939 90.284,50.715 C 89.658,55.652 87.263,61.317 83.926,65.750 C 81.679,68.736 69.388,80.474 66.961,81.952 L 65.250,82.994 L 63.750,81.245 C 61.068,78.119 60.848,78.922 60.961,91.433 C 61.053,101.697 60.986,102.639 60.005,104.860 C 58.892,107.379 52.169,118.337 51.471,118.768 C 51.246,118.907 50.400,118.058 49.591,116.882 Z M 46.750,75.499 C 44.550,74.145 42.459,72.786 42.104,72.479 C 41.623,72.064 41.469,69.866 41.501,63.836 C 41.525,59.389 41.534,54.901 41.522,53.864 C 41.505,52.391 41.078,51.515 39.571,49.864 C 38.510,48.701 37.385,47.259 37.071,46.658 C 36.426,45.424 36.286,38.191 36.900,37.812 C 37.312,37.557 46.345,44.865 48.425,47.138 C 49.582,48.402 49.600,48.582 49.565,58.736 C 49.545,64.408 49.394,69.268 49.229,69.535 C 48.680,70.422 50.023,73.500 50.959,73.500 C 52.411,73.500 52.846,71.544 52.681,65.750 C 52.595,62.725 52.659,57.489 52.823,54.114 L 53.122,47.978 L 58.776,43.239 C 61.886,40.633 64.645,38.500 64.907,38.500 C 65.525,38.500 66.183,44.625 65.725,46.111 C 65.532,46.737 64.319,48.375 63.031,49.750 L 60.688,52.250 L 60.866,62.130 L 61.045,72.010 L 58.898,73.292 C 55.290,75.445 50.883,78.001 50.814,77.980 C 50.779,77.969 48.950,76.853 46.750,75.499 Z M 50.101,44.375 C 49.484,43.756 46.453,41.225 43.365,38.750 C 37.220,33.825 35.017,30.836 36.076,28.858 C 36.372,28.305 39.041,25.355 42.008,22.301 C 44.975,19.248 48.007,16.019 48.746,15.125 C 49.484,14.231 50.360,13.500 50.691,13.500 C 51.589,13.500 65.823,28.066 66.233,29.404 C 66.991,31.880 64.946,34.291 54.750,42.945 C 53.100,44.345 51.631,45.493 51.486,45.496 C 51.341,45.498 50.718,44.994 50.101,44.375 Z M 53.635,33.698 C 54.936,32.295 56.000,31.006 56.000,30.833 C 56.000,30.441 51.573,26.317 50.875,26.060 C 50.122,25.782 45.946,30.505 46.349,31.179 C 46.536,31.493 47.078,32.031 47.553,32.375 C 48.029,32.718 48.911,33.797 49.514,34.773 C 50.117,35.748 50.759,36.480 50.940,36.398 C 51.121,36.317 52.334,35.102 53.635,33.698 Z" fill="#000000" fill-rule="evenodd" /></svg>