<svg width="102" height="110" viewBox="0 0 102 110" fill="none" xmlns="http://www.w3.org/2000/svg">
<path fill-rule="evenodd" clip-rule="evenodd" d="M46.2407 109.069C35.4757 108.047 26.1477 104.381 18.3557 98.1108C10.8287 92.0528 5.78474 84.7698 2.78874 75.6308C-2.41226 59.7678 -0.298264 41.2338 8.79474 22.9648C10.2777 19.9868 11.4907 17.3348 11.4907 17.0718C11.4907 16.8098 10.4957 16.1688 9.27974 15.6478C4.93374 13.7848 1.54274 11.9868 1.34074 11.4378C1.08074 10.7338 5.14473 1.26278 6.12773 0.278784C6.77273 -0.365216 7.76474 -0.0482154 14.3007 2.89078C27.4247 8.79078 30.0007 10.0758 30.3097 10.8808C30.7197 11.9498 29.5017 15.0888 25.4567 23.3808C16.1507 42.4588 14.8027 56.9418 21.1047 70.1308C22.7947 73.6658 23.9017 75.1388 27.6887 78.8878C32.7857 83.9328 36.3457 85.9948 42.8177 87.6508C53.9077 90.4868 64.6537 87.4628 73.0397 79.1448C78.8157 73.4158 81.3567 68.9448 83.2787 61.1308C84.1677 57.5148 84.1757 47.2408 83.2917 43.1308C81.7197 35.8208 78.4997 27.4818 74.8227 21.1988C73.9157 19.6488 72.5367 16.7558 71.7587 14.7708C69.8927 10.0068 69.5037 10.4608 79.1157 6.18678C80.4217 5.60578 82.5597 4.65578 83.8657 4.07478C85.1717 3.49378 87.4777 2.45478 88.9907 1.76678C90.5037 1.07778 92.4157 0.483785 93.2407 0.447785C94.6517 0.384785 94.8697 0.646784 96.9257 4.88078C99.8077 10.8178 99.8517 12.0168 97.2407 13.3898C96.1407 13.9678 94.2277 14.8408 92.9907 15.3298C89.3057 16.7868 89.3167 16.6028 92.5487 22.8288C98.9667 35.1978 101.914 47.9988 101.309 60.8808C100.668 74.5368 96.2167 85.2538 87.4907 94.1518C78.6487 103.168 69.2407 107.675 56.2407 109.122C53.7657 109.397 51.5157 109.594 51.2407 109.559C50.9657 109.524 48.7157 109.304 46.2407 109.069ZM53.8907 98.5058L54.0407 95.6308H50.7657H47.4907V98.6548V101.679L50.6157 101.53L53.7407 101.381L53.8907 98.5058ZM28.7487 92.7558C29.4147 91.9998 29.9667 91.1558 29.9747 90.8808C29.9837 90.6058 29.1847 89.7378 28.1997 88.9518L26.4087 87.5228L24.9497 88.9198C24.1467 89.6888 23.4987 90.5568 23.5087 90.8498C23.5247 91.3118 26.8207 94.1308 27.3447 94.1308C27.4517 94.1308 28.0837 93.5118 28.7487 92.7558ZM76.3657 92.6228C77.2597 91.8098 77.9907 90.9848 77.9907 90.7898C77.9907 90.2088 75.3487 87.6308 74.7537 87.6308C74.4507 87.6308 73.4717 88.2498 72.5787 89.0058L70.9547 90.3808L72.3027 92.2558C73.0437 93.2868 73.8957 94.1238 74.1957 94.1158C74.4957 94.1078 75.4717 93.4358 76.3657 92.6228ZM17.2677 81.2558C18.2147 80.4998 18.9827 79.6558 18.9717 79.3808C18.9617 79.1058 18.2007 78.0018 17.2817 76.9278L15.6107 74.9758L13.8007 76.0938C12.8047 76.7088 11.9907 77.3748 11.9907 77.5738C11.9907 78.0998 14.9167 82.6308 15.2567 82.6308C15.4147 82.6308 16.3197 82.0118 17.2677 81.2558ZM88.1197 80.3608C89.6297 77.8598 89.8547 76.6308 88.8017 76.6308C88.4227 76.6308 87.8327 76.2928 87.4907 75.8808C86.5867 74.7918 85.5307 74.9608 85.0307 76.2768C84.7907 76.9068 84.2337 77.7218 83.7927 78.0878C83.3517 78.4538 82.9907 79.0738 82.9907 79.4658C82.9907 80.2368 85.4207 82.5888 86.2447 82.6148C86.5217 82.6238 87.3647 81.6088 88.1197 80.3608ZM11.6767 64.6308C11.9247 64.3908 11.9247 63.1688 11.6747 61.7948C11.2637 59.5328 11.1327 59.3708 9.58074 59.2218C6.79074 58.9538 6.34073 60.0018 7.29073 64.5568C7.51173 65.6178 7.71874 65.6998 9.38774 65.3938C10.4067 65.2058 11.4367 64.8628 11.6767 64.6308ZM93.9207 64.7558C94.1767 64.2748 94.4657 62.8738 94.5627 61.6428C94.7407 59.4088 94.7387 59.4048 92.8867 59.1008C91.8677 58.9328 90.8317 58.9268 90.5857 59.0878C90.3397 59.2488 89.9857 60.5538 89.7997 61.9878L89.4607 64.5948L91.1007 65.0678C93.3987 65.7308 93.4027 65.7298 93.9207 64.7558ZM12.0257 45.2428C12.3447 42.8548 11.9507 42.2878 9.79974 42.0438C8.47674 41.8928 8.32673 42.0538 7.76273 44.2378C7.02973 47.0788 7.47774 47.7408 9.98874 47.5288C11.6427 47.3888 11.7567 47.2618 12.0257 45.2428ZM92.4287 47.3188C94.1077 46.9828 94.3037 46.3228 93.6697 43.1508C93.3627 41.6158 93.2707 41.5608 91.5447 41.8828C90.5527 42.0688 89.6737 42.2858 89.5907 42.3668C89.2837 42.6678 90.1337 47.6308 90.4927 47.6308C90.6977 47.6308 91.5687 47.4898 92.4287 47.3188Z" fill="black"/>
</svg>
