<svg xmlns="http://www.w3.org/2000/svg" viewBox="0 0 103 128" width="103" height="128"><path d="M 50.800,114.581 C 50.658,114.351 50.326,113.282 50.062,112.206 C 49.799,111.130 49.096,108.675 48.500,106.750 C 45.452,96.895 44.382,91.177 43.874,82.026 L 43.750,79.802 L 36.250,76.010 C 32.125,73.925 27.757,71.624 26.544,70.898 C 23.076,68.823 20.216,65.732 18.531,62.236 C 16.965,58.990 16.092,56.000 16.710,56.000 C 17.180,56.000 35.110,65.146 38.750,67.242 C 41.575,68.869 44.500,69.539 44.500,68.559 C 44.500,67.847 41.020,65.398 37.250,63.455 C 24.164,56.713 18.483,52.852 16.770,49.538 C 15.066,46.240 13.308,39.000 14.211,39.000 C 14.843,39.000 23.661,44.438 29.670,48.534 C 33.476,51.128 37.342,53.708 38.261,54.267 C 39.180,54.826 40.341,55.614 40.841,56.017 C 42.095,57.028 43.885,58.000 44.493,58.000 C 46.631,58.000 40.946,51.439 37.919,50.413 C 36.217,49.835 34.564,48.843 25.750,43.107 C 14.719,35.929 13.952,34.735 12.271,22.125 C 12.056,20.507 12.154,20.000 12.684,20.000 C 13.067,20.000 17.125,22.813 21.701,26.250 C 26.277,29.688 30.241,32.500 30.510,32.500 C 31.208,32.500 31.117,31.040 30.375,30.332 C 30.031,30.004 28.384,28.559 26.715,27.122 C 25.046,25.684 23.187,23.519 22.584,22.311 C 21.412,19.964 20.287,13.024 20.967,12.337 C 21.193,12.109 22.923,13.077 24.813,14.488 C 26.704,15.899 32.075,19.853 36.750,23.274 C 41.425,26.696 46.536,30.509 48.108,31.748 C 49.679,32.986 51.244,34.000 51.584,34.000 C 51.924,34.000 52.888,33.347 53.726,32.550 C 54.996,31.342 64.118,24.557 78.000,14.496 C 82.326,11.361 82.524,11.614 81.269,18.658 C 80.418,23.429 79.803,24.412 75.851,27.315 C 73.088,29.345 72.149,30.405 72.035,31.625 C 71.940,32.635 73.717,31.632 78.691,27.868 C 86.879,21.672 90.172,19.472 90.610,19.910 C 91.111,20.411 89.341,30.172 88.327,32.500 C 87.362,34.716 85.516,36.705 81.875,39.451 C 78.251,42.185 66.499,49.500 65.731,49.500 C 65.414,49.500 64.726,49.975 64.202,50.555 C 63.679,51.135 62.094,52.378 60.680,53.317 C 58.471,54.785 57.535,56.054 57.507,57.625 C 57.493,58.378 58.573,57.960 61.381,56.123 C 62.959,55.091 64.613,54.022 65.056,53.748 C 65.500,53.474 67.862,51.880 70.306,50.205 C 76.464,45.986 87.332,39.500 88.244,39.500 C 88.660,39.500 89.000,39.913 89.000,40.417 C 89.000,41.530 87.161,47.236 86.207,49.081 C 85.058,51.307 79.992,55.445 75.500,57.828 C 73.162,59.067 68.515,61.534 65.171,63.309 C 59.245,66.456 57.916,67.616 58.996,68.696 C 59.369,69.069 60.745,68.578 63.638,67.042 C 71.578,62.826 83.317,57.065 84.652,56.730 C 85.854,56.428 86.000,56.531 86.000,57.674 C 86.000,58.379 85.379,60.035 84.620,61.353 C 83.861,62.671 82.909,64.394 82.505,65.182 C 80.739,68.622 76.873,71.099 64.000,77.032 C 61.388,78.236 59.046,79.387 58.796,79.590 C 58.547,79.792 58.166,83.061 57.950,86.854 C 57.555,93.784 57.085,96.130 53.436,109.375 C 51.997,114.596 51.462,115.653 50.800,114.581 Z M 35.405,68.125 C 35.202,67.071 34.314,67.138 34.088,68.224 C 33.994,68.677 34.270,69.000 34.750,69.000 C 35.265,69.000 35.510,68.672 35.405,68.125 Z M 53.222,65.545 C 53.654,64.847 52.978,63.500 52.197,63.500 C 51.813,63.500 51.500,63.913 51.500,64.417 C 51.500,65.840 52.596,66.558 53.222,65.545 Z M 45.500,44.019 C 45.500,43.480 44.994,42.551 44.375,41.956 C 43.072,40.701 38.994,38.000 38.402,38.000 C 37.240,38.000 38.315,39.999 40.739,42.347 C 43.589,45.106 45.500,45.778 45.500,44.019 Z M 60.933,43.295 C 63.847,41.152 65.776,39.110 65.320,38.653 C 64.814,38.147 59.589,41.033 58.457,42.442 C 57.394,43.767 57.202,45.000 58.058,45.000 C 58.365,45.000 59.659,44.233 60.933,43.295 Z" fill="#000000" fill-rule="evenodd" /></svg>