<svg xmlns="http://www.w3.org/2000/svg" viewBox="0 0 375 375" width="375" height="375"><path d="M 171.256,361.240 C 161.571,360.393 152.982,358.959 145.750,356.981 C 144.650,356.680 142.963,356.242 142.000,356.007 C 138.576,355.173 126.922,351.104 123.250,349.461 C 122.700,349.215 119.865,348.037 116.950,346.845 C 114.034,345.652 109.759,343.543 107.450,342.157 C 105.140,340.772 102.519,339.264 101.625,338.807 C 100.731,338.349 100.000,337.699 100.000,337.362 C 100.000,336.714 103.307,334.167 110.845,329.011 L 115.440,325.867 L 117.345,326.634 C 118.393,327.055 121.905,328.664 125.151,330.209 C 130.950,332.969 145.111,338.098 151.500,339.752 C 172.329,345.144 197.238,345.425 217.250,340.494 C 226.195,338.290 236.912,334.722 242.944,331.941 C 244.700,331.131 247.288,329.983 248.694,329.389 C 250.100,328.795 252.131,327.763 253.208,327.096 C 255.524,325.661 254.584,325.261 265.125,332.159 C 271.670,336.442 272.792,337.523 271.375,338.185 C 271.031,338.346 269.625,339.158 268.250,339.991 C 265.799,341.475 253.792,347.500 253.285,347.500 C 253.143,347.500 251.840,348.039 250.389,348.698 C 237.054,354.753 219.207,359.461 203.750,361.001 C 194.983,361.875 179.801,361.986 171.256,361.240 Z M 80.000,341.489 C 80.000,341.209 80.875,338.340 81.945,335.114 C 84.261,328.132 90.500,308.593 91.880,304.000 C 92.417,302.212 93.359,299.062 93.972,297.000 C 94.585,294.938 95.946,290.663 96.997,287.500 C 98.049,284.337 100.298,277.363 101.997,272.000 C 103.695,266.637 105.492,261.012 105.991,259.500 C 106.489,257.988 108.124,252.925 109.625,248.250 C 111.126,243.575 113.456,236.320 114.802,232.128 C 116.149,227.936 117.445,224.505 117.684,224.503 C 117.922,224.501 119.722,225.696 121.684,227.158 C 123.645,228.620 126.988,231.039 129.113,232.533 C 131.238,234.028 132.983,235.475 132.991,235.750 C 133.000,236.025 131.445,241.088 129.536,247.000 C 127.627,252.912 125.587,259.325 125.002,261.250 C 124.418,263.175 123.297,266.550 122.512,268.750 C 121.727,270.950 120.372,275.113 119.501,278.000 C 117.438,284.835 116.086,288.875 115.209,290.826 C 114.121,293.243 114.295,293.632 116.055,292.722 C 117.956,291.739 125.384,286.418 137.000,277.719 C 141.812,274.116 147.213,270.184 149.000,268.982 C 152.030,266.946 155.586,264.352 172.250,252.022 C 179.779,246.452 192.870,236.957 198.416,233.046 C 200.525,231.558 204.725,228.505 207.750,226.260 C 210.775,224.016 213.925,221.755 214.750,221.237 C 215.575,220.719 217.285,219.449 218.550,218.414 C 221.383,216.097 223.231,215.315 223.901,216.152 C 224.164,216.481 224.980,218.855 225.714,221.427 C 226.447,223.999 227.592,227.549 228.256,229.315 L 229.465,232.527 L 219.608,239.840 C 214.186,243.862 206.713,249.439 203.000,252.232 C 194.820,258.386 186.111,264.723 180.842,268.356 C 178.693,269.838 174.147,273.120 170.741,275.650 C 167.334,278.180 162.958,281.375 161.018,282.750 C 151.779,289.297 130.835,304.764 102.516,325.955 C 87.308,337.335 80.841,342.000 80.272,342.000 C 80.122,342.000 80.000,341.770 80.000,341.489 Z M 287.448,339.503 C 285.689,338.129 282.000,335.393 279.250,333.422 C 270.697,327.291 256.288,316.575 250.000,311.668 C 243.481,306.581 219.522,289.015 211.922,283.750 C 209.937,282.375 205.048,278.807 201.058,275.821 C 197.067,272.836 193.509,270.280 193.151,270.143 C 192.793,270.005 192.500,269.718 192.500,269.505 C 192.500,268.919 206.990,257.500 207.732,257.500 C 208.087,257.500 209.926,258.794 211.818,260.375 C 213.710,261.956 216.669,264.262 218.394,265.500 C 220.119,266.738 227.577,272.250 234.966,277.750 C 257.239,294.328 257.083,294.222 256.266,292.125 C 255.031,288.952 242.607,250.900 239.982,242.250 C 238.334,236.821 233.941,222.775 233.492,221.500 C 233.250,220.812 232.580,218.562 232.002,216.500 C 231.425,214.438 230.754,212.300 230.510,211.750 C 229.743,210.017 227.117,202.447 225.481,197.250 C 224.615,194.500 223.265,190.225 222.480,187.750 C 219.160,177.277 215.939,165.363 216.329,164.999 C 216.561,164.782 220.800,164.525 225.750,164.428 L 234.750,164.250 L 236.905,171.000 C 238.091,174.713 239.751,180.000 240.594,182.750 C 241.438,185.500 243.893,193.150 246.051,199.750 C 248.208,206.350 250.887,214.787 252.004,218.500 C 253.121,222.213 256.764,233.575 260.098,243.750 C 267.977,267.793 269.373,272.103 272.483,282.000 C 273.909,286.538 276.394,294.300 278.006,299.250 C 284.982,320.680 290.971,339.352 291.278,340.625 C 291.465,341.402 291.399,342.000 291.127,342.000 C 290.862,342.000 289.206,340.876 287.448,339.503 Z M 292.852,320.625 C 292.706,320.144 291.315,316.082 289.761,311.599 C 288.206,307.117 287.005,303.251 287.092,303.010 C 287.179,302.769 289.387,300.348 292.000,297.629 C 298.097,291.285 300.927,287.963 305.678,281.571 C 319.010,263.634 329.217,238.735 332.762,215.500 C 334.026,207.214 334.281,189.282 333.259,180.500 C 331.533,165.661 331.461,166.306 335.067,164.466 C 336.103,163.937 339.229,161.788 342.014,159.691 C 344.799,157.593 347.258,156.073 347.480,156.313 C 347.893,156.762 349.425,164.884 350.768,173.750 C 351.821,180.705 352.242,199.067 351.567,208.618 C 350.982,216.900 349.131,228.693 347.425,235.000 C 344.347,246.377 343.481,249.000 340.236,256.750 C 330.138,280.875 317.429,299.644 300.186,315.898 C 296.921,318.975 293.995,321.495 293.683,321.497 C 293.372,321.498 292.998,321.106 292.852,320.625 Z M 71.993,315.806 C 62.989,307.662 48.279,289.852 42.669,280.302 C 38.350,272.949 34.308,264.577 30.791,255.703 C 26.458,244.771 24.371,237.320 21.207,221.500 C 18.312,207.021 18.375,181.258 21.340,167.250 C 22.039,163.950 22.833,160.069 23.105,158.625 C 23.428,156.912 23.848,156.000 24.315,156.000 C 24.708,156.000 26.495,157.243 28.286,158.762 C 32.608,162.429 35.412,164.441 37.314,165.240 C 38.174,165.602 39.018,166.125 39.189,166.402 C 39.464,166.846 38.950,171.922 37.559,182.500 C 36.683,189.167 36.894,202.012 38.030,211.090 C 39.745,224.801 44.492,241.841 49.993,254.034 C 52.457,259.495 53.315,261.159 57.969,269.500 C 62.923,278.379 68.989,286.279 78.183,295.822 C 83.037,300.860 84.793,302.999 84.507,303.523 C 84.288,303.923 83.602,305.825 82.982,307.750 C 82.361,309.675 81.571,311.925 81.226,312.750 C 80.084,315.483 79.000,319.021 79.000,320.017 C 79.000,320.558 78.716,321.000 78.368,321.000 C 78.021,321.000 75.152,318.663 71.993,315.806 Z M 161.973,247.196 C 161.025,246.204 159.537,244.910 158.666,244.321 C 157.795,243.732 154.870,241.656 152.166,239.708 C 149.462,237.760 144.662,234.317 141.500,232.058 C 134.602,227.130 131.523,224.865 119.750,216.059 C 109.683,208.529 100.603,202.000 100.199,202.000 C 100.053,202.000 97.754,200.364 95.091,198.364 C 92.429,196.364 88.675,193.626 86.750,192.279 C 81.608,188.683 71.661,181.488 64.250,176.004 C 52.553,167.348 38.235,156.879 36.209,155.500 C 35.603,155.088 33.611,153.625 31.784,152.250 C 29.956,150.875 25.376,147.443 21.605,144.624 C 17.835,141.805 14.750,139.218 14.750,138.874 C 14.750,138.379 27.361,138.224 75.625,138.123 C 109.106,138.053 136.500,138.137 136.500,138.309 C 136.500,138.482 135.502,141.801 134.282,145.686 C 133.062,149.571 131.920,153.479 131.744,154.369 C 131.567,155.260 131.248,156.097 131.034,156.229 C 130.821,156.361 117.338,156.492 101.073,156.520 C 84.808,156.548 71.500,156.753 71.500,156.975 C 71.500,157.492 77.058,161.787 86.740,168.750 C 90.945,171.775 97.843,176.883 102.068,180.100 C 106.293,183.318 112.112,187.689 115.000,189.813 C 117.888,191.937 121.825,194.844 123.750,196.273 C 125.675,197.701 130.512,201.185 134.500,204.014 C 138.488,206.843 143.100,210.196 144.750,211.465 C 146.400,212.734 150.113,215.443 153.000,217.486 C 155.887,219.528 159.262,222.016 160.500,223.014 C 161.738,224.011 165.113,226.485 168.000,228.510 C 173.206,232.161 180.000,237.428 180.000,237.813 C 180.000,237.922 178.706,238.838 177.125,239.847 C 175.544,240.856 172.562,242.946 170.500,244.491 C 166.926,247.169 164.233,249.000 163.866,249.000 C 163.772,249.000 162.921,248.188 161.973,247.196 Z M 256.248,206.625 C 255.494,204.219 254.321,200.675 253.642,198.750 C 252.962,196.825 252.371,195.012 252.328,194.722 C 252.285,194.431 253.488,193.188 255.000,191.960 C 260.145,187.782 278.558,173.803 284.133,169.842 C 285.994,168.519 288.919,166.264 290.633,164.829 C 292.348,163.394 295.261,161.215 297.108,159.985 C 298.955,158.756 300.398,157.525 300.316,157.250 C 300.218,156.921 277.470,156.704 233.725,156.616 C 195.430,156.539 167.093,156.293 166.835,156.035 C 166.381,155.581 171.039,140.570 172.164,138.859 C 172.723,138.010 177.045,137.969 264.714,137.989 C 315.294,138.001 356.805,138.138 356.960,138.294 C 357.403,138.736 350.115,144.547 340.395,151.500 C 332.027,157.486 323.673,163.607 319.195,167.033 C 316.475,169.113 312.788,171.802 311.000,173.007 C 309.212,174.213 305.026,177.236 301.697,179.725 C 298.367,182.214 293.457,185.825 290.785,187.750 C 288.113,189.675 284.199,192.562 282.088,194.166 C 271.143,202.482 261.127,209.906 260.158,210.420 C 258.056,211.536 257.668,211.159 256.248,206.625 Z M 138.498,197.625 C 136.164,196.044 133.016,194.071 131.502,193.240 C 129.197,191.976 128.771,191.529 128.881,190.490 C 129.042,188.954 132.518,176.400 134.554,170.000 C 138.316,158.170 140.145,152.567 140.999,150.250 C 141.506,148.875 142.394,146.175 142.972,144.250 C 143.551,142.325 147.156,131.188 150.985,119.500 C 160.380,90.823 167.021,70.226 167.750,67.500 C 168.447,64.896 174.489,46.141 176.529,40.250 C 177.291,38.050 178.185,35.237 178.514,34.000 C 178.844,32.763 179.306,31.300 179.540,30.750 C 179.774,30.200 180.438,28.175 181.015,26.250 C 181.593,24.325 182.276,22.233 182.533,21.601 C 182.790,20.970 183.000,20.134 183.000,19.745 C 183.000,18.365 185.113,13.413 185.525,13.828 C 186.259,14.567 207.324,78.444 209.572,86.750 C 209.870,87.850 210.309,89.200 210.546,89.750 C 211.115,91.065 217.420,110.301 219.478,117.000 C 220.365,119.888 221.634,123.825 222.298,125.750 C 222.962,127.675 223.504,129.520 223.502,129.849 C 223.501,130.292 221.248,130.445 214.875,130.437 C 210.131,130.431 205.772,130.313 205.189,130.175 C 204.460,130.002 203.881,129.190 203.344,127.587 C 200.110,117.943 198.626,113.537 196.999,108.750 C 194.319,100.863 189.245,85.014 187.714,79.750 C 186.994,77.275 186.306,74.929 186.184,74.536 C 185.763,73.176 184.638,75.083 183.551,79.000 C 182.979,81.062 180.374,89.275 177.763,97.250 C 175.152,105.225 172.754,112.650 172.433,113.750 C 171.441,117.158 162.963,143.192 162.502,144.250 C 162.262,144.800 160.945,148.738 159.576,153.000 C 154.419,169.050 147.837,189.402 146.479,193.500 C 145.703,195.838 144.937,198.369 144.775,199.125 C 144.346,201.128 143.299,200.878 138.498,197.625 Z M 41.375,130.626 C 36.202,130.539 32.500,130.279 32.500,130.001 C 32.500,127.681 39.503,113.461 45.183,104.250 C 49.866,96.653 50.284,96.090 58.472,86.300 C 71.150,71.143 80.339,63.201 99.250,51.053 C 108.578,45.060 124.941,37.662 138.180,33.452 C 147.848,30.377 169.965,26.304 172.245,27.179 C 172.937,27.444 172.949,27.654 172.345,28.866 C 171.966,29.627 170.692,33.237 169.514,36.888 C 167.092,44.398 166.117,46.000 163.971,46.000 C 163.170,46.000 161.555,46.222 160.382,46.494 C 149.736,48.958 144.858,50.204 142.625,51.029 C 141.181,51.563 138.706,52.473 137.125,53.051 C 129.430,55.864 116.534,61.854 111.000,65.185 C 101.055,71.170 87.310,82.174 78.990,90.810 C 68.561,101.634 62.860,109.706 55.018,124.750 C 52.099,130.350 51.621,131.049 50.814,130.887 C 50.504,130.825 46.256,130.708 41.375,130.626 Z M 319.323,129.375 C 318.082,127.379 315.000,121.952 315.000,121.763 C 315.000,121.356 309.956,112.879 307.950,109.916 C 295.648,91.736 278.530,75.825 258.750,64.182 C 251.258,59.772 244.535,56.875 229.500,51.574 C 221.901,48.895 220.779,48.592 213.467,47.237 C 205.032,45.673 204.000,45.333 204.000,44.111 C 204.000,43.610 203.808,42.986 203.573,42.725 C 202.908,41.985 198.322,27.512 198.649,27.185 C 198.954,26.879 207.133,27.654 213.500,28.592 C 225.015,30.288 250.320,38.335 257.250,42.505 C 258.075,43.002 260.887,44.486 263.500,45.803 C 270.072,49.118 282.231,57.088 289.678,62.963 C 299.096,70.394 316.889,89.885 322.832,99.282 C 323.887,100.950 325.950,104.100 327.416,106.282 C 331.037,111.671 339.000,127.834 339.000,129.793 C 339.000,130.377 337.353,130.500 329.512,130.500 C 320.212,130.500 320.009,130.478 319.323,129.375 Z" fill="#000000" fill-rule="evenodd" /></svg>