<svg xmlns="http://www.w3.org/2000/svg" viewBox="0 0 108 116" width="108" height="116"><path d="M 47.368,102.974 C 44.628,101.159 43.248,100.723 37.051,99.714 C 34.467,99.294 31.697,98.610 30.896,98.196 C 28.729,97.076 25.500,94.001 25.500,93.059 C 25.500,92.605 26.513,91.353 27.752,90.276 L 30.003,88.318 L 28.915,87.159 C 28.316,86.522 27.533,86.000 27.175,86.000 C 26.817,86.000 25.787,85.551 24.887,85.002 C 23.987,84.453 22.755,84.003 22.149,84.002 C 20.940,84.000 15.782,82.733 14.990,82.244 C 14.042,81.658 13.080,79.194 12.271,75.274 C 11.823,73.108 11.342,71.149 11.202,70.922 C 10.721,70.144 11.914,68.775 13.083,68.762 C 14.584,68.746 14.728,66.854 13.250,66.574 C 11.773,66.294 11.483,65.528 11.800,62.750 C 12.497,56.654 14.750,46.140 15.541,45.290 C 16.105,44.685 19.703,45.849 22.125,47.418 L 24.000,48.633 L 24.018,54.691 C 24.033,60.123 24.611,64.343 25.841,68.000 C 27.305,72.356 33.776,80.437 38.233,83.476 C 39.342,84.232 42.059,85.544 44.269,86.391 C 51.919,89.322 60.931,88.919 67.750,85.342 C 72.367,82.920 78.915,76.145 81.139,71.489 C 83.534,66.476 85.327,60.040 86.357,52.759 L 87.208,46.746 L 88.952,45.888 C 89.912,45.416 90.723,45.079 90.755,45.140 C 91.738,46.993 93.627,51.948 93.971,53.576 C 94.223,54.772 94.783,57.325 95.215,59.250 C 96.185,63.575 96.188,64.000 95.250,64.000 C 94.838,64.000 94.500,64.201 94.500,64.447 C 94.500,64.692 94.838,65.023 95.250,65.181 C 96.284,65.578 96.213,68.326 95.023,73.893 C 93.571,80.688 93.436,80.827 85.500,83.751 C 83.979,84.312 82.642,85.337 81.375,86.913 C 79.177,89.648 79.040,90.630 80.750,91.409 C 81.438,91.722 82.000,92.213 82.000,92.500 C 82.000,94.101 70.213,99.693 59.818,103.024 C 56.301,104.151 55.531,103.990 55.508,102.125 C 55.499,101.451 53.113,101.276 52.192,101.883 C 51.886,102.085 51.477,102.756 51.284,103.375 C 50.818,104.867 50.117,104.795 47.368,102.974 Z M 47.777,99.544 C 47.389,98.916 46.000,98.804 46.000,99.400 C 46.000,99.620 46.270,100.070 46.600,100.400 C 47.299,101.099 48.292,100.377 47.777,99.544 Z M 37.000,96.774 C 37.000,96.136 35.783,94.000 35.420,94.000 C 35.189,94.000 35.000,94.675 35.000,95.500 C 35.000,96.667 35.222,97.000 36.000,97.000 C 36.550,97.000 37.000,96.898 37.000,96.774 Z M 47.500,91.268 C 47.500,90.951 47.201,90.282 46.835,89.782 C 46.285,89.029 45.985,88.973 45.085,89.454 C 43.793,90.146 43.722,90.881 44.801,92.420 C 45.562,93.507 45.648,93.521 46.551,92.704 C 47.073,92.232 47.500,91.585 47.500,91.268 Z M 28.742,80.509 C 29.475,79.699 29.524,79.381 29.008,78.759 C 27.775,77.274 26.535,78.324 26.507,80.875 C 26.496,81.825 27.735,81.622 28.742,80.509 Z M 93.989,56.875 C 93.983,56.531 93.538,55.688 93.000,55.000 C 92.035,53.766 91.712,54.086 91.991,56.000 C 92.175,57.268 94.010,58.072 93.989,56.875 Z M 47.998,84.088 C 39.652,81.347 34.028,74.452 34.008,66.936 C 33.998,63.384 34.860,61.325 37.776,57.940 C 40.711,54.532 41.000,53.752 41.000,49.243 C 41.000,45.644 40.958,45.519 39.328,44.275 C 38.408,43.574 37.504,43.000 37.319,43.000 C 37.134,43.000 35.314,41.987 33.274,40.748 L 29.565,38.497 L 27.966,39.957 C 26.109,41.653 25.637,41.573 24.171,39.316 C 21.317,34.920 20.949,29.787 23.150,25.062 C 24.243,22.716 29.357,16.853 29.977,17.236 C 30.182,17.363 30.498,19.207 30.677,21.333 C 30.949,24.544 31.221,25.426 32.285,26.537 C 33.576,27.884 42.139,33.500 42.903,33.500 C 43.130,33.500 43.686,32.721 44.141,31.768 C 44.949,30.074 44.939,30.004 43.670,28.496 C 42.957,27.649 40.490,25.485 38.187,23.686 C 35.884,21.888 34.000,20.244 34.000,20.033 C 34.000,19.494 38.638,13.453 39.954,12.278 L 41.042,11.307 L 47.403,17.653 C 50.902,21.144 54.004,24.000 54.298,24.000 C 54.592,24.000 57.590,21.188 60.960,17.750 C 64.331,14.313 67.274,11.500 67.500,11.500 C 67.968,11.500 73.880,17.844 74.514,19.027 C 75.050,20.027 74.806,20.335 71.500,22.837 C 67.849,25.600 64.734,28.518 64.118,29.750 C 63.500,30.987 64.182,33.000 65.219,33.000 C 65.632,33.000 66.820,32.528 67.860,31.952 C 68.899,31.375 70.987,30.217 72.500,29.377 C 74.013,28.538 75.869,27.280 76.625,26.582 C 77.913,25.393 78.000,25.050 78.000,21.156 C 78.000,18.673 78.205,17.000 78.508,17.000 C 79.537,17.000 83.595,21.822 85.025,24.742 C 87.111,29.002 87.342,31.527 86.009,35.480 C 84.208,40.817 82.232,42.801 81.003,40.506 C 80.179,38.966 78.281,38.732 76.561,39.957 C 75.746,40.537 73.403,41.808 71.354,42.781 L 67.628,44.550 L 67.365,48.400 C 67.042,53.128 67.848,55.255 71.182,58.472 C 75.362,62.504 75.906,67.772 72.780,73.942 C 70.977,77.498 66.913,81.356 63.031,83.195 C 60.224,84.525 59.100,84.767 55.250,84.871 C 51.988,84.959 49.993,84.743 47.998,84.088 Z M 67.104,76.875 C 67.541,76.531 68.049,75.744 68.233,75.125 C 68.683,73.611 67.485,73.631 65.698,75.168 C 63.743,76.849 65.077,78.468 67.104,76.875 Z M 57.785,74.054 C 58.905,73.545 60.536,72.261 61.410,71.201 C 62.764,69.558 63.000,68.870 63.000,66.558 C 63.000,64.389 62.730,63.484 61.653,62.047 C 60.911,61.059 60.023,60.076 59.677,59.864 C 57.576,58.572 57.505,58.221 57.630,49.771 C 57.729,43.033 57.893,41.442 58.569,40.677 C 60.783,38.173 59.667,34.279 56.271,32.660 C 54.641,31.882 54.414,31.887 52.529,32.737 C 49.038,34.311 47.770,37.876 49.895,40.138 C 50.946,41.257 51.000,41.731 51.000,49.890 C 51.000,57.882 50.934,58.500 50.024,58.987 C 48.606,59.746 45.000,64.973 45.000,66.270 C 45.000,68.042 46.483,71.153 47.923,72.400 C 51.027,75.089 54.298,75.638 57.785,74.054 Z M 34.269,34.468 C 34.450,34.176 34.199,33.496 33.711,32.957 C 32.592,31.720 31.673,32.454 32.471,33.946 C 33.089,35.100 33.759,35.294 34.269,34.468 Z" fill="#000000" fill-rule="evenodd" /></svg>