<svg xmlns="http://www.w3.org/2000/svg" viewBox="0 0 104 103" width="104" height="103"><path d="M 38.748,90.540 C 28.185,86.813 19.857,78.118 16.715,67.538 C 15.645,63.934 15.655,56.444 16.735,52.728 C 19.891,41.870 28.251,34.457 39.625,32.429 C 43.621,31.716 48.004,32.338 52.149,34.206 C 55.090,35.531 59.000,38.717 59.000,39.789 C 59.000,40.773 58.775,40.705 56.459,39.028 C 51.010,35.080 41.251,36.208 34.861,41.524 C 32.479,43.506 29.493,47.930 28.129,51.500 C 24.919,59.900 25.532,68.027 30.089,77.500 C 31.779,81.012 32.948,82.566 36.823,86.452 C 39.403,89.038 41.453,91.214 41.379,91.288 C 41.305,91.361 40.121,91.025 38.748,90.540 Z M 55.250,88.176 C 48.784,86.829 44.652,84.691 40.458,80.522 C 34.659,74.758 32.125,67.900 32.658,59.416 C 32.982,54.247 34.844,49.832 37.997,46.753 C 39.903,44.891 41.500,44.566 39.866,46.372 C 38.147,48.271 37.000,51.999 37.005,55.666 C 37.018,63.812 40.822,70.285 48.196,74.705 C 52.455,77.257 55.872,78.111 61.793,78.100 C 71.055,78.083 78.577,74.925 85.250,68.251 C 87.450,66.050 89.880,63.462 90.649,62.500 L 92.048,60.750 L 91.751,62.250 C 91.308,64.478 88.355,70.532 86.069,73.898 C 81.735,80.281 73.751,85.899 66.468,87.692 C 63.458,88.433 57.681,88.682 55.250,88.176 Z M 58.250,71.991 C 55.115,71.523 51.861,70.242 49.158,68.413 C 47.108,67.026 44.662,64.172 45.125,63.708 C 45.254,63.579 46.519,64.253 47.936,65.207 C 50.895,67.198 53.679,67.768 58.331,67.334 C 66.962,66.528 74.956,58.834 77.285,49.093 C 78.831,42.624 77.722,34.374 74.410,27.720 C 72.113,23.105 67.225,17.146 63.565,14.500 C 59.962,11.895 60.522,11.292 64.911,13.052 C 75.409,17.262 83.337,24.948 87.086,34.550 C 88.398,37.912 88.666,47.758 87.553,51.750 C 85.697,58.410 80.263,65.591 74.747,68.674 C 69.761,71.461 63.342,72.751 58.250,71.991 Z M 65.303,56.114 C 66.842,53.058 66.997,52.350 66.998,48.380 C 67.000,43.492 66.148,40.599 63.629,36.937 C 59.579,31.051 54.241,27.890 46.005,26.501 C 38.880,25.299 28.939,27.930 22.500,32.721 C 19.966,34.607 14.547,40.023 13.608,41.609 C 13.165,42.357 12.507,43.082 12.145,43.221 C 11.076,43.631 11.834,41.272 14.582,35.635 C 16.474,31.754 17.932,29.604 20.625,26.719 C 27.806,19.030 34.520,15.864 43.750,15.813 C 51.679,15.770 58.358,18.360 63.804,23.590 C 73.566,32.963 74.803,48.122 66.545,57.168 C 63.956,60.004 63.527,59.639 65.303,56.114 Z" fill="#000000" fill-rule="evenodd" /></svg>