<svg xmlns="http://www.w3.org/2000/svg" viewBox="0 0 114 109" width="114" height="109"><path d="M 47.890,95.625 C 47.177,94.869 45.166,92.431 43.422,90.208 C 38.426,83.843 30.848,75.163 29.750,74.552 C 29.200,74.245 25.786,73.813 22.164,73.591 C 14.914,73.146 14.650,73.037 12.669,69.657 C 11.462,67.597 11.438,67.419 12.209,66.242 C 13.007,65.024 13.150,65.000 19.565,65.000 C 25.601,65.000 26.079,64.932 25.743,64.125 C 25.543,63.644 25.141,61.281 24.851,58.875 C 24.368,54.861 24.527,51.853 25.599,44.750 C 25.744,43.789 25.517,43.757 19.704,43.930 L 13.659,44.110 L 12.551,42.701 C 11.142,40.909 11.474,39.280 13.671,37.207 C 15.253,35.714 15.502,35.652 21.245,35.324 C 29.528,34.851 30.200,34.579 33.611,30.321 C 35.184,28.357 37.997,24.936 39.861,22.719 C 41.725,20.503 44.325,17.289 45.638,15.577 C 48.120,12.343 49.641,11.369 51.466,11.846 C 53.965,12.500 53.932,11.888 53.764,55.000 L 53.608,95.203 L 52.499,96.102 C 50.926,97.375 49.391,97.217 47.890,95.625 Z M 45.059,48.875 C 44.950,38.769 44.674,30.500 44.445,30.500 C 43.790,30.500 37.506,38.049 36.454,40.100 C 33.210,46.424 32.230,54.272 33.768,61.588 C 34.958,67.243 36.542,70.144 40.872,74.597 L 44.750,78.585 L 45.003,72.918 C 45.143,69.800 45.167,58.981 45.059,48.875 Z M 61.094,95.981 L 60.000,94.961 L 60.000,54.308 C 60.000,14.518 60.021,13.636 60.983,12.765 C 62.260,11.610 64.261,11.631 65.577,12.812 C 66.152,13.328 67.654,15.100 68.916,16.750 C 70.177,18.400 74.004,22.954 77.420,26.870 C 84.484,34.967 84.177,34.795 92.491,35.308 C 95.619,35.501 98.257,35.927 99.000,36.358 C 101.960,38.077 103.160,41.887 101.208,43.370 C 100.444,43.951 99.000,44.048 94.076,43.850 L 87.901,43.601 L 88.219,45.176 C 89.005,49.078 89.087,58.292 88.363,61.385 C 87.912,63.312 87.813,64.634 88.106,64.815 C 88.368,64.977 91.376,65.074 94.790,65.030 L 100.998,64.950 L 101.600,66.269 C 102.116,67.403 102.034,67.904 101.017,69.822 C 100.365,71.050 99.463,72.252 99.011,72.494 C 98.559,72.736 95.278,73.202 91.720,73.531 C 88.161,73.859 84.766,74.380 84.175,74.689 C 83.584,74.997 82.234,76.287 81.175,77.555 C 80.116,78.822 77.220,82.197 74.738,85.055 C 72.256,87.912 69.220,91.487 67.990,93.000 C 66.760,94.513 65.416,96.024 65.002,96.359 C 63.874,97.273 62.320,97.123 61.094,95.981 Z M 72.759,74.678 C 78.620,68.167 80.250,63.721 80.250,54.250 C 80.250,46.847 79.266,42.897 76.279,38.306 C 74.363,35.360 69.639,30.000 68.960,30.000 C 68.686,30.000 68.500,39.724 68.500,54.000 C 68.500,73.051 68.631,78.000 69.134,78.000 C 69.483,78.000 71.114,76.505 72.759,74.678 Z" fill="#000000" fill-rule="evenodd" /></svg>