<svg xmlns="http://www.w3.org/2000/svg" viewBox="0 0 79 97" width="79" height="97"><path d="M 18.150,84.670 C 17.772,83.683 19.458,81.028 20.634,80.760 C 21.248,80.620 23.438,80.586 25.500,80.686 C 27.562,80.785 35.955,80.897 44.151,80.933 L 59.051,81.000 L 59.776,82.734 C 60.174,83.688 60.500,84.583 60.500,84.723 C 60.500,84.864 51.021,85.040 39.436,85.114 C 23.812,85.215 18.315,85.100 18.150,84.670 Z M 11.500,77.577 C 11.500,76.515 19.503,61.106 20.192,60.841 C 20.908,60.567 26.000,60.955 26.000,61.284 C 26.000,61.364 24.987,63.611 23.750,66.277 C 22.512,68.943 21.500,71.322 21.500,71.562 C 21.500,71.804 29.440,72.000 39.250,72.000 C 50.591,72.000 57.000,71.822 57.000,71.507 C 57.000,71.235 55.941,68.882 54.647,66.276 C 53.353,63.671 52.408,61.425 52.548,61.286 C 52.855,60.978 58.442,60.762 58.681,61.048 C 59.238,61.713 67.000,77.038 67.000,77.472 C 67.000,77.836 58.398,78.000 39.250,78.000 C 23.987,78.000 11.500,77.810 11.500,77.577 Z M 26.583,68.548 C 27.680,65.571 38.810,43.500 39.214,43.500 C 39.880,43.500 51.500,67.153 51.500,68.507 C 51.500,68.818 46.859,69.000 38.958,69.000 C 31.692,69.000 26.487,68.810 26.583,68.548 Z M 41.672,62.376 C 42.911,60.709 42.460,58.881 40.437,57.375 C 38.861,56.201 37.411,56.735 36.324,58.890 C 35.533,60.456 35.710,61.292 37.172,62.898 C 38.523,64.382 40.338,64.171 41.672,62.376 Z M 22.245,56.991 C 22.053,56.681 24.845,50.614 28.448,43.508 C 32.052,36.403 35.000,30.329 35.000,30.012 C 35.000,29.695 33.841,28.370 32.424,27.067 L 29.847,24.698 L 30.788,23.224 C 33.661,18.723 38.685,12.250 39.305,12.250 C 40.004,12.250 45.578,19.617 47.350,22.882 C 48.410,24.836 48.039,25.676 45.334,27.459 C 44.325,28.124 43.500,29.068 43.500,29.557 C 43.500,30.046 46.425,36.233 50.000,43.307 C 53.575,50.381 56.500,56.468 56.500,56.834 C 56.500,57.307 55.712,57.500 53.784,57.500 C 50.437,57.500 50.757,57.915 44.458,45.380 C 41.869,40.226 39.525,36.081 39.250,36.169 C 38.869,36.291 29.184,54.553 28.383,56.658 C 28.127,57.331 22.639,57.629 22.245,56.991 Z" fill="#000000" fill-rule="evenodd" /></svg>