<svg xmlns="http://www.w3.org/2000/svg" viewBox="0 0 109 119" width="109" height="119"><path d="M 43.425,97.126 C 34.101,87.935 33.427,87.149 33.660,85.751 C 33.940,84.072 39.134,75.263 45.076,66.390 C 47.234,63.167 49.000,60.170 49.000,59.730 C 49.000,59.290 48.357,57.990 47.572,56.840 C 44.538,52.399 35.880,37.701 34.619,34.851 C 34.278,34.082 34.000,33.027 34.000,32.507 C 34.000,31.951 38.081,27.400 43.904,21.461 C 53.453,11.723 53.851,11.384 55.029,11.994 C 56.414,12.711 74.807,30.764 75.572,32.158 C 75.974,32.890 75.077,34.729 70.936,41.658 C 68.112,46.384 64.984,51.487 63.986,53.000 C 62.987,54.513 61.663,56.667 61.043,57.787 L 59.915,59.823 L 63.119,64.787 C 66.399,69.867 70.929,77.289 74.178,82.905 C 75.522,85.228 75.882,86.282 75.543,86.905 C 75.289,87.370 70.709,92.081 65.363,97.375 C 58.650,104.024 55.304,107.000 54.542,107.000 C 53.782,107.000 50.338,103.942 43.425,97.126 Z M 60.186,90.565 C 66.341,84.390 66.113,85.647 62.242,79.250 C 57.493,71.401 55.155,67.802 54.715,67.660 C 54.459,67.577 53.434,68.801 52.437,70.380 C 51.440,71.958 49.022,75.768 47.062,78.847 C 45.103,81.925 43.500,84.621 43.500,84.838 C 43.500,85.274 54.071,96.000 54.500,96.000 C 54.647,96.000 57.205,93.554 60.186,90.565 Z M 57.761,47.375 C 59.351,44.831 61.639,41.177 62.847,39.254 C 64.054,37.331 65.158,35.295 65.300,34.729 C 65.501,33.926 64.391,32.550 60.254,28.475 C 57.336,25.601 54.699,23.163 54.393,23.056 C 54.087,22.950 53.535,23.276 53.165,23.782 C 52.795,24.288 50.581,26.650 48.246,29.032 C 45.911,31.414 44.000,33.713 44.000,34.142 C 44.000,35.322 53.795,52.000 54.488,52.000 C 54.698,52.000 56.171,49.919 57.761,47.375 Z M 29.783,79.554 C 29.632,79.309 28.044,78.402 26.254,77.539 C 21.930,75.454 21.870,74.841 25.540,70.305 C 28.023,67.236 28.603,65.303 27.400,64.100 C 26.998,63.698 24.761,63.500 20.626,63.500 C 14.592,63.500 14.424,63.470 13.226,62.177 C 11.585,60.407 11.554,57.594 13.157,56.087 C 14.213,55.095 14.842,55.000 20.330,55.000 C 26.902,55.000 27.507,54.759 28.195,51.865 C 28.482,50.659 28.167,50.127 25.762,47.740 C 24.243,46.233 23.000,44.558 23.000,44.018 C 23.000,43.348 24.211,42.238 26.819,40.518 C 28.920,39.133 30.813,38.000 31.026,38.000 C 31.488,38.000 35.000,44.165 35.000,44.976 C 35.000,45.286 35.788,46.709 36.750,48.138 C 37.712,49.567 38.494,51.190 38.486,51.743 C 38.478,52.297 37.811,53.624 37.003,54.691 C 36.195,55.759 35.288,57.377 34.988,58.286 C 34.378,60.135 34.763,61.118 37.556,64.836 L 39.123,66.923 L 38.128,68.336 C 37.580,69.114 36.234,71.454 35.135,73.537 C 34.037,75.620 32.744,77.927 32.261,78.662 C 31.384,80.002 30.301,80.391 29.783,79.554 Z M 76.354,77.625 C 75.402,76.319 74.025,74.125 73.293,72.750 C 72.561,71.375 71.495,69.510 70.923,68.604 L 69.884,66.959 L 71.876,64.104 C 74.797,59.920 74.816,59.664 72.544,55.274 C 70.480,51.286 70.450,50.778 72.135,48.348 C 72.670,47.576 73.843,45.439 74.742,43.598 C 75.641,41.756 76.835,39.838 77.396,39.335 C 78.389,38.445 78.480,38.457 80.833,39.760 C 84.189,41.618 86.500,43.430 86.500,44.203 C 86.500,44.562 85.150,46.252 83.500,47.959 C 80.312,51.258 79.818,52.728 81.414,54.173 C 82.159,54.846 83.449,55.000 88.347,55.000 C 93.678,55.000 94.515,55.118 95.683,56.036 C 96.745,56.872 97.000,57.493 97.000,59.250 C 97.000,61.007 96.745,61.628 95.683,62.464 C 94.518,63.380 93.677,63.500 88.433,63.500 C 83.167,63.500 82.388,63.612 81.500,64.500 C 80.950,65.050 80.500,65.819 80.500,66.209 C 80.500,66.598 81.737,68.427 83.250,70.272 C 86.695,74.475 86.745,75.368 83.625,76.975 C 82.319,77.647 80.653,78.603 79.923,79.099 C 79.193,79.594 78.481,80.000 78.340,80.000 C 78.200,80.000 77.306,78.931 76.354,77.625 Z" fill="#000000" fill-rule="evenodd" /></svg>