<svg xmlns="http://www.w3.org/2000/svg" viewBox="0 0 155 146" width="155" height="146"><path d="M 114.004,133.845 C 113.350,133.518 112.236,132.261 111.530,131.052 C 109.753,128.013 108.053,126.877 104.896,126.621 C 102.951,126.463 101.522,126.697 99.500,127.505 C 94.503,129.502 92.294,129.989 88.208,129.995 C 83.145,130.001 79.079,128.732 74.500,125.716 C 72.651,124.497 70.938,123.500 70.694,123.501 C 70.450,123.501 69.644,124.570 68.904,125.876 C 64.848,133.032 59.885,134.716 53.241,131.190 C 50.256,129.607 49.529,129.416 47.415,129.667 C 45.261,129.922 45.000,129.848 45.000,128.984 C 45.000,128.452 45.657,127.281 46.460,126.383 C 47.806,124.877 48.147,124.754 50.835,124.798 C 52.516,124.826 54.385,125.195 55.250,125.670 C 57.262,126.775 58.206,126.713 59.703,125.375 C 61.207,124.031 61.941,121.602 60.928,121.322 C 60.555,121.219 58.788,120.671 57.000,120.104 C 50.665,118.095 47.956,117.797 44.686,118.747 C 40.908,119.845 38.509,122.253 37.579,125.879 C 37.214,127.306 37.059,129.132 37.237,129.939 C 37.708,132.084 36.811,132.237 35.112,130.301 C 31.128,125.764 31.064,120.842 34.891,113.375 C 34.997,113.169 34.627,113.000 34.070,113.000 C 33.513,113.000 31.719,114.238 30.084,115.752 C 28.449,117.266 26.306,118.841 25.322,119.252 C 19.951,121.496 14.127,118.562 12.513,112.798 C 11.881,110.539 11.917,110.289 13.286,107.426 C 14.921,104.005 15.258,103.677 16.272,104.518 C 16.756,104.920 17.000,106.094 17.000,108.025 C 17.000,110.565 17.165,111.057 18.317,111.964 C 19.042,112.534 20.150,113.000 20.779,113.000 C 22.065,113.000 24.467,111.153 26.023,108.968 L 27.058,107.514 L 25.529,104.311 C 23.879,100.853 23.643,98.558 24.606,95.342 C 25.280,93.095 28.639,89.218 29.469,89.731 C 29.761,89.911 30.000,90.905 30.000,91.939 C 30.000,92.973 30.362,95.041 30.805,96.534 C 31.800,99.890 33.982,102.027 39.074,104.633 C 42.591,106.434 42.967,106.516 47.750,106.529 C 50.500,106.537 53.650,106.735 54.750,106.969 C 65.667,109.291 68.395,109.469 73.844,108.217 C 81.648,106.424 86.778,102.440 90.143,95.558 C 92.248,91.254 92.250,91.245 92.246,85.500 C 92.243,80.120 92.146,79.557 90.746,76.750 C 88.079,71.402 83.409,67.702 77.798,66.491 C 72.951,65.444 66.612,67.766 62.947,71.929 C 61.876,73.145 61.000,74.334 61.000,74.570 C 61.000,74.807 60.775,75.000 60.500,75.000 C 59.612,75.000 59.969,70.122 61.074,67.144 C 63.039,61.846 66.773,57.426 71.250,55.095 C 73.354,54.000 74.384,53.798 77.750,53.819 C 82.425,53.850 85.634,54.728 90.596,57.335 C 95.020,59.660 100.151,64.658 102.332,68.768 C 105.366,74.483 106.205,78.035 106.229,85.250 C 106.254,92.910 105.676,95.669 102.829,101.500 C 101.139,104.960 99.870,106.645 96.002,110.564 C 93.224,113.378 90.040,116.056 88.337,117.009 C 85.656,118.509 85.488,118.703 86.232,119.444 C 87.222,120.431 92.553,120.482 95.079,119.529 C 98.444,118.260 99.325,117.727 103.219,114.603 C 105.402,112.852 108.480,110.767 110.058,109.971 C 113.479,108.244 114.500,106.945 114.500,104.323 C 114.500,102.724 114.170,102.057 112.690,100.661 C 111.010,99.077 110.904,98.804 111.212,96.877 C 111.699,93.829 112.254,93.351 114.175,94.323 C 115.041,94.762 116.135,95.458 116.605,95.870 C 117.694,96.824 119.441,96.406 121.461,94.706 C 123.316,93.145 123.448,91.461 122.020,87.554 C 120.165,82.479 118.422,81.865 114.110,84.769 C 111.163,86.754 111.347,86.908 110.513,81.750 C 110.202,79.825 109.706,77.297 109.411,76.133 L 108.874,74.016 L 111.458,71.693 C 114.492,68.965 116.898,65.634 117.305,63.599 C 117.551,62.372 117.316,61.921 115.769,60.646 C 112.286,57.775 109.235,57.583 105.174,59.979 C 104.222,60.540 103.162,61.000 102.820,61.000 C 102.053,61.000 99.000,57.915 99.000,57.140 C 99.000,56.305 102.814,53.195 105.182,52.100 C 107.917,50.836 111.298,50.430 113.756,51.073 C 118.226,52.240 118.148,52.307 118.038,47.409 C 117.890,40.877 118.484,39.449 123.319,34.703 C 127.660,30.442 128.315,29.173 127.809,26.007 C 127.607,24.740 127.705,23.933 128.090,23.694 C 128.975,23.148 131.776,26.664 132.491,29.219 C 133.376,32.379 132.512,34.575 128.882,38.386 L 125.895,41.523 L 126.155,45.386 C 126.298,47.511 126.674,50.263 126.991,51.500 C 127.308,52.737 127.691,55.156 127.842,56.875 C 128.111,59.933 128.148,60.000 129.578,60.000 C 131.987,60.000 134.875,58.205 135.993,56.013 C 137.223,53.602 137.353,48.466 136.250,45.827 C 134.857,42.492 135.653,42.077 138.671,44.565 C 142.688,47.876 144.641,53.245 143.523,57.905 C 142.197,63.432 138.611,66.960 132.250,68.994 C 130.325,69.609 128.025,70.418 127.139,70.792 C 125.511,71.478 122.500,75.074 122.500,76.332 C 122.500,77.158 124.780,78.602 127.499,79.500 C 129.287,80.090 129.601,80.064 130.498,79.252 C 131.097,78.710 131.500,77.711 131.500,76.768 C 131.500,74.545 132.661,73.078 133.846,73.804 C 134.896,74.448 135.633,78.380 135.176,80.908 C 134.880,82.544 133.788,83.485 129.888,85.464 C 128.544,86.146 128.530,86.205 128.834,89.802 C 129.242,94.629 128.688,95.827 124.887,98.337 L 121.817,100.365 L 121.743,104.058 C 121.703,106.088 121.498,108.137 121.288,108.609 C 120.979,109.302 121.449,109.725 123.718,110.800 C 128.140,112.894 129.967,116.143 129.284,120.700 C 128.828,123.741 127.903,123.670 125.915,120.440 C 124.313,117.836 121.568,116.035 119.163,116.011 C 116.837,115.987 112.937,117.230 111.478,118.460 L 109.947,119.750 L 112.364,122.272 C 114.910,124.929 116.000,127.847 116.000,132.009 C 116.000,134.289 115.611,134.647 114.004,133.845 Z M 60.634,103.973 C 57.060,103.267 55.098,102.016 51.579,98.197 C 47.158,93.399 43.337,85.856 42.226,79.735 C 42.028,78.643 41.565,77.154 41.196,76.425 C 40.223,74.501 35.460,70.500 34.141,70.500 C 32.294,70.500 29.977,72.963 29.672,75.250 C 29.321,77.876 30.600,79.521 33.703,80.434 C 36.051,81.125 37.306,82.483 36.804,83.789 C 36.361,84.944 29.180,84.758 27.183,83.541 C 24.443,81.870 22.940,79.384 22.635,76.018 L 22.361,73.001 L 20.306,72.471 C 16.830,71.574 16.622,71.490 15.277,70.432 C 13.132,68.745 12.000,65.944 12.000,62.325 C 12.000,59.946 12.240,58.815 12.922,57.972 C 14.083,56.538 15.500,56.966 15.500,58.750 C 15.500,60.724 16.724,63.204 18.164,64.148 C 20.284,65.537 23.765,65.233 27.250,63.355 C 29.977,61.885 30.236,61.604 30.091,60.272 C 29.830,57.868 29.103,57.042 25.867,55.474 C 20.518,52.883 18.492,50.115 18.511,45.424 C 18.530,40.762 19.797,38.841 25.439,34.921 L 27.629,33.400 L 27.372,30.194 C 27.230,28.431 27.295,26.876 27.517,26.740 C 27.738,26.603 28.703,27.230 29.660,28.133 C 33.139,31.414 33.137,36.508 29.654,39.632 C 26.524,42.439 26.000,43.152 26.000,44.602 C 26.000,45.659 26.409,46.264 27.625,47.005 C 30.170,48.557 30.780,48.303 32.571,44.943 C 34.900,40.574 38.024,37.316 41.600,35.529 C 44.227,34.216 45.211,34.000 48.556,34.000 C 52.517,34.000 54.740,34.602 55.200,35.800 C 55.340,36.165 54.497,37.653 53.327,39.107 C 52.157,40.561 50.682,42.492 50.049,43.399 C 48.960,44.958 48.749,45.041 46.126,44.935 C 43.586,44.832 43.236,44.954 41.957,46.385 C 38.658,50.077 38.767,58.620 42.149,61.418 C 43.072,62.182 44.000,61.806 44.000,60.669 C 44.000,59.356 47.432,53.285 49.902,50.227 C 53.798,45.405 61.169,40.317 67.250,38.253 C 70.146,37.270 77.343,36.013 80.250,35.983 L 82.250,35.962 L 79.500,33.394 C 73.546,27.833 70.308,26.836 66.074,29.256 C 64.877,29.940 63.696,30.500 63.449,30.500 C 62.561,30.500 63.025,27.941 64.243,26.114 C 66.954,22.049 71.224,20.691 76.286,22.283 L 79.168,23.190 L 81.093,21.020 C 83.494,18.314 83.875,16.869 82.899,14.156 C 82.479,12.988 82.255,11.912 82.401,11.766 C 83.691,10.476 88.074,13.601 89.233,16.636 C 90.000,18.644 90.007,19.015 89.314,20.673 C 88.895,21.678 87.977,23.252 87.276,24.172 C 86.574,25.092 86.000,26.122 86.000,26.461 C 86.000,26.801 87.842,29.088 90.094,31.543 C 94.640,36.500 95.108,36.644 97.690,33.881 C 99.101,32.369 99.125,32.253 98.878,27.920 C 98.739,25.489 98.721,23.500 98.838,23.500 C 99.624,23.500 102.098,25.222 103.209,26.542 C 107.172,31.252 106.933,37.242 102.591,42.072 C 98.856,46.226 95.759,47.290 84.538,48.275 C 79.270,48.738 75.122,49.378 73.155,50.032 C 69.056,51.395 64.802,54.205 61.835,57.509 C 57.604,62.219 56.011,66.457 56.011,73.000 C 56.011,79.918 57.902,84.616 62.084,88.091 C 63.514,89.279 66.064,91.541 67.752,93.118 C 69.440,94.696 72.670,97.196 74.929,98.674 L 79.037,101.361 L 77.781,102.183 C 74.695,104.206 66.269,105.085 60.634,103.973 Z M 76.994,94.625 C 71.799,92.024 70.566,90.500 73.656,90.500 C 78.243,90.500 84.903,86.355 86.496,82.508 C 87.369,80.401 87.882,80.625 88.281,83.285 C 89.079,88.605 85.719,97.000 82.791,97.000 C 82.212,97.000 79.603,95.931 76.994,94.625 Z" fill="#000000" fill-rule="evenodd" /></svg>