<svg xmlns="http://www.w3.org/2000/svg" viewBox="0 0 113 109" width="113" height="109"><path d="M 66.451,88.127 C 60.983,82.696 56.315,78.188 56.077,78.109 C 55.838,78.029 51.369,82.360 46.144,87.732 C 37.775,96.337 36.457,97.500 35.072,97.500 C 34.167,97.500 33.076,97.076 32.500,96.500 C 31.557,95.557 31.500,94.833 31.500,83.786 L 31.500,72.073 L 32.817,71.036 C 34.601,69.634 36.755,69.709 38.273,71.227 C 39.404,72.359 39.500,72.827 39.500,77.227 C 39.500,80.712 39.669,82.000 40.125,82.000 C 40.721,81.999 46.124,76.395 50.125,71.626 C 51.913,69.495 52.000,69.223 52.000,65.773 C 52.000,62.703 51.838,62.011 50.927,61.202 C 48.947,59.444 46.000,55.419 46.000,54.473 C 46.000,53.958 47.393,52.047 49.096,50.227 C 52.026,47.095 52.203,46.765 52.387,44.084 C 52.495,42.525 52.395,40.763 52.166,40.168 C 51.566,38.609 41.006,27.000 40.188,27.000 C 39.658,27.000 39.500,27.982 39.500,31.283 C 39.500,36.038 39.111,37.158 37.100,38.198 C 35.949,38.794 35.479,38.801 34.155,38.244 C 33.288,37.880 32.347,37.149 32.064,36.620 C 31.471,35.511 31.195,14.728 31.756,13.357 C 31.957,12.865 32.717,12.155 33.445,11.778 C 34.545,11.210 35.023,11.204 36.260,11.746 C 37.079,12.106 41.798,16.472 46.745,21.450 C 51.692,26.427 55.960,30.500 56.228,30.500 C 56.497,30.500 61.013,26.225 66.263,21.000 C 76.518,10.794 77.045,10.462 79.683,12.536 L 81.000,13.573 L 80.984,24.911 C 80.966,37.601 80.890,37.910 77.664,38.340 C 76.195,38.536 75.430,38.343 74.375,37.511 C 73.040,36.459 73.000,36.283 73.000,31.464 C 73.000,28.734 72.820,26.500 72.600,26.500 C 72.179,26.500 64.224,34.964 61.875,37.912 C 60.653,39.446 60.500,40.051 60.500,43.356 L 60.500,47.074 L 63.250,49.957 C 66.981,53.869 66.955,54.846 63.000,59.210 C 60.092,62.419 60.000,62.605 60.000,65.293 C 60.000,66.818 60.259,68.557 60.575,69.158 C 61.324,70.581 71.978,82.000 72.556,82.000 C 72.800,82.000 73.000,79.789 73.000,77.087 C 73.000,72.598 73.100,72.080 74.157,71.087 C 75.625,69.708 77.966,69.686 79.683,71.036 L 81.000,72.073 L 81.000,84.000 L 81.000,95.927 L 79.683,96.964 C 78.958,97.534 77.921,98.000 77.379,98.000 C 76.766,98.000 72.629,94.262 66.451,88.127 Z M 12.333,84.667 C 12.150,84.483 12.000,82.000 12.000,79.147 L 12.000,73.961 L 15.570,69.190 C 19.665,63.719 23.640,60.198 28.463,57.768 C 31.480,56.249 31.833,55.916 31.833,54.594 C 31.833,53.312 31.432,52.886 28.792,51.367 C 21.753,47.316 17.166,42.891 13.065,36.195 C 11.689,33.948 11.506,33.224 11.550,30.195 C 11.610,26.067 11.989,24.524 13.118,23.811 C 14.175,23.145 16.265,24.572 17.449,26.766 C 23.458,37.905 28.755,43.452 34.156,44.262 C 36.531,44.618 36.540,44.614 39.480,41.809 C 41.100,40.264 42.763,39.000 43.175,39.000 C 44.080,39.000 46.827,41.242 47.529,42.554 C 48.229,43.862 47.459,45.218 44.293,48.250 L 41.683,50.750 L 41.793,54.660 L 41.903,58.571 L 43.964,60.336 C 46.095,62.159 47.500,64.327 47.500,65.791 C 47.500,66.760 44.249,70.000 43.277,70.000 C 42.919,70.000 41.239,68.763 39.544,67.250 C 36.318,64.371 35.565,64.141 32.323,65.041 C 28.936,65.981 23.662,71.806 19.233,79.500 C 18.203,81.287 16.903,83.256 16.344,83.875 C 15.379,84.941 13.065,85.398 12.333,84.667 Z M 96.865,84.125 C 96.431,83.644 94.916,81.472 93.498,79.298 C 90.052,74.015 85.883,68.843 83.777,67.237 C 82.183,66.021 77.634,64.000 76.490,64.000 C 76.216,64.000 74.645,65.237 73.000,66.750 C 71.168,68.435 69.559,69.500 68.848,69.500 C 67.440,69.500 65.196,67.256 64.734,65.385 C 64.440,64.195 64.794,63.608 67.514,60.775 C 70.254,57.922 70.595,57.351 70.337,56.060 C 70.176,55.253 70.255,53.854 70.514,52.953 C 70.964,51.383 70.847,51.171 67.742,47.955 C 65.727,45.868 64.500,44.176 64.500,43.483 C 64.500,42.140 67.673,39.000 69.031,39.000 C 69.559,39.000 70.949,40.029 72.120,41.287 C 75.494,44.910 76.387,45.215 79.853,43.922 C 84.448,42.207 87.418,38.810 94.979,26.621 C 96.806,23.675 98.540,22.826 99.917,24.203 C 100.574,24.859 100.750,26.011 100.750,29.643 L 100.750,34.250 L 97.923,38.250 C 93.243,44.873 88.411,49.130 82.458,51.871 C 80.445,52.798 80.167,53.118 80.167,54.500 C 80.167,55.882 80.445,56.201 82.458,57.128 C 88.581,59.945 92.723,63.532 97.936,70.536 L 101.000,74.651 L 101.000,78.858 C 101.000,81.172 100.767,83.501 100.482,84.033 C 99.838,85.238 97.914,85.287 96.865,84.125 Z" fill="#000000" fill-rule="evenodd" /></svg>