<svg xmlns="http://www.w3.org/2000/svg" viewBox="0 0 155 165" width="155" height="165"><path d="M 59.250,152.286 C 55.367,151.508 52.748,150.103 50.177,147.416 C 47.591,144.713 46.220,141.996 45.770,138.679 C 45.302,135.230 46.033,134.916 48.585,137.468 C 51.555,140.438 53.590,141.262 57.750,141.184 C 60.319,141.135 62.015,140.777 64.125,139.836 C 65.706,139.132 67.000,138.369 67.000,138.141 C 67.000,137.914 64.356,134.800 61.125,131.221 C 53.581,122.866 51.534,120.153 49.076,115.250 C 45.879,108.873 44.302,103.022 43.586,94.875 C 43.316,91.797 43.364,90.500 43.751,90.500 C 44.515,90.500 49.947,94.474 54.953,98.696 C 58.743,101.892 59.344,102.649 61.058,106.376 C 63.318,111.292 64.776,113.485 70.566,120.675 C 72.968,123.658 75.296,126.865 75.740,127.800 C 76.184,128.735 76.818,129.492 77.148,129.482 C 77.479,129.472 78.355,128.507 79.095,127.337 C 79.835,126.168 82.373,122.900 84.736,120.075 C 90.096,113.664 92.074,110.665 93.773,106.371 C 94.878,103.578 95.728,102.418 98.680,99.677 C 102.421,96.204 109.804,90.500 110.559,90.500 C 111.776,90.500 110.443,101.946 108.540,107.848 C 105.954,115.864 102.589,121.195 94.265,130.464 C 90.819,134.301 88.000,137.765 88.000,138.162 C 88.000,139.457 93.354,141.221 97.250,141.210 C 101.086,141.200 103.260,140.193 106.219,137.057 C 108.204,134.952 109.003,135.044 108.988,137.375 C 108.974,139.658 107.172,144.186 105.302,146.637 C 102.530,150.271 96.582,153.003 91.500,152.976 C 88.337,152.960 84.042,151.848 80.206,150.053 L 76.929,148.519 L 74.457,149.772 C 69.700,152.182 63.693,153.176 59.250,152.286 Z M 29.750,114.301 C 26.431,113.251 24.737,112.161 22.440,109.598 C 20.278,107.184 18.176,102.759 18.961,102.274 C 19.184,102.136 20.690,102.748 22.308,103.632 C 26.280,105.804 30.621,105.914 34.001,103.927 C 35.238,103.199 36.680,102.130 37.203,101.552 C 38.551,100.062 39.367,100.245 39.761,102.125 C 39.949,103.019 40.513,105.100 41.016,106.750 C 41.518,108.400 42.061,110.219 42.222,110.793 C 42.461,111.642 42.120,112.031 40.383,112.893 C 36.142,114.996 33.187,115.388 29.750,114.301 Z M 119.000,114.434 C 115.796,113.563 112.000,111.891 112.000,111.350 C 112.000,111.057 112.426,109.564 112.947,108.033 C 113.468,106.502 114.192,104.181 114.556,102.875 C 114.920,101.569 115.450,100.502 115.734,100.505 C 116.018,100.508 117.222,101.282 118.410,102.227 C 123.139,105.986 127.955,106.421 132.635,103.512 C 133.972,102.680 135.276,102.000 135.533,102.000 C 136.315,102.000 136.057,103.929 134.997,106.006 C 132.803,110.307 129.131,113.367 124.904,114.417 C 122.204,115.088 121.413,115.090 119.000,114.434 Z M 69.297,108.988 C 65.424,102.964 62.322,99.377 57.255,95.062 C 47.396,86.667 38.111,81.611 30.078,80.261 C 27.202,79.778 23.951,80.724 22.197,82.556 C 21.059,83.743 20.808,84.455 20.808,86.487 C 20.808,88.525 21.091,89.321 22.388,90.936 C 23.733,92.609 23.861,92.993 23.248,93.501 C 22.189,94.381 17.928,93.165 15.734,91.357 C 13.159,89.234 11.878,86.392 11.844,82.722 C 11.812,79.328 12.463,77.313 14.625,74.109 C 16.435,71.428 18.945,69.749 23.328,68.289 C 26.664,67.177 26.788,67.075 28.250,64.199 C 29.482,61.777 30.170,61.041 32.104,60.082 C 33.398,59.440 34.691,59.059 34.977,59.236 C 35.263,59.412 35.976,60.671 36.561,62.032 C 37.801,64.913 40.051,67.056 43.382,68.527 C 55.514,73.886 62.662,79.387 65.945,85.892 C 66.783,87.552 68.150,89.395 68.982,89.988 C 72.655,92.603 74.276,97.991 73.860,106.209 C 73.587,111.622 73.248,113.500 72.545,113.500 C 72.354,113.500 70.892,111.469 69.297,108.988 Z M 81.111,112.125 C 80.914,111.644 80.766,108.550 80.782,105.250 C 80.816,98.075 81.807,94.936 85.239,91.118 C 86.441,89.781 88.051,87.351 88.817,85.719 C 89.619,84.010 91.404,81.548 93.023,79.917 C 97.153,75.758 100.029,74.001 112.133,68.245 C 115.273,66.753 117.049,64.955 118.659,61.641 C 119.446,60.022 119.986,59.500 120.874,59.500 C 123.197,59.500 124.918,60.904 126.359,63.973 C 127.696,66.822 127.857,66.968 130.500,67.718 C 136.300,69.366 140.616,72.990 142.337,77.658 C 143.167,79.910 143.132,84.563 142.269,86.629 C 140.583,90.663 136.745,93.466 132.875,93.489 C 130.848,93.501 130.380,92.637 131.783,91.473 C 134.241,89.433 134.815,84.269 132.807,82.262 C 130.885,80.339 127.894,79.764 123.549,80.480 C 121.513,80.816 119.263,81.326 118.549,81.613 C 111.310,84.523 104.763,88.669 97.860,94.717 C 93.015,98.961 89.282,103.255 85.345,109.108 C 82.713,113.021 81.756,113.703 81.111,112.125 Z M 75.179,85.038 C 70.488,83.874 67.022,79.706 66.624,74.750 C 66.231,69.855 67.518,66.455 71.167,62.750 C 74.408,59.459 75.068,59.609 73.794,63.347 C 72.788,66.299 72.769,71.103 73.755,73.010 C 75.869,77.098 80.291,75.890 81.593,70.870 C 82.122,68.829 82.083,68.048 81.317,65.370 C 79.911,60.457 79.837,60.000 80.455,60.000 C 81.595,60.000 85.607,64.617 86.789,67.290 C 88.196,70.472 88.426,75.359 87.295,78.064 C 85.223,83.023 79.750,86.173 75.179,85.038 Z M 55.454,70.241 C 54.466,69.605 51.794,68.110 49.516,66.918 C 47.237,65.725 45.248,64.424 45.095,64.025 C 44.618,62.784 46.996,54.443 49.021,50.250 C 51.360,45.409 53.810,42.159 57.602,38.862 L 60.454,36.383 L 63.102,38.611 C 64.558,39.836 66.763,41.537 68.000,42.390 C 69.237,43.243 70.908,44.482 71.713,45.144 L 73.176,46.346 L 70.438,47.599 C 65.464,49.877 60.469,58.290 58.474,67.750 C 58.126,69.400 57.709,70.895 57.546,71.073 C 57.383,71.251 56.442,70.876 55.454,70.241 Z M 95.555,67.918 C 94.747,63.552 93.341,59.162 91.575,55.500 C 89.850,51.919 85.723,47.620 83.605,47.196 C 82.722,47.019 82.000,46.680 82.000,46.441 C 82.000,46.202 83.744,44.719 85.875,43.145 C 88.006,41.570 90.704,39.404 91.871,38.331 C 93.982,36.389 93.999,36.384 95.330,37.256 C 97.689,38.802 103.238,44.678 104.532,47.000 C 106.222,50.033 107.797,54.166 108.532,57.500 C 108.865,59.013 109.319,60.998 109.539,61.912 C 110.090,64.195 109.816,64.649 107.106,65.951 C 105.810,66.574 103.017,68.077 100.898,69.292 C 98.780,70.506 96.860,71.500 96.632,71.500 C 96.404,71.500 95.919,69.888 95.555,67.918 Z M 37.806,47.675 C 36.509,46.396 35.074,44.652 34.616,43.800 C 33.468,41.662 33.514,36.419 34.707,33.372 C 35.404,31.593 35.570,30.239 35.367,27.997 C 35.217,26.349 35.242,25.001 35.422,25.002 C 35.603,25.003 36.472,25.444 37.355,25.982 C 39.772,27.456 41.000,30.294 41.000,34.407 C 41.000,38.024 41.308,38.626 44.448,41.149 C 45.064,41.643 45.487,42.206 45.388,42.399 C 45.289,42.592 44.430,44.372 43.479,46.355 C 42.429,48.545 41.439,49.968 40.957,49.980 C 40.521,49.991 39.104,48.954 37.806,47.675 Z M 111.341,46.476 C 110.328,44.537 109.500,42.740 109.500,42.483 C 109.500,42.225 110.368,41.440 111.428,40.738 C 113.905,39.099 114.498,37.725 114.507,33.601 C 114.516,29.700 115.071,28.395 117.584,26.369 C 119.932,24.477 120.522,24.828 119.900,27.745 C 119.510,29.576 119.612,30.644 120.440,33.377 C 122.071,38.763 122.153,39.417 121.493,41.775 C 120.569,45.074 115.852,50.000 113.616,50.000 C 113.377,50.000 112.354,48.414 111.341,46.476 Z M 72.921,40.496 C 70.627,38.858 67.737,36.639 66.500,35.564 C 64.254,33.614 64.251,33.608 64.953,31.930 C 65.340,31.006 65.750,29.125 65.864,27.750 C 66.049,25.516 65.864,24.931 64.124,22.250 C 63.054,20.600 60.563,17.757 58.589,15.931 C 56.615,14.106 55.000,12.475 55.000,12.306 C 55.000,11.583 62.107,12.066 65.108,12.993 C 68.897,14.163 73.945,17.290 75.550,19.461 C 76.176,20.307 76.939,21.000 77.246,21.000 C 77.553,21.000 78.579,20.200 79.527,19.222 C 83.656,14.961 90.635,12.000 96.548,12.000 C 98.447,12.000 100.000,12.111 100.000,12.247 C 100.000,12.382 98.020,14.463 95.599,16.872 C 89.403,23.036 87.811,27.032 89.725,31.613 C 90.368,33.152 90.361,33.476 89.663,34.472 C 88.724,35.814 81.579,41.184 78.951,42.525 L 77.091,43.474 L 72.921,40.496 Z" fill="#000000" fill-rule="evenodd" /></svg>