<svg xmlns="http://www.w3.org/2000/svg" viewBox="0 0 157 162" width="157" height="162"><path d="M 66.305,150.088 C 65.777,149.235 68.063,141.782 69.984,138.090 C 72.250,133.736 73.716,131.867 80.971,124.079 C 84.786,119.984 86.524,118.473 87.685,118.245 C 92.428,117.310 98.770,113.910 104.152,109.416 C 109.145,105.247 116.010,98.496 115.949,97.815 C 115.921,97.504 112.332,93.875 107.973,89.750 C 103.614,85.625 100.037,82.011 100.024,81.720 C 100.011,81.428 102.378,79.065 105.284,76.470 C 114.524,68.217 122.501,58.326 127.355,49.105 C 129.926,44.221 133.000,36.246 133.000,34.460 C 133.000,32.683 134.466,33.481 135.543,35.844 C 138.484,42.299 138.917,47.600 136.987,53.500 C 135.205,58.947 128.972,70.281 127.410,70.917 C 126.882,71.131 126.873,72.500 127.400,72.500 C 127.620,72.500 129.089,71.352 130.664,69.948 C 134.146,66.844 139.389,60.205 141.210,56.592 C 141.947,55.130 142.810,54.020 143.126,54.125 C 144.190,54.480 145.044,59.105 144.857,63.500 C 144.580,70.006 143.071,72.563 134.419,81.188 C 130.591,85.003 127.573,88.240 127.713,88.379 C 128.456,89.123 136.530,84.320 141.086,80.425 C 142.645,79.091 144.170,78.000 144.474,78.000 C 145.345,78.000 144.350,85.198 142.984,88.793 C 141.513,92.660 135.841,97.579 128.562,101.299 C 126.062,102.577 124.154,103.845 124.322,104.117 C 124.933,105.104 131.611,103.679 135.893,101.648 C 136.796,101.220 137.664,100.998 137.822,101.155 C 138.297,101.631 136.894,106.349 135.530,108.857 C 133.345,112.876 130.370,114.287 121.791,115.375 C 120.164,115.581 118.747,116.006 118.643,116.320 C 118.430,116.959 123.556,118.000 126.916,118.000 C 128.062,118.000 129.000,118.185 129.000,118.410 C 129.000,119.206 125.459,122.944 123.640,124.068 C 121.385,125.462 116.531,125.574 112.858,124.318 C 109.973,123.332 109.500,123.307 109.500,124.142 C 109.500,124.747 111.678,126.315 113.621,127.109 C 115.088,127.708 114.609,128.885 112.625,129.558 C 110.224,130.372 104.478,130.347 101.213,129.508 C 97.992,128.680 96.138,129.040 91.209,131.449 C 85.755,134.115 81.383,137.342 73.611,144.438 C 69.960,147.772 66.880,150.500 66.766,150.500 C 66.652,150.500 66.444,150.315 66.305,150.088 Z M 85.495,146.665 C 83.160,144.604 81.185,142.740 81.105,142.523 C 80.925,142.035 85.680,138.000 86.434,138.000 C 87.907,138.000 91.375,149.400 90.135,150.166 C 89.918,150.301 87.830,148.725 85.495,146.665 Z M 65.590,131.221 C 60.971,129.062 58.981,128.723 55.672,129.534 C 51.640,130.522 45.692,130.417 43.609,129.321 C 41.678,128.305 41.813,127.945 44.776,126.208 C 45.999,125.492 47.000,124.739 47.000,124.536 C 47.000,123.676 46.288,123.620 44.330,124.325 C 41.277,125.425 35.637,125.435 33.615,124.345 C 31.616,123.268 27.500,119.391 27.500,118.586 C 27.500,118.204 28.535,118.000 30.475,118.000 C 33.858,118.000 38.500,117.128 38.500,116.492 C 38.500,115.914 37.360,115.640 33.306,115.243 C 29.614,114.881 26.177,113.635 23.733,111.771 C 21.762,110.268 19.000,104.698 19.000,102.226 C 19.000,100.957 19.453,100.678 20.275,101.442 C 21.156,102.261 26.728,103.966 29.625,104.303 C 33.374,104.739 33.402,103.942 29.697,102.247 C 23.171,99.262 16.188,93.180 14.247,88.790 C 13.620,87.373 12.825,84.466 12.481,82.330 C 11.644,77.144 12.145,76.668 15.334,79.620 C 21.118,84.974 29.500,89.974 29.500,88.070 C 29.500,87.833 27.836,86.247 25.802,84.544 C 19.828,79.542 14.718,73.144 12.922,68.417 C 12.320,66.832 12.000,64.672 12.000,62.197 C 12.000,58.069 13.204,53.000 14.185,53.000 C 14.523,53.000 15.103,53.841 15.475,54.870 C 16.814,58.572 20.332,63.713 24.674,68.313 C 28.570,72.441 30.500,73.866 30.500,72.615 C 30.500,72.404 29.544,70.950 28.375,69.385 C 27.206,67.820 25.178,64.530 23.869,62.075 C 19.328,53.563 17.914,47.882 18.947,42.303 C 19.527,39.169 21.660,34.019 22.624,33.424 C 23.465,32.904 24.000,33.397 24.000,34.692 C 24.000,36.510 26.235,42.574 28.712,47.478 C 34.508,58.951 41.623,67.713 54.625,79.388 C 55.931,80.561 56.973,81.797 56.940,82.135 C 56.908,82.473 53.442,86.013 49.239,90.000 C 45.036,93.987 41.575,97.503 41.549,97.812 C 41.494,98.448 50.221,106.983 54.962,110.929 C 58.085,113.527 65.389,117.530 68.250,118.211 C 69.764,118.572 75.000,123.647 75.000,124.754 C 75.000,125.068 74.417,125.871 73.705,126.538 C 72.992,127.205 71.623,128.819 70.662,130.125 C 69.701,131.431 68.765,132.492 68.582,132.483 C 68.400,132.473 67.053,131.905 65.590,131.221 Z M 72.750,115.187 C 69.612,114.711 64.800,112.585 61.024,110.005 C 57.727,107.754 48.325,99.094 48.076,98.080 C 47.880,97.281 54.924,89.978 58.750,87.013 C 61.882,84.585 65.868,82.488 69.750,81.226 C 73.833,79.898 83.074,79.854 86.901,81.144 C 93.917,83.509 98.748,86.814 106.000,94.210 L 109.750,98.035 L 105.000,102.570 C 95.462,111.676 88.805,114.989 79.500,115.261 C 76.612,115.346 73.575,115.313 72.750,115.187 Z M 75.000,107.541 C 75.000,107.289 74.584,106.108 74.075,104.916 C 73.567,103.725 72.857,101.261 72.497,99.442 C 71.838,96.108 71.978,94.972 73.772,89.125 C 74.290,87.434 72.793,87.661 68.174,89.973 C 63.117,92.504 58.230,97.061 59.010,98.519 C 59.660,99.734 65.023,104.225 67.153,105.338 C 71.088,107.394 75.000,108.492 75.000,107.541 Z M 85.150,107.074 C 88.806,105.868 92.926,103.346 96.157,100.334 L 98.750,97.918 L 95.267,94.662 C 91.810,91.429 87.242,88.689 84.125,87.977 C 82.264,87.551 82.237,87.628 83.250,90.500 C 84.383,93.711 84.249,100.837 83.000,103.750 C 82.114,105.817 81.689,108.000 82.172,108.000 C 82.267,108.000 83.607,107.584 85.150,107.074 Z M 61.584,78.125 C 60.373,75.777 59.088,61.814 60.029,61.232 C 60.312,61.057 61.109,61.284 61.799,61.736 C 65.211,63.972 74.500,73.535 74.500,74.812 C 74.500,75.142 73.544,75.568 72.375,75.759 C 71.206,75.949 68.562,76.756 66.500,77.550 C 62.078,79.254 62.161,79.245 61.584,78.125 Z M 93.000,78.534 C 91.431,77.623 85.764,76.000 84.152,76.000 C 83.040,76.000 82.360,75.716 82.148,75.164 C 81.589,73.707 95.394,61.000 97.535,61.000 C 98.204,61.000 98.087,62.585 96.760,71.500 C 95.674,78.793 95.146,79.780 93.000,78.534 Z M 74.125,68.032 C 70.611,64.237 70.000,63.322 70.000,61.848 C 70.000,60.309 69.403,59.530 64.606,54.809 C 56.516,46.849 54.126,42.171 55.470,36.930 C 56.257,33.858 57.835,31.000 58.743,31.000 C 59.125,31.000 59.527,31.937 59.732,33.304 C 60.417,37.871 62.192,40.085 70.500,46.730 C 73.662,49.260 76.559,51.705 76.936,52.165 C 77.314,52.624 77.843,53.000 78.114,53.000 C 78.384,53.000 80.212,51.666 82.177,50.035 C 84.142,48.405 87.470,45.721 89.572,44.071 C 91.674,42.422 93.957,40.325 94.646,39.411 C 95.958,37.669 97.500,33.657 97.500,31.983 C 97.500,31.427 97.838,31.000 98.278,31.000 C 99.417,31.000 101.592,36.104 101.646,38.905 C 101.752,44.419 99.521,47.953 91.280,55.327 L 85.907,60.135 L 86.235,62.325 L 86.564,64.515 L 82.523,68.508 C 80.300,70.703 78.430,72.497 78.366,72.493 C 78.302,72.489 76.394,70.481 74.125,68.032 Z M 74.750,40.755 C 72.116,39.831 69.273,36.611 68.547,33.730 C 67.621,30.051 68.654,26.858 73.323,18.976 C 76.586,13.469 78.079,11.681 78.961,12.226 C 79.450,12.528 81.713,16.250 84.600,21.500 C 87.969,27.625 88.785,32.501 87.022,35.957 C 84.672,40.563 79.722,42.498 74.750,40.755 Z M 79.683,33.964 C 80.572,33.264 81.000,32.450 81.000,31.457 C 81.000,29.875 79.102,26.516 78.202,26.506 C 77.129,26.494 75.000,30.010 75.000,31.796 C 75.000,32.610 77.171,35.000 77.910,35.000 C 78.160,35.000 78.958,34.534 79.683,33.964 Z" fill="#000000" fill-rule="evenodd" /></svg>