<svg xmlns="http://www.w3.org/2000/svg" viewBox="0 0 108 118" width="108" height="118"><path d="M 47.500,104.999 C 44.646,103.101 41.871,102.224 36.387,101.487 C 32.581,100.975 31.670,100.647 29.266,98.926 C 27.750,97.840 26.253,96.472 25.939,95.886 C 25.434,94.943 25.638,94.567 27.716,92.603 C 29.007,91.383 29.963,90.126 29.842,89.808 C 29.477,88.858 23.499,86.173 19.750,85.275 C 14.176,83.940 14.121,83.871 12.240,75.857 C 11.309,71.886 11.571,70.500 13.254,70.500 C 13.907,70.500 14.561,70.305 14.709,70.067 C 15.043,69.526 13.287,67.879 12.846,68.320 C 12.669,68.498 12.380,68.270 12.205,67.814 C 11.450,65.845 15.067,47.635 16.309,47.158 C 16.677,47.017 18.502,47.655 20.364,48.576 L 23.750,50.250 L 24.103,56.966 C 24.520,64.900 25.065,67.790 26.844,71.500 C 28.734,75.440 30.514,77.911 33.835,81.203 C 37.959,85.291 40.094,86.634 45.470,88.521 C 49.503,89.937 50.849,90.175 54.720,90.161 C 58.706,90.147 62.395,89.494 65.750,88.211 C 67.389,87.584 72.579,83.947 74.935,81.776 C 77.274,79.621 80.248,75.472 81.689,72.355 C 83.751,67.897 86.000,57.794 86.000,52.988 C 86.000,49.424 86.371,48.780 89.086,47.625 C 90.254,47.129 90.513,47.195 91.140,48.153 C 92.247,49.847 93.795,54.744 94.963,60.248 C 95.974,65.018 95.982,65.277 95.136,65.902 C 94.294,66.525 94.293,66.582 95.125,67.054 C 96.203,67.664 96.228,69.355 95.245,74.916 C 93.968,82.135 93.652,82.497 86.250,85.227 C 83.708,86.164 82.964,86.741 81.375,89.002 C 79.163,92.151 79.091,92.653 80.750,93.409 C 81.438,93.722 82.000,94.188 82.000,94.445 C 82.000,95.237 78.917,97.555 76.270,98.753 C 69.752,101.703 56.733,106.203 56.010,105.756 C 55.730,105.583 55.500,105.018 55.500,104.500 C 55.500,102.336 52.351,102.772 51.559,105.046 C 50.922,106.873 50.306,106.866 47.500,104.999 Z M 48.000,102.280 C 48.000,101.302 47.031,100.769 46.400,101.400 C 46.118,101.682 46.038,102.157 46.223,102.456 C 46.713,103.249 48.000,103.121 48.000,102.280 Z M 36.984,98.625 C 36.962,98.101 35.708,96.500 35.320,96.500 C 35.144,96.500 35.000,97.062 35.000,97.750 C 35.000,98.667 35.267,99.000 36.000,99.000 C 36.550,99.000 36.993,98.831 36.984,98.625 Z M 47.012,94.235 C 47.869,93.203 46.783,90.517 45.876,91.424 C 45.559,91.741 44.889,92.000 44.387,92.000 C 43.534,92.000 43.525,92.098 44.250,93.500 C 45.105,95.154 46.043,95.404 47.012,94.235 Z M 29.000,81.750 C 29.000,80.204 27.297,80.010 26.518,81.467 C 25.764,82.875 25.844,83.000 27.500,83.000 C 28.767,83.000 29.000,82.806 29.000,81.750 Z M 93.125,57.262 C 92.992,56.568 92.572,56.000 92.192,56.000 C 91.366,56.000 91.309,56.708 92.025,58.047 C 92.723,59.351 93.428,58.848 93.125,57.262 Z M 51.125,86.496 C 50.006,86.035 50.000,85.970 50.000,74.991 L 50.000,63.950 L 48.278,62.177 C 47.330,61.202 45.723,59.958 44.706,59.413 C 42.466,58.212 42.019,58.648 42.008,62.052 C 42.002,63.821 42.289,64.666 43.250,65.703 C 44.351,66.890 44.500,67.496 44.500,70.776 C 44.500,72.824 44.297,74.500 44.048,74.500 C 43.799,74.500 42.281,73.760 40.673,72.856 C 39.065,71.951 36.962,70.895 36.000,70.508 C 30.627,68.351 29.823,66.683 33.125,64.546 L 35.000,63.332 L 34.977,59.291 L 34.954,55.250 L 31.169,53.500 C 26.754,51.458 22.781,48.130 21.693,45.560 C 20.799,43.450 20.707,36.722 21.534,34.017 C 22.732,30.103 24.151,27.000 24.743,27.000 C 25.107,27.000 25.607,28.205 25.936,29.875 C 26.976,35.163 28.982,38.528 33.278,42.194 C 36.554,44.989 53.246,56.000 54.207,56.000 C 54.380,56.000 55.360,55.468 56.386,54.819 C 57.411,54.169 60.275,52.457 62.750,51.015 C 71.583,45.866 76.257,42.549 78.120,40.106 C 80.378,37.145 82.293,33.091 83.070,29.625 C 83.394,28.181 83.843,27.000 84.067,27.000 C 84.291,27.000 84.910,27.956 85.442,29.125 C 87.879,34.478 88.703,41.696 87.269,45.127 C 86.577,46.784 80.367,53.000 79.404,53.000 C 79.155,53.000 78.020,53.450 76.882,54.000 C 75.744,54.550 74.521,55.000 74.166,55.000 C 73.286,55.000 72.958,56.662 73.117,60.310 C 73.247,63.293 73.307,63.414 75.498,65.084 C 78.125,67.087 78.564,68.290 76.911,68.956 C 76.272,69.214 73.175,70.565 70.028,71.960 C 65.750,73.857 64.207,74.339 63.910,73.873 C 63.692,73.530 63.657,71.821 63.831,70.073 C 64.076,67.626 64.432,66.613 65.384,65.661 C 66.453,64.592 66.588,64.091 66.382,61.952 C 66.252,60.591 66.001,59.334 65.825,59.159 C 65.233,58.566 61.000,61.112 61.000,62.061 C 61.000,62.558 60.494,63.228 59.875,63.550 C 59.256,63.872 58.638,64.236 58.500,64.358 C 58.362,64.481 58.138,69.569 58.000,75.665 L 57.750,86.750 L 55.000,86.855 C 53.487,86.912 51.744,86.751 51.125,86.496 Z M 58.000,44.767 C 58.000,42.750 58.321,40.860 58.855,39.742 C 59.593,38.194 59.615,37.800 59.022,36.850 C 58.481,35.983 58.360,33.260 58.452,24.022 C 58.516,17.571 58.687,12.102 58.832,11.867 C 59.297,11.115 63.558,12.474 70.291,15.524 C 73.029,16.764 78.240,20.725 79.766,22.727 C 81.546,25.061 81.391,25.690 79.125,25.331 C 76.057,24.846 70.886,25.789 69.890,27.016 C 68.773,28.390 69.148,31.677 70.869,35.607 C 71.557,37.179 71.995,38.792 71.841,39.193 C 71.434,40.254 59.655,48.000 58.449,48.000 C 58.202,48.000 58.000,46.545 58.000,44.767 Z M 44.684,44.607 C 42.173,43.036 39.256,41.044 38.200,40.182 L 36.282,38.614 L 37.641,35.839 C 38.663,33.751 39.000,32.315 39.000,30.043 C 39.000,25.979 37.985,25.263 32.156,25.218 C 29.881,25.201 27.903,25.070 27.760,24.927 C 27.259,24.426 34.785,17.652 37.750,15.935 C 41.617,13.697 45.787,12.048 48.000,11.882 L 49.750,11.750 L 49.884,24.137 C 49.999,34.833 49.914,36.564 49.259,36.816 C 48.260,37.199 48.291,38.720 49.319,39.748 C 50.430,40.858 50.965,47.509 49.942,47.482 C 49.561,47.472 47.196,46.178 44.684,44.607 Z" fill="#000000" fill-rule="evenodd" /></svg>