<svg xmlns="http://www.w3.org/2000/svg" viewBox="0 0 80 118" width="80" height="118"><path d="M 38.136,105.625 C 35.745,104.315 13.795,87.103 12.375,85.424 C 9.807,82.387 13.667,77.230 17.135,79.066 C 18.257,79.660 28.910,87.664 32.888,90.901 C 34.063,91.858 35.104,92.553 35.200,92.446 C 35.785,91.791 35.920,86.660 35.371,85.975 C 35.030,85.549 32.050,83.083 28.750,80.494 C 17.712,71.834 12.580,67.401 12.015,66.037 C 10.987,63.554 13.139,60.500 15.919,60.500 C 16.657,60.500 18.993,61.986 22.013,64.375 C 32.449,72.631 34.929,74.500 35.455,74.500 C 35.792,74.500 36.000,73.273 36.000,71.292 C 36.000,68.119 35.976,68.064 33.755,66.108 C 32.520,65.021 27.714,61.174 23.076,57.559 C 18.438,53.944 14.228,50.528 13.721,49.968 C 11.674,47.706 13.462,43.000 16.370,43.000 C 18.148,43.000 18.852,43.472 29.904,52.084 C 38.770,58.992 40.183,59.926 40.937,59.378 C 41.999,58.607 58.496,45.712 60.548,44.049 C 63.376,41.758 66.737,42.990 67.311,46.530 C 67.703,48.944 66.916,49.792 56.605,58.057 C 43.969,68.186 44.500,67.613 44.500,71.098 C 44.500,72.715 44.723,74.000 45.004,74.000 C 45.281,74.000 49.017,71.244 53.304,67.875 C 63.678,59.725 63.658,59.737 65.538,60.516 C 67.434,61.301 68.672,63.581 68.248,65.507 C 67.913,67.034 64.527,69.967 51.500,80.015 C 47.788,82.879 44.585,85.453 44.383,85.736 C 43.898,86.414 43.891,93.001 44.375,92.996 C 44.581,92.994 48.979,89.619 54.147,85.496 C 59.315,81.373 63.770,78.000 64.047,78.000 C 65.271,78.000 67.551,79.647 68.281,81.060 C 69.595,83.601 68.630,84.926 61.311,90.628 C 57.702,93.439 52.275,97.772 49.250,100.257 C 40.725,107.260 40.937,107.158 38.136,105.625 Z M 38.001,52.692 C 36.097,50.972 36.000,50.740 36.000,47.939 C 36.000,45.353 35.836,44.857 34.655,43.872 C 30.560,40.457 28.976,38.695 27.467,35.876 C 25.935,33.012 25.797,32.393 25.824,28.500 C 25.863,23.099 27.051,20.399 31.226,16.228 C 35.778,11.679 40.503,10.747 45.816,13.348 C 53.555,17.137 56.855,27.465 52.961,35.712 C 51.876,38.010 50.104,40.029 46.775,42.756 L 44.500,44.620 L 44.500,48.008 C 44.500,51.261 44.429,51.459 42.733,52.948 C 41.761,53.802 40.749,54.500 40.484,54.500 C 40.219,54.500 39.102,53.686 38.001,52.692 Z M 42.180,35.994 C 46.799,31.939 47.214,25.001 43.017,22.012 C 40.843,20.464 38.836,20.697 36.800,22.734 C 34.727,24.807 34.034,27.974 34.970,31.099 C 35.532,32.972 39.122,37.500 40.046,37.500 C 40.277,37.500 41.237,36.822 42.180,35.994 Z" fill="#000000" fill-rule="evenodd" /></svg>