<svg xmlns="http://www.w3.org/2000/svg" viewBox="0 0 335 330" width="335" height="330"><path d="M 31.750,317.099 C 28.764,316.061 24.023,312.989 21.672,310.568 C 19.718,308.557 16.782,302.791 16.035,299.500 C 14.612,293.228 15.960,285.937 19.512,280.697 C 21.647,277.547 38.274,260.995 42.506,257.806 C 44.290,256.462 46.538,255.046 47.500,254.659 C 48.462,254.272 49.791,253.684 50.452,253.353 C 51.188,252.984 53.713,252.771 56.952,252.803 C 61.162,252.845 62.851,253.087 65.178,253.983 L 68.106,255.111 L 70.842,252.431 C 72.348,250.956 74.712,248.453 76.096,246.867 L 78.613,243.984 L 77.306,239.794 C 74.660,231.306 76.011,224.477 81.836,216.893 C 84.473,213.460 96.367,201.359 101.250,197.140 C 105.216,193.714 107.767,192.356 112.437,191.185 C 117.236,189.981 122.834,190.654 126.909,192.925 C 128.450,193.784 128.862,193.493 136.428,186.184 C 139.807,182.920 143.511,179.750 144.661,179.139 C 147.252,177.761 152.652,177.562 154.390,178.779 C 155.393,179.482 155.471,179.836 155.181,182.404 C 154.811,185.692 154.223,186.476 144.798,196.250 C 141.616,199.550 139.015,202.588 139.019,203.000 C 139.022,203.412 139.469,205.079 140.012,206.703 C 141.370,210.761 141.397,219.177 140.065,222.823 C 138.604,226.820 136.761,229.079 126.763,239.130 C 112.245,253.726 108.907,255.776 99.750,255.719 C 95.795,255.694 94.197,255.459 92.103,254.592 C 89.709,253.602 89.323,253.566 88.064,254.217 C 87.299,254.613 85.804,256.020 84.742,257.343 C 83.680,258.667 81.858,260.791 80.694,262.062 C 78.666,264.278 78.597,264.456 79.063,266.312 C 80.982,273.971 81.115,275.178 80.517,279.494 C 79.710,285.319 77.636,289.090 71.519,295.855 C 66.150,301.794 56.242,311.550 53.500,313.598 C 52.538,314.317 50.372,315.602 48.688,316.453 C 45.791,317.917 45.320,317.999 39.938,317.984 C 35.865,317.972 33.540,317.721 31.750,317.099 Z M 43.640,304.178 C 44.514,303.726 46.806,301.644 48.732,299.553 C 50.658,297.461 55.312,292.582 59.073,288.710 C 66.570,280.992 67.995,279.062 67.998,276.625 C 68.001,274.535 67.410,274.575 65.387,276.801 C 63.538,278.835 61.564,280.000 59.968,280.000 C 58.184,280.000 55.088,277.946 54.268,276.218 C 52.652,272.812 54.006,268.469 57.011,267.421 C 59.245,266.643 58.807,266.000 56.043,266.000 C 53.805,266.000 53.309,266.235 50.488,268.625 C 48.784,270.069 43.360,275.294 38.434,280.238 C 28.680,290.026 28.085,290.961 28.751,295.464 C 29.235,298.739 30.855,301.307 33.473,302.952 C 34.725,303.738 36.087,304.503 36.500,304.652 C 38.104,305.228 42.125,304.961 43.640,304.178 Z M 103.547,241.348 C 106.432,239.949 108.065,238.471 116.636,229.500 C 128.217,217.378 128.441,217.105 128.615,214.934 C 128.726,213.546 128.577,213.250 127.765,213.250 C 127.223,213.250 126.522,213.766 126.208,214.396 C 125.220,216.378 122.524,218.000 120.217,218.000 C 118.500,218.000 117.740,217.655 115.939,216.057 C 113.886,214.235 113.756,213.965 113.840,211.714 C 113.952,208.741 114.557,207.573 116.770,206.057 C 119.009,204.522 118.955,204.000 116.557,204.000 C 114.166,204.000 109.657,206.855 106.494,210.372 C 105.318,211.680 101.937,215.225 98.981,218.250 C 90.947,226.471 88.024,230.724 89.437,232.137 C 89.852,232.552 90.422,232.301 91.624,231.175 C 95.941,227.130 98.419,226.948 102.125,230.405 C 104.481,232.602 103.781,237.652 100.722,240.526 C 99.560,241.618 99.071,243.031 99.875,242.973 C 100.081,242.958 101.733,242.226 103.547,241.348 Z M 286.808,316.985 C 282.349,315.405 277.139,311.078 267.574,301.008 C 257.738,290.654 254.488,286.154 253.508,281.540 C 252.730,277.870 253.088,271.645 254.262,268.443 C 254.704,267.237 255.184,265.879 255.328,265.426 C 255.505,264.870 253.984,262.873 250.670,259.309 C 245.200,253.426 244.994,253.338 240.620,255.000 C 238.805,255.690 236.790,255.998 234.120,255.995 C 225.476,255.982 220.523,252.975 208.314,240.328 C 199.070,230.752 194.911,225.364 193.876,221.624 C 192.442,216.441 193.032,208.758 195.141,205.141 C 196.264,203.216 196.197,203.090 191.411,198.082 C 189.659,196.249 186.361,192.688 184.081,190.167 C 180.093,185.756 179.920,185.464 179.487,182.409 C 179.062,179.406 179.568,176.265 180.653,175.180 C 180.839,174.994 182.904,175.243 185.241,175.734 C 190.216,176.778 191.660,177.739 195.781,182.750 C 199.237,186.953 204.426,192.393 205.590,193.035 C 206.151,193.344 206.650,193.289 207.090,192.868 C 209.342,190.718 217.254,189.837 221.861,191.224 C 226.296,192.558 227.689,193.304 231.617,196.445 C 237.046,200.788 252.469,216.810 254.449,220.166 C 257.014,224.510 258.000,228.021 258.000,232.813 C 258.000,236.208 257.766,237.482 256.724,239.760 C 255.953,241.446 255.574,242.947 255.767,243.555 C 255.943,244.108 258.316,246.846 261.041,249.641 L 265.995,254.721 L 267.623,254.059 C 272.349,252.134 280.066,252.135 284.902,254.061 C 289.136,255.746 292.360,258.324 301.676,267.474 C 311.428,277.054 314.379,280.576 316.627,285.324 C 318.177,288.596 318.250,289.020 318.250,294.750 C 318.250,300.578 318.201,300.850 316.527,304.250 C 314.193,308.994 309.398,313.797 304.773,316.027 C 301.548,317.582 300.879,317.714 295.523,317.865 C 290.670,318.001 289.281,317.861 286.808,316.985 Z M 297.479,304.458 C 300.549,303.799 302.664,301.855 304.375,298.116 C 305.651,295.329 305.624,293.099 304.275,289.891 C 303.470,287.977 286.590,271.027 282.750,268.277 C 279.567,265.998 275.500,264.776 275.500,266.098 C 275.500,266.476 276.119,267.151 276.875,267.599 C 280.264,269.606 281.404,272.365 280.291,275.871 C 279.790,277.449 276.557,279.803 274.330,280.211 C 272.479,280.550 272.316,280.462 269.830,277.777 C 266.899,274.613 266.000,274.318 266.000,276.520 C 266.000,279.363 268.109,282.182 277.184,291.469 C 287.438,301.962 288.264,302.719 290.872,304.022 C 293.075,305.123 294.072,305.188 297.479,304.458 Z M 234.500,242.428 C 234.500,242.113 233.716,241.157 232.757,240.303 C 231.580,239.254 230.817,237.983 230.407,236.389 C 229.821,234.109 229.852,233.957 231.340,231.889 C 233.331,229.122 234.715,228.393 237.364,228.718 C 240.018,229.044 241.284,229.812 242.571,231.878 C 244.792,235.443 245.080,230.998 242.878,227.132 C 242.258,226.043 237.812,221.099 233.000,216.145 C 226.412,209.364 223.522,206.752 221.305,205.570 C 218.593,204.124 215.000,203.456 215.000,204.397 C 215.000,204.615 216.125,205.855 217.500,207.153 C 219.786,209.310 220.000,209.707 220.000,211.781 C 220.000,216.213 218.065,218.000 213.265,218.000 C 210.680,218.000 210.500,217.910 208.533,215.625 C 206.903,213.733 206.394,213.398 206.027,213.976 C 205.265,215.177 206.033,217.614 207.924,220.000 C 211.712,224.776 228.289,240.692 231.250,242.395 C 232.548,243.141 234.500,243.161 234.500,242.428 Z M 164.500,219.458 C 163.812,219.219 161.619,218.537 159.626,217.942 C 153.648,216.159 153.747,216.711 157.920,208.433 C 167.570,189.293 168.963,188.918 169.026,205.445 C 169.040,209.188 169.217,213.742 169.420,215.566 C 169.623,217.389 169.706,219.133 169.603,219.441 C 169.388,220.086 166.334,220.097 164.500,219.458 Z M 222.731,175.552 C 221.777,174.640 217.363,172.404 214.090,171.174 C 212.253,170.485 210.383,169.590 209.934,169.186 C 209.485,168.782 208.360,168.240 207.434,167.981 C 205.188,167.354 201.069,163.773 201.765,163.053 C 202.465,162.329 210.500,161.593 220.625,161.325 C 230.152,161.072 229.765,160.865 228.067,165.308 C 227.554,166.651 226.864,168.650 226.534,169.750 C 225.956,171.676 225.274,173.453 224.531,174.970 C 224.077,175.897 223.341,176.135 222.731,175.552 Z M 145.455,155.362 C 144.742,155.026 141.063,151.488 137.278,147.500 C 133.494,143.512 130.074,140.065 129.680,139.840 C 129.236,139.586 128.131,139.831 126.783,140.484 C 121.940,142.829 113.720,142.969 108.797,140.792 C 105.177,139.191 101.427,136.022 92.235,126.795 C 81.229,115.748 79.291,113.259 77.069,107.320 C 75.408,102.880 75.816,96.476 78.059,91.781 C 78.577,90.698 79.000,89.559 79.000,89.249 C 79.000,88.940 76.663,86.226 73.808,83.218 L 68.615,77.750 L 67.183,78.573 C 63.220,80.851 57.374,81.557 52.750,80.318 C 45.860,78.472 42.435,75.878 29.671,62.838 C 18.551,51.478 16.621,48.675 15.496,42.248 C 13.626,31.557 20.140,20.798 31.104,16.473 C 38.782,13.444 47.446,15.107 54.500,20.965 C 58.772,24.512 74.451,40.691 76.350,43.511 C 78.663,46.945 79.826,49.807 80.370,53.403 C 80.937,57.151 80.325,62.658 78.997,65.756 C 78.301,67.380 78.147,68.324 78.480,68.912 C 79.340,70.428 88.350,79.000 89.083,79.000 C 89.477,79.000 90.014,78.810 90.275,78.578 C 91.533,77.462 96.931,76.346 100.800,76.402 C 108.979,76.522 112.210,78.671 127.796,94.357 C 136.335,102.950 137.217,104.008 139.112,107.922 C 141.126,112.083 141.168,112.279 141.208,117.709 C 141.244,122.392 141.061,123.773 140.031,126.629 L 138.813,130.007 L 143.531,134.879 C 146.127,137.558 149.863,141.213 151.835,143.000 C 153.806,144.787 155.549,146.700 155.707,147.250 C 155.866,147.800 155.701,149.938 155.341,152.000 L 154.686,155.750 L 150.718,155.862 C 148.388,155.928 146.215,155.722 145.455,155.362 Z M 119.000,128.284 C 119.000,127.890 118.592,127.438 118.093,127.280 C 117.595,127.121 116.336,126.213 115.297,125.261 C 113.510,123.624 113.426,123.413 113.757,121.390 C 114.339,117.828 115.891,115.568 118.175,114.953 C 121.072,114.173 123.216,114.769 125.572,117.011 C 126.707,118.091 127.823,118.859 128.052,118.718 C 128.572,118.397 128.080,115.692 127.173,113.888 C 126.264,112.082 106.178,91.618 104.422,90.709 C 102.984,89.966 99.500,89.729 99.500,90.375 C 99.500,90.581 100.286,91.377 101.247,92.144 C 106.127,96.037 105.172,101.058 98.939,104.281 C 96.830,105.372 95.382,104.897 92.449,102.154 C 91.094,100.886 89.851,99.983 89.687,100.146 C 89.523,100.310 89.798,101.744 90.298,103.332 C 91.034,105.674 91.872,106.893 94.728,109.778 C 96.665,111.734 101.062,116.330 104.500,119.991 C 109.128,124.920 111.399,126.952 113.250,127.819 C 116.108,129.158 119.000,129.392 119.000,128.284 Z M 57.500,66.250 C 57.500,65.838 57.283,65.500 57.017,65.500 C 56.752,65.500 55.739,64.802 54.767,63.948 C 53.242,62.609 53.000,62.092 53.000,60.173 C 53.000,57.105 54.079,55.293 56.647,54.050 C 59.735,52.555 62.990,53.182 65.399,55.736 C 67.538,58.003 68.345,57.517 67.442,54.504 C 66.804,52.374 63.549,48.680 50.545,35.326 C 45.372,30.013 44.360,29.309 40.725,28.494 C 38.669,28.034 38.054,28.100 36.179,28.981 C 34.987,29.541 33.814,30.000 33.573,30.000 C 32.720,30.000 30.469,32.110 29.667,33.661 C 29.173,34.616 28.842,36.516 28.824,38.502 C 28.784,42.809 29.619,43.979 40.087,54.294 C 51.490,65.530 53.286,67.000 55.616,67.000 C 56.957,67.000 57.500,66.784 57.500,66.250 Z M 179.957,153.433 C 179.934,153.057 179.950,151.512 179.992,150.000 C 180.104,146.067 181.625,143.767 188.827,136.650 C 195.555,130.002 195.789,129.530 194.068,126.105 C 191.997,121.987 192.361,113.630 194.834,108.521 C 196.669,104.729 201.357,99.345 212.110,88.682 C 221.359,79.509 223.715,77.873 229.642,76.501 C 233.129,75.695 239.521,76.467 242.307,78.032 C 243.255,78.565 244.242,79.000 244.501,79.000 C 245.304,79.000 255.000,68.878 255.000,68.041 C 255.000,67.606 254.513,66.013 253.918,64.500 C 252.297,60.378 252.396,53.894 254.149,49.370 C 254.870,47.511 256.118,45.036 256.922,43.870 C 259.129,40.673 278.802,21.172 282.034,18.977 C 292.971,11.550 307.247,14.943 314.730,26.750 C 317.426,31.003 318.203,33.726 318.228,39.000 C 318.251,44.052 317.347,47.231 314.599,51.750 C 312.502,55.200 292.158,75.088 288.610,77.155 C 281.679,81.196 275.274,82.057 269.750,79.691 C 264.838,77.587 264.931,77.574 262.196,80.757 C 260.851,82.323 258.794,84.713 257.625,86.069 C 256.456,87.424 255.500,88.821 255.500,89.172 C 255.500,89.523 256.062,91.246 256.750,93.000 C 258.241,96.804 258.453,102.588 257.229,106.062 C 254.965,112.491 253.519,114.502 244.344,123.983 C 239.412,129.080 234.561,134.015 233.563,134.951 C 231.385,136.993 227.406,139.567 225.000,140.489 C 224.037,140.858 223.036,141.349 222.775,141.580 C 222.514,141.811 219.965,142.000 217.110,142.000 C 212.708,142.000 211.435,141.806 208.720,140.719 C 204.892,139.188 205.201,139.033 199.500,145.364 C 192.374,153.278 193.089,152.821 187.309,153.157 C 184.527,153.319 181.744,153.601 181.125,153.784 C 180.352,154.012 179.987,153.903 179.957,153.433 Z M 220.139,127.498 C 224.587,125.530 242.987,106.676 243.993,103.054 C 245.027,99.332 244.348,98.405 242.495,101.008 C 240.458,103.868 237.323,104.710 234.380,103.188 C 229.736,100.786 229.291,95.033 233.508,91.915 C 234.329,91.308 235.000,90.517 235.000,90.156 C 235.000,89.255 232.292,89.314 230.301,90.259 C 228.100,91.304 207.820,111.824 206.791,114.048 C 205.157,117.580 205.836,120.599 207.577,117.539 C 208.778,115.430 210.635,114.412 213.446,114.326 C 215.443,114.265 216.168,114.485 217.222,115.474 C 221.173,119.183 220.761,124.086 216.298,126.474 C 215.584,126.856 215.000,127.468 215.000,127.834 C 215.000,128.821 217.521,128.656 220.139,127.498 Z M 280.941,65.908 C 283.613,64.294 285.198,62.940 290.984,57.327 C 298.125,50.401 302.910,45.115 304.049,42.895 C 305.220,40.610 305.296,36.522 304.205,34.412 C 301.766,29.697 296.177,27.531 290.938,29.271 C 288.638,30.035 287.323,31.091 281.689,36.706 C 271.140,47.217 266.586,52.360 266.024,54.395 C 265.237,57.246 266.091,57.429 269.206,55.077 C 270.719,53.935 272.411,53.000 272.965,53.000 C 274.717,53.000 278.258,55.040 279.400,56.707 C 281.161,59.277 280.863,61.155 278.250,63.948 C 277.012,65.271 276.000,66.499 276.000,66.677 C 276.000,67.425 279.271,66.916 280.941,65.908 Z M 168.190,136.125 C 168.037,135.644 167.288,133.562 166.526,131.500 C 165.763,129.438 164.623,126.062 163.992,124.000 C 163.361,121.938 162.317,118.841 161.672,117.120 C 160.000,112.653 160.086,112.145 162.625,111.495 C 163.794,111.195 165.088,110.828 165.500,110.679 C 169.523,109.220 175.000,108.518 175.000,109.461 C 175.000,109.714 174.547,112.696 173.992,116.086 C 173.048,121.860 172.580,124.349 171.514,129.250 C 171.275,130.350 170.820,132.544 170.504,134.125 C 169.924,137.024 168.789,138.005 168.190,136.125 Z" fill="#000000" fill-rule="evenodd" /></svg>