<svg xmlns="http://www.w3.org/2000/svg" viewBox="0 0 251 254" width="251" height="254"><path d="M 125.825,235.621 C 125.447,235.010 123.660,227.057 122.483,220.750 C 121.969,218.000 121.084,213.500 120.514,210.750 C 119.945,208.000 119.272,204.512 119.020,203.000 C 118.767,201.488 117.868,196.537 117.022,192.000 C 116.176,187.463 115.235,181.950 114.930,179.750 C 114.626,177.550 114.180,175.537 113.940,175.277 C 113.480,174.778 112.547,175.785 111.419,178.000 C 110.573,179.660 107.894,183.621 107.191,184.250 C 106.884,184.525 105.854,186.213 104.902,188.000 C 103.611,190.425 93.791,206.421 92.644,207.967 C 92.556,208.086 92.235,207.935 91.932,207.632 C 91.531,207.231 91.591,206.357 92.152,204.416 C 92.575,202.950 93.532,198.825 94.279,195.250 C 95.025,191.675 95.833,188.220 96.075,187.572 C 96.729,185.824 99.000,174.336 99.000,172.779 C 99.000,172.040 99.243,170.980 99.541,170.424 C 100.410,168.799 99.758,168.822 97.172,170.507 C 81.961,180.424 78.745,182.627 67.125,191.089 C 61.693,195.044 58.922,197.056 56.375,198.895 C 54.931,199.938 51.886,202.188 49.607,203.895 C 45.881,206.687 44.500,207.463 44.500,206.766 C 44.500,206.435 48.566,200.323 51.163,196.750 C 52.362,195.100 55.504,190.713 58.145,187.000 C 60.787,183.287 63.616,179.350 64.432,178.250 C 65.249,177.150 66.859,174.697 68.010,172.800 C 69.161,170.902 71.936,166.692 74.176,163.443 C 78.999,156.451 82.123,151.456 81.847,151.181 C 81.674,151.008 78.499,151.630 72.500,153.013 C 71.537,153.235 68.162,154.103 65.000,154.942 C 61.837,155.781 57.000,157.042 54.250,157.744 C 51.500,158.446 48.904,159.213 48.481,159.448 C 48.058,159.684 46.737,160.041 45.546,160.242 C 43.834,160.532 43.425,160.466 43.592,159.929 C 43.868,159.044 53.630,152.401 61.250,147.913 C 64.550,145.970 68.825,143.204 70.750,141.767 C 72.675,140.329 74.644,139.014 75.125,138.843 C 76.586,138.323 76.108,137.562 74.125,137.250 C 71.688,136.867 70.201,136.566 67.750,135.962 C 66.650,135.691 63.500,135.048 60.750,134.534 C 58.000,134.019 53.950,133.245 51.750,132.813 C 49.550,132.381 43.475,131.218 38.250,130.229 C 33.025,129.239 26.500,127.905 23.750,127.265 C 21.000,126.624 17.850,125.909 16.750,125.675 C 15.650,125.441 14.803,125.025 14.867,124.750 C 14.997,124.196 17.736,123.595 28.500,121.759 C 36.192,120.446 42.520,119.231 60.250,115.659 C 66.300,114.441 72.442,113.207 73.899,112.918 C 75.356,112.629 76.472,112.165 76.379,111.886 C 76.286,111.608 75.248,110.839 74.072,110.179 C 72.896,109.518 69.593,107.408 66.733,105.489 C 63.873,103.570 61.430,102.000 61.303,102.000 C 60.855,102.000 53.196,97.130 49.443,94.459 C 47.349,92.969 45.212,91.495 44.693,91.184 C 42.326,89.762 45.128,90.021 52.614,91.915 C 64.974,95.043 74.998,97.411 77.500,97.793 C 78.737,97.982 80.163,98.349 80.668,98.609 C 81.173,98.869 81.689,98.977 81.816,98.851 C 82.010,98.656 75.682,88.929 69.389,79.750 C 68.447,78.375 66.625,75.675 65.342,73.750 C 64.059,71.825 61.488,68.083 59.629,65.435 C 57.771,62.786 55.026,58.849 53.529,56.685 C 52.033,54.521 49.389,50.887 47.654,48.611 C 42.979,42.476 43.484,41.847 49.448,46.375 C 51.531,47.956 53.801,49.633 54.492,50.101 C 55.184,50.570 58.900,53.220 62.750,55.991 C 66.600,58.762 74.772,64.402 80.910,68.524 C 87.048,72.647 93.550,77.140 95.360,78.510 C 98.949,81.227 99.501,81.442 99.498,80.125 C 99.496,78.803 97.649,69.591 96.817,66.750 C 95.929,63.718 93.683,54.014 93.230,51.250 C 93.049,50.150 92.586,48.140 92.201,46.784 C 91.393,43.944 91.325,43.000 91.927,43.000 C 92.380,43.000 100.104,54.532 105.831,63.759 C 109.691,69.978 113.118,74.985 113.520,74.994 C 113.749,74.999 115.799,65.785 117.022,59.250 C 117.228,58.150 117.891,54.775 118.496,51.750 C 119.101,48.725 119.997,44.225 120.487,41.750 C 120.978,39.275 121.725,35.562 122.147,33.500 C 122.570,31.438 123.180,28.175 123.503,26.250 C 123.826,24.325 124.295,21.807 124.545,20.654 C 124.795,19.501 125.000,17.794 125.000,16.862 C 125.000,15.930 125.148,15.019 125.329,14.838 C 125.979,14.188 127.000,15.654 127.000,17.237 C 127.000,18.124 127.201,19.503 127.448,20.300 C 127.694,21.098 128.373,24.000 128.957,26.750 C 129.541,29.500 130.238,32.763 130.504,34.000 C 130.771,35.237 131.342,38.275 131.773,40.750 C 132.204,43.225 132.792,46.487 133.079,48.000 C 133.366,49.513 133.777,51.763 133.994,53.000 C 135.589,62.123 138.578,75.000 139.100,75.000 C 139.306,75.000 139.850,74.269 140.309,73.375 C 140.769,72.481 141.979,70.513 142.998,69.000 C 144.018,67.487 145.749,64.787 146.846,63.000 C 147.943,61.212 151.126,56.208 153.920,51.880 C 156.714,47.551 159.000,43.810 159.000,43.566 C 159.000,42.959 160.459,41.792 160.796,42.130 C 161.067,42.400 160.745,44.292 159.204,51.500 C 158.763,53.562 158.212,56.150 157.979,57.250 C 157.745,58.350 157.335,60.150 157.066,61.250 C 155.892,66.054 154.456,73.006 154.009,76.053 C 153.742,77.869 153.382,79.725 153.209,80.178 C 152.502,82.020 154.139,81.045 165.266,73.000 C 171.013,68.845 175.716,65.533 185.103,59.031 C 192.515,53.896 203.584,45.969 205.625,44.335 C 206.656,43.509 207.662,42.996 207.861,43.195 C 208.329,43.662 207.650,44.714 202.451,51.576 C 200.087,54.697 193.204,64.675 187.157,73.750 C 171.011,97.979 169.925,99.806 172.429,98.519 C 173.585,97.925 176.426,97.197 182.500,95.936 C 187.626,94.872 196.974,92.577 204.500,90.535 C 206.562,89.975 208.306,89.513 208.375,89.509 C 208.955,89.469 208.297,90.947 207.578,91.299 C 207.071,91.547 204.652,93.163 202.203,94.890 C 195.791,99.411 179.778,109.793 178.006,110.577 C 175.792,111.558 176.162,112.334 179.125,112.921 C 180.569,113.208 182.762,113.679 184.000,113.969 C 185.238,114.258 188.613,114.971 191.500,115.551 C 197.202,116.697 198.382,116.924 207.000,118.535 C 210.162,119.126 213.650,119.786 214.750,120.002 C 215.850,120.218 218.775,120.759 221.250,121.206 C 227.163,122.272 229.486,122.748 234.000,123.819 C 236.062,124.308 237.919,124.662 238.125,124.604 C 238.331,124.547 238.500,124.721 238.500,124.990 C 238.500,125.260 237.881,125.610 237.125,125.769 C 236.369,125.927 234.850,126.258 233.750,126.504 C 232.650,126.750 229.162,127.414 226.000,127.978 C 222.838,128.543 219.125,129.232 217.750,129.509 C 216.375,129.787 212.100,130.586 208.250,131.284 C 204.400,131.983 200.125,132.760 198.750,133.012 C 195.568,133.594 187.644,135.302 183.750,136.245 C 182.100,136.645 179.790,137.051 178.617,137.148 C 176.156,137.351 175.848,137.917 177.614,138.993 C 178.299,139.409 180.634,140.988 182.804,142.500 C 184.974,144.012 189.490,146.938 192.839,149.000 C 201.463,154.311 209.035,159.539 208.756,159.990 C 208.413,160.545 202.474,159.256 190.250,155.975 C 184.094,154.323 183.592,154.205 176.750,152.798 C 174.550,152.346 172.244,151.865 171.625,151.729 C 170.313,151.440 170.078,152.527 171.243,153.494 C 171.651,153.833 176.229,160.442 181.415,168.180 C 193.083,185.591 202.196,198.795 206.375,204.349 C 207.269,205.537 208.000,206.619 208.000,206.754 C 208.000,207.444 206.579,206.802 204.296,205.079 C 197.670,200.080 187.839,193.178 172.750,182.934 C 169.450,180.694 165.850,178.138 164.750,177.254 C 163.650,176.371 161.963,175.245 161.000,174.754 C 160.037,174.263 159.137,173.704 159.000,173.513 C 158.439,172.734 153.243,169.521 153.123,169.880 C 153.015,170.205 155.632,183.132 156.994,189.000 C 158.924,197.316 160.636,205.031 160.850,206.375 C 161.104,207.967 160.407,208.640 159.814,207.375 C 159.346,206.377 157.564,203.574 152.750,196.268 C 147.171,187.799 144.922,184.316 141.824,179.344 C 139.385,175.430 138.367,174.797 138.113,177.039 C 138.037,177.705 137.546,180.162 137.020,182.500 C 135.787,187.984 132.121,206.776 131.241,212.117 C 128.071,231.376 126.748,237.115 125.825,235.621 Z M 127.000,171.679 C 127.000,170.677 127.426,168.371 127.946,166.554 C 128.466,164.737 129.633,160.100 130.540,156.250 C 132.336,148.628 133.062,146.486 134.159,145.576 C 135.578,144.398 144.323,148.813 155.750,156.477 C 158.225,158.137 160.321,159.284 160.408,159.024 C 160.495,158.765 159.667,157.417 158.569,156.028 C 157.472,154.639 155.310,151.421 153.765,148.876 C 152.221,146.332 150.739,143.912 150.473,143.500 C 149.171,141.480 146.000,135.291 146.000,134.768 C 146.000,132.339 153.873,129.718 170.624,126.572 C 173.029,126.120 175.036,125.525 175.084,125.250 C 175.132,124.975 173.277,124.363 170.961,123.890 C 158.316,121.308 148.821,118.480 147.375,116.866 C 146.050,115.387 146.299,114.116 148.754,109.817 C 149.989,107.655 151.000,105.813 151.000,105.726 C 151.000,105.239 159.051,93.596 159.940,92.798 C 162.191,90.775 160.599,90.315 157.949,92.223 C 156.025,93.608 148.103,98.670 145.783,99.997 C 144.940,100.480 142.675,101.787 140.750,102.902 C 138.825,104.017 136.638,105.080 135.891,105.265 C 134.695,105.560 134.443,105.399 133.794,103.925 C 132.759,101.574 131.204,96.296 130.502,92.750 C 129.907,89.751 128.358,83.579 127.490,80.750 C 127.237,79.925 126.891,78.357 126.722,77.265 C 126.340,74.808 125.750,75.623 125.070,79.546 C 124.812,81.033 124.101,84.388 123.489,87.000 C 122.877,89.612 121.994,93.560 121.525,95.773 C 120.473,100.743 118.287,105.004 116.796,104.991 C 116.220,104.986 113.388,103.631 110.500,101.981 C 104.499,98.550 105.078,98.910 97.886,94.125 C 94.890,92.131 92.201,90.500 91.912,90.500 C 91.352,90.500 92.377,92.279 94.361,94.750 C 96.222,97.068 99.707,102.565 101.873,106.598 C 102.951,108.607 104.442,111.300 105.186,112.584 C 107.343,116.303 106.577,117.736 101.750,119.016 C 100.925,119.234 99.013,119.743 97.500,120.146 C 93.808,121.130 83.338,123.400 80.319,123.871 C 77.247,124.350 77.112,125.130 80.011,125.656 C 81.242,125.880 83.037,126.260 84.000,126.501 C 84.963,126.742 88.738,127.642 92.389,128.502 C 96.041,129.361 100.541,130.671 102.389,131.413 C 105.426,132.631 105.765,132.909 105.900,134.297 C 106.057,135.897 103.328,141.127 99.046,147.432 C 97.921,149.089 97.000,150.580 97.000,150.745 C 97.000,150.910 95.915,152.666 94.588,154.648 C 91.321,159.529 91.335,159.500 92.135,159.500 C 92.517,159.500 94.421,158.262 96.368,156.750 C 98.315,155.238 100.053,154.000 100.231,154.000 C 100.409,154.000 101.934,153.063 103.620,151.918 C 105.306,150.774 109.023,148.616 111.880,147.125 C 116.871,144.519 117.112,144.446 118.040,145.286 C 119.067,146.216 120.436,150.342 122.062,157.412 C 122.997,161.479 124.435,167.332 125.552,171.625 C 126.175,174.016 127.000,174.047 127.000,171.679 Z" fill="#000000" fill-rule="evenodd" /></svg>