<svg xmlns="http://www.w3.org/2000/svg" viewBox="0 0 331 312" width="331" height="312"><path d="M 91.689,292.282 C 86.096,289.847 88.714,281.841 94.555,283.516 C 97.078,284.239 98.000,285.380 98.000,287.776 C 98.000,289.577 97.734,290.130 96.233,291.448 C 94.256,293.183 93.908,293.247 91.689,292.282 Z M 161.806,287.815 L 160.361,287.143 L 161.556,286.854 C 162.213,286.695 164.438,286.424 166.500,286.251 C 180.694,285.063 200.606,277.991 212.500,269.914 C 220.611,264.406 221.638,263.606 226.855,258.735 C 232.639,253.333 237.945,246.944 241.909,240.608 C 243.334,238.331 244.500,236.362 244.500,236.233 C 244.500,235.528 242.942,236.238 240.615,238.002 C 239.166,239.101 237.625,240.000 237.192,240.000 C 236.759,240.000 235.807,240.421 235.077,240.935 C 234.347,241.450 231.387,242.704 228.500,243.721 C 218.574,247.220 214.774,248.250 207.250,249.479 C 205.325,249.794 202.784,250.297 201.603,250.597 C 198.468,251.393 180.401,250.820 174.750,249.744 C 167.162,248.300 159.698,246.124 154.250,243.766 C 153.425,243.409 151.963,242.827 151.000,242.471 C 150.037,242.116 148.653,241.415 147.923,240.913 C 147.193,240.411 146.475,240.000 146.328,240.000 C 146.181,240.000 143.916,238.663 141.296,237.029 C 134.471,232.772 127.880,227.301 122.773,221.654 C 120.334,218.957 118.093,216.615 117.794,216.449 C 116.816,215.908 107.500,216.574 107.505,217.185 C 107.525,219.578 117.361,231.615 123.803,237.128 C 127.799,240.549 135.392,245.990 136.178,245.997 C 136.413,245.998 137.313,246.600 138.178,247.334 C 139.875,248.774 150.827,254.134 154.500,255.322 C 155.738,255.723 157.200,256.253 157.750,256.501 C 159.027,257.077 165.524,258.690 171.000,259.790 C 173.413,260.275 180.329,260.893 187.000,261.219 C 200.038,261.857 200.045,261.867 189.250,264.027 C 182.349,265.408 168.547,265.902 161.089,265.035 C 151.052,263.868 141.974,261.035 129.574,255.200 C 127.003,253.990 124.782,253.000 124.640,253.000 C 124.498,253.000 122.778,251.802 120.816,250.339 C 118.855,248.875 116.131,246.917 114.762,245.987 C 107.473,241.034 95.552,226.782 91.458,218.125 C 90.485,216.068 90.378,216.000 88.098,216.000 C 86.803,216.000 84.972,215.779 84.030,215.509 C 83.087,215.238 82.212,215.121 82.085,215.248 C 81.722,215.611 83.992,222.508 85.295,225.000 C 85.942,226.238 86.929,228.262 87.488,229.500 C 88.398,231.514 89.169,232.897 92.750,238.937 C 93.913,240.899 98.666,247.022 102.231,251.151 C 106.655,256.275 118.050,265.796 123.535,268.952 C 131.001,273.247 129.978,274.300 121.604,270.939 C 106.294,264.793 89.100,251.632 81.242,240.043 C 78.007,235.272 73.680,228.588 72.798,227.000 C 70.827,223.453 67.619,217.011 66.944,215.248 C 66.208,213.326 66.048,213.219 62.963,212.587 C 59.202,211.816 52.054,210.170 49.380,209.460 C 47.764,209.030 47.304,209.115 45.994,210.083 C 44.182,211.423 39.058,211.927 36.346,211.032 C 34.544,210.437 30.003,206.050 29.996,204.896 C 29.993,204.541 28.632,203.374 26.970,202.303 C 22.364,199.336 19.334,196.366 17.105,192.636 C 14.712,188.633 14.007,186.288 14.003,182.327 C 13.997,176.047 17.008,169.372 23.502,161.269 C 29.105,154.279 32.409,151.080 39.095,146.173 C 53.231,135.798 61.173,130.937 76.250,123.431 C 81.200,120.967 85.641,118.737 86.118,118.475 C 86.596,118.214 87.192,118.000 87.444,118.000 C 87.695,118.000 89.779,117.133 92.075,116.074 C 101.904,111.539 124.449,103.886 133.750,101.928 C 135.125,101.638 137.262,101.189 138.500,100.930 C 150.021,98.516 159.647,97.663 166.963,98.408 C 170.106,98.728 172.784,98.883 172.915,98.751 C 173.321,98.346 167.911,96.209 164.750,95.526 C 163.100,95.170 160.988,94.690 160.057,94.461 C 155.089,93.235 146.416,92.824 138.867,93.457 C 131.061,94.111 130.474,94.204 122.750,96.015 C 118.271,97.065 111.334,99.324 108.000,100.818 C 105.261,102.045 89.971,109.750 87.748,111.023 C 81.336,114.697 66.234,121.856 66.102,121.285 C 65.934,120.555 68.477,115.729 70.600,112.750 C 80.411,98.979 85.420,93.836 95.568,87.111 C 101.596,83.117 106.239,80.683 113.545,77.692 C 119.041,75.441 127.105,73.006 129.089,72.997 C 129.452,72.996 130.638,72.748 131.723,72.447 C 133.399,71.981 133.562,71.824 132.806,71.402 C 131.484,70.662 117.994,72.346 111.750,74.030 C 110.650,74.327 109.188,74.691 108.500,74.839 C 107.812,74.987 104.775,76.025 101.750,77.145 C 92.936,80.409 83.722,85.544 77.000,90.940 C 72.305,94.709 66.214,100.935 62.399,105.864 C 58.274,111.193 57.494,111.997 57.509,110.905 C 57.542,108.324 61.182,94.360 63.053,89.631 C 64.478,86.029 68.397,78.202 70.831,74.095 C 71.533,72.910 71.991,71.825 71.849,71.682 C 71.359,71.193 66.057,77.416 60.250,85.295 C 55.061,92.336 48.421,104.427 45.949,111.333 C 43.803,117.331 41.286,124.821 40.601,127.250 C 37.500,138.235 37.070,139.500 36.439,139.500 C 35.864,139.500 35.887,138.893 36.745,131.500 C 37.980,120.853 39.043,115.879 41.983,107.000 C 46.700,92.756 51.933,82.365 60.169,70.885 C 71.435,55.182 87.465,41.303 103.868,33.046 C 124.384,22.720 140.383,18.979 163.915,19.008 C 169.646,19.015 172.229,19.438 171.428,20.238 C 171.267,20.399 169.924,20.650 168.443,20.795 C 163.113,21.317 148.348,24.272 145.000,25.487 C 144.312,25.736 141.500,26.758 138.750,27.758 C 131.245,30.487 118.606,37.194 112.500,41.689 C 104.103,47.869 92.333,60.504 88.172,67.805 C 86.977,69.901 86.000,71.812 86.000,72.053 C 86.000,72.294 88.306,71.293 91.125,69.828 C 103.141,63.582 117.967,59.072 130.158,57.954 C 139.938,57.058 152.895,57.584 160.000,59.165 C 167.907,60.925 177.442,64.199 181.750,66.633 C 182.300,66.943 184.445,68.118 186.516,69.243 C 199.537,76.316 211.953,89.190 218.108,102.000 C 222.434,111.001 223.760,115.365 225.237,125.462 C 227.163,138.623 225.031,149.728 217.851,163.926 C 216.241,167.108 208.803,174.500 207.210,174.500 C 206.823,174.500 204.581,175.498 202.230,176.718 C 199.878,177.938 195.658,179.648 192.852,180.518 C 190.046,181.387 186.400,182.739 184.750,183.521 C 183.100,184.303 180.175,185.436 178.250,186.039 C 176.325,186.642 174.525,187.292 174.250,187.485 C 173.975,187.677 172.062,188.337 170.000,188.952 C 167.938,189.567 165.125,190.505 163.750,191.037 C 162.375,191.569 159.710,192.429 157.828,192.948 L 154.405,193.892 L 151.828,191.792 C 147.854,188.552 143.083,181.254 141.930,176.650 C 140.526,171.045 140.052,168.248 140.440,167.860 C 140.681,167.619 141.528,168.490 142.365,169.840 C 149.520,181.379 165.720,185.910 182.000,180.925 C 185.733,179.782 191.986,176.740 195.405,174.405 C 199.932,171.312 204.183,166.115 207.440,159.690 C 210.692,153.274 212.035,139.411 210.277,130.400 C 209.544,126.642 207.839,121.164 207.213,120.555 C 206.936,120.285 207.277,125.625 207.800,129.750 C 208.040,131.636 207.166,140.432 206.410,143.750 C 205.597,147.317 203.463,152.266 201.237,155.750 C 199.289,158.798 194.197,164.500 193.424,164.500 C 192.630,164.500 192.997,163.049 194.263,161.184 C 194.957,160.160 195.653,158.744 195.810,158.037 C 195.966,157.329 196.411,156.039 196.800,155.169 C 197.487,153.629 198.570,146.513 198.651,143.000 C 198.778,137.508 197.858,133.237 195.472,128.250 C 194.156,125.500 192.106,122.111 190.915,120.718 C 186.625,115.701 180.412,111.574 173.984,109.470 C 170.105,108.200 164.500,107.586 164.500,108.432 C 164.500,108.744 164.747,109.000 165.050,109.000 C 165.352,109.000 167.816,110.255 170.524,111.788 C 175.136,114.399 178.428,117.193 181.110,120.772 C 181.737,121.609 182.752,122.786 183.366,123.388 C 184.436,124.437 188.500,132.434 188.500,133.490 C 188.500,134.545 187.454,133.926 185.385,131.649 C 180.421,126.185 178.224,124.462 172.756,121.749 C 164.737,117.770 160.611,116.856 150.750,116.875 C 142.332,116.892 141.287,117.076 133.750,119.868 C 128.866,121.677 121.134,125.784 118.750,127.836 C 117.650,128.782 115.279,130.756 113.480,132.220 C 110.550,134.607 106.639,139.710 102.920,146.000 C 102.057,147.459 99.298,154.461 98.585,157.000 C 96.153,165.659 95.787,168.256 95.800,176.750 C 95.816,187.275 97.427,196.266 100.691,204.040 C 101.928,206.988 102.379,207.158 107.354,206.559 C 109.772,206.268 116.138,205.556 121.500,204.977 C 131.119,203.939 137.842,202.965 141.750,202.044 C 142.850,201.785 145.775,201.096 148.250,200.512 C 150.725,199.929 153.312,199.333 154.000,199.189 C 157.881,198.375 161.573,197.401 164.000,196.550 C 165.512,196.020 167.610,195.426 168.661,195.230 C 169.713,195.035 172.413,194.213 174.661,193.403 C 176.910,192.593 179.650,191.696 180.750,191.409 C 181.850,191.122 184.213,190.254 186.000,189.480 C 187.787,188.707 191.725,187.115 194.750,185.944 C 197.775,184.772 202.050,182.994 204.250,181.993 C 206.450,180.991 209.257,179.739 210.489,179.211 C 220.357,174.976 242.281,162.996 249.750,157.758 C 251.400,156.601 255.338,153.896 258.500,151.746 C 276.180,139.730 292.753,123.377 298.653,112.126 C 302.560,104.675 303.164,99.402 300.628,94.882 C 299.617,93.082 298.486,91.878 297.051,91.074 L 294.951,89.898 L 292.891,91.324 C 291.130,92.543 290.355,92.748 287.541,92.739 C 282.257,92.721 280.308,91.370 276.723,85.239 C 276.269,84.461 275.177,84.293 268.723,84.002 C 264.613,83.817 261.032,83.858 260.765,84.093 C 260.463,84.359 261.532,87.022 263.589,91.135 C 268.897,101.747 271.572,111.928 273.272,128.000 L 273.563,130.750 L 269.407,134.804 C 265.137,138.969 259.960,143.089 252.500,148.257 C 250.162,149.877 247.350,151.907 246.250,152.770 C 244.179,154.394 239.296,157.507 236.084,159.250 C 235.071,159.800 233.456,160.844 232.496,161.570 C 230.116,163.370 224.096,167.000 223.491,167.000 C 222.596,167.000 222.976,166.021 225.387,162.116 C 227.697,158.376 230.371,152.604 231.464,149.000 C 234.083,140.365 234.538,137.440 234.538,129.257 C 234.538,112.901 228.095,95.712 216.637,81.500 C 210.904,74.389 200.794,65.400 194.500,61.818 C 175.887,51.225 157.820,46.296 140.823,47.172 C 137.483,47.344 134.131,47.627 133.375,47.801 C 132.593,47.980 132.000,47.904 132.000,47.625 C 132.000,46.830 136.627,45.136 142.131,43.916 C 146.541,42.939 148.705,42.780 157.750,42.769 C 171.955,42.751 176.953,43.754 194.500,50.149 C 202.459,53.050 211.245,58.456 219.750,65.685 C 224.584,69.794 231.185,76.909 233.247,80.235 C 233.799,81.124 235.215,83.291 236.394,85.051 C 238.931,88.836 242.954,96.839 244.788,101.750 C 245.507,103.675 246.881,108.175 247.842,111.750 C 249.344,117.340 249.622,119.265 249.831,125.500 C 250.101,133.585 250.285,134.753 251.069,133.355 C 252.156,131.421 252.696,119.623 252.070,111.529 C 251.084,98.791 248.747,90.677 242.269,77.500 C 240.599,74.104 236.135,67.034 234.076,64.524 C 233.072,63.300 231.523,61.281 230.633,60.038 C 227.708,55.947 217.559,47.353 208.250,41.085 C 198.728,34.673 198.305,34.155 203.956,35.826 C 207.972,37.013 217.270,41.692 224.504,46.165 C 233.570,51.772 244.918,62.366 251.693,71.550 L 255.603,76.851 L 266.399,77.203 L 277.196,77.556 L 279.496,75.054 C 282.205,72.107 283.565,71.500 287.458,71.500 C 289.863,71.500 290.691,71.747 292.373,72.966 C 294.965,74.843 296.998,77.511 297.008,79.047 C 297.018,80.742 297.271,80.992 301.750,83.744 C 310.699,89.243 314.799,95.097 315.235,103.000 C 315.483,107.493 315.251,108.928 313.500,113.750 C 309.711,124.184 296.529,139.351 280.292,151.961 C 273.594,157.162 263.593,164.142 259.750,166.297 C 259.200,166.605 256.387,168.273 253.500,170.003 C 250.613,171.734 247.519,173.566 246.625,174.075 C 245.731,174.584 244.156,175.492 243.125,176.094 C 239.915,177.967 226.389,185.039 223.500,186.355 C 221.988,187.044 218.842,188.506 216.510,189.604 C 214.178,190.702 211.365,191.940 210.260,192.355 C 209.154,192.771 207.350,193.494 206.250,193.962 C 205.150,194.431 202.613,195.346 200.613,195.996 C 192.293,198.698 201.696,197.934 212.000,195.070 C 221.923,192.313 237.752,185.525 247.625,179.793 C 248.931,179.035 250.000,178.655 250.000,178.949 C 250.000,180.001 243.541,187.824 239.355,191.842 C 233.753,197.219 229.808,200.079 223.888,203.053 C 218.869,205.575 218.007,205.933 210.000,208.814 C 200.011,212.409 186.058,213.125 172.500,210.738 C 168.238,209.987 164.075,209.281 163.250,209.169 L 161.750,208.965 L 162.968,209.858 C 165.119,211.434 171.614,214.072 176.500,215.353 C 182.881,217.026 195.961,217.502 202.750,216.307 C 211.322,214.799 216.231,213.453 220.343,211.482 C 222.045,210.667 223.632,210.000 223.870,210.000 C 224.653,210.000 234.679,203.230 238.250,200.289 C 244.479,195.159 254.045,183.725 258.309,176.311 C 260.061,173.265 261.290,172.190 265.930,169.648 C 267.206,168.949 268.963,167.947 269.835,167.422 C 270.707,166.897 271.534,166.650 271.672,166.874 C 272.097,167.561 268.720,178.449 266.361,184.000 C 262.524,193.030 256.470,201.845 248.657,209.774 C 240.988,217.558 233.642,222.780 223.500,227.656 C 215.196,231.648 213.341,232.410 209.250,233.512 C 198.670,236.362 198.572,236.405 202.608,236.457 C 207.243,236.516 216.733,235.191 219.750,234.063 C 221.125,233.549 223.262,232.842 224.500,232.492 C 229.650,231.036 231.511,230.303 236.661,227.708 C 246.157,222.923 253.308,217.614 262.496,208.528 C 265.432,205.625 269.052,201.802 270.542,200.033 C 272.815,197.333 273.275,196.987 273.406,197.880 C 273.492,198.466 273.308,199.801 272.997,200.847 C 272.686,201.894 272.022,204.325 271.521,206.250 C 270.376,210.652 269.205,214.150 267.966,216.870 C 267.435,218.035 267.000,219.257 267.000,219.583 C 267.000,220.359 262.614,229.016 261.703,230.039 C 261.316,230.474 261.000,231.065 261.000,231.353 C 261.000,231.642 260.663,232.158 260.250,232.500 C 259.837,232.842 259.500,233.375 259.500,233.684 C 259.500,235.049 269.500,222.534 272.431,217.500 C 273.312,215.988 274.250,214.412 274.515,214.000 C 275.795,212.008 281.011,202.247 281.295,201.312 C 281.472,200.728 282.142,199.087 282.783,197.666 C 284.647,193.535 289.772,176.970 290.228,173.606 C 290.387,172.427 290.848,170.515 291.252,169.356 C 291.655,168.198 291.992,166.463 292.000,165.500 C 292.018,163.407 292.658,162.229 293.496,162.747 C 295.084,163.729 292.527,185.311 289.674,195.000 C 287.034,203.964 286.560,205.395 284.610,210.257 C 280.390,220.779 277.578,225.746 268.065,239.469 C 262.586,247.374 250.411,259.195 240.941,265.806 C 237.833,267.975 234.494,270.171 233.520,270.684 C 232.547,271.198 231.412,271.903 231.000,272.249 C 229.227,273.740 216.799,279.771 211.750,281.590 C 204.112,284.343 202.197,284.862 194.500,286.262 C 192.162,286.688 189.463,287.272 188.500,287.561 C 185.648,288.417 163.551,288.628 161.806,287.815 Z M 86.000,205.833 C 86.000,205.467 85.843,205.010 85.651,204.818 C 85.459,204.626 84.885,202.957 84.374,201.110 C 83.863,199.262 83.223,196.963 82.951,196.000 C 81.940,192.425 80.427,182.080 80.154,176.875 C 79.998,173.919 79.711,171.500 79.516,171.500 C 79.095,171.500 78.276,176.251 77.465,183.400 C 76.877,188.591 77.075,195.434 77.990,201.500 C 78.259,203.287 78.484,205.017 78.490,205.343 C 78.500,205.952 80.136,206.279 83.875,206.420 C 85.353,206.476 86.000,206.297 86.000,205.833 Z M 62.500,203.010 C 62.500,202.741 62.180,201.672 61.790,200.635 C 58.735,192.527 57.076,172.193 58.606,161.609 L 59.212,157.417 L 62.731,153.977 C 64.667,152.086 67.938,149.392 70.000,147.990 C 80.033,141.173 91.022,134.000 91.434,134.000 C 91.686,134.000 92.023,133.662 92.181,133.250 C 92.339,132.838 92.823,132.500 93.256,132.500 C 93.690,132.500 96.609,131.044 99.745,129.263 C 105.525,125.982 117.149,120.000 117.746,120.000 C 117.925,120.000 118.409,119.663 118.821,119.250 C 119.488,118.583 119.483,118.500 118.773,118.500 C 118.334,118.500 116.799,118.926 115.363,119.447 C 113.926,119.968 110.388,121.231 107.500,122.252 C 104.612,123.274 102.036,124.310 101.775,124.555 C 101.514,124.800 101.011,125.000 100.658,125.000 C 100.305,125.000 98.622,125.675 96.919,126.500 C 95.216,127.325 93.666,128.000 93.474,128.000 C 93.283,128.000 92.029,128.617 90.688,129.371 C 89.347,130.125 86.562,131.535 84.500,132.504 C 66.996,140.732 47.844,154.102 36.986,165.673 C 30.679,172.394 29.512,173.966 27.067,179.037 C 24.135,185.116 24.276,188.340 27.691,193.375 C 28.484,194.544 29.301,195.500 29.507,195.500 C 29.713,195.500 30.459,194.743 31.165,193.817 C 33.867,190.275 39.954,188.936 43.991,190.995 C 46.976,192.518 49.622,196.460 49.942,199.862 C 50.031,200.806 52.737,201.997 54.850,202.023 C 55.895,202.035 57.425,202.354 58.250,202.732 C 60.023,203.544 62.500,203.706 62.500,203.010 Z M 53.026,282.125 C 52.678,281.369 51.966,279.426 51.446,277.808 C 50.925,276.190 50.044,274.131 49.489,273.231 C 48.077,270.948 44.791,268.087 43.138,267.703 C 42.374,267.526 41.300,267.115 40.750,266.790 C 40.200,266.464 38.794,265.893 37.625,265.519 C 34.537,264.532 34.799,263.401 38.375,262.287 C 43.425,260.714 46.291,259.154 48.176,256.950 C 49.179,255.779 50.000,254.399 50.000,253.885 C 50.000,253.371 50.358,252.258 50.796,251.411 C 51.234,250.564 51.921,248.764 52.323,247.410 C 53.058,244.936 54.137,243.937 55.068,244.868 C 55.343,245.143 56.018,247.124 56.568,249.270 C 57.835,254.217 59.022,256.535 61.205,258.327 C 62.794,259.631 63.992,260.167 71.142,262.776 C 72.457,263.256 73.467,263.850 73.385,264.095 C 73.303,264.341 71.327,265.344 68.993,266.324 C 61.865,269.317 61.603,269.464 60.078,271.313 C 58.098,273.716 57.217,275.559 55.989,279.875 C 54.883,283.761 54.067,284.381 53.026,282.125 Z M 268.628,276.282 C 264.229,273.848 262.697,269.098 265.135,265.449 C 269.318,259.187 278.992,262.034 278.998,269.528 C 279.002,274.714 272.937,278.664 268.628,276.282 Z M 110.547,201.092 C 109.622,199.279 108.237,195.653 106.787,191.250 C 105.070,186.038 103.945,174.475 104.538,168.151 C 105.885,153.796 111.510,141.894 120.808,133.727 C 126.038,129.132 133.135,124.927 138.000,123.538 C 139.238,123.185 140.767,122.694 141.399,122.448 C 142.030,122.202 143.354,122.000 144.341,122.000 C 145.327,122.000 147.552,121.739 149.284,121.420 C 151.710,120.973 153.443,120.980 156.821,121.453 C 164.333,122.504 163.818,123.019 154.500,123.772 C 152.438,123.939 149.512,124.531 148.000,125.088 C 146.488,125.645 144.585,126.349 143.773,126.653 C 141.242,127.600 133.857,132.728 131.506,135.171 C 126.795,140.066 122.294,148.381 120.636,155.250 C 120.238,156.900 119.806,161.287 119.675,165.000 C 119.464,171.030 119.570,172.256 120.675,176.500 C 121.355,179.113 122.314,182.150 122.807,183.250 C 123.609,185.043 123.722,185.127 123.894,184.061 C 124.000,183.407 123.857,181.944 123.577,180.811 C 122.124,174.936 122.603,166.425 124.734,160.256 C 126.809,154.247 128.211,151.173 129.937,148.843 C 132.880,144.872 136.513,141.000 137.296,141.000 C 138.208,141.000 138.183,141.274 137.167,142.462 C 134.875,145.138 132.141,154.878 131.685,161.990 C 131.347,167.244 132.263,173.602 134.062,178.500 C 136.795,185.944 141.562,194.000 143.233,194.000 C 144.066,194.000 144.681,195.519 144.088,196.112 C 143.624,196.576 139.545,197.715 135.250,198.580 C 133.875,198.857 130.950,199.493 128.750,199.994 C 124.973,200.853 122.871,201.285 116.600,202.490 C 112.166,203.343 111.633,203.220 110.547,201.092 Z M 267.045,52.456 C 265.832,52.219 263.616,51.288 262.120,50.387 C 257.336,47.507 255.000,43.451 255.000,38.026 C 255.000,33.538 256.235,30.676 259.595,27.377 C 263.172,23.866 265.127,23.000 269.481,23.000 C 279.336,23.000 286.544,32.712 283.771,42.253 C 283.078,44.635 282.351,45.742 279.801,48.292 C 276.678,51.414 275.419,52.038 271.000,52.647 C 270.038,52.779 268.258,52.694 267.045,52.456 Z M 54.609,44.696 C 51.894,43.312 50.739,41.217 50.818,37.823 C 50.928,33.130 52.484,31.257 56.760,30.671 C 59.745,30.262 62.636,31.542 64.109,33.926 C 65.423,36.052 65.513,40.392 64.283,42.270 C 62.561,44.898 57.496,46.168 54.609,44.696 Z M 230.451,22.947 C 228.280,20.623 228.432,18.258 230.908,15.839 L 232.817,13.976 L 234.783,15.404 C 237.542,17.406 238.324,19.011 237.505,20.988 C 236.760,22.787 234.562,24.500 232.998,24.500 C 232.395,24.500 231.248,23.801 230.451,22.947 Z" fill="#000000" fill-rule="evenodd" /></svg>