<svg xmlns="http://www.w3.org/2000/svg" viewBox="0 0 74 119" width="74" height="119"><path d="M 12.962,106.038 L 11.500,104.577 L 11.500,59.329 C 11.500,34.443 11.640,13.718 11.811,13.272 C 11.981,12.827 12.769,12.128 13.561,11.719 C 15.450,10.742 16.539,11.304 21.514,15.828 C 30.772,24.244 36.541,29.063 37.180,28.913 C 37.561,28.823 42.075,24.925 47.212,20.250 C 52.348,15.575 57.084,11.544 57.737,11.292 C 59.215,10.721 61.322,11.966 62.030,13.829 C 62.335,14.630 62.466,31.837 62.383,60.001 C 62.255,103.347 62.217,104.932 61.298,105.948 C 60.709,106.598 59.736,107.000 58.751,107.000 C 57.402,107.000 55.636,105.673 47.278,98.375 C 41.845,93.631 37.250,89.693 37.067,89.622 C 36.884,89.552 32.416,93.308 27.137,97.969 C 17.769,106.241 16.166,107.500 14.994,107.500 C 14.680,107.500 13.765,106.842 12.962,106.038 Z M 25.692,88.000 C 28.295,85.662 30.442,83.482 30.462,83.154 C 30.483,82.826 29.275,81.500 27.778,80.208 C 24.563,77.432 23.320,75.271 24.100,73.813 C 24.790,72.523 34.424,63.215 35.875,62.435 C 37.519,61.552 38.633,62.315 44.723,68.495 C 48.507,72.335 50.000,74.194 50.000,75.065 C 50.000,75.895 48.973,77.296 46.750,79.500 C 44.962,81.272 43.500,82.981 43.500,83.299 C 43.500,84.010 52.679,92.500 53.447,92.500 C 53.845,92.500 54.000,83.206 54.000,59.250 C 54.000,40.962 53.873,26.000 53.718,26.000 C 53.063,26.000 43.500,34.662 43.500,35.256 C 43.500,35.614 44.614,36.839 45.975,37.979 C 47.336,39.119 48.933,40.833 49.524,41.789 C 50.552,43.452 50.561,43.585 49.746,44.888 C 48.309,47.187 37.878,57.000 36.872,57.000 C 35.418,57.000 23.496,45.030 23.498,43.572 C 23.499,42.788 24.705,41.150 27.098,38.683 C 30.627,35.043 30.677,34.956 29.723,34.074 C 25.034,29.738 20.437,25.896 20.210,26.123 C 19.877,26.456 19.627,91.960 19.957,92.290 C 20.368,92.702 20.891,92.311 25.692,88.000 Z M 38.747,76.003 L 40.181,74.507 L 39.003,73.253 C 37.560,71.717 36.868,71.687 35.254,73.090 C 33.720,74.423 33.698,74.864 35.087,76.343 C 36.505,77.852 37.022,77.804 38.747,76.003 Z M 38.520,45.406 C 40.370,44.038 40.355,43.074 38.459,41.576 L 36.973,40.402 L 35.237,41.726 C 34.281,42.455 33.500,43.196 33.500,43.373 C 33.500,43.862 36.127,46.500 36.614,46.500 C 36.848,46.500 37.706,46.008 38.520,45.406 Z" fill="#000000" fill-rule="evenodd" /></svg>