<svg xmlns="http://www.w3.org/2000/svg" viewBox="0 0 299 338" width="299" height="338"><path d="M 149.829,325.625 C 149.490,325.074 145.548,313.661 144.691,310.750 C 144.286,309.375 143.752,307.800 143.503,307.250 C 143.255,306.700 142.559,304.675 141.958,302.750 C 141.357,300.825 140.255,297.562 139.509,295.500 C 137.871,290.973 138.332,292.327 130.999,270.500 C 127.719,260.738 124.000,249.825 122.736,246.250 C 121.471,242.675 120.205,238.963 119.922,238.000 C 119.639,237.037 119.239,236.072 119.033,235.854 C 118.618,235.416 118.421,235.596 105.716,248.010 C 86.823,266.469 64.674,287.909 62.934,289.421 C 61.935,290.290 60.881,291.000 60.590,291.000 C 60.223,291.000 60.091,277.613 60.156,247.053 C 60.248,204.138 60.227,203.080 59.277,202.029 C 58.741,201.438 56.041,199.355 53.277,197.402 C 50.512,195.449 47.125,193.029 45.750,192.026 C 32.919,182.661 20.068,173.088 16.626,170.330 C 13.601,167.906 13.530,167.796 14.376,166.854 C 14.857,166.318 17.275,164.433 19.750,162.664 C 22.225,160.895 28.075,156.535 32.750,152.975 C 44.436,144.076 51.070,139.229 55.906,136.059 L 60.010,133.367 L 59.995,88.812 C 59.984,58.405 60.144,44.202 60.499,44.084 C 60.785,43.988 65.796,48.596 71.634,54.322 C 77.473,60.048 85.737,68.108 90.000,72.233 C 94.263,76.357 102.639,84.549 108.614,90.437 C 115.614,97.335 119.566,100.894 119.726,100.446 C 119.863,100.063 123.909,87.938 128.717,73.500 C 133.525,59.062 138.603,43.987 140.002,40.000 C 141.402,36.013 143.648,29.488 144.994,25.500 C 148.800,14.228 149.382,12.750 150.007,12.750 C 150.870,12.750 152.177,16.263 160.188,40.109 C 164.186,52.011 170.392,70.412 173.978,81.000 C 177.564,91.588 180.499,100.306 180.499,100.375 C 180.505,101.402 183.526,98.725 192.254,89.959 C 198.027,84.161 205.900,76.467 209.750,72.861 C 213.600,69.255 221.779,61.399 227.927,55.403 C 234.074,49.406 239.397,44.500 239.757,44.500 C 240.291,44.500 240.385,52.120 240.270,86.125 C 240.193,109.019 240.248,128.845 240.392,130.183 C 240.695,133.009 240.536,132.864 255.750,144.152 C 285.727,166.392 287.010,167.393 286.676,168.263 C 286.520,168.668 286.107,169.000 285.758,169.000 C 285.408,169.000 284.824,169.359 284.460,169.798 C 283.787,170.610 281.265,172.518 271.000,179.989 C 263.030,185.789 259.057,188.717 253.250,193.072 C 250.500,195.135 246.514,198.002 244.392,199.444 C 241.219,201.599 240.479,202.355 240.227,203.695 C 240.059,204.592 239.995,224.608 240.086,248.176 C 240.214,281.744 240.118,290.996 239.639,290.888 C 238.722,290.681 197.431,250.971 187.068,240.330 C 183.309,236.470 181.662,235.172 181.159,235.674 C 180.916,235.918 177.877,244.512 175.210,252.500 C 174.521,254.562 173.753,256.700 173.502,257.250 C 173.251,257.800 172.717,259.375 172.316,260.750 C 171.915,262.125 171.230,264.262 170.794,265.500 C 170.358,266.738 169.100,270.450 168.000,273.750 C 166.900,277.050 165.769,280.425 165.486,281.250 C 163.925,285.806 155.309,311.854 153.208,318.372 C 150.909,325.500 150.410,326.571 149.829,325.625 Z M 150.731,276.875 C 150.840,276.531 151.499,274.450 152.193,272.250 C 152.888,270.050 154.895,264.087 156.654,259.000 C 158.412,253.912 161.694,244.238 163.948,237.500 C 166.201,230.762 168.467,224.350 168.983,223.250 C 169.500,222.150 170.030,220.688 170.161,220.000 C 170.426,218.609 174.204,207.884 174.726,207.038 C 175.355,206.021 174.518,205.517 173.107,206.065 C 167.676,208.171 149.336,209.646 142.159,208.553 C 133.793,207.280 129.132,206.468 127.509,206.002 C 126.578,205.736 125.723,205.611 125.608,205.725 C 125.413,205.920 127.238,211.795 128.877,216.250 C 129.282,217.350 130.015,219.600 130.507,221.250 C 130.999,222.900 132.798,228.188 134.506,233.000 C 136.214,237.812 139.358,246.812 141.491,253.000 C 143.625,259.188 146.164,266.500 147.133,269.250 C 148.102,272.000 149.049,274.981 149.237,275.875 C 149.582,277.512 150.361,278.033 150.731,276.875 Z M 94.706,237.825 C 107.383,225.230 113.000,219.321 113.000,218.581 C 113.000,217.000 107.607,200.947 106.762,200.013 C 106.362,199.571 104.734,198.510 103.143,197.655 C 100.557,196.265 94.696,192.602 89.208,188.945 C 88.131,188.228 84.662,185.921 81.500,183.820 C 78.338,181.719 74.175,178.830 72.250,177.401 C 61.241,169.228 59.481,167.823 59.847,167.502 C 60.069,167.308 62.163,165.720 64.500,163.974 C 66.838,162.228 71.112,159.019 74.000,156.844 C 80.451,151.984 98.375,139.974 103.587,137.020 C 107.882,134.585 107.353,135.469 110.967,124.676 C 112.085,121.335 113.000,118.035 113.000,117.341 C 113.000,116.344 109.189,112.342 94.739,98.165 C 84.695,88.312 76.258,80.175 75.989,80.083 C 75.676,79.977 75.500,87.294 75.500,100.458 C 75.500,111.756 75.669,120.991 75.875,120.979 C 76.376,120.951 82.951,116.004 87.642,112.125 C 89.721,110.406 91.692,109.000 92.022,109.000 C 92.475,109.000 92.571,111.264 92.415,118.221 C 92.177,128.782 92.458,128.070 87.000,131.897 C 75.811,139.742 73.522,141.384 71.500,143.012 C 70.263,144.009 67.726,145.932 65.864,147.287 C 61.646,150.355 58.885,152.413 50.396,158.811 C 46.704,161.594 42.520,164.632 41.100,165.561 C 39.680,166.490 38.514,167.408 38.509,167.601 C 38.504,167.794 39.569,168.684 40.875,169.579 C 42.181,170.474 48.111,174.816 54.053,179.228 C 59.994,183.640 67.861,189.387 71.534,192.000 C 75.208,194.613 81.293,199.039 85.057,201.836 L 91.901,206.921 L 92.217,211.586 C 92.618,217.486 92.384,225.993 91.822,225.997 C 91.586,225.999 88.052,223.303 83.968,220.007 C 79.884,216.711 76.280,213.955 75.960,213.882 C 75.523,213.783 75.395,218.939 75.447,234.500 C 75.485,245.912 75.512,255.419 75.508,255.625 C 75.504,255.831 75.705,256.000 75.956,256.000 C 76.206,256.000 84.644,247.821 94.706,237.825 Z M 225.000,235.000 C 225.000,219.898 224.844,214.000 224.443,214.000 C 224.136,214.000 222.618,215.091 221.068,216.424 C 216.600,220.267 208.817,225.988 208.048,225.994 C 207.465,225.999 207.401,224.921 207.671,219.625 C 207.850,216.119 207.998,211.900 208.000,210.250 L 208.005,207.250 L 211.628,204.774 C 213.620,203.412 216.932,201.050 218.987,199.524 C 221.042,197.998 223.222,196.412 223.831,196.000 C 224.441,195.588 227.034,193.657 229.595,191.710 C 232.155,189.764 240.381,183.605 247.875,178.025 C 255.369,172.445 261.500,167.700 261.500,167.481 C 261.500,167.262 259.756,165.826 257.625,164.290 C 255.494,162.754 250.825,159.349 247.250,156.722 C 239.537,151.057 239.141,150.771 223.183,139.359 C 216.345,134.469 210.116,129.969 209.341,129.359 L 207.931,128.250 L 207.656,120.250 C 207.504,115.850 207.576,111.533 207.815,110.657 L 208.250,109.064 L 212.500,112.330 C 214.838,114.126 218.467,116.914 220.565,118.525 C 222.663,120.136 224.519,121.314 224.690,121.143 C 225.082,120.751 225.102,80.000 224.711,80.000 C 224.332,80.000 214.795,88.773 210.283,93.272 C 208.340,95.210 202.164,101.244 196.560,106.683 L 186.370,116.571 L 187.644,119.910 C 188.344,121.747 189.394,124.639 189.978,126.336 C 193.072,135.344 192.649,134.804 200.072,139.252 C 210.387,145.433 239.933,166.108 240.348,167.436 C 240.442,167.737 234.188,172.658 229.833,175.709 C 228.687,176.512 225.725,178.667 223.250,180.498 C 218.536,183.986 205.212,193.000 204.770,193.000 C 204.559,193.000 199.038,196.173 194.737,198.765 C 193.428,199.555 187.000,215.803 187.000,218.323 C 187.000,218.988 223.932,255.956 224.625,255.984 C 224.831,255.993 225.000,246.550 225.000,235.000 Z M 134.994,192.625 C 134.990,192.419 134.217,191.751 133.276,191.141 C 131.470,189.972 127.440,185.389 125.602,182.416 C 125.003,181.446 123.906,179.099 123.165,177.201 C 121.992,174.196 121.814,173.008 121.784,168.000 C 121.754,162.867 121.903,161.834 123.177,158.373 C 123.961,156.240 125.466,153.160 126.522,151.527 C 128.548,148.392 132.573,144.006 134.246,143.109 C 134.794,142.815 135.107,142.440 134.942,142.275 C 134.668,142.001 132.585,142.475 127.250,144.027 C 124.263,144.897 114.003,149.038 112.000,150.183 C 111.037,150.733 108.568,152.072 106.512,153.158 C 101.159,155.987 85.617,166.662 85.531,167.569 C 85.514,167.745 88.075,169.720 91.222,171.958 C 104.374,181.314 116.335,187.739 126.069,190.677 C 134.063,193.091 135.005,193.296 134.994,192.625 Z M 171.575,191.300 C 179.488,189.122 181.722,188.224 190.326,183.761 C 199.989,178.750 215.207,168.493 214.890,167.206 C 214.748,166.633 201.337,157.363 196.420,154.440 C 192.445,152.077 182.574,147.217 179.975,146.344 C 175.055,144.691 167.740,142.958 166.284,143.100 L 164.750,143.250 L 167.531,145.111 C 173.842,149.335 179.028,159.543 178.982,167.649 C 178.963,171.110 178.054,175.798 176.861,178.599 C 175.063,182.818 169.676,189.485 166.625,191.267 C 165.731,191.789 165.000,192.392 165.000,192.608 C 165.000,193.138 164.638,193.210 171.575,191.300 Z M 152.385,180.515 C 154.521,176.035 157.692,172.575 162.283,169.713 C 166.109,167.329 166.637,166.673 165.125,166.188 C 162.526,165.354 159.492,163.494 157.478,161.500 C 154.957,159.004 151.000,153.432 151.000,152.377 C 151.000,151.634 150.033,150.500 149.400,150.500 C 149.180,150.500 149.000,151.132 149.000,151.904 C 149.000,153.526 146.168,158.480 143.843,160.925 C 141.859,163.010 137.805,165.657 135.355,166.465 C 134.335,166.802 133.500,167.235 133.500,167.428 C 133.500,167.621 135.100,168.534 137.055,169.456 C 141.837,171.711 145.748,175.615 147.995,180.375 C 148.937,182.369 149.941,183.987 150.228,183.972 C 150.515,183.956 151.486,182.401 152.385,180.515 Z M 133.500,127.507 C 142.841,125.325 158.378,125.565 168.694,128.050 C 173.622,129.237 174.195,129.246 173.839,128.125 C 173.686,127.644 172.183,123.312 170.500,118.500 C 168.816,113.688 166.353,106.600 165.026,102.750 C 163.699,98.900 161.900,93.725 161.028,91.250 C 160.156,88.775 158.650,84.275 157.680,81.250 C 156.711,78.225 155.580,74.853 155.166,73.757 C 154.752,72.661 153.861,70.119 153.186,68.107 C 151.393,62.767 149.669,59.110 149.363,60.000 C 149.222,60.413 148.607,62.438 147.998,64.500 C 147.389,66.562 146.122,70.500 145.182,73.250 C 144.243,76.000 141.917,82.862 140.012,88.500 C 138.108,94.138 135.623,101.338 134.490,104.500 C 133.357,107.662 131.560,112.838 130.497,116.000 C 129.434,119.162 127.988,123.324 127.282,125.248 C 126.577,127.172 126.000,128.828 126.000,128.930 C 126.000,129.178 127.847,128.827 133.500,127.507 Z" fill="#000000" fill-rule="evenodd" /></svg>