<svg xmlns="http://www.w3.org/2000/svg" viewBox="0 0 419 433" width="419" height="433"><path d="M 204.250,419.166 C 189.515,418.600 171.417,415.493 156.500,410.970 C 154.713,410.428 152.125,409.555 150.750,409.031 C 140.796,405.234 140.512,405.120 136.000,403.118 C 134.762,402.568 132.681,401.757 131.374,401.315 C 130.067,400.873 128.154,399.989 127.124,399.350 C 126.093,398.711 124.463,397.875 123.500,397.492 C 122.537,397.109 120.750,396.166 119.527,395.398 C 118.305,394.629 117.062,394.000 116.766,394.000 C 116.470,394.000 115.445,393.364 114.489,392.587 C 113.533,391.810 112.412,391.028 112.000,390.848 C 111.218,390.507 109.194,389.257 105.455,386.803 C 104.242,386.007 101.000,383.890 98.250,382.097 C 95.500,380.305 93.025,378.584 92.750,378.272 C 92.475,377.960 90.354,376.269 88.038,374.514 C 85.721,372.758 81.788,369.393 79.298,367.036 C 72.117,360.238 59.977,347.449 58.623,345.255 C 57.942,344.152 56.526,342.350 55.477,341.250 C 51.987,337.593 41.202,321.476 35.401,311.250 C 32.039,305.324 26.463,293.000 23.412,284.750 C 22.080,281.148 21.241,278.580 17.978,268.115 C 17.440,266.390 17.000,264.473 17.000,263.854 C 17.000,263.236 16.574,261.159 16.053,259.240 C 15.532,257.320 14.842,253.387 14.518,250.500 C 14.194,247.613 13.724,244.350 13.474,243.250 C 12.104,237.239 11.491,208.050 12.522,197.893 C 13.372,189.517 15.045,178.510 16.056,174.634 C 16.575,172.645 16.997,170.620 16.993,170.134 C 16.989,169.648 17.432,167.787 17.978,166.000 C 22.026,152.741 23.227,149.004 24.005,147.250 C 24.493,146.150 25.948,142.557 27.238,139.266 C 31.714,127.853 41.009,111.452 50.372,98.446 C 58.100,87.712 68.582,76.039 78.852,66.732 C 86.983,59.364 94.980,53.426 105.750,46.761 C 108.775,44.889 112.375,42.628 113.750,41.736 C 115.794,40.411 130.465,33.092 134.250,31.509 C 151.474,24.308 169.570,19.470 189.750,16.671 C 198.929,15.398 231.613,15.382 239.533,16.647 C 251.395,18.542 257.916,19.958 268.750,22.995 C 273.912,24.442 286.203,28.853 291.591,31.192 C 298.734,34.293 309.991,39.819 310.750,40.596 C 311.612,41.480 308.193,40.774 300.000,38.379 C 287.278,34.659 276.633,33.307 259.750,33.270 C 248.648,33.245 244.074,33.637 233.327,35.534 C 220.171,37.856 206.232,41.901 197.130,46.037 C 195.965,46.567 194.874,47.000 194.706,47.000 C 194.173,47.000 186.168,50.955 182.392,53.085 C 172.407,58.716 161.531,66.342 154.000,72.992 C 143.044,82.666 126.500,101.779 126.500,104.762 C 126.500,105.639 129.160,108.579 136.753,116.098 L 147.007,126.250 L 147.003,128.893 C 146.999,132.102 146.128,133.565 143.521,134.741 C 139.990,136.333 138.703,135.694 132.103,129.081 C 128.884,125.856 124.916,121.714 123.285,119.877 C 121.655,118.041 120.035,116.429 119.686,116.295 C 118.955,116.014 111.868,130.069 109.793,135.914 C 109.078,137.930 108.230,140.067 107.909,140.664 C 107.588,141.261 107.148,142.537 106.931,143.500 C 106.714,144.463 105.825,147.275 104.956,149.750 C 104.086,152.225 103.197,155.150 102.981,156.250 C 102.765,157.350 102.006,160.273 101.294,162.746 C 100.582,165.220 100.000,168.212 100.000,169.396 C 100.000,170.581 99.678,172.157 99.284,172.900 C 98.891,173.642 95.385,177.400 91.494,181.250 C 84.961,187.714 80.016,193.339 79.989,194.337 C 79.983,194.564 79.538,195.312 79.000,196.000 C 78.462,196.688 78.017,197.705 78.011,198.261 C 77.985,200.635 81.933,205.870 90.041,214.216 C 94.601,218.910 98.601,223.254 98.931,223.870 C 99.260,224.486 99.955,226.961 100.475,229.370 C 102.822,240.244 107.268,254.568 110.526,261.750 C 110.775,262.300 111.766,264.642 112.727,266.955 C 113.688,269.268 115.005,271.968 115.653,272.955 C 116.300,273.942 117.434,275.706 118.172,276.875 C 118.910,278.044 119.805,279.000 120.160,279.000 C 120.728,279.000 131.681,267.841 135.924,262.938 C 137.729,260.854 139.760,260.262 142.541,261.011 C 144.675,261.586 147.252,264.316 147.657,266.431 C 148.292,269.746 143.912,275.050 130.799,286.847 L 126.847,290.402 L 128.142,292.610 C 132.468,299.992 147.540,316.216 157.360,324.061 C 163.002,328.568 164.721,329.834 172.384,335.124 C 174.931,336.883 179.870,339.624 189.250,344.483 C 192.851,346.349 206.362,352.045 209.500,353.021 C 227.199,358.523 243.221,361.008 260.902,360.995 C 271.055,360.987 283.854,359.813 291.500,358.187 C 293.288,357.807 296.325,357.161 298.250,356.751 C 301.238,356.115 304.933,355.124 312.250,352.994 C 314.591,352.313 319.302,350.635 321.110,349.839 C 322.012,349.441 323.816,348.640 325.120,348.058 C 326.423,347.476 327.686,347.000 327.928,347.000 C 328.755,347.000 345.400,338.473 346.011,337.736 C 346.347,337.331 346.841,337.000 347.109,337.000 C 347.978,337.000 358.617,329.645 364.000,325.322 C 374.243,317.097 386.638,304.171 392.964,295.116 C 398.433,287.290 405.512,276.276 405.814,275.125 C 406.148,273.848 407.000,273.598 407.000,274.777 C 407.000,275.639 404.190,284.216 402.504,288.500 C 401.379,291.358 400.837,292.637 399.058,296.620 C 398.476,297.923 398.000,299.177 398.000,299.406 C 398.000,300.086 390.554,314.463 388.705,317.355 C 387.767,318.820 387.000,320.130 387.000,320.264 C 387.000,320.534 382.347,327.815 379.659,331.750 C 376.655,336.149 375.493,337.696 373.348,340.157 C 372.194,341.480 370.800,343.295 370.250,344.189 C 368.183,347.551 355.910,360.552 348.783,366.930 C 341.552,373.402 324.985,386.000 323.705,386.000 C 323.505,386.000 322.149,386.900 320.692,388.000 C 319.235,389.100 317.922,390.000 317.775,390.000 C 317.628,390.000 314.507,391.800 310.841,394.000 C 307.175,396.200 303.920,398.000 303.608,398.000 C 303.296,398.000 301.400,398.875 299.395,399.945 C 297.390,401.015 294.652,402.260 293.310,402.712 C 291.968,403.163 289.696,404.088 288.262,404.766 C 286.827,405.445 285.214,406.000 284.677,406.000 C 284.140,406.000 283.486,406.193 283.225,406.428 C 282.964,406.664 280.050,407.787 276.750,408.925 C 267.825,412.003 256.047,414.983 247.000,416.453 C 244.938,416.788 242.012,417.269 240.500,417.521 C 233.859,418.629 213.874,419.536 204.250,419.166 Z M 239.943,334.501 C 236.659,332.765 236.500,331.902 236.500,315.832 C 236.500,306.940 236.701,301.035 237.033,300.158 C 237.790,298.161 239.375,296.619 241.336,295.972 C 243.765,295.170 246.381,296.585 247.875,299.510 C 248.963,301.640 249.000,302.173 249.000,315.881 C 249.000,331.693 248.947,331.981 245.629,334.236 C 243.425,335.733 242.367,335.782 239.943,334.501 Z M 358.750,291.026 C 357.529,290.525 339.932,272.846 338.122,270.301 L 336.824,268.478 L 337.687,265.740 C 338.746,262.383 341.100,260.500 344.241,260.500 C 346.099,260.500 346.494,260.770 349.500,264.098 C 351.288,266.077 355.590,270.644 359.060,274.248 C 362.531,277.851 365.737,281.508 366.185,282.375 C 367.310,284.550 367.205,286.548 365.860,288.544 C 364.082,291.182 361.406,292.116 358.750,291.026 Z M 227.250,280.158 C 223.950,279.763 219.113,278.993 216.500,278.448 C 213.887,277.903 210.850,277.272 209.750,277.046 C 204.887,276.045 189.338,270.978 184.000,268.653 C 179.209,266.567 162.692,257.970 158.500,255.380 C 147.121,248.351 134.718,239.408 121.688,228.839 C 115.286,223.646 93.839,202.533 92.752,200.353 C 91.349,197.542 91.245,197.700 102.000,186.310 C 113.856,173.754 134.159,156.954 148.000,148.245 C 151.438,146.082 154.946,143.792 155.797,143.156 C 156.648,142.520 157.574,142.000 157.855,142.000 C 158.135,142.000 158.902,141.578 159.558,141.062 C 162.515,138.737 174.924,132.379 183.000,129.052 C 185.887,127.862 188.829,126.587 189.536,126.219 C 190.243,125.850 191.818,125.219 193.036,124.816 C 213.252,118.130 225.166,116.011 242.589,116.004 C 252.332,116.000 256.265,116.282 264.000,117.540 C 272.862,118.981 283.885,121.833 291.250,124.591 C 300.907,128.208 316.270,135.218 319.476,137.471 C 320.177,137.963 322.325,139.218 324.250,140.259 C 343.256,150.539 368.087,170.193 387.193,190.077 L 394.490,197.671 L 393.620,199.025 C 390.926,203.219 372.405,221.453 362.248,229.912 C 342.273,246.545 315.521,263.053 297.500,269.864 C 295.988,270.436 293.232,271.487 291.377,272.199 C 289.522,272.911 287.160,273.702 286.127,273.956 C 285.095,274.209 282.675,274.893 280.750,275.475 C 277.434,276.478 270.752,278.008 265.250,279.024 C 254.960,280.924 237.894,281.434 227.250,280.158 Z M 256.729,260.976 C 272.189,257.631 284.737,249.608 294.224,237.000 C 297.509,232.634 302.000,224.863 302.000,223.543 C 302.000,223.238 302.444,222.035 302.986,220.870 C 305.013,216.511 306.980,205.881 306.987,199.250 C 306.994,193.589 305.741,184.932 304.238,180.250 C 299.582,165.743 290.317,152.842 279.371,145.622 C 276.372,143.643 270.663,140.636 265.750,138.445 C 264.017,137.672 258.868,136.118 255.750,135.426 C 251.635,134.514 233.868,134.516 229.500,135.430 C 219.104,137.605 210.784,141.698 201.163,149.370 C 192.874,155.980 186.330,165.178 182.044,176.244 C 178.525,185.329 177.098,198.650 178.697,207.500 C 180.596,218.013 182.701,223.517 188.641,233.500 C 191.712,238.661 201.877,249.065 207.250,252.545 C 215.365,257.802 224.682,261.048 235.000,262.213 C 239.509,262.722 251.923,262.015 256.729,260.976 Z M 341.500,135.148 C 339.979,134.595 338.004,132.278 337.708,130.702 C 337.036,127.122 337.632,126.249 347.687,116.066 C 352.947,110.739 357.990,106.064 358.894,105.676 C 360.371,105.042 360.762,105.069 362.727,105.938 C 366.714,107.702 368.057,111.603 365.835,114.961 C 363.777,118.071 347.918,134.059 346.141,134.815 C 344.496,135.515 342.836,135.634 341.500,135.148 Z M 239.311,99.621 C 238.244,98.819 237.100,97.654 236.768,97.033 C 236.323,96.201 236.213,92.190 236.352,81.827 C 236.455,74.085 236.652,67.025 236.790,66.139 C 236.927,65.254 237.789,63.735 238.704,62.764 C 240.082,61.303 240.720,61.000 242.417,61.000 C 244.070,61.000 244.784,61.319 246.108,62.649 C 248.634,65.186 248.936,67.206 248.990,81.884 C 249.030,92.939 248.912,95.285 248.241,96.699 C 247.079,99.146 245.361,100.548 243.174,100.831 C 241.597,101.036 240.900,100.817 239.311,99.621 Z M 236.500,238.486 C 235.537,238.260 233.400,237.815 231.750,237.496 C 225.633,236.314 216.783,230.446 211.490,224.062 C 206.404,217.928 203.204,209.604 202.701,201.202 C 201.989,189.305 205.447,179.243 213.203,170.648 C 220.607,162.444 230.930,158.002 242.600,158.001 C 251.400,157.999 259.165,160.512 255.118,162.050 C 251.356,163.480 247.683,168.093 246.219,173.225 C 243.711,182.019 248.372,191.746 256.533,194.750 C 260.229,196.110 265.875,196.051 269.109,194.617 C 272.204,193.244 276.354,189.321 277.695,186.500 C 279.249,183.232 280.025,183.581 281.592,188.250 C 284.473,196.833 282.965,208.986 277.917,217.879 C 270.627,230.722 256.644,239.106 242.780,238.948 C 240.288,238.920 237.463,238.712 236.500,238.486 Z" fill="#000000" fill-rule="evenodd" /></svg>