<svg xmlns="http://www.w3.org/2000/svg" viewBox="0 0 294 298" width="294" height="298"><path d="M 63.750,279.482 C 53.456,277.079 46.332,273.788 36.716,266.993 C 30.941,262.913 23.403,253.800 19.774,246.512 C 16.627,240.191 13.784,231.113 13.586,226.750 C 13.561,226.200 13.394,223.050 13.215,219.750 C 12.830,212.641 13.766,204.808 15.801,198.116 C 17.516,192.481 21.694,184.004 25.033,179.387 C 28.156,175.069 34.750,168.137 38.250,165.492 C 54.628,153.116 63.492,145.610 67.617,140.623 C 72.180,135.108 74.093,131.353 79.139,118.000 C 82.195,109.912 88.677,100.938 93.793,97.712 C 94.594,97.206 95.903,96.262 96.702,95.614 C 101.205,91.958 116.500,86.516 116.500,88.570 C 116.500,88.932 114.831,90.920 112.792,92.989 C 110.752,95.058 108.425,97.987 107.621,99.500 C 105.591,103.316 104.000,108.512 104.000,111.322 C 104.000,115.425 106.474,119.162 109.895,120.224 C 111.404,120.693 114.591,119.046 117.426,116.333 C 119.747,114.112 123.488,107.058 124.498,103.000 C 125.580,98.656 129.134,88.717 130.757,85.500 C 132.768,81.514 134.375,79.447 139.649,74.062 C 144.516,69.092 147.840,66.764 153.250,64.537 C 169.884,57.691 175.386,53.019 178.495,43.098 C 178.953,41.640 179.531,40.402 179.782,40.348 C 180.645,40.162 181.493,42.880 181.681,46.434 C 182.005,52.570 180.123,58.530 176.072,64.198 C 172.795,68.782 169.962,71.360 163.461,75.672 C 158.309,79.089 156.132,81.804 155.648,85.417 C 155.418,87.128 155.570,87.613 156.649,88.612 C 158.562,90.386 162.279,91.187 165.298,90.476 C 170.459,89.262 175.832,85.907 179.136,81.837 C 180.961,79.587 186.000,72.211 186.000,71.787 C 186.000,71.546 186.840,69.626 189.843,63.000 C 193.420,55.111 196.799,48.715 198.190,47.202 C 206.091,38.607 207.823,37.255 214.250,34.669 C 215.900,34.005 218.262,33.220 219.500,32.925 C 222.214,32.278 230.000,31.936 230.000,32.465 C 230.000,32.672 228.897,33.441 227.549,34.175 C 223.667,36.288 220.155,39.783 217.989,43.687 C 215.777,47.676 215.550,49.507 216.980,51.851 C 218.413,54.201 220.595,55.152 223.955,54.892 C 231.094,54.337 237.917,48.370 244.500,36.924 C 249.413,28.381 257.464,21.205 264.745,18.881 C 269.555,17.345 278.445,16.640 279.000,17.750 C 279.137,18.025 278.012,18.885 276.500,19.662 C 266.691,24.697 262.827,31.937 260.976,48.750 C 260.258,55.269 259.248,60.094 257.889,63.500 C 256.574,66.793 252.441,73.684 250.583,75.682 C 247.651,78.833 237.615,86.517 231.568,90.241 C 229.008,91.817 229.267,92.396 232.831,93.071 C 239.148,94.267 241.747,93.994 248.375,91.434 C 252.909,89.684 257.990,85.640 262.147,80.472 C 264.016,78.150 265.789,76.165 266.087,76.062 C 267.507,75.569 264.641,89.856 262.434,94.276 C 261.200,96.746 258.113,100.932 255.000,104.356 C 250.695,109.091 242.691,113.565 232.250,117.070 C 218.389,121.724 211.105,125.674 206.717,130.916 C 203.343,134.948 202.238,137.018 201.841,140.052 C 201.388,143.506 201.947,145.870 203.609,147.532 C 207.093,151.016 211.732,148.600 220.609,138.682 C 227.105,131.425 231.448,128.585 238.218,127.168 C 241.803,126.418 247.393,126.610 249.929,127.570 C 250.903,127.939 251.001,128.146 250.493,128.758 C 250.155,129.166 249.634,129.500 249.336,129.500 C 247.589,129.500 241.051,133.558 238.276,136.365 C 235.241,139.434 231.000,146.448 231.000,148.397 C 231.000,148.894 230.794,149.514 230.541,149.775 C 230.289,150.036 229.352,151.600 228.459,153.250 C 224.107,161.290 221.003,164.903 215.262,168.615 C 209.428,172.386 205.640,173.914 188.876,179.257 C 180.005,182.084 180.002,182.086 177.230,184.918 C 175.196,186.995 174.527,188.017 174.722,188.750 C 174.867,189.300 174.989,190.126 174.993,190.587 C 175.004,191.871 177.417,194.452 179.371,195.268 C 181.689,196.237 188.123,196.203 191.000,195.206 C 196.317,193.365 202.217,189.626 206.268,185.529 C 206.827,184.963 207.446,184.500 207.643,184.500 C 208.136,184.500 208.091,186.554 207.558,188.300 C 207.315,189.098 206.820,190.762 206.457,192.000 C 205.216,196.231 200.391,205.500 199.430,205.500 C 199.168,205.500 198.442,206.012 197.816,206.638 C 192.990,211.464 186.120,215.969 181.250,217.501 C 180.150,217.847 179.025,218.306 178.750,218.520 C 178.475,218.734 176.900,219.371 175.250,219.936 C 157.675,225.949 148.419,232.358 136.523,246.750 C 131.821,252.439 121.699,262.584 117.668,265.649 C 114.463,268.086 106.701,273.000 106.057,273.000 C 105.854,273.000 104.802,273.421 103.719,273.935 C 100.770,275.335 91.312,278.498 88.351,279.074 C 84.842,279.758 66.251,280.065 63.750,279.482 Z M 83.368,262.435 C 88.151,261.302 94.817,258.834 97.500,257.205 C 99.013,256.286 101.146,255.045 102.240,254.448 C 104.908,252.992 112.546,245.415 115.427,241.366 C 120.203,234.654 123.535,230.561 126.104,228.251 C 128.618,225.990 134.622,221.806 136.244,221.183 C 136.660,221.024 137.000,220.661 137.000,220.378 C 137.000,219.390 126.278,221.242 122.500,222.882 C 118.114,224.786 111.618,228.245 108.509,230.332 C 105.806,232.145 105.142,231.613 106.942,229.077 C 107.461,228.347 108.504,226.625 109.261,225.250 C 111.624,220.958 119.504,211.581 127.791,203.203 C 135.412,195.498 145.192,187.232 156.133,179.250 C 158.771,177.325 160.946,175.560 160.965,175.328 C 161.042,174.400 153.981,176.083 146.250,178.835 C 142.512,180.166 141.736,180.469 139.000,181.660 C 138.037,182.079 136.012,182.903 134.500,183.491 C 132.988,184.079 130.206,185.353 128.318,186.323 C 126.265,187.377 124.704,187.904 124.432,187.632 C 124.161,187.361 126.445,184.359 130.115,180.161 C 133.489,176.302 137.488,171.612 139.000,169.739 C 140.512,167.867 142.650,165.279 143.750,163.988 C 144.850,162.697 147.550,159.457 149.750,156.787 C 157.442,147.452 160.603,143.742 161.714,142.750 C 162.329,142.200 163.489,140.851 164.291,139.752 C 165.094,138.653 166.140,137.415 166.617,137.002 C 167.094,136.588 168.444,134.988 169.617,133.446 C 172.151,130.116 178.910,121.997 185.500,114.368 C 188.113,111.344 191.488,107.342 193.000,105.474 C 194.512,103.606 197.719,99.699 200.125,96.790 C 202.531,93.881 204.500,91.368 204.500,91.204 C 204.500,91.041 203.431,91.784 202.125,92.856 C 200.819,93.928 199.161,95.243 198.440,95.778 C 195.908,97.658 184.225,107.197 181.986,109.212 C 180.740,110.333 175.353,114.737 170.014,119.000 C 164.675,123.263 157.931,128.651 155.028,130.975 C 152.125,133.298 146.249,138.248 141.969,141.975 C 137.690,145.701 131.076,151.338 127.271,154.500 C 123.466,157.662 118.755,161.600 116.802,163.251 C 112.155,167.176 109.691,169.000 109.033,169.000 C 108.316,169.000 108.347,168.830 109.465,166.640 C 110.948,163.736 114.000,155.904 114.000,155.003 C 114.000,154.561 114.189,153.986 114.420,153.725 C 114.651,153.464 115.558,150.887 116.436,148.000 C 117.314,145.113 118.250,142.059 118.516,141.215 C 119.088,139.400 119.162,135.497 118.625,135.506 C 118.419,135.510 117.711,136.353 117.052,137.381 C 115.986,139.044 113.168,142.842 106.736,151.289 C 105.629,152.743 103.233,155.692 101.412,157.841 C 99.591,159.991 96.335,163.876 94.176,166.474 C 92.017,169.072 88.225,172.990 85.750,175.180 C 80.777,179.581 69.942,187.000 68.487,187.000 C 67.977,187.000 67.420,187.225 67.250,187.500 C 67.080,187.775 66.482,188.000 65.920,188.000 C 65.080,188.000 65.365,187.492 67.535,185.125 C 70.576,181.808 74.000,176.722 74.000,175.522 C 74.000,175.070 74.186,174.486 74.413,174.225 C 74.640,173.964 75.120,172.738 75.480,171.500 C 75.839,170.262 76.525,168.125 77.004,166.750 C 77.482,165.375 78.032,162.675 78.225,160.750 C 78.418,158.825 78.696,156.744 78.842,156.125 C 79.265,154.338 78.294,154.816 76.967,157.047 C 76.298,158.173 75.525,159.470 75.250,159.930 C 72.996,163.697 67.303,168.801 59.644,173.921 C 57.111,175.614 54.898,177.000 54.726,177.000 C 54.554,177.000 52.771,178.135 50.764,179.523 C 45.051,183.473 39.272,189.993 35.932,196.258 C 31.407,204.746 29.856,212.915 30.950,222.500 C 31.279,225.387 31.791,228.537 32.088,229.500 C 36.142,242.655 44.216,252.695 55.064,258.072 C 62.812,261.912 66.775,262.876 75.118,262.949 C 78.345,262.977 82.058,262.746 83.368,262.435 Z" fill="#000000" fill-rule="evenodd" /></svg>