<svg xmlns="http://www.w3.org/2000/svg" viewBox="0 0 284 292" width="284" height="292"><path d="M 45.186,275.169 C 44.705,274.988 40.928,269.392 28.368,250.250 C 24.918,244.992 21.139,239.555 18.952,236.704 C 17.879,235.303 17.000,234.017 17.000,233.844 C 17.000,233.672 15.875,231.808 14.500,229.701 C 13.125,227.595 12.000,225.602 12.000,225.273 C 12.000,224.294 13.758,222.974 24.000,216.263 C 29.363,212.749 35.100,208.833 36.750,207.561 C 38.400,206.288 40.689,204.611 41.836,203.833 C 42.983,203.055 45.683,200.800 47.836,198.823 C 49.989,196.845 52.987,194.221 54.500,192.991 C 56.013,191.761 57.475,190.492 57.750,190.171 C 58.025,189.850 59.734,188.463 61.548,187.089 C 66.394,183.418 73.904,179.869 79.625,178.548 C 80.931,178.247 83.069,177.720 84.375,177.378 C 87.563,176.542 106.994,176.523 109.750,177.352 C 110.850,177.683 114.675,178.662 118.250,179.527 C 121.825,180.392 126.760,181.756 129.217,182.559 C 139.587,185.944 145.806,186.812 162.750,187.240 C 181.998,187.725 183.723,188.080 187.457,192.317 C 190.453,195.717 191.163,197.304 191.120,200.500 C 191.054,205.353 188.274,209.730 184.000,211.708 C 181.838,212.709 180.755,212.760 156.250,213.000 L 130.750,213.250 L 128.000,214.603 C 124.680,216.237 119.721,221.052 120.166,222.210 C 120.597,223.334 125.314,223.422 127.250,222.342 C 127.959,221.947 135.873,221.822 154.408,221.913 C 181.610,222.046 180.995,222.085 186.895,219.863 C 190.206,218.617 196.464,212.922 197.869,209.879 C 198.409,208.708 199.158,206.335 199.533,204.605 C 199.908,202.876 200.591,201.120 201.051,200.704 C 201.924,199.914 203.121,199.084 213.782,191.878 C 217.339,189.474 222.500,185.801 225.250,183.716 C 228.000,181.631 231.203,179.323 232.368,178.587 C 233.533,177.852 236.387,175.849 238.710,174.136 C 241.033,172.423 244.878,170.005 247.256,168.761 C 251.877,166.344 254.631,165.917 258.561,167.009 C 262.408,168.077 267.000,173.740 267.000,177.415 C 267.000,178.199 266.310,180.221 265.467,181.908 C 263.774,185.296 256.476,192.634 247.297,200.179 C 244.573,202.418 240.748,205.784 238.797,207.659 C 236.846,209.535 233.629,212.296 231.648,213.795 C 229.667,215.295 227.912,216.738 227.749,217.002 C 227.099,218.054 215.378,227.574 203.862,236.403 C 201.600,238.136 198.287,240.775 196.500,242.267 C 191.979,246.040 181.860,253.434 178.185,255.651 C 168.746,261.344 165.536,261.440 133.500,256.988 C 125.938,255.937 117.612,254.838 115.000,254.544 C 112.388,254.251 108.112,253.749 105.500,253.430 C 102.888,253.110 96.700,252.831 91.750,252.809 L 82.750,252.769 L 79.175,254.335 C 75.203,256.076 70.587,259.069 62.007,265.467 C 58.849,267.823 55.699,270.067 55.007,270.455 C 54.316,270.843 52.625,271.994 51.250,273.014 C 48.884,274.768 46.436,275.638 45.186,275.169 Z M 147.000,174.012 C 135.937,172.493 127.156,168.014 118.472,159.458 C 111.769,152.854 109.372,148.480 107.208,138.905 C 105.409,130.945 105.646,119.933 107.733,114.500 C 108.102,113.537 108.899,111.175 109.504,109.250 C 110.108,107.325 110.925,105.239 111.319,104.615 C 112.676,102.466 115.028,94.319 115.311,90.788 C 115.569,87.565 115.207,84.682 114.256,82.379 C 114.013,81.792 114.169,81.404 114.733,81.187 C 115.915,80.734 119.287,84.137 120.742,87.250 C 121.384,88.625 122.058,90.896 122.241,92.297 C 122.687,95.723 121.706,104.092 120.557,106.668 C 118.366,111.577 118.046,118.640 119.790,123.636 C 121.343,128.087 126.258,133.586 125.311,129.813 C 125.147,129.161 124.751,126.868 124.432,124.719 C 123.471,118.261 125.099,110.529 129.308,101.559 C 132.200,95.394 133.077,91.507 133.097,84.750 C 133.121,77.129 131.982,73.503 127.870,68.112 C 126.764,66.662 125.998,65.335 126.169,65.165 C 126.339,64.994 128.307,65.376 130.543,66.012 C 138.050,68.150 143.613,72.967 147.086,80.337 C 149.098,84.605 150.979,91.112 150.992,93.845 C 151.005,96.580 151.841,96.129 153.260,92.622 C 156.174,85.415 156.776,78.647 155.072,72.240 C 154.561,70.320 153.867,67.400 153.528,65.750 C 153.190,64.100 152.542,61.175 152.088,59.250 C 150.986,54.571 151.016,46.266 152.151,42.000 C 153.350,37.496 157.629,29.142 160.421,25.857 C 164.397,21.178 171.233,16.000 173.434,16.000 C 174.839,16.000 174.799,16.266 172.785,20.308 C 170.305,25.287 169.646,31.005 170.718,38.250 C 171.453,43.216 177.810,54.160 185.875,64.342 C 186.769,65.471 187.500,66.563 187.500,66.770 C 187.500,66.977 188.259,68.295 189.187,69.698 C 192.419,74.587 194.571,84.062 194.565,93.375 C 194.563,96.194 194.770,98.500 195.024,98.500 C 195.874,98.500 198.165,94.294 199.382,90.500 C 200.306,87.618 200.683,84.948 201.009,78.969 C 201.508,69.825 201.625,69.265 203.859,65.289 C 205.988,61.501 209.068,58.298 211.902,56.926 C 214.929,55.461 215.444,56.203 213.586,59.354 C 212.128,61.826 211.252,65.715 211.438,68.892 C 211.562,71.019 213.448,76.216 215.963,81.362 C 218.830,87.230 219.711,92.140 219.351,100.246 C 219.127,105.282 218.789,107.540 217.852,110.250 C 216.334,114.639 213.463,120.373 211.782,122.370 C 210.110,124.358 210.164,124.652 212.125,124.230 C 217.629,123.044 222.115,118.523 226.831,109.409 C 227.814,107.510 228.867,106.039 229.171,106.140 C 229.475,106.242 229.901,107.095 230.116,108.037 C 233.315,122.029 232.448,137.240 227.976,145.568 C 227.439,146.568 227.000,147.668 227.000,148.012 C 227.000,149.106 221.616,156.694 218.629,159.813 C 212.473,166.237 203.109,171.244 193.526,173.236 C 186.632,174.670 183.780,174.165 188.289,172.310 C 191.606,170.946 195.103,167.988 197.650,164.394 C 201.001,159.666 201.825,157.680 202.473,152.776 C 202.798,150.315 203.166,148.137 203.290,147.935 C 203.414,147.734 203.258,147.409 202.942,147.214 C 202.620,147.015 202.138,147.275 201.844,147.805 C 200.078,150.991 194.211,155.301 190.305,156.281 C 188.524,156.728 188.596,156.141 191.052,150.208 C 192.927,145.679 193.111,144.839 193.177,140.500 C 193.240,136.305 193.059,135.217 191.624,131.191 C 189.935,126.448 189.455,121.453 190.501,119.497 C 191.238,118.121 190.317,117.857 188.838,119.020 C 186.180,121.111 182.812,128.725 182.149,134.140 C 181.662,138.125 180.429,137.884 178.128,133.354 C 174.698,126.601 173.860,123.652 173.837,118.250 C 173.822,114.805 174.098,112.317 174.722,110.250 C 177.672,100.492 177.969,95.628 175.947,90.223 C 174.919,87.477 173.091,84.742 172.606,85.227 C 172.452,85.381 172.371,86.799 172.425,88.379 C 172.644,94.700 170.987,99.718 166.645,105.882 C 163.339,110.577 160.263,117.240 159.512,121.336 C 158.729,125.606 159.009,131.472 160.289,137.609 C 160.789,140.007 161.032,142.134 160.829,142.338 C 160.251,142.916 156.166,140.460 154.032,138.251 C 151.406,135.532 149.560,131.766 149.118,128.228 C 148.916,126.609 148.528,125.310 148.256,125.343 C 147.984,125.376 147.382,126.381 146.919,127.576 C 142.498,138.972 142.909,145.730 148.628,155.660 C 149.391,156.986 149.886,158.280 149.728,158.535 C 148.580,160.393 141.930,157.164 138.392,153.030 C 134.835,148.875 134.791,152.566 138.310,159.805 C 140.055,163.392 141.239,165.046 143.888,167.591 C 145.737,169.368 148.421,171.368 149.853,172.036 C 153.961,173.952 152.738,174.800 147.000,174.012 Z" fill="#000000" fill-rule="evenodd" /></svg>