<svg xmlns="http://www.w3.org/2000/svg" viewBox="0 0 356 369" width="356" height="369"><path d="M 17.799,353.580 C 17.657,353.349 18.095,352.168 18.774,350.955 C 19.453,349.742 21.004,346.837 22.220,344.500 C 23.436,342.163 25.348,338.562 26.468,336.500 C 27.589,334.438 30.782,328.250 33.565,322.750 C 36.348,317.250 39.364,311.400 40.267,309.750 C 47.557,296.427 53.046,285.908 69.880,253.000 C 72.482,247.912 75.451,242.287 76.477,240.500 C 77.503,238.713 80.323,233.425 82.745,228.750 C 85.167,224.075 88.436,217.775 90.009,214.750 C 91.582,211.725 94.097,206.887 95.597,204.000 C 97.098,201.113 100.188,195.318 102.466,191.124 C 104.743,186.929 106.489,183.193 106.346,182.820 C 106.132,182.261 100.572,182.124 74.694,182.039 C 57.428,181.983 43.107,181.816 42.868,181.669 C 42.630,181.521 42.755,181.029 43.146,180.575 C 43.537,180.121 46.169,175.250 48.995,169.750 C 51.821,164.250 54.296,159.525 54.496,159.250 C 55.037,158.506 61.173,147.001 66.629,136.500 C 68.415,133.062 70.999,128.113 72.370,125.500 C 73.741,122.888 76.724,117.150 78.999,112.750 C 83.753,103.556 88.497,94.478 90.628,90.500 C 91.438,88.987 94.023,84.037 96.372,79.500 C 98.720,74.963 101.510,69.619 102.571,67.625 C 103.632,65.631 105.369,62.369 106.431,60.375 C 107.493,58.381 111.241,51.131 114.760,44.263 C 118.278,37.396 121.750,30.758 122.475,29.513 C 123.199,28.269 124.769,25.337 125.964,23.000 C 127.158,20.663 128.432,18.406 128.794,17.986 C 129.157,17.566 130.043,15.935 130.763,14.361 L 132.073,11.500 L 148.662,11.468 C 186.349,11.396 208.638,11.471 208.838,11.671 C 209.077,11.911 205.468,17.857 202.568,22.000 C 200.825,24.491 198.429,28.149 193.399,36.000 C 192.430,37.513 189.962,41.337 187.915,44.500 C 185.868,47.663 183.756,50.972 183.221,51.855 C 178.977,58.868 177.345,61.454 174.033,66.412 C 171.952,69.525 169.012,74.060 167.500,76.488 C 163.719,82.558 160.290,87.914 153.163,98.882 C 138.698,121.145 135.069,126.683 130.375,133.657 C 129.619,134.781 129.171,135.871 129.379,136.079 C 129.587,136.287 144.999,136.489 163.629,136.528 C 191.600,136.586 197.500,136.715 197.500,137.270 C 197.500,137.639 196.142,139.585 194.483,141.595 C 189.886,147.164 187.013,150.595 185.563,152.250 C 184.840,153.075 182.481,155.887 180.321,158.500 C 175.614,164.193 170.196,170.616 168.569,172.432 C 167.920,173.157 164.432,177.334 160.819,181.714 C 157.206,186.094 152.562,191.690 150.500,194.148 C 148.438,196.607 145.287,200.376 143.500,202.524 C 141.713,204.672 137.729,209.426 134.648,213.090 C 131.568,216.753 127.405,221.805 125.398,224.316 C 121.319,229.422 112.631,239.963 101.903,252.826 C 83.751,274.588 74.485,285.639 70.522,290.250 C 65.985,295.529 57.999,305.248 51.007,314.000 C 48.700,316.887 45.545,320.712 43.996,322.500 C 42.446,324.288 38.447,329.125 35.109,333.250 C 31.770,337.375 27.318,342.775 25.215,345.250 C 23.112,347.725 20.702,350.706 19.861,351.875 C 18.199,354.183 18.181,354.198 17.799,353.580 Z M 209.185,339.696 C 198.544,334.267 197.667,333.757 189.600,328.303 C 180.100,321.881 170.018,313.475 160.750,304.250 C 149.598,293.149 141.038,282.121 132.169,267.426 C 126.996,258.855 121.000,247.497 121.000,246.269 C 121.000,245.785 122.726,243.558 124.835,241.320 C 126.944,239.081 129.777,235.844 131.130,234.125 C 132.484,232.406 133.886,231.000 134.246,231.000 C 134.606,231.000 135.317,232.064 135.825,233.364 C 138.210,239.460 147.394,256.951 151.468,263.153 C 155.578,269.410 158.214,272.896 167.033,283.739 C 170.039,287.436 179.011,296.332 184.500,301.059 C 193.504,308.813 215.616,323.500 218.286,323.500 C 218.651,323.500 220.255,322.713 221.850,321.751 C 223.445,320.789 224.922,320.002 225.133,320.001 C 225.343,320.001 226.806,319.173 228.383,318.163 C 229.960,317.152 232.150,315.752 233.250,315.050 C 236.112,313.226 248.705,303.792 252.250,300.818 C 260.559,293.847 269.634,284.168 276.692,274.750 C 285.672,262.769 288.854,257.666 294.935,245.500 C 299.699,235.968 300.325,234.603 303.814,226.114 C 306.570,219.411 310.930,204.297 313.728,191.750 C 318.036,172.429 319.351,159.872 319.838,133.403 L 320.148,116.556 L 318.949,116.315 C 318.290,116.182 316.288,115.803 314.500,115.473 C 307.046,114.097 291.559,109.596 282.750,106.246 C 270.413,101.554 266.027,99.828 263.623,98.721 C 262.177,98.055 259.702,96.966 258.123,96.300 C 254.976,94.975 249.582,92.196 243.000,88.510 C 240.662,87.200 237.512,85.455 236.000,84.631 C 231.598,82.233 222.937,77.004 220.607,75.338 L 218.465,73.805 L 216.857,74.741 C 215.973,75.256 214.261,76.425 213.053,77.339 C 211.845,78.252 210.699,79.000 210.508,79.000 C 210.316,79.000 207.185,80.795 203.550,82.989 C 199.915,85.182 195.886,87.508 194.595,88.158 C 193.305,88.807 190.562,90.249 188.500,91.362 C 180.803,95.517 170.417,100.497 169.432,100.506 C 169.057,100.509 167.771,101.072 166.574,101.756 C 164.121,103.159 164.000,103.194 164.000,102.505 C 164.000,101.725 171.657,89.466 175.218,84.545 C 176.990,82.095 179.150,78.833 180.018,77.295 C 180.885,75.758 182.304,73.994 183.171,73.375 C 184.715,72.273 195.012,66.000 195.277,66.000 C 195.956,66.000 208.865,57.496 214.061,53.625 C 215.999,52.181 217.911,51.000 218.310,51.000 C 219.212,51.000 220.554,51.854 226.279,56.071 C 231.035,59.574 245.983,69.000 246.782,69.000 C 246.913,69.000 247.893,69.551 248.961,70.225 C 250.028,70.899 252.443,72.257 254.326,73.243 C 256.209,74.229 258.087,75.249 258.500,75.510 C 259.296,76.014 262.267,77.362 272.750,81.973 C 284.125,86.976 296.530,91.651 304.565,93.963 C 310.974,95.807 321.011,98.116 331.101,100.069 C 334.044,100.638 336.821,101.375 337.273,101.705 C 338.559,102.645 338.955,108.168 338.963,125.250 C 338.974,148.243 337.739,164.984 334.701,183.000 C 332.948,193.393 328.324,213.355 327.468,214.225 C 327.210,214.486 327.000,215.119 327.000,215.631 C 327.000,219.465 316.862,245.593 312.052,254.157 C 311.473,255.188 311.000,256.228 311.000,256.469 C 311.000,257.932 302.113,272.174 295.067,282.000 C 282.154,300.010 265.485,315.910 246.129,328.682 C 239.273,333.206 219.537,344.000 218.122,344.000 C 217.846,344.000 213.824,342.063 209.185,339.696 Z M 215.250,310.031 C 213.600,308.995 211.142,307.495 209.787,306.698 C 205.428,304.135 204.776,303.742 203.250,302.757 C 198.478,299.679 187.962,291.023 183.765,286.719 C 175.520,278.265 165.752,266.383 160.803,258.786 C 157.477,253.681 151.255,242.912 149.372,239.000 C 148.379,236.938 146.336,232.162 144.832,228.389 L 142.097,221.527 L 144.157,218.639 C 148.304,212.822 153.242,206.790 163.272,195.288 C 165.208,193.067 170.271,187.009 174.522,181.825 C 182.468,172.134 184.530,169.674 191.023,162.132 C 193.098,159.722 195.714,156.512 196.836,155.000 C 197.958,153.488 200.285,150.675 202.006,148.750 C 203.727,146.825 205.724,144.463 206.443,143.500 C 207.162,142.537 208.126,141.300 208.585,140.750 C 210.520,138.434 214.899,133.164 216.856,130.797 C 218.014,129.396 218.970,127.969 218.981,127.625 C 218.996,127.131 211.519,127.000 183.208,127.000 C 163.523,127.000 147.492,126.824 147.583,126.608 C 147.675,126.393 149.164,124.167 150.893,121.662 C 153.676,117.628 154.333,116.984 156.643,116.027 C 158.077,115.433 159.700,114.757 160.250,114.525 C 160.800,114.293 163.050,113.484 165.250,112.726 C 173.333,109.944 179.431,107.325 187.000,103.387 C 191.262,101.169 197.238,98.057 200.280,96.472 C 207.988,92.454 215.570,88.072 216.708,86.978 C 217.642,86.080 217.775,86.115 221.958,88.364 C 224.319,89.634 227.037,91.158 228.000,91.751 C 235.832,96.582 252.025,104.624 263.750,109.508 C 275.629,114.456 299.006,122.492 305.250,123.773 C 306.075,123.943 307.369,124.315 308.125,124.601 L 309.500,125.121 L 309.496,134.686 C 309.488,150.837 308.462,163.649 305.966,178.750 C 303.583,193.165 302.425,197.738 297.164,213.500 C 289.994,234.979 281.200,252.354 270.153,266.869 C 259.031,281.484 243.583,295.966 229.750,304.746 C 228.100,305.794 224.944,307.854 222.736,309.325 C 220.528,310.796 218.616,311.981 218.486,311.958 C 218.356,311.935 216.900,311.068 215.250,310.031 Z" fill="#000000" fill-rule="evenodd" /></svg>