<svg xmlns="http://www.w3.org/2000/svg" viewBox="0 0 305 323" width="305" height="323"><path d="M 63.500,309.760 C 63.500,309.353 66.871,302.434 70.992,294.385 C 75.113,286.336 85.366,265.913 93.778,249.000 C 110.821,214.734 111.890,212.603 118.627,199.500 C 121.243,194.412 125.543,186.030 128.182,180.871 C 130.822,175.713 133.354,170.925 133.809,170.231 C 134.263,169.537 134.488,168.822 134.309,168.642 C 134.129,168.462 120.824,168.373 104.741,168.445 C 84.398,168.535 75.500,168.413 75.500,168.044 C 75.500,167.752 76.737,164.910 78.250,161.728 C 79.763,158.545 81.000,155.853 81.000,155.745 C 81.000,155.637 84.682,148.055 89.182,138.896 C 93.682,129.737 97.863,121.120 98.474,119.747 C 99.505,117.428 100.228,115.969 102.935,110.750 C 103.506,109.650 106.420,103.688 109.411,97.500 C 114.698,86.563 122.946,69.836 142.328,30.750 L 151.750,11.750 L 196.625,11.622 C 226.367,11.538 241.500,11.664 241.500,11.996 C 241.500,12.272 240.762,13.342 239.859,14.374 C 237.984,16.519 234.719,20.907 227.492,31.000 C 226.015,33.062 223.219,36.863 221.278,39.446 C 219.338,42.029 217.312,44.729 216.776,45.446 C 214.126,48.992 202.400,64.845 199.169,69.250 C 197.151,72.000 190.382,81.120 184.125,89.517 C 166.480,113.199 162.278,118.916 162.077,119.518 C 161.942,119.925 171.338,120.043 196.945,119.954 C 216.224,119.887 232.143,119.977 232.320,120.154 C 232.736,120.569 227.846,126.266 216.250,138.879 C 213.500,141.870 208.651,147.227 205.475,150.783 C 194.088,163.534 175.190,184.835 172.006,188.508 C 167.783,193.378 157.407,205.058 154.467,208.250 C 150.530,212.524 146.461,217.043 140.750,223.487 C 137.725,226.900 132.213,233.045 128.500,237.143 C 124.787,241.240 118.825,247.922 115.250,251.990 C 111.675,256.059 106.388,262.068 103.500,265.345 C 100.612,268.621 94.453,275.677 89.813,281.026 C 78.554,294.003 63.935,310.500 63.694,310.500 C 63.587,310.500 63.500,310.167 63.500,309.760 Z M 135.500,205.483 C 138.662,201.083 143.285,194.506 145.773,190.867 C 149.731,185.076 159.025,171.851 167.992,159.250 C 169.557,157.050 171.996,153.522 173.411,151.409 C 174.826,149.297 176.213,147.428 176.492,147.255 C 176.771,147.082 177.000,146.486 177.000,145.929 C 177.000,144.921 176.866,144.918 144.482,145.132 C 126.597,145.250 111.881,145.212 111.780,145.048 C 111.679,144.884 114.516,138.900 118.085,131.750 C 121.654,124.600 124.939,117.850 125.385,116.750 C 125.831,115.650 126.827,113.750 127.598,112.527 C 128.369,111.305 129.000,110.039 129.000,109.714 C 129.000,109.103 136.074,94.373 146.754,72.750 C 152.326,61.469 158.840,48.079 165.484,34.250 C 168.741,27.472 168.720,27.559 167.208,26.984 C 165.299,26.258 162.705,26.401 161.983,27.271 C 161.272,28.127 159.871,30.764 156.945,36.750 C 155.870,38.950 154.573,41.538 154.064,42.500 C 152.811,44.865 151.309,47.810 150.046,50.375 C 149.471,51.544 148.566,53.344 148.035,54.375 C 147.504,55.406 145.015,60.525 142.504,65.750 C 139.993,70.975 137.457,76.150 136.870,77.250 C 135.571,79.684 135.187,80.468 132.342,86.500 C 131.109,89.112 127.153,97.242 123.550,104.565 C 119.948,111.889 117.000,118.210 117.000,118.613 C 117.000,119.016 116.550,119.752 116.000,120.250 C 115.450,120.748 115.000,121.337 115.000,121.559 C 115.000,122.112 105.915,141.157 103.818,145.000 C 102.128,148.097 100.506,152.105 100.769,152.532 C 100.944,152.814 113.027,153.000 131.280,153.000 C 147.901,153.000 161.500,153.121 161.500,153.270 C 161.500,153.743 159.441,157.622 156.998,161.750 C 154.768,165.519 153.774,167.321 148.861,176.500 C 147.757,178.562 146.064,181.713 145.099,183.500 C 144.133,185.287 141.725,189.787 139.748,193.500 C 133.668,204.915 129.921,211.728 129.450,212.225 C 128.903,212.802 128.862,213.503 129.375,213.492 C 129.581,213.487 132.338,209.884 135.500,205.483 Z M 153.206,299.500 C 153.356,297.988 153.675,295.625 153.916,294.250 C 155.154,287.166 158.089,263.049 157.775,262.540 C 157.465,262.039 153.001,261.137 148.875,260.743 C 146.624,260.528 145.500,260.206 145.500,259.777 C 145.500,259.211 149.236,250.755 150.549,248.350 C 152.868,244.100 160.829,227.737 162.516,223.750 C 163.680,221.000 164.715,218.656 164.816,218.542 C 165.414,217.864 165.402,220.024 164.748,231.029 C 163.920,244.951 163.817,251.328 164.412,251.695 C 164.638,251.835 166.832,252.199 169.287,252.503 C 171.742,252.807 173.902,253.212 174.087,253.403 C 174.273,253.594 173.299,256.337 171.925,259.500 C 170.550,262.663 168.749,266.938 167.922,269.000 C 167.095,271.062 165.740,274.212 164.911,276.000 C 164.081,277.788 162.732,280.938 161.911,283.000 C 160.371,286.870 158.271,291.787 156.192,296.390 C 155.536,297.842 154.995,299.192 154.989,299.390 C 154.983,299.588 154.518,300.312 153.956,301.000 L 152.934,302.250 L 153.206,299.500 Z M 238.892,265.061 C 237.989,264.270 233.511,260.614 228.942,256.936 C 224.372,253.259 216.404,246.762 211.234,242.500 C 206.065,238.238 199.229,232.652 196.043,230.087 C 192.857,227.523 190.055,225.235 189.818,225.005 C 189.338,224.539 191.244,223.252 197.300,219.955 C 199.527,218.742 201.856,217.407 202.475,216.989 L 203.600,216.228 L 200.964,211.989 C 195.443,203.112 189.264,193.670 187.664,191.666 C 185.840,189.381 185.691,188.999 186.625,189.003 C 187.333,189.005 189.872,190.622 208.500,202.930 C 224.013,213.180 227.002,215.316 226.994,216.141 C 226.986,216.824 222.145,220.149 218.080,222.263 C 216.612,223.027 215.302,223.935 215.169,224.282 C 215.035,224.629 217.562,229.038 220.783,234.081 C 224.004,239.124 227.542,244.713 228.644,246.500 C 229.747,248.287 231.264,250.650 232.015,251.750 C 239.296,262.418 241.500,265.751 241.500,266.096 C 241.500,266.876 240.519,266.486 238.892,265.061 Z M 21.850,247.346 C 22.070,246.987 24.725,243.715 27.750,240.075 C 30.775,236.435 33.812,232.711 34.500,231.800 C 40.891,223.328 55.011,205.683 60.747,199.000 C 62.990,196.387 65.226,193.633 65.717,192.879 C 66.208,192.125 66.798,191.625 67.028,191.767 C 67.258,191.909 68.956,195.057 70.802,198.763 C 72.648,202.468 74.246,205.500 74.354,205.500 C 74.740,205.500 77.790,203.819 80.247,202.252 C 95.510,192.518 103.117,187.521 105.117,185.915 C 106.950,184.442 107.381,185.057 105.945,187.096 C 101.049,194.053 76.961,224.071 70.943,230.713 C 70.703,230.978 69.975,229.906 69.245,228.213 C 67.476,224.114 64.338,217.959 63.869,217.669 C 63.656,217.537 62.304,218.279 60.865,219.317 C 56.957,222.139 36.143,237.736 29.000,243.195 C 23.215,247.616 20.842,248.994 21.850,247.346 Z M 243.878,184.788 C 242.849,184.421 240.149,183.835 237.878,183.487 C 233.074,182.751 228.569,181.887 224.000,180.826 C 222.213,180.411 219.062,179.735 217.000,179.325 C 211.746,178.279 202.829,175.962 202.349,175.518 C 201.405,174.646 214.251,172.830 225.750,172.210 C 233.869,171.772 233.192,172.357 232.831,166.098 C 232.661,163.157 232.379,160.131 232.203,159.375 C 231.789,157.593 232.126,157.595 241.464,159.438 C 245.471,160.229 250.325,161.143 252.250,161.469 C 254.175,161.795 257.550,162.483 259.750,162.998 C 263.559,163.890 269.305,165.045 274.750,166.015 C 278.293,166.646 288.438,168.530 290.397,168.921 C 291.302,169.102 292.040,169.475 292.037,169.750 C 292.029,170.362 288.631,170.726 276.000,171.465 C 270.637,171.779 263.887,172.245 261.000,172.500 C 258.113,172.755 253.648,173.110 251.080,173.289 L 246.410,173.613 L 246.722,177.182 C 246.894,179.144 247.160,181.819 247.314,183.125 C 247.632,185.826 247.274,186.000 243.878,184.788 Z M 14.000,159.500 C 14.000,159.225 14.221,159.000 14.492,159.000 C 14.763,159.000 16.360,158.333 18.042,157.519 C 19.724,156.704 22.822,155.490 24.925,154.822 C 27.029,154.154 30.438,152.834 32.500,151.889 C 34.562,150.945 37.038,149.866 38.000,149.493 C 40.570,148.494 42.000,147.481 42.000,146.658 C 42.000,145.896 39.538,142.016 37.887,140.178 C 37.207,139.420 37.094,139.001 37.504,138.748 C 37.952,138.471 61.872,137.659 73.625,137.522 C 74.968,137.506 75.500,137.713 75.500,138.250 C 75.500,138.662 75.269,139.000 74.987,139.000 C 74.705,139.000 72.297,140.031 69.636,141.291 C 66.975,142.551 62.650,144.491 60.024,145.601 C 57.398,146.712 55.052,147.803 54.809,148.026 C 54.561,148.254 55.160,150.020 56.176,152.057 C 57.171,154.051 57.932,155.721 57.867,155.768 C 57.645,155.931 38.730,157.941 32.000,158.517 C 28.288,158.835 23.456,159.298 21.263,159.547 C 16.100,160.134 14.000,160.120 14.000,159.500 Z M 78.500,123.813 C 73.008,120.979 65.604,117.072 64.000,116.162 C 63.038,115.616 60.337,114.187 58.000,112.986 C 55.663,111.786 51.837,109.637 49.500,108.212 C 44.020,104.870 38.250,101.680 35.875,100.681 C 34.844,100.247 34.000,99.627 34.000,99.305 C 34.000,98.982 36.391,96.925 39.312,94.734 C 45.939,89.764 46.000,89.715 46.000,89.291 C 46.000,89.099 44.022,86.986 41.604,84.596 C 32.587,75.680 11.885,53.949 12.153,53.681 C 12.306,53.528 14.640,54.740 17.340,56.374 C 24.988,61.002 39.642,69.477 45.500,72.659 C 47.013,73.480 48.847,74.568 49.577,75.076 C 50.307,75.584 51.017,76.000 51.156,76.000 C 51.457,76.000 61.862,81.973 66.676,84.910 C 68.560,86.059 70.277,87.000 70.490,87.000 C 70.703,87.000 71.132,87.307 71.443,87.682 C 71.895,88.226 71.178,88.940 67.879,91.233 C 65.608,92.811 62.640,94.811 61.284,95.676 C 59.928,96.542 58.722,97.549 58.604,97.914 C 58.487,98.279 59.383,99.517 60.596,100.664 C 61.809,101.811 64.349,104.550 66.241,106.750 C 72.234,113.720 81.686,124.000 82.100,124.000 C 82.320,124.000 82.500,124.225 82.500,124.500 C 82.500,125.323 80.890,125.047 78.500,123.813 Z M 195.000,103.371 C 195.000,103.026 196.181,101.371 197.625,99.695 C 199.069,98.018 201.765,94.757 203.616,92.448 C 208.374,86.514 213.965,79.952 218.482,75.000 C 220.614,72.662 223.234,69.696 224.304,68.407 C 226.578,65.668 227.303,65.465 227.737,67.442 C 228.215,69.619 231.396,76.715 231.981,76.910 C 232.263,77.004 234.014,76.007 235.872,74.695 C 237.730,73.382 241.275,70.895 243.750,69.167 C 248.533,65.827 253.763,61.981 263.213,54.851 C 269.089,50.418 270.507,49.536 270.492,50.322 C 270.481,50.907 253.702,71.607 243.000,84.238 C 238.188,89.918 233.238,95.884 232.000,97.497 C 230.762,99.110 229.574,100.446 229.359,100.465 C 229.015,100.496 224.634,91.704 223.833,89.375 C 223.380,88.060 222.351,88.288 217.852,90.696 C 213.641,92.950 211.096,94.479 201.738,100.372 C 201.195,100.714 199.791,101.472 198.619,102.055 C 197.446,102.639 196.364,103.315 196.214,103.558 C 195.807,104.216 195.000,104.092 195.000,103.371 Z M 94.609,91.125 C 94.051,89.819 92.778,86.500 91.780,83.750 C 90.782,81.000 89.321,77.175 88.534,75.250 C 86.133,69.381 84.493,65.008 83.206,61.038 C 82.530,58.954 81.757,56.859 81.489,56.382 C 80.483,54.594 80.889,54.001 83.125,53.990 C 85.371,53.980 92.057,53.110 92.380,52.786 C 92.942,52.224 90.952,18.290 90.201,15.625 C 90.023,14.995 90.104,14.500 90.385,14.500 C 91.401,14.500 92.040,16.239 104.312,52.410 C 105.835,56.897 106.950,60.910 106.790,61.327 C 106.558,61.930 105.658,62.066 102.374,61.992 C 100.106,61.942 97.957,61.922 97.598,61.950 C 97.078,61.990 96.958,64.844 97.002,76.125 C 97.032,83.894 97.044,90.981 97.028,91.875 C 96.986,94.276 95.797,93.907 94.609,91.125 Z" fill="#000000" fill-rule="evenodd" /></svg>