<svg xmlns="http://www.w3.org/2000/svg" viewBox="0 0 459 461" width="459" height="461"><path d="M 226.250,444.021 C 218.100,442.949 210.251,438.328 204.959,431.487 C 202.878,428.797 201.503,427.476 200.587,427.288 C 199.852,427.136 197.338,426.682 195.000,426.278 C 189.986,425.412 186.416,424.689 184.000,424.050 C 173.001,421.140 167.104,419.266 159.500,416.265 C 151.430,413.079 139.688,407.734 134.500,404.884 C 132.438,403.751 130.300,402.576 129.750,402.274 C 128.671,401.681 126.199,400.116 120.867,396.652 C 119.006,395.443 114.956,392.381 111.867,389.847 L 106.250,385.240 L 103.750,385.916 C 102.375,386.288 98.732,386.712 95.653,386.858 C 90.344,387.110 89.799,387.041 85.020,385.507 C 78.904,383.543 75.269,381.261 71.055,376.741 C 67.059,372.455 65.412,369.870 63.427,364.771 C 62.070,361.285 61.831,359.952 61.628,354.750 C 61.434,349.790 61.570,348.064 62.417,344.792 C 63.616,340.156 64.159,341.670 57.051,329.857 C 54.273,325.241 52.000,321.354 52.000,321.221 C 52.000,321.087 50.171,317.214 47.936,312.614 C 45.701,308.014 43.702,303.800 43.492,303.250 C 43.283,302.700 42.523,300.869 41.803,299.181 C 39.160,292.984 35.864,281.156 33.530,269.500 C 32.677,265.238 31.880,261.297 31.759,260.743 C 31.639,260.189 30.350,258.854 28.895,257.776 C 24.855,254.781 23.084,253.020 20.890,249.815 C 15.629,242.129 13.720,231.393 16.002,222.333 C 18.033,214.273 21.771,208.751 28.803,203.423 L 31.355,201.489 L 32.189,196.870 C 35.031,181.107 38.417,168.708 43.350,156.000 C 45.035,151.659 51.764,138.621 56.253,131.000 C 59.413,125.637 59.768,125.071 61.442,122.735 L 63.134,120.375 L 62.253,114.880 C 60.833,106.026 61.653,99.331 65.025,92.220 C 70.654,80.351 84.893,72.676 98.008,74.441 C 104.701,75.342 105.246,75.258 108.417,72.837 C 109.975,71.648 113.050,69.356 115.250,67.745 C 117.450,66.134 120.037,64.221 121.000,63.494 C 125.882,59.807 138.593,52.800 148.000,48.610 C 157.205,44.511 169.538,40.202 177.000,38.477 C 178.512,38.128 181.325,37.443 183.250,36.954 C 185.175,36.466 189.900,35.494 193.750,34.794 C 200.683,33.534 200.764,33.504 202.232,31.636 C 207.361,25.108 213.854,20.342 221.268,17.664 C 224.740,16.410 237.139,16.399 240.640,17.647 C 247.199,19.984 254.001,24.724 257.990,29.737 C 259.362,31.462 261.107,33.106 261.867,33.392 C 262.628,33.677 265.950,34.407 269.250,35.014 C 287.470,38.363 302.716,43.479 320.750,52.296 C 331.633,57.616 348.575,68.283 353.817,73.115 C 355.781,74.926 356.158,75.081 357.866,74.783 C 362.120,74.042 371.725,73.894 374.476,74.526 C 378.065,75.352 384.233,78.389 387.837,81.106 C 393.562,85.423 398.979,93.730 400.484,100.501 C 401.074,103.154 400.954,112.582 400.262,118.000 C 399.994,120.099 400.195,120.620 403.240,125.750 C 407.105,132.261 414.622,147.001 417.136,153.000 C 421.996,164.596 426.860,180.906 428.468,191.000 C 428.797,193.062 429.276,195.564 429.533,196.558 C 429.790,197.552 430.000,198.839 430.000,199.417 C 430.000,200.112 430.932,201.157 432.747,202.497 C 438.074,206.433 441.308,210.362 443.985,216.151 C 446.021,220.557 446.317,221.556 447.013,226.393 C 447.618,230.592 446.532,239.165 444.829,243.630 C 442.663,249.312 438.005,255.182 433.241,258.233 C 430.789,259.803 430.716,259.920 430.105,263.295 C 429.760,265.195 429.029,268.775 428.479,271.250 C 427.929,273.725 427.282,276.650 427.042,277.750 C 426.102,282.046 421.248,297.688 419.749,301.250 C 419.401,302.075 418.826,303.538 418.471,304.500 C 416.574,309.635 406.362,330.116 404.759,332.000 C 404.408,332.413 403.766,333.451 403.332,334.308 C 402.898,335.166 401.740,336.919 400.759,338.204 C 398.990,340.521 398.981,340.561 399.672,342.646 C 402.023,349.736 401.952,359.063 399.500,365.423 C 395.727,375.205 389.395,381.268 378.603,385.430 C 374.875,386.868 373.942,387.020 368.375,387.098 C 364.451,387.152 361.858,386.971 361.158,386.592 C 358.162,384.969 355.588,386.044 348.250,391.985 C 343.581,395.765 338.648,398.907 327.653,405.105 C 326.331,405.850 324.688,406.797 324.000,407.211 C 322.441,408.147 306.962,415.174 304.250,416.176 C 294.996,419.595 283.351,423.296 279.748,423.964 C 278.371,424.219 275.896,424.763 274.248,425.173 C 270.463,426.114 265.529,427.000 264.070,427.000 C 262.160,427.000 260.255,428.327 258.038,431.200 C 253.790,436.707 245.943,441.870 239.500,443.397 C 236.237,444.170 229.716,444.478 226.250,444.021 Z M 238.050,434.459 C 249.962,430.669 256.916,419.583 255.396,406.808 C 253.627,391.943 238.618,382.418 224.062,386.925 C 222.033,387.553 219.543,388.591 218.528,389.232 C 215.403,391.205 210.575,396.924 208.608,400.984 C 206.893,404.523 206.784,405.036 206.802,409.500 C 206.824,414.962 207.632,418.076 210.291,422.950 C 212.425,426.861 213.798,428.395 217.364,430.851 C 221.505,433.703 225.858,434.972 231.550,434.987 C 234.191,434.994 237.116,434.757 238.050,434.459 Z M 197.784,411.495 C 197.829,406.419 198.049,404.642 198.963,402.000 C 200.523,397.486 202.758,393.197 205.054,390.313 C 206.124,388.969 207.000,387.701 207.000,387.496 C 207.000,387.290 205.144,386.844 202.875,386.503 C 195.775,385.437 190.469,384.035 179.250,380.262 C 174.850,378.782 170.125,377.077 168.750,376.474 C 162.976,373.940 161.545,373.278 157.500,371.273 C 155.162,370.114 152.350,368.642 151.250,368.002 C 150.150,367.361 148.636,366.522 147.885,366.137 C 147.134,365.752 146.405,365.251 146.264,365.023 C 146.124,364.795 144.825,363.998 143.379,363.251 C 141.933,362.503 140.300,361.497 139.750,361.015 C 139.200,360.533 137.062,359.008 135.000,357.627 C 132.938,356.245 130.705,354.527 130.038,353.807 C 129.371,353.088 128.688,352.500 128.520,352.500 C 128.352,352.500 127.927,354.644 127.575,357.265 C 126.353,366.370 124.223,371.086 118.660,376.999 L 114.766,381.139 L 115.996,381.944 C 116.672,382.387 119.144,384.195 121.488,385.961 C 123.832,387.727 127.432,390.272 129.487,391.617 C 133.172,394.028 151.095,403.237 154.500,404.468 C 155.463,404.816 156.700,405.289 157.250,405.518 C 164.211,408.421 174.880,411.944 183.000,414.022 C 185.338,414.620 189.275,415.739 191.750,416.508 C 194.225,417.277 196.583,417.869 196.990,417.823 C 197.595,417.755 197.739,416.608 197.784,411.495 Z M 268.500,417.278 C 279.279,414.883 288.916,412.149 296.000,409.478 C 298.062,408.700 301.416,407.479 303.451,406.765 C 305.487,406.051 307.737,405.147 308.451,404.756 C 309.166,404.366 312.586,402.695 316.052,401.044 C 327.572,395.555 345.854,383.764 346.844,381.184 C 346.998,380.784 346.080,379.576 344.635,378.277 C 341.115,375.111 338.188,371.134 336.719,367.520 C 335.466,364.437 334.991,362.580 333.971,356.787 C 333.684,355.157 333.336,353.640 333.198,353.416 C 333.059,353.192 331.642,354.075 330.047,355.379 C 325.107,359.419 318.875,363.798 316.000,365.249 C 314.488,366.012 312.125,367.351 310.750,368.225 C 308.546,369.625 301.417,373.209 295.837,375.722 C 292.642,377.160 286.030,379.506 280.750,381.075 C 273.432,383.249 271.561,383.719 259.125,386.511 C 257.681,386.835 256.500,387.219 256.500,387.365 C 256.500,387.511 257.276,388.710 258.223,390.029 C 263.550,397.444 265.564,405.689 264.291,414.875 C 263.791,418.477 263.598,418.367 268.500,417.278 Z M 222.296,378.370 C 222.911,377.755 221.754,375.916 218.428,372.219 C 215.252,368.691 206.922,359.090 199.947,350.920 C 191.621,341.168 186.377,335.233 185.830,334.940 C 185.511,334.769 171.753,334.769 155.256,334.940 C 128.966,335.212 125.245,335.344 125.117,336.011 C 124.931,336.976 132.713,344.737 137.009,347.872 C 138.801,349.180 142.176,351.729 144.509,353.536 C 150.692,358.327 160.957,363.961 172.188,368.727 C 180.776,372.371 194.142,376.153 203.250,377.516 C 205.450,377.845 208.150,378.301 209.250,378.530 C 211.619,379.021 221.769,378.897 222.296,378.370 Z M 257.000,377.761 C 260.988,377.081 265.488,376.209 267.000,375.822 C 268.512,375.435 270.640,374.961 271.728,374.767 C 274.030,374.358 286.874,370.139 291.250,368.355 C 295.295,366.705 304.723,362.137 307.500,360.482 C 317.382,354.592 322.738,350.755 331.301,343.430 C 334.617,340.594 336.100,338.963 336.520,337.688 C 336.845,336.705 336.916,335.730 336.679,335.511 C 336.443,335.293 322.847,334.956 306.466,334.764 L 276.681,334.413 L 272.966,338.765 C 270.922,341.159 267.950,344.609 266.362,346.434 C 264.773,348.258 261.202,352.450 258.426,355.750 C 253.246,361.908 251.531,363.849 246.251,369.526 C 242.593,373.460 239.787,377.496 240.345,378.021 C 241.729,379.325 248.445,379.220 257.000,377.761 Z M 374.884,377.230 C 382.704,374.575 388.566,368.753 391.074,361.150 C 392.416,357.083 392.347,349.797 390.928,345.783 C 386.871,334.308 375.296,327.258 363.299,328.957 C 357.777,329.739 350.610,333.994 347.486,338.345 C 340.448,348.144 340.964,361.164 348.733,369.872 C 354.952,376.843 366.475,380.085 374.884,377.230 Z M 102.820,376.931 C 108.256,374.897 111.486,372.572 114.561,368.480 C 117.423,364.671 118.579,361.813 119.151,357.130 C 121.112,341.074 110.565,328.951 94.500,328.796 C 89.443,328.747 86.272,329.849 80.653,333.608 C 74.558,337.685 71.450,342.636 70.388,349.960 C 69.734,354.466 70.608,359.360 72.949,364.311 C 75.424,369.543 81.640,374.833 87.804,376.953 C 91.992,378.394 98.938,378.383 102.820,376.931 Z M 236.059,368.625 C 240.766,363.722 246.830,356.762 254.213,347.785 C 256.943,344.466 260.487,340.225 262.088,338.362 C 263.690,336.499 265.000,334.773 265.000,334.526 C 265.000,333.822 253.411,333.596 224.835,333.744 C 208.779,333.827 198.231,334.069 197.939,334.361 C 197.449,334.851 202.636,341.599 209.064,348.837 C 223.664,365.276 230.760,373.000 231.264,373.000 C 231.590,373.000 233.748,371.031 236.059,368.625 Z M 70.439,330.354 C 71.621,328.713 79.677,323.735 84.244,321.824 C 87.571,320.431 89.601,319.921 92.803,319.675 C 95.111,319.498 97.000,319.148 97.000,318.899 C 97.000,318.649 96.100,317.120 95.000,315.500 C 93.900,313.880 93.000,312.451 93.000,312.324 C 93.000,312.197 91.400,309.316 89.445,305.921 C 86.281,300.430 85.313,298.534 82.719,292.750 C 81.761,290.613 79.726,285.166 77.395,278.500 C 75.343,272.631 73.668,264.983 73.079,258.790 C 72.898,256.887 72.501,255.247 72.197,255.147 C 71.893,255.047 70.880,255.697 69.947,256.592 C 66.431,259.964 62.321,262.199 57.079,263.589 C 53.947,264.420 52.225,264.562 47.625,264.368 C 41.095,264.094 41.520,263.584 42.724,270.250 C 43.963,277.115 46.409,285.421 47.575,286.725 C 47.809,286.986 48.000,287.662 48.000,288.227 C 48.000,289.470 51.222,298.437 53.846,304.500 C 55.882,309.203 62.680,322.319 64.506,325.068 C 65.640,326.776 67.011,329.042 67.553,330.104 C 68.577,332.112 69.138,332.161 70.439,330.354 Z M 397.284,327.081 C 400.436,321.598 407.477,307.445 409.017,303.500 C 411.837,296.272 412.685,293.974 413.815,290.500 C 415.761,284.518 416.794,281.047 417.979,276.500 C 418.588,274.163 419.629,270.417 420.293,268.177 C 420.957,265.937 421.500,263.937 421.500,263.734 C 421.500,263.530 419.173,263.519 416.328,263.710 C 407.764,264.284 400.828,262.104 393.825,256.638 C 390.550,254.082 390.046,254.228 389.976,257.750 C 389.929,260.100 388.896,265.271 388.367,265.799 C 388.165,266.001 388.000,266.887 388.000,267.767 C 388.000,268.647 387.326,271.479 386.503,274.059 C 385.679,276.639 384.539,280.212 383.968,282.000 C 383.397,283.788 382.496,286.204 381.965,287.370 C 381.434,288.535 381.000,289.720 381.000,290.002 C 381.000,290.285 380.139,292.256 379.086,294.383 C 372.461,307.767 369.939,312.328 367.113,316.034 C 365.990,317.506 365.181,318.889 365.315,319.106 C 365.449,319.323 366.502,319.506 367.655,319.513 C 370.490,319.530 377.188,321.090 380.250,322.446 C 384.378,324.275 389.643,327.838 391.426,330.011 C 392.347,331.135 393.439,331.985 393.851,331.902 C 394.263,331.818 395.808,329.649 397.284,327.081 Z M 118.000,326.282 C 118.000,325.887 118.558,319.418 119.241,311.907 C 120.970,292.884 121.470,287.728 122.811,275.119 C 123.094,272.456 123.002,271.828 122.197,270.922 C 121.324,269.939 111.268,261.282 101.959,253.500 C 99.821,251.713 94.695,247.381 90.569,243.875 C 86.442,240.369 82.852,237.500 82.591,237.500 C 82.108,237.500 80.286,241.677 79.729,244.064 C 79.427,245.359 80.374,253.061 81.766,260.628 C 83.375,269.367 86.374,279.084 90.349,288.432 C 97.041,304.169 107.537,320.213 114.470,325.301 C 116.939,327.114 118.000,327.409 118.000,326.282 Z M 202.500,326.609 C 202.500,326.394 201.431,325.925 200.125,325.566 C 196.636,324.607 195.289,324.075 189.613,321.411 C 186.787,320.085 184.271,319.000 184.022,319.000 C 183.772,319.000 183.425,318.550 183.250,318.000 C 183.075,317.450 182.723,317.000 182.466,317.000 C 181.681,317.000 181.946,318.088 183.001,319.197 C 183.552,319.776 184.944,321.333 186.095,322.658 C 188.590,325.528 189.532,326.098 192.500,326.535 C 195.768,327.016 202.500,327.066 202.500,326.609 Z M 270.140,326.555 C 272.869,326.214 273.223,326.002 276.515,322.735 C 279.727,319.548 280.712,318.000 279.530,318.000 C 279.271,318.000 278.904,318.251 278.714,318.558 C 278.410,319.050 276.277,320.105 268.750,323.487 C 267.650,323.982 265.681,324.867 264.375,325.456 C 263.069,326.044 262.000,326.632 262.000,326.762 C 262.000,327.101 266.733,326.980 270.140,326.555 Z M 336.188,326.370 C 337.084,325.703 337.090,325.525 336.332,322.461 C 335.896,320.695 335.306,316.775 335.022,313.750 C 334.738,310.725 334.193,305.438 333.810,302.000 C 333.426,298.562 332.818,291.869 332.458,287.125 C 332.006,281.181 331.619,278.500 331.210,278.500 C 330.885,278.500 328.720,280.244 326.401,282.375 C 324.081,284.506 320.286,287.864 317.967,289.836 C 315.647,291.808 311.387,295.872 308.500,298.867 C 301.044,306.600 283.790,325.380 283.590,325.980 C 283.481,326.306 287.951,326.530 296.336,326.616 C 303.439,326.690 315.100,326.822 322.250,326.909 C 332.790,327.039 335.428,326.937 336.188,326.370 Z M 349.028,324.337 C 352.596,321.388 354.487,319.188 358.559,313.250 C 365.427,303.236 371.157,292.634 373.468,285.664 C 374.272,283.236 375.532,279.562 376.268,277.500 C 379.336,268.894 382.495,253.444 382.498,247.033 C 382.500,242.911 381.173,237.997 380.059,238.007 C 379.614,238.011 377.225,239.761 374.750,241.895 C 372.275,244.030 365.525,249.577 359.750,254.222 C 348.760,263.063 340.619,269.902 339.544,271.197 C 339.044,271.800 339.026,272.940 339.460,276.605 C 340.644,286.596 341.637,296.505 342.505,307.000 C 342.812,310.712 343.266,315.100 343.516,316.750 C 343.765,318.400 344.111,321.381 344.285,323.375 C 344.487,325.692 344.819,327.000 345.203,327.000 C 345.535,327.000 347.255,325.802 349.028,324.337 Z M 177.203,323.875 C 175.821,322.431 171.006,317.312 166.503,312.500 C 152.044,297.047 132.257,277.997 130.669,278.001 C 130.439,278.002 130.205,279.970 130.150,282.376 C 130.095,284.782 129.699,289.450 129.269,292.750 C 128.839,296.050 128.254,301.675 127.968,305.250 C 127.683,308.825 127.216,313.663 126.930,316.000 C 126.009,323.539 125.897,325.010 126.185,325.762 C 126.430,326.400 130.074,326.500 153.092,326.500 L 179.716,326.500 L 177.203,323.875 Z M 243.000,322.011 C 261.539,319.067 279.891,310.521 293.306,298.587 C 302.501,290.406 306.521,284.939 313.406,271.250 C 318.023,262.071 319.967,256.007 322.064,244.250 C 323.662,235.291 323.669,222.220 322.078,214.500 C 319.763,203.257 317.984,197.885 313.789,189.465 C 308.090,178.029 300.803,168.659 291.695,161.056 C 275.486,147.527 257.890,140.227 237.250,138.470 C 231.294,137.963 229.281,137.994 223.750,138.674 C 213.503,139.934 212.763,140.096 201.250,143.630 C 193.134,146.121 182.711,151.765 173.250,158.792 C 169.079,161.891 159.849,171.236 157.490,174.750 C 156.567,176.125 155.190,178.037 154.430,179.000 C 152.607,181.310 145.794,194.805 144.771,198.132 C 144.328,199.572 143.532,202.100 143.002,203.750 C 139.960,213.213 138.439,228.396 139.503,238.673 C 140.735,250.586 144.402,263.203 149.592,273.394 C 157.954,289.812 172.968,304.362 189.500,312.068 C 195.897,315.050 203.819,318.196 206.873,318.969 C 207.905,319.230 209.650,319.680 210.750,319.970 C 221.747,322.868 233.088,323.586 243.000,322.011 Z M 321.546,275.694 C 322.042,275.097 328.494,269.705 329.923,268.693 C 330.018,268.626 330.208,266.380 330.345,263.701 C 330.598,258.762 330.208,253.498 329.589,253.502 C 329.403,253.504 328.650,255.360 327.916,257.627 C 325.401,265.401 323.529,270.071 321.765,272.975 C 320.794,274.573 320.000,276.020 320.000,276.190 C 320.000,276.779 320.880,276.497 321.546,275.694 Z M 142.500,275.685 C 142.500,275.511 141.759,274.330 140.853,273.060 C 138.708,270.050 137.285,266.908 136.524,263.500 C 135.757,260.069 133.881,255.000 133.378,255.000 C 133.170,255.000 133.000,256.251 133.000,257.779 C 133.000,259.308 132.750,262.168 132.445,264.136 L 131.890,267.713 L 134.320,269.731 C 135.656,270.842 137.762,272.701 139.000,273.863 C 141.027,275.768 142.500,276.534 142.500,275.685 Z M 341.177,259.042 C 343.142,257.414 345.988,255.056 347.500,253.800 C 349.012,252.545 351.972,250.170 354.076,248.524 C 356.181,246.877 359.732,243.953 361.968,242.027 C 364.205,240.101 368.287,236.790 371.041,234.669 L 376.048,230.813 L 374.399,229.553 C 373.492,228.861 371.062,226.692 369.000,224.735 C 366.938,222.778 363.450,219.740 361.250,217.985 C 356.846,214.470 349.876,208.505 342.650,202.065 C 340.067,199.763 337.887,197.963 337.805,198.065 C 337.723,198.167 337.257,201.963 336.771,206.500 C 335.467,218.651 335.174,240.386 336.196,249.101 C 336.638,252.869 337.000,257.313 337.000,258.976 C 337.000,260.639 337.136,262.000 337.302,262.000 C 337.469,262.000 339.212,260.669 341.177,259.042 Z M 125.002,260.625 C 125.003,260.144 125.450,254.125 125.995,247.250 C 126.540,240.375 126.994,232.500 127.004,229.750 C 127.024,223.817 125.043,199.434 124.490,198.828 C 124.279,198.596 122.516,199.866 120.571,201.650 C 118.627,203.434 113.372,207.885 108.893,211.540 C 104.414,215.196 99.250,219.551 97.417,221.218 C 95.584,222.886 92.490,225.563 90.542,227.167 C 88.594,228.772 87.000,230.245 87.000,230.441 C 87.000,230.636 88.721,232.136 90.825,233.773 C 92.928,235.410 98.609,240.131 103.450,244.264 C 108.290,248.397 114.500,253.594 117.250,255.813 C 120.001,258.032 122.560,260.219 122.937,260.674 C 123.837,261.758 125.000,261.731 125.002,260.625 Z M 57.180,253.528 C 62.119,251.683 64.586,249.984 67.385,246.500 C 73.299,239.141 74.430,231.308 71.158,220.390 C 70.489,218.162 66.558,213.166 63.793,211.033 C 59.186,207.479 55.965,206.315 50.099,206.086 C 43.297,205.820 40.194,206.592 35.500,209.717 C 29.854,213.477 26.769,217.342 25.089,222.764 C 22.398,231.448 24.703,241.681 30.700,247.679 C 35.900,252.879 40.894,254.956 48.250,254.980 C 52.580,254.994 53.777,254.800 57.180,253.528 Z M 420.153,254.254 C 428.244,252.147 434.384,246.350 437.312,238.056 C 440.175,229.946 437.898,219.988 431.692,213.482 C 426.810,208.364 421.083,206.000 413.565,206.000 C 407.120,206.000 401.210,208.520 395.975,213.500 C 390.913,218.316 389.258,222.925 389.629,231.171 C 389.894,237.052 391.006,240.788 393.623,244.584 C 396.342,248.530 401.344,252.218 406.250,253.895 C 409.932,255.154 416.088,255.313 420.153,254.254 Z M 87.064,219.431 C 96.908,210.449 102.639,205.446 108.464,200.750 C 111.875,198.000 115.724,194.850 117.017,193.750 C 118.310,192.650 120.185,191.122 121.184,190.354 C 122.698,189.190 122.999,188.649 122.994,187.104 C 122.986,184.774 121.397,170.247 119.292,153.250 C 119.156,152.150 118.792,147.875 118.482,143.750 C 117.882,135.746 117.480,134.000 116.239,134.000 C 113.211,134.000 100.200,151.659 94.135,164.000 C 90.456,171.485 88.200,176.683 87.517,179.250 C 87.151,180.625 86.296,183.100 85.616,184.750 C 84.937,186.400 84.207,188.875 83.994,190.250 C 83.782,191.625 83.227,194.100 82.761,195.750 C 81.396,200.588 80.019,209.921 80.009,214.406 C 79.999,218.902 81.186,223.654 82.255,223.399 C 82.598,223.317 84.762,221.531 87.064,219.431 Z M 381.358,220.750 C 382.245,218.244 382.363,209.694 381.563,205.991 C 381.237,204.484 380.731,202.012 380.439,200.500 C 379.245,194.309 377.519,187.750 375.243,180.750 C 372.926,173.622 367.448,161.907 363.326,155.262 C 357.331,145.599 347.891,134.000 346.021,134.000 C 344.930,134.000 344.435,136.018 343.742,143.302 C 342.522,156.106 341.496,165.694 341.258,166.500 C 340.966,167.490 339.326,184.695 339.283,187.211 C 339.251,189.140 339.375,189.277 346.805,195.461 C 350.960,198.920 357.134,204.000 360.525,206.750 C 367.865,212.702 376.865,220.434 378.219,221.951 C 379.567,223.461 380.529,223.092 381.358,220.750 Z M 330.048,200.672 C 330.291,198.240 330.582,195.420 330.693,194.404 C 330.892,192.604 330.757,192.434 325.171,187.473 C 319.591,182.517 317.870,181.499 319.884,184.346 C 320.430,185.118 321.813,187.662 322.957,190.000 C 324.102,192.338 325.453,195.037 325.960,196.000 C 326.466,196.963 327.142,199.100 327.460,200.750 C 328.496,206.114 328.518,206.182 329.081,205.619 C 329.370,205.330 329.805,203.104 330.048,200.672 Z M 391.646,204.953 C 397.155,199.727 405.239,196.927 414.875,196.906 C 419.674,196.896 421.000,196.747 421.000,196.219 C 421.000,195.351 418.271,184.301 416.933,179.750 C 414.391,171.106 409.980,158.731 407.397,153.000 C 404.546,146.673 395.791,129.595 394.985,128.786 C 394.700,128.500 393.380,129.492 391.559,131.359 C 385.571,137.497 377.356,140.944 368.625,140.982 C 366.356,140.992 364.500,141.185 364.500,141.411 C 364.500,141.637 366.186,144.345 368.247,147.429 C 371.881,152.869 378.684,166.151 380.960,172.250 C 381.576,173.900 382.430,176.037 382.859,177.000 C 384.617,180.949 388.395,195.662 389.117,201.375 C 389.439,203.919 389.891,206.000 390.122,206.000 C 390.353,206.000 391.039,205.529 391.646,204.953 Z M 73.251,199.750 C 74.863,190.645 78.623,177.715 81.062,172.895 C 81.578,171.875 82.000,170.787 82.000,170.477 C 82.000,170.168 82.656,168.527 83.459,166.832 C 84.261,165.137 85.707,162.018 86.672,159.901 C 88.536,155.810 91.624,150.517 95.551,144.684 C 96.871,142.722 97.835,141.002 97.694,140.861 C 97.553,140.719 96.552,140.722 95.471,140.867 C 93.437,141.140 88.375,140.374 85.750,139.397 C 84.925,139.090 82.225,137.900 79.750,136.752 C 76.107,135.062 74.702,134.072 72.374,131.553 C 70.775,129.822 69.258,128.591 68.955,128.778 C 66.531,130.276 59.233,142.956 53.719,155.250 C 50.993,161.328 44.982,178.275 43.965,182.750 C 43.136,186.400 42.077,192.718 41.912,195.000 L 41.750,197.250 L 47.750,197.078 C 56.364,196.830 62.796,198.754 68.980,203.427 C 70.481,204.562 71.857,205.324 72.038,205.120 C 72.218,204.917 72.764,202.500 73.251,199.750 Z M 134.485,202.875 C 134.840,201.706 135.685,199.175 136.363,197.250 C 137.041,195.325 137.722,193.300 137.877,192.750 C 138.031,192.200 139.334,189.444 140.771,186.625 C 142.209,183.806 143.220,181.500 143.018,181.500 C 142.816,181.500 140.252,183.899 137.320,186.831 L 131.989,192.162 L 132.495,196.193 C 132.773,198.410 133.000,201.298 133.000,202.612 C 133.000,205.570 133.633,205.682 134.485,202.875 Z M 134.934,178.103 C 137.033,176.235 141.173,172.826 144.135,170.528 C 147.486,167.928 152.973,162.742 158.659,156.800 C 167.253,147.819 179.000,134.869 179.000,134.375 C 179.000,134.252 168.819,133.983 156.375,133.776 C 143.931,133.569 132.118,133.326 130.124,133.237 C 126.230,133.062 124.603,133.802 125.275,135.439 C 125.607,136.250 125.984,139.409 126.983,149.750 C 127.275,152.775 127.738,157.050 128.012,159.250 C 128.286,161.450 128.747,165.162 129.037,167.500 C 129.326,169.838 129.688,173.944 129.840,176.625 C 129.995,179.362 130.336,181.500 130.617,181.500 C 130.892,181.500 132.835,179.971 134.934,178.103 Z M 331.695,178.863 C 331.834,177.701 332.196,174.613 332.499,172.000 C 332.802,169.387 333.250,166.012 333.493,164.500 C 333.737,162.988 334.176,159.275 334.469,156.250 C 335.404,146.584 336.525,136.302 336.830,134.586 L 337.126,132.923 L 310.438,133.271 C 295.760,133.463 283.602,133.761 283.422,133.935 C 282.644,134.681 311.495,164.845 319.500,171.656 C 322.113,173.878 325.653,177.018 327.367,178.633 C 329.082,180.247 330.700,181.435 330.963,181.273 C 331.227,181.110 331.556,180.026 331.695,178.863 Z M 191.594,138.605 C 193.330,137.828 196.438,136.642 198.500,135.971 L 202.250,134.750 L 199.000,134.433 C 197.213,134.259 194.576,134.091 193.141,134.058 L 190.533,134.000 L 186.641,138.041 C 184.501,140.263 182.670,142.303 182.572,142.575 C 182.474,142.846 183.754,142.381 185.416,141.543 C 187.078,140.704 189.858,139.381 191.594,138.605 Z M 275.689,137.938 L 271.773,134.000 L 265.857,134.000 C 262.603,134.000 260.055,134.185 260.195,134.412 C 260.335,134.638 261.417,135.121 262.600,135.484 C 263.782,135.847 265.650,136.430 266.750,136.780 C 267.850,137.129 271.000,138.534 273.750,139.901 C 276.500,141.269 278.942,142.272 279.177,142.132 C 279.412,141.992 277.842,140.104 275.689,137.938 Z M 103.902,130.867 C 108.967,129.058 114.861,123.486 117.416,118.090 C 119.190,114.343 119.234,114.105 119.242,108.250 C 119.249,103.036 119.090,101.857 118.033,99.250 C 116.325,95.042 115.035,93.129 111.941,90.219 C 106.682,85.273 101.288,82.997 94.837,83.003 C 90.819,83.006 88.652,83.612 83.566,86.153 C 78.526,88.671 74.850,92.366 72.400,97.377 C 70.789,100.670 70.750,100.905 70.758,107.250 C 70.765,113.558 70.813,113.849 72.389,117.086 C 73.283,118.921 74.819,121.386 75.804,122.564 C 78.016,125.213 83.068,129.312 85.177,130.170 C 86.826,130.842 91.367,131.907 93.500,132.123 C 95.810,132.357 101.731,131.642 103.902,130.867 Z M 375.750,131.412 C 381.679,128.703 384.975,125.904 388.234,120.809 C 391.750,115.312 392.949,107.858 391.307,101.694 C 390.254,97.736 387.095,92.167 384.733,90.103 C 382.099,87.801 377.702,85.133 374.885,84.128 C 371.883,83.058 365.643,82.748 362.423,83.510 C 355.794,85.079 349.784,89.152 346.353,94.402 C 342.606,100.134 341.664,104.261 342.565,110.985 C 343.326,116.659 345.190,120.181 350.000,125.033 C 353.941,129.009 355.828,130.160 360.750,131.591 C 364.324,132.631 373.319,132.523 375.750,131.412 Z M 264.982,126.375 C 264.959,125.531 259.155,118.681 249.090,107.619 C 244.503,102.577 240.142,97.619 239.398,96.601 C 238.654,95.583 236.582,93.175 234.794,91.250 L 231.542,87.750 L 228.396,91.007 C 217.381,102.408 197.000,125.419 197.000,126.452 C 197.000,126.844 206.696,127.000 231.000,127.000 C 257.876,127.000 264.996,126.869 264.982,126.375 Z M 293.750,125.502 C 301.725,125.243 314.831,125.024 322.875,125.016 C 330.919,125.007 337.500,124.820 337.500,124.599 C 337.500,123.476 327.003,114.133 320.702,109.648 C 312.428,103.759 298.888,96.089 290.500,92.541 C 283.678,89.655 274.547,86.786 267.250,85.235 C 265.050,84.768 261.788,84.075 260.000,83.696 C 255.788,82.802 239.769,82.161 239.332,82.868 C 238.891,83.581 244.126,89.991 253.250,99.912 C 255.450,102.304 259.163,106.377 261.500,108.964 C 263.837,111.550 267.214,115.260 269.004,117.208 C 270.794,119.156 273.366,122.059 274.720,123.660 C 276.663,125.957 277.398,126.507 278.215,126.271 C 278.784,126.108 285.775,125.762 293.750,125.502 Z M 189.817,121.625 C 192.015,119.219 195.183,115.562 196.856,113.500 C 198.528,111.438 202.677,106.825 206.074,103.250 C 211.798,97.228 222.117,85.785 223.232,84.223 C 223.916,83.266 223.510,83.031 220.276,82.504 C 215.011,81.647 198.512,83.957 187.000,87.162 C 183.236,88.210 172.377,92.124 168.901,93.685 C 153.280,100.700 134.712,113.385 127.562,121.926 C 126.358,123.364 125.458,124.618 125.562,124.712 C 125.665,124.807 135.312,125.046 147.000,125.242 C 158.688,125.439 168.344,125.690 168.458,125.800 C 168.573,125.910 172.526,126.000 177.243,126.000 L 185.818,126.000 L 189.817,121.625 Z M 134.000,104.485 C 142.474,97.259 159.105,87.741 170.500,83.597 C 177.477,81.059 188.542,77.620 191.750,76.991 C 193.400,76.668 195.650,76.200 196.750,75.950 C 197.850,75.700 199.988,75.272 201.500,74.998 C 203.012,74.724 204.913,74.318 205.724,74.096 L 207.198,73.692 L 205.156,71.471 C 202.439,68.517 200.239,64.690 198.904,60.601 C 197.986,57.790 197.814,56.137 197.834,50.348 L 197.858,43.446 L 195.054,43.767 C 192.487,44.062 177.794,47.424 174.250,48.528 C 168.190,50.417 160.179,53.136 159.758,53.448 C 159.479,53.655 158.238,54.113 157.000,54.465 C 154.399,55.205 140.013,62.184 136.092,64.607 C 131.385,67.517 121.303,74.136 119.500,75.501 C 118.537,76.230 116.915,77.433 115.893,78.174 L 114.037,79.523 L 118.226,83.711 C 121.404,86.890 122.839,88.787 124.176,91.575 C 126.278,95.960 128.000,101.926 128.000,104.824 C 128.000,105.976 128.140,107.282 128.310,107.727 C 128.594,108.467 128.733,108.463 129.935,107.683 C 130.658,107.214 132.488,105.775 134.000,104.485 Z M 334.204,105.123 C 335.203,94.976 337.368,90.070 343.563,83.906 L 347.930,79.563 L 343.526,76.296 C 338.919,72.879 333.521,69.446 327.697,66.230 C 322.620,63.426 308.993,56.682 305.917,55.452 C 300.100,53.125 288.273,48.957 284.625,47.949 C 283.731,47.702 282.156,47.269 281.125,46.986 C 280.094,46.704 276.212,45.829 272.500,45.042 C 268.788,44.255 265.525,43.559 265.250,43.496 C 264.010,43.212 263.408,43.540 263.713,44.335 C 264.653,46.783 265.061,52.861 264.480,55.744 C 263.169,62.248 261.348,66.771 258.532,70.519 C 257.414,72.006 256.500,73.374 256.500,73.558 C 256.500,74.088 257.619,74.399 264.392,75.750 C 277.718,78.408 285.351,80.840 297.750,86.377 C 308.472,91.166 323.919,100.587 330.773,106.520 C 332.032,107.609 333.243,108.500 333.466,108.500 C 333.689,108.500 334.021,106.980 334.204,105.123 Z M 240.017,73.955 C 245.932,72.013 249.788,68.442 252.791,62.123 C 255.091,57.284 256.171,52.506 255.757,49.000 C 254.992,42.516 253.157,38.408 248.999,33.870 C 243.373,27.730 239.474,25.937 231.500,25.824 C 223.496,25.711 219.389,27.287 214.175,32.473 C 211.801,34.834 210.374,36.840 208.842,39.973 L 206.750,44.250 L 206.750,50.750 L 206.750,57.250 L 208.959,61.629 C 212.421,68.493 216.988,72.336 223.953,74.246 C 227.871,75.321 236.324,75.168 240.017,73.955 Z M 219.936,424.674 C 218.882,423.404 218.698,396.585 219.741,396.184 C 221.082,395.670 223.521,397.209 224.792,399.372 C 225.478,400.539 226.685,401.829 227.476,402.237 C 228.266,402.646 230.710,404.335 232.907,405.990 C 235.104,407.646 237.169,409.000 237.496,409.000 C 237.928,409.000 238.064,407.388 237.992,403.125 C 237.938,399.894 237.918,396.969 237.947,396.625 C 238.009,395.891 239.923,395.806 241.643,396.459 L 242.852,396.919 L 243.210,409.088 C 243.444,417.047 243.391,421.722 243.056,422.602 C 242.373,424.399 240.327,425.732 239.211,425.108 C 237.573,424.191 236.415,419.701 237.184,417.250 C 237.436,416.448 236.936,415.854 234.659,414.250 C 229.017,410.275 225.278,408.269 224.458,408.776 C 223.348,409.462 224.209,410.592 226.875,411.946 C 230.676,413.876 234.112,416.414 233.740,417.017 C 233.297,417.734 231.122,417.602 229.857,416.782 C 229.248,416.387 227.850,415.993 226.750,415.907 L 224.750,415.750 L 224.750,419.415 C 224.750,422.885 224.670,423.144 223.250,424.287 C 221.478,425.714 220.860,425.786 219.936,424.674 Z M 180.750,407.179 C 180.200,407.067 178.890,406.714 177.838,406.395 C 173.391,405.047 173.079,398.370 177.307,395.044 C 178.309,394.257 179.351,394.000 181.548,394.000 C 184.645,394.000 184.635,394.006 187.062,390.625 C 188.697,388.345 189.283,388.116 190.740,389.181 C 191.639,389.838 191.614,390.036 190.046,394.766 C 189.152,397.463 188.220,400.897 187.976,402.398 C 187.318,406.441 186.444,407.513 183.863,407.442 C 182.701,407.410 181.300,407.292 180.750,407.179 Z M 183.701,401.398 C 183.949,400.693 184.012,399.753 183.842,399.309 C 183.475,398.354 180.985,398.215 180.100,399.100 C 179.309,399.891 179.327,402.858 180.125,403.128 C 181.393,403.558 183.258,402.656 183.701,401.398 Z M 159.500,400.024 C 158.812,399.810 156.387,398.677 154.110,397.507 C 149.688,395.235 149.812,395.449 151.035,392.175 C 151.468,391.018 153.339,389.500 154.334,389.500 C 154.708,389.500 155.004,390.419 155.098,391.871 C 155.208,393.585 155.476,394.284 156.065,394.396 C 156.648,394.506 156.973,394.049 157.211,392.784 C 157.393,391.813 158.532,389.040 159.742,386.624 C 163.053,380.009 165.445,378.336 166.264,382.063 C 166.570,383.458 166.163,384.572 163.436,389.802 C 161.684,393.162 160.399,396.062 160.582,396.246 C 160.764,396.430 161.450,396.228 162.107,395.798 C 163.183,395.093 163.408,395.092 164.400,395.786 C 165.685,396.686 165.837,398.591 164.714,399.714 C 163.886,400.542 161.597,400.678 159.500,400.024 Z M 132.969,385.469 C 127.889,380.389 127.116,378.913 129.366,378.592 C 130.123,378.484 131.244,379.156 132.913,380.717 C 134.255,381.973 135.599,383.000 135.899,383.000 C 136.424,383.000 138.000,381.101 138.000,380.468 C 138.000,380.298 136.875,379.547 135.500,378.798 C 133.564,377.745 133.000,377.165 133.000,376.228 C 133.000,374.427 135.058,374.086 137.825,375.430 C 140.658,376.807 140.757,376.793 141.528,374.933 C 142.100,373.552 142.072,373.289 141.292,372.719 C 140.806,372.363 139.472,371.927 138.329,371.750 C 137.185,371.572 135.856,371.316 135.375,371.180 C 133.707,370.708 134.670,368.000 136.506,368.000 C 136.949,368.000 138.249,368.453 139.395,369.006 C 140.540,369.560 142.664,370.275 144.114,370.596 C 146.809,371.193 149.500,372.676 149.500,373.564 C 149.500,373.837 148.377,375.248 147.004,376.699 C 145.581,378.203 144.374,380.007 144.197,380.891 C 144.026,381.744 142.887,383.613 141.666,385.044 C 140.445,386.474 139.318,388.287 139.161,389.072 C 139.003,389.858 138.678,390.500 138.438,390.500 C 138.197,390.500 135.736,388.236 132.969,385.469 Z M 273.463,407.706 C 272.583,406.645 272.708,403.836 273.700,402.420 C 274.851,400.776 274.697,399.896 273.000,398.406 C 271.223,396.847 270.969,394.736 272.500,394.250 C 273.716,393.864 273.772,392.881 272.676,391.207 C 271.647,389.637 272.039,389.255 275.400,388.553 C 278.783,387.847 281.500,387.845 281.500,388.549 C 281.500,389.189 278.606,392.000 277.947,392.000 C 277.701,392.000 277.500,392.204 277.500,392.453 C 277.500,392.702 278.840,392.784 280.491,392.634 C 283.988,392.317 284.762,392.760 285.500,395.501 C 285.823,396.700 286.370,397.480 287.004,397.646 C 287.880,397.875 288.000,398.331 288.000,401.442 C 288.000,404.631 287.881,405.055 286.789,405.771 C 286.122,406.207 284.153,406.770 282.414,407.022 C 280.674,407.273 278.464,407.709 277.503,407.989 C 275.098,408.692 274.232,408.632 273.463,407.706 Z M 282.423,402.792 C 282.927,402.287 283.015,401.430 282.757,399.553 C 282.369,396.728 281.762,396.438 278.575,397.549 C 276.734,398.191 276.576,399.204 277.864,402.122 C 278.654,403.913 278.856,404.054 280.232,403.779 C 281.060,403.613 282.045,403.169 282.423,402.792 Z M 304.144,398.625 C 303.966,398.144 303.255,396.886 302.563,395.829 C 301.314,393.919 301.293,393.911 298.736,394.230 C 296.765,394.476 296.020,394.376 295.541,393.800 C 294.618,392.687 295.083,391.334 296.503,391.001 C 298.107,390.625 298.314,389.204 297.238,385.964 C 296.115,382.583 296.524,381.135 298.719,380.723 C 299.842,380.512 300.914,380.663 301.840,381.162 C 302.615,381.580 303.644,382.045 304.125,382.195 C 305.529,382.634 305.212,385.262 303.445,387.830 C 302.408,389.337 302.057,390.257 302.390,390.590 C 302.723,390.923 303.415,390.326 304.466,388.799 C 306.207,386.268 308.120,385.406 309.324,386.609 C 309.976,387.262 309.921,387.519 308.856,388.799 C 306.620,391.486 306.363,392.346 307.003,395.013 C 307.741,398.090 307.332,399.500 305.701,399.500 C 304.984,399.500 304.333,399.134 304.144,398.625 Z M 320.324,387.491 C 319.639,386.330 319.470,385.148 319.592,382.366 L 319.750,378.750 L 318.000,378.607 C 314.383,378.312 311.587,376.159 312.324,374.238 C 313.058,372.325 316.998,371.954 318.348,373.671 C 319.456,375.079 321.073,376.000 322.438,376.000 C 324.106,376.000 324.131,375.120 322.527,372.789 C 320.766,370.230 320.714,369.901 321.808,368.232 C 322.429,367.284 323.049,367.000 324.494,367.000 C 326.318,367.000 326.382,367.062 326.708,369.125 C 327.430,373.697 328.098,374.986 331.087,377.575 C 332.696,378.969 334.000,380.517 334.000,381.032 C 334.000,382.166 331.168,385.500 330.205,385.500 C 329.825,385.500 329.196,384.769 328.809,383.875 C 327.794,381.533 325.293,378.760 324.589,379.195 C 323.604,379.804 323.928,382.254 325.250,384.202 C 326.807,386.496 326.803,386.689 325.183,387.964 C 323.236,389.495 321.403,389.316 320.324,387.491 Z M 198.250,365.728 C 197.150,365.344 193.662,364.444 190.500,363.729 C 187.338,363.013 183.382,361.881 181.711,361.213 C 180.039,360.546 178.526,360.000 178.348,360.000 C 178.171,360.000 176.613,359.365 174.888,358.588 C 173.162,357.812 170.963,356.865 170.000,356.485 C 168.199,355.774 164.672,353.971 161.375,352.077 C 160.344,351.485 158.656,350.526 157.625,349.946 C 154.338,348.099 147.040,342.767 147.170,342.306 C 147.334,341.726 156.608,341.915 159.495,342.558 C 161.749,343.060 164.320,344.257 171.750,348.264 C 173.950,349.450 176.988,350.907 178.500,351.500 C 180.012,352.093 182.037,353.065 183.000,353.658 C 183.963,354.252 185.762,355.105 187.000,355.554 C 192.135,357.417 193.915,358.314 197.101,360.648 C 203.146,365.075 203.726,367.640 198.250,365.728 Z M 259.500,365.866 C 259.500,365.176 260.306,364.359 264.980,360.307 C 265.896,359.513 268.581,358.086 270.947,357.135 C 273.314,356.184 280.435,352.865 286.773,349.758 C 293.110,346.651 299.361,343.747 300.663,343.305 C 303.830,342.230 314.037,341.328 314.735,342.062 C 315.093,342.439 314.961,342.778 314.302,343.177 C 313.781,343.492 311.869,344.929 310.052,346.370 C 306.790,348.957 292.183,356.711 286.250,359.004 C 284.600,359.642 283.025,360.331 282.750,360.536 C 281.942,361.139 268.541,364.851 265.000,365.454 C 263.212,365.758 261.244,366.144 260.625,366.312 C 259.823,366.529 259.500,366.401 259.500,365.866 Z M 362.632,369.844 C 361.741,369.242 361.010,368.578 361.007,368.368 C 361.003,368.158 361.956,366.783 363.125,365.313 C 367.212,360.172 369.056,357.366 368.795,356.686 C 368.624,356.241 367.693,355.994 366.141,355.984 C 363.640,355.967 359.121,354.638 357.782,353.526 C 356.596,352.542 356.835,351.471 358.790,349.000 C 361.021,346.181 371.512,335.500 372.050,335.500 C 372.571,335.500 375.000,337.755 375.000,338.238 C 375.000,338.443 374.134,339.655 373.076,340.931 C 370.277,344.305 367.498,348.393 367.511,349.120 C 367.521,349.738 370.579,352.141 372.923,353.373 C 376.479,355.244 378.000,356.237 378.000,356.691 C 378.000,356.969 375.581,359.684 372.625,362.724 C 369.669,365.763 366.745,368.869 366.128,369.625 C 364.802,371.251 364.721,371.256 362.632,369.844 Z M 365.404,352.462 C 365.306,352.167 365.011,351.925 364.750,351.925 C 364.489,351.925 364.194,352.167 364.096,352.462 C 363.997,352.758 364.292,353.000 364.750,353.000 C 365.208,353.000 365.503,352.758 365.404,352.462 Z M 84.801,367.556 C 83.777,366.425 83.766,366.190 84.406,359.500 C 84.682,356.613 84.906,350.650 84.903,346.250 L 84.897,338.250 L 87.637,338.102 C 90.154,337.966 90.509,338.086 92.003,339.580 C 92.897,340.474 94.652,341.891 95.903,342.728 C 97.154,343.565 98.448,344.457 98.779,344.710 C 99.184,345.019 100.013,344.650 101.305,343.585 C 102.362,342.713 103.700,342.000 104.277,342.000 C 105.613,342.000 107.500,343.986 107.500,345.392 C 107.500,345.985 106.037,348.267 104.250,350.463 C 102.463,352.659 101.000,354.607 101.000,354.793 C 101.000,354.978 102.463,356.592 104.250,358.380 C 106.037,360.167 107.500,361.899 107.500,362.228 C 107.500,362.557 106.950,363.342 106.278,363.974 C 104.494,365.649 102.783,365.015 99.500,361.463 L 96.750,358.487 L 92.000,363.497 C 89.388,366.253 86.891,368.506 86.452,368.504 C 86.014,368.502 85.271,368.075 84.801,367.556 Z M 93.783,353.234 C 95.901,351.163 97.474,349.307 97.277,349.109 C 96.686,348.515 90.782,347.569 90.329,347.996 C 89.909,348.391 89.330,357.000 89.723,357.000 C 89.837,357.000 91.664,355.305 93.783,353.234 Z M 226.114,361.196 C 224.878,360.638 224.009,358.212 224.470,356.603 C 225.097,354.420 226.914,352.157 228.604,351.457 C 230.203,350.794 234.500,345.851 234.500,344.674 C 234.500,344.131 234.011,343.980 232.625,344.095 C 230.884,344.239 230.758,344.356 230.860,345.739 C 230.970,347.231 228.969,350.000 227.781,350.000 C 227.488,350.000 226.695,348.931 226.019,347.625 C 225.342,346.319 224.274,344.411 223.644,343.385 C 221.970,340.657 222.139,340.115 224.783,339.719 C 226.812,339.415 227.219,339.523 228.436,340.688 C 230.014,342.201 233.164,342.488 234.779,341.266 C 235.990,340.351 238.521,340.290 239.695,341.148 C 240.640,341.839 240.625,341.902 238.343,346.881 C 237.928,347.786 238.004,348.143 238.721,348.667 C 239.447,349.198 239.551,349.716 239.270,351.383 C 239.078,352.516 238.593,353.715 238.192,354.048 C 237.662,354.488 237.547,355.221 237.772,356.721 C 238.011,358.316 237.872,359.036 237.166,359.873 C 236.381,360.803 235.573,360.995 231.500,361.221 C 228.887,361.365 226.464,361.354 226.114,361.196 Z M 232.906,356.783 C 232.999,355.312 233.475,353.737 234.086,352.880 C 234.649,352.089 234.955,351.289 234.767,351.100 C 234.579,350.912 234.214,351.135 233.956,351.596 C 233.698,352.057 232.478,353.443 231.244,354.677 C 228.152,357.769 228.349,359.584 231.750,359.326 C 232.581,359.263 232.776,358.833 232.906,356.783 Z M 65.984,314.787 C 62.256,312.451 61.339,310.787 61.756,307.114 C 62.235,302.905 62.404,302.554 64.339,301.745 C 66.755,300.736 68.170,301.221 70.491,303.858 L 72.468,306.105 L 76.028,304.052 C 77.986,302.924 79.767,302.000 79.986,302.000 C 80.683,302.000 82.087,304.552 81.801,305.298 C 81.649,305.693 78.960,307.225 75.826,308.704 C 72.691,310.183 69.974,311.637 69.790,311.936 C 69.605,312.235 69.702,312.942 70.005,313.509 C 70.636,314.689 70.225,316.500 69.326,316.500 C 68.992,316.500 67.488,315.729 65.984,314.787 Z M 68.733,308.157 C 70.754,307.194 71.012,306.254 69.375,305.815 C 67.074,305.198 66.030,305.457 65.712,306.722 C 65.391,308.001 65.742,309.000 66.513,309.000 C 66.762,309.000 67.761,308.621 68.733,308.157 Z M 56.880,290.289 C 55.851,289.921 54.419,289.234 53.698,288.762 C 52.561,288.017 52.426,287.661 52.681,286.070 C 52.991,284.128 55.299,278.051 56.007,277.312 C 56.716,276.571 58.942,277.444 60.339,279.011 C 61.068,279.830 61.964,280.500 62.329,280.500 C 62.695,280.500 63.951,279.041 65.122,277.257 C 67.462,273.690 68.790,272.853 69.837,274.284 C 70.802,275.604 70.672,276.271 69.000,278.579 C 66.792,281.628 66.967,282.073 70.317,281.937 C 72.601,281.845 73.267,282.005 73.836,282.783 C 74.916,284.260 74.431,285.565 72.413,286.608 C 70.849,287.417 70.270,287.477 68.526,287.007 C 66.074,286.347 65.778,286.495 64.483,289.034 C 63.526,290.910 63.372,290.999 61.115,290.978 C 59.814,290.966 57.908,290.656 56.880,290.289 Z M 59.871,284.632 C 60.975,283.199 61.022,282.977 60.283,282.694 C 59.242,282.294 57.000,284.295 57.000,285.624 C 57.000,287.021 58.404,286.536 59.871,284.632 Z M 393.895,315.560 C 392.784,314.585 391.537,314.017 390.275,313.911 C 387.558,313.684 386.209,311.836 386.816,309.174 C 387.200,307.491 387.583,307.097 389.877,306.029 C 391.320,305.358 392.500,304.652 392.500,304.461 C 392.500,304.269 390.710,303.391 388.522,302.509 C 386.334,301.627 384.298,300.608 383.996,300.246 C 383.163,299.241 384.083,296.283 385.285,296.106 C 385.821,296.027 388.689,297.190 391.657,298.691 C 394.625,300.193 397.940,301.571 399.024,301.754 C 401.386,302.153 401.719,302.600 401.568,305.164 C 401.480,306.644 400.905,307.797 399.226,309.859 C 397.597,311.858 397.000,313.033 397.000,314.235 C 397.000,316.862 395.908,317.328 393.895,315.560 Z M 395.211,308.541 C 396.645,307.044 396.596,305.984 395.095,306.020 C 393.914,306.049 390.817,308.799 391.224,309.458 C 391.844,310.461 393.802,310.011 395.211,308.541 Z M 400.111,289.697 C 398.073,288.091 396.500,285.089 396.500,282.804 C 396.500,280.990 395.461,279.936 392.361,278.605 C 390.538,277.823 390.253,276.928 391.227,275.045 C 392.320,272.931 393.506,273.052 398.115,275.750 C 402.450,278.288 403.005,278.408 403.884,277.000 C 404.838,275.473 406.257,275.799 407.948,277.934 C 409.186,279.498 409.495,280.382 409.560,282.559 C 409.659,285.809 409.091,287.332 407.005,289.418 C 404.960,291.463 402.479,291.563 400.111,289.697 Z M 405.738,285.399 C 406.281,284.387 406.560,283.393 406.357,283.191 C 405.999,282.832 400.956,282.877 400.591,283.242 C 400.233,283.600 401.029,285.342 402.051,286.440 C 403.441,287.931 404.545,287.620 405.738,285.399 Z M 108.679,301.125 C 103.873,293.687 96.987,279.230 95.997,274.500 C 95.795,273.538 95.142,270.950 94.545,268.750 C 93.068,263.310 92.000,257.657 92.000,255.281 L 92.000,253.313 L 93.553,254.781 C 97.029,258.070 100.972,265.148 103.840,273.250 C 105.119,276.864 107.780,283.377 109.763,287.750 C 110.387,289.125 111.174,291.150 111.513,292.250 C 111.851,293.350 112.324,294.767 112.564,295.399 C 112.804,296.030 113.000,298.561 113.000,301.024 C 113.000,306.849 112.387,306.863 108.679,301.125 Z M 319.714,323.117 C 318.645,322.386 318.583,321.048 319.532,319.187 C 320.833,316.634 320.788,316.500 318.625,316.497 C 315.068,316.492 312.944,315.531 310.139,312.659 C 306.942,309.383 306.972,308.834 310.537,305.342 C 312.469,303.449 313.290,302.967 314.373,303.092 C 315.652,303.239 315.743,303.401 315.656,305.370 C 315.563,307.459 315.618,307.533 319.339,310.333 C 322.991,313.081 323.168,313.154 324.683,312.537 C 327.579,311.357 328.209,311.376 329.433,312.679 C 330.079,313.366 330.527,314.113 330.429,314.339 C 330.121,315.046 321.104,323.500 320.666,323.492 C 320.437,323.488 320.009,323.319 319.714,323.117 Z M 314.500,310.827 C 314.500,310.458 314.072,309.768 313.550,309.295 C 312.267,308.134 311.591,309.219 312.779,310.532 C 313.800,311.661 314.500,311.781 314.500,310.827 Z M 348.732,303.282 C 348.112,298.318 349.522,293.266 354.394,283.000 C 355.503,280.663 357.193,276.837 358.148,274.500 C 359.104,272.163 360.400,269.012 361.027,267.500 C 363.053,262.621 369.761,254.094 370.776,255.109 C 370.966,255.299 369.747,261.522 368.017,269.190 C 365.743,279.272 359.086,294.037 353.500,301.391 C 351.712,303.744 349.987,305.757 349.665,305.863 C 349.289,305.987 348.955,305.061 348.732,303.282 Z M 138.594,321.520 C 137.162,319.583 137.207,319.175 139.048,317.456 C 140.518,316.082 140.578,315.879 140.240,313.380 C 140.045,311.933 139.792,310.592 139.679,310.400 C 139.565,310.207 138.644,310.611 137.632,311.298 C 135.443,312.783 133.321,312.748 133.103,311.222 C 133.001,310.511 133.848,309.356 135.853,307.472 C 140.850,302.777 144.486,299.750 145.130,299.750 C 145.580,299.750 145.696,300.641 145.552,303.000 C 144.879,314.068 145.325,314.889 149.205,309.727 C 150.555,307.930 151.858,306.338 152.101,306.187 C 153.073,305.587 154.000,307.179 154.000,309.446 C 154.000,311.712 153.885,311.885 149.366,316.385 C 146.817,318.923 144.510,321.005 144.241,321.011 C 143.971,321.017 143.188,321.462 142.500,322.000 C 140.770,323.353 139.867,323.242 138.594,321.520 Z M 143.500,314.541 C 143.500,313.676 142.893,312.500 142.447,312.500 C 142.201,312.500 142.000,313.062 142.000,313.750 C 142.000,314.528 142.283,315.000 142.750,315.000 C 143.162,315.000 143.500,314.793 143.500,314.541 Z M 230.009,311.495 C 227.402,311.269 224.365,310.810 223.259,310.474 C 208.970,306.141 198.342,299.100 190.505,288.776 C 186.157,283.048 183.564,278.133 181.263,271.254 C 178.446,262.835 177.790,258.816 177.794,250.000 C 177.797,243.066 177.943,241.729 179.180,237.306 C 180.874,231.250 181.556,229.400 184.048,224.097 C 185.122,221.813 186.000,219.833 186.000,219.697 C 186.000,219.561 184.968,220.305 183.706,221.350 C 180.079,224.354 174.932,233.058 172.826,239.750 C 172.393,241.125 171.783,243.037 171.470,244.000 C 171.157,244.963 170.782,250.025 170.635,255.250 C 170.419,262.965 170.530,265.596 171.226,269.250 C 172.156,274.138 174.039,280.435 175.638,284.000 C 176.192,285.238 177.289,287.677 178.073,289.422 C 179.733,293.112 179.711,293.000 178.784,293.000 C 178.390,293.000 177.550,292.269 176.916,291.375 C 176.283,290.481 174.611,288.387 173.200,286.720 C 171.790,285.054 169.903,282.354 169.007,280.720 C 168.111,279.087 166.955,277.049 166.439,276.192 C 164.904,273.642 162.718,266.132 161.519,259.283 C 160.450,253.172 161.122,242.237 162.990,235.375 C 164.755,228.890 165.199,227.554 166.801,223.917 C 170.456,215.619 178.120,207.033 187.670,200.537 C 191.411,197.991 199.424,194.257 202.750,193.508 C 205.952,192.787 207.157,192.159 206.715,191.443 C 205.948,190.202 195.438,191.642 189.419,193.813 C 181.162,196.790 174.245,201.339 167.717,208.083 C 162.741,213.223 159.884,217.270 156.647,223.759 C 154.348,228.369 153.425,231.043 151.832,237.709 C 151.509,239.062 150.962,240.263 150.616,240.378 C 149.315,240.812 151.240,223.687 153.131,218.000 C 154.572,213.667 158.607,205.901 161.175,202.516 C 164.226,198.495 169.858,192.666 173.000,190.277 C 175.383,188.466 177.905,186.908 184.750,183.023 C 187.467,181.480 198.666,178.131 203.245,177.491 C 206.055,177.098 209.709,176.982 212.995,177.182 C 218.344,177.507 226.439,178.729 228.250,179.485 C 228.800,179.715 230.600,180.408 232.250,181.026 C 233.900,181.644 236.529,182.815 238.093,183.627 C 242.211,185.768 242.663,185.088 239.095,182.119 C 232.764,176.850 224.431,172.798 216.310,171.038 C 208.637,169.376 195.636,169.631 188.750,171.578 C 184.843,172.684 182.357,173.540 180.068,174.569 C 178.793,175.143 176.512,176.172 175.000,176.856 C 173.488,177.540 170.817,179.100 169.066,180.324 C 167.315,181.548 165.763,182.429 165.617,182.283 C 165.471,182.138 165.942,181.166 166.663,180.126 C 169.928,175.415 182.914,166.621 189.750,164.492 C 190.850,164.150 191.975,163.709 192.250,163.512 C 192.822,163.104 195.890,162.306 200.250,161.431 C 205.225,160.433 216.909,160.710 223.000,161.971 C 228.832,163.177 231.029,163.771 233.250,164.742 C 234.075,165.102 236.448,166.097 238.524,166.953 C 244.240,169.310 251.561,174.469 256.684,179.750 C 259.103,182.243 263.442,188.008 265.180,191.037 C 266.742,193.759 269.285,200.525 270.376,204.856 C 271.407,208.952 272.226,208.382 271.805,203.861 C 270.963,194.798 268.120,186.373 263.246,178.500 C 259.891,173.080 251.505,164.245 247.000,161.386 C 236.308,154.598 236.298,154.593 232.500,153.329 C 228.067,151.854 225.199,151.067 222.000,150.447 C 220.213,150.101 218.552,149.649 218.310,149.444 C 216.918,148.262 229.086,148.347 236.500,149.572 C 240.397,150.216 249.208,153.097 250.400,154.118 C 250.867,154.518 252.341,155.361 253.674,155.991 C 259.914,158.940 268.900,167.256 273.579,174.414 C 278.188,181.464 280.986,188.224 283.539,198.476 C 284.314,201.590 284.168,214.879 283.300,220.121 C 282.308,226.117 279.280,234.639 276.888,238.164 C 275.800,239.766 275.035,241.201 275.187,241.353 C 275.339,241.505 276.879,240.194 278.610,238.440 C 280.962,236.056 282.367,234.007 284.172,230.330 C 288.558,221.399 290.420,215.295 291.563,206.105 C 292.126,201.570 292.097,200.237 291.314,194.879 C 290.826,191.535 290.085,187.888 289.669,186.775 C 289.253,185.661 288.928,184.300 288.948,183.750 C 289.029,181.475 284.488,171.358 281.820,167.871 C 280.002,165.494 279.599,164.500 280.453,164.500 C 281.180,164.500 287.413,171.436 290.114,175.250 C 301.647,191.539 304.097,211.821 296.848,231.000 C 295.757,233.887 294.702,236.475 294.505,236.750 C 294.307,237.025 293.290,238.825 292.246,240.750 C 285.517,253.147 272.565,263.833 259.617,267.670 C 256.580,268.571 255.895,268.925 256.210,269.435 C 256.529,269.952 265.019,268.786 269.611,267.594 C 274.961,266.206 282.255,262.613 286.869,259.095 C 290.477,256.343 296.715,249.926 300.329,245.250 C 301.716,243.454 306.000,235.585 306.000,234.832 C 306.000,234.666 306.585,233.251 307.300,231.688 C 308.878,228.237 309.809,225.084 310.241,221.726 C 310.618,218.795 311.287,217.328 311.706,218.514 C 312.699,221.322 312.110,233.257 310.752,237.845 C 306.461,252.343 299.438,262.550 287.811,271.185 C 281.039,276.214 275.444,278.811 266.500,281.074 C 258.456,283.109 251.989,283.725 245.491,283.073 C 235.359,282.057 231.675,281.156 225.766,278.249 C 222.749,276.766 220.237,275.597 220.182,275.651 C 219.963,275.871 222.895,278.844 224.762,280.295 C 229.640,284.086 241.705,289.102 249.217,290.463 C 256.593,291.798 269.941,290.639 277.594,287.998 C 282.775,286.210 289.498,282.748 293.654,279.728 C 295.802,278.168 297.685,277.018 297.839,277.172 C 297.993,277.327 297.319,278.544 296.340,279.877 C 294.625,282.213 291.698,284.956 286.512,289.085 C 282.937,291.931 272.842,296.997 268.500,298.124 C 266.438,298.659 263.850,299.332 262.750,299.619 C 259.918,300.358 245.428,300.331 241.250,299.578 C 233.925,298.259 229.276,296.843 224.000,294.326 C 217.716,291.328 216.019,290.122 206.189,281.663 C 204.076,279.844 199.566,273.661 197.501,269.750 C 196.339,267.550 195.158,265.465 194.875,265.116 C 194.593,264.767 194.182,263.642 193.961,262.616 C 192.746,256.970 191.805,253.500 191.489,253.500 C 190.852,253.500 190.575,257.496 191.010,260.410 C 192.299,269.025 196.161,278.866 201.126,286.183 C 204.152,290.643 210.280,296.468 215.794,300.126 C 221.940,304.203 227.269,306.654 234.000,308.500 C 235.238,308.839 236.902,309.315 237.700,309.558 C 238.497,309.801 240.115,310.000 241.295,310.000 C 243.283,310.000 244.529,310.620 243.633,311.163 C 242.784,311.678 234.461,311.881 230.009,311.495 Z M 238.386,248.663 C 243.331,247.019 248.195,241.826 250.253,235.992 C 251.317,232.975 251.218,226.831 250.053,223.644 C 245.993,212.537 234.007,207.136 223.500,211.679 C 213.118,216.167 208.778,229.738 214.352,240.284 C 216.356,244.076 221.892,248.121 226.692,249.303 C 229.647,250.031 235.185,249.728 238.386,248.663 Z M 342.286,236.214 C 341.083,235.012 341.295,234.500 344.051,231.953 C 346.896,229.323 346.891,229.145 343.875,226.525 C 341.892,224.803 341.452,223.077 342.726,222.020 C 343.820,221.112 345.476,221.841 348.104,224.389 L 350.458,226.671 L 352.604,225.742 C 353.784,225.231 355.105,224.517 355.539,224.156 C 355.974,223.795 357.273,223.500 358.427,223.500 C 360.153,223.500 360.594,223.699 360.916,224.625 C 361.339,225.841 361.219,234.709 360.763,235.897 C 360.550,236.450 359.830,236.568 357.731,236.394 C 355.609,236.218 354.387,235.754 352.398,234.367 C 350.019,232.709 349.717,232.621 348.534,233.241 C 347.828,233.611 346.478,234.608 345.535,235.457 C 343.563,237.231 343.352,237.280 342.286,236.214 Z M 357.262,230.555 C 356.828,228.579 356.315,228.290 354.683,229.097 C 352.894,229.981 352.947,230.506 354.965,231.866 C 356.978,233.223 357.751,232.782 357.262,230.555 Z M 102.083,236.986 C 100.240,236.221 101.094,235.286 104.021,234.865 C 105.499,234.652 107.265,234.114 107.944,233.669 L 109.180,232.859 L 107.465,231.301 C 106.522,230.444 105.151,229.294 104.420,228.746 C 103.314,227.918 103.030,227.211 102.737,224.549 L 102.384,221.348 L 104.781,221.677 C 108.270,222.155 110.075,224.225 108.434,225.866 C 107.680,226.620 108.180,227.800 109.387,228.115 C 111.263,228.606 113.306,227.211 114.970,224.302 C 116.537,221.563 116.623,221.500 118.787,221.500 C 120.880,221.500 121.000,221.576 121.000,222.906 C 121.000,223.811 120.474,224.817 119.526,225.725 C 118.382,226.821 118.113,227.439 118.323,228.489 C 118.550,229.625 118.265,230.102 116.547,231.463 C 115.421,232.355 114.500,233.290 114.500,233.542 C 114.500,233.794 115.263,234.000 116.197,234.000 C 118.073,234.000 118.774,234.939 117.841,236.202 C 117.364,236.846 115.893,237.046 110.250,237.235 C 106.275,237.369 102.746,237.261 102.083,236.986 Z M 57.486,245.880 C 56.554,245.252 55.024,243.729 54.086,242.494 C 53.147,241.260 51.900,240.115 51.315,239.950 C 49.108,239.330 46.000,237.452 46.000,236.740 C 46.000,235.625 44.314,235.852 43.114,237.128 C 42.304,237.990 42.018,239.024 41.902,241.503 L 41.750,244.750 L 39.734,244.898 C 38.137,245.016 37.485,244.798 36.593,243.849 C 35.645,242.840 35.549,242.436 35.984,241.293 C 36.287,240.496 36.500,234.991 36.500,227.977 L 36.500,216.019 L 37.710,215.715 C 39.718,215.211 40.663,215.659 41.092,217.315 C 41.333,218.246 42.258,219.446 43.374,220.278 C 44.406,221.048 46.176,222.481 47.309,223.464 C 49.876,225.692 53.587,228.250 54.250,228.250 C 54.562,228.250 54.685,226.320 54.576,223.112 C 54.437,219.003 54.564,217.727 55.212,216.737 C 56.182,215.257 58.104,215.104 59.405,216.405 C 60.244,217.244 60.299,218.364 60.159,231.751 C 60.076,239.694 59.821,246.379 59.593,246.607 C 59.365,246.835 58.417,246.507 57.486,245.880 Z M 54.400,238.400 C 55.189,237.611 55.172,234.257 54.375,233.632 C 53.213,232.719 50.667,232.516 49.687,233.259 C 49.171,233.649 48.356,233.975 47.875,233.984 C 46.188,234.015 47.018,235.000 48.731,235.000 C 50.517,235.000 52.207,236.290 52.778,238.088 C 53.115,239.150 53.564,239.236 54.400,238.400 Z M 44.485,230.450 C 45.593,229.872 46.500,229.198 46.500,228.953 C 46.500,228.287 42.445,225.475 41.938,225.789 C 41.429,226.103 41.340,230.673 41.833,231.167 C 42.283,231.617 42.205,231.638 44.485,230.450 Z M 402.849,244.125 C 401.010,242.730 400.656,241.817 401.461,240.546 C 401.729,240.123 401.700,239.388 401.388,238.703 C 401.092,238.055 401.046,237.173 401.280,236.657 C 401.506,236.158 401.728,232.534 401.774,228.604 C 401.848,222.201 401.764,221.409 400.962,220.980 C 400.470,220.716 399.930,220.067 399.762,219.537 C 399.373,218.314 400.737,214.984 401.599,215.050 C 403.625,215.205 404.711,215.898 405.210,217.352 C 405.657,218.657 408.064,221.070 412.324,224.484 C 412.640,224.737 413.005,225.238 413.135,225.597 C 413.297,226.042 413.878,225.744 414.963,224.659 C 415.837,223.783 417.666,222.218 419.027,221.181 C 421.356,219.405 422.047,218.500 421.075,218.500 C 420.841,218.500 419.695,219.192 418.529,220.037 C 417.362,220.882 416.265,221.432 416.092,221.259 C 415.789,220.955 420.079,216.804 422.371,215.183 C 423.887,214.111 425.000,214.638 425.000,216.426 C 425.000,217.463 425.289,217.959 426.000,218.145 C 427.223,218.465 427.294,219.847 426.151,221.109 C 425.407,221.932 425.316,223.200 425.418,231.399 C 425.482,236.542 425.661,241.684 425.816,242.826 C 426.059,244.613 425.956,244.946 425.074,245.226 C 423.902,245.598 421.690,244.591 420.296,243.051 C 419.773,242.473 419.075,242.000 418.746,242.000 C 418.416,242.000 417.563,241.460 416.851,240.799 C 415.631,239.669 415.444,239.639 413.653,240.277 C 412.606,240.651 411.224,240.966 410.580,240.978 C 409.870,240.991 408.552,241.884 407.224,243.250 C 406.021,244.488 404.953,245.500 404.849,245.500 C 404.746,245.500 403.845,244.881 402.849,244.125 Z M 415.208,238.343 C 415.090,235.944 414.936,235.500 414.226,235.500 C 413.371,235.500 411.041,237.916 411.016,238.828 C 411.006,239.193 411.781,239.365 413.125,239.296 C 414.761,239.212 415.240,238.993 415.208,238.343 Z M 420.587,231.549 C 420.462,228.456 420.256,227.500 419.712,227.500 C 419.320,227.500 419.000,227.683 419.000,227.906 C 419.000,228.129 418.521,228.826 417.935,229.454 L 416.870,230.597 L 418.011,232.674 C 420.441,237.096 420.804,236.938 420.587,231.549 Z M 410.274,230.890 C 410.513,229.802 410.267,228.948 409.289,227.470 C 408.572,226.386 407.780,225.500 407.528,225.500 C 407.069,225.500 406.543,234.346 406.951,235.214 C 407.290,235.935 409.917,232.516 410.274,230.890 Z M 92.252,202.000 C 92.568,199.845 93.712,194.658 95.283,188.250 C 96.252,184.296 99.545,176.101 102.472,170.360 C 106.344,162.766 111.216,154.536 111.750,154.689 C 112.040,154.772 112.309,157.534 112.391,161.280 L 112.532,167.728 L 109.721,173.739 C 108.175,177.045 106.255,181.109 105.455,182.770 C 104.655,184.431 104.000,186.058 104.000,186.387 C 104.000,186.715 103.139,188.981 102.086,191.423 C 100.444,195.231 99.586,196.458 96.047,200.056 L 91.921,204.250 L 92.252,202.000 Z M 365.753,200.238 C 362.798,196.563 361.475,194.375 359.961,190.655 C 358.883,188.004 358.000,185.654 358.000,185.432 C 358.000,185.211 357.464,183.842 356.809,182.390 C 356.153,180.938 354.787,177.838 353.773,175.500 C 352.759,173.162 351.390,170.322 350.730,169.188 C 350.071,168.054 349.405,166.254 349.251,165.188 C 348.868,162.553 349.619,155.374 350.301,155.148 C 351.144,154.869 360.000,168.941 360.000,170.561 C 360.000,170.897 360.335,171.541 360.743,171.993 C 361.642,172.986 366.091,184.567 367.181,188.750 C 369.666,198.292 370.860,205.000 370.072,205.000 C 369.803,205.000 367.860,202.857 365.753,200.238 Z M 394.541,183.937 C 391.804,181.021 390.840,180.317 389.225,180.054 C 387.269,179.736 387.250,179.712 387.150,177.367 C 387.052,175.091 387.101,175.000 388.429,175.000 C 389.189,175.000 391.259,174.412 393.030,173.692 C 394.801,172.973 397.150,172.200 398.250,171.975 C 399.350,171.750 401.902,171.081 403.921,170.490 C 407.727,169.375 409.828,169.471 410.332,170.784 C 410.491,171.198 410.225,171.975 409.741,172.510 C 408.947,173.387 408.918,173.845 409.450,177.141 C 410.109,181.225 409.450,184.602 407.937,184.893 C 406.838,185.104 402.910,182.391 400.021,179.425 C 397.609,176.949 396.093,176.434 395.020,177.726 C 394.530,178.316 394.737,178.771 396.127,180.161 C 397.067,181.101 398.427,182.257 399.149,182.730 C 400.905,183.880 401.311,185.327 400.218,186.536 C 399.738,187.066 399.017,187.500 398.615,187.500 C 398.214,187.500 396.381,185.897 394.541,183.937 Z M 405.700,178.583 C 405.672,178.262 405.613,177.494 405.567,176.875 C 405.427,174.966 404.822,174.461 403.092,174.807 C 401.090,175.207 401.092,175.781 403.105,177.858 C 404.659,179.461 405.803,179.781 405.700,178.583 Z M 395.681,160.750 C 395.356,159.905 393.722,159.737 393.250,160.500 C 392.686,161.412 391.127,161.018 390.299,159.754 C 389.849,159.068 388.365,157.942 386.999,157.250 C 384.829,156.150 384.247,156.053 382.383,156.483 C 379.478,157.154 379.539,157.168 378.975,155.684 C 378.435,154.265 378.760,152.500 379.561,152.500 C 379.833,152.500 380.999,152.070 382.152,151.544 C 383.306,151.019 385.938,149.913 388.000,149.086 C 390.062,148.259 393.035,147.009 394.605,146.307 C 397.176,145.157 397.536,145.107 398.230,145.801 C 398.653,146.225 399.002,146.724 399.004,146.911 C 399.006,147.097 399.254,148.713 399.555,150.500 C 400.391,155.460 400.219,160.103 399.171,160.870 C 397.993,161.731 396.031,161.664 395.681,160.750 Z M 395.708,156.868 C 395.685,156.391 395.629,154.988 395.583,153.750 C 395.489,151.201 394.679,150.821 392.974,152.526 C 391.878,153.622 391.986,154.743 393.394,156.898 C 394.246,158.200 395.771,158.180 395.708,156.868 Z M 389.400,154.400 C 390.327,153.473 390.117,153.000 388.780,153.000 C 387.463,153.000 386.753,153.696 387.250,154.500 C 387.668,155.177 388.670,155.130 389.400,154.400 Z M 64.500,188.010 C 63.263,187.511 60.562,186.607 58.500,186.002 C 50.973,183.794 50.744,183.687 50.821,182.419 C 50.860,181.776 51.138,179.338 51.438,177.000 C 52.054,172.206 52.686,171.366 55.500,171.603 C 56.923,171.723 57.225,171.937 57.114,172.750 C 57.040,173.300 56.873,175.389 56.744,177.392 C 56.550,180.406 56.647,181.088 57.305,181.340 C 58.509,181.802 58.983,180.588 59.000,177.000 C 59.017,173.447 59.491,172.198 60.654,172.644 C 61.457,172.952 62.895,177.270 63.435,180.994 C 63.684,182.712 63.994,183.274 64.755,183.391 C 65.302,183.476 66.706,183.891 67.875,184.314 C 70.111,185.123 70.526,186.083 69.482,188.033 C 68.850,189.214 67.464,189.207 64.500,188.010 Z M 73.551,167.804 C 72.933,167.146 71.375,166.229 70.089,165.765 C 68.802,165.302 67.300,164.737 66.750,164.511 C 57.896,160.869 56.072,158.971 59.875,157.356 C 60.906,156.918 62.843,156.098 64.180,155.534 C 66.148,154.703 66.538,154.341 66.234,153.629 C 62.791,145.582 63.539,142.049 68.128,144.676 C 69.295,145.344 72.725,146.855 75.750,148.034 C 83.003,150.861 83.590,151.257 83.401,153.200 C 83.237,154.886 82.767,154.980 78.371,154.216 C 76.533,153.897 73.447,154.872 72.755,155.991 C 72.597,156.247 72.813,157.281 73.234,158.289 C 73.655,159.297 74.000,160.638 74.000,161.269 C 74.000,162.010 74.708,162.977 76.000,164.000 C 77.100,164.871 78.000,165.801 78.000,166.066 C 78.000,166.551 75.498,168.955 74.962,168.984 C 74.804,168.993 74.169,168.462 73.551,167.804 Z M 69.989,160.845 C 69.983,160.518 69.554,159.698 69.035,159.024 C 68.199,157.936 67.946,157.864 66.796,158.388 C 64.969,159.221 65.186,160.241 67.375,161.104 C 69.356,161.885 70.007,161.820 69.989,160.845 Z M 72.750,150.688 C 70.810,149.270 68.998,150.128 69.996,151.993 C 70.514,152.960 70.610,152.969 72.114,152.191 C 73.609,151.418 73.642,151.340 72.750,150.688 Z M 141.631,160.091 C 141.290,159.875 140.789,158.526 140.518,157.094 C 139.882,153.739 135.481,147.000 133.926,147.000 C 133.077,147.000 132.947,146.791 133.224,145.875 C 133.411,145.256 133.691,143.797 133.846,142.633 C 134.230,139.755 134.999,139.192 137.516,139.946 C 138.607,140.273 139.500,140.714 139.500,140.927 C 139.500,141.525 142.153,142.619 149.375,144.999 C 156.758,147.432 157.465,148.170 154.237,150.074 C 153.267,150.646 152.247,151.538 151.969,152.057 C 151.033,153.806 146.827,152.706 147.102,150.784 C 147.183,150.215 147.588,149.750 148.000,149.750 C 149.354,149.750 148.784,148.332 147.250,147.886 C 144.496,147.085 140.454,146.000 140.226,146.000 C 139.595,146.000 140.245,147.277 142.684,150.835 C 145.218,154.533 147.000,157.590 147.000,158.243 C 147.000,158.468 142.726,160.528 142.334,160.492 C 142.288,160.488 141.971,160.308 141.631,160.091 Z M 315.196,159.289 C 315.046,158.898 315.165,158.125 315.461,157.572 C 316.316,155.976 316.155,150.528 315.244,150.178 C 314.095,149.738 313.159,150.805 312.817,152.945 C 312.427,155.380 311.455,156.278 310.032,155.517 C 309.464,155.213 309.000,154.688 309.000,154.350 C 309.000,154.012 308.556,152.906 308.013,151.893 L 307.025,150.050 L 308.580,148.943 C 309.435,148.334 310.948,147.558 311.943,147.218 C 313.212,146.783 313.802,146.255 313.924,145.441 C 314.115,144.169 315.061,142.842 318.068,139.625 C 320.824,136.678 321.052,136.723 324.314,140.876 C 325.016,141.771 325.762,142.397 325.972,142.267 C 326.901,141.693 328.036,143.405 328.321,145.807 C 328.687,148.907 328.496,149.072 323.750,149.750 L 320.250,150.250 L 320.107,154.821 C 319.974,159.059 319.883,159.415 318.857,159.690 C 316.972,160.195 315.481,160.032 315.196,159.289 Z M 324.000,145.678 C 324.000,145.068 322.306,143.002 321.817,143.016 C 320.892,143.041 319.278,145.554 319.928,145.956 C 320.496,146.306 324.000,146.067 324.000,145.678 Z M 325.325,139.375 C 324.759,138.779 324.579,138.221 324.862,137.938 C 325.144,137.656 325.683,137.874 326.250,138.500 C 327.460,139.837 326.566,140.683 325.325,139.375 Z M 85.809,121.375 C 85.388,116.515 85.120,94.956 85.456,93.000 C 85.732,91.397 85.894,91.256 87.392,91.325 C 89.318,91.414 90.658,92.368 90.271,93.375 C 89.844,94.489 90.486,95.134 91.327,94.436 C 92.245,93.674 94.367,94.367 98.455,96.763 C 103.311,99.609 104.001,101.059 101.186,102.502 C 99.411,103.411 96.000,106.046 96.000,106.508 C 96.000,106.695 98.351,108.356 101.224,110.198 C 104.097,112.041 106.591,113.998 106.765,114.548 C 107.050,115.446 105.903,118.000 105.214,118.000 C 105.070,118.000 103.669,117.153 102.101,116.118 C 97.053,112.785 91.010,109.893 90.712,110.668 C 90.567,111.045 90.683,113.581 90.968,116.302 C 91.427,120.672 91.393,121.308 90.682,121.750 C 90.238,122.025 89.106,122.756 88.166,123.375 C 87.225,123.994 86.371,124.500 86.268,124.500 C 86.164,124.500 85.958,123.094 85.809,121.375 Z M 93.522,102.367 C 96.143,101.454 96.255,100.474 93.840,99.600 C 91.277,98.674 91.000,98.810 91.000,101.000 C 91.000,103.223 91.026,103.237 93.522,102.367 Z M 366.618,125.869 C 366.346,125.529 365.417,123.787 364.555,122.000 C 362.885,118.540 358.554,112.403 355.718,109.479 C 352.531,106.193 354.064,104.920 358.500,107.168 C 359.990,107.923 361.510,109.342 363.000,111.369 C 365.884,115.293 366.717,115.422 366.245,111.875 C 365.867,109.033 364.729,107.401 362.250,106.145 C 360.295,105.155 358.000,102.993 358.000,102.141 C 358.000,101.772 359.230,100.020 360.733,98.248 C 362.236,96.476 363.914,94.148 364.462,93.075 C 365.871,90.312 366.936,90.055 368.625,92.071 C 369.381,92.974 370.000,94.127 370.000,94.634 C 370.000,95.140 369.100,96.880 368.000,98.500 C 366.900,100.120 366.000,101.669 366.000,101.943 C 366.000,102.217 367.090,103.360 368.422,104.483 C 369.755,105.606 371.143,107.082 371.507,107.763 C 372.373,109.381 373.291,109.326 374.772,107.565 C 376.265,105.791 378.828,104.628 379.583,105.383 C 380.118,105.918 378.908,107.967 375.102,112.971 C 374.173,114.192 372.202,117.606 370.722,120.557 C 369.242,123.508 367.824,126.050 367.572,126.205 C 367.320,126.361 366.891,126.210 366.618,125.869 Z M 370.520,104.774 C 370.188,104.374 370.066,103.579 370.248,103.005 C 370.654,101.728 374.125,99.350 375.245,99.582 C 376.134,99.766 378.367,103.300 377.893,103.774 C 377.641,104.026 372.328,105.432 371.436,105.482 C 371.264,105.492 370.851,105.173 370.520,104.774 Z M 224.110,121.875 C 223.645,121.309 223.613,102.667 224.076,102.290 C 225.630,101.024 229.933,98.500 230.537,98.500 C 232.454,98.500 239.500,104.740 239.500,106.437 C 239.500,106.714 238.544,107.129 237.375,107.359 C 235.665,107.696 235.217,108.011 235.079,108.971 C 234.986,109.627 234.367,111.023 233.704,112.072 C 233.042,113.122 232.500,114.170 232.500,114.403 C 232.500,115.409 234.974,117.081 236.328,116.990 C 239.434,116.781 240.001,116.957 239.984,118.125 C 239.961,119.726 239.055,120.687 236.679,121.628 C 234.693,122.415 234.571,122.408 233.706,121.451 C 233.209,120.902 232.030,120.086 231.085,119.638 C 229.461,118.868 229.329,118.874 228.683,119.757 C 228.307,120.271 228.000,120.962 228.000,121.292 C 228.000,122.492 224.986,122.944 224.110,121.875 Z M 230.494,111.762 C 231.090,110.531 232.235,108.970 233.039,108.294 C 233.843,107.618 234.500,106.894 234.500,106.685 C 234.500,105.917 231.786,103.500 230.924,103.500 C 230.435,103.500 229.813,103.915 229.541,104.423 C 228.962,105.505 227.958,113.027 228.315,113.605 C 228.832,114.441 229.450,113.918 230.494,111.762 Z M 305.500,118.031 C 300.336,117.779 299.495,117.602 297.250,116.298 C 294.740,114.840 285.143,110.000 284.763,110.000 C 284.651,110.000 282.192,108.875 279.299,107.500 C 276.405,106.125 273.677,105.000 273.236,105.000 C 271.805,105.000 265.280,101.715 263.357,100.027 C 261.062,98.012 259.341,95.662 259.716,95.055 C 259.880,94.790 260.766,94.785 261.872,95.045 C 262.905,95.288 265.212,95.727 267.000,96.021 C 273.409,97.074 287.779,102.184 295.500,106.154 C 304.119,110.586 314.673,117.315 314.202,118.078 C 314.058,118.310 313.336,118.458 312.595,118.406 C 311.855,118.355 308.663,118.186 305.500,118.031 Z M 148.516,117.875 C 148.525,117.531 150.156,116.125 152.141,114.750 C 162.098,107.854 169.556,104.128 182.500,99.581 C 189.778,97.025 203.000,94.199 203.000,95.199 C 203.000,95.308 201.696,96.764 200.101,98.435 C 197.954,100.685 196.214,101.928 193.384,103.236 C 191.284,104.206 189.370,105.000 189.130,105.000 C 187.504,105.000 165.098,115.474 161.836,117.759 C 160.427,118.745 148.491,118.849 148.516,117.875 Z M 134.995,92.128 C 134.382,90.823 133.281,88.855 132.548,87.753 C 131.815,86.651 130.444,84.243 129.502,82.402 C 128.061,79.587 127.866,78.830 128.278,77.652 C 128.647,76.596 129.140,76.213 130.273,76.102 C 132.282,75.904 134.225,78.336 133.758,80.464 C 133.382,82.177 134.512,83.534 135.991,83.147 C 137.467,82.761 137.437,79.521 135.954,79.133 C 135.019,78.888 134.942,78.613 135.232,76.555 C 135.411,75.287 135.665,73.877 135.798,73.421 C 136.175,72.121 137.576,71.853 138.606,72.884 C 139.611,73.889 141.972,80.110 141.989,81.798 C 142.001,82.907 143.273,84.295 145.124,85.218 C 146.569,85.939 146.816,87.322 145.716,88.537 C 144.647,89.719 143.616,89.760 142.411,88.669 C 141.576,87.914 138.238,87.595 137.622,88.211 C 137.492,88.341 137.862,89.217 138.443,90.158 C 139.755,92.281 139.780,93.315 138.533,93.982 C 136.814,94.902 136.131,94.545 134.995,92.128 Z M 156.898,82.165 C 155.523,81.794 155.369,80.191 156.471,77.700 C 157.037,76.420 157.500,75.187 157.500,74.960 C 157.500,74.733 156.492,74.101 155.260,73.556 C 152.710,72.428 150.500,70.427 150.500,69.245 C 150.500,66.883 154.789,60.502 155.911,61.195 C 156.822,61.758 156.609,64.327 155.465,66.568 C 154.455,68.549 154.459,70.000 155.474,70.000 C 156.070,70.000 157.588,67.138 159.017,63.319 C 160.079,60.481 161.146,59.584 162.310,60.550 C 163.199,61.287 162.747,64.500 161.349,67.383 C 160.091,69.978 160.479,70.534 163.730,70.790 C 166.670,71.022 167.000,71.242 167.000,72.968 C 167.000,74.877 165.963,75.632 163.879,75.241 C 162.235,74.933 162.162,74.989 161.559,77.000 C 160.248,81.375 159.020,82.736 156.898,82.165 Z M 160.998,72.495 C 160.543,71.647 160.288,71.554 159.715,72.029 C 158.700,72.871 158.827,73.467 160.125,73.955 C 161.466,74.460 161.774,73.945 160.998,72.495 Z M 180.685,74.090 C 180.404,73.903 179.651,72.175 179.013,70.250 C 178.374,68.325 177.406,65.400 176.861,63.750 C 176.316,62.100 175.543,60.107 175.144,59.321 C 173.721,56.519 175.583,54.384 180.046,53.699 C 181.258,53.513 182.882,53.042 183.655,52.652 C 184.428,52.262 185.890,52.012 186.905,52.097 C 191.092,52.445 188.109,56.500 183.666,56.500 C 181.351,56.500 180.500,57.191 180.500,59.070 C 180.500,60.783 181.158,61.218 182.589,60.453 C 185.000,59.162 190.500,59.908 190.500,61.526 C 190.500,62.648 188.927,63.395 187.083,63.148 C 184.625,62.818 183.000,63.655 183.000,65.250 C 183.000,66.855 184.328,67.500 187.630,67.500 C 189.844,67.500 190.531,67.719 191.476,68.725 C 193.674,71.065 190.939,72.933 187.794,71.239 C 185.662,70.091 183.633,70.546 183.200,72.271 C 182.856,73.644 181.494,74.628 180.685,74.090 Z M 315.203,88.748 C 314.401,87.525 314.446,87.398 317.119,83.373 C 318.624,81.105 320.507,77.848 321.303,76.135 C 322.903,72.691 323.406,72.299 325.301,73.019 C 326.533,73.488 326.576,73.630 326.238,76.130 C 326.042,77.571 325.552,79.395 325.149,80.182 C 324.095,82.239 324.964,82.769 327.060,81.347 C 331.387,78.410 333.775,78.642 333.211,81.944 C 332.873,83.921 331.423,85.500 329.946,85.500 C 329.427,85.500 328.104,86.312 327.005,87.305 C 324.714,89.374 323.500,89.284 323.500,87.045 C 323.500,86.228 323.313,85.443 323.084,85.302 C 322.855,85.161 321.570,86.160 320.228,87.522 C 317.488,90.305 316.397,90.570 315.203,88.748 Z M 303.246,82.314 C 302.542,81.239 302.544,80.898 303.269,78.689 C 303.709,77.347 304.474,75.350 304.969,74.250 C 306.606,70.614 306.605,70.339 304.934,68.068 C 304.071,66.895 303.192,66.118 302.980,66.342 C 302.768,66.567 301.313,69.225 299.746,72.250 C 296.059,79.368 296.003,79.425 293.760,78.355 C 292.665,77.833 292.000,77.160 292.000,76.572 C 292.000,76.053 293.101,73.631 294.448,71.189 C 295.794,68.748 297.617,65.134 298.499,63.159 C 299.382,61.183 300.427,59.443 300.822,59.292 C 301.878,58.886 305.750,62.678 308.615,66.922 L 311.094,70.594 L 309.826,73.422 C 309.129,74.977 308.308,77.375 308.001,78.750 C 306.986,83.309 304.915,84.861 303.246,82.314 Z M 272.750,71.643 C 270.625,71.110 270.584,70.724 272.041,64.872 C 272.811,61.780 273.689,57.986 273.992,56.441 C 274.295,54.896 274.851,53.212 275.226,52.699 C 275.842,51.856 276.094,51.829 277.829,52.416 C 278.886,52.774 280.200,53.263 280.750,53.503 C 281.300,53.743 283.156,54.433 284.875,55.037 C 288.207,56.207 288.676,56.929 286.880,58.122 C 285.846,58.809 285.814,58.968 286.470,60.193 C 287.004,61.192 287.038,61.662 286.606,62.094 C 285.866,62.834 282.885,63.855 280.289,64.257 C 279.168,64.431 277.861,64.683 277.386,64.817 C 276.514,65.063 275.615,67.494 275.378,70.246 C 275.247,71.778 274.618,72.112 272.750,71.643 Z M 282.616,59.938 C 283.974,59.211 283.669,58.157 281.925,57.549 C 278.926,56.503 278.029,57.106 278.007,60.181 C 278.001,60.985 278.253,61.064 279.866,60.761 C 280.892,60.569 282.129,60.198 282.616,59.938 Z M 220.749,65.678 C 219.965,64.481 219.954,64.209 220.630,62.790 C 221.629,60.695 225.656,54.966 226.958,53.788 C 227.531,53.269 228.000,52.593 228.000,52.286 C 228.000,51.978 226.539,49.932 224.752,47.738 C 222.966,45.545 221.504,43.347 221.502,42.854 C 221.499,41.577 225.306,36.701 227.239,35.507 C 229.178,34.309 230.428,34.248 232.793,35.236 C 235.292,36.280 237.856,38.521 240.320,41.816 C 242.799,45.130 242.787,45.187 238.770,49.500 C 235.199,53.333 229.054,60.668 227.186,63.325 C 224.414,67.270 222.298,68.043 220.749,65.678 Z M 233.659,46.234 C 235.716,43.657 235.951,41.405 234.332,39.787 C 233.624,39.079 232.830,38.500 232.567,38.500 C 231.851,38.500 229.541,41.411 229.210,42.731 C 228.876,44.062 230.688,48.000 231.635,48.000 C 231.973,48.000 232.884,47.205 233.659,46.234 Z M 236.125,63.699 C 233.231,61.272 233.356,60.443 237.127,57.059 L 238.454,55.869 L 239.772,57.434 C 240.496,58.295 241.379,59.000 241.733,59.000 C 242.088,59.000 242.653,59.332 242.990,59.738 C 243.495,60.346 243.219,60.916 241.426,62.966 C 240.229,64.335 239.025,65.461 238.750,65.468 C 238.475,65.475 237.294,64.679 236.125,63.699 Z" fill="#000000" fill-rule="evenodd" /></svg>