<svg xmlns="http://www.w3.org/2000/svg" viewBox="0 0 369 367" width="369" height="367"><path d="M 93.090,349.471 C 90.077,348.870 85.214,347.096 82.250,345.517 C 77.080,342.761 74.396,341.967 65.354,340.513 C 57.025,339.175 52.215,335.058 45.766,323.750 C 43.153,319.168 40.147,314.795 36.430,310.170 C 26.223,297.467 24.956,290.914 29.632,275.000 C 30.362,272.513 31.338,266.809 31.983,261.250 C 33.476,248.398 34.451,244.554 37.086,241.139 C 41.201,235.805 47.266,231.569 53.750,229.501 C 57.650,228.256 61.312,226.023 66.189,221.912 C 77.308,212.540 80.290,211.000 87.312,211.000 C 90.541,211.000 92.560,211.424 103.000,214.297 C 104.844,214.805 107.726,215.030 111.750,214.980 C 126.470,214.798 128.533,215.620 136.763,224.947 C 141.430,230.237 144.431,232.658 147.303,233.451 C 149.686,234.109 156.082,239.511 157.980,242.469 C 160.038,245.676 160.785,248.203 161.481,254.322 C 161.790,257.032 162.378,261.163 162.788,263.500 C 163.523,267.689 163.879,269.088 166.100,276.500 C 167.644,281.656 167.668,290.039 166.150,293.853 C 165.579,295.284 164.627,297.084 164.034,297.853 C 163.440,298.621 161.896,300.627 160.602,302.311 C 159.309,303.995 156.262,307.581 153.832,310.282 C 149.328,315.287 148.908,316.004 143.218,328.409 C 141.028,333.184 137.053,337.358 133.715,338.386 C 132.634,338.719 130.287,339.424 128.500,339.953 C 124.138,341.243 112.576,344.997 105.500,347.421 C 99.039,349.635 96.236,350.098 93.090,349.471 Z M 107.555,325.172 C 109.928,323.880 113.149,320.593 114.427,318.158 C 116.120,314.931 113.724,310.995 110.072,311.005 C 107.370,311.012 103.574,313.016 100.750,315.928 C 96.602,320.204 95.953,323.030 98.528,325.605 C 99.937,327.014 100.250,327.110 102.546,326.838 C 103.915,326.676 106.169,325.926 107.555,325.172 Z M 73.750,306.040 C 76.819,304.320 77.644,299.402 75.622,294.883 C 74.391,292.131 70.437,287.980 67.965,286.844 C 59.121,282.780 52.685,289.028 56.789,297.694 C 58.576,301.469 63.662,306.313 66.292,306.745 C 67.369,306.922 68.588,307.132 69.000,307.213 C 70.167,307.440 72.106,306.962 73.750,306.040 Z M 144.571,294.535 C 146.259,292.708 147.019,288.304 145.848,287.133 C 144.895,286.180 141.993,286.626 140.838,287.903 C 139.813,289.035 138.500,292.170 138.500,293.484 C 138.500,294.043 138.969,294.969 139.543,295.543 C 140.878,296.878 142.753,296.502 144.571,294.535 Z M 112.228,282.189 C 114.720,281.233 115.117,274.777 112.837,272.274 C 111.185,270.461 109.821,270.272 108.235,271.636 C 107.185,272.539 106.819,273.377 106.642,275.279 C 106.347,278.447 107.063,280.248 109.113,281.498 C 110.925,282.603 111.067,282.635 112.228,282.189 Z M 55.621,260.743 C 58.298,258.066 57.949,252.994 55.089,253.002 C 52.594,253.010 49.571,258.252 50.548,260.875 C 51.153,262.497 53.939,262.425 55.621,260.743 Z M 136.097,250.750 C 136.703,248.546 135.333,245.363 132.871,243.255 C 130.482,241.211 129.735,241.105 128.157,242.587 C 126.153,244.470 126.603,246.183 129.994,249.574 C 132.398,251.978 133.253,252.536 134.336,252.409 C 135.348,252.290 135.787,251.876 136.097,250.750 Z M 90.093,243.410 C 95.718,240.412 97.402,236.683 94.720,233.166 C 92.904,230.785 90.613,229.916 88.163,230.678 C 85.088,231.636 83.222,232.832 81.298,235.079 C 79.125,237.618 78.408,239.875 79.043,242.175 C 79.611,244.233 80.941,244.922 84.430,244.966 C 86.525,244.993 87.761,244.653 90.093,243.410 Z M 231.705,314.025 C 227.831,313.016 223.893,311.826 222.954,311.380 C 217.638,308.858 214.051,304.633 210.660,296.901 C 206.980,288.511 205.998,284.808 206.005,279.351 C 206.016,271.130 210.749,261.194 215.922,258.532 C 216.927,258.014 219.887,255.730 222.500,253.456 C 225.582,250.774 228.567,248.695 231.000,247.536 C 234.692,245.777 234.846,245.750 241.000,245.772 C 247.203,245.795 247.278,245.809 251.000,247.670 C 255.047,249.693 260.471,252.807 265.241,255.845 C 267.656,257.384 268.487,258.279 269.561,260.500 C 271.901,265.338 275.012,280.027 275.003,286.198 C 274.999,289.070 272.409,294.928 269.852,297.846 C 267.458,300.578 255.648,310.858 252.500,312.950 C 250.988,313.955 248.947,315.053 247.965,315.389 C 244.814,316.467 239.312,316.006 231.705,314.025 Z M 251.000,300.052 C 253.414,298.309 252.697,295.270 249.742,294.715 C 246.830,294.169 244.066,296.703 244.722,299.318 C 245.288,301.573 248.392,301.936 251.000,300.052 Z M 228.936,294.718 C 230.943,292.166 228.157,289.375 224.732,290.506 C 221.941,291.427 221.511,292.921 223.404,295.125 C 224.598,296.516 227.701,296.288 228.936,294.718 Z M 230.641,273.047 C 233.143,271.974 234.932,269.809 235.327,267.374 C 235.706,265.035 234.170,263.750 230.994,263.750 C 228.900,263.750 228.373,263.977 226.866,265.529 C 223.614,268.877 223.123,271.237 225.317,272.964 C 226.946,274.245 227.815,274.258 230.641,273.047 Z M 175.278,267.375 C 174.898,266.132 174.414,263.095 173.243,254.606 C 172.588,249.852 171.783,245.127 171.455,244.106 C 168.331,234.373 164.423,230.048 152.864,223.530 C 147.689,220.612 146.173,219.494 144.864,217.632 C 143.411,215.564 141.298,213.298 136.712,208.895 C 134.864,207.120 131.623,205.601 128.811,205.191 C 127.677,205.026 125.850,204.601 124.750,204.247 C 123.650,203.893 120.275,203.581 117.250,203.552 C 110.697,203.491 104.942,203.020 104.250,202.488 C 103.078,201.589 96.419,200.000 93.821,200.000 C 92.269,200.000 91.000,199.809 91.000,199.575 C 91.000,199.135 95.672,194.880 99.042,192.250 C 100.099,191.425 105.416,187.163 110.857,182.778 C 127.422,169.430 130.097,167.321 134.250,164.335 C 136.450,162.753 140.050,160.115 142.250,158.473 C 156.608,147.756 169.046,139.376 169.680,139.992 C 169.917,140.223 169.413,141.423 168.555,142.670 C 167.700,143.913 167.000,145.049 167.000,145.195 C 167.000,145.341 165.251,148.450 163.114,152.105 C 160.976,155.760 157.807,161.675 156.070,165.250 C 154.334,168.825 152.665,172.200 152.362,172.750 C 150.402,176.304 148.554,182.220 149.201,182.868 C 149.528,183.195 155.044,179.360 160.750,174.839 C 167.613,169.401 180.295,157.682 202.750,136.031 C 213.200,125.954 223.550,116.039 225.750,113.997 C 227.950,111.955 233.688,106.537 238.500,101.958 C 248.149,92.777 254.966,86.920 255.570,87.293 C 256.092,87.616 255.105,89.837 253.478,92.000 C 252.754,92.963 248.694,98.925 244.456,105.250 C 240.218,111.575 236.607,116.862 236.432,117.000 C 236.257,117.138 235.497,118.375 234.743,119.750 C 233.989,121.125 231.188,125.737 228.518,130.000 C 225.848,134.262 221.799,140.787 219.519,144.500 C 217.240,148.213 214.296,152.938 212.977,155.000 C 211.658,157.062 210.094,159.650 209.502,160.750 C 208.910,161.850 207.782,163.762 206.995,165.000 C 205.577,167.230 202.488,172.734 199.138,179.000 C 198.182,180.787 196.917,183.037 196.326,184.000 C 194.172,187.509 193.452,188.842 191.064,193.750 C 187.918,200.215 185.966,205.119 185.846,206.862 C 185.757,208.155 185.866,208.239 187.453,208.083 C 189.505,207.881 194.500,205.673 194.500,204.968 C 194.500,204.691 195.456,204.051 196.625,203.545 C 198.691,202.650 201.721,200.446 206.781,196.156 C 214.984,189.201 220.172,185.000 220.558,185.000 C 220.801,185.000 221.000,185.250 221.000,185.557 C 221.000,186.543 211.707,205.642 208.498,211.250 C 206.334,215.032 204.000,219.695 204.000,220.236 C 204.000,220.371 203.100,221.953 202.000,223.750 C 200.900,225.547 200.000,227.160 200.000,227.334 C 200.000,227.508 199.072,229.247 197.937,231.200 C 196.803,233.152 195.483,235.425 195.004,236.250 C 194.525,237.075 193.004,239.581 191.623,241.820 C 190.243,244.058 188.446,247.095 187.630,248.570 C 184.921,253.466 183.891,255.238 183.020,256.500 C 182.545,257.188 181.203,259.638 180.038,261.946 C 178.873,264.254 177.658,266.560 177.339,267.071 C 176.676,268.134 175.560,268.298 175.278,267.375 Z M 284.727,261.273 C 283.732,260.277 283.500,259.543 283.500,257.384 C 283.500,254.058 284.263,252.926 290.232,247.400 C 292.698,245.117 296.981,241.000 299.751,238.250 C 306.077,231.969 310.620,227.723 318.476,220.750 C 321.883,217.725 325.174,214.775 325.788,214.195 C 326.974,213.075 330.154,211.000 330.684,211.000 C 331.418,211.000 330.896,212.449 329.414,214.526 C 326.671,218.371 323.835,222.150 321.502,225.067 C 320.264,226.617 318.012,229.526 316.500,231.531 C 314.988,233.537 311.040,238.457 307.727,242.464 C 304.415,246.471 299.715,252.191 297.284,255.174 C 294.852,258.157 292.163,261.025 291.307,261.547 C 289.069,262.911 286.248,262.794 284.727,261.273 Z M 271.294,243.462 C 269.148,240.911 269.500,239.189 273.096,234.655 C 279.142,227.031 330.313,176.640 349.816,159.105 C 354.080,155.271 355.500,154.358 355.500,155.450 C 355.500,156.146 345.658,168.202 334.237,181.496 C 331.754,184.386 329.209,187.417 328.580,188.232 C 325.679,191.995 314.670,204.824 309.250,210.757 C 305.950,214.369 301.255,219.671 298.817,222.538 C 292.641,229.798 281.143,241.890 278.801,243.586 C 276.000,245.615 273.066,245.567 271.294,243.462 Z M 250.763,233.525 C 249.072,230.254 249.971,228.203 255.627,222.429 C 259.458,218.518 277.776,201.479 289.198,191.202 C 291.919,188.753 295.370,185.569 296.867,184.125 C 298.363,182.681 299.888,181.500 300.255,181.500 C 300.622,181.500 301.832,180.435 302.945,179.134 C 304.475,177.344 305.108,176.908 305.545,177.345 C 306.227,178.027 305.924,178.491 298.907,187.500 C 288.428,200.954 279.582,211.904 276.691,215.000 C 275.535,216.238 273.196,218.938 271.492,221.000 C 267.507,225.823 262.893,230.593 259.830,233.055 C 257.633,234.821 257.139,235.000 254.468,235.000 C 251.715,235.000 251.476,234.905 250.763,233.525 Z M 49.500,186.235 C 47.987,185.913 44.837,185.072 42.500,184.365 C 40.163,183.658 37.008,182.733 35.490,182.309 C 29.004,180.499 25.487,176.514 21.754,166.750 C 21.018,164.825 20.117,162.575 19.752,161.750 C 15.933,153.123 15.957,145.010 19.827,136.573 C 20.985,134.047 23.827,131.148 27.739,128.500 C 29.670,127.193 33.828,124.186 36.978,121.818 C 40.128,119.450 43.728,117.175 44.978,116.763 C 48.034,115.755 56.810,115.597 59.052,116.509 C 59.986,116.888 63.225,118.644 66.250,120.410 C 80.071,128.479 81.162,129.626 83.183,138.209 C 85.106,146.373 86.147,153.820 85.864,157.378 C 85.442,162.676 83.760,165.339 76.042,172.929 C 69.387,179.473 68.067,180.569 62.833,183.889 C 58.804,186.445 54.251,187.246 49.500,186.235 Z M 61.548,171.142 C 64.052,169.663 64.018,167.543 61.474,166.489 C 57.971,165.038 53.215,169.015 55.600,171.400 C 56.479,172.279 59.873,172.132 61.548,171.142 Z M 39.452,165.540 C 40.579,164.827 40.237,161.936 38.906,160.911 C 38.270,160.422 37.599,160.017 37.413,160.011 C 36.616,159.985 34.000,162.671 34.000,163.516 C 34.000,165.371 37.606,166.709 39.452,165.540 Z M 43.000,142.875 C 45.051,141.475 46.573,138.726 46.389,136.751 C 46.282,135.599 45.845,135.056 44.500,134.400 C 43.538,133.932 42.277,133.537 41.699,133.524 C 38.067,133.441 33.323,141.123 35.600,143.400 C 36.653,144.453 41.156,144.134 43.000,142.875 Z M 264.500,176.112 C 262.976,175.986 258.314,174.663 255.250,173.487 C 254.700,173.276 252.787,172.605 251.000,171.996 C 249.213,171.388 247.103,170.296 246.313,169.570 C 244.401,167.814 240.590,159.722 238.660,153.318 C 237.758,150.323 238.392,147.075 240.617,143.302 C 241.424,141.934 242.535,139.608 243.087,138.133 C 243.639,136.658 244.576,134.911 245.170,134.252 C 246.259,133.044 252.626,129.239 257.250,127.035 C 262.165,124.692 269.182,125.724 278.528,130.162 C 283.208,132.384 284.705,133.951 286.298,138.293 C 286.996,140.194 287.937,142.762 288.389,144.000 C 288.863,145.299 289.207,147.729 289.202,149.750 C 289.195,152.658 288.835,154.181 287.072,158.750 C 285.905,161.775 284.680,164.801 284.350,165.474 C 283.183,167.856 280.269,170.351 277.423,171.404 C 275.869,171.979 273.439,173.162 272.023,174.033 C 269.197,175.772 267.167,176.333 264.500,176.112 Z M 96.361,131.498 C 93.844,129.518 94.188,124.981 97.080,122.000 C 98.929,120.096 108.842,111.183 117.793,103.379 C 123.838,98.108 130.517,93.006 131.375,93.002 C 133.448,92.995 131.709,95.481 117.418,112.959 C 114.851,116.098 111.318,120.598 109.567,122.959 C 102.834,132.035 99.656,134.090 96.361,131.498 Z M 298.010,131.870 C 295.659,130.657 294.820,127.265 296.208,124.582 C 297.609,121.871 315.056,106.062 327.115,96.576 C 330.174,94.170 331.500,93.709 331.500,95.051 C 331.500,95.787 326.498,102.305 308.250,125.348 C 303.406,131.464 300.640,133.226 298.010,131.870 Z M 172.000,118.449 C 170.488,117.862 167.500,116.980 165.361,116.490 C 161.046,115.499 159.916,114.894 157.241,112.139 C 155.216,110.055 154.603,108.791 153.288,104.000 C 152.797,102.213 151.857,99.562 151.198,98.110 C 149.450,94.258 149.638,92.640 152.571,86.304 C 155.854,79.211 158.099,76.936 165.174,73.533 C 173.444,69.554 174.543,69.289 178.727,70.261 C 187.217,72.235 190.957,74.523 194.627,79.989 C 195.462,81.232 196.767,82.925 197.527,83.750 C 199.296,85.670 201.213,91.956 200.763,94.358 C 200.216,97.273 197.039,107.136 195.933,109.354 C 194.774,111.677 191.496,114.069 185.000,117.331 C 180.225,119.730 176.194,120.076 172.000,118.449 Z M 282.178,118.004 C 279.226,116.813 278.735,113.326 281.033,109.857 C 283.989,105.395 315.053,75.061 336.750,55.451 C 340.896,51.704 346.885,47.052 347.182,47.348 C 347.706,47.872 345.867,50.750 342.772,54.250 C 341.070,56.175 337.116,60.900 333.985,64.750 C 330.855,68.600 322.884,77.921 316.272,85.464 C 309.660,93.006 302.860,100.798 301.162,102.778 C 298.528,105.849 296.379,108.209 289.746,115.318 C 288.327,116.838 285.424,118.501 284.250,118.466 C 283.700,118.450 282.768,118.242 282.178,118.004 Z M 82.318,114.682 C 81.399,113.763 81.000,112.837 81.000,111.624 C 81.000,108.226 84.582,104.025 103.376,85.382 C 113.207,75.631 122.375,66.653 123.750,65.432 C 127.180,62.385 137.051,53.421 141.005,49.762 C 154.830,36.970 155.914,36.059 157.375,36.018 C 158.640,35.982 157.864,37.355 154.101,41.811 C 151.983,44.320 147.932,49.157 145.098,52.561 C 142.265,55.965 138.441,60.550 136.601,62.750 C 133.723,66.191 126.373,74.560 112.323,90.389 C 110.439,92.513 107.851,95.484 106.573,96.992 C 103.317,100.834 96.903,107.645 92.860,111.555 C 88.146,116.112 84.754,117.118 82.318,114.682 Z M 63.183,105.375 C 60.077,101.852 60.970,98.889 66.881,93.096 C 87.258,73.129 113.900,49.000 115.570,49.000 C 116.649,49.000 115.808,51.108 113.846,53.321 C 112.661,54.657 110.432,57.438 108.892,59.500 C 103.834,66.272 78.959,95.627 73.575,101.177 C 68.583,106.322 65.216,107.682 63.183,105.375 Z M 207.555,75.302 C 206.083,74.486 205.041,72.685 205.018,70.916 C 204.988,68.708 206.848,65.089 209.160,62.855 C 214.165,58.019 224.252,48.287 231.103,41.684 C 246.605,26.742 261.837,13.500 263.522,13.500 C 264.414,13.500 264.005,14.265 261.507,17.260 C 260.136,18.904 256.260,23.625 252.893,27.750 C 249.526,31.875 244.600,37.837 241.947,41.000 C 239.293,44.163 235.708,48.438 233.980,50.500 C 232.252,52.562 229.240,56.050 227.288,58.250 C 225.336,60.450 222.408,63.825 220.782,65.750 C 214.566,73.107 211.310,76.034 209.400,75.982 C 209.042,75.973 208.212,75.667 207.555,75.302 Z M 190.227,60.773 C 189.344,59.890 189.000,58.999 189.000,57.598 C 189.000,55.199 190.548,52.945 195.265,48.476 C 197.138,46.702 201.500,42.534 204.960,39.215 C 217.355,27.321 225.535,20.143 227.748,19.219 C 230.690,17.989 230.466,19.407 227.018,23.831 C 225.337,25.986 223.247,28.762 222.371,30.000 C 221.496,31.238 219.104,34.388 217.055,37.000 C 215.006,39.612 212.299,43.090 211.040,44.727 C 206.611,50.485 198.326,59.597 196.434,60.792 C 193.951,62.359 191.807,62.353 190.227,60.773 Z" fill="#000000" fill-rule="evenodd" /></svg>