<svg xmlns="http://www.w3.org/2000/svg" viewBox="0 0 321 332" width="321" height="332"><path d="M 157.598,314.851 L 156.000,313.202 L 156.000,305.146 L 156.000,297.089 L 153.625,295.940 C 150.244,294.303 147.140,291.249 145.444,287.890 C 144.191,285.407 143.978,284.400 143.951,280.850 C 143.927,277.479 144.150,276.198 145.150,273.979 C 146.693,270.555 150.072,267.256 153.282,266.037 C 155.635,265.144 155.768,264.993 156.141,262.776 C 156.356,261.498 156.468,257.819 156.391,254.601 L 156.250,248.750 L 153.250,248.356 C 151.600,248.139 148.338,247.724 146.000,247.435 C 143.662,247.145 138.990,246.243 135.617,245.430 C 132.244,244.617 129.268,244.084 129.005,244.247 C 128.742,244.409 128.212,245.264 127.828,246.146 C 125.986,250.373 122.372,259.231 120.748,263.500 C 119.754,266.113 118.641,268.925 118.276,269.750 C 117.910,270.575 117.444,271.812 117.240,272.500 C 117.036,273.188 116.460,274.650 115.960,275.750 C 115.025,277.805 114.103,280.117 111.273,287.501 C 110.376,289.839 109.048,293.052 108.322,294.641 C 107.595,296.230 107.000,297.732 107.000,297.979 C 107.000,298.685 104.460,300.500 103.471,300.500 C 102.246,300.500 99.500,298.109 99.500,297.043 C 99.500,295.992 101.514,290.040 103.490,285.250 C 104.284,283.325 105.759,279.613 106.767,277.000 C 107.775,274.387 109.614,269.775 110.853,266.750 C 112.092,263.725 113.459,260.350 113.891,259.250 C 114.322,258.150 115.225,256.012 115.896,254.500 C 116.568,252.988 117.403,250.949 117.753,249.969 C 118.103,248.990 118.883,247.105 119.486,245.780 C 120.990,242.479 121.369,240.000 120.369,240.000 C 119.065,240.000 106.009,233.061 101.489,229.966 C 82.329,216.842 62.962,192.817 55.475,172.883 L 53.834,168.516 L 55.249,164.883 C 57.430,159.281 58.535,156.925 61.530,151.500 C 67.871,140.014 77.389,127.407 85.750,119.420 C 94.837,110.739 102.303,105.645 115.375,99.207 C 119.594,97.129 122.000,95.664 122.000,95.174 C 122.000,94.750 121.214,92.747 120.253,90.722 C 119.292,88.698 117.810,85.288 116.958,83.145 C 116.107,81.003 114.995,78.338 114.487,77.222 C 113.979,76.107 112.529,72.547 111.263,69.311 C 109.998,66.074 108.774,63.049 108.543,62.588 C 108.149,61.801 106.148,56.919 103.897,51.250 C 102.918,48.785 100.204,41.499 99.691,39.959 C 99.405,39.100 102.544,36.000 103.700,36.000 C 105.074,36.000 106.911,38.068 108.018,40.861 C 108.648,42.450 109.321,43.975 109.513,44.250 C 109.705,44.525 110.023,45.421 110.220,46.242 C 110.417,47.063 111.150,48.975 111.850,50.492 C 113.745,54.599 115.963,59.897 117.086,63.000 C 117.634,64.513 118.739,67.166 119.541,68.897 C 120.343,70.629 121.000,72.253 121.000,72.508 C 121.000,72.762 121.538,74.158 122.195,75.610 C 122.853,77.062 124.446,80.725 125.736,83.750 C 130.201,94.219 129.952,93.901 132.822,92.784 C 136.138,91.493 150.700,89.025 155.125,89.004 C 155.927,89.000 156.000,88.214 156.000,79.529 L 156.000,70.059 L 152.965,68.441 C 145.504,64.464 142.130,57.014 144.247,49.192 C 144.974,46.507 145.638,45.368 147.902,42.923 C 150.538,40.076 153.611,38.000 155.190,38.000 C 156.190,38.000 156.365,36.524 156.464,27.250 L 156.550,19.250 L 158.079,17.834 C 159.894,16.152 161.601,16.310 163.401,18.327 C 164.518,19.579 164.550,19.876 164.463,28.412 C 164.403,34.303 164.551,37.267 164.910,37.387 C 166.433,37.894 171.477,41.583 173.065,43.350 C 175.239,45.770 177.000,50.203 177.000,53.258 C 177.000,54.480 176.507,56.979 175.906,58.813 C 174.533,62.994 170.722,67.351 167.061,68.926 L 164.611,69.980 L 164.350,75.365 C 163.895,84.790 163.975,88.524 164.639,88.751 C 164.975,88.866 168.062,89.302 171.500,89.721 C 177.646,90.469 180.540,90.965 185.000,92.033 C 190.303,93.304 190.326,93.300 191.462,91.075 C 192.030,89.961 192.958,87.875 193.524,86.440 C 194.089,85.005 194.964,82.912 195.467,81.790 C 198.793,74.376 203.000,64.079 203.000,63.354 C 203.000,63.105 203.865,61.067 204.922,58.826 C 207.327,53.727 212.000,41.895 212.000,40.906 C 212.000,39.883 215.669,36.000 216.635,36.000 C 217.068,36.000 218.134,36.598 219.002,37.329 C 220.407,38.510 220.545,38.857 220.248,40.454 C 220.064,41.442 219.268,43.938 218.478,46.000 C 217.689,48.062 216.111,52.225 214.973,55.250 C 212.790,61.050 210.165,67.487 208.186,71.890 C 207.534,73.342 207.003,74.692 207.008,74.890 C 207.012,75.088 206.085,77.388 204.949,80.000 C 203.813,82.612 202.707,85.200 202.493,85.750 C 201.738,87.683 200.379,90.771 199.376,92.835 C 198.819,93.982 198.495,95.265 198.656,95.685 C 198.818,96.106 200.142,96.954 201.600,97.569 C 205.582,99.251 215.383,104.378 218.500,106.411 C 222.094,108.755 227.318,112.759 232.056,116.800 C 242.947,126.091 255.250,142.646 261.931,157.000 C 263.658,160.713 265.281,164.141 265.536,164.618 C 266.300,166.047 266.063,169.772 265.062,172.084 C 261.396,180.546 259.786,183.777 257.009,188.250 C 255.985,189.900 254.574,192.262 253.874,193.500 C 252.590,195.769 249.898,199.473 244.084,206.968 C 240.023,212.202 231.567,220.616 225.777,225.182 C 218.528,230.899 213.590,233.990 205.490,237.884 C 198.851,241.076 198.793,241.159 200.553,245.000 C 202.202,248.597 207.547,262.047 208.263,264.398 C 208.622,265.580 209.145,266.823 209.426,267.160 C 209.706,267.498 210.307,268.894 210.762,270.262 C 211.217,271.631 212.094,273.875 212.713,275.250 C 213.331,276.625 214.233,278.875 214.716,280.250 C 216.782,286.122 218.533,290.698 219.768,293.451 C 220.895,295.962 221.000,296.571 220.481,297.573 C 218.858,300.707 216.527,301.425 214.637,299.375 C 213.325,297.951 210.566,292.074 208.475,286.250 C 207.587,283.775 206.015,279.725 204.981,277.250 C 203.297,273.217 200.167,265.250 194.081,249.500 C 191.712,243.369 192.305,243.603 184.250,245.625 C 178.875,246.974 174.453,247.742 168.500,248.361 L 164.750,248.750 L 164.750,256.729 L 164.750,264.707 L 167.750,266.388 C 171.765,268.638 173.091,269.988 175.026,273.801 C 179.433,282.484 174.966,292.981 165.375,296.474 L 164.000,296.975 L 163.992,305.363 C 163.988,309.976 163.819,313.980 163.617,314.262 C 163.054,315.046 160.617,316.500 159.866,316.500 C 159.497,316.500 158.477,315.758 157.598,314.851 Z M 163.965,288.268 C 167.438,286.472 169.358,282.364 168.436,278.702 C 167.487,274.933 164.680,272.973 160.036,272.835 C 157.603,272.763 156.905,272.958 155.339,274.151 C 153.053,275.891 152.000,277.867 152.000,280.414 C 152.000,284.142 154.254,287.568 157.310,288.483 C 159.570,289.160 162.419,289.068 163.965,288.268 Z M 173.952,239.062 C 179.990,238.159 188.397,236.014 194.000,233.948 C 207.870,228.834 227.579,214.217 236.740,202.250 C 240.096,197.867 244.066,191.900 243.803,191.636 C 243.649,191.483 242.112,192.580 240.387,194.074 C 237.454,196.614 236.167,197.581 229.750,202.065 C 219.787,209.027 201.008,217.955 192.000,220.011 C 191.037,220.231 188.787,220.779 187.000,221.229 C 175.625,224.093 174.518,224.220 160.750,224.226 C 145.722,224.233 143.254,223.917 129.750,220.257 C 119.264,217.415 109.913,213.239 95.250,204.850 C 91.628,202.778 82.201,195.920 78.122,192.389 C 70.517,185.807 82.175,201.503 91.681,210.644 C 98.797,217.486 108.049,224.313 116.035,228.613 C 126.008,233.983 135.411,237.070 149.000,239.435 C 152.483,240.042 169.063,239.794 173.952,239.062 Z M 139.000,204.750 C 138.658,204.338 138.153,204.000 137.878,204.000 C 137.604,204.000 135.383,202.493 132.943,200.652 C 129.103,197.754 128.010,196.562 124.805,191.777 C 120.033,184.652 119.353,183.221 118.022,177.513 C 117.211,174.036 116.920,171.220 116.926,166.927 C 116.936,160.082 117.537,156.596 119.700,150.846 C 121.700,145.529 123.936,141.908 127.846,137.648 C 129.550,135.794 130.860,134.193 130.759,134.092 C 130.282,133.616 116.813,139.105 112.250,141.635 C 111.700,141.940 109.787,143.002 108.000,143.994 C 103.152,146.684 94.369,152.665 89.000,156.930 C 83.163,161.567 77.000,167.433 77.000,168.351 C 77.000,170.890 97.767,187.136 109.485,193.763 C 115.580,197.210 125.660,201.786 129.370,202.789 C 130.954,203.217 133.713,203.980 135.500,204.484 C 139.616,205.645 139.751,205.655 139.000,204.750 Z M 187.500,203.957 C 193.686,202.673 205.074,197.617 213.750,192.304 C 215.950,190.957 218.537,189.393 219.500,188.829 C 220.463,188.264 221.946,187.285 222.797,186.651 C 223.648,186.018 224.540,185.500 224.778,185.500 C 225.017,185.500 225.783,184.927 226.481,184.227 C 227.179,183.527 229.438,181.655 231.500,180.067 C 235.843,176.725 243.500,169.438 243.500,168.647 C 243.500,168.351 241.112,165.890 238.192,163.179 C 228.882,154.533 228.774,154.448 220.000,148.886 C 215.903,146.289 207.054,141.000 206.806,141.000 C 206.687,141.000 204.938,140.230 202.920,139.288 C 196.629,136.353 191.772,134.568 191.301,135.018 C 191.042,135.267 191.940,136.639 193.430,138.269 C 196.751,141.902 201.212,150.834 202.287,156.000 C 203.931,163.902 203.746,172.637 201.783,179.729 C 199.401,188.338 191.402,199.252 184.478,203.343 C 182.736,204.372 182.515,205.266 184.125,204.771 C 184.744,204.580 186.262,204.214 187.500,203.957 Z M 163.250,182.322 C 166.679,181.408 168.433,180.414 170.582,178.166 C 173.988,174.604 174.754,172.447 174.723,166.500 C 174.706,163.232 174.454,160.808 174.056,160.081 C 172.815,157.809 169.783,154.906 167.282,153.596 C 165.094,152.449 164.139,152.268 160.250,152.260 C 156.239,152.251 155.424,152.413 152.750,153.750 C 145.868,157.191 142.939,165.650 146.203,172.655 C 148.559,177.710 151.821,180.554 157.223,182.261 C 159.887,183.103 160.305,183.107 163.250,182.322 Z M 186.039,155.863 C 192.457,151.538 191.408,141.862 184.265,139.505 C 181.581,138.619 177.388,139.652 175.034,141.778 C 172.651,143.932 171.659,147.635 172.632,150.750 C 173.504,153.539 173.975,154.193 176.195,155.689 C 178.842,157.473 183.527,157.556 186.039,155.863 Z M 246.000,146.715 C 246.000,146.089 235.757,133.060 233.056,130.250 C 231.470,128.600 229.847,126.767 229.450,126.177 C 228.420,124.645 218.873,117.277 213.404,113.793 C 200.584,105.625 190.239,101.648 174.909,98.994 C 169.387,98.038 167.255,97.924 158.409,98.113 C 151.436,98.261 147.074,98.592 144.500,99.168 C 142.438,99.629 139.625,100.243 138.250,100.532 C 131.169,102.020 121.975,105.390 115.500,108.871 C 106.718,113.592 95.099,122.017 93.041,125.156 C 92.376,126.170 91.431,127.000 90.940,127.000 C 90.450,127.000 89.388,127.956 88.582,129.125 C 87.776,130.294 86.609,131.700 85.989,132.250 C 84.151,133.881 74.916,145.501 75.090,145.964 C 75.178,146.198 77.419,144.671 80.070,142.570 C 86.543,137.440 89.694,135.176 92.003,133.999 C 93.064,133.457 94.073,132.786 94.246,132.507 C 94.418,132.228 94.968,132.000 95.468,132.000 C 95.968,132.000 96.660,131.660 97.005,131.244 C 97.350,130.828 98.559,130.044 99.691,129.502 C 100.823,128.959 103.054,127.756 104.649,126.827 C 106.243,125.899 109.843,124.184 112.649,123.015 C 115.454,121.847 118.763,120.466 120.000,119.947 C 122.220,119.015 123.901,118.534 132.750,116.296 C 152.619,111.271 168.994,111.325 189.000,116.483 C 194.492,117.898 204.316,121.264 205.805,122.240 C 206.443,122.658 207.184,123.000 207.453,123.000 C 208.393,123.000 219.346,128.550 226.200,132.500 C 230.470,134.961 238.808,141.004 242.000,143.952 C 245.027,146.747 246.000,147.419 246.000,146.715 Z M 163.400,61.293 C 164.142,60.904 165.537,59.766 166.500,58.765 C 168.088,57.113 168.250,56.677 168.250,54.054 C 168.250,51.707 167.988,50.787 166.857,49.154 C 165.122,46.651 163.726,45.999 160.101,46.002 C 155.462,46.005 152.951,48.180 152.228,52.823 C 151.931,54.733 152.698,57.258 154.126,59.062 C 156.185,61.665 160.642,62.737 163.400,61.293 Z M 66.006,275.265 C 65.453,273.973 65.000,272.773 65.000,272.596 C 65.000,272.419 64.417,270.790 63.705,268.974 C 61.864,264.281 58.945,261.860 52.596,259.761 C 49.963,258.890 47.721,257.913 47.613,257.589 C 47.505,257.265 47.686,257.000 48.014,257.000 C 48.343,257.000 50.960,256.065 53.830,254.921 C 60.705,252.183 62.801,250.012 64.740,243.618 C 65.469,241.216 66.156,238.969 66.267,238.625 C 66.711,237.250 67.820,238.131 68.470,240.375 C 69.746,244.782 72.938,250.888 74.574,252.053 C 75.427,252.660 78.515,253.985 81.437,254.998 C 84.716,256.134 86.750,257.101 86.750,257.525 C 86.750,257.943 84.936,258.839 82.118,259.813 C 73.486,262.795 72.250,264.023 69.744,272.108 C 67.979,277.801 67.329,278.350 66.006,275.265 Z M 247.750,275.325 C 241.188,273.632 236.079,269.654 233.483,264.215 C 232.183,261.490 232.001,260.562 232.005,256.679 C 232.011,251.196 233.306,248.029 237.153,244.091 C 242.253,238.869 248.918,237.448 257.250,239.807 C 262.290,241.234 262.194,242.294 256.978,242.818 C 248.584,243.661 242.960,250.284 243.649,258.513 C 243.807,260.389 244.265,262.561 244.669,263.337 C 245.720,265.364 250.298,270.000 251.247,270.000 C 251.688,270.000 252.770,270.378 253.650,270.839 C 254.596,271.335 256.476,271.693 258.250,271.714 C 259.932,271.734 261.226,271.970 261.195,272.250 C 261.165,272.525 259.927,273.367 258.445,274.121 C 255.210,275.767 251.211,276.217 247.750,275.325 Z M 286.250,228.511 C 284.797,228.137 272.790,222.784 269.750,221.156 C 267.130,219.752 266.500,218.947 266.500,217.000 C 266.500,214.853 267.703,213.500 269.612,213.500 C 271.058,213.500 275.420,215.284 284.301,219.505 C 289.855,222.145 290.377,222.512 290.669,223.969 C 290.975,225.502 290.088,227.665 288.762,228.617 C 288.186,229.031 288.283,229.035 286.250,228.511 Z M 30.980,227.480 C 29.222,225.722 28.818,223.980 29.850,222.608 C 30.663,221.528 46.648,213.984 49.803,213.192 C 51.459,212.776 52.773,213.354 53.424,214.783 C 54.573,217.304 54.177,218.329 51.323,220.223 C 49.851,221.200 48.522,222.000 48.369,222.000 C 48.217,222.000 45.878,223.040 43.171,224.311 C 33.065,229.055 32.661,229.161 30.980,227.480 Z M 290.113,180.303 C 288.951,177.991 288.000,175.908 288.000,175.674 C 288.000,174.879 284.660,172.583 280.805,170.728 C 276.908,168.853 276.457,168.189 278.411,167.206 C 279.006,166.906 279.906,166.287 280.411,165.831 C 280.916,165.374 281.826,165.000 282.433,165.000 C 283.921,165.000 287.770,160.972 288.533,158.616 C 288.865,157.590 289.532,155.850 290.015,154.750 C 290.497,153.650 291.029,152.338 291.196,151.833 C 291.722,150.251 292.686,151.211 293.857,154.484 C 295.941,160.305 299.565,163.842 306.226,166.556 C 307.314,166.999 308.284,167.601 308.381,167.893 C 308.478,168.185 306.627,169.330 304.267,170.436 C 301.907,171.542 299.391,172.907 298.676,173.469 C 297.166,174.656 295.161,178.186 293.987,181.722 C 293.535,183.082 292.954,184.265 292.696,184.351 C 292.438,184.437 291.276,182.616 290.113,180.303 Z M 27.165,183.125 C 26.999,182.644 26.249,180.900 25.500,179.250 C 24.751,177.600 24.008,175.873 23.849,175.412 C 23.521,174.461 17.824,170.671 14.625,169.275 C 13.456,168.765 12.500,168.075 12.500,167.741 C 12.500,167.407 13.906,166.623 15.625,165.999 C 20.589,164.197 22.776,161.903 26.403,154.694 C 28.635,150.259 28.547,150.227 30.742,156.278 C 31.954,159.620 34.689,163.409 36.609,164.407 C 37.237,164.733 39.100,165.541 40.750,166.202 C 42.400,166.864 43.812,167.708 43.887,168.077 C 43.971,168.489 42.888,169.189 41.098,169.882 C 36.889,171.512 33.755,173.648 32.748,175.575 C 30.538,179.802 29.000,183.058 29.000,183.508 C 29.000,184.359 27.483,184.042 27.165,183.125 Z M 46.000,118.986 C 43.938,117.930 42.000,117.051 41.695,117.033 C 40.663,116.972 30.732,112.132 30.116,111.390 C 29.781,110.986 29.374,109.994 29.212,109.186 C 28.980,108.024 29.202,107.434 30.277,106.359 C 31.025,105.612 32.055,105.000 32.567,105.000 C 33.638,105.000 40.374,107.967 48.031,111.812 C 53.623,114.621 54.883,115.904 54.307,118.202 C 53.995,119.446 51.717,121.049 50.400,120.953 C 50.042,120.927 48.062,120.041 46.000,118.986 Z M 268.250,120.396 C 265.933,119.068 265.488,116.447 267.249,114.501 C 267.654,114.054 271.083,112.170 274.868,110.317 C 278.653,108.463 282.811,106.400 284.109,105.732 C 286.940,104.275 289.037,104.503 290.554,106.433 C 291.284,107.360 291.494,108.154 291.286,109.194 C 290.864,111.307 290.359,111.743 285.832,113.910 C 269.483,121.733 270.152,121.487 268.250,120.396 Z M 66.252,94.433 C 61.382,92.642 59.102,90.589 56.607,85.750 C 54.902,82.443 54.803,81.989 54.816,77.500 C 54.829,73.133 54.971,72.448 56.580,69.000 C 61.070,59.383 71.022,56.098 82.125,60.568 C 84.196,61.401 83.802,61.828 80.625,62.193 C 74.403,62.908 68.439,67.687 66.866,73.219 C 65.449,78.200 67.059,84.192 70.665,87.359 C 73.255,89.632 77.761,91.648 80.821,91.902 C 82.305,92.025 83.643,92.327 83.795,92.573 C 84.115,93.090 81.363,94.338 77.750,95.313 C 73.993,96.328 70.726,96.077 66.252,94.433 Z M 251.286,95.417 C 251.167,95.050 250.565,93.092 249.947,91.066 C 249.329,89.040 247.980,86.076 246.948,84.481 C 244.991,81.453 243.689,80.612 237.674,78.494 C 233.667,77.084 232.841,76.545 233.488,75.764 C 233.792,75.398 234.651,74.949 235.396,74.767 C 237.791,74.180 245.224,70.892 246.040,70.058 C 246.475,69.614 248.027,66.381 249.489,62.875 C 250.951,59.369 252.344,56.500 252.585,56.500 C 253.070,56.500 253.175,56.734 255.745,63.564 C 256.741,66.212 258.055,68.847 258.664,69.419 C 259.817,70.502 265.787,73.392 269.250,74.544 C 270.350,74.909 271.531,75.414 271.875,75.666 C 272.637,76.222 272.694,77.000 271.973,77.000 C 271.683,77.000 268.734,78.054 265.420,79.343 C 260.998,81.061 259.118,82.057 258.359,83.083 C 257.791,83.852 256.296,87.001 255.038,90.080 C 252.876,95.369 251.775,96.935 251.286,95.417 Z" fill="#000000" fill-rule="evenodd" /></svg>