<svg xmlns="http://www.w3.org/2000/svg" viewBox="0 0 372 386" width="372" height="386"><path d="M 186.012,367.280 C 185.756,366.609 185.095,363.741 184.543,360.905 C 183.990,358.070 183.074,354.000 182.508,351.861 C 181.580,348.355 177.971,331.142 176.981,325.500 C 176.764,324.262 176.111,321.000 175.530,318.250 C 173.907,310.569 172.500,302.919 172.500,301.779 C 172.500,300.761 172.657,300.752 186.625,300.888 C 200.091,301.020 200.757,301.071 200.906,301.983 C 200.992,302.509 200.465,305.710 199.736,309.095 C 199.007,312.480 198.229,316.150 198.006,317.250 C 197.784,318.350 196.651,323.750 195.490,329.250 C 194.328,334.750 193.211,340.262 193.007,341.500 C 192.558,344.230 191.118,351.065 190.461,353.585 C 190.198,354.595 189.529,357.970 188.974,361.085 C 187.781,367.780 187.585,368.500 186.954,368.500 C 186.691,368.500 186.267,367.951 186.012,367.280 Z M 101.110,326.000 C 101.246,325.038 102.053,321.550 102.904,318.250 C 103.755,314.950 105.481,307.863 106.741,302.500 C 109.693,289.934 110.975,284.858 111.273,284.561 C 111.404,284.429 114.153,285.577 117.381,287.112 C 120.609,288.646 125.103,290.655 127.368,291.576 C 129.634,292.497 131.490,293.486 131.493,293.775 C 131.508,294.969 109.079,320.183 103.121,325.670 L 100.863,327.750 L 101.110,326.000 Z M 266.182,321.358 C 262.844,317.904 256.154,310.577 251.315,305.074 C 246.476,299.572 242.288,294.928 242.008,294.755 C 240.657,293.920 242.044,293.002 248.375,290.537 C 252.156,289.064 256.778,287.096 258.646,286.163 C 260.513,285.230 262.232,284.585 262.465,284.729 C 262.699,284.873 262.988,285.724 263.107,286.620 C 263.450,289.187 268.825,311.691 271.264,320.772 C 272.006,323.534 272.531,326.209 272.431,326.716 C 272.294,327.415 270.786,326.122 266.182,321.358 Z M 175.532,288.483 C 172.387,288.237 169.485,287.909 169.082,287.755 C 168.679,287.600 165.739,287.140 162.550,286.732 C 156.562,285.966 156.131,285.885 146.500,283.718 C 141.492,282.591 132.263,279.820 129.250,278.538 C 128.700,278.305 125.662,277.050 122.500,275.750 C 106.899,269.338 84.627,257.077 73.000,248.501 C 67.757,244.634 55.500,234.747 50.889,230.667 C 48.766,228.788 44.750,225.250 41.966,222.806 C 35.032,216.719 13.942,195.397 14.112,194.646 C 14.275,193.927 33.686,173.309 38.750,168.476 C 42.819,164.592 51.063,157.508 56.651,153.093 C 58.796,151.398 61.608,149.106 62.901,147.999 C 69.197,142.607 85.516,131.662 95.750,125.969 C 108.210,119.037 125.639,111.096 133.000,108.998 C 135.062,108.410 137.988,107.502 139.500,106.980 C 141.012,106.458 143.938,105.662 146.000,105.211 C 166.623,100.695 174.725,99.785 191.122,100.139 C 205.463,100.449 211.827,101.305 227.250,104.998 C 233.740,106.552 247.909,111.280 252.750,113.507 C 254.400,114.267 258.272,116.037 261.354,117.441 C 264.436,118.845 267.811,120.484 268.854,121.083 C 269.897,121.683 273.504,123.707 276.870,125.581 C 285.895,130.605 302.202,141.521 313.250,149.932 C 318.800,154.158 331.066,164.593 336.680,169.864 C 344.702,177.397 359.450,193.096 359.477,194.133 C 359.512,195.472 337.529,217.895 328.913,225.309 C 327.353,226.651 323.303,230.142 319.913,233.066 C 314.396,237.825 310.573,240.805 299.144,249.250 C 294.597,252.610 280.514,261.435 274.287,264.826 C 259.011,273.146 238.705,281.401 227.000,284.049 C 217.824,286.125 216.463,286.372 208.000,287.501 C 199.060,288.694 184.045,289.148 175.532,288.483 Z M 141.958,253.625 C 141.935,253.419 140.138,251.722 137.966,249.854 C 131.315,244.138 124.350,235.180 121.403,228.553 C 120.595,226.736 119.526,224.350 119.027,223.250 C 117.060,218.918 115.002,211.492 113.968,205.000 C 111.942,192.283 113.567,178.188 118.464,166.000 C 120.911,159.909 121.909,158.092 126.626,151.126 C 130.886,144.834 133.650,141.721 138.188,138.100 C 140.110,136.566 141.422,135.224 141.102,135.117 C 140.224,134.825 127.573,140.038 120.500,143.608 C 110.568,148.620 104.636,152.258 87.730,163.705 C 77.877,170.377 53.000,192.519 53.000,194.616 C 53.000,195.688 67.021,208.785 77.807,217.789 C 84.147,223.081 102.199,236.000 103.254,236.000 C 103.399,236.000 105.000,236.900 106.810,238.000 C 108.621,239.100 110.184,240.000 110.283,240.000 C 110.383,240.000 112.174,241.038 114.264,242.306 C 118.314,244.766 130.473,250.500 131.636,250.500 C 132.020,250.500 132.501,250.669 132.705,250.875 C 132.910,251.081 134.579,251.847 136.414,252.577 C 139.742,253.902 142.038,254.335 141.958,253.625 Z M 237.295,252.303 C 245.649,249.192 253.728,245.809 256.000,244.471 C 257.238,243.742 260.163,242.071 262.500,240.757 C 267.184,238.125 276.848,231.917 280.750,229.032 C 292.574,220.294 297.953,216.078 302.485,212.000 C 305.387,209.387 309.110,206.132 310.756,204.765 C 315.765,200.609 321.000,195.378 321.000,194.530 C 321.000,193.759 316.682,189.335 308.250,181.467 C 299.849,173.627 278.547,157.917 268.304,152.006 C 267.449,151.513 264.725,149.925 262.250,148.477 C 253.403,143.300 233.418,134.403 232.576,135.266 C 232.397,135.449 234.205,137.433 236.595,139.675 C 246.439,148.908 251.613,156.707 255.745,168.538 C 257.601,173.850 257.911,175.076 259.259,182.437 C 260.173,187.421 260.309,199.155 259.516,204.500 C 258.858,208.937 257.293,215.563 255.915,219.750 C 254.435,224.248 249.713,233.606 247.277,236.870 C 243.763,241.578 236.937,249.048 234.162,251.222 C 229.912,254.553 230.608,254.793 237.295,252.303 Z M 192.616,242.433 C 204.019,240.653 215.696,234.773 222.005,227.636 C 228.416,220.382 231.449,214.511 234.343,203.757 C 235.482,199.522 235.494,189.371 234.365,184.661 C 232.564,177.150 229.163,169.293 225.730,164.713 C 215.274,150.768 198.367,143.387 181.674,145.482 C 171.240,146.791 162.986,150.561 154.500,157.892 C 149.944,161.828 148.808,163.162 145.850,168.048 C 141.707,174.893 138.745,183.917 138.162,191.472 C 137.470,200.447 140.678,211.939 146.300,220.631 C 151.394,228.504 162.197,237.184 169.750,239.470 C 170.850,239.803 172.425,240.406 173.250,240.811 C 176.962,242.630 186.325,243.415 192.616,242.433 Z M 324.929,276.842 C 310.121,267.958 303.859,264.277 302.896,263.891 C 302.403,263.694 302.002,263.356 302.004,263.141 C 302.006,262.926 303.525,261.575 305.379,260.138 C 307.233,258.702 311.082,255.721 313.931,253.513 C 316.781,251.306 319.314,249.500 319.561,249.500 C 319.807,249.500 320.935,251.469 322.066,253.875 C 323.198,256.281 326.683,263.515 329.812,269.951 C 332.940,276.386 335.500,281.842 335.500,282.076 C 335.500,283.013 333.866,282.204 324.929,276.842 Z M 38.000,281.685 C 38.000,281.079 53.934,249.500 54.239,249.500 C 54.336,249.500 57.263,251.748 60.746,254.497 C 64.228,257.245 68.055,260.196 69.251,261.054 C 71.608,262.747 71.681,263.481 69.598,264.555 C 68.857,264.937 67.350,265.838 66.250,266.556 C 63.160,268.574 39.016,282.000 38.477,282.000 C 38.215,282.000 38.000,281.858 38.000,281.685 Z M 52.318,136.403 C 51.348,134.669 49.959,131.900 49.231,130.250 C 47.687,126.748 41.029,113.423 38.939,109.652 C 38.148,108.223 37.500,106.929 37.500,106.777 C 37.500,106.132 38.745,106.655 43.607,109.341 C 46.436,110.903 49.875,112.784 51.250,113.521 C 53.609,114.785 55.739,116.015 66.868,122.542 C 69.408,124.031 71.490,125.386 71.493,125.551 C 71.497,125.717 70.094,126.945 68.375,128.281 C 66.656,129.616 62.927,132.631 60.088,134.979 C 57.248,137.328 54.735,139.319 54.503,139.403 C 54.271,139.488 53.287,138.138 52.318,136.403 Z M 313.750,135.422 C 311.000,133.183 307.119,130.120 305.125,128.615 C 303.131,127.110 301.500,125.694 301.500,125.468 C 301.500,125.241 303.806,123.778 306.625,122.215 C 309.444,120.652 313.325,118.420 315.250,117.255 C 317.175,116.089 322.025,113.334 326.028,111.133 C 330.031,108.931 333.790,106.827 334.381,106.459 C 334.971,106.090 335.624,105.957 335.831,106.164 C 336.238,106.571 319.921,139.112 319.191,139.349 C 318.949,139.428 316.500,137.660 313.750,135.422 Z M 111.281,103.551 C 110.924,102.972 107.666,90.924 106.975,87.624 C 106.730,86.454 105.533,81.504 104.314,76.624 C 101.760,66.394 100.755,61.578 101.102,61.231 C 101.559,60.774 114.989,75.177 130.843,93.126 C 131.754,94.158 132.500,95.184 132.500,95.406 C 132.500,95.628 129.631,96.898 126.125,98.229 C 120.875,100.221 115.407,102.413 112.176,103.818 C 111.860,103.956 111.457,103.835 111.281,103.551 Z M 260.000,103.529 C 258.821,102.881 252.055,100.145 248.750,98.981 C 242.393,96.741 240.456,95.850 240.601,95.232 C 240.739,94.646 248.695,85.656 254.906,79.067 C 256.367,77.518 259.404,74.238 261.656,71.778 C 269.800,62.883 271.671,61.000 272.363,61.000 C 272.797,61.000 272.970,61.336 272.813,61.875 C 272.496,62.967 268.702,78.611 267.690,83.000 C 267.278,84.787 266.410,88.388 265.763,91.000 C 265.115,93.612 264.180,97.606 263.686,99.875 C 262.913,103.418 262.642,103.996 261.768,103.971 C 261.208,103.954 260.413,103.756 260.000,103.529 Z M 172.910,87.945 C 172.618,87.764 172.556,86.643 172.756,85.195 C 173.187,82.077 175.691,69.115 176.995,63.250 C 177.545,60.775 178.658,55.600 179.469,51.750 C 180.280,47.900 181.624,41.600 182.456,37.750 C 183.288,33.900 184.383,28.739 184.889,26.282 C 186.428,18.812 186.958,19.620 189.794,33.750 C 191.740,43.448 192.771,48.417 194.462,56.250 C 195.056,59.000 195.988,63.491 196.534,66.229 C 197.080,68.967 197.846,72.455 198.236,73.979 C 199.277,78.044 201.113,87.553 200.899,87.768 C 200.575,88.092 173.423,88.263 172.910,87.945 Z M 182.250,226.479 C 174.242,225.425 165.150,219.823 160.780,213.250 C 156.263,206.454 155.000,202.302 155.000,194.240 C 155.000,189.461 155.210,188.040 156.543,183.774 C 159.141,175.462 163.359,170.192 170.917,165.816 C 175.958,162.897 179.409,161.947 185.201,161.882 C 190.218,161.826 195.027,162.830 195.810,164.097 C 195.987,164.384 195.144,165.463 193.937,166.495 C 191.498,168.579 189.531,172.063 189.138,174.992 C 188.865,177.027 189.704,181.398 190.775,183.518 C 191.942,185.829 195.326,188.961 197.805,190.025 C 200.628,191.236 205.359,191.446 208.323,190.491 C 210.753,189.708 214.088,187.035 215.514,184.727 C 216.117,183.751 216.861,183.037 217.166,183.139 C 218.230,183.493 219.517,191.450 219.206,195.750 C 218.689,202.899 217.396,206.813 213.654,212.557 C 208.862,219.911 201.846,224.419 192.250,226.309 C 188.457,227.057 186.850,227.084 182.250,226.479 Z" fill="#000000" fill-rule="evenodd" /></svg>