<svg xmlns="http://www.w3.org/2000/svg" viewBox="0 0 532 491" width="532" height="491"><path d="M 399.000,476.453 C 396.061,475.987 390.537,473.447 389.182,471.939 C 387.538,470.107 387.345,468.832 388.491,467.375 C 389.845,465.654 389.775,465.317 387.875,464.405 C 385.083,463.066 380.215,459.119 379.546,457.652 L 378.907,456.250 L 377.809,457.625 C 376.900,458.765 376.321,459.000 374.424,459.000 C 371.938,459.000 370.488,458.153 367.623,455.026 C 364.616,451.743 362.764,445.810 364.015,443.471 C 364.486,442.593 364.880,442.460 366.254,442.718 C 367.171,442.890 368.048,442.827 368.202,442.577 C 368.356,442.328 367.945,440.544 367.289,438.614 C 366.632,436.684 365.813,433.843 365.468,432.302 C 365.123,430.761 364.629,429.500 364.371,429.500 C 364.113,429.500 363.136,429.863 362.201,430.307 C 360.635,431.050 360.365,431.050 358.793,430.304 C 356.084,429.018 354.929,426.043 354.622,419.555 C 354.409,415.064 354.514,413.871 355.263,412.294 C 356.371,409.958 357.989,409.107 359.774,409.920 C 360.474,410.239 361.230,410.500 361.453,410.500 C 361.808,410.500 362.299,407.435 363.313,398.875 C 363.602,396.431 362.961,395.739 361.637,397.063 C 361.319,397.381 360.513,397.486 359.790,397.305 C 356.869,396.572 356.022,389.281 358.047,382.311 C 359.338,377.867 360.426,376.855 363.654,377.095 L 365.750,377.250 L 366.071,374.250 C 366.247,372.600 366.416,369.754 366.446,367.925 L 366.500,364.600 L 363.970,363.691 C 362.579,363.191 361.257,362.549 361.032,362.266 C 359.825,360.741 356.961,352.278 356.862,349.938 C 356.758,347.517 356.845,347.295 358.000,347.014 C 358.851,346.808 359.297,346.316 359.397,345.476 C 359.513,344.493 358.812,343.588 355.949,341.025 C 350.183,335.862 348.000,334.675 348.000,336.702 C 348.000,337.056 347.556,337.747 347.014,338.237 C 346.238,338.939 345.517,339.067 343.639,338.836 C 338.261,338.175 337.065,337.701 332.193,334.295 C 331.612,333.889 330.992,332.835 330.816,331.954 L 330.496,330.353 L 325.824,330.681 C 317.798,331.245 308.638,334.258 302.242,338.438 C 301.137,339.159 299.878,339.975 299.443,340.250 C 295.999,342.427 293.517,344.344 293.509,344.831 C 293.499,345.448 296.249,344.932 302.250,343.190 C 305.211,342.331 313.500,341.631 313.500,342.240 C 313.500,342.546 310.190,346.491 304.538,352.921 C 300.431,357.593 292.189,363.608 285.211,367.025 C 283.167,368.026 280.751,368.697 277.836,369.074 C 275.451,369.381 273.500,369.792 273.500,369.986 C 273.500,371.555 281.161,372.434 286.842,371.517 C 295.548,370.113 304.162,366.509 310.500,361.618 C 316.141,357.266 318.092,355.461 321.805,351.161 C 323.899,348.735 326.252,346.010 327.032,345.105 C 328.392,343.527 328.561,343.472 331.100,343.772 C 332.558,343.943 335.962,344.752 338.666,345.569 C 342.627,346.766 344.010,347.450 345.790,349.090 C 348.758,351.826 350.647,355.351 352.005,360.686 C 353.319,365.845 353.204,371.677 351.733,374.548 C 350.253,377.437 344.154,386.169 342.535,387.719 C 341.691,388.526 341.000,389.393 341.000,389.645 C 341.000,389.897 339.014,392.202 336.586,394.768 C 330.009,401.717 319.299,410.483 312.750,414.277 C 311.375,415.073 309.575,416.118 308.750,416.598 C 307.139,417.536 302.350,419.896 299.500,421.158 C 296.123,422.653 286.726,425.570 284.375,425.853 C 281.364,426.216 281.332,426.839 284.301,427.284 C 287.572,427.774 301.774,427.239 304.750,426.513 C 314.013,424.253 326.647,418.808 332.689,414.471 C 334.007,413.524 335.803,412.300 336.679,411.750 C 339.007,410.289 343.473,406.903 346.292,404.463 C 349.148,401.991 349.436,402.336 348.232,406.780 C 347.789,408.414 347.298,412.194 347.140,415.181 C 346.853,420.606 346.851,420.614 345.042,422.431 C 342.841,424.641 335.762,430.153 332.000,432.587 C 328.011,435.168 323.022,438.000 322.466,438.000 C 322.201,438.000 320.807,438.654 319.367,439.454 C 314.753,442.018 302.032,445.965 294.104,447.293 C 290.856,447.837 286.354,448.099 280.500,448.084 C 271.266,448.060 267.995,447.645 257.868,445.213 C 257.107,445.030 256.363,444.682 256.213,444.440 C 256.063,444.198 255.565,444.000 255.105,444.000 C 251.930,444.000 236.745,435.941 227.047,429.109 C 221.654,425.310 211.498,415.154 204.687,406.750 C 201.786,403.171 196.379,395.504 195.515,393.746 C 195.111,392.923 194.155,391.309 193.390,390.160 C 192.626,389.010 192.000,387.939 192.000,387.779 C 192.000,387.408 190.094,383.062 189.355,381.750 C 189.046,381.200 187.719,378.725 186.406,376.250 C 185.094,373.775 183.535,370.856 182.943,369.764 C 181.987,368.000 181.898,367.255 182.145,363.112 C 182.391,358.992 182.647,358.002 184.337,354.661 C 187.620,348.168 191.945,345.327 196.534,346.649 C 198.378,347.181 198.777,347.516 198.908,348.645 C 199.002,349.448 198.625,350.622 197.985,351.520 C 196.569,353.509 196.582,357.073 198.017,360.319 C 199.905,364.590 203.627,371.629 205.555,374.576 C 206.212,375.580 207.371,377.493 208.131,378.826 C 210.780,383.477 214.381,388.084 220.236,394.313 C 222.153,396.352 223.908,398.354 224.136,398.761 C 224.363,399.167 224.764,399.500 225.025,399.500 C 225.714,399.500 225.607,398.454 224.824,397.539 C 224.453,397.105 223.610,395.738 222.952,394.500 C 222.294,393.262 220.913,391.265 219.883,390.061 C 218.853,388.856 217.424,386.672 216.707,385.207 C 215.990,383.741 215.064,382.260 214.649,381.916 C 214.234,381.572 213.348,380.156 212.680,378.770 C 212.013,377.384 210.688,374.788 209.737,373.000 C 208.786,371.212 208.006,369.604 208.004,369.425 C 208.002,369.247 206.775,366.547 205.277,363.425 C 201.604,355.771 201.581,355.628 203.594,353.118 C 204.505,351.981 205.505,351.040 205.817,351.026 C 206.130,351.012 207.076,352.350 207.920,354.000 C 210.994,360.005 213.735,364.287 218.772,370.950 C 232.155,388.653 245.726,398.672 261.079,402.182 C 265.731,403.245 274.133,403.661 278.830,403.061 C 287.953,401.895 302.642,395.569 306.702,391.058 C 307.226,390.476 307.917,390.000 308.237,390.000 C 309.292,390.000 317.226,381.348 321.148,375.919 C 323.267,372.987 325.000,370.456 325.000,370.294 C 325.000,369.481 323.769,370.304 320.383,373.379 C 318.337,375.237 315.670,377.488 314.457,378.381 C 301.051,388.241 291.749,391.915 279.738,392.093 C 262.924,392.342 249.502,386.312 237.223,372.991 C 231.477,366.758 226.971,360.586 223.541,354.250 C 222.648,352.600 221.711,351.036 221.459,350.775 C 221.206,350.514 221.000,349.929 221.000,349.475 C 221.000,349.021 220.368,347.773 219.595,346.700 C 218.823,345.628 218.041,344.353 217.859,343.868 C 217.090,341.830 222.359,338.390 230.250,335.778 C 239.190,332.818 243.421,331.546 246.750,330.818 C 248.675,330.397 251.545,329.764 253.128,329.412 C 254.712,329.059 255.934,328.551 255.844,328.282 C 255.556,327.417 246.689,324.121 243.163,323.568 C 237.935,322.747 231.343,322.354 229.119,322.730 C 227.229,323.049 227.098,323.186 226.787,325.159 C 226.192,328.935 224.642,331.351 221.326,333.677 C 216.163,337.297 212.474,338.184 209.702,336.470 C 206.678,334.602 205.658,332.000 207.949,332.000 C 208.766,332.000 210.000,330.160 210.000,328.943 C 210.000,327.652 201.323,331.982 196.513,335.672 C 191.964,339.162 182.408,348.432 179.161,352.503 C 177.738,354.289 173.262,359.913 169.215,365.000 C 165.168,370.087 161.090,375.150 160.152,376.250 C 159.215,377.350 156.356,380.725 153.799,383.750 C 151.243,386.775 146.695,391.387 143.694,394.000 C 138.326,398.673 137.684,399.170 134.812,400.889 C 134.021,401.363 132.784,402.212 132.062,402.777 C 130.259,404.188 122.097,409.000 121.506,409.000 C 121.243,409.000 120.064,409.419 118.888,409.932 C 115.830,411.265 112.528,412.344 106.250,414.065 C 101.564,415.349 99.544,415.615 92.597,415.861 C 84.737,416.139 80.782,415.813 75.250,414.430 C 71.694,413.541 66.800,411.911 64.781,410.944 C 63.698,410.425 62.573,409.996 62.281,409.992 C 61.559,409.980 55.341,406.207 51.997,403.750 C 48.236,400.988 41.403,393.965 38.666,390.051 C 35.375,385.343 32.143,377.732 30.789,371.500 C 29.194,364.162 28.949,360.009 29.726,353.468 C 31.257,340.572 35.055,331.693 42.419,323.794 C 49.388,316.318 55.710,313.194 58.232,315.980 C 59.569,317.458 58.551,320.613 55.000,326.000 C 52.536,329.738 50.677,333.830 49.097,339.000 C 46.919,346.121 46.432,352.094 47.523,358.283 C 48.174,361.979 50.732,368.599 52.532,371.250 C 55.695,375.907 61.470,380.892 67.500,384.172 C 75.916,388.749 86.948,389.342 96.000,385.702 C 107.065,381.252 115.717,375.088 123.302,366.250 C 128.077,360.686 135.922,348.845 142.515,337.250 C 148.288,327.098 154.676,316.883 157.481,313.321 C 158.316,312.260 159.000,311.173 159.000,310.906 C 159.000,310.069 167.615,300.490 173.307,294.997 C 178.440,290.044 183.373,286.016 187.080,283.750 C 187.980,283.200 189.287,282.396 189.983,281.964 C 197.899,277.054 209.725,272.712 221.000,270.577 C 228.197,269.215 241.772,269.515 249.216,271.201 C 252.933,272.043 253.747,271.923 252.213,270.758 C 249.253,268.511 241.464,265.540 235.795,264.496 C 231.258,263.660 215.180,263.632 211.250,264.453 C 204.294,265.906 198.834,267.453 196.882,268.524 C 196.404,268.786 195.729,269.000 195.380,269.000 C 195.032,269.000 191.598,270.575 187.750,272.500 C 183.902,274.425 180.584,276.000 180.377,276.000 C 179.360,276.000 180.590,251.558 182.020,243.344 C 182.626,239.868 183.195,239.144 186.500,237.648 C 191.659,235.313 199.507,235.411 209.500,237.934 C 213.574,238.962 225.585,244.324 231.186,247.615 C 236.336,250.640 234.553,247.545 226.505,239.487 C 222.937,235.914 219.391,232.827 218.250,232.300 C 217.150,231.792 215.800,230.972 215.250,230.480 C 213.261,228.697 203.893,225.826 196.500,224.734 C 190.885,223.904 171.739,223.777 161.166,224.499 C 154.175,224.976 140.050,224.238 133.250,223.041 C 126.711,221.889 124.937,221.470 120.750,220.091 C 107.424,215.701 96.830,208.693 88.110,198.500 C 80.351,189.430 75.452,177.477 73.970,164.000 C 73.203,157.020 74.121,144.213 75.835,138.000 C 76.914,134.090 79.893,125.113 80.897,122.750 C 82.427,119.145 88.554,107.658 90.578,104.600 C 91.360,103.417 92.000,102.334 92.000,102.191 C 92.000,102.049 93.382,99.079 95.071,95.591 C 98.284,88.958 98.303,88.915 99.893,84.500 C 102.029,78.567 102.250,77.276 102.205,71.000 L 102.159,64.750 L 100.024,60.750 C 96.343,53.856 89.795,48.436 82.750,46.454 C 79.488,45.536 69.377,45.521 67.000,46.431 C 60.083,49.079 54.655,53.266 49.608,59.846 C 48.723,60.998 48.000,62.076 48.000,62.240 C 48.000,62.935 44.579,67.544 43.340,68.518 C 41.759,69.762 39.300,69.495 38.496,67.992 C 36.347,63.976 40.564,51.297 46.623,43.558 C 53.039,35.364 58.931,31.380 69.750,27.923 C 72.697,26.981 74.356,26.806 80.250,26.817 C 84.100,26.824 88.037,27.077 89.000,27.381 C 89.963,27.684 91.763,28.224 93.000,28.580 C 97.751,29.947 104.543,33.772 109.250,37.730 C 117.562,44.720 123.451,53.711 125.481,62.511 C 125.828,64.017 126.329,65.803 126.592,66.478 C 127.103,67.785 127.229,85.725 126.733,86.528 C 126.571,86.789 126.244,88.071 126.006,89.376 C 125.035,94.693 119.851,109.638 118.426,111.225 C 118.192,111.486 118.000,111.995 118.000,112.355 C 118.000,112.716 117.550,114.021 117.000,115.255 C 116.450,116.490 115.550,118.510 115.000,119.745 C 114.450,120.979 114.000,122.284 114.000,122.645 C 114.000,123.005 113.811,123.514 113.579,123.775 C 113.348,124.036 112.658,125.938 112.047,128.000 C 111.436,130.062 110.742,132.200 110.506,132.750 C 110.269,133.300 109.958,134.312 109.814,135.000 C 109.671,135.688 109.100,138.275 108.546,140.750 C 107.136,147.051 107.225,151.728 108.907,159.750 C 110.102,165.450 113.761,171.162 118.581,174.855 C 123.163,178.366 127.061,180.039 134.250,181.578 C 140.157,182.844 153.382,182.345 163.000,180.493 C 164.238,180.255 166.825,179.801 168.750,179.485 C 170.675,179.169 173.150,178.714 174.250,178.473 C 175.350,178.233 180.300,177.308 185.250,176.418 C 193.784,174.883 194.897,174.798 206.750,174.777 C 217.920,174.757 219.829,174.877 224.695,175.902 C 230.998,177.229 238.869,179.662 241.327,181.043 C 242.264,181.569 243.426,182.000 243.909,182.000 C 244.393,182.000 245.567,182.409 246.519,182.908 C 252.315,185.949 256.312,188.158 256.725,188.550 C 257.335,189.128 258.500,189.133 258.500,188.557 C 258.500,188.314 256.585,185.968 254.245,183.344 C 250.838,179.526 248.968,177.937 244.870,175.383 C 238.979,171.712 237.611,171.037 232.487,169.273 C 227.231,167.464 226.247,167.177 221.875,166.180 C 219.744,165.694 218.002,165.061 218.005,164.773 C 218.015,163.836 226.424,154.595 230.194,151.377 C 232.511,149.401 235.791,147.296 239.060,145.689 C 244.960,142.788 246.161,142.322 250.000,141.445 C 251.512,141.100 252.946,140.651 253.185,140.448 C 254.714,139.153 238.935,139.370 234.126,140.711 C 231.621,141.410 225.806,143.783 224.750,144.538 C 224.475,144.735 223.125,145.512 221.750,146.266 C 216.178,149.321 204.698,159.800 202.649,163.702 C 202.104,164.741 201.478,164.905 195.899,165.470 C 190.270,166.041 179.147,167.823 174.250,168.939 C 167.890,170.388 161.972,171.604 160.043,171.858 C 158.022,172.124 157.868,172.069 158.215,171.199 C 158.424,170.677 159.338,168.225 160.245,165.750 C 162.836,158.686 163.112,158.035 165.541,153.257 C 168.232,147.964 173.318,139.091 174.308,137.961 C 174.689,137.526 175.000,137.012 175.000,136.816 C 175.000,136.134 180.980,127.577 185.049,122.436 C 190.038,116.133 196.462,109.684 201.500,105.922 C 211.912,98.145 222.190,92.226 230.000,89.508 C 230.963,89.173 232.200,88.705 232.750,88.467 C 233.757,88.031 238.435,86.607 242.375,85.537 C 246.083,84.530 244.776,84.000 238.581,84.000 C 225.691,84.000 213.301,87.115 201.483,93.326 C 196.305,96.048 194.155,97.482 185.643,103.894 C 181.363,107.118 172.238,115.929 168.446,120.500 C 166.963,122.287 165.631,123.862 165.486,124.000 C 164.997,124.463 158.264,133.180 156.623,135.475 C 149.419,145.550 145.862,151.296 141.518,159.875 C 138.813,165.218 137.500,167.079 137.500,165.569 C 137.500,164.903 140.513,155.467 141.354,153.500 C 142.328,151.220 142.659,150.395 144.162,146.500 C 147.466,137.933 155.653,122.880 162.284,113.178 C 173.879,96.214 188.517,82.438 202.750,75.097 C 207.583,72.604 213.341,70.000 214.019,70.000 C 214.291,70.000 214.904,69.786 215.382,69.524 C 216.487,68.917 221.572,67.275 224.500,66.579 C 231.951,64.807 233.705,64.438 237.048,63.938 C 241.954,63.203 254.233,62.925 256.750,63.491 C 257.850,63.738 260.438,64.309 262.500,64.759 C 279.893,68.555 294.882,76.343 309.390,89.123 C 315.054,94.112 324.681,104.798 329.324,111.250 C 333.651,117.262 334.773,119.075 337.992,125.250 C 339.712,128.550 341.315,131.494 341.553,131.793 C 341.792,132.092 342.334,133.320 342.758,134.522 C 343.182,135.724 344.197,137.749 345.014,139.022 C 345.831,140.296 346.500,141.930 346.500,142.655 C 346.500,143.833 346.196,144.056 343.625,144.767 C 342.044,145.204 338.391,146.239 335.508,147.066 L 330.267,148.571 L 329.396,147.496 C 328.917,146.904 328.308,145.636 328.044,144.678 C 327.210,141.656 322.095,133.875 315.000,124.834 C 313.210,122.553 308.061,117.500 307.527,117.500 C 307.278,117.500 308.352,119.635 309.912,122.244 C 313.535,128.301 315.778,132.363 319.369,139.375 C 321.296,143.138 322.526,144.999 323.083,145.000 C 323.542,145.000 324.017,144.719 324.140,144.375 C 324.263,144.031 324.525,143.900 324.723,144.083 C 324.921,144.267 324.590,144.910 323.987,145.513 C 323.096,146.404 322.947,146.969 323.195,148.517 C 323.448,150.100 323.280,150.685 322.205,151.962 C 321.494,152.808 320.599,153.500 320.218,153.500 C 319.406,153.500 316.712,150.657 315.619,148.647 C 315.201,147.879 314.497,146.571 314.055,145.741 C 313.211,144.160 308.042,136.431 307.539,136.000 C 307.379,135.863 305.577,133.763 303.535,131.334 C 298.040,124.799 288.213,116.848 280.750,112.898 C 277.997,111.442 272.396,109.523 267.750,108.446 C 265.737,107.979 261.788,107.762 255.750,107.786 C 246.287,107.824 244.352,108.155 236.500,111.076 C 227.852,114.294 219.953,119.534 213.152,126.564 C 209.650,130.184 203.004,138.591 203.002,139.405 C 203.001,139.765 204.939,138.462 207.309,136.508 C 211.714,132.878 215.896,129.890 219.164,128.040 C 220.174,127.468 221.757,126.571 222.681,126.047 C 225.700,124.336 226.216,124.092 229.000,123.062 C 231.634,122.086 236.549,120.720 241.632,119.549 C 244.985,118.777 254.714,118.866 259.125,119.710 C 267.125,121.241 274.915,124.682 282.135,129.875 C 287.859,133.991 296.605,143.323 301.186,150.202 C 303.284,153.352 305.000,156.079 305.000,156.262 C 305.000,156.446 305.489,157.283 306.087,158.123 L 307.175,159.649 L 305.655,160.950 C 292.864,171.895 287.869,177.466 283.006,186.206 C 279.343,192.790 276.034,201.043 274.971,206.250 C 273.802,211.981 273.050,216.634 272.750,220.000 C 272.567,222.062 272.320,224.594 272.202,225.625 C 271.730,229.761 273.325,226.813 274.163,222.000 C 274.440,220.410 275.842,216.470 277.277,213.250 C 277.889,211.875 279.022,209.287 279.794,207.500 C 280.567,205.713 281.999,202.900 282.977,201.250 C 283.956,199.600 285.317,197.173 286.003,195.856 C 288.084,191.861 294.248,184.516 299.645,179.600 C 305.095,174.636 313.524,168.124 317.392,165.887 C 323.479,162.367 335.246,157.033 339.250,155.978 C 340.075,155.760 343.113,154.867 346.000,153.993 C 348.887,153.118 352.262,152.210 353.500,151.973 C 357.475,151.215 361.136,150.572 366.000,149.777 C 368.613,149.350 371.762,148.786 373.000,148.524 C 374.238,148.262 376.600,147.806 378.250,147.510 C 384.420,146.403 397.954,142.441 402.450,140.426 C 403.715,139.858 405.538,139.041 406.500,138.608 C 409.927,137.068 415.602,132.785 418.913,129.240 C 422.068,125.862 426.140,119.637 427.412,116.250 C 429.058,111.866 429.438,102.738 428.192,97.500 C 427.767,95.713 427.307,93.463 427.170,92.500 C 426.934,90.831 425.959,87.933 423.975,83.000 C 422.384,79.045 419.117,69.793 418.854,68.500 C 418.714,67.812 418.206,65.900 417.724,64.250 C 417.058,61.964 416.849,59.406 416.849,53.500 C 416.849,45.958 416.982,45.002 418.900,38.745 C 420.789,32.584 427.492,23.987 433.546,19.964 C 436.499,18.001 442.562,15.504 446.250,14.733 C 450.351,13.874 457.645,14.090 460.750,15.162 C 463.463,16.098 467.872,19.085 468.339,20.302 C 468.508,20.743 468.067,21.648 467.282,22.467 C 466.062,23.740 465.402,23.935 460.372,24.515 C 451.951,25.485 447.839,27.287 443.118,32.079 C 440.360,34.878 438.164,38.544 437.475,41.500 C 437.250,42.462 436.832,44.150 436.545,45.250 C 435.778,48.192 435.883,50.458 437.006,55.277 C 438.025,59.647 440.187,64.694 442.992,69.250 C 443.838,70.625 445.225,73.213 446.075,75.000 C 446.924,76.787 448.013,78.700 448.494,79.250 C 448.975,79.800 449.521,80.894 449.708,81.680 C 449.894,82.467 450.467,84.042 450.982,85.180 C 454.429,92.813 455.897,99.303 456.804,110.916 C 457.383,118.324 454.439,130.506 450.139,138.500 C 443.177,151.441 433.185,161.605 420.325,168.824 C 417.499,170.411 407.098,175.511 404.750,176.461 C 402.328,177.442 400.688,178.148 399.882,178.558 C 399.404,178.801 398.775,179.000 398.483,179.000 C 398.191,179.000 397.020,179.450 395.882,180.000 C 394.744,180.550 393.627,181.000 393.401,181.000 C 393.174,181.000 392.035,181.435 390.870,181.966 C 389.704,182.497 387.738,183.263 386.500,183.669 C 383.768,184.563 380.109,185.927 378.750,186.556 C 378.200,186.811 376.346,187.521 374.631,188.135 C 372.915,188.748 371.495,189.472 371.475,189.743 C 371.455,190.014 372.184,190.419 373.094,190.643 C 375.311,191.188 376.994,193.288 376.998,195.513 C 377.000,197.038 376.712,197.464 374.875,198.664 C 370.550,201.488 366.659,203.036 363.799,203.070 C 361.426,203.098 360.797,202.884 358.989,201.431 C 357.160,199.961 356.939,199.567 357.165,198.174 C 357.307,197.302 357.302,196.469 357.156,196.322 C 356.828,195.995 345.000,203.864 345.000,204.410 C 345.000,205.092 346.169,206.000 347.047,206.000 C 349.146,206.000 348.986,209.914 346.749,213.284 C 344.806,216.211 338.689,221.991 337.507,222.016 C 337.091,222.025 336.313,222.362 335.779,222.766 C 334.421,223.794 333.500,223.680 333.500,222.484 C 333.500,220.907 332.018,220.653 330.950,222.047 C 329.582,223.831 327.629,228.961 326.740,233.101 C 325.785,237.550 325.101,253.500 325.865,253.500 C 326.363,253.500 329.000,248.622 329.000,247.702 C 329.000,247.455 330.164,244.944 331.588,242.123 C 333.944,237.452 334.700,236.479 340.046,231.247 C 343.274,228.086 346.250,225.500 346.658,225.500 C 347.254,225.500 347.467,226.700 347.746,231.625 C 348.410,243.343 347.494,268.079 346.251,271.998 C 346.050,272.630 344.596,272.750 337.131,272.750 C 322.191,272.750 312.745,275.435 299.532,283.436 C 295.380,285.951 295.509,286.587 299.862,285.063 C 308.776,281.943 316.627,280.853 330.500,280.810 C 339.868,280.781 343.010,280.947 346.000,281.626 C 350.174,282.574 355.466,284.085 357.742,284.979 C 359.196,285.549 359.812,285.819 364.500,287.933 C 365.738,288.491 367.875,289.601 369.250,290.401 C 370.625,291.200 372.695,292.393 373.849,293.052 C 377.663,295.229 387.236,302.953 389.974,306.063 C 393.281,309.820 396.552,314.153 397.896,316.556 C 398.451,317.550 399.145,318.788 399.438,319.306 C 401.731,323.376 405.023,331.727 406.019,336.000 C 406.244,336.962 406.810,339.325 407.279,341.250 C 407.930,343.927 408.144,347.220 408.187,355.250 C 408.249,366.761 407.480,372.442 404.496,382.500 C 403.721,385.113 402.971,387.700 402.829,388.250 C 402.686,388.800 401.575,392.175 400.359,395.750 C 396.752,406.358 395.775,411.243 395.762,418.750 C 395.749,425.592 396.109,427.188 399.252,434.250 C 402.018,440.466 408.715,446.091 415.000,447.479 C 419.621,448.499 424.709,448.073 428.500,446.349 C 436.777,442.585 442.412,433.396 443.281,422.250 C 443.575,418.481 443.020,410.380 442.019,403.822 C 441.773,402.212 441.689,400.589 441.832,400.216 C 442.657,398.066 446.475,399.516 450.047,403.335 C 453.877,407.429 455.529,411.004 457.518,419.500 C 458.353,423.067 458.348,434.463 457.510,438.000 C 455.169,447.879 451.789,454.274 445.840,460.077 C 439.286,466.470 431.138,470.626 423.414,471.514 C 417.698,472.171 410.269,472.121 407.894,471.409 C 405.657,470.739 405.021,471.214 405.008,473.564 C 404.995,475.752 402.413,476.993 399.000,476.453 Z M 265.250,473.007 C 261.225,472.606 256.951,471.903 253.250,471.034 C 250.061,470.285 244.795,468.764 244.250,468.434 C 243.975,468.268 242.850,467.848 241.750,467.501 C 239.363,466.749 231.965,463.241 227.675,460.828 C 211.731,451.858 193.681,434.875 182.595,418.412 C 180.618,415.476 179.000,412.947 179.000,412.793 C 179.000,412.638 177.704,410.315 176.121,407.631 C 172.004,400.653 171.846,400.232 172.739,398.601 C 173.145,397.858 174.511,396.125 175.773,394.750 C 177.035,393.375 179.207,390.394 180.601,388.125 C 181.995,385.856 183.277,384.000 183.450,384.000 C 183.818,384.000 184.730,386.054 188.030,394.326 C 190.150,399.638 194.459,408.479 197.986,414.750 C 199.761,417.907 206.977,428.500 209.216,431.236 C 212.800,435.616 223.011,445.836 226.434,448.470 C 234.954,455.025 243.814,460.217 252.250,463.598 C 258.918,466.270 270.653,469.164 280.375,470.534 C 282.644,470.854 284.500,471.285 284.500,471.492 C 284.500,472.653 271.755,473.656 265.250,473.007 Z M 97.118,431.400 C 91.588,429.541 91.617,424.250 97.172,421.410 C 100.350,419.785 103.862,419.012 108.101,419.006 C 112.127,419.000 113.991,419.522 115.875,421.183 C 119.146,424.066 115.117,429.473 108.500,431.081 C 105.563,431.794 98.852,431.983 97.118,431.400 Z M 69.500,429.043 C 64.532,427.905 58.752,424.430 58.206,422.251 C 57.836,420.777 59.308,417.628 60.552,417.233 C 62.800,416.520 67.412,416.858 70.804,417.985 C 77.206,420.111 78.611,421.055 79.533,423.850 C 80.238,425.987 79.859,427.551 78.421,428.440 C 77.093,429.261 71.966,429.607 69.500,429.043 Z M 131.250,419.951 C 129.543,418.969 128.999,417.893 129.018,415.529 C 129.040,412.695 129.535,411.799 133.133,408.079 C 137.423,403.644 143.672,401.121 146.978,402.491 C 152.214,404.660 151.129,409.881 144.289,415.430 C 139.363,419.427 133.732,421.379 131.250,419.951 Z M 42.107,412.625 C 40.282,411.644 36.148,407.782 34.229,405.267 C 32.726,403.296 32.009,398.944 32.993,397.759 C 33.696,396.911 36.770,396.724 37.250,397.500 C 37.420,397.775 38.005,398.000 38.551,398.000 C 39.694,398.000 43.771,401.643 46.578,405.173 C 48.236,407.258 48.494,407.920 48.433,409.923 C 48.393,411.203 48.139,412.531 47.869,412.875 C 47.158,413.779 43.999,413.642 42.107,412.625 Z M 160.177,395.152 C 156.853,394.507 156.309,390.068 158.933,385.000 C 161.351,380.332 162.611,378.828 166.334,376.171 C 169.268,374.077 169.927,373.815 172.171,373.849 C 175.315,373.897 176.500,375.095 176.500,378.227 C 176.500,381.356 173.434,387.066 169.754,390.791 C 168.102,392.464 166.300,394.066 165.750,394.351 C 164.485,395.006 161.577,395.424 160.177,395.152 Z M 24.441,384.248 C 22.206,383.034 20.500,377.962 20.500,372.532 C 20.500,369.878 21.127,369.000 23.023,369.000 C 25.408,369.000 27.580,372.755 28.450,378.387 C 28.925,381.459 28.893,382.256 28.244,383.512 C 27.399,385.145 26.434,385.332 24.441,384.248 Z M 127.000,329.224 C 114.721,327.554 105.087,323.051 95.625,314.558 C 91.808,311.132 83.000,300.457 83.000,299.257 C 83.000,299.077 82.352,297.989 81.560,296.838 C 80.768,295.687 79.643,293.902 79.060,292.873 C 78.477,291.843 77.571,290.242 77.046,289.317 C 72.147,280.672 66.029,272.406 62.367,269.484 C 56.675,264.941 51.329,263.013 44.408,263.005 C 37.189,262.997 31.164,264.450 27.000,267.203 C 16.478,274.160 14.283,275.251 13.448,273.933 C 12.379,272.245 12.998,269.009 15.205,264.756 C 18.926,257.584 23.673,253.006 31.284,249.249 C 37.882,245.992 42.795,244.891 50.795,244.878 C 60.359,244.862 66.849,246.607 75.000,251.388 C 80.518,254.624 85.050,258.501 96.750,269.996 C 107.795,280.847 111.712,284.007 117.327,286.600 C 120.593,288.108 121.037,288.180 127.000,288.177 C 130.438,288.175 134.037,287.936 135.000,287.644 C 135.963,287.353 138.047,286.827 139.631,286.476 C 141.216,286.125 142.770,285.527 143.085,285.147 C 143.461,284.694 143.626,282.273 143.564,278.104 C 143.454,270.687 144.556,256.841 145.800,250.000 C 146.260,247.471 147.671,246.167 150.262,245.875 C 154.138,245.438 161.650,239.628 161.413,237.250 C 161.281,235.923 161.920,234.050 163.056,232.437 C 164.950,229.745 170.706,228.044 178.000,228.020 C 181.874,228.007 183.050,228.186 184.375,228.995 C 185.269,229.539 186.000,230.228 186.000,230.526 C 186.000,232.992 182.082,235.180 175.218,236.544 C 172.505,237.083 172.000,237.346 172.000,238.217 C 172.000,238.785 171.656,240.825 171.235,242.750 C 168.602,254.804 167.912,261.112 167.807,274.112 L 167.710,285.973 L 163.206,290.612 C 156.357,297.665 151.659,303.491 146.088,311.839 C 143.302,316.013 140.594,320.176 140.071,321.089 C 138.262,324.244 135.594,328.535 134.987,329.266 C 134.286,330.111 133.493,330.107 127.000,329.224 Z M 410.975,321.661 C 407.679,312.850 397.966,299.442 390.022,292.738 C 387.810,290.871 386.000,289.081 386.000,288.759 C 386.000,288.437 386.553,287.655 387.228,287.020 C 390.261,284.171 390.879,282.572 392.934,272.250 C 394.030,266.750 395.183,260.225 395.496,257.750 C 395.810,255.275 396.271,251.900 396.520,250.250 C 396.770,248.600 397.203,245.113 397.484,242.500 C 397.765,239.887 398.223,235.613 398.503,233.000 C 398.782,230.387 399.233,226.225 399.504,223.750 C 399.775,221.275 399.998,218.082 399.999,216.655 C 400.000,214.043 400.692,212.728 401.203,214.368 C 402.342,218.027 403.182,259.752 402.335,270.625 C 402.024,274.620 402.072,275.000 402.888,275.000 C 403.980,275.000 408.442,270.474 411.999,265.759 C 414.591,262.323 419.293,253.440 420.514,249.674 C 421.206,247.538 422.252,245.086 424.853,239.500 C 425.813,237.438 427.407,233.725 428.394,231.250 C 434.941,214.836 446.441,202.924 460.250,198.249 C 478.665,192.016 494.323,195.010 506.586,207.112 C 510.504,210.977 512.321,213.652 514.324,218.500 C 518.003,227.408 518.609,238.008 515.884,245.803 C 514.838,248.795 511.835,253.986 509.549,256.753 C 507.383,259.373 502.744,262.828 499.683,264.099 C 493.912,266.495 486.248,266.602 481.340,264.356 C 475.650,261.751 470.988,255.825 472.461,253.072 C 473.204,251.685 473.875,251.721 476.696,253.297 C 479.419,254.820 483.488,255.986 486.106,255.994 C 488.842,256.003 493.007,254.265 495.084,252.247 C 496.087,251.273 497.639,248.963 498.534,247.113 C 500.041,243.998 500.164,243.364 500.198,238.500 C 500.233,233.499 500.156,233.097 498.573,230.022 C 496.399,225.801 495.489,224.693 492.128,222.179 C 488.228,219.263 483.357,217.774 479.129,218.207 C 475.145,218.615 469.995,220.597 466.893,222.916 C 464.102,225.003 460.920,229.148 459.161,232.988 C 457.248,237.166 454.649,245.406 454.269,248.500 C 454.083,250.012 453.747,251.925 453.523,252.750 C 453.298,253.575 452.847,255.600 452.520,257.250 C 452.193,258.900 451.724,261.038 451.479,262.000 C 451.233,262.962 450.571,265.775 450.009,268.250 C 447.394,279.754 446.079,283.738 442.466,291.097 C 436.106,304.052 426.120,314.845 414.376,321.455 L 411.503,323.072 L 410.975,321.661 Z M 375.455,282.493 C 369.693,279.226 359.031,275.000 356.550,275.000 C 354.872,275.000 354.814,273.946 356.184,268.399 C 357.559,262.834 358.532,256.950 359.762,246.750 C 361.019,236.326 361.129,231.322 360.310,221.750 L 359.540,212.750 L 360.604,212.009 C 361.710,211.237 363.912,210.600 374.652,207.940 C 379.188,206.816 381.209,206.509 381.587,206.887 C 382.405,207.705 382.410,245.484 381.594,254.500 C 380.803,263.242 379.086,276.456 378.456,278.652 C 378.205,279.527 378.000,280.850 378.000,281.592 C 378.000,283.434 377.455,283.627 375.455,282.493 Z M 127.292,274.447 C 126.320,271.522 125.453,247.227 126.323,247.272 C 126.558,247.284 127.312,247.547 128.000,247.856 C 128.688,248.166 129.654,248.547 130.149,248.703 C 130.861,248.928 130.986,249.325 130.749,250.618 C 130.325,252.939 129.641,258.586 128.736,267.231 C 127.959,274.666 127.736,275.781 127.292,274.447 Z M 132.500,241.201 C 128.801,239.837 124.500,236.660 124.500,235.292 C 124.500,234.931 124.950,234.063 125.500,233.364 C 126.050,232.664 126.500,231.760 126.500,231.354 C 126.500,230.220 128.771,228.985 131.744,228.501 C 134.962,227.977 143.024,228.970 145.359,230.177 C 148.497,231.800 149.837,235.001 148.458,237.579 C 147.430,239.500 142.720,241.145 137.750,241.320 C 135.275,241.407 132.912,241.353 132.500,241.201 Z M 100.922,231.809 C 96.069,230.060 91.822,226.718 89.852,223.099 C 88.664,220.917 88.573,220.431 89.069,218.939 C 90.007,216.121 90.573,215.816 94.867,215.816 C 98.293,215.816 99.128,216.009 101.766,217.416 C 105.811,219.571 110.435,223.264 111.022,224.807 C 111.584,226.287 111.644,230.017 111.117,230.786 C 110.142,232.211 103.801,232.847 100.922,231.809 Z M 74.250,208.172 C 70.671,206.291 67.267,201.695 65.035,195.729 C 64.023,193.024 63.981,192.523 64.551,189.952 C 65.099,187.485 65.370,187.067 66.748,186.569 C 70.002,185.392 71.181,185.772 74.115,188.941 C 76.891,191.939 80.536,198.654 81.174,201.943 C 81.354,202.874 81.270,204.497 80.987,205.549 C 80.116,208.784 77.416,209.835 74.250,208.172 Z M 390.363,192.726 C 389.613,191.977 389.000,190.948 389.000,190.439 C 389.000,188.648 392.029,184.506 394.119,183.439 C 398.889,181.006 404.824,180.286 408.266,181.724 C 409.918,182.415 410.000,182.568 410.000,184.957 C 410.000,188.196 408.258,190.287 403.888,192.291 C 401.339,193.460 399.903,193.764 396.238,193.909 C 391.882,194.083 391.678,194.042 390.363,192.726 Z M 423.375,180.696 C 421.819,180.030 421.500,179.644 421.500,178.430 C 421.500,175.957 422.717,173.869 425.844,170.974 C 430.811,166.377 433.234,165.000 436.361,165.000 C 437.840,165.000 439.713,165.343 440.525,165.763 C 441.829,166.437 442.000,166.789 442.000,168.788 C 442.000,171.736 441.138,173.264 437.946,175.978 C 432.565,180.553 427.141,182.309 423.375,180.696 Z M 59.405,171.625 C 57.086,169.139 56.830,168.120 56.798,161.242 C 56.769,155.026 56.829,154.629 58.136,152.400 C 58.888,151.117 60.009,149.897 60.627,149.690 C 63.202,148.827 65.951,149.988 67.241,152.484 C 68.954,155.796 69.107,166.998 67.480,170.037 C 65.822,173.135 61.589,173.967 59.405,171.625 Z M 449.763,156.525 C 448.710,154.489 448.808,150.550 449.991,147.390 C 450.710,145.466 451.907,143.835 454.366,141.427 C 459.212,136.680 460.718,136.097 463.164,138.022 C 465.757,140.061 465.224,144.434 461.660,150.375 C 458.572,155.523 455.494,158.000 452.186,158.000 C 450.853,158.000 450.375,157.709 449.763,156.525 Z M 347.775,142.401 C 347.349,141.546 347.000,140.304 347.000,139.642 C 347.000,138.980 346.689,137.383 346.309,136.094 C 345.928,134.805 345.382,132.478 345.095,130.922 C 344.808,129.367 343.994,126.829 343.286,125.283 C 342.579,123.736 342.000,122.153 342.000,121.765 C 342.000,121.377 341.775,120.920 341.500,120.750 C 341.225,120.580 341.000,120.035 341.000,119.540 C 341.000,118.258 334.680,104.726 331.407,99.000 C 328.733,94.322 324.003,87.476 319.833,82.250 C 308.989,68.658 296.391,58.235 282.139,51.061 C 271.647,45.781 262.919,43.402 247.000,41.486 C 244.113,41.138 241.569,40.695 241.349,40.501 C 240.297,39.575 247.705,38.765 257.250,38.763 C 268.292,38.759 273.691,39.562 282.750,42.554 C 288.244,44.368 287.795,44.179 295.750,48.024 C 312.338,56.043 327.087,68.796 340.825,87.000 C 346.552,94.588 353.335,105.618 356.814,113.000 C 357.527,114.513 358.749,117.100 359.529,118.750 C 360.310,120.400 361.767,123.888 362.767,126.500 C 363.767,129.113 364.883,131.925 365.247,132.750 C 366.262,135.052 367.959,140.708 367.708,140.958 C 367.344,141.323 362.452,141.924 359.530,141.963 C 356.669,142.002 351.512,142.822 349.650,143.534 C 348.726,143.888 348.427,143.708 347.775,142.401 Z M 63.975,136.152 L 62.372,134.804 L 62.623,130.527 C 62.827,127.035 63.158,125.692 64.425,123.210 C 66.232,119.673 67.935,117.690 69.763,116.995 C 72.733,115.866 74.212,116.825 75.348,120.617 C 75.912,122.500 75.867,123.125 74.962,125.951 C 73.307,131.123 71.211,134.820 69.137,136.230 C 66.773,137.836 65.962,137.824 63.975,136.152 Z M 463.381,124.721 C 461.842,122.951 461.017,119.864 461.008,115.846 C 460.997,110.934 461.796,108.282 463.827,106.500 C 465.949,104.636 467.545,104.601 469.498,106.375 C 473.073,109.623 472.546,121.288 468.662,124.875 C 467.004,126.406 464.791,126.342 463.381,124.721 Z M 79.868,106.154 C 79.383,106.028 78.664,105.300 78.269,104.536 C 77.324,102.710 78.132,99.527 80.830,94.444 C 82.298,91.677 83.258,90.497 84.693,89.692 C 86.727,88.551 88.349,88.626 89.375,89.909 C 90.153,90.882 90.190,94.981 89.438,96.851 C 87.408,101.899 85.506,104.646 83.322,105.682 C 81.552,106.522 81.374,106.547 79.868,106.154 Z M 460.579,92.579 C 458.509,90.509 455.967,85.979 455.169,82.938 C 454.352,79.822 454.356,79.630 455.285,77.726 C 456.109,76.039 456.463,75.765 457.709,75.856 C 458.512,75.914 459.941,76.589 460.886,77.356 C 462.733,78.855 465.000,82.469 465.000,83.913 C 465.000,84.401 465.264,85.064 465.586,85.386 C 465.908,85.708 466.145,87.132 466.112,88.550 C 466.018,92.703 462.942,94.942 460.579,92.579 Z M 91.902,78.324 C 90.834,77.512 89.755,69.892 90.508,68.485 C 90.779,67.979 91.000,67.140 91.000,66.620 C 91.000,65.512 92.979,63.500 94.070,63.500 C 94.486,63.500 95.315,64.021 95.913,64.657 C 96.890,65.697 97.000,66.359 97.000,71.180 C 97.000,76.210 96.923,76.622 95.773,77.773 C 94.417,79.128 93.190,79.303 91.902,78.324 Z M 447.366,66.936 C 444.050,64.462 441.678,58.469 443.022,55.960 C 443.860,54.393 446.291,54.713 448.064,56.625 C 449.899,58.603 450.648,60.025 451.485,63.117 C 452.044,65.183 452.021,65.644 451.301,66.742 C 450.307,68.259 449.212,68.313 447.366,66.936 Z" fill="#000000" fill-rule="evenodd" /></svg>