<svg xmlns="http://www.w3.org/2000/svg" viewBox="0 0 375 379" width="375" height="379"><path d="M 134.848,362.970 C 130.423,362.577 119.761,360.863 116.500,360.020 C 115.537,359.771 114.188,359.422 113.500,359.243 C 110.729,358.525 102.619,355.809 100.630,354.933 C 99.465,354.420 98.402,354.000 98.268,354.000 C 97.198,354.000 82.224,346.106 78.250,343.447 C 67.470,336.233 51.843,321.649 45.545,312.924 C 40.118,305.405 35.037,296.625 32.179,289.828 C 31.467,288.135 30.481,285.850 29.987,284.750 C 27.607,279.450 22.000,261.373 22.000,259.002 C 22.000,257.943 22.859,258.577 23.876,260.386 C 25.620,263.489 29.413,268.992 32.780,273.306 C 36.709,278.339 50.110,291.074 56.605,295.949 C 66.491,303.367 83.076,312.254 92.500,315.183 C 99.961,317.502 103.451,318.304 113.500,320.013 C 122.598,321.559 148.609,322.433 158.500,321.524 C 189.120,318.710 205.889,313.697 229.779,300.216 C 239.052,294.983 239.589,294.652 242.250,292.528 C 243.625,291.430 245.988,289.643 247.500,288.557 C 258.683,280.528 270.247,267.906 279.645,253.472 C 284.836,245.499 289.271,235.511 292.275,225.026 C 294.688,216.604 295.547,211.561 295.817,204.250 C 296.113,196.247 296.311,195.073 297.201,196.047 C 298.614,197.591 301.793,209.256 303.252,218.250 C 304.189,224.027 304.211,238.106 303.292,245.000 C 302.656,249.778 300.633,258.890 299.518,262.000 C 294.192,276.856 291.797,282.113 286.574,290.417 C 277.219,305.291 262.414,321.204 249.500,330.269 C 235.721,339.940 224.530,346.360 215.959,349.510 C 213.644,350.361 210.625,351.574 209.250,352.207 C 203.175,355.002 190.366,358.810 181.500,360.457 C 179.988,360.738 176.838,361.327 174.500,361.767 C 165.876,363.388 146.269,363.983 134.848,362.970 Z M 274.578,331.548 C 273.798,331.066 274.392,330.474 278.250,327.887 C 290.312,319.802 302.886,305.939 311.709,291.000 C 315.838,284.009 318.138,279.097 320.189,272.893 C 326.235,254.599 328.142,241.498 327.012,226.000 C 325.085,199.575 318.165,180.011 305.348,164.750 C 303.963,163.100 299.690,158.670 295.853,154.906 C 289.030,148.211 288.886,148.025 289.260,146.406 C 289.470,145.495 289.718,136.539 289.812,126.503 C 289.923,114.572 290.161,108.196 290.497,108.084 C 290.781,107.990 291.966,108.465 293.131,109.141 C 294.297,109.817 296.825,111.219 298.750,112.256 C 300.675,113.293 302.587,114.420 303.000,114.760 C 303.413,115.101 304.425,115.722 305.250,116.141 C 307.963,117.519 317.170,124.497 321.511,128.467 C 332.934,138.912 346.333,158.670 351.372,172.500 C 356.941,187.786 358.683,198.159 358.718,216.250 C 358.742,228.277 358.600,229.526 355.532,244.250 C 352.907,256.850 346.111,272.736 338.968,282.969 C 337.901,284.499 336.319,286.762 335.453,288.000 C 327.926,298.761 315.693,310.699 305.414,317.315 C 300.181,320.683 291.845,325.500 291.248,325.500 C 290.970,325.500 289.731,326.036 288.496,326.691 C 287.261,327.347 285.238,328.232 284.000,328.658 C 282.762,329.084 280.255,329.982 278.427,330.653 C 276.599,331.324 274.867,331.727 274.578,331.548 Z M 138.291,307.067 C 138.118,306.786 138.419,302.100 138.960,296.654 C 139.501,291.207 140.410,281.350 140.980,274.750 C 141.550,268.150 142.463,257.760 143.008,251.662 C 144.203,238.303 144.240,235.044 143.225,232.609 C 142.777,231.535 139.749,228.006 136.052,224.250 C 132.534,220.675 127.487,215.050 124.837,211.750 C 122.188,208.450 118.185,203.725 115.943,201.250 C 113.701,198.775 110.680,195.175 109.230,193.250 C 107.781,191.325 105.842,188.922 104.922,187.910 C 102.356,185.086 98.010,177.862 96.623,174.115 C 95.019,169.780 94.568,162.524 95.653,158.500 C 97.221,152.683 99.205,146.080 100.610,142.000 C 101.415,139.662 103.653,133.137 105.583,127.500 C 109.649,115.624 110.791,113.320 113.660,111.201 C 118.320,107.758 115.690,107.979 150.304,108.121 L 181.642,108.250 L 182.653,109.604 C 183.939,111.327 184.337,115.728 183.491,118.883 C 181.120,127.735 173.080,135.267 162.030,138.990 C 158.934,140.033 146.939,141.237 143.000,140.900 L 141.250,140.750 L 140.935,143.750 C 140.534,147.564 139.884,150.090 138.472,153.318 C 136.955,156.789 137.308,157.500 140.554,157.500 C 144.306,157.500 154.499,159.339 158.857,160.802 C 168.100,163.904 174.256,167.721 181.186,174.643 C 188.595,182.043 194.481,191.677 196.655,199.960 C 197.262,202.275 198.014,204.255 198.325,204.358 C 199.221,204.657 199.657,196.416 199.015,191.315 C 198.382,186.285 197.143,182.322 194.616,177.250 C 190.405,168.797 180.769,159.682 170.209,154.164 C 168.721,153.386 167.575,152.532 167.663,152.265 C 167.986,151.289 171.529,150.970 173.734,151.719 C 176.306,152.592 184.107,153.996 186.398,153.998 C 189.221,154.001 195.702,151.575 199.278,149.177 C 201.474,147.704 202.910,147.037 203.285,147.316 C 203.606,147.555 205.406,149.044 207.283,150.626 C 213.465,155.834 221.323,157.564 230.396,155.714 C 234.389,154.900 239.250,152.565 240.425,150.896 C 241.063,149.990 241.274,150.105 244.273,152.984 C 250.469,158.934 258.794,161.137 267.903,159.237 C 269.912,158.818 271.783,158.616 272.062,158.788 C 272.782,159.233 272.492,181.774 271.668,189.422 C 270.707,198.344 269.541,202.394 265.600,210.500 C 262.746,216.371 259.994,220.853 256.080,226.000 C 254.094,228.613 252.217,231.588 251.909,232.612 C 251.482,234.034 251.556,237.692 252.224,248.112 C 252.706,255.613 253.021,262.637 252.925,263.722 C 252.767,265.498 252.329,266.054 248.500,269.339 C 243.036,274.027 236.188,279.236 231.750,282.081 C 226.965,285.149 219.813,289.393 218.407,289.999 C 217.771,290.273 216.912,290.710 216.500,290.970 C 212.799,293.300 199.884,298.207 191.250,300.563 C 182.579,302.930 168.889,305.545 160.500,306.438 C 152.885,307.248 138.652,307.651 138.291,307.067 Z M 85.635,291.002 C 80.951,290.013 75.200,286.652 70.991,282.443 C 65.542,276.994 58.000,259.684 58.000,252.626 C 58.000,251.053 59.039,250.350 59.724,251.459 C 59.967,251.851 64.551,254.488 69.060,256.828 C 69.780,257.202 73.493,258.292 77.310,259.251 C 85.659,261.347 86.449,261.647 90.119,264.106 C 96.842,268.612 102.059,277.668 101.209,283.355 C 100.735,286.530 98.923,289.310 96.733,290.225 C 94.500,291.158 88.398,291.585 85.635,291.002 Z M 122.733,274.125 C 122.237,272.819 121.271,270.738 120.588,269.500 C 118.916,266.471 112.579,258.250 109.908,255.644 C 105.112,250.965 91.569,241.842 79.250,234.995 C 78.150,234.383 76.653,233.459 75.923,232.941 C 75.193,232.424 74.478,232.000 74.333,232.000 C 73.907,232.000 68.262,228.197 60.370,222.592 C 49.649,214.977 39.386,204.271 31.804,192.793 C 20.749,176.057 15.970,161.794 15.171,143.154 C 14.631,130.550 15.957,120.877 19.885,108.750 C 22.104,101.899 23.537,98.681 27.390,91.899 C 33.122,81.809 37.582,75.943 44.835,68.954 C 49.002,64.938 56.248,59.581 56.785,60.119 C 56.917,60.250 56.119,61.848 55.012,63.670 C 53.905,65.491 53.000,67.101 53.000,67.246 C 53.000,67.392 52.561,68.465 52.024,69.630 C 47.565,79.313 44.528,90.212 43.005,102.000 C 40.302,122.919 43.435,142.944 52.115,160.235 C 54.894,165.772 61.345,175.166 65.954,180.390 C 69.663,184.594 78.340,192.332 83.000,195.592 C 85.301,197.202 87.825,199.139 94.584,204.484 C 98.548,207.618 111.393,220.319 112.897,222.591 C 113.366,223.300 115.017,225.538 116.565,227.565 C 120.631,232.887 123.254,238.045 124.797,243.750 C 126.010,248.237 126.146,249.570 126.120,256.750 C 126.105,261.150 125.833,267.072 125.517,269.909 C 124.679,277.428 124.241,278.092 122.733,274.125 Z M 74.945,150.393 C 67.021,134.859 63.683,118.498 64.956,101.421 C 65.758,90.659 67.918,82.799 72.993,72.175 C 76.461,64.915 78.521,61.801 84.962,54.084 C 92.915,44.557 98.414,39.791 108.500,33.685 C 116.147,29.056 122.046,26.483 131.250,23.764 C 138.993,21.475 148.000,20.258 148.000,21.500 C 148.000,21.775 147.680,22.000 147.289,22.000 C 146.073,22.000 134.944,28.442 131.015,31.419 C 123.240,37.311 116.348,44.353 112.187,50.656 C 106.911,58.647 102.407,68.947 100.557,77.250 C 99.668,81.240 98.951,88.921 99.075,93.124 C 99.183,96.772 99.107,97.084 97.769,98.480 C 96.115,100.206 93.805,103.373 89.365,110.000 C 84.652,117.034 81.880,123.286 79.720,131.750 C 78.412,136.878 77.000,146.537 77.000,150.356 C 77.000,151.535 76.780,152.500 76.510,152.500 C 76.241,152.500 75.537,151.552 74.945,150.393 Z M 256.500,148.339 C 255.537,148.018 253.597,146.616 252.188,145.224 C 248.031,141.115 248.000,140.896 248.000,115.471 L 248.000,93.846 L 249.712,90.785 C 251.771,87.103 252.505,86.398 255.750,84.978 C 258.714,83.682 264.241,83.421 267.168,84.439 C 269.812,85.358 272.171,87.559 274.111,90.914 L 275.750,93.750 L 275.750,116.250 C 275.750,138.682 275.747,138.758 274.598,141.250 C 272.164,146.533 268.899,148.568 262.509,148.781 C 260.167,148.860 257.462,148.661 256.500,148.339 Z M 220.436,144.991 C 216.379,144.306 213.406,142.208 210.644,138.080 L 208.750,135.250 L 208.859,107.588 L 208.967,79.927 L 210.364,77.105 C 211.959,73.883 215.539,70.822 218.750,69.936 C 221.666,69.131 228.249,69.682 231.250,70.982 C 234.395,72.344 236.231,74.069 237.922,77.250 L 239.250,79.750 L 239.250,107.000 C 239.250,133.580 239.224,134.305 238.206,136.506 C 235.444,142.472 227.626,146.205 220.436,144.991 Z M 184.500,142.408 C 183.262,142.155 181.947,141.846 181.577,141.721 C 181.149,141.577 182.250,140.172 184.592,137.872 C 191.113,131.468 193.957,124.290 194.038,114.034 C 194.077,109.190 193.943,108.318 192.791,105.881 C 192.081,104.381 190.702,102.332 189.727,101.327 C 186.660,98.170 185.609,97.861 176.589,97.459 C 172.101,97.259 168.276,96.942 168.089,96.756 C 167.903,96.569 167.750,90.192 167.750,82.583 C 167.750,69.208 167.788,68.667 168.900,66.250 C 170.403,62.980 173.029,60.338 176.196,58.910 C 178.316,57.953 179.606,57.757 183.781,57.754 C 188.437,57.750 189.034,57.865 191.781,59.298 C 193.567,60.229 195.396,61.687 196.371,62.956 C 199.313,66.787 199.400,67.662 199.674,96.299 C 199.928,122.821 199.639,130.880 198.319,134.000 C 197.191,136.667 194.151,139.908 191.569,141.198 C 188.495,142.734 187.189,142.958 184.500,142.408 Z M 341.326,122.382 C 339.993,121.029 337.856,119.486 336.576,118.953 C 333.055,117.485 330.336,115.979 329.492,115.030 C 329.075,114.562 327.500,113.087 325.992,111.752 C 320.912,107.258 318.781,103.038 319.099,98.101 L 319.250,95.750 L 323.051,95.750 C 327.142,95.750 327.964,96.039 332.570,99.093 C 338.314,102.901 342.032,108.652 344.203,117.084 C 346.135,124.588 346.171,125.014 344.863,124.921 C 344.251,124.877 342.659,123.735 341.326,122.382 Z M 126.988,96.992 C 126.515,96.700 126.345,93.766 126.304,85.171 L 126.250,73.738 L 127.891,70.400 C 129.738,66.644 131.541,64.896 135.396,63.124 C 137.738,62.047 138.599,61.927 142.896,62.079 C 148.385,62.272 150.804,63.203 154.167,66.418 C 158.078,70.155 158.218,70.753 158.342,84.228 C 158.417,92.401 158.276,96.417 157.898,96.872 C 157.457,97.404 154.334,97.523 142.481,97.460 C 134.305,97.417 127.333,97.206 126.988,96.992 Z M 295.000,80.028 C 289.857,78.979 276.069,70.102 270.930,64.531 C 269.044,62.486 267.500,60.537 267.500,60.201 C 267.500,59.195 270.306,57.144 273.117,56.095 C 281.011,53.148 290.163,53.824 299.347,58.032 C 304.281,60.293 308.690,63.371 313.709,68.058 C 317.190,71.310 322.000,77.314 322.000,78.409 C 322.000,79.833 300.395,81.128 295.000,80.028 Z" fill="#000000" fill-rule="evenodd" /></svg>