<svg xmlns="http://www.w3.org/2000/svg" viewBox="0 0 135 124" width="135" height="124"><path d="M 53.849,111.970 C 49.649,111.597 47.699,110.892 48.278,109.955 C 48.597,109.438 49.848,94.529 49.790,91.924 C 49.757,90.409 49.365,89.759 47.483,88.102 C 42.663,83.857 40.287,76.986 39.670,65.515 C 39.446,61.353 39.520,59.547 39.925,59.296 C 40.545,58.913 41.036,59.904 42.005,63.493 C 42.379,64.879 43.273,66.361 44.341,67.368 C 45.836,68.779 46.423,69.000 48.661,68.998 C 50.349,68.997 51.809,68.656 52.855,68.018 C 54.453,67.043 54.471,67.043 56.787,68.068 C 59.479,69.259 62.205,69.068 65.164,67.482 C 67.357,66.307 68.286,66.264 70.182,67.253 C 70.970,67.664 71.926,68.000 72.307,68.000 C 73.309,68.000 73.183,68.375 71.446,70.568 C 69.723,72.743 68.000,76.837 68.000,78.755 C 68.000,80.713 68.651,80.212 69.921,77.278 C 70.564,75.791 71.883,73.649 72.851,72.518 C 75.062,69.934 80.068,66.500 81.623,66.500 C 82.270,66.500 83.045,66.255 83.344,65.956 C 83.735,65.565 83.981,65.565 84.223,65.956 C 84.846,66.965 85.885,66.509 86.119,65.125 C 86.246,64.369 86.441,63.440 86.550,63.061 C 86.694,62.567 85.771,62.169 83.286,61.653 C 78.899,60.742 77.205,59.860 75.980,57.851 C 74.651,55.671 74.737,53.718 76.227,52.227 C 77.439,51.016 77.569,51.000 86.400,51.000 C 96.351,51.000 96.491,51.045 97.533,54.556 C 98.298,57.133 98.284,69.296 97.513,72.500 C 96.657,76.058 94.011,79.925 89.559,84.125 C 84.857,88.561 83.494,89.097 77.421,88.904 C 74.765,88.819 72.698,88.920 72.828,89.129 C 73.494,90.199 76.508,91.112 79.861,91.258 C 81.911,91.348 83.646,91.495 83.716,91.586 C 83.787,91.676 84.221,95.624 84.682,100.359 C 85.142,105.094 85.625,109.257 85.754,109.609 C 85.884,109.962 85.813,110.526 85.597,110.864 C 84.720,112.235 64.701,112.933 53.849,111.970 Z M 39.623,102.125 C 40.867,99.564 42.220,96.642 43.444,93.875 C 44.265,92.019 45.131,90.500 45.369,90.500 C 46.311,90.500 47.000,91.793 47.000,93.560 C 47.000,95.136 46.522,95.956 43.875,98.918 C 42.156,100.842 40.455,102.435 40.095,102.458 C 39.736,102.481 39.523,102.331 39.623,102.125 Z M 91.360,97.486 C 88.962,94.677 87.000,91.999 87.000,91.534 C 87.000,91.069 87.665,90.197 88.477,89.596 L 89.955,88.504 L 90.922,90.627 C 91.454,91.795 92.830,94.729 93.979,97.147 C 95.128,99.565 95.990,101.780 95.894,102.068 C 95.798,102.356 93.757,100.294 91.360,97.486 Z M 23.500,86.077 C 23.500,85.352 37.089,75.386 37.471,75.830 C 38.163,76.635 39.518,81.682 39.135,82.030 C 38.923,82.223 37.040,82.753 34.950,83.208 C 32.859,83.663 29.620,84.590 27.751,85.268 C 24.049,86.610 23.500,86.715 23.500,86.077 Z M 103.750,84.309 C 99.625,83.155 96.255,81.995 96.262,81.731 C 96.279,81.027 99.178,76.500 99.612,76.500 C 99.815,76.500 102.405,78.324 105.366,80.554 C 108.327,82.784 111.014,84.714 111.336,84.843 C 112.162,85.173 112.596,86.510 111.859,86.453 C 111.524,86.427 107.875,85.462 103.750,84.309 Z M 34.400,68.733 C 34.086,68.419 30.191,67.466 23.250,66.004 C 14.491,64.158 13.500,63.908 13.500,63.540 C 13.500,63.342 15.356,62.888 17.625,62.531 C 19.894,62.173 24.337,61.338 27.500,60.673 C 30.663,60.009 33.981,59.332 34.875,59.168 L 36.500,58.869 L 36.500,63.935 C 36.500,68.513 36.412,69.000 35.583,69.000 C 35.079,69.000 34.547,68.880 34.400,68.733 Z M 101.339,68.172 C 101.152,67.986 101.000,65.958 101.000,63.667 C 101.000,60.361 101.150,59.500 101.725,59.500 C 102.123,59.500 105.780,60.157 109.850,60.960 C 113.920,61.763 118.322,62.577 119.631,62.768 C 122.543,63.193 123.060,63.807 120.879,64.250 C 114.127,65.622 105.649,67.490 102.464,68.309 C 102.031,68.420 101.525,68.359 101.339,68.172 Z M 45.285,65.375 C 44.057,64.140 43.523,63.001 43.059,60.625 C 42.510,57.808 42.329,57.500 41.225,57.500 C 40.050,57.500 40.000,57.367 40.000,54.225 C 40.000,50.378 40.874,48.367 43.149,46.980 C 46.314,45.050 49.872,46.016 51.174,49.158 C 51.996,51.145 52.968,57.236 53.128,61.418 C 53.241,64.341 53.142,64.679 51.847,65.793 C 49.768,67.582 47.324,67.427 45.285,65.375 Z M 56.590,65.249 C 55.266,64.135 55.040,63.517 54.526,59.624 C 53.919,55.027 53.293,51.610 52.432,48.206 C 52.005,46.518 52.075,45.831 52.833,44.256 C 55.123,39.496 62.284,39.333 64.102,44.000 C 65.599,47.844 66.522,62.547 65.359,64.023 C 63.189,66.776 59.087,67.350 56.590,65.249 Z M 70.233,65.024 C 69.673,64.797 68.953,64.296 68.632,63.909 C 68.312,63.523 67.546,58.562 66.930,52.884 C 65.684,41.385 65.762,40.740 68.615,39.001 C 70.699,37.730 73.301,37.730 75.385,39.001 C 77.224,40.122 77.648,40.984 78.429,45.193 C 79.038,48.474 78.899,49.000 77.420,49.000 C 76.859,49.000 75.635,49.765 74.700,50.700 C 73.233,52.167 73.000,52.733 73.002,54.825 C 73.004,57.731 74.125,59.775 76.667,61.506 C 77.671,62.190 78.493,62.975 78.493,63.250 C 78.494,64.875 72.853,66.086 70.233,65.024 Z M 29.561,45.186 C 23.737,40.470 21.713,38.405 23.625,39.130 C 27.658,40.660 34.896,43.120 37.375,43.803 C 39.094,44.276 40.500,44.876 40.500,45.135 C 40.500,45.394 39.968,46.025 39.318,46.536 C 38.667,47.048 37.853,48.149 37.507,48.983 C 37.161,49.817 36.708,50.500 36.500,50.500 C 36.292,50.500 33.170,48.109 29.561,45.186 Z M 98.000,49.983 C 98.000,49.699 97.233,49.013 96.295,48.460 C 92.823,46.412 93.556,45.264 99.579,43.310 C 101.873,42.566 105.502,41.263 107.644,40.415 C 109.786,39.566 111.659,38.992 111.806,39.139 C 112.038,39.371 104.112,46.551 100.402,49.470 C 98.978,50.590 98.000,50.799 98.000,49.983 Z M 80.578,48.344 C 80.279,47.983 79.979,46.292 79.911,44.586 C 79.802,41.813 79.929,41.343 81.112,40.161 C 82.134,39.139 83.063,38.786 85.196,38.609 C 87.730,38.399 88.077,38.500 89.424,39.847 C 90.886,41.309 92.399,46.238 91.836,47.706 C 91.361,48.943 81.538,49.500 80.578,48.344 Z M 48.774,41.730 C 48.329,40.666 46.988,36.973 45.794,33.523 C 44.599,30.073 43.257,26.379 42.811,25.314 C 41.868,23.062 41.858,23.000 42.444,23.000 C 42.688,23.000 44.703,25.194 46.921,27.875 C 49.140,30.556 51.969,33.875 53.209,35.250 C 54.448,36.625 55.470,37.908 55.481,38.102 C 55.491,38.295 54.712,38.827 53.750,39.284 C 52.788,39.740 51.992,40.257 51.982,40.432 C 51.972,40.607 51.428,41.406 50.773,42.207 L 49.582,43.664 L 48.774,41.730 Z M 63.131,36.375 C 63.255,34.931 64.154,29.812 65.130,25.000 C 66.106,20.188 66.983,15.705 67.078,15.039 C 67.361,13.050 68.410,13.240 68.757,15.343 C 69.283,18.533 71.643,30.965 72.275,33.875 C 72.483,34.834 72.310,35.000 71.107,35.000 C 69.744,35.000 65.474,37.329 64.780,38.451 C 64.594,38.753 64.096,39.000 63.674,39.000 C 63.054,39.000 62.950,38.498 63.131,36.375 Z M 81.500,36.234 C 81.500,36.131 82.861,34.518 84.524,32.649 C 86.188,30.780 88.606,27.849 89.899,26.137 C 91.192,24.426 92.531,23.019 92.875,23.012 C 93.702,22.996 93.715,22.928 92.069,27.112 C 91.281,29.113 90.251,31.931 89.779,33.375 L 88.920,35.999 L 87.053,35.700 C 86.026,35.536 84.356,35.631 83.343,35.911 C 82.329,36.190 81.500,36.336 81.500,36.234 Z" fill="#000000" fill-rule="evenodd" /></svg>