<svg xmlns="http://www.w3.org/2000/svg" viewBox="0 0 326 332" width="326" height="332"><path d="M 107.000,317.623 C 107.000,316.961 109.477,310.388 110.808,307.520 C 111.515,305.996 112.386,303.850 112.744,302.750 C 113.102,301.650 114.117,298.837 114.999,296.500 C 117.611,289.583 121.544,278.851 121.985,277.436 C 122.211,276.713 122.738,275.363 123.156,274.436 C 123.575,273.509 124.416,271.288 125.026,269.500 C 125.635,267.712 126.528,265.350 127.009,264.250 C 127.491,263.150 128.394,260.788 129.017,259.000 C 130.028,256.098 132.042,250.729 136.521,239.000 C 138.817,232.989 139.672,229.967 139.193,229.558 C 138.949,229.350 135.150,229.349 130.750,229.556 C 116.738,230.215 105.527,230.293 105.312,229.732 C 105.203,229.447 106.348,226.522 107.857,223.232 C 109.366,219.942 111.273,215.562 112.095,213.500 C 112.916,211.438 113.996,208.850 114.495,207.750 C 116.249,203.874 120.000,194.952 120.000,194.652 C 120.000,194.486 120.543,193.202 121.207,191.800 C 121.871,190.397 123.350,187.021 124.493,184.297 C 125.636,181.572 128.018,176.335 129.785,172.657 C 131.553,168.980 133.000,165.824 133.000,165.643 C 133.000,165.461 133.993,163.162 135.207,160.532 C 138.309,153.810 140.000,150.007 140.000,149.754 C 140.000,149.635 141.337,146.717 142.972,143.269 C 145.119,138.740 146.194,136.990 146.847,136.964 C 152.704,136.728 193.098,136.754 193.246,136.994 C 193.356,137.171 192.451,139.061 191.235,141.193 C 190.020,143.326 188.151,146.686 187.084,148.660 C 186.016,150.635 184.291,153.825 183.250,155.750 C 181.489,159.007 177.343,166.239 168.488,181.500 C 160.784,194.777 160.371,195.604 161.129,196.257 C 161.568,196.636 167.081,196.656 179.905,196.327 C 192.555,196.001 198.220,196.020 198.587,196.387 C 198.956,196.756 198.642,197.413 197.538,198.582 C 196.671,199.499 194.203,202.613 192.053,205.500 C 189.904,208.387 183.444,217.017 177.698,224.677 C 171.951,232.337 166.800,239.236 166.250,240.009 C 165.318,241.318 162.246,245.326 157.086,251.966 C 154.741,254.982 146.890,265.542 144.640,268.705 C 143.876,269.780 142.414,271.640 141.393,272.839 C 140.372,274.038 138.520,276.534 137.277,278.385 C 136.035,280.236 134.171,282.901 133.134,284.308 C 132.098,285.715 129.128,289.765 126.534,293.308 C 123.940,296.851 120.621,301.174 119.159,302.915 C 117.696,304.656 116.500,306.290 116.500,306.547 C 116.500,306.804 115.468,308.281 114.208,309.828 C 112.947,311.376 111.115,313.848 110.137,315.321 C 108.597,317.640 107.000,318.812 107.000,317.623 Z M 56.765,258.525 C 56.604,258.264 56.994,256.745 57.632,255.150 C 58.270,253.555 59.086,251.238 59.445,250.000 C 59.804,248.762 60.272,247.405 60.486,246.982 C 61.105,245.759 65.880,233.377 66.264,232.000 C 66.455,231.312 67.357,228.950 68.268,226.750 C 71.823,218.162 74.841,210.235 74.674,209.922 C 74.578,209.742 70.112,209.714 64.750,209.860 C 59.086,210.014 55.000,209.936 55.000,209.674 C 55.000,209.426 55.325,208.759 55.722,208.192 C 56.119,207.626 56.820,206.169 57.279,204.956 C 57.739,203.743 58.764,201.358 59.558,199.657 C 60.351,197.955 61.000,196.442 61.000,196.294 C 61.000,196.146 61.675,194.557 62.500,192.763 C 73.695,168.413 76.050,162.985 75.680,162.386 C 75.548,162.174 69.704,162.000 62.691,162.000 C 49.021,162.000 44.341,161.558 40.000,159.857 C 31.006,156.332 25.929,151.909 20.937,143.250 C 15.389,133.625 14.950,120.363 19.859,110.665 C 21.997,106.442 27.225,99.787 30.013,97.740 C 32.800,95.695 36.123,93.993 41.000,92.114 C 43.654,91.091 45.487,90.806 51.000,90.556 L 57.750,90.250 L 58.368,85.570 C 59.600,76.244 63.161,69.361 70.321,62.466 C 74.852,58.102 78.000,56.182 84.272,53.954 C 90.081,51.891 98.013,51.405 104.481,52.716 C 109.159,53.664 108.694,53.881 110.837,49.750 C 115.579,40.612 124.561,31.369 133.750,26.174 C 143.813,20.484 153.018,17.928 163.750,17.844 C 170.208,17.793 172.819,18.089 179.000,19.573 C 185.583,21.154 192.998,24.406 198.709,28.215 C 203.678,31.530 214.253,42.309 215.667,45.500 C 215.971,46.188 216.965,47.893 217.875,49.291 C 219.549,51.862 223.000,60.746 223.000,62.487 C 223.000,63.833 224.260,64.068 228.518,63.515 C 237.365,62.367 243.640,63.187 250.492,66.385 C 255.395,68.673 263.325,75.853 265.110,79.621 C 267.427,84.513 268.109,86.481 268.640,89.819 L 269.225,93.500 L 275.404,93.500 C 280.764,93.500 282.083,93.673 285.361,94.804 C 296.658,98.703 304.636,107.443 307.602,119.167 C 309.691,127.421 307.922,138.518 303.404,145.500 C 300.817,149.498 295.328,155.231 292.657,156.724 C 291.386,157.435 288.186,158.844 285.547,159.855 L 280.750,161.693 L 268.306,161.815 C 261.463,161.882 255.701,162.120 255.504,162.344 C 255.306,162.567 254.075,164.775 252.767,167.250 C 250.471,171.597 247.337,177.132 242.385,185.588 C 241.084,187.810 240.141,189.824 240.289,190.064 C 240.438,190.304 245.046,190.500 250.530,190.500 C 256.013,190.500 260.500,190.589 260.500,190.697 C 260.500,190.957 255.075,198.886 253.604,200.777 C 252.224,202.550 240.189,218.841 235.130,225.783 C 233.139,228.515 228.588,234.688 225.016,239.500 C 221.444,244.312 216.998,250.545 215.136,253.349 C 211.763,258.430 210.042,259.905 210.733,257.125 C 210.921,256.369 211.982,253.387 213.090,250.500 C 215.565,244.048 217.800,238.099 219.053,234.625 C 219.574,233.181 220.467,230.706 221.038,229.125 C 221.608,227.544 222.709,224.675 223.484,222.750 C 224.259,220.825 225.387,217.900 225.990,216.250 C 226.594,214.600 227.293,212.733 227.544,212.101 C 228.600,209.441 228.504,209.429 212.125,210.183 C 210.131,210.275 208.500,210.146 208.500,209.897 C 208.500,209.447 209.255,207.687 212.103,201.500 C 212.926,199.713 214.043,197.125 214.586,195.750 C 215.129,194.375 216.371,191.562 217.346,189.500 C 218.321,187.438 219.738,184.287 220.496,182.500 C 221.254,180.713 222.991,176.887 224.357,174.000 C 227.547,167.253 229.148,163.194 228.906,162.467 C 228.764,162.042 223.532,161.911 209.046,161.971 L 189.379,162.052 L 189.686,160.829 C 189.854,160.156 191.590,156.826 193.543,153.428 C 195.496,150.030 197.488,146.463 197.970,145.500 C 198.452,144.537 200.702,140.527 202.970,136.589 C 205.238,132.650 207.012,129.345 206.912,129.245 C 206.594,128.927 152.515,128.685 146.317,128.974 L 140.385,129.250 L 139.770,131.000 C 139.431,131.963 138.916,133.425 138.625,134.250 C 138.018,135.968 134.607,143.654 131.523,150.250 C 130.366,152.725 129.057,155.537 128.614,156.500 C 128.171,157.463 127.289,159.090 126.653,160.116 L 125.499,161.982 L 113.450,162.116 L 101.402,162.250 L 100.240,164.318 C 99.601,165.456 98.193,168.043 97.111,170.068 C 96.028,172.093 93.198,177.261 90.821,181.552 C 86.673,189.042 86.052,190.456 86.875,190.537 C 87.329,190.581 96.674,190.813 102.375,190.922 C 104.916,190.970 106.500,191.205 106.500,191.534 C 106.500,191.827 105.825,192.896 105.001,193.909 C 102.774,196.644 91.883,211.428 86.858,218.537 C 82.545,224.639 75.450,234.512 72.000,239.215 C 71.037,240.527 68.675,243.819 66.750,246.530 C 57.054,260.184 57.477,259.676 56.765,258.525 Z" fill="#000000" fill-rule="evenodd" /></svg>