<svg xmlns="http://www.w3.org/2000/svg" viewBox="0 0 251 251" width="251" height="251"><path d="M 122.607,233.913 C 118.503,231.537 111.047,224.575 107.927,220.204 C 104.234,215.032 100.857,208.178 99.696,203.500 C 98.427,198.386 98.549,190.629 99.967,186.239 C 100.535,184.480 101.000,182.737 101.000,182.366 C 101.000,181.995 101.314,181.262 101.697,180.738 C 102.367,179.821 102.488,179.857 104.791,181.651 C 112.833,187.916 125.119,189.669 136.632,186.194 C 138.404,185.660 136.933,185.136 132.890,184.863 C 127.814,184.519 119.949,182.494 116.050,180.525 C 112.718,178.843 107.647,174.418 106.889,172.531 C 105.753,169.703 105.134,165.502 105.543,163.388 C 105.770,162.212 105.966,161.081 105.978,160.875 C 106.018,160.185 106.944,160.487 111.715,162.746 C 121.214,167.244 128.886,168.762 140.000,168.340 C 148.389,168.022 154.991,166.633 162.375,163.630 C 166.989,161.754 168.454,160.574 165.375,161.212 C 155.649,163.229 141.456,163.257 130.473,161.281 C 124.487,160.204 116.534,158.466 114.309,157.749 C 105.570,154.932 98.554,151.704 92.499,147.714 C 88.501,145.081 86.596,143.012 84.027,138.515 C 82.120,135.177 82.572,135.454 74.500,132.668 C 73.263,132.241 71.959,131.655 71.604,131.367 C 71.218,131.054 70.784,131.026 70.528,131.296 C 70.144,131.703 69.210,135.576 67.948,142.000 C 67.705,143.238 67.303,145.150 67.056,146.250 C 66.218,149.968 65.102,155.732 64.538,159.250 C 62.488,172.042 61.678,174.312 60.892,169.460 C 60.695,168.245 60.072,164.887 59.507,162.000 C 58.943,159.113 58.257,155.318 57.984,153.567 C 57.711,151.817 57.367,150.189 57.220,149.951 C 56.973,149.552 56.034,145.045 55.041,139.500 C 53.053,128.395 51.837,122.137 51.008,118.750 C 49.155,111.170 48.616,107.000 49.490,107.000 C 49.760,107.000 51.684,108.144 53.766,109.543 C 67.506,118.774 89.379,124.540 115.000,125.686 C 122.373,126.016 134.437,124.948 145.125,123.019 C 146.706,122.733 149.181,122.287 150.625,122.028 C 158.584,120.596 172.500,115.764 172.500,114.433 C 172.500,113.901 173.023,113.864 168.000,114.759 C 156.525,116.805 146.798,117.611 131.500,117.785 C 117.793,117.940 115.238,117.836 106.250,116.749 C 100.750,116.084 95.013,115.307 93.500,115.021 C 79.003,112.287 67.021,108.376 56.345,102.895 C 49.588,99.426 43.659,94.644 40.047,89.750 C 38.133,87.157 35.500,82.110 35.500,81.033 C 35.500,80.694 35.220,80.510 34.879,80.624 C 34.524,80.742 33.981,82.639 33.614,85.040 C 32.964,89.300 32.637,91.160 29.935,106.000 C 29.109,110.537 28.306,115.094 28.150,116.125 C 27.782,118.572 26.636,118.572 26.249,116.125 C 25.794,113.238 24.621,107.246 23.485,102.000 C 22.920,99.388 22.241,96.013 21.976,94.500 C 21.712,92.987 21.299,90.737 21.058,89.500 C 20.817,88.263 20.021,83.763 19.288,79.500 C 18.556,75.237 17.599,70.062 17.164,68.000 C 16.728,65.938 16.188,63.350 15.964,62.250 C 15.741,61.150 15.305,59.125 14.996,57.750 C 13.720,52.066 15.602,45.486 19.784,41.015 C 25.810,34.573 40.179,27.408 55.000,23.455 C 66.403,20.413 76.587,18.684 96.500,16.407 C 104.262,15.520 143.277,15.507 152.250,16.389 C 164.556,17.598 177.228,19.326 182.250,20.480 C 183.350,20.733 186.387,21.423 189.000,22.013 C 199.195,24.315 214.264,30.062 220.750,34.122 C 223.576,35.891 228.184,39.628 229.848,41.500 C 230.460,42.188 231.672,44.072 232.543,45.688 C 233.924,48.251 234.134,49.146 234.188,52.688 C 234.243,56.271 234.073,57.104 232.750,59.750 C 231.073,63.104 224.807,69.777 220.750,72.528 C 218.044,74.364 207.279,80.000 206.479,80.000 C 206.210,80.000 205.035,80.431 203.870,80.957 C 201.515,82.021 194.343,84.559 191.250,85.423 C 190.150,85.730 188.012,86.329 186.500,86.755 C 182.522,87.873 175.978,89.236 163.750,91.494 C 162.375,91.748 159.900,92.098 158.250,92.272 C 156.600,92.446 154.688,92.668 154.000,92.764 C 145.918,93.901 120.073,94.597 105.750,94.064 C 100.407,93.865 90.132,92.444 85.430,91.253 C 83.355,90.728 83.324,91.774 85.389,92.657 C 87.415,93.524 97.656,96.415 103.250,97.698 C 113.376,100.022 126.227,101.202 141.500,101.212 C 156.658,101.222 165.279,100.314 184.000,96.738 C 193.856,94.855 202.157,92.000 211.935,87.132 C 220.605,82.815 224.029,80.588 227.590,76.949 C 229.165,75.339 230.566,74.202 230.702,74.422 C 230.838,74.642 230.616,76.381 230.207,78.286 C 229.799,80.191 229.137,83.550 228.736,85.750 C 228.334,87.950 227.781,90.875 227.506,92.250 C 226.975,94.903 224.928,105.705 222.532,118.500 C 221.733,122.763 220.817,127.881 220.495,129.875 C 220.173,131.869 219.741,133.500 219.535,133.500 C 218.957,133.500 218.002,131.108 217.979,129.601 C 217.968,128.858 217.404,125.662 216.727,122.500 C 215.053,114.678 213.000,102.662 213.000,100.681 C 213.000,98.542 212.327,98.219 210.366,99.417 C 209.477,99.960 207.109,101.247 205.103,102.276 C 203.098,103.305 201.263,104.509 201.026,104.951 C 200.790,105.393 200.347,107.104 200.044,108.752 C 199.235,113.140 197.217,116.854 193.784,120.271 C 186.375,127.649 174.998,133.084 159.875,136.468 C 158.569,136.761 156.544,137.213 155.375,137.474 C 148.374,139.035 137.632,140.140 128.876,140.200 C 124.821,140.227 121.502,140.383 121.501,140.545 C 121.499,141.201 124.405,142.070 131.640,143.579 C 138.958,145.105 139.710,145.166 151.250,145.169 C 164.717,145.173 168.347,144.689 177.500,141.670 C 185.775,138.940 190.548,136.370 194.427,132.557 C 196.277,130.738 198.344,128.125 199.020,126.750 C 199.697,125.375 200.307,124.155 200.377,124.040 C 200.692,123.517 203.221,126.487 204.387,128.750 C 206.983,133.786 205.657,139.631 200.476,145.988 C 198.471,148.448 197.440,150.192 197.260,151.430 C 197.017,153.101 196.050,158.424 194.977,164.000 C 194.445,166.765 192.946,174.950 191.269,184.250 C 190.575,188.100 189.601,193.485 189.105,196.216 C 187.854,203.107 187.079,203.116 186.228,196.250 C 186.058,194.875 185.577,192.062 185.159,190.000 C 184.742,187.938 184.218,185.012 183.995,183.500 C 182.083,170.526 181.193,168.349 178.960,171.188 C 177.969,172.447 172.060,175.705 167.540,177.485 C 161.498,179.865 160.725,180.375 158.824,183.238 C 156.131,187.293 153.688,189.837 150.268,192.145 C 148.608,193.265 146.463,194.776 145.500,195.503 C 144.537,196.229 142.400,197.813 140.750,199.022 C 131.346,205.913 127.941,211.066 125.735,221.748 C 125.116,224.742 125.067,226.281 125.483,229.598 C 126.099,234.511 126.123,235.509 125.625,235.472 C 125.419,235.456 124.061,234.755 122.607,233.913 Z M 117.418,73.468 C 142.088,72.134 163.270,66.159 167.976,59.206 L 169.201,57.394 L 168.226,55.582 C 166.431,52.247 160.014,49.224 150.000,46.997 C 147.387,46.415 144.350,45.735 143.250,45.485 C 142.150,45.234 137.875,44.777 133.750,44.468 C 117.874,43.280 110.822,42.177 113.541,41.306 C 114.437,41.019 125.423,39.214 130.890,38.455 C 136.630,37.659 158.668,38.149 165.224,39.219 C 182.982,42.117 193.598,46.948 198.582,54.399 C 199.135,55.226 199.323,56.206 199.142,57.322 C 198.803,59.407 199.361,59.439 201.395,57.450 C 202.988,55.893 203.992,53.379 203.997,50.936 C 204.008,45.877 196.727,38.914 188.350,35.973 C 183.300,34.200 173.637,31.628 168.000,30.557 C 157.892,28.636 152.706,28.287 134.000,28.269 C 115.541,28.250 107.956,28.716 97.500,30.510 C 89.014,31.966 82.630,33.183 81.750,33.513 C 81.200,33.719 79.513,34.170 78.000,34.514 C 70.020,36.334 62.035,39.648 56.250,43.540 C 48.783,48.565 47.194,51.480 49.479,55.959 C 52.534,61.947 66.409,68.695 80.500,71.045 C 90.761,72.756 96.903,73.446 106.168,73.926 C 106.948,73.967 112.010,73.761 117.418,73.468 Z M 87.250,63.289 C 79.665,62.078 73.484,59.955 70.336,57.478 C 68.244,55.833 68.580,51.560 70.957,49.593 C 72.527,48.294 77.833,46.117 82.000,45.062 C 89.614,43.136 101.500,41.843 101.500,42.941 C 101.500,43.183 99.531,44.013 97.125,44.783 C 87.097,47.996 82.000,50.685 82.000,52.763 C 82.000,56.080 94.341,59.781 111.250,61.535 C 118.080,62.244 118.582,62.378 117.250,63.137 C 115.764,63.983 92.344,64.102 87.250,63.289 Z" fill="#000000" fill-rule="evenodd" /></svg>