<svg xmlns="http://www.w3.org/2000/svg" viewBox="0 0 220 227" width="220" height="227"><path d="M 105.250,212.157 C 98.349,211.709 88.516,210.135 83.500,208.677 C 65.847,203.545 51.346,194.908 38.949,182.142 C 23.699,166.437 16.039,151.170 12.412,129.250 C 11.386,123.050 11.541,103.443 12.661,97.750 C 16.299,79.254 21.698,66.965 32.430,52.750 C 36.861,46.881 43.685,40.230 50.500,35.139 C 58.797,28.941 74.190,21.609 85.250,18.587 C 93.376,16.367 98.703,15.775 110.500,15.779 C 122.573,15.784 125.728,16.111 133.000,18.110 C 153.140,23.645 170.428,33.971 182.637,47.756 C 194.278,60.899 202.890,77.932 206.524,95.000 C 207.419,99.204 207.690,102.441 207.883,111.245 C 208.231,127.028 206.987,135.018 201.889,149.750 C 200.644,153.348 195.713,162.927 192.668,167.660 C 181.419,185.149 162.501,199.966 142.767,206.743 C 133.752,209.839 128.160,210.950 116.250,212.011 C 111.286,212.453 110.055,212.470 105.250,212.157 Z M 129.750,197.539 C 133.050,196.679 136.875,195.544 138.250,195.017 C 142.294,193.465 148.307,190.742 149.686,189.838 C 150.389,189.377 151.081,189.000 151.224,189.000 C 151.757,189.000 158.361,184.778 161.250,182.590 C 169.711,176.182 175.438,170.028 181.669,160.648 C 188.761,149.973 192.246,140.747 194.498,126.689 C 195.678,119.328 195.120,101.014 193.533,95.000 C 191.430,87.032 189.856,82.387 187.559,77.377 C 183.437,68.383 175.748,58.238 167.145,50.442 C 156.204,40.526 139.444,32.197 125.471,29.731 C 118.527,28.505 102.331,28.459 95.891,29.645 C 87.950,31.109 80.134,33.360 78.775,34.575 C 78.514,34.809 77.996,35.000 77.624,35.000 C 77.252,35.000 75.216,35.868 73.099,36.929 C 59.889,43.548 51.411,50.128 42.725,60.500 C 36.383,68.073 29.178,82.950 26.985,93.000 C 24.888,102.609 24.811,103.343 24.833,113.500 C 24.864,128.314 26.124,135.022 31.325,148.072 C 35.745,159.163 41.987,167.917 51.673,176.606 C 63.608,187.315 75.639,193.894 89.500,197.293 C 97.478,199.250 99.807,199.452 112.250,199.270 C 123.236,199.109 124.018,199.032 129.750,197.539 Z M 106.609,188.668 C 105.707,188.224 104.469,187.160 103.859,186.305 L 102.750,184.750 L 102.750,155.875 C 102.750,137.361 102.574,127.000 102.260,127.000 C 101.991,127.000 94.678,134.068 86.010,142.706 C 67.984,160.670 67.081,161.301 62.245,159.280 C 58.047,157.526 57.279,151.953 60.667,147.819 C 61.679,146.584 70.716,137.514 80.751,127.662 C 90.785,117.810 98.940,109.589 98.872,109.393 C 98.805,109.196 90.129,100.276 79.593,89.571 C 69.056,78.865 59.887,69.364 59.218,68.456 C 57.448,66.058 57.593,63.807 59.648,61.752 C 62.638,58.762 67.099,58.568 71.000,61.258 C 72.906,62.573 90.893,80.601 97.281,87.599 C 99.464,89.990 101.540,92.015 101.894,92.099 C 102.412,92.220 102.559,87.490 102.644,68.000 C 102.741,45.719 102.823,43.616 103.649,42.103 C 104.882,39.845 107.252,38.504 110.014,38.502 C 112.816,38.500 114.323,39.505 115.543,42.191 C 116.414,44.110 116.479,45.891 116.489,68.375 C 116.495,81.644 116.691,92.500 116.925,92.500 C 117.159,92.500 124.006,85.773 132.141,77.552 C 147.829,61.696 149.440,60.234 152.052,59.485 C 155.221,58.576 159.568,61.715 160.315,65.452 C 160.538,66.564 160.252,67.748 159.279,69.735 C 158.196,71.950 155.190,75.164 143.744,86.347 C 135.939,93.974 127.597,102.321 125.206,104.896 L 120.859,109.577 L 138.394,127.164 C 160.263,149.097 161.002,149.970 160.998,153.850 C 160.993,159.134 155.830,161.840 150.675,159.260 C 149.336,158.589 141.199,150.558 124.384,133.306 C 120.393,129.212 116.917,125.992 116.660,126.151 C 116.383,126.323 116.346,127.827 116.570,129.845 C 116.778,131.718 116.960,144.521 116.974,158.296 L 117.000,183.343 L 115.863,185.494 C 113.950,189.110 110.150,190.414 106.609,188.668 Z" fill="#000000" fill-rule="evenodd" /></svg>