<svg xmlns="http://www.w3.org/2000/svg" viewBox="0 0 113 114" width="113" height="114"><path d="M 52.750,102.197 C 44.400,101.425 36.646,98.300 29.225,92.715 C 12.674,80.258 7.135,55.676 16.615,36.750 C 21.799,26.401 31.536,18.008 42.750,14.224 C 53.176,10.705 65.185,11.412 75.500,16.153 C 78.453,17.510 84.143,21.344 87.136,23.992 C 93.245,29.399 98.395,38.607 100.509,47.900 C 101.297,51.366 101.314,61.938 100.537,65.750 C 98.746,74.533 94.847,82.055 88.779,88.434 C 82.775,94.745 75.889,98.889 68.000,100.938 C 64.259,101.910 56.540,102.547 52.750,102.197 Z M 52.500,90.017 L 52.500,86.534 L 48.680,82.252 C 44.285,77.325 45.304,77.247 39.375,82.967 C 37.519,84.758 36.000,86.501 36.000,86.841 C 36.000,88.074 44.387,92.128 48.719,92.987 C 52.643,93.766 52.500,93.879 52.500,90.017 Z M 68.000,91.894 C 71.691,90.596 74.497,89.192 76.277,87.753 L 77.750,86.562 L 73.511,82.281 C 71.180,79.926 69.022,78.000 68.716,78.000 C 68.409,78.000 66.567,79.816 64.621,82.035 C 61.107,86.042 61.081,86.093 60.916,89.295 C 60.825,91.069 60.825,92.741 60.916,93.010 C 61.135,93.652 64.513,93.120 68.000,91.894 Z M 34.979,75.741 L 39.203,71.570 L 36.961,69.160 C 34.180,66.170 29.367,60.131 28.565,58.627 C 27.711,57.023 28.383,55.974 34.379,49.557 C 37.196,46.543 39.500,43.895 39.500,43.672 C 39.500,43.045 29.841,33.500 29.205,33.500 C 28.595,33.500 25.747,37.575 24.096,40.811 C 21.472,45.956 20.756,49.379 20.764,56.750 C 20.771,62.946 20.926,64.238 22.115,68.000 C 23.327,71.835 26.461,77.895 28.370,80.097 C 29.324,81.197 29.715,80.940 34.979,75.741 Z M 86.780,77.246 C 90.480,71.865 93.000,63.559 92.999,56.750 C 92.998,51.560 91.213,44.250 88.927,40.074 C 86.913,36.396 84.730,33.502 83.969,33.501 C 83.539,33.500 80.969,35.758 78.257,38.518 L 73.327,43.536 L 75.301,45.643 C 76.386,46.802 78.865,49.438 80.809,51.500 C 82.753,53.562 84.593,55.722 84.899,56.300 C 85.674,57.763 84.683,59.418 79.500,65.325 C 77.162,67.988 75.056,70.494 74.818,70.892 C 74.499,71.425 75.550,72.786 78.818,76.070 C 81.256,78.519 83.581,80.460 83.985,80.383 C 84.389,80.305 85.647,78.894 86.780,77.246 Z M 68.193,66.000 C 71.923,61.737 74.980,58.020 74.987,57.738 C 74.994,57.457 73.251,55.487 71.112,53.362 L 67.224,49.497 L 64.156,52.623 L 61.087,55.750 L 60.975,64.500 C 60.858,73.677 60.873,74.295 61.206,73.958 C 61.319,73.844 64.464,70.263 68.193,66.000 Z M 52.500,64.704 L 52.500,55.907 L 49.296,52.704 C 47.534,50.942 45.903,49.517 45.671,49.538 C 45.440,49.560 43.643,51.413 41.680,53.657 C 38.715,57.044 38.206,57.875 38.680,58.550 C 40.141,60.633 51.645,73.500 52.047,73.500 C 52.301,73.500 52.500,69.633 52.500,64.704 Z M 52.500,32.250 L 52.500,21.000 L 51.274,21.000 C 49.143,21.000 44.375,22.449 40.750,24.198 C 34.313,27.305 34.070,26.312 43.500,35.452 C 48.038,39.850 51.919,43.460 52.125,43.474 C 52.331,43.488 52.500,38.438 52.500,32.250 Z M 69.718,35.532 C 78.797,26.439 78.619,27.087 72.815,24.278 C 68.579,22.227 65.394,21.135 63.000,20.912 L 61.250,20.750 L 61.116,32.125 C 61.042,38.381 61.157,43.500 61.371,43.500 C 61.586,43.500 65.342,39.914 69.718,35.532 Z" fill="#000000" fill-rule="evenodd" /></svg>