<svg xmlns="http://www.w3.org/2000/svg" viewBox="0 0 452 539" width="452" height="539"><path d="M 218.250,524.476 C 216.325,524.244 212.500,523.806 209.750,523.504 C 203.515,522.819 202.271,522.549 191.250,519.484 C 186.485,518.159 183.396,517.136 179.250,515.510 C 170.278,511.993 157.628,505.508 151.619,501.344 C 149.560,499.917 147.501,498.525 147.043,498.250 C 136.708,492.044 114.636,470.151 106.863,458.397 C 105.825,456.828 104.756,455.408 104.488,455.243 C 103.401,454.571 104.236,453.364 109.375,448.170 C 112.331,445.183 116.097,441.167 117.744,439.245 C 121.191,435.222 127.309,428.289 130.310,425.005 C 131.444,423.765 134.065,420.725 136.135,418.250 C 142.419,410.737 143.297,409.815 143.849,410.157 C 144.141,410.337 144.762,411.653 145.229,413.081 C 145.696,414.509 146.477,416.594 146.964,417.714 C 147.451,418.834 148.584,421.550 149.483,423.750 C 151.767,429.342 152.272,430.379 154.238,433.500 C 155.191,435.012 156.515,437.262 157.182,438.500 C 158.560,441.059 165.471,450.530 168.637,454.198 C 169.799,455.545 170.975,457.025 171.250,457.487 C 171.850,458.496 177.438,463.703 182.184,467.676 C 186.416,471.220 195.888,477.463 200.393,479.679 C 202.240,480.587 205.213,482.078 207.000,482.992 C 209.993,484.522 216.511,487.049 222.000,488.808 C 226.550,490.266 238.319,492.522 244.200,493.064 C 254.939,494.055 270.186,493.194 280.250,491.029 C 282.775,490.486 283.329,490.382 288.750,489.435 C 290.400,489.147 292.200,488.721 292.750,488.489 C 293.300,488.257 295.775,487.367 298.250,486.512 C 300.725,485.656 303.875,484.418 305.250,483.759 C 306.625,483.100 308.762,482.104 310.000,481.545 C 311.238,480.986 313.825,479.645 315.750,478.565 C 317.675,477.485 320.559,475.891 322.160,475.022 C 328.993,471.313 336.771,465.105 348.710,453.832 C 354.967,447.925 358.563,443.918 364.737,435.980 C 365.830,434.574 366.814,433.692 366.923,434.020 C 367.201,434.853 366.040,438.285 364.479,441.250 C 361.523,446.862 360.000,449.575 358.660,451.617 C 357.885,452.799 357.025,454.135 356.750,454.584 C 354.397,458.433 348.806,466.075 346.570,468.499 C 346.119,468.988 344.962,470.557 344.000,471.986 C 343.038,473.415 341.975,474.846 341.639,475.167 C 341.303,475.488 337.705,478.985 333.644,482.938 C 329.568,486.905 324.016,491.712 321.254,493.663 C 318.502,495.608 314.851,498.218 313.141,499.463 C 310.341,501.501 305.459,504.470 303.500,505.325 C 303.087,505.505 302.413,505.931 302.000,506.272 C 300.827,507.241 293.569,510.769 290.250,511.983 C 288.600,512.586 286.859,513.287 286.382,513.540 C 285.904,513.793 285.074,514.000 284.536,514.000 C 283.999,514.000 283.406,514.248 283.218,514.551 C 282.771,515.276 279.918,516.450 276.500,517.316 C 274.988,517.699 273.300,518.209 272.750,518.449 C 272.200,518.690 270.738,519.162 269.500,519.500 C 268.262,519.838 266.800,520.306 266.250,520.542 C 264.750,521.183 258.103,522.417 250.250,523.511 C 242.385,524.607 223.936,525.164 218.250,524.476 Z M 16.500,498.640 C 16.500,498.095 19.000,490.555 20.028,488.000 C 20.526,486.762 21.078,485.075 21.255,484.250 C 21.432,483.425 21.867,482.075 22.221,481.250 C 22.576,480.425 23.388,478.062 24.026,476.000 C 24.664,473.938 25.329,472.025 25.503,471.750 C 25.677,471.475 26.102,470.238 26.447,469.000 C 26.792,467.762 27.507,465.918 28.037,464.901 C 28.567,463.884 29.000,462.700 29.000,462.269 C 29.000,461.839 29.199,461.096 29.442,460.618 C 30.216,459.096 30.916,457.307 31.544,455.250 C 31.879,454.150 32.438,452.575 32.786,451.750 C 33.133,450.925 33.808,449.238 34.284,448.000 C 34.761,446.762 35.342,445.536 35.575,445.275 C 35.809,445.014 36.000,444.374 36.000,443.854 C 36.000,443.333 36.450,442.336 37.000,441.636 C 37.550,440.937 38.000,440.084 38.000,439.741 C 38.000,439.003 41.908,429.482 42.516,428.739 C 42.917,428.248 45.303,423.902 46.901,420.750 C 47.320,419.925 48.357,418.418 49.206,417.401 C 51.730,414.379 53.000,412.620 53.000,412.144 C 53.000,411.898 53.807,410.921 54.793,409.973 C 55.779,409.025 56.935,407.575 57.363,406.750 C 58.106,405.316 62.571,399.979 65.750,396.724 C 66.575,395.879 69.162,392.858 71.500,390.011 C 73.838,387.164 77.625,382.566 79.917,379.793 C 82.208,377.019 85.917,372.500 88.158,369.750 C 92.557,364.353 102.173,352.947 106.075,348.500 C 114.118,339.332 116.970,336.003 118.495,334.000 C 119.437,332.762 122.585,329.163 125.491,326.000 C 128.397,322.837 131.506,319.350 132.400,318.250 C 136.551,313.140 145.456,302.880 146.115,302.447 C 146.369,302.280 146.953,301.570 147.413,300.870 C 148.399,299.370 154.702,291.824 157.965,288.239 C 160.727,285.203 164.182,281.129 166.861,277.750 C 167.951,276.375 170.847,273.038 173.297,270.334 C 175.746,267.631 178.537,264.448 179.500,263.261 C 181.281,261.064 190.142,250.783 202.750,236.283 C 206.600,231.855 211.093,226.662 212.735,224.741 C 214.377,222.821 217.539,219.225 219.761,216.750 C 221.984,214.275 227.263,208.200 231.491,203.250 C 235.719,198.300 240.095,193.224 241.214,191.970 C 242.334,190.716 245.050,187.578 247.250,184.997 C 249.450,182.416 252.911,178.492 254.940,176.277 C 256.970,174.062 259.500,171.125 260.562,169.750 C 264.054,165.231 266.183,162.656 271.500,156.517 C 274.387,153.183 277.200,149.799 277.750,148.997 C 278.300,148.195 278.889,147.530 279.059,147.519 C 280.002,147.460 281.948,151.670 282.416,154.785 C 283.299,160.653 283.740,181.617 283.010,182.982 C 282.666,183.624 281.117,185.544 279.568,187.250 C 278.018,188.956 275.452,191.791 273.867,193.551 C 272.281,195.310 269.954,197.875 268.697,199.250 C 267.439,200.625 266.114,202.312 265.752,203.000 C 265.389,203.688 264.341,204.939 263.422,205.781 C 261.854,207.217 255.240,214.748 246.982,224.500 C 245.002,226.838 242.443,229.762 241.295,231.000 C 240.147,232.238 238.552,234.150 237.749,235.250 C 236.947,236.350 235.809,237.700 235.220,238.250 C 234.631,238.800 232.118,241.613 229.636,244.500 C 227.153,247.387 224.476,250.425 223.686,251.250 C 222.896,252.075 221.575,253.565 220.750,254.560 C 219.925,255.556 215.312,260.873 210.500,266.377 C 205.688,271.880 199.458,279.165 196.656,282.566 C 193.854,285.967 190.631,289.742 189.495,290.955 C 188.358,292.168 186.832,293.968 186.104,294.955 C 184.427,297.228 179.532,302.925 176.184,306.500 C 174.768,308.012 172.977,310.038 172.204,311.000 C 168.375,315.766 163.531,321.535 161.270,324.020 C 159.884,325.543 157.062,328.792 155.000,331.238 C 152.938,333.685 150.012,337.065 148.500,338.750 C 146.988,340.435 144.400,343.443 142.750,345.433 C 141.100,347.423 138.738,350.265 137.500,351.747 C 135.273,354.415 127.885,362.978 122.853,368.722 C 121.421,370.356 119.237,372.950 118.000,374.486 C 116.763,376.022 115.300,377.732 114.750,378.287 C 114.200,378.842 112.737,380.510 111.500,381.995 C 110.263,383.479 108.463,385.523 107.500,386.538 C 106.537,387.552 104.287,390.229 102.500,392.485 C 100.713,394.742 98.688,397.209 98.000,397.967 C 97.312,398.726 95.819,400.450 94.681,401.798 C 93.543,403.147 91.173,405.938 89.413,408.000 C 87.653,410.062 85.375,412.908 84.352,414.323 C 83.328,415.739 82.173,417.018 81.785,417.167 C 81.397,417.316 80.189,418.746 79.100,420.344 C 78.012,421.942 76.617,423.700 76.000,424.250 C 75.383,424.800 74.033,426.488 73.000,428.000 C 71.967,429.512 70.620,431.200 70.007,431.750 C 68.863,432.777 61.639,442.629 59.622,445.913 C 57.203,449.853 56.462,451.500 57.115,451.490 C 59.060,451.461 75.317,435.043 89.340,418.945 C 91.589,416.363 94.228,413.383 95.204,412.323 C 96.181,411.263 98.607,408.451 100.595,406.073 C 102.584,403.695 106.141,399.613 108.501,397.000 C 110.861,394.387 114.196,390.515 115.913,388.394 C 117.629,386.273 121.110,382.223 123.647,379.394 C 126.184,376.565 128.932,373.429 129.755,372.424 C 135.080,365.922 146.585,352.746 153.937,344.728 C 155.209,343.341 159.738,338.068 164.000,333.011 C 168.262,327.954 172.988,322.443 174.500,320.764 C 178.726,316.073 182.312,311.899 183.853,309.876 C 185.326,307.940 195.442,296.174 200.725,290.250 C 202.441,288.325 205.167,285.175 206.782,283.250 C 208.397,281.325 213.753,275.137 218.686,269.500 C 223.618,263.863 229.701,256.899 232.202,254.026 C 234.703,251.153 237.664,247.778 238.781,246.526 C 239.898,245.274 242.173,242.562 243.837,240.500 C 245.500,238.438 248.744,234.613 251.046,232.000 C 253.347,229.387 255.797,226.585 256.490,225.772 C 257.183,224.960 258.667,223.272 259.788,222.022 C 260.908,220.773 263.022,218.287 264.484,216.500 C 265.946,214.713 267.287,213.137 267.463,213.000 C 267.639,212.863 269.024,211.287 270.542,209.500 C 273.473,206.048 274.438,204.942 280.750,197.813 C 284.726,193.322 287.958,190.134 289.349,189.329 C 290.022,188.939 293.750,188.195 301.250,186.952 C 302.900,186.678 308.272,186.409 313.188,186.352 C 321.222,186.260 322.183,186.339 322.686,187.125 C 323.062,187.714 323.082,188.229 322.747,188.701 C 322.194,189.481 314.958,197.753 312.395,200.536 C 307.531,205.817 303.373,210.556 301.459,213.000 C 299.163,215.931 294.285,221.690 292.704,223.335 C 290.140,226.004 286.851,229.709 283.013,234.250 C 279.168,238.799 268.168,251.398 267.516,252.000 C 267.366,252.137 266.603,253.110 265.819,254.161 C 264.283,256.221 256.328,265.269 254.970,266.500 C 254.516,266.913 253.277,268.375 252.218,269.750 C 251.160,271.125 249.721,272.826 249.022,273.530 C 248.322,274.234 246.062,276.801 244.000,279.235 C 241.938,281.669 239.350,284.696 238.250,285.961 C 237.150,287.226 234.802,290.059 233.033,292.256 C 229.967,296.063 226.926,299.543 222.334,304.500 C 221.188,305.737 219.912,307.225 219.500,307.807 C 217.010,311.318 214.902,313.836 210.475,318.586 C 207.739,321.520 204.678,325.008 203.672,326.336 C 202.666,327.664 201.700,328.863 201.525,329.000 C 201.351,329.137 199.562,331.219 197.550,333.625 C 195.538,336.031 193.700,338.000 193.464,338.000 C 193.229,338.000 192.522,338.750 191.893,339.667 C 191.264,340.584 189.802,342.440 188.643,343.792 C 187.485,345.144 184.923,348.163 182.950,350.500 C 180.978,352.837 178.427,355.762 177.282,357.000 C 174.946,359.526 168.777,366.727 164.250,372.212 C 162.600,374.212 158.824,378.560 155.860,381.874 C 152.895,385.189 149.783,388.767 148.944,389.826 C 148.105,390.884 146.143,393.120 144.584,394.795 C 140.115,399.596 131.459,409.768 130.719,411.087 C 130.461,411.548 128.592,413.662 126.565,415.785 C 124.539,417.908 121.918,420.907 120.742,422.448 C 119.566,423.989 116.162,428.003 113.177,431.368 C 110.192,434.734 106.321,439.237 104.575,441.377 C 102.829,443.517 100.054,446.501 98.409,448.009 C 96.763,449.516 93.917,452.224 92.084,454.025 C 88.605,457.443 85.132,460.202 79.530,464.000 C 77.705,465.238 74.870,467.272 73.231,468.521 C 70.385,470.689 67.600,472.443 61.752,475.750 C 60.293,476.575 58.666,477.644 58.135,478.125 C 57.605,478.606 56.886,479.000 56.538,479.000 C 56.189,479.000 55.307,479.421 54.577,479.935 C 53.847,480.450 51.450,481.829 49.250,483.001 C 41.713,487.017 39.749,488.093 39.250,488.485 C 38.975,488.700 36.388,490.049 33.500,491.483 C 30.612,492.916 26.900,494.779 25.250,495.622 C 19.273,498.676 18.532,499.000 17.524,499.000 C 16.961,499.000 16.500,498.838 16.500,498.640 Z M 246.750,483.471 C 238.837,482.870 225.014,480.079 221.882,478.451 C 221.404,478.203 220.671,478.000 220.251,478.000 C 219.832,478.000 218.423,477.528 217.120,476.950 C 215.816,476.373 214.300,475.725 213.750,475.510 C 210.810,474.363 203.396,470.494 200.795,468.750 C 190.096,461.577 187.971,459.890 181.429,453.378 C 176.846,448.817 170.000,440.985 170.000,440.304 C 170.000,439.027 175.015,441.957 177.120,444.464 C 177.599,445.034 178.408,445.500 178.918,445.500 C 179.428,445.500 180.252,445.950 180.750,446.500 C 181.248,447.050 181.960,447.500 182.333,447.500 C 182.705,447.500 184.189,448.329 185.630,449.342 C 189.077,451.766 197.456,455.983 198.845,455.992 C 199.448,455.997 200.080,456.225 200.250,456.500 C 200.420,456.775 200.968,457.000 201.468,457.000 C 201.968,457.000 202.639,457.316 202.960,457.701 C 203.280,458.087 205.163,458.773 207.146,459.225 C 209.128,459.678 211.537,460.249 212.500,460.493 C 229.467,464.803 243.263,464.930 258.750,460.917 C 264.314,459.475 266.020,458.900 267.750,457.884 C 268.575,457.400 269.646,457.003 270.130,457.002 C 270.615,457.001 272.021,456.550 273.255,456.000 C 274.490,455.450 276.510,454.550 277.745,454.000 C 278.979,453.450 280.120,453.000 280.279,453.000 C 280.439,453.000 281.510,452.355 282.660,451.566 C 283.809,450.778 286.100,449.419 287.750,448.546 C 295.604,444.390 296.396,443.889 302.766,439.049 C 307.109,435.749 316.729,426.252 320.036,422.000 C 321.639,419.938 323.601,417.462 324.394,416.500 C 326.648,413.766 329.685,409.094 331.872,404.997 C 332.973,402.936 334.342,400.462 334.915,399.500 C 336.765,396.394 338.575,392.811 339.589,390.250 C 340.133,388.875 340.873,387.075 341.233,386.250 C 342.256,383.908 344.871,376.938 345.453,375.000 C 347.226,369.102 348.755,363.260 349.511,359.500 C 349.815,357.988 350.272,355.738 350.526,354.500 C 350.780,353.262 351.216,350.619 351.494,348.625 C 351.772,346.631 352.225,343.438 352.500,341.529 C 353.137,337.104 353.151,317.829 352.520,313.808 C 352.256,312.126 351.678,308.050 351.236,304.750 C 350.333,298.001 349.323,293.055 348.023,289.000 C 347.538,287.488 346.863,285.238 346.522,284.000 C 346.182,282.762 345.570,280.973 345.161,280.023 C 344.753,279.073 344.088,277.273 343.683,276.023 C 343.278,274.773 342.533,272.850 342.026,271.750 C 339.547,266.365 338.423,264.084 337.347,262.250 C 336.701,261.150 335.496,259.012 334.670,257.500 C 333.843,255.988 331.048,251.636 328.459,247.829 C 325.869,244.022 322.916,239.671 321.897,238.158 C 320.877,236.646 319.021,234.212 317.772,232.750 C 315.650,230.266 314.991,228.971 315.875,229.022 C 316.295,229.046 324.950,235.136 329.074,238.309 C 331.450,240.136 343.405,251.790 346.967,255.750 C 348.444,257.391 353.135,263.391 354.795,265.759 C 356.016,267.503 361.000,275.510 361.000,275.729 C 361.000,275.860 363.072,279.664 366.752,286.289 C 368.642,289.692 368.856,290.132 370.267,293.500 C 371.016,295.288 372.059,297.714 372.585,298.892 C 374.406,302.973 376.978,311.471 378.444,318.250 C 380.907,329.639 381.155,332.368 381.171,348.250 C 381.186,362.793 381.104,364.244 379.844,371.750 C 378.236,381.323 377.887,383.046 376.497,388.250 C 375.909,390.450 375.306,392.872 375.156,393.631 C 375.007,394.391 374.686,395.135 374.442,395.286 C 374.199,395.436 374.000,395.953 374.000,396.436 C 374.000,396.918 373.550,398.244 373.000,399.382 C 372.450,400.520 372.000,401.691 372.000,401.983 C 372.000,402.275 371.809,402.904 371.576,403.382 C 371.343,403.859 370.417,405.825 369.517,407.750 C 360.735,426.544 350.594,440.539 337.222,452.320 C 328.902,459.650 319.983,466.286 316.217,467.949 C 315.649,468.200 314.324,468.989 313.272,469.703 C 312.221,470.416 311.024,471.000 310.614,471.000 C 310.203,471.000 308.300,471.799 306.385,472.775 C 302.581,474.713 296.122,477.397 293.750,478.024 C 273.808,483.297 262.180,484.645 246.750,483.471 Z M 231.500,433.500 C 231.500,433.225 231.738,433.000 232.030,433.000 C 232.321,433.000 232.420,432.775 232.250,432.500 C 232.080,432.225 231.223,431.992 230.345,431.982 C 228.719,431.964 225.583,430.571 227.000,430.496 C 231.721,430.246 241.618,428.199 246.168,426.531 C 251.090,424.726 257.912,421.129 260.215,419.125 C 260.926,418.506 261.803,418.000 262.164,418.000 C 263.030,418.000 266.251,415.305 271.672,410.042 C 277.517,404.367 284.765,393.726 286.513,388.250 C 286.864,387.150 287.470,385.760 287.860,385.161 C 288.686,383.890 290.401,377.559 291.087,373.250 C 291.875,368.294 292.152,353.613 291.521,350.260 C 289.888,341.590 289.666,340.669 288.500,337.750 C 288.280,337.200 287.723,335.470 287.263,333.906 C 286.803,332.341 286.105,330.795 285.713,330.469 C 285.321,330.144 285.000,329.478 285.000,328.990 C 285.000,326.702 276.899,315.412 271.000,309.478 C 264.255,302.692 254.061,296.151 248.000,294.720 C 247.037,294.492 246.081,294.266 245.875,294.216 C 245.669,294.166 245.162,294.097 244.750,294.062 C 243.576,293.965 243.871,292.107 245.200,291.237 C 245.860,290.804 246.961,289.618 247.647,288.600 C 248.332,287.583 250.324,285.250 252.072,283.416 C 253.820,281.583 257.163,277.769 259.500,274.941 C 261.837,272.113 266.225,266.969 269.250,263.509 C 272.275,260.049 275.556,256.244 276.542,255.053 C 278.048,253.232 278.486,252.968 279.292,253.395 C 279.819,253.674 281.262,254.198 282.500,254.560 C 283.738,254.921 284.975,255.499 285.250,255.843 C 285.525,256.188 286.922,257.320 288.354,258.360 C 297.464,264.971 303.130,270.316 310.840,279.569 C 314.294,283.713 321.000,294.191 321.000,295.442 C 321.000,295.800 321.450,296.664 322.000,297.364 C 322.550,298.063 323.000,299.062 323.000,299.585 C 323.000,300.108 323.331,301.041 323.736,301.658 C 324.614,302.999 326.436,308.356 327.083,311.500 C 329.405,322.784 329.676,325.664 329.696,339.250 C 329.716,353.435 329.846,352.126 327.050,365.750 C 326.648,367.706 324.386,374.764 323.524,376.750 C 323.285,377.300 322.620,378.777 322.045,380.033 C 321.470,381.288 321.000,382.474 321.000,382.667 C 321.000,382.860 320.149,384.420 319.110,386.134 C 318.070,387.848 316.898,390.038 316.505,391.000 C 314.564,395.755 305.287,407.390 299.434,412.410 C 295.224,416.022 287.868,421.210 285.000,422.591 C 284.312,422.922 283.411,423.472 282.998,423.813 C 281.120,425.360 273.256,428.792 268.750,430.031 C 267.925,430.258 266.350,430.690 265.250,430.990 C 264.150,431.291 262.125,431.731 260.750,431.969 C 259.375,432.206 256.337,432.760 254.000,433.199 C 249.101,434.121 231.500,434.356 231.500,433.500 Z M 220.000,420.988 C 212.847,420.084 203.534,415.974 197.992,411.276 C 195.022,408.758 188.000,400.935 188.000,400.144 C 188.000,399.915 187.377,398.945 186.615,397.989 C 185.853,397.033 184.926,395.575 184.556,394.750 C 184.186,393.925 183.686,392.862 183.446,392.388 C 182.493,390.512 180.476,381.872 180.184,378.413 C 179.853,374.494 180.833,368.307 182.261,365.297 C 183.146,363.433 198.272,346.027 202.435,342.084 C 208.986,335.878 215.387,333.236 223.750,333.284 C 228.142,333.309 230.172,333.715 234.250,335.383 C 236.542,336.320 237.181,336.811 240.586,340.250 C 244.796,344.502 247.865,349.500 246.267,349.500 C 245.878,349.500 245.420,349.275 245.250,349.000 C 245.080,348.725 244.596,348.500 244.174,348.500 C 243.753,348.500 242.840,348.053 242.146,347.508 C 239.287,345.259 231.121,344.106 226.138,345.249 C 222.314,346.126 219.935,347.124 219.008,348.241 C 218.661,348.658 218.168,349.000 217.912,349.000 C 217.027,349.000 213.950,351.759 212.055,354.253 C 211.008,355.630 209.611,358.217 208.951,360.003 C 207.920,362.791 207.750,364.134 207.752,369.500 C 207.753,375.851 207.964,376.898 210.158,381.430 C 211.424,384.045 217.169,389.791 220.068,391.341 C 224.962,393.959 228.752,394.968 235.000,395.317 C 242.462,395.734 246.417,394.853 254.071,391.070 C 260.914,387.687 267.319,382.483 271.117,377.222 C 273.728,373.604 280.000,361.823 280.000,360.536 C 280.000,359.221 280.922,360.176 281.228,361.808 C 281.797,364.841 280.290,376.636 278.744,381.250 C 277.246,385.721 273.112,393.502 271.092,395.652 C 270.491,396.291 270.000,397.001 270.000,397.228 C 270.000,399.281 252.942,414.922 250.603,415.014 C 250.409,415.022 249.594,415.697 248.792,416.514 C 247.990,417.331 246.853,418.000 246.267,418.000 C 245.680,418.000 244.986,418.189 244.725,418.420 C 244.245,418.844 241.402,419.494 235.534,420.523 C 231.234,421.276 223.999,421.493 220.000,420.988 Z M 74.781,372.051 C 74.629,371.804 73.829,369.536 73.004,367.013 C 70.330,358.830 69.204,350.938 68.330,334.250 C 68.065,329.199 68.756,316.934 69.498,313.500 C 69.766,312.262 70.308,309.450 70.703,307.250 C 71.829,300.989 74.687,290.672 75.545,289.775 C 75.795,289.514 76.000,288.986 76.000,288.601 C 76.000,288.019 78.876,281.542 80.540,278.375 C 80.793,277.894 81.196,277.106 81.436,276.625 C 84.206,271.063 85.363,268.931 86.573,267.160 C 87.358,266.010 88.000,264.929 88.000,264.757 C 88.000,264.586 89.069,262.782 90.375,260.749 C 91.681,258.716 93.875,255.234 95.250,253.012 C 96.625,250.789 98.206,248.358 98.763,247.610 C 99.319,246.862 100.097,245.575 100.491,244.750 C 100.885,243.925 101.554,242.834 101.978,242.325 C 103.497,240.505 110.602,226.921 112.871,221.500 C 114.260,218.182 116.599,209.627 117.587,204.250 C 118.258,200.599 118.237,187.735 117.555,184.250 C 115.611,174.327 113.981,169.419 111.866,167.127 C 111.296,166.509 110.983,165.850 111.171,165.663 C 111.548,165.285 116.813,167.291 118.000,168.264 C 118.412,168.603 119.537,169.272 120.500,169.752 C 121.463,170.232 123.188,171.384 124.334,172.312 C 125.480,173.241 126.657,174.000 126.949,174.000 C 127.797,174.000 134.572,180.991 136.640,184.000 C 139.301,187.871 142.285,194.518 143.238,198.699 C 143.684,200.652 144.319,203.150 144.649,204.250 C 145.449,206.914 145.476,226.870 144.682,228.549 C 144.370,229.210 143.837,230.762 143.499,232.000 C 143.161,233.238 142.699,234.812 142.473,235.500 C 141.540,238.339 141.412,239.998 142.105,240.263 C 142.876,240.559 148.090,238.996 150.517,237.741 C 155.249,235.294 160.506,228.385 163.255,221.000 C 163.716,219.762 164.301,218.300 164.554,217.750 C 165.518,215.661 166.526,209.532 166.832,203.895 C 167.299,195.306 166.617,190.950 161.679,171.000 C 159.305,161.407 158.543,153.905 158.761,142.250 C 158.917,133.876 160.177,125.344 161.491,123.761 C 161.766,123.429 161.872,123.038 161.725,122.892 C 161.499,122.666 163.211,116.967 164.471,113.750 C 166.199,109.342 172.127,98.308 173.739,96.500 C 174.351,95.812 175.535,94.237 176.370,93.000 C 179.030,89.054 188.012,80.384 192.500,77.430 C 197.602,74.073 205.513,69.847 205.925,70.259 C 206.088,70.421 206.003,70.711 205.736,70.902 C 204.949,71.465 204.076,73.266 202.968,76.612 C 201.902,79.831 201.217,81.593 200.442,83.118 C 200.199,83.596 200.000,84.844 200.000,85.893 C 200.000,86.942 199.745,88.055 199.434,88.366 C 199.122,88.678 198.565,90.579 198.196,92.591 C 197.826,94.604 197.294,97.150 197.012,98.250 C 196.340,100.879 196.728,117.993 197.534,121.250 C 197.874,122.625 198.568,125.002 199.076,126.533 C 199.584,128.064 200.000,129.795 200.000,130.379 C 200.000,130.963 200.225,131.580 200.500,131.750 C 200.775,131.920 201.000,132.499 201.000,133.036 C 201.000,133.574 201.212,134.404 201.471,134.882 C 201.730,135.359 202.754,137.438 203.746,139.500 C 209.486,151.432 218.210,162.316 232.000,174.750 C 238.002,180.162 238.561,181.723 235.620,184.871 C 234.855,185.690 233.229,187.685 232.007,189.305 C 230.784,190.925 227.132,195.096 223.892,198.574 C 220.651,202.052 218.000,205.101 218.000,205.350 C 218.000,205.600 217.189,206.579 216.198,207.527 C 215.207,208.475 212.901,211.157 211.073,213.488 C 209.245,215.819 206.569,218.947 205.125,220.441 C 203.681,221.934 202.500,223.330 202.500,223.542 C 202.500,223.755 201.682,224.789 200.682,225.839 C 199.682,226.890 196.737,230.225 194.138,233.250 C 191.538,236.275 188.692,239.537 187.813,240.500 C 186.934,241.463 185.211,243.488 183.984,245.000 C 182.758,246.512 181.503,247.975 181.195,248.250 C 180.888,248.525 179.685,250.035 178.523,251.606 C 177.360,253.176 175.979,254.598 175.454,254.764 C 174.930,254.931 174.500,255.428 174.500,255.869 C 174.500,256.311 173.501,257.629 172.279,258.799 C 171.058,259.969 169.512,261.787 168.843,262.839 C 167.759,264.543 163.558,269.349 157.941,275.310 C 156.873,276.443 156.000,277.530 156.000,277.725 C 156.000,277.920 154.514,279.805 152.698,281.915 C 140.658,295.901 137.794,299.210 134.000,303.516 C 127.830,310.518 124.630,314.223 121.306,318.215 C 118.137,322.021 115.021,325.538 111.936,328.793 C 110.871,329.916 110.000,331.089 110.000,331.399 C 110.000,331.710 108.703,333.378 107.117,335.107 C 103.560,338.984 98.706,344.601 97.016,346.796 C 96.320,347.699 93.725,350.728 91.250,353.525 C 88.775,356.323 86.188,359.341 85.500,360.233 C 84.812,361.126 82.836,363.632 81.108,365.803 C 79.379,367.974 77.498,370.369 76.926,371.125 C 75.844,372.557 75.252,372.813 74.781,372.051 Z M 326.160,285.125 C 325.990,284.644 325.451,283.800 324.963,283.250 C 324.475,282.700 323.237,280.675 322.212,278.750 C 321.187,276.825 319.651,274.554 318.799,273.704 C 317.947,272.854 316.477,271.089 315.531,269.783 C 314.586,268.477 313.027,266.810 312.068,266.079 C 311.108,265.348 309.206,263.569 307.840,262.126 C 306.475,260.683 304.154,258.704 302.684,257.728 C 301.213,256.752 299.795,255.552 299.533,255.061 C 299.128,254.304 292.971,250.137 289.323,248.151 C 288.719,247.822 287.695,246.990 287.049,246.302 L 285.873,245.051 L 289.062,241.069 C 294.996,233.658 297.248,231.069 297.794,231.035 C 298.556,230.986 307.122,241.194 310.291,245.928 C 316.187,254.735 320.089,261.955 324.246,271.750 C 325.513,274.734 326.925,280.311 327.126,283.125 C 327.324,285.885 326.806,286.956 326.160,285.125 Z M 348.893,223.388 C 348.487,222.762 348.009,221.350 347.830,220.250 C 347.651,219.150 347.299,217.238 347.048,216.000 C 346.798,214.762 346.351,212.410 346.056,210.773 C 345.413,207.209 339.582,195.380 337.105,192.614 C 336.186,191.589 333.900,188.838 332.024,186.500 C 327.265,180.570 325.404,179.187 321.200,178.455 C 316.546,177.644 304.907,178.274 294.113,179.921 C 292.321,180.195 291.328,180.145 291.012,179.764 C 290.757,179.457 290.533,174.715 290.516,169.228 C 290.482,158.919 289.873,149.028 289.159,147.209 C 288.556,145.675 281.377,139.344 276.500,136.046 C 269.589,131.374 260.842,127.437 253.250,125.581 C 249.899,124.762 245.276,124.000 243.656,124.000 C 241.367,124.000 240.650,122.850 242.061,121.439 C 243.047,120.453 249.259,108.446 252.506,101.250 C 253.127,99.875 254.392,97.564 255.317,96.115 C 256.243,94.666 257.000,93.260 257.000,92.990 C 257.000,91.589 259.116,92.933 262.724,96.625 C 267.705,101.722 273.497,106.878 278.750,110.892 C 280.950,112.573 283.875,114.826 285.250,115.898 C 290.432,119.939 316.712,137.000 317.755,137.000 C 317.907,137.000 319.500,137.985 321.295,139.190 C 325.153,141.778 327.808,144.774 332.606,151.957 C 334.551,154.868 337.404,158.858 338.946,160.823 C 340.488,162.788 342.612,165.600 343.665,167.073 C 348.127,173.310 363.398,189.750 374.902,200.700 L 379.554,205.128 L 378.402,206.367 C 377.768,207.048 374.438,209.485 371.000,211.782 C 367.562,214.078 363.786,216.642 362.607,217.479 C 361.429,218.315 360.275,219.000 360.044,219.000 C 359.812,219.000 359.346,219.333 359.009,219.740 C 358.421,220.448 357.348,221.084 353.500,223.003 C 350.354,224.573 349.698,224.628 348.893,223.388 Z M 338.703,148.104 C 338.407,147.909 336.908,146.103 335.372,144.090 C 331.014,138.379 327.659,135.089 322.964,131.922 C 320.582,130.315 318.378,129.000 318.066,129.000 C 316.933,129.000 317.558,127.794 320.368,124.555 C 321.945,122.737 323.356,121.138 323.503,121.000 C 323.932,120.599 337.816,104.820 343.741,98.000 C 346.727,94.562 350.538,90.256 352.210,88.431 C 353.882,86.606 357.275,82.800 359.750,79.974 C 362.225,77.148 366.050,72.891 368.250,70.513 C 370.450,68.135 373.980,64.178 376.095,61.720 C 381.346,55.616 384.559,52.576 384.868,53.419 C 385.412,54.907 391.190,62.084 393.283,63.873 C 394.513,64.925 397.428,66.772 399.760,67.976 C 403.791,70.058 404.000,70.248 404.000,71.829 C 404.000,72.973 403.678,73.688 402.967,74.121 C 401.971,74.727 391.995,86.017 390.537,88.188 C 390.144,88.772 388.294,90.825 386.425,92.750 C 384.556,94.675 380.939,98.777 378.388,101.866 C 375.837,104.955 370.974,110.693 367.580,114.616 C 352.391,132.178 353.545,130.803 342.302,144.750 C 339.125,148.691 339.319,148.510 338.703,148.104 Z M 407.250,63.260 C 405.875,62.928 404.050,62.488 403.194,62.280 C 401.054,61.761 397.130,58.698 395.012,55.893 C 392.699,52.830 390.453,46.846 390.136,42.904 C 389.950,40.579 390.179,38.632 391.009,35.500 C 391.962,31.904 392.529,30.788 394.690,28.250 C 399.709,22.356 402.350,20.855 409.162,20.024 C 415.570,19.242 421.294,21.165 426.503,25.848 C 434.410,32.957 436.127,42.738 431.225,52.755 C 429.074,57.153 423.378,62.193 419.192,63.405 C 416.652,64.139 410.596,64.066 407.250,63.260 Z" fill="#000000" fill-rule="evenodd" /></svg>