<svg xmlns="http://www.w3.org/2000/svg" viewBox="0 0 450 442" width="450" height="442"><path d="M 219.250,429.204 C 212.854,427.690 209.085,426.113 204.641,423.096 C 203.007,421.986 200.788,420.036 199.710,418.762 C 197.567,416.228 196.828,415.951 189.000,414.743 C 184.197,414.002 170.658,410.608 166.500,409.102 C 164.988,408.555 161.838,407.494 159.500,406.745 C 157.162,405.996 153.113,404.485 150.500,403.387 C 146.089,401.533 144.083,400.616 134.000,395.850 C 125.852,391.998 116.258,386.076 103.327,376.916 C 96.382,371.997 82.159,358.267 75.445,350.000 C 68.907,341.951 60.050,329.342 55.778,322.000 C 53.706,318.440 47.719,306.117 46.061,302.000 C 45.231,299.938 43.844,296.562 42.980,294.500 C 39.630,286.503 34.663,269.471 32.783,259.536 L 31.607,253.321 L 27.791,249.615 C 19.196,241.267 16.106,233.717 16.638,222.359 C 17.159,211.218 20.773,203.957 29.765,195.983 L 31.758,194.215 L 32.905,186.983 C 34.363,177.787 37.396,166.019 40.246,158.500 C 40.715,157.262 41.773,154.450 42.597,152.250 C 43.421,150.050 44.292,147.800 44.533,147.250 C 44.773,146.700 45.896,144.113 47.028,141.500 C 51.740,130.623 60.205,116.259 67.180,107.304 C 68.014,106.234 69.271,104.506 69.973,103.465 C 72.376,99.901 83.584,87.526 90.049,81.297 C 97.296,74.315 102.484,70.272 114.500,62.239 C 129.850,51.978 143.689,45.010 159.133,39.766 C 166.803,37.162 184.341,32.699 191.500,31.530 C 193.562,31.193 195.773,30.815 196.413,30.690 C 197.053,30.564 198.853,29.106 200.413,27.449 C 203.463,24.209 208.352,20.740 212.606,18.796 C 217.863,16.393 226.584,15.745 232.917,17.285 C 237.878,18.491 245.049,22.616 249.074,26.579 C 252.692,30.140 253.676,30.606 259.500,31.512 C 265.856,32.501 284.193,37.332 295.500,40.996 C 297.368,41.601 299.061,42.340 313.500,48.856 C 319.892,51.740 340.700,64.945 348.121,70.827 C 361.097,81.111 374.377,94.574 381.830,105.000 C 385.287,109.835 393.000,121.367 393.000,121.700 C 393.000,121.822 394.081,123.795 395.402,126.086 C 398.792,131.964 404.171,143.193 406.979,150.250 C 411.977,162.813 414.626,172.032 417.453,186.709 L 418.890,194.167 L 422.674,197.709 C 429.956,204.525 433.983,213.973 433.987,224.250 C 433.990,233.655 430.341,241.652 422.386,249.677 C 420.245,251.836 418.410,254.086 418.308,254.677 C 414.324,277.728 409.647,292.887 401.082,310.501 C 394.338,324.370 388.488,333.595 377.802,347.217 C 372.125,354.453 355.508,370.797 348.185,376.346 C 341.888,381.119 332.579,387.373 328.250,389.738 C 326.875,390.490 325.525,391.275 325.250,391.482 C 324.975,391.690 322.950,392.830 320.750,394.015 C 318.550,395.200 316.075,396.538 315.250,396.987 C 314.425,397.436 312.512,398.326 311.000,398.964 C 307.504,400.439 304.571,401.734 300.603,403.555 C 298.871,404.350 297.237,405.000 296.971,405.000 C 296.704,405.000 296.096,405.224 295.618,405.498 C 292.608,407.226 280.931,410.810 272.000,412.747 C 268.837,413.434 265.291,414.221 264.118,414.497 C 262.945,414.774 261.292,415.000 260.445,415.000 C 256.986,415.000 253.788,416.464 248.996,420.242 C 244.039,424.148 241.585,425.550 235.750,427.802 C 232.770,428.952 231.358,429.175 226.250,429.297 C 222.950,429.376 219.800,429.335 219.250,429.204 Z M 232.963,418.975 C 241.703,416.101 247.393,409.841 249.805,400.444 C 250.742,396.794 250.501,390.908 249.247,386.792 C 247.819,382.107 243.973,377.418 238.459,373.638 C 231.767,369.050 221.959,368.743 213.582,372.859 C 209.731,374.750 204.555,380.058 202.624,384.095 C 196.717,396.445 201.210,410.853 212.934,417.154 C 219.372,420.614 226.114,421.227 232.963,418.975 Z M 191.722,405.546 C 191.876,405.296 191.636,403.664 191.188,401.921 C 189.902,396.914 190.440,389.903 192.525,384.500 C 193.427,382.163 194.711,379.270 195.378,378.071 C 196.046,376.873 196.403,375.733 196.171,375.537 C 195.690,375.132 191.816,374.212 188.500,373.716 C 184.652,373.140 161.452,365.032 159.250,363.494 C 158.975,363.302 156.075,361.733 152.806,360.007 C 131.709,348.873 117.638,336.899 101.655,316.481 C 99.172,313.307 96.240,309.257 95.142,307.481 C 88.291,296.403 87.000,294.248 87.000,293.896 C 87.000,293.681 86.190,291.760 85.201,289.627 C 80.263,278.984 74.565,261.524 73.756,254.556 C 73.561,252.875 73.234,251.500 73.028,251.500 C 72.823,251.500 72.226,251.975 71.702,252.556 C 70.270,254.143 63.152,257.571 59.750,258.312 C 54.901,259.368 48.551,259.155 43.383,257.764 C 42.067,257.409 42.032,257.449 42.446,258.823 C 42.682,259.608 43.128,261.431 43.438,262.875 C 44.853,269.482 45.269,271.165 47.055,277.500 C 48.101,281.212 49.867,286.481 50.979,289.208 C 52.090,291.934 53.000,294.331 53.000,294.533 C 53.000,295.463 59.881,309.653 62.925,315.000 C 64.375,317.548 73.310,331.041 76.886,336.083 C 81.025,341.920 94.414,356.226 102.166,363.096 C 106.489,366.927 115.235,373.512 121.920,377.969 C 129.183,382.810 145.023,390.968 154.050,394.517 C 155.535,395.100 157.425,395.872 158.250,396.230 C 161.240,397.531 167.495,399.473 179.750,402.906 C 183.600,403.984 187.537,405.099 188.500,405.382 C 190.806,406.062 191.385,406.091 191.722,405.546 Z M 264.092,405.236 C 272.041,403.576 279.587,401.570 283.750,400.010 C 285.125,399.494 288.275,398.351 290.750,397.468 C 293.225,396.586 296.262,395.434 297.500,394.908 C 301.665,393.138 314.120,386.885 318.367,384.432 C 320.684,383.095 322.686,382.000 322.817,382.000 C 322.948,382.000 324.336,381.150 325.902,380.112 C 327.469,379.073 329.373,377.907 330.135,377.521 C 330.897,377.136 332.610,375.904 333.942,374.785 C 335.274,373.666 339.263,370.475 342.807,367.694 C 355.081,358.061 366.163,346.731 373.807,336.000 C 383.732,322.066 392.909,305.947 396.863,295.500 C 397.435,293.988 398.503,291.192 399.235,289.288 C 401.997,282.103 403.078,278.301 406.720,262.968 C 407.946,257.810 408.535,258.219 399.875,258.218 C 393.299,258.217 391.734,258.057 388.500,257.052 C 383.942,255.637 381.186,254.298 379.416,252.640 C 378.682,251.953 377.853,251.532 377.574,251.704 C 377.295,251.876 376.827,253.307 376.534,254.884 C 375.709,259.312 374.968,262.628 374.498,264.000 C 374.262,264.688 373.244,267.950 372.236,271.250 C 371.227,274.550 369.644,278.885 368.718,280.883 C 367.792,282.881 366.709,285.469 366.312,286.633 C 364.593,291.670 352.737,312.260 349.546,315.750 C 348.792,316.575 346.251,319.613 343.901,322.500 C 339.211,328.262 327.751,339.678 322.250,344.069 C 317.320,348.004 307.521,354.537 302.500,357.238 C 290.812,363.523 282.625,367.117 273.000,370.185 C 269.837,371.193 266.238,372.351 265.000,372.759 C 261.365,373.956 257.045,375.000 255.726,375.000 C 255.052,375.000 254.500,375.281 254.500,375.624 C 254.500,375.968 255.398,378.049 256.495,380.249 C 259.790,386.857 260.844,395.109 259.240,401.750 C 258.061,406.635 257.911,406.527 264.092,405.236 Z M 207.569,365.293 C 213.935,361.934 218.139,360.852 225.000,360.809 C 232.122,360.764 234.879,361.403 241.337,364.591 L 246.424,367.103 L 250.087,366.506 C 259.368,364.993 271.243,361.547 282.674,357.048 C 288.087,354.918 303.237,346.824 307.000,344.052 C 326.829,329.445 343.768,310.510 352.365,293.340 C 353.629,290.815 355.285,287.738 356.044,286.500 C 360.504,279.235 366.709,259.092 368.545,245.917 C 369.104,241.900 369.077,241.463 368.175,239.917 C 366.972,237.859 365.299,233.534 364.483,230.373 C 363.121,225.100 364.817,213.289 367.773,207.454 C 369.307,204.426 369.350,201.633 367.979,193.962 C 363.898,171.133 350.125,143.849 333.655,125.967 C 322.884,114.271 311.897,105.227 300.389,98.580 C 296.547,96.361 284.900,90.515 279.987,88.340 C 271.655,84.650 253.915,80.003 247.852,79.920 C 245.076,79.883 244.250,80.136 240.000,82.328 C 234.222,85.308 231.376,86.005 225.087,85.982 C 218.895,85.959 215.607,85.151 209.992,82.273 L 205.463,79.951 L 198.856,81.012 C 195.223,81.596 190.787,82.503 189.000,83.027 C 187.213,83.552 183.838,84.529 181.500,85.198 C 152.906,93.387 125.141,112.991 107.618,137.364 C 101.037,146.516 93.135,160.569 90.444,167.905 C 87.419,176.151 86.281,179.791 84.722,186.205 C 82.276,196.264 82.050,197.373 81.697,201.031 C 81.414,203.966 81.540,204.677 82.885,207.781 C 85.206,213.133 86.088,216.804 86.363,222.250 C 86.672,228.401 86.057,231.847 83.654,237.431 C 82.034,241.195 81.808,242.196 81.897,245.222 C 82.189,255.245 87.695,273.347 94.802,287.654 C 100.786,299.700 109.545,312.466 118.222,321.788 C 137.249,342.229 160.780,356.626 186.500,363.562 C 190.041,364.517 191.495,364.888 198.750,366.685 C 202.977,367.732 202.935,367.739 207.569,365.293 Z M 55.100,249.468 C 59.955,248.494 62.188,247.538 66.250,244.696 C 71.365,241.117 73.564,238.228 75.744,232.218 C 78.257,225.290 77.872,219.317 74.455,212.234 C 70.449,203.927 60.777,198.022 51.151,198.006 C 46.396,197.998 40.758,199.798 36.447,202.701 C 32.685,205.234 30.754,207.465 28.611,211.754 C 26.257,216.467 25.800,218.399 25.774,223.750 C 25.754,227.923 25.951,229.246 26.964,231.750 C 30.929,241.551 38.067,247.383 48.662,249.478 C 51.628,250.064 52.135,250.063 55.100,249.468 Z M 406.268,248.207 C 409.018,247.425 413.292,244.825 415.924,242.334 C 418.242,240.140 421.742,235.169 423.048,232.217 C 424.517,228.895 424.702,219.984 423.376,216.360 C 419.677,206.247 412.379,199.873 402.310,197.964 C 393.410,196.276 381.800,201.943 376.866,210.383 C 374.256,214.849 373.345,218.936 373.625,224.920 C 373.787,228.376 374.179,230.953 374.740,232.250 C 376.166,235.546 379.900,240.827 382.299,242.939 C 385.540,245.791 391.245,248.397 396.000,249.198 C 397.964,249.528 403.502,248.994 406.268,248.207 Z M 73.208,194.179 C 73.381,193.728 74.092,190.522 74.789,187.054 C 76.821,176.933 79.828,167.698 84.062,158.575 C 85.128,156.279 86.000,154.331 86.000,154.247 C 86.000,153.894 93.000,141.980 95.105,138.750 C 102.067,128.066 115.235,113.308 125.310,104.897 C 131.640,99.612 135.489,96.946 144.830,91.376 C 162.342,80.933 174.450,76.094 189.604,73.481 C 192.549,72.973 195.427,72.307 195.999,72.000 C 197.031,71.448 197.026,71.417 195.441,68.596 C 194.561,67.031 193.689,65.525 193.502,65.250 C 193.316,64.975 192.620,63.400 191.957,61.750 C 190.905,59.136 190.750,57.945 190.750,52.500 C 190.750,48.650 191.016,45.333 191.444,43.861 C 191.826,42.547 192.038,41.371 191.915,41.248 C 191.556,40.890 184.226,42.278 178.000,43.883 C 165.727,47.048 151.534,52.426 142.567,57.308 C 140.743,58.302 137.390,60.094 135.116,61.292 C 127.990,65.044 120.567,69.664 115.500,73.500 C 114.537,74.229 111.612,76.405 109.000,78.337 C 101.480,83.896 86.560,98.777 78.831,108.425 C 68.887,120.838 65.144,126.683 58.285,140.500 C 54.117,148.895 49.973,158.935 48.070,165.250 C 46.089,171.820 45.398,174.250 45.010,176.000 C 44.797,176.963 44.013,180.411 43.267,183.664 C 42.521,186.916 42.036,189.703 42.189,189.856 C 42.343,190.009 43.150,189.852 43.983,189.507 C 44.931,189.114 47.911,188.879 51.941,188.879 C 57.578,188.879 58.883,189.045 62.365,190.205 C 64.554,190.934 67.562,192.288 69.048,193.214 C 72.177,195.164 72.777,195.303 73.208,194.179 Z M 382.750,192.192 C 387.973,189.294 395.272,188.128 403.250,188.915 C 405.725,189.159 407.916,189.214 408.118,189.036 C 408.320,188.859 408.162,187.485 407.767,185.982 C 407.371,184.479 406.331,180.100 405.454,176.250 C 404.578,172.400 402.994,166.887 401.936,164.000 C 400.877,161.113 400.009,158.598 400.006,158.411 C 399.994,157.718 393.919,143.624 392.177,140.250 C 384.459,125.300 380.844,119.692 369.748,105.457 C 363.057,96.875 347.093,82.082 335.482,73.708 C 317.641,60.840 301.169,52.730 278.250,45.531 C 272.950,43.866 258.500,40.986 258.500,41.594 C 258.500,41.680 258.838,43.514 259.250,45.669 C 260.855,54.054 259.657,60.671 255.099,68.615 C 254.097,70.360 254.084,70.510 254.898,70.946 C 255.377,71.202 256.664,71.569 257.759,71.762 C 271.664,74.211 290.282,81.814 306.750,91.767 C 316.827,97.857 317.989,98.724 329.250,108.547 C 348.834,125.630 363.220,147.764 372.941,175.767 C 373.517,177.426 374.750,182.183 375.682,186.338 C 376.613,190.493 377.536,194.154 377.734,194.474 C 377.994,194.894 378.458,194.813 379.421,194.178 C 380.152,193.696 381.650,192.802 382.750,192.192 Z M 233.500,74.940 C 244.105,70.515 250.000,61.975 250.000,51.039 C 250.000,45.930 248.805,41.871 246.027,37.542 C 244.389,34.990 239.351,30.000 238.412,30.000 C 238.133,30.000 237.307,29.598 236.577,29.107 C 233.785,27.228 227.333,25.764 223.716,26.190 C 219.607,26.672 213.163,28.890 211.363,30.441 C 210.476,31.206 209.369,31.970 208.903,32.139 C 207.719,32.570 203.851,37.614 202.350,40.685 C 198.782,47.984 199.728,57.652 204.753,65.221 C 208.266,70.514 213.782,74.676 219.087,76.037 C 222.192,76.834 230.471,76.204 233.500,74.940 Z M 400.180,398.557 C 399.041,397.808 397.241,396.934 396.180,396.613 C 389.259,394.520 380.264,391.968 377.500,391.314 C 370.175,389.582 358.016,388.053 350.000,387.856 C 344.466,387.721 344.126,387.305 347.563,384.881 C 348.835,383.984 351.535,382.045 353.563,380.572 L 357.250,377.894 L 365.000,378.159 C 371.920,378.396 381.359,379.692 384.202,380.796 C 385.064,381.131 385.127,380.982 384.867,379.208 C 384.710,378.131 383.990,374.550 383.269,371.250 C 382.483,367.651 381.845,362.849 381.676,359.250 L 381.394,353.250 L 383.399,350.500 C 384.502,348.988 386.677,345.894 388.234,343.625 C 389.790,341.356 391.275,339.500 391.532,339.500 C 391.789,339.500 392.000,341.175 392.000,343.223 C 392.000,347.967 392.853,358.780 393.560,363.000 C 395.042,371.850 397.988,382.774 401.076,390.876 C 403.030,396.001 403.691,399.519 402.750,399.779 C 402.475,399.855 401.318,399.305 400.180,398.557 Z M 46.693,397.411 C 46.867,396.538 47.712,393.894 48.569,391.536 C 49.426,389.179 50.534,386.125 51.032,384.750 C 55.452,372.530 57.964,357.954 57.990,344.375 C 57.995,341.419 58.202,339.000 58.448,339.000 C 58.694,339.000 59.642,340.181 60.554,341.625 C 61.467,343.069 63.627,346.120 65.355,348.405 C 67.082,350.690 68.639,353.132 68.815,353.830 C 69.185,355.303 68.365,362.767 66.739,372.750 C 66.111,376.600 65.713,379.937 65.853,380.166 C 65.994,380.394 66.703,380.428 67.430,380.241 C 71.325,379.236 81.019,377.941 86.500,377.692 L 92.750,377.408 L 95.349,379.079 C 101.642,383.124 106.000,386.280 106.000,386.791 C 106.000,387.154 103.544,387.462 98.875,387.686 C 84.028,388.398 68.868,391.431 53.750,396.715 C 50.175,397.965 47.053,398.990 46.812,398.994 C 46.572,398.997 46.518,398.285 46.693,397.411 Z M 377.447,374.734 C 375.881,373.904 369.397,372.501 367.125,372.500 C 366.231,372.500 365.500,372.266 365.500,371.980 C 365.500,371.246 374.496,360.783 375.289,360.594 C 375.705,360.495 376.054,361.133 376.248,362.344 C 376.535,364.138 376.802,365.188 378.697,371.995 C 379.117,373.504 379.301,374.894 379.105,375.082 C 378.910,375.271 378.164,375.114 377.447,374.734 Z M 72.176,372.875 C 72.344,371.981 72.823,369.562 73.240,367.500 C 73.658,365.438 73.999,363.032 73.999,362.155 C 74.000,361.277 74.232,360.416 74.515,360.241 C 75.090,359.886 84.955,369.898 84.982,370.865 C 84.992,371.204 84.381,371.603 83.625,371.752 C 79.798,372.507 77.044,373.169 75.108,373.801 C 72.036,374.803 71.825,374.736 72.176,372.875 Z M 57.767,105.291 C 58.148,102.240 57.201,88.083 56.260,82.750 C 55.592,78.970 53.908,72.058 52.483,67.250 C 50.099,59.208 46.958,49.802 46.453,49.193 C 45.752,48.349 46.215,47.000 47.206,47.000 C 47.611,47.000 48.687,47.433 49.596,47.961 C 50.506,48.490 53.694,49.735 56.682,50.728 C 59.669,51.721 62.707,52.830 63.432,53.194 C 66.056,54.509 78.665,57.548 84.494,58.269 C 87.774,58.675 93.955,59.043 98.229,59.087 C 104.259,59.148 106.000,59.312 106.000,59.820 C 106.000,60.180 105.269,60.845 104.375,61.299 C 103.481,61.752 100.612,63.642 98.000,65.497 C 95.388,67.353 92.367,69.156 91.288,69.503 C 88.031,70.552 79.182,69.678 70.103,67.412 C 67.823,66.842 65.826,66.507 65.667,66.666 C 65.507,66.826 66.000,70.623 66.762,75.103 C 68.119,83.083 68.616,91.451 67.887,94.038 C 67.688,94.746 66.038,97.333 64.221,99.788 C 62.404,102.242 60.481,105.094 59.949,106.125 C 59.416,107.156 58.631,108.000 58.204,108.000 C 57.557,108.000 57.484,107.551 57.767,105.291 Z M 390.047,105.125 C 388.952,103.544 387.146,101.125 386.032,99.750 C 382.729,95.671 381.999,93.651 382.010,88.630 C 382.022,83.196 383.667,73.602 385.276,69.582 C 386.610,66.248 386.169,65.952 381.963,67.363 C 376.731,69.117 370.559,70.093 364.159,70.177 L 358.569,70.250 L 355.068,67.750 C 353.143,66.375 349.941,64.013 347.953,62.500 L 344.338,59.750 L 348.544,59.425 C 350.857,59.246 355.562,59.073 359.000,59.041 C 364.390,58.991 370.510,58.300 375.000,57.235 C 375.688,57.072 377.262,56.697 378.500,56.401 C 382.742,55.389 396.041,50.834 402.380,48.222 C 403.552,47.739 404.672,47.505 404.868,47.702 C 405.065,47.898 404.525,50.014 403.669,52.404 C 402.813,54.795 401.184,59.337 400.050,62.500 C 395.287,75.773 392.820,88.489 392.799,99.875 C 392.790,104.344 392.616,108.000 392.410,108.000 C 392.205,108.000 391.142,106.706 390.047,105.125 Z M 73.334,85.625 C 73.206,85.144 73.068,83.400 73.027,81.750 C 72.963,79.119 72.615,77.075 71.687,73.875 C 71.495,73.214 71.726,73.000 72.635,73.000 C 74.257,73.000 83.504,75.803 84.197,76.504 C 84.602,76.915 84.267,77.489 82.940,78.657 C 81.944,79.533 79.542,81.656 77.601,83.375 C 75.661,85.094 73.959,86.500 73.820,86.500 C 73.681,86.500 73.462,86.106 73.334,85.625 Z M 371.896,82.638 C 367.138,78.205 365.741,76.592 366.234,76.099 C 366.425,75.907 368.194,75.492 370.166,75.177 C 372.137,74.862 374.650,74.366 375.750,74.076 C 376.849,73.786 377.924,73.724 378.139,73.939 C 378.353,74.153 378.188,75.773 377.772,77.539 C 377.355,79.305 377.011,82.044 377.007,83.625 C 377.003,85.206 376.784,86.500 376.521,86.500 C 376.258,86.500 374.176,84.762 371.896,82.638 Z M 217.593,410.997 C 216.935,410.719 216.474,410.129 216.525,409.629 C 216.690,408.021 216.512,407.609 214.750,405.500 C 213.266,403.723 213.000,403.028 213.000,400.920 C 213.000,398.583 213.155,398.284 215.601,395.902 L 218.202,393.368 L 217.052,391.309 C 212.473,383.113 211.434,379.000 213.944,379.000 C 215.113,379.000 219.942,384.133 222.290,387.871 C 223.388,389.619 224.610,390.993 225.068,390.996 C 225.772,390.999 231.500,384.643 231.500,383.858 C 231.500,383.703 230.807,382.884 229.959,382.036 C 228.075,380.151 228.275,379.226 230.548,379.321 C 231.484,379.361 233.451,379.447 234.918,379.513 L 237.586,379.634 L 237.270,381.319 C 237.096,382.245 236.162,384.496 235.195,386.320 C 233.432,389.642 233.433,390.253 235.196,390.576 C 239.442,391.355 234.994,399.172 227.290,404.473 C 226.030,405.339 225.000,406.262 225.000,406.524 C 225.000,406.786 225.891,407.000 226.980,407.000 C 228.068,407.000 230.663,407.253 232.746,407.563 C 235.648,407.995 236.656,408.358 237.063,409.117 C 237.443,409.828 237.432,410.268 237.022,410.679 C 236.291,411.410 219.232,411.689 217.593,410.997 Z M 223.408,402.794 C 223.548,401.125 223.799,400.811 225.658,399.988 C 228.188,398.868 230.653,396.545 231.512,394.472 C 233.241,390.297 228.274,391.833 223.264,397.022 C 220.297,400.095 219.935,400.676 220.236,401.881 C 220.644,403.513 221.964,405.094 222.714,404.849 C 223.009,404.752 223.321,403.827 223.408,402.794 Z M 172.000,394.792 C 164.869,392.242 161.516,390.871 161.077,390.324 C 160.277,389.329 161.317,387.662 162.939,387.337 C 164.055,387.114 164.724,386.521 165.436,385.125 C 166.656,382.735 167.973,382.052 171.693,381.883 L 174.635,381.750 L 175.902,379.401 C 177.305,376.799 179.518,375.454 180.934,376.341 C 182.216,377.144 182.167,378.692 180.753,382.097 C 178.690,387.066 176.893,392.614 176.818,394.243 C 176.731,396.157 176.041,396.236 172.000,394.792 Z M 173.201,388.893 C 173.996,386.642 173.341,386.000 170.250,386.000 C 168.145,386.000 167.393,386.197 167.157,386.812 C 166.844,387.629 167.064,387.832 170.206,389.627 C 172.066,390.689 172.613,390.555 173.201,388.893 Z M 147.647,385.457 C 147.043,385.233 145.388,384.252 143.968,383.275 C 142.549,382.299 141.244,381.489 141.069,381.475 C 140.894,381.461 139.695,381.396 138.407,381.331 C 135.908,381.204 134.000,379.979 134.000,378.500 C 134.000,377.573 135.379,376.153 137.128,375.278 C 137.967,374.859 138.250,374.280 138.250,372.984 C 138.250,371.474 138.424,371.230 139.595,371.095 C 142.184,370.796 144.000,374.071 142.228,375.844 C 141.563,376.509 141.551,376.761 142.145,377.656 C 142.989,378.926 144.341,379.826 144.766,379.401 C 144.939,379.228 144.699,378.505 144.233,377.794 C 143.424,376.560 143.432,376.463 144.422,375.626 C 144.992,375.144 146.254,373.229 147.228,371.370 C 149.845,366.372 150.134,366.000 151.395,366.000 C 152.627,366.000 155.500,367.302 155.500,367.860 C 155.500,368.045 154.926,368.795 154.224,369.527 C 152.896,370.914 150.000,377.423 150.000,379.023 C 150.000,379.744 150.450,379.976 152.086,380.096 C 153.234,380.181 154.258,380.510 154.362,380.828 C 154.641,381.676 151.695,384.834 150.110,385.387 C 149.359,385.649 148.251,385.680 147.647,385.457 Z M 117.892,368.109 C 116.989,367.344 115.350,366.073 114.250,365.285 C 111.405,363.245 107.500,359.403 107.500,358.644 C 107.500,358.290 107.980,358.000 108.566,358.000 C 109.152,358.000 110.354,357.554 111.236,357.009 C 112.118,356.464 114.619,355.757 116.795,355.439 C 118.970,355.120 121.281,354.662 121.929,354.422 C 123.408,353.872 122.925,353.198 119.462,350.975 C 117.698,349.844 117.000,349.073 117.000,348.259 C 117.000,345.927 119.916,345.155 122.898,346.697 C 124.762,347.661 127.000,350.283 127.000,351.503 C 127.000,352.951 128.225,353.826 130.733,354.170 C 133.806,354.591 135.000,355.296 135.000,356.687 C 135.000,358.353 133.163,358.991 127.568,359.270 C 124.918,359.402 121.812,359.631 120.666,359.779 C 116.735,360.288 116.570,362.397 120.278,364.740 C 123.212,366.595 123.327,366.837 121.965,368.287 C 120.507,369.839 119.904,369.813 117.892,368.109 Z M 96.256,348.306 C 96.115,347.863 95.893,347.157 95.761,346.739 C 95.630,346.320 95.124,345.836 94.636,345.663 C 92.644,344.955 92.000,343.893 91.992,341.298 C 91.982,337.758 91.619,337.346 88.880,337.757 C 86.634,338.093 86.607,338.080 84.797,335.710 C 83.584,334.121 83.142,333.158 83.475,332.825 C 83.808,332.492 86.825,332.546 92.514,332.986 C 98.456,333.447 101.211,333.489 101.575,333.125 C 101.939,332.761 101.484,331.969 100.079,330.522 C 98.969,329.378 97.667,327.411 97.186,326.152 C 96.316,323.873 96.317,323.857 97.461,322.931 C 99.190,321.531 100.229,321.792 101.684,323.989 C 102.408,325.083 103.000,326.131 103.000,326.317 C 103.000,327.043 105.588,330.000 106.223,330.000 C 106.592,330.000 107.593,330.653 108.447,331.451 C 109.823,332.736 110.000,333.217 110.000,335.671 C 110.000,338.833 109.540,339.345 107.473,338.489 C 106.456,338.067 104.692,337.991 101.719,338.238 C 96.686,338.658 96.075,339.281 98.435,341.589 C 100.764,343.865 100.413,346.152 97.381,348.453 C 96.646,349.011 96.472,348.988 96.256,348.306 Z M 73.233,318.375 C 71.835,317.030 69.907,314.138 67.984,310.500 C 65.198,305.229 64.972,304.566 65.265,302.546 C 65.744,299.246 66.348,298.000 67.470,298.000 C 68.675,298.000 72.153,299.877 76.399,302.818 C 78.131,304.018 79.650,305.000 79.774,305.000 C 80.133,305.000 80.036,303.203 79.657,302.824 C 79.068,302.235 78.092,298.988 77.745,296.462 C 77.427,294.155 77.473,294.026 78.712,293.715 C 80.408,293.289 81.312,294.088 81.742,296.393 C 82.248,299.108 84.878,305.054 86.211,306.500 C 86.846,307.188 87.965,309.087 88.699,310.722 L 90.033,313.694 L 88.892,314.824 C 87.992,315.714 86.998,316.008 84.208,316.211 C 79.759,316.534 79.508,316.638 78.061,318.758 C 77.406,319.716 76.550,320.500 76.156,320.500 C 75.763,320.500 74.448,319.544 73.233,318.375 Z M 80.394,312.211 C 81.983,312.004 82.970,311.643 82.866,311.308 C 82.771,311.001 80.837,309.827 78.569,308.700 C 76.301,307.572 73.604,305.828 72.576,304.825 C 70.760,303.051 69.500,302.501 69.500,303.482 C 69.500,304.229 74.048,311.669 74.949,312.397 C 75.389,312.753 76.200,312.935 76.750,312.800 C 77.300,312.666 78.940,312.401 80.394,312.211 Z M 57.307,285.476 C 55.044,282.787 53.227,274.783 54.525,273.220 C 56.185,271.219 64.540,268.250 69.477,267.905 C 71.627,267.755 71.722,267.809 72.195,269.445 C 72.619,270.913 72.541,271.257 71.617,272.006 C 70.733,272.722 66.607,273.897 60.125,275.279 C 58.857,275.550 58.716,276.498 59.566,279.050 C 60.524,281.930 60.887,282.076 64.250,280.943 C 68.100,279.646 74.133,279.421 75.247,280.533 C 75.959,281.245 75.950,281.387 75.141,282.082 C 73.202,283.746 63.250,287.000 60.097,287.000 C 59.030,287.000 58.214,286.555 57.307,285.476 Z M 273.314,394.485 C 271.902,392.807 271.227,390.208 271.739,388.418 C 272.039,387.372 273.969,382.475 275.788,378.149 C 276.814,375.707 278.548,374.773 280.723,375.491 C 281.692,375.811 282.941,376.653 283.500,377.363 C 284.910,379.156 287.119,386.603 286.716,388.207 C 286.186,390.318 281.499,393.961 277.504,395.367 C 275.023,396.241 274.742,396.182 273.314,394.485 Z M 280.233,389.448 C 282.181,387.737 282.355,386.732 281.350,383.000 C 280.693,380.563 280.152,379.500 279.570,379.500 C 278.790,379.500 277.046,384.032 276.721,386.903 C 276.207,391.450 277.163,392.143 280.233,389.448 Z M 304.165,381.375 C 303.424,380.206 302.048,377.715 301.107,375.839 C 299.246,372.132 298.555,371.587 296.756,372.406 C 295.713,372.882 295.427,372.748 294.290,371.258 C 292.899,369.434 293.001,368.226 294.590,367.722 C 295.850,367.321 298.778,367.859 300.672,368.839 C 302.022,369.537 302.204,369.518 303.135,368.588 C 304.038,367.684 304.082,367.355 303.572,365.327 C 302.912,362.707 303.181,361.669 304.640,361.206 C 305.374,360.973 305.922,361.177 306.469,361.887 C 306.899,362.444 307.866,363.695 308.619,364.666 C 309.484,365.782 310.497,366.491 311.369,366.591 C 312.531,366.725 312.879,367.139 313.564,369.204 C 314.012,370.554 314.765,372.314 315.238,373.115 C 316.205,374.751 315.964,377.416 314.667,379.428 C 314.073,380.350 313.606,380.546 312.522,380.329 C 311.392,380.103 310.857,380.369 309.611,381.776 C 307.448,384.220 305.897,384.106 304.165,381.375 Z M 308.586,378.173 C 309.480,377.363 309.838,376.000 309.157,376.000 C 308.658,376.000 306.500,378.101 306.500,378.587 C 306.500,379.273 307.614,379.052 308.586,378.173 Z M 307.203,373.049 C 308.676,371.511 308.783,369.866 307.426,369.605 C 306.406,369.409 304.369,372.577 304.798,373.694 C 305.228,374.816 305.608,374.714 307.203,373.049 Z M 269.263,380.525 C 268.843,379.713 268.500,378.725 268.500,378.328 C 268.500,376.337 272.620,377.344 272.913,379.407 C 273.292,382.067 270.502,382.921 269.263,380.525 Z M 328.601,368.872 C 326.407,366.228 328.525,361.225 330.853,363.553 C 331.258,363.958 331.636,363.757 332.258,362.807 C 333.453,360.984 332.927,360.146 330.411,359.865 C 323.941,359.141 317.655,356.480 318.320,354.747 C 318.457,354.391 319.922,353.264 321.576,352.243 C 323.231,351.222 325.859,349.331 327.417,348.041 C 328.975,346.750 330.541,345.519 330.897,345.304 C 331.798,344.760 333.000,345.891 333.000,347.283 C 333.000,348.871 335.437,355.325 336.310,356.050 C 336.863,356.509 337.217,356.458 337.924,355.819 C 338.421,355.369 338.992,355.000 339.191,355.000 C 339.867,355.000 343.000,357.747 343.000,358.339 C 343.000,358.974 330.345,369.500 329.582,369.500 C 329.329,369.500 328.888,369.217 328.601,368.872 Z M 330.000,354.327 C 330.000,353.958 329.574,353.270 329.054,352.798 C 328.190,352.017 327.949,352.008 326.304,352.695 C 323.466,353.881 323.926,355.000 327.250,355.000 C 329.220,355.000 330.000,354.809 330.000,354.327 Z M 351.996,347.746 C 351.560,347.220 351.497,346.425 351.787,345.121 C 352.517,341.844 352.248,336.533 351.304,335.589 C 350.273,334.559 349.758,335.184 349.306,338.014 C 348.800,341.179 347.275,341.070 345.601,337.750 C 343.758,334.095 343.776,333.761 345.928,331.630 C 347.784,329.793 347.882,329.545 347.635,327.350 C 347.293,324.318 348.431,322.367 350.406,322.595 C 351.629,322.736 351.743,322.930 351.677,324.750 C 351.637,325.850 351.436,327.400 351.230,328.196 C 350.891,329.507 351.128,329.892 353.789,332.349 C 356.469,334.823 356.777,334.981 357.361,334.183 C 357.712,333.702 358.000,332.929 358.000,332.465 C 358.000,332.002 358.341,330.807 358.757,329.811 C 359.335,328.428 359.803,328.000 360.739,328.000 C 362.558,328.000 363.264,329.647 362.516,332.145 C 361.980,333.931 362.027,334.291 362.959,335.551 C 363.531,336.326 364.000,337.379 364.000,337.893 C 364.000,338.973 362.364,340.548 360.352,341.404 C 359.583,341.732 358.570,342.708 358.102,343.574 C 356.759,346.055 354.480,348.500 353.509,348.500 C 353.022,348.500 352.341,348.161 351.996,347.746 Z M 374.594,318.981 C 373.671,318.120 373.500,317.417 373.500,314.481 C 373.500,310.601 373.207,310.350 370.380,311.812 C 368.871,312.592 368.774,312.581 367.905,311.507 C 365.923,309.059 367.003,307.632 371.009,307.405 C 373.737,307.250 373.737,307.250 374.039,305.380 C 374.404,303.119 373.794,302.454 370.262,301.270 C 366.302,299.941 366.262,299.807 368.859,296.463 C 370.125,294.833 371.247,293.500 371.352,293.500 C 371.457,293.500 372.715,294.681 374.147,296.125 C 376.626,298.625 380.333,301.000 381.756,301.000 C 382.121,301.000 382.905,300.212 383.500,299.250 C 384.840,297.082 385.738,297.029 386.451,299.075 C 387.244,301.350 387.133,302.443 385.823,305.256 C 384.994,307.036 383.826,308.388 381.790,309.926 C 379.145,311.923 378.931,312.232 379.031,313.920 C 379.221,317.116 379.021,318.407 378.214,319.214 C 377.147,320.282 375.905,320.201 374.594,318.981 Z M 380.000,307.023 C 380.000,305.739 379.214,304.500 378.400,304.500 C 378.180,304.500 378.000,305.772 378.000,307.327 C 378.000,310.123 378.011,310.145 379.000,309.250 C 379.550,308.752 380.000,307.750 380.000,307.023 Z M 386.750,285.977 C 383.425,284.342 383.000,283.491 383.000,278.474 L 383.000,274.060 L 380.500,271.951 C 377.984,269.830 377.493,268.707 378.600,267.600 C 379.477,266.723 380.830,266.852 384.750,268.188 C 386.675,268.844 390.048,269.875 392.245,270.479 C 394.442,271.083 396.545,271.830 396.918,272.139 C 398.076,273.100 396.997,277.223 393.715,284.375 C 392.570,286.871 392.419,286.999 390.630,286.980 C 389.596,286.969 387.850,286.518 386.750,285.977 Z M 391.487,279.575 C 392.459,276.078 391.950,275.131 388.966,274.889 C 387.409,274.763 387.235,274.883 387.086,276.185 C 386.859,278.176 387.351,279.851 388.501,281.001 C 389.805,282.305 390.871,281.796 391.487,279.575 Z M 227.750,355.171 C 217.029,354.309 198.577,348.951 190.300,344.295 C 189.172,343.661 187.299,342.604 186.137,341.946 C 182.763,340.037 174.165,333.591 169.263,329.296 C 159.180,320.462 150.980,309.689 145.337,297.862 C 137.261,280.937 133.140,264.687 132.969,249.091 C 132.928,245.429 132.728,241.829 132.523,241.091 C 132.191,239.897 132.073,240.078 131.450,242.750 C 130.430,247.123 130.553,265.116 131.650,272.000 C 134.330,288.809 140.557,304.710 149.781,318.297 C 156.639,328.400 162.831,335.386 171.158,342.416 C 175.079,345.727 176.201,347.020 175.125,346.989 C 173.935,346.955 163.535,340.918 158.583,337.387 C 149.250,330.732 138.278,318.953 133.678,310.649 C 132.947,309.330 131.648,307.125 130.790,305.750 C 125.284,296.916 120.260,282.381 118.260,269.500 C 116.494,258.120 116.724,240.138 118.769,229.750 C 120.659,220.152 125.917,205.191 129.048,200.500 C 129.507,199.812 130.386,198.351 131.002,197.252 C 133.783,192.287 142.274,181.594 147.692,176.235 C 151.828,172.144 158.260,167.469 163.875,164.475 C 165.594,163.559 167.000,162.627 167.000,162.404 C 167.000,160.234 153.116,167.522 145.000,173.954 C 138.529,179.081 128.465,189.636 126.687,193.160 C 126.246,194.035 125.236,195.273 124.442,195.911 C 123.649,196.550 123.000,197.389 123.000,197.777 C 123.000,198.164 122.219,199.702 121.264,201.194 C 118.841,204.983 115.511,211.928 113.567,217.250 C 111.100,224.001 111.097,224.011 109.484,231.250 C 108.013,237.853 106.766,253.053 107.249,258.500 C 108.355,270.969 110.509,283.256 113.318,293.125 C 113.455,293.606 113.312,294.000 113.001,294.000 C 112.689,294.000 110.666,290.344 108.505,285.875 C 103.198,274.900 100.133,264.751 98.740,253.542 C 97.832,246.233 97.710,232.264 98.512,227.268 C 102.027,205.347 112.107,185.465 127.925,169.255 C 133.888,163.143 139.588,158.740 148.750,153.169 C 159.270,146.771 164.092,144.634 174.500,141.759 C 178.213,140.734 182.037,139.573 183.000,139.179 C 184.660,138.500 184.532,138.478 180.500,138.753 C 176.614,139.017 171.390,139.822 166.250,140.950 C 160.724,142.162 153.503,144.931 145.640,148.854 C 140.848,151.245 136.711,153.606 136.446,154.101 C 136.181,154.597 135.241,155.308 134.357,155.682 C 130.194,157.446 118.780,167.552 111.145,176.236 C 108.592,179.139 100.079,192.335 97.187,197.872 C 94.396,203.214 93.000,204.747 93.000,202.469 C 93.000,200.443 96.663,188.793 98.729,184.250 C 103.828,173.035 105.487,170.205 111.781,162.000 C 117.997,153.896 128.730,144.173 136.750,139.380 C 146.039,133.829 159.199,128.381 167.750,126.546 C 177.332,124.490 182.109,124.000 192.560,124.000 C 209.384,124.000 217.142,125.061 229.000,128.982 C 234.659,130.854 242.073,133.778 245.668,135.557 C 250.522,137.957 250.108,137.133 244.602,133.430 C 236.481,127.968 222.990,122.012 213.125,119.534 C 211.956,119.240 210.156,118.785 209.125,118.522 C 202.211,116.759 194.888,116.000 184.794,116.000 C 180.535,116.000 175.969,116.207 174.650,116.461 C 173.330,116.714 170.450,117.194 168.250,117.528 C 157.881,119.099 147.311,122.650 135.036,128.687 C 131.343,130.503 128.201,131.868 128.054,131.720 C 127.745,131.411 130.640,128.874 136.296,124.497 C 148.877,114.763 162.009,108.921 177.750,106.059 C 187.497,104.287 193.859,103.852 200.902,104.476 C 207.402,105.053 218.567,106.725 221.250,107.525 C 233.089,111.053 249.282,118.325 255.000,122.681 C 256.512,123.834 258.762,125.443 260.000,126.257 C 262.635,127.990 277.820,142.998 279.559,145.588 C 280.214,146.563 282.381,149.747 284.375,152.664 C 286.369,155.580 288.000,158.064 288.000,158.182 C 288.000,158.301 288.900,159.879 290.000,161.690 C 291.100,163.500 292.000,165.092 292.000,165.226 C 292.000,165.360 292.554,166.681 293.231,168.161 C 293.908,169.641 294.830,171.954 295.280,173.301 C 296.996,178.438 297.583,176.841 296.218,170.750 C 295.787,168.825 295.119,166.575 294.734,165.750 C 294.350,164.925 293.455,162.675 292.746,160.750 C 292.038,158.825 290.948,156.463 290.325,155.500 C 289.702,154.537 288.883,152.963 288.506,152.000 C 288.129,151.037 287.185,149.309 286.410,148.160 C 285.634,147.010 285.000,145.926 285.000,145.750 C 285.000,145.343 282.608,141.800 279.091,137.000 C 273.862,129.862 260.580,117.596 252.227,112.192 C 247.015,108.820 245.291,107.944 234.750,103.310 C 231.712,101.974 222.856,99.208 216.000,97.453 C 210.298,95.994 203.009,95.000 198.003,95.000 C 193.775,95.000 192.388,94.534 194.361,93.777 C 196.583,92.924 207.620,92.008 215.709,92.004 C 224.162,92.000 228.977,92.421 233.000,93.514 C 242.945,96.216 248.612,98.255 257.028,102.157 C 261.037,104.015 267.817,108.415 274.000,113.168 C 286.865,123.060 297.310,135.511 303.936,148.856 C 306.360,153.739 306.748,154.587 309.139,160.250 C 313.907,171.545 316.722,184.342 317.311,197.409 C 317.501,201.605 317.829,205.144 318.042,205.276 C 319.391,206.110 320.064,192.702 319.190,182.401 C 318.349,172.489 317.726,169.679 313.012,154.500 C 312.628,153.266 312.370,152.650 309.756,146.750 C 307.173,140.919 300.247,129.258 296.118,123.789 C 290.378,116.184 277.693,103.461 272.042,99.641 C 271.927,99.563 271.962,99.372 272.118,99.215 C 272.706,98.628 282.285,103.846 289.764,108.828 C 306.552,120.010 320.682,139.198 327.586,160.190 C 331.701,172.703 333.145,181.590 333.204,194.750 C 333.258,207.036 332.564,212.778 329.732,223.500 C 327.268,232.824 324.972,238.277 318.738,249.604 C 311.714,262.365 299.498,274.842 286.836,282.188 C 285.508,282.958 284.547,283.714 284.700,283.867 C 284.956,284.122 286.546,283.486 293.798,280.229 C 296.904,278.833 305.264,272.650 310.947,267.545 C 315.648,263.322 321.842,256.171 325.524,250.715 C 327.792,247.353 328.506,246.151 331.661,240.375 C 333.647,236.739 336.984,228.566 338.322,224.060 C 341.604,213.007 342.198,208.282 342.196,193.250 C 342.195,185.477 341.951,179.237 341.551,176.750 C 340.351,169.288 338.904,162.768 337.169,157.000 C 336.218,153.838 335.316,150.575 335.165,149.750 L 334.891,148.250 L 335.924,149.250 C 337.235,150.519 345.515,166.847 346.701,170.500 C 351.854,186.377 353.473,199.988 352.004,215.087 C 350.272,232.883 342.308,252.217 330.207,268.000 C 325.829,273.711 317.562,282.287 312.750,286.111 C 306.705,290.914 293.292,298.825 287.324,301.108 C 285.908,301.650 283.288,302.657 281.500,303.347 C 279.712,304.037 277.519,304.804 276.625,305.051 C 275.731,305.298 274.156,305.741 273.125,306.036 C 272.094,306.331 269.562,306.923 267.500,307.352 C 262.640,308.362 262.299,308.466 262.658,308.825 C 263.335,309.501 270.609,308.934 276.000,307.784 C 291.438,304.492 301.945,300.413 311.534,293.989 C 330.628,281.197 342.251,267.700 353.615,245.125 C 356.454,239.486 356.765,239.052 356.913,240.534 C 357.288,244.298 353.334,257.497 349.135,266.500 C 341.274,283.352 330.114,295.858 312.250,307.834 C 303.428,313.748 288.239,319.980 277.750,321.988 C 267.835,323.887 264.805,324.184 255.250,324.196 C 237.848,324.216 224.578,321.122 208.045,313.191 C 203.807,311.158 200.244,309.590 200.127,309.706 C 199.747,310.086 205.643,314.477 210.250,317.245 C 214.051,319.528 216.997,321.006 224.750,324.521 C 227.998,325.993 238.964,329.380 242.536,330.014 C 244.028,330.278 248.512,330.864 252.500,331.315 C 262.745,332.473 276.326,331.552 286.000,329.043 C 301.841,324.935 309.325,321.985 319.366,315.891 C 322.514,313.981 323.500,313.635 323.500,314.443 C 323.500,315.199 317.166,320.854 313.368,323.489 C 311.378,324.869 308.625,326.794 307.250,327.767 C 301.371,331.925 286.033,338.170 275.500,340.694 C 262.353,343.844 245.962,343.856 233.139,340.727 C 222.774,338.197 215.972,335.864 206.500,331.590 C 197.099,327.348 182.800,316.279 174.896,307.126 C 165.703,296.479 159.671,286.813 155.497,276.040 C 153.798,271.652 152.450,268.883 152.157,269.176 C 151.883,269.450 153.537,276.493 154.757,280.250 C 158.439,291.584 164.985,303.751 172.378,313.000 C 175.510,316.918 184.756,326.221 188.000,328.718 C 195.253,334.300 205.476,340.329 212.250,343.019 C 213.900,343.674 215.847,344.613 216.577,345.105 C 217.307,345.597 218.642,346.000 219.544,346.000 C 220.446,346.000 222.099,346.426 223.217,346.948 C 224.901,347.733 228.746,348.800 235.250,350.287 C 238.188,350.959 247.665,352.000 250.843,352.000 C 252.854,352.000 254.500,352.206 254.500,352.459 C 254.500,352.989 250.199,353.994 247.850,354.012 C 246.970,354.019 245.328,354.237 244.201,354.498 C 242.037,354.997 231.141,355.443 227.750,355.171 Z M 244.250,292.500 C 244.080,292.225 243.500,292.000 242.961,292.000 C 241.897,292.000 235.172,290.305 232.750,289.427 C 229.378,288.204 226.592,286.893 221.056,283.926 C 216.993,281.749 208.559,273.943 204.917,268.989 C 202.654,265.910 199.430,259.169 198.468,255.504 C 197.143,250.458 196.120,239.680 196.892,238.908 C 197.217,238.583 197.606,238.439 197.755,238.589 C 197.905,238.738 198.879,241.108 199.921,243.854 C 200.962,246.601 203.145,250.963 204.772,253.549 C 208.375,259.277 214.870,266.057 218.140,267.503 C 219.415,268.067 220.606,268.766 220.785,269.057 C 220.965,269.348 222.718,270.315 224.681,271.207 C 233.525,275.224 237.450,276.094 246.750,276.100 C 256.412,276.107 264.160,274.550 271.596,271.108 C 276.523,268.828 290.005,259.257 292.463,256.294 C 293.057,255.578 293.024,255.521 292.196,255.832 C 291.676,256.027 289.337,257.448 287.000,258.991 C 281.346,262.722 278.525,264.027 270.257,266.735 C 265.400,268.326 261.478,269.087 254.573,269.777 C 248.238,270.411 234.957,268.061 230.500,265.518 C 229.262,264.812 227.350,263.788 226.250,263.242 C 223.839,262.046 217.000,255.439 217.000,254.306 C 217.000,253.168 217.643,253.290 220.680,255.004 C 223.812,256.772 226.393,257.575 233.429,258.972 C 246.469,261.561 259.176,258.915 271.250,251.097 C 280.847,244.884 290.566,230.671 294.565,217.000 C 295.719,213.054 296.451,204.663 295.594,205.192 C 295.283,205.384 294.767,206.489 294.449,207.646 C 290.455,222.163 282.880,233.743 271.922,242.084 C 267.483,245.464 265.265,246.615 259.310,248.629 C 252.683,250.870 241.902,251.182 243.192,249.094 C 243.368,248.810 244.240,248.419 245.131,248.226 C 249.130,247.361 258.810,241.374 264.207,236.429 C 268.810,232.211 274.084,223.824 276.247,217.282 C 277.595,213.205 278.709,205.200 278.687,199.750 C 278.650,190.460 275.993,180.487 271.427,172.500 C 271.034,171.812 269.998,170.008 269.124,168.491 C 266.593,164.095 260.947,157.886 260.179,158.654 C 260.031,158.802 260.831,160.278 261.955,161.934 C 265.913,167.762 269.015,175.115 270.420,182.000 C 271.836,188.942 272.000,190.441 272.000,196.486 C 272.000,204.982 270.949,210.120 267.654,217.727 C 266.050,221.430 264.842,223.147 260.831,227.426 C 259.213,229.152 255.832,231.166 255.355,230.688 C 255.206,230.540 255.947,228.806 257.000,226.834 C 261.471,218.464 263.591,204.159 261.568,196.000 C 260.310,190.926 258.501,185.768 257.184,183.500 C 256.466,182.262 255.313,180.238 254.622,179.000 C 252.992,176.079 250.425,172.867 247.231,169.750 C 237.918,160.663 228.583,156.332 212.750,153.751 C 207.453,152.888 205.000,152.809 205.000,153.500 C 205.000,153.775 205.454,154.000 206.009,154.000 C 207.386,154.000 214.138,155.801 217.500,157.064 C 221.893,158.715 222.087,158.799 225.500,160.523 C 238.943,167.314 248.397,178.187 251.998,191.000 C 253.445,196.148 253.955,205.500 252.840,206.425 C 251.836,207.258 251.002,206.770 250.995,205.345 C 250.979,202.255 247.536,194.477 244.245,190.099 C 237.116,180.616 227.470,174.460 215.000,171.437 C 210.575,170.365 194.638,170.520 190.250,171.679 C 180.066,174.368 173.464,177.928 162.877,186.440 C 159.599,189.076 158.925,190.687 161.875,188.836 C 165.857,186.338 173.927,182.300 177.750,180.894 C 186.132,177.810 190.731,176.878 197.750,176.837 C 205.116,176.795 209.120,177.409 216.145,179.658 C 220.212,180.961 221.819,181.808 225.645,184.666 C 231.140,188.772 233.000,190.460 233.000,191.344 C 233.000,192.245 232.056,192.168 229.192,191.031 C 220.116,187.429 210.781,186.058 201.771,187.003 C 194.258,187.792 190.792,189.001 181.564,194.053 C 176.358,196.904 167.962,205.068 163.005,212.101 C 158.736,218.159 155.614,227.158 154.714,236.000 C 154.424,238.853 154.473,239.158 155.112,238.500 C 155.513,238.088 156.462,235.725 157.220,233.250 C 159.596,225.491 164.582,217.322 171.449,209.937 C 178.651,202.190 189.237,196.853 200.080,195.501 C 205.653,194.807 209.250,194.967 209.250,195.911 C 209.250,196.290 207.539,197.162 205.250,197.951 C 200.407,199.619 198.931,200.368 193.682,203.816 C 183.134,210.745 176.786,219.377 173.322,231.500 C 171.729,237.073 171.034,248.873 172.026,253.500 C 172.291,254.738 172.639,256.538 172.800,257.500 C 173.926,264.230 178.357,273.784 183.005,279.500 C 186.353,283.618 191.555,289.111 191.838,288.828 C 192.129,288.538 190.910,286.443 188.439,282.984 C 184.734,277.800 181.409,270.094 179.598,262.500 C 178.171,256.516 178.000,255.180 178.000,250.053 C 178.000,244.870 178.188,243.267 179.588,236.500 C 180.481,232.186 184.976,223.170 188.157,219.315 C 190.181,216.862 194.360,213.693 194.882,214.216 C 195.054,214.387 194.567,215.808 193.800,217.372 C 193.033,218.935 191.583,222.585 190.578,225.483 L 188.750,230.750 L 188.759,240.250 C 188.767,249.179 188.848,249.998 190.106,253.866 C 193.114,263.121 197.063,269.377 204.867,277.250 C 212.035,284.481 222.574,289.898 234.000,292.222 C 237.979,293.032 244.691,293.214 244.250,292.500 Z M 61.979,238.919 C 59.889,237.654 56.005,234.536 53.158,231.839 L 51.066,229.857 L 46.686,233.918 C 44.277,236.151 41.521,238.351 40.562,238.806 C 38.868,239.609 38.791,239.601 37.909,238.511 C 37.075,237.482 37.000,236.135 37.000,222.195 C 37.000,204.719 36.885,205.060 41.269,209.531 C 43.543,211.850 50.379,216.500 51.515,216.500 C 52.342,216.500 62.474,208.983 63.018,207.967 C 63.429,207.198 64.916,206.574 65.025,207.125 C 65.038,207.194 65.169,214.230 65.315,222.761 C 65.567,237.471 65.533,238.315 64.645,239.119 C 63.762,239.918 63.610,239.906 61.979,238.919 Z M 47.174,227.037 C 51.549,222.450 50.864,221.582 45.749,225.232 C 42.690,227.415 41.712,228.630 42.278,229.545 C 42.943,230.621 44.533,229.806 47.174,227.037 Z M 61.102,228.030 C 61.455,225.630 60.930,220.500 60.332,220.500 C 59.721,220.500 55.000,225.001 55.000,225.583 C 55.000,226.126 59.536,229.500 60.265,229.500 C 60.607,229.500 60.984,228.838 61.102,228.030 Z M 45.343,221.913 C 45.979,221.315 46.500,220.643 46.500,220.420 C 46.500,219.709 42.581,217.391 41.994,217.754 C 41.475,218.074 41.723,221.587 42.337,222.625 C 42.758,223.336 44.189,222.997 45.343,221.913 Z M 56.909,218.711 C 58.313,217.453 58.971,216.541 58.629,216.330 C 57.893,215.875 51.813,220.495 51.584,221.683 C 51.410,222.589 51.447,222.589 53.020,221.681 C 53.908,221.169 55.659,219.833 56.909,218.711 Z M 393.829,240.774 C 393.648,240.304 393.500,238.737 393.500,237.292 C 393.500,234.674 393.492,234.661 390.762,232.781 C 389.257,231.744 387.322,229.850 386.462,228.573 L 384.899,226.250 L 385.156,220.299 C 385.388,214.931 385.308,214.132 384.344,212.148 C 383.460,210.328 383.395,209.874 383.967,209.520 C 384.348,209.285 384.949,209.204 385.303,209.340 C 385.657,209.475 387.140,209.251 388.598,208.842 C 393.098,207.578 397.636,207.014 400.250,207.395 L 402.750,207.759 L 402.898,210.849 C 403.045,213.926 403.053,213.941 404.648,214.095 C 406.072,214.233 406.232,214.403 406.089,215.625 C 406.001,216.381 406.165,217.000 406.455,217.000 C 406.744,217.000 407.116,216.381 407.281,215.625 C 407.945,212.582 408.666,211.444 410.381,210.727 C 412.770,209.729 413.000,209.791 413.000,211.433 C 413.000,213.286 411.306,217.417 408.904,221.426 C 407.857,223.173 407.000,224.725 407.000,224.874 C 407.000,225.414 403.400,230.555 401.420,232.842 C 399.227,235.377 398.151,237.317 398.658,237.824 C 399.182,238.349 403.262,236.568 404.462,235.291 C 405.073,234.640 405.951,233.352 406.412,232.428 C 407.077,231.096 407.598,230.717 408.939,230.589 C 411.244,230.368 411.671,230.968 410.761,233.145 C 410.343,234.148 410.000,235.763 410.000,236.734 C 410.000,238.051 409.788,238.500 409.164,238.500 C 408.705,238.500 406.944,239.054 405.251,239.731 C 403.420,240.464 400.551,241.097 398.166,241.296 C 394.654,241.589 394.116,241.525 393.829,240.774 Z M 401.966,224.305 C 403.910,221.172 405.500,218.472 405.500,218.305 C 405.500,217.223 403.564,218.506 400.299,221.750 C 396.158,225.864 394.627,226.422 393.250,224.320 C 392.226,222.758 392.725,221.661 394.982,220.509 C 397.895,219.023 401.500,215.101 401.500,213.418 C 401.500,212.072 401.386,212.000 399.264,212.000 C 396.551,212.000 391.952,213.935 390.819,215.553 C 389.847,216.941 389.756,220.311 390.611,223.192 C 391.390,225.816 395.435,230.000 397.192,230.000 C 398.233,230.000 399.001,229.084 401.966,224.305 Z M 61.112,177.741 C 52.604,174.683 51.500,174.113 51.500,172.774 C 51.500,171.579 55.894,162.255 57.559,159.917 C 58.114,159.137 58.860,158.500 59.217,158.500 C 59.574,158.500 60.682,159.548 61.680,160.828 C 62.994,162.515 63.351,163.327 62.978,163.777 C 62.609,164.222 62.947,165.297 64.174,167.574 C 65.115,169.321 66.025,171.359 66.197,172.103 C 66.424,173.089 67.100,173.719 68.690,174.422 C 69.889,174.952 71.024,175.635 71.211,175.938 C 71.652,176.651 68.981,180.008 68.000,179.973 C 67.588,179.958 64.488,178.954 61.112,177.741 Z M 62.000,172.186 C 62.000,171.747 58.973,166.500 58.720,166.500 C 58.459,166.500 57.000,169.964 57.000,170.585 C 57.000,170.840 57.731,171.366 58.625,171.755 C 60.341,172.501 62.000,172.712 62.000,172.186 Z M 74.500,152.377 C 73.263,151.806 70.245,150.643 67.795,149.794 C 62.341,147.904 61.840,147.276 63.413,144.312 C 65.084,141.160 67.598,138.908 69.851,138.542 C 71.627,138.253 71.750,138.120 71.750,136.492 C 71.750,134.902 71.630,134.758 70.375,134.844 C 68.745,134.956 68.710,134.813 69.943,133.077 C 70.461,132.347 71.230,130.924 71.650,129.915 C 72.691,127.418 74.162,126.663 75.841,127.764 C 76.961,128.498 77.072,128.819 76.757,130.424 C 76.311,132.693 76.435,138.116 76.944,138.635 C 77.151,138.847 78.841,139.163 80.699,139.336 C 83.517,139.599 84.206,139.850 84.859,140.846 C 85.493,141.813 85.530,142.285 85.057,143.324 C 84.526,144.490 84.304,144.570 82.612,144.210 C 81.588,143.993 79.963,143.800 79.000,143.782 C 77.286,143.751 77.247,143.795 77.094,145.925 C 76.950,147.934 77.095,148.235 78.993,149.860 C 80.953,151.538 81.008,151.662 80.196,152.559 C 79.117,153.752 77.356,153.695 74.500,152.377 Z M 72.907,145.393 C 72.772,144.010 72.511,143.737 71.044,143.439 C 67.620,142.745 66.844,144.407 69.875,145.942 C 72.638,147.341 73.089,147.259 72.907,145.393 Z M 96.375,126.121 C 95.608,125.951 95.539,125.510 95.813,122.560 C 96.056,119.945 95.941,118.837 95.300,117.597 C 94.550,116.146 94.260,116.000 92.136,116.000 C 90.177,116.000 89.524,116.264 88.113,117.625 L 86.428,119.250 L 85.196,117.826 C 84.336,116.832 84.062,116.077 84.288,115.326 C 85.088,112.674 87.553,108.000 89.603,105.250 C 90.833,103.600 91.981,101.856 92.154,101.375 C 92.526,100.341 93.949,100.237 95.199,101.151 C 96.036,101.763 95.981,102.001 94.295,105.068 C 92.157,108.957 92.095,109.500 93.789,109.500 C 94.620,109.500 95.804,110.212 97.121,111.502 C 98.244,112.603 99.262,113.405 99.383,113.284 C 99.503,113.163 99.860,111.759 100.176,110.162 C 100.955,106.224 102.003,106.053 103.788,109.574 C 105.004,111.975 105.068,112.371 104.494,113.981 C 104.148,114.954 103.484,116.312 103.019,117.000 C 102.555,117.688 101.872,119.037 101.503,120.000 C 100.509,122.589 98.545,125.880 97.854,126.112 C 97.522,126.224 96.856,126.228 96.375,126.121 Z M 115.518,102.033 C 115.233,101.501 114.999,100.207 114.997,99.158 C 114.990,94.557 113.159,92.000 109.870,92.000 C 109.222,92.000 108.277,91.698 107.772,91.328 C 106.052,90.070 107.176,88.310 112.379,84.118 C 118.671,79.050 119.498,78.500 120.832,78.500 C 122.409,78.500 122.723,79.336 121.720,80.867 C 120.780,82.300 120.164,88.341 120.855,89.338 C 121.080,89.661 122.861,90.034 124.815,90.167 C 130.485,90.552 132.236,92.263 129.410,94.656 C 127.683,96.119 126.771,96.189 122.071,95.218 C 120.433,94.879 120.399,94.905 120.679,96.310 C 121.641,101.140 121.632,101.351 120.433,102.190 C 118.806,103.330 116.167,103.246 115.518,102.033 Z M 118.000,93.750 C 118.000,93.338 117.788,93.000 117.530,93.000 C 116.899,93.000 116.447,93.781 116.847,94.180 C 117.410,94.743 118.000,94.523 118.000,93.750 Z M 116.261,86.625 C 116.068,85.594 115.817,84.655 115.703,84.540 C 115.589,84.424 114.919,84.871 114.215,85.533 L 112.933,86.737 L 114.022,87.618 C 115.885,89.127 116.664,88.782 116.261,86.625 Z M 141.128,86.375 C 140.082,85.052 136.989,77.533 136.229,74.466 C 135.791,72.697 135.325,70.874 135.195,70.414 C 134.855,69.216 136.659,67.740 140.953,65.702 C 144.052,64.231 144.892,64.018 145.860,64.459 C 146.973,64.966 146.991,65.049 146.225,66.217 C 145.479,67.357 145.487,67.496 146.336,68.190 C 153.650,74.168 156.500,76.686 156.498,77.168 C 156.497,77.488 156.044,78.492 155.490,79.400 C 154.419,81.157 154.329,81.151 151.601,79.132 C 149.743,77.758 149.558,77.792 145.779,80.210 C 143.162,81.884 143.066,82.022 143.342,83.722 C 143.741,86.177 142.319,87.881 141.128,86.375 Z M 144.831,76.729 C 146.024,76.030 147.000,75.177 147.000,74.835 C 147.000,73.870 142.552,70.373 141.727,70.690 C 140.485,71.166 141.038,78.000 142.319,78.000 C 142.508,78.000 143.638,77.428 144.831,76.729 Z M 167.030,72.286 C 166.160,71.238 163.416,59.694 163.596,57.839 C 163.743,56.318 163.931,56.192 167.956,54.891 C 170.325,54.126 172.738,52.980 173.483,52.266 C 175.170,50.650 175.806,50.672 176.677,52.375 C 177.777,54.527 178.123,56.836 177.516,57.971 C 176.941,59.045 175.283,59.362 174.750,58.500 C 174.302,57.775 170.847,57.886 169.789,58.659 C 168.965,59.262 168.942,59.574 169.523,62.284 C 169.872,63.915 170.298,65.414 170.469,65.615 C 170.640,65.815 172.010,65.106 173.515,64.040 C 177.650,61.107 178.664,61.138 179.441,64.221 C 180.301,67.639 180.147,69.712 178.952,70.793 C 177.920,71.728 177.891,71.724 176.952,70.565 C 176.429,69.918 176.000,69.077 176.000,68.695 C 176.000,67.716 175.445,67.817 172.546,69.321 C 170.578,70.342 170.000,70.910 170.000,71.821 C 170.000,72.729 169.727,73.000 168.811,73.000 C 168.157,73.000 167.356,72.679 167.030,72.286 Z M 381.250,178.790 C 380.425,178.412 379.356,177.975 378.875,177.817 C 378.352,177.646 378.000,177.030 378.000,176.285 C 378.000,174.956 377.970,174.969 384.500,173.511 C 387.760,172.783 390.476,171.545 391.130,170.490 C 391.848,169.330 390.690,165.628 389.491,165.247 C 388.494,164.931 387.881,165.071 382.000,166.964 C 380.212,167.539 378.252,168.008 377.643,168.005 C 376.387,167.999 375.500,166.671 375.500,164.796 C 375.500,163.085 377.155,162.293 383.374,161.026 C 390.502,159.573 393.076,160.229 394.994,163.987 C 396.147,166.248 396.378,171.624 395.412,173.743 C 394.806,175.073 391.029,177.141 386.358,178.701 C 383.478,179.663 383.167,179.668 381.250,178.790 Z M 371.500,152.451 C 370.646,152.130 369.861,151.084 369.022,149.147 C 367.580,145.820 363.708,139.753 361.822,137.867 C 359.736,135.781 360.097,135.178 364.250,133.808 C 365.625,133.354 369.185,131.763 372.162,130.271 C 375.138,128.780 377.838,127.668 378.162,127.801 C 378.485,127.933 380.629,131.896 382.925,136.606 L 387.100,145.170 L 385.925,146.087 C 383.812,147.735 382.638,147.752 381.126,146.155 C 380.369,145.356 378.999,144.397 378.082,144.023 C 376.481,143.370 376.364,143.402 375.224,144.796 C 374.240,146.001 374.033,146.829 374.018,149.625 C 373.999,153.201 373.873,153.343 371.500,152.451 Z M 373.107,144.446 C 372.924,142.264 371.067,135.999 370.604,136.002 C 370.053,136.005 367.000,137.948 367.000,138.295 C 367.000,138.466 367.549,139.259 368.221,140.056 C 368.892,140.854 370.056,142.636 370.807,144.016 C 372.334,146.822 373.323,147.007 373.107,144.446 Z M 380.000,140.799 C 380.000,140.689 379.344,139.058 378.541,137.174 C 376.963,133.470 376.188,132.911 374.782,134.464 C 373.897,135.442 373.933,135.530 376.313,138.205 C 378.350,140.495 380.000,141.656 380.000,140.799 Z M 350.017,122.693 C 348.354,120.799 348.328,120.518 349.331,115.309 C 349.606,113.880 349.593,113.871 347.679,114.211 C 346.618,114.399 345.392,114.658 344.954,114.785 C 343.910,115.090 341.500,113.175 341.500,112.041 C 341.500,110.347 343.367,109.306 346.795,109.088 C 349.968,108.886 350.064,108.837 351.517,106.726 C 353.184,104.303 353.340,103.404 352.250,102.500 C 351.561,101.928 351.150,98.500 351.770,98.500 C 353.073,98.500 356.339,101.083 359.137,104.325 C 361.000,106.484 363.655,109.461 365.038,110.941 C 369.114,115.303 367.669,117.677 363.017,114.262 C 360.677,112.545 360.441,112.477 358.546,112.988 C 356.155,113.631 353.500,115.736 353.500,116.987 C 353.500,117.481 353.870,119.030 354.322,120.430 C 354.990,122.497 355.025,123.117 354.511,123.737 C 353.439,125.028 351.716,124.628 350.017,122.693 Z M 356.389,110.222 C 357.000,109.794 357.500,109.193 357.500,108.886 C 357.500,108.214 356.012,106.500 355.429,106.500 C 355.021,106.500 353.500,109.701 353.500,110.561 C 353.500,111.265 355.181,111.068 356.389,110.222 Z M 327.500,100.412 C 326.538,99.555 324.665,97.869 323.339,96.665 C 322.012,95.461 320.269,93.989 319.464,93.394 C 317.505,91.946 317.619,90.763 319.941,88.441 C 322.018,86.364 323.572,86.019 325.221,87.266 C 326.756,88.427 327.753,88.145 329.692,85.999 C 331.891,83.564 331.949,83.000 330.000,83.000 C 329.175,83.000 328.500,82.783 328.500,82.518 C 328.500,81.678 330.356,81.000 332.656,81.000 C 334.915,81.000 335.750,81.528 336.071,83.159 C 336.170,83.659 336.812,84.351 337.500,84.697 C 341.688,86.803 342.777,87.466 343.234,88.191 C 343.867,89.193 343.258,90.259 341.418,91.373 C 340.130,92.153 340.027,92.128 338.276,90.590 C 335.678,88.308 334.406,88.535 330.875,91.911 C 328.347,94.327 328.461,95.143 331.500,96.406 C 334.682,97.728 334.827,98.965 332.010,100.744 C 330.915,101.435 329.847,101.993 329.635,101.985 C 329.423,101.977 328.462,101.269 327.500,100.412 Z M 324.400,93.400 C 325.398,92.402 325.111,91.415 323.875,91.590 C 323.152,91.693 322.693,92.152 322.590,92.875 C 322.415,94.111 323.402,94.398 324.400,93.400 Z M 298.076,80.074 L 296.901,79.171 L 298.655,75.711 C 299.619,73.807 301.088,71.246 301.919,70.020 C 302.749,68.793 303.319,67.612 303.185,67.395 C 302.764,66.713 301.458,66.962 299.998,68.002 C 298.297,69.212 297.195,68.895 296.838,67.091 C 296.536,65.560 297.449,63.884 299.219,62.725 C 301.423,61.280 303.061,61.667 307.480,64.676 C 310.083,66.449 312.148,67.500 313.027,67.500 C 314.989,67.500 316.683,69.709 316.278,71.742 C 315.936,73.459 312.874,76.790 312.086,76.303 C 311.799,76.126 310.961,74.747 310.223,73.240 C 309.486,71.733 308.590,70.500 308.232,70.500 C 307.874,70.500 307.078,71.344 306.462,72.375 C 303.063,78.070 300.905,80.999 300.114,80.989 C 299.639,80.983 298.722,80.571 298.076,80.074 Z M 269.125,69.669 C 268.162,69.280 268.378,67.616 269.722,65.068 C 271.113,62.429 273.500,55.011 273.500,53.324 C 273.500,51.628 274.340,51.062 276.164,51.529 C 279.263,52.323 287.354,54.851 287.922,55.202 C 288.766,55.723 288.628,57.800 287.688,58.740 C 286.732,59.696 285.044,59.441 281.250,57.769 C 278.494,56.553 277.500,56.614 277.500,57.997 C 277.500,58.666 278.453,59.286 281.054,60.306 C 285.032,61.867 285.705,62.720 284.028,64.078 C 282.647,65.196 281.205,65.244 278.827,64.250 C 276.387,63.231 276.071,63.288 275.380,64.875 C 273.946,68.171 272.391,70.001 271.059,69.961 C 270.339,69.939 269.469,69.808 269.125,69.669 Z M 226.888,66.808 C 226.139,66.404 225.031,66.000 224.425,65.912 C 223.710,65.807 222.910,64.961 222.144,63.500 C 221.173,61.650 221.000,60.700 221.172,58.156 C 221.532,52.800 224.084,50.052 227.755,51.065 C 229.827,51.637 231.000,51.369 231.000,50.323 C 231.000,49.524 227.100,43.500 226.583,43.500 C 226.399,43.500 225.706,44.522 225.043,45.771 C 224.380,47.021 223.006,48.990 221.988,50.146 C 220.971,51.303 219.508,53.456 218.738,54.930 C 217.368,57.552 217.350,57.691 217.920,61.352 C 218.239,63.410 218.375,65.297 218.221,65.547 C 217.735,66.334 215.684,66.039 214.351,64.990 C 213.477,64.303 212.874,63.116 212.462,61.275 C 211.136,55.349 213.806,49.132 219.587,44.683 C 221.690,43.065 222.500,42.112 222.500,41.254 C 222.500,39.899 221.231,39.298 219.360,39.767 C 217.858,40.144 217.339,39.116 217.798,36.669 C 218.211,34.469 218.997,34.128 223.359,34.258 C 227.188,34.371 228.938,35.110 230.164,37.132 C 236.597,47.740 236.732,48.032 236.920,51.748 C 237.082,54.969 236.977,55.470 235.872,56.756 L 234.643,58.185 L 233.220,57.066 C 232.056,56.150 231.429,56.007 229.773,56.280 C 227.190,56.705 226.500,57.284 226.500,59.026 C 226.500,63.089 232.671,64.435 237.879,61.508 C 239.039,60.856 240.145,60.478 240.336,60.669 C 241.056,61.390 238.545,63.809 235.456,65.371 C 231.543,67.350 228.759,67.817 226.888,66.808 Z" fill="#000000" fill-rule="evenodd" /></svg>