<svg xmlns="http://www.w3.org/2000/svg" viewBox="0 0 186 192" width="186" height="192"><path d="M 90.000,180.173 C 81.288,179.343 73.916,177.548 66.000,174.327 C 51.902,168.592 40.996,160.633 31.295,149.000 C 26.848,143.667 24.248,139.647 20.905,132.931 C 14.879,120.828 12.000,108.742 12.000,95.555 C 12.000,85.842 12.988,79.752 16.106,70.250 C 21.158,54.855 29.577,42.308 41.659,32.171 C 51.072,24.272 59.041,19.852 71.296,15.731 C 74.071,14.798 79.110,13.551 82.494,12.961 C 87.813,12.032 89.974,11.917 98.448,12.116 C 103.839,12.242 108.838,12.588 109.557,12.884 C 112.143,13.951 111.791,16.390 108.894,17.483 C 100.052,20.817 91.880,26.051 85.493,32.471 C 75.993,42.018 70.150,52.169 67.187,64.271 C 65.994,69.144 65.844,70.717 65.838,78.500 C 65.831,86.936 66.126,89.440 67.957,96.500 C 70.462,106.161 77.473,117.224 86.399,125.602 C 93.015,131.813 104.283,138.456 112.250,140.845 C 120.933,143.449 124.545,144.000 132.900,143.998 C 145.101,143.996 153.035,142.058 164.848,136.197 C 171.532,132.881 173.187,132.515 174.199,134.128 C 174.799,135.086 173.497,137.816 170.089,142.750 C 157.549,160.901 139.439,173.076 116.978,178.455 C 110.186,180.081 97.510,180.889 90.000,180.173 Z M 152.177,116.125 C 149.148,108.770 148.488,108.019 143.019,105.703 C 137.366,103.310 137.207,102.622 141.875,100.760 C 143.731,100.020 145.942,98.990 146.787,98.471 C 148.304,97.540 150.251,94.183 151.462,90.415 C 152.737,86.446 154.215,86.963 155.987,92.000 C 157.664,96.768 158.423,97.567 163.720,100.145 C 166.349,101.425 168.500,102.711 168.500,103.003 C 168.500,103.295 166.756,104.339 164.625,105.323 C 158.225,108.278 157.943,108.589 154.826,116.125 C 154.400,117.156 153.803,118.000 153.500,118.000 C 153.197,118.000 152.602,117.156 152.177,116.125 Z M 106.319,95.375 C 105.932,94.756 104.552,91.841 103.253,88.897 C 101.918,85.872 100.425,83.245 99.821,82.857 C 99.232,82.480 96.500,81.216 93.750,80.049 C 91.000,78.883 88.446,77.632 88.074,77.270 C 86.893,76.121 87.882,74.672 90.641,73.511 C 92.076,72.907 94.836,71.640 96.775,70.696 C 100.094,69.080 100.404,68.782 102.070,65.615 C 103.043,63.764 104.141,61.237 104.509,60.000 C 105.335,57.220 106.324,56.000 107.750,56.000 C 109.245,56.000 110.316,57.317 111.439,60.535 C 112.718,64.201 114.745,68.114 115.911,69.170 C 116.438,69.646 119.317,71.105 122.309,72.411 C 126.678,74.319 127.782,75.008 127.912,75.909 C 128.052,76.881 127.486,77.299 123.662,79.042 C 118.202,81.533 116.504,82.428 115.340,83.433 C 114.401,84.244 113.033,87.029 111.012,92.250 C 109.358,96.522 107.720,97.613 106.319,95.375 Z M 146.032,60.060 C 145.755,59.542 145.160,58.024 144.710,56.685 C 143.254,52.352 141.013,48.198 139.549,47.115 C 138.763,46.534 136.237,45.341 133.935,44.464 C 129.190,42.655 128.000,41.812 128.000,40.257 C 128.000,39.084 128.521,38.756 133.250,36.955 C 140.330,34.257 141.500,33.063 144.046,25.947 C 145.707,21.303 146.832,19.919 148.573,20.374 C 149.667,20.660 150.183,21.637 152.488,27.782 C 153.345,30.065 154.597,32.379 155.375,33.116 C 156.131,33.832 159.203,35.397 162.201,36.592 C 170.522,39.911 170.581,41.061 162.595,44.259 C 155.639,47.044 154.964,47.632 152.813,52.768 C 151.816,55.151 151.000,57.324 151.000,57.598 C 151.000,57.872 150.535,58.749 149.966,59.548 C 148.766,61.233 146.797,61.490 146.032,60.060 Z" fill="#000000" fill-rule="evenodd" /></svg>