<svg xmlns="http://www.w3.org/2000/svg" viewBox="0 0 138 159" width="138" height="159"><path d="M 70.000,144.207 C 63.514,143.290 59.423,142.200 53.843,139.902 C 48.609,137.746 47.734,137.294 43.954,134.790 C 42.742,133.987 40.858,132.750 39.769,132.040 C 33.237,127.787 23.418,115.990 19.513,107.704 C 15.209,98.573 13.702,93.138 12.871,83.759 C 12.342,77.783 12.723,71.011 13.987,63.960 C 15.939,53.068 23.988,38.771 32.817,30.512 C 38.371,25.317 49.943,18.422 56.250,16.552 C 61.868,14.885 63.676,14.440 68.599,13.510 C 71.541,12.955 74.185,12.500 74.474,12.500 C 75.656,12.500 74.905,14.457 73.375,15.364 C 66.701,19.316 58.064,29.586 53.284,39.250 C 48.651,48.620 47.824,52.340 47.783,64.000 C 47.761,70.134 47.971,74.092 48.407,75.750 C 49.911,81.478 50.199,82.422 51.566,86.104 C 53.599,91.581 57.712,98.689 61.924,104.000 C 68.722,112.574 81.718,121.531 91.250,124.211 C 92.900,124.675 94.925,125.250 95.750,125.489 C 101.555,127.171 114.796,127.754 121.000,126.601 C 122.513,126.320 123.936,126.266 124.162,126.482 C 125.033,127.311 113.718,135.655 108.250,138.217 C 95.848,144.028 82.985,146.043 70.000,144.207 Z" fill="#000000" fill-rule="evenodd" /></svg>