<svg xmlns="http://www.w3.org/2000/svg" viewBox="0 0 324 384" width="324" height="384"><path d="M 126.250,368.975 C 115.113,366.957 98.691,362.675 97.275,361.421 C 97.014,361.189 96.391,361.000 95.891,361.000 C 94.761,361.000 82.638,355.653 79.250,353.660 C 77.875,352.851 76.412,352.052 76.000,351.883 C 75.588,351.715 73.299,350.266 70.915,348.664 C 58.650,340.420 43.770,325.667 37.923,315.954 C 37.194,314.742 35.571,312.131 34.318,310.153 C 27.597,299.543 20.990,283.913 19.020,273.961 C 18.825,272.978 18.517,271.932 18.335,271.637 C 18.153,271.343 17.443,267.794 16.758,263.750 C 15.275,254.992 14.641,247.281 15.368,246.832 C 15.648,246.658 16.682,248.198 17.688,250.289 C 21.543,258.297 27.740,265.457 35.025,270.322 C 40.445,273.941 46.905,276.784 48.854,276.409 C 49.566,276.272 49.405,275.893 47.940,274.246 C 45.217,271.186 42.703,267.280 38.130,259.000 C 32.525,248.852 28.354,228.060 29.503,216.000 C 31.051,199.762 38.285,184.461 53.646,164.936 C 61.889,154.458 67.936,143.633 69.808,136.000 C 70.673,132.476 70.973,129.831 70.969,125.750 C 70.964,119.461 70.181,115.583 68.051,111.284 C 67.230,109.629 66.651,108.183 66.763,108.070 C 67.115,107.719 70.102,109.112 73.862,111.380 C 75.849,112.579 79.112,115.181 81.112,117.163 C 85.117,121.129 87.049,124.502 89.544,131.877 C 90.811,135.622 91.024,137.004 91.025,141.500 C 91.026,144.387 90.571,150.238 90.014,154.500 C 88.665,164.827 88.695,167.430 90.197,170.395 C 92.527,174.994 96.183,177.469 101.244,177.876 C 106.205,178.274 111.323,176.014 114.467,172.039 C 118.600,166.813 120.762,161.364 121.491,154.337 C 122.397,145.599 120.684,136.103 114.979,118.250 C 111.513,107.402 109.698,95.171 110.194,86.000 C 111.655,58.956 127.873,35.337 154.250,21.838 C 160.249,18.767 171.688,14.522 172.304,15.137 C 172.765,15.598 171.996,17.075 169.511,20.500 C 167.162,23.738 162.389,33.278 160.629,38.250 C 157.435,47.277 156.822,51.024 156.785,61.750 C 156.751,71.365 156.923,73.039 158.576,79.250 C 161.549,90.413 167.131,100.295 175.109,108.518 C 181.950,115.569 186.486,118.000 192.798,118.000 C 201.671,118.000 207.989,112.639 209.528,103.802 C 210.208,99.894 209.941,96.423 208.542,91.000 C 206.713,83.907 205.913,82.073 202.190,76.433 C 200.985,74.608 200.000,72.962 200.000,72.774 C 200.000,72.174 202.157,73.088 205.426,75.072 C 207.173,76.132 208.684,77.000 208.783,77.000 C 208.883,77.000 209.929,77.682 211.107,78.516 C 212.286,79.350 213.812,80.410 214.500,80.870 C 219.377,84.136 228.937,93.264 231.696,97.288 C 235.988,103.547 237.374,105.848 239.507,110.250 C 242.385,116.192 243.198,118.535 244.796,125.500 C 247.743,138.349 246.666,153.531 241.761,168.250 C 238.908,176.814 237.804,181.731 237.777,186.000 C 237.752,189.999 237.870,190.487 239.772,194.250 C 241.542,197.752 242.130,198.452 244.500,199.875 C 250.660,203.574 258.023,200.668 262.053,192.946 C 263.104,190.933 263.229,189.856 263.548,180.000 C 263.955,167.407 264.291,165.839 268.339,157.620 C 270.652,152.923 271.858,151.125 274.369,148.625 C 276.096,146.906 277.844,145.500 278.254,145.500 C 279.193,145.500 279.184,145.625 277.988,149.203 C 276.525,153.576 276.634,160.484 278.267,166.766 C 279.408,171.157 280.261,173.582 284.243,183.750 C 288.276,194.049 288.893,195.982 291.833,207.500 C 293.074,212.364 293.173,213.522 293.184,223.250 C 293.196,235.288 292.534,240.037 289.664,248.500 C 286.744,257.108 281.409,267.411 276.939,273.072 C 275.432,274.980 275.123,276.000 276.051,276.000 C 277.053,276.000 286.965,270.452 289.882,268.258 C 293.179,265.778 298.797,260.175 300.920,257.250 C 301.718,256.150 303.223,253.675 304.265,251.750 C 307.721,245.359 308.000,245.287 308.000,250.786 C 308.000,259.229 304.804,278.221 302.536,283.250 C 302.289,283.800 301.483,286.163 300.746,288.500 C 300.009,290.837 299.129,293.200 298.791,293.750 C 298.453,294.300 297.556,296.325 296.797,298.250 C 295.246,302.183 292.504,307.430 289.088,313.000 C 278.551,330.185 261.138,346.096 243.500,354.657 C 237.500,357.569 227.262,362.000 226.534,362.000 C 226.302,362.000 224.118,362.591 221.681,363.313 C 204.752,368.328 185.751,369.730 172.567,366.937 C 169.918,366.375 167.188,365.806 166.500,365.671 C 161.028,364.599 151.845,360.868 145.500,357.138 C 138.912,353.266 135.362,350.279 130.463,344.489 C 123.765,336.572 120.804,330.948 118.173,321.142 C 117.036,316.906 116.858,315.245 116.848,308.750 C 116.830,298.415 118.092,293.004 122.360,285.109 C 126.555,277.349 132.077,271.265 139.362,266.377 C 142.452,264.304 145.500,262.953 145.500,263.656 C 145.500,263.801 144.722,265.457 143.771,267.335 C 141.215,272.384 140.466,275.840 140.160,284.000 C 139.923,290.309 140.025,291.802 140.947,295.500 C 142.871,303.213 145.502,308.566 150.344,314.624 C 156.449,322.261 163.812,326.888 172.820,328.749 C 176.914,329.594 186.535,329.729 191.500,329.010 C 198.280,328.028 206.798,324.414 211.750,320.419 C 215.953,317.028 222.106,309.561 224.189,305.323 C 229.049,295.434 230.157,280.896 227.006,268.374 C 225.632,262.910 219.036,249.763 217.746,249.916 C 217.473,249.949 216.996,252.512 216.685,255.613 C 216.007,262.368 215.000,265.638 212.395,269.538 C 205.934,279.214 193.256,281.149 185.028,273.715 C 182.418,271.358 181.130,268.880 180.203,264.438 C 179.034,258.827 180.262,252.155 185.164,237.500 C 191.162,219.567 191.399,208.259 186.045,195.427 C 182.258,186.350 176.410,178.692 168.166,172.016 C 164.564,169.099 159.232,166.102 158.660,166.673 C 158.492,166.841 158.925,168.278 159.622,169.865 C 161.956,175.175 162.218,176.514 162.195,183.000 C 162.170,190.517 160.901,196.159 157.871,202.229 C 152.514,212.959 145.625,220.944 131.535,232.750 C 129.237,234.675 124.971,238.250 122.054,240.694 C 116.110,245.675 106.985,254.817 105.244,257.535 C 104.616,258.516 103.404,259.978 102.551,260.783 C 101.698,261.588 101.000,262.387 101.000,262.559 C 101.000,262.731 99.785,264.897 98.300,267.372 C 94.218,274.176 91.939,279.262 90.963,283.750 C 89.078,292.413 88.936,293.864 89.173,302.000 C 89.516,313.822 91.173,321.164 95.804,331.390 C 96.462,332.842 97.000,334.170 97.000,334.343 C 97.000,334.515 97.530,335.352 98.178,336.203 C 98.826,337.054 99.821,338.664 100.390,339.780 C 101.861,342.669 106.811,349.227 110.487,353.157 C 115.609,358.631 126.145,366.466 130.657,368.154 C 131.155,368.340 131.445,368.685 131.300,368.920 C 130.978,369.440 128.936,369.462 126.250,368.975 Z" fill="#000000" fill-rule="evenodd" /></svg>