<svg width="91" height="73" viewBox="0 0 91 73" fill="none" xmlns="http://www.w3.org/2000/svg">
<path fill-rule="evenodd" clip-rule="evenodd" d="M0 71.7311C0 71.4841 1.942 67.4901 4.316 62.8561C6.689 58.2221 10.412 50.9431 12.588 46.6801C14.765 42.4171 16.852 38.6211 17.227 38.2431C17.805 37.6621 18.091 37.8531 19.094 39.4931C19.745 40.5581 20.833 42.6671 21.51 44.1801C22.188 45.6931 25.5 52.4391 28.871 59.1731C32.242 65.9071 35 71.5881 35 71.7981C35 72.0081 27.125 72.1801 17.5 72.1801C7.482 72.1801 0 71.9881 0 71.7311ZM16.5 54.9301C17.92 53.4191 18.696 53.3681 20.364 54.6801C21.063 55.2301 21.83 55.6801 22.067 55.6801C22.633 55.6801 22.626 54.0151 22.057 53.4051C21.814 53.1441 20.78 51.2991 19.76 49.3051C18.739 47.3111 17.721 45.6801 17.497 45.6801C17.001 45.6801 13 53.3511 13 54.3021C13 55.1251 13.99 56.1801 14.763 56.1801C15.072 56.1801 15.854 55.6181 16.5 54.9301ZM39.104 71.5551C38.819 71.2111 35.953 65.7551 32.734 59.4301C29.516 53.1051 26.235 46.7521 25.442 45.3131C24.649 43.8731 24 42.4601 24 42.1721C24 41.8841 25.546 38.4501 27.436 34.5391C36.591 15.5991 38.467 11.6471 40.013 8.05512C40.93 5.92412 41.978 4.18012 42.34 4.18012C42.703 4.18012 43 4.24712 43 4.32812C43 4.83912 49.794 20.1251 53.574 28.1171C55.183 31.5201 56.5 34.3811 56.5 34.4741C56.5 34.5661 57.871 37.5201 59.548 41.0361C61.224 44.5531 63.16 48.6671 63.85 50.1801C64.54 51.6931 66.094 55.0221 67.303 57.5801C68.511 60.1371 69.5 62.3351 69.5 62.4651C69.5 62.5951 70.4 64.6321 71.5 66.9901C72.6 69.3491 73.5 71.4821 73.5 71.7301C73.5 72.4791 39.728 72.3081 39.104 71.5551ZM43.843 37.5551C44.87 35.6081 45.952 34.1801 46.398 34.1801C46.824 34.1801 48.466 35.3051 50.047 36.6801C51.628 38.0551 53.051 39.1801 53.211 39.1801C53.775 39.1801 53.487 37.6411 52.533 35.5501C51.419 33.1091 49.118 27.9351 47.715 24.7181C44.101 16.4321 42.654 13.4811 42.115 13.3021C41.777 13.1891 41.5 13.3441 41.5 13.6461C41.5 13.9471 39.115 19.0851 36.201 25.0621C29.137 39.5491 28.847 40.6391 33.103 36.6861C34.284 35.5901 35.416 34.6901 35.619 34.6861C35.963 34.6801 38.5 38.3831 38.5 38.8911C38.5 39.0191 38.989 39.9511 39.586 40.9641C40.611 42.7011 40.711 42.7521 41.367 41.8671C41.749 41.3521 42.863 39.4111 43.843 37.5551ZM76.86 70.5551C76.445 69.6611 75.601 67.8051 74.985 66.4301C74.369 65.0551 72.658 61.4671 71.182 58.4561C69.707 55.4461 68.492 52.7461 68.483 52.4561C68.444 51.2551 73.79 41.2291 74.417 41.3271C74.785 41.3831 76.718 44.5801 78.713 48.4301C80.709 52.2801 84.29 59.0801 86.671 63.5421C89.052 68.0041 91 71.7721 91 71.9171C91 72.0621 87.988 72.1801 84.307 72.1801H77.614L76.86 70.5551ZM75.243 56.3891C75.951 55.9251 76.875 55.7321 77.476 55.9221C78.039 56.1011 78.5 56.0251 78.5 55.7541C78.5 54.9821 75.132 48.9741 74.6 48.7971C74.338 48.7091 73.435 49.9601 72.594 51.5771L71.064 54.5171L72.396 55.8481C73.967 57.4201 73.736 57.3761 75.243 56.3891ZM73.734 27.9301C73.605 27.5171 73.392 26.8371 73.261 26.4181C73.095 25.8891 72.652 25.7481 71.816 25.9581C69.893 26.4411 69.861 25.4391 71.72 23.0031C73.176 21.0951 73.402 20.4621 73.158 18.9601C72.814 16.8421 72.383 16.7691 70.172 18.4551C68.971 19.3721 68.5 20.1291 68.5 21.1441C68.5 21.9221 68.166 22.8351 67.758 23.1731C67.142 23.6841 66.928 23.5561 66.496 22.4181C66.017 21.1611 65.904 21.1121 65.112 21.8241C64.329 22.5291 64.136 22.5071 63.008 21.5901L61.765 20.5791L62.936 19.6311C64.07 18.7131 64.12 17.1801 63.016 17.1801C62.392 17.1801 62.326 15.8471 62.931 15.4731C63.168 15.3261 64.289 15.5701 65.422 16.0151C67.447 16.8111 67.517 16.8021 69.491 15.4951C70.596 14.7641 71.5 14.0661 71.5 13.9441C71.5 13.8221 70.501 13.1361 69.279 12.4211C67.152 11.1741 67.004 11.1541 65.783 11.9551C64.356 12.8891 62 12.5951 62 11.4811C62 11.1081 62.506 10.4431 63.125 10.0041C64.183 9.25412 64.198 9.16612 63.375 8.51312C62.894 8.13212 62.5 7.42612 62.5 6.94512C62.5 6.23912 62.839 6.11012 64.265 6.27712C65.775 6.45312 66.072 6.31612 66.319 5.33112C66.936 2.87412 69 4.64912 69 7.63712C69 8.90212 69.328 9.32712 70.938 10.1481C72.004 10.6921 73.017 10.9971 73.188 10.8251C73.36 10.6541 73.5 9.63612 73.5 8.56412C73.5 7.01312 73.194 6.35812 72 5.35312C69.675 3.39712 70.078 1.38412 72.533 2.69812C73.365 3.14312 73.5 3.04712 73.5 2.00912C73.5 -0.479879 75.778 -0.740879 76.174 1.70212C76.342 2.73712 76.619 2.91012 77.936 2.80312C79.17 2.70312 79.5 2.87112 79.5 3.60112C79.5 4.60112 78.028 6.18012 77.095 6.18012C75.941 6.18012 75.622 10.6481 76.75 11.0141C77.025 11.1031 77.956 10.7461 78.818 10.2201C80.02 9.48712 80.538 8.67112 81.038 6.72212C81.715 4.08012 82.87 3.32512 83.361 5.20312C83.57 6.00212 83.968 6.19412 85.175 6.07812C87.241 5.88012 87.675 7.44812 85.756 8.17812C84.459 8.67112 84.433 9.68012 85.718 9.68012C86.081 9.68012 86.645 10.0021 86.972 10.3971C87.451 10.9731 87.325 11.2721 86.325 11.9271C85.293 12.6031 84.735 12.6471 83.031 12.1881C81.302 11.7231 80.745 11.7741 79.49 12.5161C77.581 13.6431 77.618 14.1661 79.71 15.5901C81.323 16.6881 81.496 16.7081 82.932 15.9651C84.853 14.9721 85.707 14.9751 86.539 15.9771C87.103 16.6561 87.031 16.9021 86.057 17.6371L84.913 18.5001L86.081 19.2931C87.055 19.9541 87.153 20.2411 86.672 21.0081C86.353 21.5151 85.847 21.8741 85.547 21.8051C85.246 21.7361 84.739 21.6241 84.419 21.5551C84.1 21.4861 83.7 21.9761 83.53 22.6431C83.361 23.3101 82.961 23.9431 82.641 24.0501C81.96 24.2771 80.5 21.6781 80.5 20.2411C80.5 19.1071 78.289 17.1801 76.988 17.1801C76.376 17.1801 76.008 17.7281 75.77 18.9981C75.464 20.6321 75.616 21.0061 77.282 22.7121C79.385 24.8661 79.391 26.5121 77.293 25.9861C76.294 25.7351 76.01 25.9321 75.574 27.1831C75.014 28.7881 74.116 29.1531 73.734 27.9301Z" fill="black"/>
</svg>
