<svg xmlns="http://www.w3.org/2000/svg" viewBox="0 0 111 120" width="111" height="120"><path d="M 53.438,107.176 C 52.971,106.613 52.799,105.266 52.894,102.926 C 52.973,100.982 52.826,99.500 52.555,99.500 C 52.292,99.500 51.045,100.287 49.784,101.250 C 48.523,102.213 47.176,103.000 46.790,103.000 C 45.711,103.000 43.429,100.039 43.883,99.227 C 44.095,98.847 46.178,97.008 48.510,95.140 L 52.750,91.744 L 52.898,88.372 C 52.982,86.458 52.839,85.000 52.568,85.000 C 52.305,85.000 50.914,85.956 49.476,87.125 C 45.214,90.590 43.287,91.958 42.635,91.980 C 42.143,91.996 40.000,88.631 40.000,87.843 C 40.000,87.734 42.177,85.869 44.838,83.698 C 47.499,81.526 50.424,79.108 51.338,78.323 L 53.000,76.896 L 53.000,70.948 C 53.000,64.216 52.985,64.196 49.473,66.386 C 48.250,67.148 46.170,68.329 44.849,69.011 C 43.529,69.692 42.161,70.588 41.809,71.000 C 41.458,71.412 40.896,73.888 40.559,76.500 C 39.611,83.866 38.946,86.494 37.885,87.062 C 36.581,87.760 34.013,87.123 33.947,86.085 C 33.841,84.407 34.041,82.175 34.595,78.872 C 34.906,77.014 35.034,75.367 34.878,75.211 C 34.722,75.055 33.375,75.737 31.885,76.726 L 29.176,78.525 L 28.564,82.637 C 28.227,84.899 27.844,87.460 27.712,88.327 C 27.581,89.194 27.111,90.042 26.669,90.212 C 25.546,90.643 22.468,89.998 22.190,89.273 C 22.063,88.943 22.173,87.340 22.434,85.711 C 22.695,84.083 22.761,82.599 22.579,82.414 C 22.398,82.229 20.734,82.985 18.881,84.094 C 16.488,85.527 15.172,86.026 14.342,85.818 C 13.226,85.538 12.000,83.696 12.000,82.300 C 12.000,81.941 13.601,80.582 15.558,79.281 C 17.514,77.980 18.921,76.739 18.683,76.523 C 18.445,76.308 17.184,75.735 15.882,75.251 C 12.670,74.055 12.280,73.495 13.174,71.355 C 13.572,70.402 14.117,69.487 14.384,69.322 C 14.652,69.156 17.429,69.911 20.557,70.998 L 26.243,72.975 L 28.871,71.382 C 30.317,70.506 31.500,69.660 31.500,69.504 C 31.500,69.347 30.544,68.932 29.375,68.583 C 28.206,68.233 26.012,67.340 24.500,66.599 C 21.286,65.023 20.838,63.825 22.668,61.698 L 23.890,60.277 L 31.114,63.153 L 38.337,66.029 L 43.918,62.934 C 46.988,61.232 49.500,59.704 49.500,59.540 C 49.500,59.158 48.725,58.684 43.363,55.792 C 39.702,53.817 38.710,53.484 37.363,53.777 C 35.912,54.093 28.054,57.212 25.071,58.656 C 24.041,59.155 23.743,59.052 22.696,57.835 C 21.378,56.302 21.164,54.901 22.126,54.103 C 22.471,53.817 23.989,53.097 25.501,52.502 C 29.493,50.933 31.500,49.936 31.500,49.522 C 31.500,49.323 30.352,48.534 28.949,47.770 L 26.398,46.382 L 23.074,47.657 C 19.130,49.170 15.135,50.500 14.536,50.500 C 14.300,50.500 13.769,49.656 13.356,48.625 C 12.608,46.756 12.931,45.000 14.023,45.000 C 15.125,45.000 19.027,42.830 18.858,42.310 C 18.758,42.002 17.343,40.941 15.713,39.952 C 12.337,37.903 11.761,36.482 13.535,34.578 C 14.842,33.174 16.154,33.377 19.658,35.524 C 22.330,37.161 23.251,37.374 22.822,36.256 C 22.665,35.847 22.393,34.431 22.217,33.109 C 21.851,30.349 22.273,29.772 25.032,29.256 C 26.761,28.933 26.831,28.981 27.372,30.837 C 27.679,31.889 28.207,34.438 28.546,36.500 C 29.239,40.726 29.485,41.163 32.108,42.818 C 34.659,44.428 35.174,44.345 34.830,42.375 C 33.467,34.574 33.399,33.311 34.305,32.648 C 34.792,32.292 35.676,32.000 36.268,32.000 C 38.403,32.000 39.104,33.691 40.518,42.250 C 41.156,46.111 42.211,49.000 42.985,49.000 C 43.261,49.000 45.362,50.125 47.655,51.500 C 49.947,52.875 52.088,54.000 52.412,54.000 C 52.830,54.000 53.000,52.269 53.000,48.009 L 53.000,42.019 L 48.125,38.183 C 42.020,33.379 40.000,31.495 40.000,30.604 C 40.000,29.630 41.942,27.000 42.659,27.001 C 42.984,27.002 45.163,28.572 47.500,30.489 C 49.837,32.406 52.031,33.981 52.375,33.988 C 52.811,33.996 52.997,33.054 52.989,30.875 L 52.979,27.750 L 48.656,24.250 C 43.049,19.711 42.891,19.440 44.733,17.518 C 45.533,16.683 46.504,16.000 46.892,16.000 C 47.279,16.000 48.619,16.900 49.869,18.000 C 51.118,19.100 52.334,20.000 52.570,20.000 C 52.807,20.000 53.000,18.318 53.000,16.262 C 53.000,12.823 53.101,12.457 54.253,11.702 C 55.309,11.010 55.741,10.978 57.003,11.501 C 58.615,12.169 58.738,12.597 58.535,16.818 C 58.467,18.231 58.608,19.508 58.849,19.657 C 59.090,19.805 60.467,19.007 61.911,17.882 L 64.535,15.838 L 66.267,17.517 C 67.220,18.440 67.999,19.433 67.999,19.723 C 67.998,20.013 65.983,21.825 63.520,23.750 C 59.507,26.886 59.031,27.432 58.943,29.000 C 58.714,33.041 58.737,33.588 59.145,33.840 C 59.381,33.985 61.353,32.726 63.527,31.041 C 67.850,27.690 68.504,27.328 69.250,27.880 C 69.977,28.418 71.000,30.369 71.000,31.218 C 71.000,31.621 69.031,33.579 66.625,35.569 C 64.219,37.560 61.406,39.980 60.375,40.946 L 58.500,42.703 L 58.500,48.351 C 58.500,51.645 58.701,54.000 58.982,54.000 C 59.248,54.000 60.429,53.465 61.607,52.812 C 62.786,52.158 64.935,50.987 66.383,50.209 C 69.289,48.648 68.993,49.283 71.034,40.250 C 72.564,33.477 73.090,32.500 75.202,32.500 C 77.897,32.500 78.216,33.342 77.231,37.851 C 76.012,43.430 75.846,44.500 76.201,44.500 C 76.541,44.500 82.000,41.479 82.000,41.290 C 82.000,41.228 82.347,38.853 82.772,36.015 C 83.638,30.219 84.168,28.846 85.405,29.179 C 85.870,29.305 86.891,29.550 87.674,29.725 L 89.097,30.043 L 88.748,33.522 C 88.529,35.698 88.582,37.000 88.889,37.000 C 89.158,37.000 90.687,36.212 92.285,35.250 C 95.673,33.210 96.592,33.104 97.981,34.594 C 99.958,36.717 99.079,38.306 94.568,40.761 C 93.156,41.530 92.000,42.308 92.000,42.491 C 92.000,42.673 93.575,43.531 95.500,44.396 C 97.425,45.262 99.000,46.082 99.000,46.218 C 99.000,46.983 97.232,49.996 96.653,50.218 C 96.054,50.448 94.061,49.865 90.750,48.492 C 85.522,46.324 85.269,46.302 82.673,47.790 C 81.341,48.553 80.151,49.256 80.030,49.351 C 79.491,49.774 81.512,50.980 84.500,52.018 C 88.693,53.476 90.000,54.356 90.000,55.720 C 90.000,56.328 89.451,57.341 88.780,57.972 L 87.560,59.118 L 80.231,56.200 L 72.903,53.282 L 67.603,56.061 C 64.688,57.590 62.225,59.076 62.129,59.364 C 61.963,59.861 65.981,62.360 71.114,64.952 L 73.479,66.146 L 76.486,64.796 C 78.141,64.054 81.312,62.790 83.534,61.988 L 87.574,60.529 L 88.820,61.775 C 90.584,63.539 90.219,65.010 87.711,66.246 C 85.578,67.296 82.390,68.661 80.843,69.185 C 79.639,69.594 80.103,70.225 82.749,71.776 L 84.946,73.064 L 89.598,71.481 C 92.157,70.610 94.464,69.696 94.725,69.449 C 95.715,68.514 96.855,69.069 97.952,71.021 C 99.357,73.521 98.987,74.096 95.219,75.282 C 93.724,75.752 92.500,76.424 92.500,76.775 C 92.500,77.127 93.963,78.232 95.750,79.231 C 98.542,80.793 99.000,81.246 99.000,82.447 C 99.000,85.818 95.801,86.287 91.761,83.508 C 90.556,82.679 89.442,82.000 89.285,82.000 C 89.128,82.000 89.000,83.782 89.000,85.960 L 89.000,89.921 L 87.511,90.248 C 84.573,90.893 84.270,90.479 83.262,84.439 C 82.608,80.515 82.060,78.629 81.395,78.009 C 80.110,76.813 77.103,75.231 76.761,75.572 C 76.609,75.725 76.759,78.034 77.096,80.703 C 77.532,84.148 77.556,85.802 77.179,86.403 C 76.523,87.451 73.848,87.781 73.147,86.901 C 72.635,86.258 71.663,82.059 70.449,75.250 C 69.875,72.027 68.914,70.000 67.959,70.000 C 67.747,70.000 65.738,68.873 63.494,67.497 C 61.251,66.120 59.234,65.106 59.012,65.243 C 58.789,65.380 58.575,68.054 58.535,71.186 L 58.462,76.879 L 61.673,79.402 C 66.189,82.952 71.500,87.998 71.500,88.740 C 71.500,89.621 69.549,92.000 68.827,92.000 C 68.496,92.000 66.324,90.425 64.000,88.500 C 61.676,86.575 59.477,85.000 59.114,85.000 C 58.619,85.000 58.491,85.834 58.602,88.348 L 58.750,91.695 L 61.500,93.901 C 66.262,97.722 67.500,98.895 67.500,99.587 C 67.500,100.300 65.207,103.001 64.605,102.998 C 64.410,102.997 63.064,102.097 61.615,100.998 C 60.166,99.899 58.872,99.000 58.740,99.000 C 58.608,99.000 58.500,100.590 58.500,102.533 C 58.500,104.476 58.267,106.501 57.982,107.033 C 57.327,108.258 54.413,108.350 53.438,107.176 Z" fill="#000000" fill-rule="evenodd" /></svg>