<svg xmlns="http://www.w3.org/2000/svg" viewBox="0 0 88 97" width="88" height="97"><path d="M 42.875,85.460 C 42.130,85.026 42.000,84.174 42.000,79.725 C 42.000,76.707 41.797,74.500 41.518,74.500 C 41.253,74.500 39.593,75.850 37.830,77.500 C 36.066,79.150 34.297,80.500 33.898,80.500 C 32.958,80.500 31.000,78.410 31.000,77.406 C 31.000,76.978 32.069,75.664 33.375,74.487 C 34.681,73.310 37.156,71.005 38.875,69.365 L 42.000,66.383 L 42.000,60.191 C 42.000,53.562 41.883,53.309 39.577,54.937 C 38.847,55.453 36.662,56.671 34.721,57.645 C 32.780,58.619 30.953,59.716 30.661,60.083 C 30.369,60.450 29.841,62.325 29.487,64.250 C 29.133,66.175 28.587,69.100 28.274,70.750 L 27.705,73.750 L 25.477,73.750 L 23.250,73.750 L 23.308,71.500 C 23.361,69.448 23.711,67.727 24.706,64.625 C 25.225,63.009 24.456,63.185 20.337,65.625 C 14.648,68.995 14.061,69.061 12.980,66.451 C 12.193,64.551 12.740,63.920 17.730,60.979 C 19.788,59.765 21.310,58.638 21.111,58.473 C 20.913,58.309 19.850,57.891 18.750,57.545 C 15.249,56.444 12.255,54.780 12.081,53.838 C 11.857,52.626 13.383,51.000 14.745,51.000 C 15.990,51.000 20.766,52.507 24.234,53.993 C 25.526,54.547 27.033,55.000 27.584,55.000 C 28.134,55.000 30.309,54.057 32.417,52.904 C 34.525,51.751 36.869,50.497 37.625,50.117 C 38.381,49.738 39.000,49.235 39.000,49.000 C 39.000,48.765 38.381,48.254 37.625,47.863 C 34.444,46.221 30.216,43.835 29.775,43.433 C 28.667,42.423 26.515,42.916 20.750,45.500 C 14.656,48.231 14.869,48.194 13.625,46.750 C 11.784,44.613 12.129,43.341 14.875,42.137 C 16.181,41.564 18.097,40.802 19.132,40.445 C 20.168,40.087 20.938,39.565 20.845,39.285 C 20.752,39.005 19.138,37.963 17.258,36.970 C 15.379,35.976 13.431,34.656 12.930,34.038 C 12.098,33.011 12.085,32.787 12.772,31.457 C 13.187,30.655 13.887,30.000 14.330,30.000 C 15.139,30.000 21.701,33.164 22.887,34.126 C 24.064,35.080 24.209,33.985 23.320,30.857 C 21.265,23.625 21.290,23.500 24.785,23.500 C 27.130,23.500 26.638,22.529 29.098,32.000 C 30.293,36.600 30.990,38.084 32.265,38.749 C 32.807,39.031 34.867,40.217 36.843,41.385 C 42.482,44.715 42.000,45.091 42.000,37.358 L 42.000,30.609 L 37.375,26.863 C 32.349,22.792 30.500,21.125 30.500,20.665 C 30.500,19.954 32.591,17.072 33.307,16.797 C 33.834,16.595 35.203,17.567 37.461,19.748 C 39.314,21.537 41.093,23.000 41.415,23.000 C 41.820,23.000 42.000,21.562 42.000,18.327 C 42.000,13.333 42.593,12.000 44.814,12.000 C 46.666,12.000 47.000,12.977 47.000,18.392 C 47.000,21.483 47.194,23.516 47.479,23.417 C 47.742,23.325 49.526,21.844 51.444,20.125 C 53.361,18.406 55.131,17.000 55.377,17.000 C 56.041,17.000 57.838,19.095 58.199,20.289 C 58.459,21.151 57.532,22.157 52.756,26.191 L 47.000,31.054 L 47.000,37.527 C 47.000,42.377 47.157,43.998 47.625,43.992 C 47.969,43.987 49.938,42.993 52.000,41.782 C 59.190,37.562 58.512,38.364 60.052,32.250 C 62.325,23.225 62.063,23.771 64.193,23.593 C 67.673,23.301 67.945,24.407 65.941,30.708 C 65.423,32.334 65.000,33.740 65.000,33.833 C 65.000,34.202 66.831,33.970 67.275,33.544 C 68.474,32.393 74.086,29.960 74.926,30.227 C 76.236,30.642 77.137,32.810 76.497,34.006 C 76.217,34.528 74.178,35.897 71.965,37.048 C 69.634,38.261 68.128,39.328 68.384,39.584 C 68.627,39.827 70.384,40.591 72.288,41.281 C 76.862,42.940 77.492,43.569 76.396,45.380 C 74.884,47.878 74.438,47.889 68.894,45.556 C 61.476,42.435 61.627,42.433 55.279,45.793 L 49.844,48.669 L 51.161,49.710 C 51.886,50.282 54.422,51.740 56.798,52.950 L 61.118,55.149 L 64.434,54.040 C 66.258,53.430 69.297,52.338 71.187,51.612 L 74.624,50.294 L 75.562,51.452 C 76.647,52.792 76.770,54.153 75.874,54.897 C 75.330,55.348 73.319,56.219 68.541,58.070 L 67.333,58.539 L 68.375,59.269 C 68.948,59.670 70.842,60.771 72.583,61.716 C 76.373,63.772 76.908,64.457 76.102,66.225 C 75.002,68.641 74.047,68.435 66.657,64.185 C 65.781,63.681 64.920,63.414 64.742,63.591 C 64.565,63.768 64.775,65.301 65.210,66.997 C 65.644,68.693 66.000,70.963 66.000,72.040 L 66.000,74.000 L 63.760,74.000 C 61.192,74.000 61.566,74.755 59.815,66.023 C 58.856,61.240 58.467,60.158 57.458,59.464 C 54.546,57.459 47.924,53.500 47.483,53.500 C 47.196,53.500 47.000,56.213 47.000,60.183 L 47.000,66.865 L 50.625,69.918 C 58.500,76.550 58.677,76.735 58.113,77.790 C 57.827,78.324 57.133,79.177 56.570,79.686 C 55.574,80.588 55.506,80.585 53.899,79.586 C 52.992,79.022 51.247,77.535 50.021,76.280 C 48.795,75.026 47.614,74.000 47.396,74.000 C 47.178,74.000 47.000,76.250 47.000,79.000 C 47.000,83.333 46.867,84.133 46.000,85.000 C 44.889,86.111 44.174,86.216 42.875,85.460 Z" fill="#000000" fill-rule="evenodd" /></svg>