<svg width="102" height="103" viewBox="0 0 102 103" fill="none" xmlns="http://www.w3.org/2000/svg">
<path fill-rule="evenodd" clip-rule="evenodd" d="M50.5323 101.802C50.5323 101.378 50.0503 100.18 49.4603 99.14C45.1203 91.488 42.5323 84.801 42.5323 81.242C42.5323 80.091 42.2773 78.418 41.9663 77.525C41.2843 75.569 40.9483 75.599 33.6823 78.259C27.8213 80.404 25.6003 81.528 22.2823 84.028C19.3943 86.203 16.1913 87.826 15.7193 87.353C15.2643 86.899 17.7043 78.345 19.8123 73C20.3013 71.763 22.0563 68.754 23.7123 66.314C26.6113 62.046 26.6883 61.851 25.7543 61.166C23.7643 59.707 14.0513 54.434 12.4463 53.941C10.9243 53.474 2.12932 52.033 0.657317 52.01C-0.720683 51.988 0.165317 50.521 2.40732 49.11C9.55132 44.616 13.8953 43.056 20.4123 42.645C25.7773 42.306 27.0523 41.704 26.1763 39.925C25.8583 39.279 25.3293 37.85 25.0013 36.75C24.6733 35.65 24.2083 34.233 23.9683 33.601C23.7283 32.97 23.5323 32.098 23.5323 31.663C23.5323 30.569 20.7133 25.125 19.0473 23.004C17.4373 20.952 15.0323 16.536 15.0323 15.629C15.0323 14.915 16.3323 14.771 16.7453 15.44C16.8953 15.682 17.5273 15.995 18.1503 16.134C19.7623 16.496 27.9523 19.428 30.0323 20.388C30.9943 20.832 33.5393 22.389 35.6873 23.848C37.8343 25.307 39.7753 26.5 40.0003 26.5C40.6193 26.5 41.2263 25.6 43.3713 21.5C46.2583 15.983 47.3163 12.901 48.5063 6.544C49.6263 0.558001 49.8013 0 50.5583 0C51.1933 0 56.9123 11.494 58.0513 15.06C58.5563 16.64 59.1913 19.129 59.4633 20.591C60.0973 24.005 60.8653 26 61.5473 26C62.3973 26 72.4753 22.554 74.2143 21.668C75.0763 21.229 77.3573 19.7 79.2823 18.27C83.6753 15.007 85.9043 13.705 86.3443 14.145C86.7283 14.529 84.0733 24.254 82.4253 28.5C81.8393 30.013 80.0423 33.363 78.4333 35.946C76.8243 38.529 75.5703 40.67 75.6453 40.704C75.9103 40.823 81.3153 43.657 84.4113 45.3C87.8603 47.13 92.3693 48.54 97.9073 49.519C100.121 49.911 101.532 50.403 101.532 50.782C101.532 52.003 90.7793 57.576 86.1503 58.755C84.5733 59.156 81.7103 59.657 79.7893 59.868C77.0193 60.171 76.2603 60.434 76.1243 61.14C75.9353 62.121 78.0503 69.324 79.6803 73.25C80.2503 74.625 81.8843 77.55 83.3103 79.75C86.5813 84.798 87.6533 86.899 87.2723 87.516C87.0893 87.813 86.6413 87.828 86.1273 87.556C85.6623 87.31 82.5293 86.187 79.1653 85.061C71.1453 82.375 69.2863 81.462 65.7493 78.472C64.1233 77.097 62.4733 76.035 62.0823 76.111C60.4633 76.427 55.2833 87.09 54.2413 92.25C53.7973 94.45 53.1593 97.6 52.8243 99.25C52.3973 101.346 51.9603 102.298 51.3723 102.411C50.8783 102.507 50.5323 102.255 50.5323 101.802ZM57.2823 75.318C61.9353 74.071 64.7043 72.44 68.3363 68.806C73.8753 63.265 75.7963 58.43 75.7073 50.25C75.5823 38.667 67.6363 29.108 56.1323 26.701C48.6883 25.143 42.4063 26.611 35.9053 31.428C23.6193 40.53 23.1113 59.794 34.8883 69.956C37.5993 72.295 41.3393 74.277 44.8783 75.25C48.0483 76.121 54.1593 76.155 57.2823 75.318ZM46.4683 72.063C43.4433 71.42 39.1833 69.065 36.3323 66.459C33.1703 63.568 30.9763 59.383 30.0073 54.389C28.1323 44.735 34.0773 34.674 43.8063 31.034C46.9233 29.868 54.1263 29.6 57.0823 30.541C64.9013 33.029 70.0783 38.708 72.0253 46.934C74.2083 56.156 67.8563 67.51 58.5323 71.052C55.5473 72.186 49.4513 72.697 46.4683 72.063Z" fill="black"/>
</svg>
