<svg xmlns="http://www.w3.org/2000/svg" viewBox="0 0 119 131" width="119" height="131"><path d="M 67.000,118.223 C 67.000,118.071 67.561,117.121 68.247,116.112 C 71.833,110.834 71.576,106.528 67.424,102.377 C 66.117,101.070 64.727,100.000 64.335,100.000 C 63.943,100.000 63.342,99.662 63.000,99.250 C 62.484,98.629 62.538,98.500 63.314,98.500 C 64.336,98.499 69.721,95.981 71.125,94.847 C 71.606,94.458 72.000,93.897 72.000,93.599 C 72.000,92.425 70.850,92.467 68.973,93.709 C 65.187,96.214 57.122,97.585 52.442,96.519 C 45.045,94.833 44.375,93.773 50.418,93.316 C 57.437,92.786 64.143,90.034 67.105,86.468 L 68.824,84.399 L 72.501,86.251 C 81.893,90.980 85.877,96.291 84.535,102.290 C 83.828,105.447 80.963,110.037 78.083,112.625 C 75.285,115.140 74.613,114.992 76.483,112.274 C 78.553,109.266 80.000,105.767 80.000,103.770 C 80.000,101.091 77.899,97.000 76.523,97.000 C 75.596,97.000 75.654,99.061 76.614,100.282 C 78.081,102.147 77.595,106.088 75.430,109.876 C 73.040,114.058 67.000,120.039 67.000,118.223 Z M 39.500,90.406 C 36.434,89.116 35.624,88.697 33.625,87.366 C 32.456,86.588 31.500,85.635 31.500,85.248 C 31.500,84.658 31.845,84.674 33.625,85.346 C 36.219,86.325 47.003,86.507 49.125,85.607 C 51.840,84.457 50.603,84.000 44.775,84.000 C 30.042,84.000 22.076,79.833 19.046,70.542 C 18.008,67.359 17.655,64.240 18.375,64.609 C 26.311,68.672 33.117,70.927 38.078,71.137 C 40.454,71.237 40.750,71.139 40.750,70.250 C 40.750,69.551 40.373,69.211 39.500,69.120 C 32.123,68.351 24.609,65.678 19.643,62.056 C 16.985,60.118 16.194,58.854 15.774,55.875 C 15.374,53.042 15.731,52.926 18.660,54.932 C 22.759,57.739 27.151,59.576 31.375,60.249 C 34.880,60.808 33.953,59.450 29.584,57.625 C 27.444,56.731 25.549,56.000 25.373,56.000 C 24.669,56.000 19.048,52.446 17.573,51.068 C 16.525,50.090 15.998,49.123 15.995,48.174 C 15.992,47.310 15.316,45.901 14.274,44.591 C 10.953,40.414 10.184,35.165 12.255,30.807 C 13.553,28.077 18.040,23.383 20.703,21.970 C 21.937,21.316 23.084,20.917 23.252,21.085 C 23.419,21.253 22.323,22.556 20.816,23.982 C 15.050,29.435 14.373,35.655 18.841,42.125 C 19.553,43.156 20.531,44.000 21.015,44.000 C 21.498,44.000 22.023,44.338 22.181,44.750 C 22.339,45.163 23.038,45.500 23.734,45.500 C 24.526,45.500 25.000,45.781 25.000,46.250 C 25.000,46.667 25.444,47.000 26.000,47.000 C 26.550,47.000 27.003,46.719 27.007,46.375 C 27.011,46.031 27.138,45.287 27.290,44.720 C 27.556,43.730 27.360,43.554 24.375,42.099 C 24.169,41.999 24.000,42.629 24.000,43.500 C 24.000,45.736 23.000,45.219 21.564,42.240 C 20.469,39.969 20.416,39.506 20.878,36.220 C 21.152,34.262 21.792,31.780 22.299,30.705 C 24.590,25.848 32.420,20.899 40.886,18.957 C 49.408,17.003 57.310,16.607 65.500,17.725 C 82.458,20.039 93.000,26.328 93.000,34.131 C 93.000,37.110 92.522,38.091 89.597,41.113 C 88.339,42.413 87.464,43.631 87.653,43.819 C 88.229,44.395 91.643,43.011 94.521,41.034 C 96.551,39.640 97.627,38.427 98.720,36.298 C 100.113,33.587 100.158,33.314 99.566,31.103 C 98.796,28.222 97.112,25.961 94.076,23.729 C 86.116,17.878 71.526,13.977 57.750,14.017 C 52.786,14.032 43.071,15.088 42.039,15.726 C 41.742,15.909 41.500,15.859 41.500,15.614 C 41.500,14.811 43.915,13.944 50.250,12.475 C 53.966,11.613 67.006,11.304 73.000,11.936 C 88.295,13.549 101.341,19.699 105.893,27.442 C 107.684,30.489 107.775,35.181 106.103,38.361 C 103.143,43.993 96.964,48.340 88.250,50.922 C 73.156,55.394 60.589,56.099 47.352,53.217 C 43.370,52.350 37.078,50.295 34.281,48.948 C 31.986,47.843 30.500,47.728 30.500,48.654 C 30.500,50.385 33.702,52.288 39.000,53.704 C 40.513,54.108 42.538,54.685 43.500,54.987 C 48.626,56.592 54.012,57.188 63.500,57.198 C 74.443,57.210 77.801,56.781 87.000,54.194 L 88.250,53.843 L 87.270,54.952 C 84.670,57.894 70.528,63.223 61.920,64.503 C 58.265,65.047 46.714,64.983 41.516,64.391 C 39.296,64.138 39.698,65.740 42.048,66.516 C 44.738,67.404 61.591,67.486 63.607,66.621 C 65.873,65.648 65.713,66.815 63.213,69.488 C 58.905,74.093 53.261,76.000 43.939,76.000 C 38.568,76.000 37.944,76.090 38.089,76.843 C 38.343,78.163 41.272,78.644 47.000,78.307 C 52.940,77.958 56.232,77.166 60.366,75.093 C 62.157,74.194 62.689,74.475 63.184,76.582 C 63.589,78.303 61.867,79.806 56.736,82.209 C 54.681,83.171 53.000,84.193 53.000,84.479 C 53.000,86.061 58.715,84.283 63.074,81.344 C 64.392,80.456 64.402,80.459 65.530,82.042 C 66.270,83.081 66.504,83.840 66.206,84.235 C 65.955,84.567 65.075,85.752 64.250,86.870 C 62.962,88.615 62.431,88.935 60.500,89.136 C 59.263,89.264 57.013,89.734 55.500,90.179 C 52.328,91.112 41.542,91.266 39.500,90.406 Z M 77.449,46.301 C 80.598,45.427 81.157,44.991 80.691,43.778 C 80.316,42.798 80.186,42.805 72.500,44.218 C 63.241,45.919 50.699,44.665 43.167,41.285 C 39.560,39.666 37.146,37.356 36.693,35.090 C 36.400,33.626 36.594,33.239 38.568,31.353 C 40.831,29.191 44.254,27.737 50.019,26.488 C 54.506,25.516 67.449,26.085 71.602,27.436 C 81.995,30.816 79.197,37.084 66.942,37.875 C 63.090,38.124 61.191,37.435 63.878,36.764 C 65.491,36.362 67.000,35.117 67.000,34.190 C 67.000,32.651 62.038,31.018 57.327,31.008 C 50.133,30.992 45.046,33.815 46.700,36.906 C 48.308,39.910 53.109,41.251 62.250,41.247 C 68.238,41.244 69.756,41.075 72.750,40.079 C 77.164,38.611 79.347,37.274 80.550,35.302 C 81.748,33.337 81.743,32.155 80.529,30.164 C 78.766,27.273 73.532,24.945 66.000,23.704 C 52.463,21.473 37.182,25.446 33.705,32.100 C 32.715,33.996 32.828,35.464 34.128,37.568 C 37.251,42.628 43.777,45.410 56.750,47.211 C 60.108,47.678 74.821,47.030 77.449,46.301 Z" fill="#000000" fill-rule="evenodd" /></svg>