<svg xmlns="http://www.w3.org/2000/svg" viewBox="0 0 375 303" width="375" height="303"><path d="M 210.199,288.272 C 202.594,287.090 195.278,284.293 189.570,280.383 C 186.236,278.100 178.469,270.222 176.376,267.000 C 174.791,264.562 173.587,262.140 171.228,256.651 C 169.176,251.876 167.858,241.649 169.012,239.458 C 170.037,237.513 172.007,235.342 173.946,234.022 C 177.877,231.346 185.353,232.939 187.690,236.952 C 188.649,238.598 189.007,240.010 190.013,246.126 C 190.770,250.725 193.111,254.753 197.551,259.093 C 202.333,263.769 206.922,266.211 212.499,267.051 C 221.016,268.333 229.322,266.103 235.750,260.809 C 238.786,258.308 239.495,257.525 241.921,254.000 C 244.374,250.434 245.308,248.365 246.231,244.448 C 248.675,234.081 245.053,223.447 236.143,214.831 C 232.645,211.449 230.452,210.073 225.127,207.920 C 222.074,206.685 218.210,206.446 193.500,205.964 C 179.338,205.687 166.738,205.390 165.500,205.303 C 164.262,205.216 160.325,205.092 156.750,205.028 C 153.175,204.964 146.762,204.715 142.500,204.474 C 138.238,204.234 130.363,203.799 125.000,203.506 C 98.278,202.049 91.112,201.531 83.250,200.489 C 81.325,200.234 77.050,199.783 73.750,199.488 C 65.841,198.779 61.232,198.046 59.105,197.157 C 55.805,195.779 57.516,195.319 73.500,193.289 C 89.574,191.248 111.473,189.654 139.250,188.503 C 145.850,188.229 156.425,187.787 162.750,187.520 C 169.075,187.252 184.560,186.763 197.161,186.432 C 222.661,185.763 222.855,185.776 232.000,188.856 C 237.616,190.747 240.006,191.923 244.750,195.131 C 257.884,204.010 265.955,217.868 267.526,234.235 C 268.852,248.061 263.771,262.148 253.486,273.161 C 245.062,282.182 235.443,286.894 222.250,288.462 C 216.824,289.107 215.436,289.085 210.199,288.272 Z M 273.250,164.640 C 270.500,164.580 252.950,164.293 234.250,164.002 C 202.406,163.508 173.420,162.912 149.500,162.259 C 134.789,161.858 90.851,160.212 82.000,159.730 C 79.388,159.588 72.300,159.251 66.250,158.980 C 53.242,158.399 46.108,157.943 22.892,156.210 C 18.385,155.874 16.387,155.411 16.132,154.645 C 15.835,153.756 18.810,153.099 25.750,152.521 C 29.325,152.223 34.837,151.762 38.000,151.496 C 43.440,151.038 66.468,149.614 86.250,148.512 C 114.015,146.966 160.561,145.261 190.250,144.702 C 235.500,143.852 248.459,143.664 268.500,143.570 C 296.383,143.439 300.171,143.245 305.054,141.703 C 315.175,138.506 320.703,134.876 326.584,127.566 C 329.925,123.413 331.352,120.698 333.322,114.750 C 334.445,111.361 334.683,109.618 334.879,103.341 C 335.117,95.720 334.940,94.382 332.877,88.250 C 330.453,81.043 326.905,76.134 320.250,70.782 C 316.941,68.121 314.031,66.634 308.750,64.903 C 305.765,63.925 304.220,63.758 298.250,63.769 C 292.381,63.779 290.657,63.966 287.577,64.926 C 282.150,66.618 279.393,68.252 274.106,72.912 C 269.756,76.746 266.738,80.906 264.610,86.000 C 262.589,90.837 262.122,92.750 261.502,98.728 C 260.903,104.510 259.944,106.424 256.574,108.561 C 254.618,109.801 253.809,110.000 250.727,110.000 C 247.577,110.000 246.917,109.829 245.200,108.568 C 239.355,104.275 238.816,100.530 241.947,85.956 C 243.751,77.557 249.905,67.224 257.700,59.505 C 263.075,54.181 266.646,51.589 272.788,48.551 C 293.574,38.270 318.061,41.091 334.750,55.690 C 342.718,62.661 346.988,68.088 350.524,75.742 C 354.482,84.307 355.998,91.470 355.999,101.600 C 356.000,108.862 355.843,110.017 353.452,120.375 C 352.332,125.224 348.755,132.979 345.323,138.000 C 342.870,141.588 335.614,148.843 331.049,152.272 C 321.686,159.303 310.122,163.659 299.241,164.252 C 293.039,164.590 279.891,164.786 273.250,164.640 Z M 158.485,120.843 C 158.356,120.728 151.950,120.487 144.250,120.309 C 136.550,120.131 126.425,119.762 121.750,119.489 C 117.075,119.217 109.200,118.764 104.250,118.483 C 99.300,118.201 93.562,117.862 91.500,117.729 C 70.892,116.396 63.630,115.825 56.622,114.987 C 54.217,114.700 50.378,114.260 48.090,114.009 C 43.229,113.478 40.370,112.641 40.640,111.830 C 41.024,110.678 52.560,108.762 69.750,106.996 C 72.225,106.742 76.500,106.293 79.250,105.999 C 82.000,105.705 87.175,105.247 90.750,104.982 C 106.699,103.799 111.751,103.447 119.250,102.995 C 133.844,102.115 135.695,102.000 143.250,101.510 C 147.375,101.243 156.825,100.769 164.250,100.457 C 178.786,99.847 179.708,99.673 186.811,96.198 C 190.184,94.548 195.553,90.082 197.394,87.395 C 203.119,79.037 205.189,66.912 202.198,59.250 C 197.674,47.659 190.447,41.564 179.337,39.972 C 163.916,37.762 150.757,46.728 146.555,62.308 C 146.250,63.440 146.000,65.141 146.000,66.089 C 146.000,72.789 137.763,77.411 131.500,74.225 C 126.568,71.716 124.996,66.162 126.768,57.500 C 128.677,48.167 132.469,40.813 138.982,33.811 C 144.093,28.317 153.191,22.695 159.750,20.979 C 160.575,20.763 162.600,20.199 164.250,19.724 C 168.116,18.613 179.990,18.437 184.000,19.432 C 195.891,22.383 205.319,27.600 212.210,35.044 C 218.417,41.747 221.680,48.331 223.767,58.360 C 225.124,64.884 225.239,67.276 224.494,73.513 C 223.306,83.468 220.197,90.827 213.374,99.836 C 207.835,107.150 203.196,110.957 194.587,115.253 C 188.770,118.156 184.838,119.415 179.112,120.207 C 174.639,120.826 159.005,121.309 158.485,120.843 Z" fill="#000000" fill-rule="evenodd" /></svg>