<svg xmlns="http://www.w3.org/2000/svg" viewBox="0 0 387 211" width="387" height="211"><path d="M 362.702,191.649 C 359.978,188.706 356.305,184.937 354.539,183.274 C 352.773,181.611 350.870,179.800 350.310,179.250 C 348.562,177.535 338.866,170.567 336.414,169.264 C 335.129,168.581 333.220,167.440 332.172,166.729 C 331.123,166.018 329.475,165.081 328.508,164.647 C 327.541,164.214 324.050,162.566 320.750,160.985 C 317.450,159.404 313.175,157.513 311.250,156.783 C 309.325,156.053 307.188,155.211 306.500,154.913 C 305.812,154.614 303.225,153.635 300.750,152.737 C 298.275,151.839 295.238,150.723 294.000,150.257 C 287.718,147.889 273.733,144.087 260.250,141.082 C 249.467,138.678 246.119,138.019 235.500,136.209 C 232.887,135.763 229.625,135.192 228.250,134.940 C 226.875,134.687 224.175,134.267 222.250,134.005 C 190.999,129.754 170.780,129.632 144.155,133.535 C 140.357,134.091 135.769,134.750 133.958,134.999 C 132.148,135.248 127.985,135.919 124.708,136.491 C 121.431,137.063 117.400,137.736 115.750,137.987 C 114.100,138.239 109.940,138.916 106.506,139.491 C 103.071,140.067 98.909,140.751 97.256,141.011 C 95.602,141.272 93.125,141.717 91.750,142.001 C 90.375,142.285 86.438,142.960 83.000,143.501 C 79.562,144.042 74.838,144.829 72.500,145.249 C 70.162,145.669 65.995,146.042 63.238,146.078 C 57.600,146.150 56.038,145.628 53.744,142.901 C 52.390,141.292 52.375,141.199 52.785,137.008 C 53.413,130.594 53.234,126.020 52.268,123.795 C 51.209,121.354 46.204,116.285 44.410,115.835 C 42.509,115.358 40.587,116.230 40.207,117.742 C 39.759,119.529 40.748,121.610 43.838,125.380 C 45.302,127.166 46.500,128.838 46.500,129.096 C 46.500,131.270 42.937,132.824 39.319,132.228 C 35.831,131.654 24.703,126.729 22.615,124.836 C 19.616,122.117 17.647,116.943 16.018,107.500 C 15.804,106.263 14.771,101.200 13.722,96.250 C 12.041,88.323 11.812,86.416 11.797,80.250 C 11.779,72.816 12.274,69.584 14.363,63.500 C 16.072,58.519 20.225,50.133 23.259,45.534 C 26.008,41.367 33.941,32.815 36.086,31.706 C 36.856,31.307 38.272,30.292 39.231,29.449 C 40.191,28.607 43.513,26.743 46.613,25.309 C 49.713,23.874 52.812,22.382 53.500,21.993 C 54.188,21.604 56.212,20.759 58.000,20.116 C 63.192,18.248 65.954,17.574 77.250,15.418 C 79.427,15.002 84.340,14.756 90.250,14.765 C 98.428,14.778 100.824,14.974 107.466,16.175 C 111.709,16.942 115.641,17.892 116.202,18.285 C 116.763,18.678 117.749,19.000 118.394,19.000 C 119.038,19.000 120.731,19.468 122.157,20.040 C 130.387,23.342 132.631,24.300 136.250,26.058 C 138.450,27.126 140.487,28.000 140.777,28.000 C 141.067,28.000 142.369,28.675 143.669,29.500 C 144.970,30.325 146.261,31.000 146.539,31.000 C 147.092,31.000 157.433,35.867 163.750,39.101 C 176.082,45.413 179.276,47.951 189.268,59.374 C 195.488,66.486 201.231,70.257 209.250,72.497 C 217.419,74.779 223.419,76.345 227.500,77.262 C 229.287,77.663 231.312,78.220 232.000,78.500 C 232.688,78.780 234.713,79.332 236.500,79.728 C 241.431,80.820 245.974,82.041 248.750,83.021 C 250.125,83.506 252.375,84.187 253.750,84.535 C 255.125,84.882 257.397,85.682 258.799,86.313 C 260.201,86.944 263.913,88.341 267.049,89.417 C 270.184,90.494 273.762,91.838 275.000,92.404 C 276.238,92.970 279.275,94.261 281.750,95.273 C 290.236,98.742 291.994,99.539 297.367,102.351 C 315.687,111.942 329.812,122.273 342.798,135.578 C 352.089,145.098 360.520,156.988 365.266,167.267 C 368.494,174.258 370.070,180.847 370.166,187.750 C 370.251,193.843 369.603,197.000 368.266,197.000 C 367.929,197.000 365.425,194.592 362.702,191.649 Z M 93.750,133.706 C 98.150,133.049 104.112,132.051 107.000,131.489 C 109.888,130.927 113.487,130.282 115.000,130.056 C 121.911,129.024 139.964,125.973 141.882,125.512 C 143.055,125.230 144.729,125.000 145.602,125.000 C 146.475,125.000 148.441,124.782 149.970,124.515 C 155.877,123.485 163.945,122.436 173.250,121.488 C 176.275,121.180 181.024,120.579 183.804,120.152 C 189.784,119.235 197.277,116.609 197.197,115.460 C 197.054,113.410 181.804,96.000 180.151,96.000 C 179.742,96.000 179.279,96.487 179.123,97.083 C 178.967,97.679 177.751,100.393 176.420,103.114 C 175.089,105.836 174.000,108.367 174.000,108.738 C 174.000,110.330 170.802,115.600 169.546,116.079 C 167.674,116.792 155.710,116.414 154.915,115.616 C 154.405,115.105 154.473,114.621 155.266,113.117 C 155.807,112.092 156.708,110.802 157.267,110.251 C 159.076,108.471 163.319,102.814 164.645,100.416 C 166.725,96.652 168.055,91.647 168.358,86.441 C 168.708,80.437 167.917,75.924 165.682,71.173 C 164.757,69.206 164.000,67.387 164.000,67.133 C 164.000,66.187 156.618,59.555 152.768,57.043 C 145.390,52.228 136.302,48.634 128.477,47.436 C 123.407,46.660 117.810,47.349 111.298,49.552 C 105.950,51.361 103.862,52.394 99.215,55.526 C 89.059,62.372 84.161,69.819 82.729,80.591 C 81.882,86.960 82.574,92.941 85.055,100.708 C 86.339,104.727 86.270,105.186 84.233,106.157 C 80.666,107.858 79.474,107.436 75.153,102.940 C 69.929,97.505 65.084,93.807 64.176,94.562 C 63.061,95.487 63.364,96.359 66.472,101.159 C 71.754,109.319 74.628,112.888 76.245,113.293 C 78.275,113.803 91.856,108.712 94.220,106.556 C 95.692,105.214 97.948,104.188 100.185,103.842 C 101.881,103.580 102.311,103.734 103.658,105.081 L 105.196,106.619 L 103.776,107.685 C 102.994,108.271 100.818,109.581 98.939,110.597 C 92.778,113.929 90.799,115.161 86.987,118.036 C 82.866,121.145 77.940,126.200 76.705,128.586 C 75.642,130.642 75.523,134.390 76.500,135.020 C 77.501,135.665 83.903,135.178 93.750,133.706 Z M 254.500,118.707 C 257.335,117.866 261.000,114.766 261.000,113.209 C 261.000,111.767 258.867,108.300 256.320,105.600 C 248.034,96.818 232.364,90.969 216.750,90.830 C 209.011,90.761 206.647,91.269 205.008,93.354 C 203.830,94.851 203.727,97.179 204.678,100.750 C 205.646,104.384 206.677,106.125 209.687,109.208 C 213.090,112.693 217.047,114.486 228.000,117.505 C 229.538,117.929 235.889,119.067 240.250,119.701 C 243.130,120.119 251.772,119.516 254.500,118.707 Z M 350.500,190.653 C 349.812,190.537 345.425,189.695 340.750,188.782 C 336.075,187.869 329.550,186.629 326.250,186.026 C 315.804,184.118 314.825,183.921 311.250,183.017 C 309.325,182.530 306.512,181.866 305.000,181.541 C 300.446,180.564 297.937,179.981 294.000,178.985 C 287.933,177.450 279.922,175.547 277.500,175.066 C 267.116,173.001 263.439,172.235 260.250,171.473 C 259.150,171.211 256.225,170.646 253.750,170.219 C 251.275,169.792 248.012,169.228 246.500,168.965 C 228.930,165.909 216.988,164.820 200.750,164.794 C 182.177,164.763 163.508,165.988 144.250,168.499 C 132.147,170.078 116.232,171.268 93.825,172.270 C 73.210,173.192 68.290,172.950 61.328,170.670 C 54.934,168.577 51.000,164.187 51.000,159.145 C 51.000,156.830 51.215,156.251 52.659,154.675 L 54.318,152.864 L 58.534,153.053 C 67.652,153.462 79.188,152.394 83.500,150.743 C 84.463,150.374 86.234,149.937 87.438,149.770 C 88.641,149.604 92.353,148.812 95.688,148.011 C 103.889,146.039 121.295,142.637 129.250,141.450 C 132.825,140.917 139.125,139.943 143.250,139.285 C 147.375,138.628 153.787,137.789 157.500,137.420 C 166.036,136.573 194.420,136.580 203.000,137.432 C 214.677,138.591 222.232,139.574 231.000,141.077 C 235.812,141.901 240.875,142.761 242.250,142.987 C 249.034,144.103 266.392,148.088 276.750,150.906 C 279.775,151.729 284.002,152.880 286.144,153.463 C 288.286,154.046 291.436,155.067 293.144,155.730 C 294.852,156.394 297.938,157.495 300.000,158.178 C 302.062,158.861 304.875,159.808 306.250,160.284 C 310.276,161.676 324.557,168.143 326.482,169.444 C 327.454,170.101 328.924,170.864 329.749,171.138 C 330.575,171.413 331.925,172.128 332.750,172.727 C 333.575,173.325 335.677,174.673 337.421,175.721 C 339.164,176.770 342.089,178.907 343.921,180.472 C 345.752,182.036 348.358,184.150 349.713,185.170 C 352.008,186.898 354.000,189.380 354.000,190.512 C 354.000,191.001 352.840,191.048 350.500,190.653 Z M 139.500,158.293 C 144.716,157.526 151.632,154.872 152.464,153.318 C 154.734,149.076 146.006,146.255 134.365,147.467 C 126.848,148.250 122.123,149.343 119.973,150.798 C 118.996,151.459 117.730,152.000 117.159,152.000 C 113.721,152.000 115.089,158.166 118.750,159.171 C 120.310,159.600 134.774,158.988 139.500,158.293 Z" fill="#000000" fill-rule="evenodd" /></svg>