<svg xmlns="http://www.w3.org/2000/svg" viewBox="0 0 327 426" width="327" height="426"><path d="M 153.482,409.815 C 153.354,409.688 151.139,409.348 148.559,409.060 C 145.710,408.741 143.538,408.237 143.027,407.775 C 142.093,406.929 141.237,403.027 140.508,396.288 C 140.242,393.833 139.820,391.620 139.570,391.370 C 139.320,391.120 138.583,390.991 137.933,391.083 C 136.240,391.322 135.172,393.917 134.529,399.354 C 133.700,406.369 133.840,406.240 129.187,404.233 C 124.630,402.267 123.882,401.865 121.903,400.320 C 118.423,397.602 118.250,396.783 118.250,383.000 C 118.250,369.104 118.142,368.594 114.499,365.306 L 112.345,363.363 L 106.797,363.706 C 103.746,363.895 100.469,364.215 99.514,364.418 C 98.560,364.620 96.253,364.622 94.388,364.423 C 88.162,363.758 86.466,361.869 79.365,347.696 C 73.481,335.954 73.311,334.188 77.306,326.346 C 80.046,320.968 80.124,320.700 80.592,315.044 C 81.312,306.342 83.127,301.459 88.415,294.000 C 94.192,285.852 95.081,283.968 95.375,279.258 C 95.696,274.123 94.511,267.436 92.586,263.513 C 91.028,260.338 89.665,259.452 90.162,261.937 C 90.532,263.787 89.741,275.136 88.987,278.796 C 88.576,280.787 87.149,283.241 82.445,290.046 C 79.135,294.833 76.232,298.821 75.993,298.907 C 75.753,298.994 75.410,298.206 75.230,297.157 C 75.050,296.108 74.492,293.788 73.988,292.000 C 71.265,282.325 70.241,266.987 71.717,257.982 C 73.892,244.719 79.591,230.309 86.096,221.622 C 93.736,211.419 102.241,203.770 112.500,197.876 C 120.099,193.511 125.235,191.307 133.737,188.767 C 144.966,185.413 154.204,184.216 165.250,184.686 C 175.035,185.102 183.033,186.601 194.928,190.249 C 197.995,191.190 210.462,197.141 214.521,199.602 C 225.254,206.112 237.372,218.801 243.135,229.569 C 252.146,246.403 254.676,269.092 250.040,291.500 C 249.428,294.462 248.029,298.581 247.352,299.414 C 246.918,299.949 246.639,299.852 245.918,298.914 C 245.425,298.274 245.017,297.586 245.011,297.385 C 244.996,296.876 241.735,291.826 239.185,288.360 C 234.599,282.126 233.006,276.323 233.002,265.838 C 233.000,261.022 232.907,260.445 232.153,260.590 C 231.589,260.698 230.726,262.341 229.573,265.501 C 227.965,269.910 227.839,270.680 227.819,276.250 C 227.799,281.675 227.928,282.563 229.158,285.516 C 229.907,287.313 231.799,290.463 233.364,292.516 C 236.744,296.953 240.640,304.401 241.967,308.968 C 242.492,310.773 243.036,314.120 243.175,316.406 C 243.405,320.178 243.635,320.927 245.664,324.508 C 250.551,333.134 250.583,334.820 246.022,343.499 C 244.360,346.661 243.000,349.416 243.000,349.622 C 243.000,349.829 242.162,351.742 241.138,353.874 C 239.817,356.624 238.377,358.633 236.181,360.788 C 233.106,363.806 233.058,363.830 228.857,364.483 C 226.531,364.845 223.981,364.985 223.189,364.794 C 213.992,362.574 209.476,363.291 206.753,367.406 C 204.762,370.414 204.340,374.076 204.715,385.082 C 205.098,396.352 204.918,397.208 201.547,400.093 C 199.194,402.108 192.444,405.134 190.821,404.903 C 189.897,404.771 189.701,404.305 189.391,401.500 C 188.340,391.988 187.454,389.724 184.926,390.085 C 183.467,390.293 183.203,391.232 182.563,398.500 C 181.938,405.607 181.395,407.265 179.470,407.935 C 177.262,408.705 170.503,409.598 168.280,409.413 C 166.372,409.255 166.289,409.171 165.664,406.750 C 165.310,405.375 164.993,402.788 164.961,401.000 C 164.930,399.212 164.644,396.512 164.327,395.000 L 163.750,392.250 L 161.642,392.097 C 159.159,391.917 159.324,391.501 158.527,400.000 C 157.822,407.522 157.080,409.700 155.157,409.899 C 154.363,409.980 153.610,409.943 153.482,409.815 Z M 155.888,365.231 C 157.346,364.504 159.512,362.312 160.857,360.202 C 161.452,359.270 161.481,359.271 162.267,360.250 C 162.708,360.800 163.222,361.480 163.409,361.761 C 163.597,362.043 164.747,363.111 165.965,364.136 C 167.837,365.711 168.545,366.000 170.537,366.000 C 172.448,366.000 173.188,365.725 174.447,364.549 C 175.783,363.301 175.996,362.761 175.971,360.674 C 175.899,354.616 168.597,336.353 165.054,333.372 C 163.195,331.808 162.078,331.675 159.965,332.768 C 158.494,333.529 155.500,337.158 155.500,338.181 C 155.500,338.473 154.498,340.746 153.274,343.231 C 150.146,349.582 147.872,356.624 147.805,360.165 C 147.754,362.857 147.875,363.192 149.383,364.540 C 151.252,366.212 153.454,366.445 155.888,365.231 Z M 216.072,336.809 C 218.558,335.618 221.719,332.839 223.451,330.321 C 226.349,326.110 228.069,317.242 227.050,311.770 C 225.988,306.064 223.384,302.438 217.750,298.818 C 213.972,296.390 211.413,295.745 205.750,295.790 C 201.602,295.823 199.604,296.146 194.024,297.687 C 190.324,298.708 186.605,299.971 185.759,300.494 C 184.913,301.017 182.646,302.224 180.720,303.175 C 177.102,304.963 176.441,305.736 175.526,309.250 C 174.717,312.359 174.893,314.521 176.281,318.493 C 178.740,325.529 182.083,328.967 190.500,333.115 C 196.853,336.246 200.861,337.454 206.500,337.939 C 210.923,338.319 213.575,338.006 216.072,336.809 Z M 120.567,337.242 C 132.655,335.127 143.317,328.388 146.878,320.610 C 147.958,318.250 148.189,317.007 148.199,313.500 C 148.220,306.093 146.554,304.233 135.979,299.861 C 128.164,296.630 124.822,295.856 118.500,295.810 C 108.101,295.736 101.684,299.186 98.151,306.750 C 96.861,309.513 96.750,310.224 96.750,315.750 C 96.750,322.371 97.334,325.198 99.604,329.555 C 101.310,332.831 103.950,335.566 106.757,336.966 C 109.247,338.208 114.448,338.312 120.567,337.242 Z M 80.400,371.822 C 79.933,371.467 78.583,370.871 77.400,370.497 C 71.456,368.618 56.682,359.862 52.000,355.443 C 50.763,354.275 48.213,352.017 46.333,350.426 C 34.821,340.678 23.817,323.324 18.963,307.263 C 16.499,299.110 15.737,295.443 14.747,286.977 C 13.614,277.282 13.871,264.139 15.168,265.514 C 15.290,265.644 16.910,268.729 18.768,272.370 C 22.398,279.485 24.393,282.190 27.670,284.445 C 32.864,288.018 38.079,288.281 41.550,285.146 C 45.870,281.243 45.174,276.096 38.614,263.430 C 36.992,260.297 34.504,256.108 33.086,254.121 C 30.672,250.737 24.959,240.947 23.606,237.875 C 20.455,230.720 19.211,225.858 18.585,218.250 C 17.931,210.298 19.567,198.207 22.409,190.000 C 24.418,184.199 30.302,172.078 34.696,164.694 C 38.863,157.690 45.371,149.552 46.331,150.145 C 46.670,150.355 46.361,153.071 45.427,158.107 C 43.663,167.620 43.602,172.313 45.170,178.004 C 45.814,180.339 46.739,183.037 47.225,184.000 C 48.315,186.156 51.289,189.341 53.100,190.291 C 55.059,191.320 59.664,191.193 61.895,190.049 C 67.317,187.268 68.397,183.069 66.692,171.406 C 66.019,166.803 65.981,165.128 66.463,161.370 C 67.701,151.714 69.998,145.149 75.826,134.605 C 78.454,129.850 81.379,123.791 82.327,121.141 C 83.897,116.748 84.052,115.812 84.088,110.536 C 84.148,101.487 81.326,92.212 76.754,86.434 C 74.858,84.038 75.106,83.024 77.318,84.134 C 78.105,84.530 79.793,85.109 81.067,85.420 C 84.740,86.316 94.644,92.220 98.033,95.532 C 100.781,98.218 105.068,105.036 107.351,110.351 C 109.988,116.488 111.278,122.462 111.743,130.676 C 112.240,139.454 113.811,143.509 117.373,145.208 C 119.454,146.200 124.581,146.242 126.437,145.282 C 128.821,144.050 131.342,140.798 132.198,137.854 C 133.787,132.391 132.771,120.927 130.029,113.361 C 129.509,111.925 128.376,108.388 127.511,105.500 C 126.647,102.612 125.736,99.800 125.487,99.250 C 124.611,97.315 122.415,89.549 121.528,85.250 C 119.223,74.077 119.653,65.781 123.108,54.750 C 126.759,43.094 135.980,30.075 147.723,19.994 C 151.462,16.784 158.558,12.022 159.625,12.006 C 160.178,11.997 160.082,14.390 159.515,14.741 C 159.040,15.034 156.628,22.546 155.578,27.004 C 155.286,28.244 154.819,32.069 154.540,35.504 C 153.650,46.478 155.566,58.661 159.550,67.359 C 160.347,69.100 161.000,70.629 161.000,70.756 C 161.000,71.259 166.353,79.929 168.406,82.750 C 171.831,87.457 180.355,96.810 182.921,98.677 C 186.750,101.462 188.180,102.000 191.750,102.000 C 195.425,102.000 197.321,101.262 199.919,98.819 C 203.850,95.123 204.880,90.843 203.770,82.818 C 202.925,76.707 202.548,75.537 199.421,69.304 C 198.258,66.986 197.626,65.174 197.889,64.911 C 198.420,64.380 205.159,68.642 210.409,72.831 C 217.543,78.523 224.418,86.914 228.383,94.768 C 230.122,98.213 232.675,106.230 233.551,111.000 C 234.530,116.326 234.281,127.489 233.066,132.750 C 232.495,135.225 231.567,139.275 231.005,141.750 C 230.442,144.225 229.787,149.030 229.548,152.428 C 228.915,161.458 229.950,165.110 234.204,168.855 C 236.807,171.147 239.249,172.000 243.203,172.000 C 250.020,172.000 255.829,166.003 257.071,157.685 C 257.353,155.796 257.664,150.200 257.762,145.250 C 257.920,137.226 258.095,135.677 259.375,130.971 C 260.948,125.190 264.036,119.796 268.758,114.579 C 271.683,111.347 279.458,106.000 281.231,106.000 C 282.704,106.000 282.733,106.098 281.803,107.900 C 280.288,110.836 278.397,117.474 277.668,122.414 C 276.178,132.521 278.082,139.656 287.232,158.250 C 293.537,171.065 296.005,178.979 297.013,189.613 C 298.047,200.519 295.452,214.809 290.413,225.960 C 287.785,231.774 285.719,235.941 284.398,238.087 C 281.362,243.023 279.055,250.256 279.018,254.956 C 278.936,265.238 287.783,270.008 294.572,263.343 C 298.718,259.273 302.009,251.694 303.296,243.250 C 303.673,240.775 303.986,238.581 303.991,238.375 C 304.013,237.453 305.075,238.130 305.561,239.375 C 308.287,246.371 311.002,263.884 310.999,274.462 C 310.998,278.566 309.831,292.109 309.208,295.250 C 308.399,299.332 306.774,305.637 305.672,308.972 C 302.272,319.261 291.713,337.222 284.843,344.403 C 279.996,349.469 269.173,357.903 261.000,362.982 C 257.444,365.192 247.936,369.998 247.118,369.999 C 246.771,370.000 246.096,370.198 245.618,370.439 C 243.174,371.675 240.843,372.510 240.578,372.245 C 240.415,372.081 240.989,371.393 241.855,370.715 C 242.720,370.038 243.940,368.643 244.564,367.617 C 245.188,366.590 246.526,364.625 247.537,363.250 C 248.548,361.875 250.005,359.288 250.776,357.500 C 251.546,355.712 253.449,351.550 255.004,348.250 C 258.344,341.165 259.217,337.522 258.897,332.001 C 258.685,328.331 258.429,327.521 256.034,322.925 C 253.608,318.268 253.432,317.698 253.750,315.564 C 253.940,314.291 254.610,312.012 255.238,310.500 C 257.979,303.899 259.663,297.814 261.049,289.500 C 261.924,284.252 262.959,273.227 262.979,268.928 C 263.046,255.090 259.251,237.744 253.862,227.250 C 251.189,222.045 244.213,211.461 241.265,208.140 C 238.506,205.031 228.180,195.842 224.998,193.663 C 221.073,190.976 210.593,185.278 205.726,183.185 C 199.323,180.431 195.449,178.976 192.000,178.027 C 189.938,177.459 187.575,176.784 186.750,176.527 C 185.925,176.270 182.550,175.553 179.250,174.933 C 174.202,173.985 171.583,173.809 162.750,173.823 C 153.562,173.838 151.329,174.008 144.881,175.183 C 118.020,180.081 94.193,193.574 79.425,212.250 C 76.589,215.837 71.814,223.377 70.401,226.500 C 67.975,231.862 66.478,235.733 65.275,239.750 C 64.534,242.225 63.722,244.925 63.471,245.750 C 62.123,250.174 60.928,261.709 60.855,271.000 C 60.756,283.585 62.046,291.535 66.025,302.879 C 68.338,309.472 69.978,315.103 69.991,316.500 C 69.998,317.188 68.823,320.113 67.381,323.000 L 64.758,328.250 L 64.784,333.500 C 64.813,339.714 65.661,342.733 69.803,351.382 C 71.306,354.520 72.835,357.958 73.201,359.020 C 74.026,361.414 79.265,368.784 81.125,370.166 C 82.550,371.225 82.966,372.512 81.875,372.484 C 81.531,372.475 80.868,372.178 80.400,371.822 Z" fill="#000000" fill-rule="evenodd" /></svg>