<svg xmlns="http://www.w3.org/2000/svg" viewBox="0 0 386 412" width="386" height="412"><path d="M 186.374,398.268 C 181.633,396.605 169.310,391.397 163.250,388.495 C 157.825,385.897 148.957,382.697 135.500,378.482 C 134.537,378.181 133.300,377.747 132.750,377.518 C 132.200,377.289 130.175,376.703 128.250,376.216 C 126.325,375.729 122.162,374.460 119.000,373.397 C 115.838,372.334 112.688,371.342 112.000,371.194 C 111.312,371.046 110.300,370.741 109.750,370.517 C 109.200,370.292 105.845,369.147 102.295,367.973 C 98.745,366.798 94.522,365.198 92.912,364.418 C 91.302,363.638 89.804,363.000 89.584,363.000 C 88.860,363.000 69.829,353.411 66.157,351.196 C 56.974,345.657 51.572,342.109 49.171,340.041 C 48.028,339.056 45.902,337.350 44.447,336.250 C 35.647,329.596 17.500,308.633 17.500,305.121 C 17.500,303.733 20.696,297.536 22.848,294.750 C 25.360,291.499 32.116,286.862 40.000,282.978 C 43.438,281.284 47.293,279.359 48.568,278.699 C 49.842,278.040 51.342,277.500 51.900,277.500 C 52.470,277.500 54.745,279.183 57.083,281.334 C 65.815,289.367 76.542,297.200 84.750,301.539 C 94.698,306.797 97.501,308.166 97.768,307.898 C 98.203,307.464 95.613,304.641 91.785,301.380 C 85.744,296.231 69.989,280.526 64.851,274.530 C 59.942,268.803 55.417,261.858 51.544,254.112 C 49.096,249.213 46.626,240.093 46.192,234.343 C 45.659,227.294 47.292,217.961 50.843,207.750 C 51.800,205.000 52.875,201.738 53.233,200.500 C 53.591,199.262 54.901,196.113 56.144,193.500 C 57.388,190.887 59.577,185.938 61.008,182.500 C 62.439,179.062 64.250,174.773 65.032,172.969 C 65.814,171.164 67.050,168.014 67.779,165.969 C 68.508,163.923 69.723,160.900 70.480,159.250 C 71.658,156.681 77.081,140.344 78.529,135.000 C 79.807,130.284 83.387,118.456 85.566,111.750 C 86.907,107.625 88.240,103.463 88.529,102.500 C 88.818,101.537 89.479,99.737 89.998,98.500 C 90.517,97.263 91.675,94.338 92.572,92.000 C 96.358,82.133 105.507,66.124 113.042,56.183 C 114.946,53.671 119.822,48.396 123.877,44.461 C 141.052,27.794 158.880,17.507 176.750,13.952 C 188.083,11.697 200.016,11.328 208.361,12.973 C 215.501,14.380 223.305,16.763 228.500,19.123 C 229.463,19.560 231.262,20.350 232.500,20.879 C 236.041,22.390 248.781,30.722 253.924,34.889 C 261.728,41.213 272.264,52.073 277.801,59.500 C 285.605,69.970 293.467,83.986 296.872,93.500 C 298.964,99.348 304.732,117.023 305.437,119.750 C 306.037,122.070 312.121,141.257 315.267,150.750 C 317.328,156.971 318.602,160.468 321.002,166.500 C 321.603,168.012 322.559,170.488 323.125,172.000 C 323.691,173.512 324.435,175.200 324.779,175.750 C 325.123,176.300 327.258,181.025 329.522,186.250 C 339.388,209.014 342.189,218.802 342.188,230.500 C 342.187,239.847 340.604,245.924 335.522,256.095 C 331.065,265.016 327.844,269.544 319.938,278.000 C 310.187,288.430 297.117,301.491 293.884,304.037 C 291.190,306.158 290.189,307.356 290.691,307.858 C 291.005,308.172 298.757,304.873 301.500,303.258 C 302.462,302.691 303.835,301.931 304.550,301.570 C 308.853,299.391 330.982,282.915 334.473,279.289 C 335.421,278.305 336.621,277.500 337.139,277.500 C 338.077,277.500 343.205,279.581 347.500,281.704 C 353.368,284.605 361.024,289.624 362.995,291.861 C 365.079,294.225 371.000,305.444 371.000,307.028 C 371.000,309.775 353.601,328.461 343.750,336.295 C 334.785,343.424 332.850,344.790 325.250,349.355 C 314.011,356.107 302.959,361.872 295.439,364.906 C 288.103,367.867 276.480,372.000 275.493,372.000 C 275.120,372.000 273.901,372.427 272.783,372.948 C 271.665,373.470 270.075,374.042 269.250,374.220 C 268.425,374.399 266.962,374.745 266.000,374.989 C 265.038,375.233 262.788,375.797 261.000,376.243 C 256.992,377.242 251.568,378.837 248.250,379.992 C 246.875,380.471 243.500,381.601 240.750,382.503 C 238.000,383.405 234.313,384.786 232.556,385.572 C 230.799,386.357 229.048,387.000 228.664,387.000 C 228.281,387.000 226.793,387.606 225.358,388.346 C 222.627,389.756 218.299,391.636 210.750,394.691 C 208.275,395.693 205.575,396.816 204.750,397.188 C 201.170,398.802 196.547,400.009 194.000,399.994 C 192.187,399.984 189.589,399.396 186.374,398.268 Z M 182.500,354.328 C 182.500,353.382 172.321,335.815 169.707,332.250 C 169.102,331.425 168.189,329.961 167.679,328.998 C 166.330,326.453 155.436,312.064 151.831,308.066 C 150.137,306.187 146.742,302.354 144.289,299.550 C 139.689,294.292 125.990,281.664 118.500,275.777 C 108.690,268.067 99.641,258.523 95.529,251.549 C 91.818,245.255 89.605,235.321 90.289,228.018 C 90.772,222.851 93.432,212.395 96.053,205.359 C 96.895,203.099 98.225,199.514 99.008,197.391 C 102.596,187.672 111.840,168.750 113.000,168.750 C 113.510,168.750 113.960,169.709 114.407,171.750 C 114.768,173.400 115.419,176.213 115.853,178.000 C 118.289,188.031 118.572,193.929 116.933,200.500 C 116.350,202.838 115.859,206.213 115.843,208.000 C 115.794,213.372 118.673,219.509 122.863,222.963 C 125.583,225.205 131.656,227.596 135.750,228.037 C 142.045,228.715 147.434,230.719 149.098,233.001 C 149.599,233.689 150.565,235.826 151.244,237.751 C 152.390,240.999 152.480,241.937 152.489,250.820 L 152.500,260.391 L 154.166,262.820 C 155.083,264.157 156.729,265.750 157.824,266.362 C 160.380,267.788 165.099,269.036 165.723,268.449 C 165.983,268.205 166.133,265.868 166.057,263.258 C 165.895,257.692 166.461,255.586 168.532,254.055 C 170.579,252.542 172.324,252.841 174.041,255.000 C 175.352,256.649 175.452,257.126 175.753,263.250 C 175.929,266.825 176.307,270.365 176.594,271.117 C 177.224,272.771 179.040,273.367 184.820,273.820 C 188.612,274.117 188.929,274.067 189.452,273.090 C 189.798,272.444 189.891,270.995 189.694,269.319 C 189.518,267.821 189.534,264.666 189.731,262.307 C 190.266,255.888 192.175,253.683 196.301,254.718 C 198.419,255.250 199.005,257.354 199.252,265.310 C 199.389,269.732 199.705,272.894 200.050,273.311 C 200.391,273.721 201.560,273.993 202.936,273.982 C 205.995,273.957 211.905,272.795 212.623,272.077 C 213.000,271.700 213.166,269.339 213.112,265.128 C 213.015,257.450 213.466,255.458 215.688,253.764 C 217.752,252.189 218.057,252.192 219.980,253.810 C 222.342,255.797 222.861,257.283 223.176,262.958 C 223.335,265.822 223.642,268.339 223.858,268.550 C 224.413,269.095 228.340,268.125 231.000,266.785 C 233.429,265.561 235.584,262.860 236.458,259.944 C 236.756,258.949 237.000,254.281 237.000,249.572 C 237.000,239.852 237.468,237.867 240.790,233.511 C 243.146,230.422 243.242,230.384 254.000,228.318 C 259.511,227.260 262.683,225.984 265.737,223.599 C 267.895,221.913 268.806,220.727 270.139,217.862 C 271.063,215.875 272.109,213.200 272.463,211.918 C 273.221,209.168 272.981,203.423 271.817,196.500 C 271.200,192.828 271.133,191.069 271.522,188.750 C 272.238,184.481 273.002,181.065 273.762,178.727 C 274.123,177.614 274.674,175.251 274.986,173.477 C 275.701,169.401 275.969,168.500 276.466,168.500 C 278.344,168.500 288.441,191.657 294.242,209.272 C 297.293,218.536 297.952,221.221 298.559,226.873 C 299.374,234.466 298.219,242.546 295.610,247.500 C 290.863,256.513 281.630,267.033 271.250,275.255 C 251.716,290.729 234.963,308.892 221.783,328.885 C 214.498,339.936 206.500,353.150 206.500,354.135 C 206.500,355.200 208.138,354.886 210.804,353.311 C 213.994,351.426 219.180,346.425 222.604,341.934 C 239.625,319.604 249.004,308.669 257.284,301.500 C 259.983,299.163 264.022,295.562 266.258,293.500 C 268.494,291.438 271.769,288.545 273.537,287.072 C 278.572,282.877 287.860,274.616 292.171,270.500 C 298.758,264.210 304.032,255.422 307.472,245.000 C 308.818,240.922 309.082,239.260 309.338,233.250 C 309.749,223.585 308.811,219.103 302.222,199.250 C 298.737,188.752 288.395,166.168 282.760,156.750 C 281.608,154.825 279.334,151.036 277.708,148.329 C 276.081,145.623 274.188,142.413 273.500,141.196 C 269.320,133.799 264.264,125.884 258.720,118.057 C 257.087,115.751 255.102,112.938 254.310,111.807 C 247.722,102.396 237.235,90.879 230.418,85.567 C 221.820,78.868 212.611,73.826 203.740,70.960 C 200.914,70.047 199.565,69.929 193.859,70.097 C 187.938,70.271 186.755,70.464 182.500,71.954 C 174.460,74.770 167.823,78.232 161.500,82.911 C 156.691,86.469 145.861,97.068 142.135,101.864 C 140.548,103.906 138.051,107.078 136.585,108.913 C 134.140,111.975 127.364,121.929 122.742,129.250 C 118.277,136.324 109.792,150.424 108.031,153.698 C 106.980,155.652 105.162,158.938 103.991,161.000 C 96.140,174.829 90.535,187.716 84.743,205.250 C 80.620,217.733 79.851,222.370 80.106,233.231 C 80.299,241.466 80.438,242.598 81.696,246.250 C 86.482,260.135 94.983,270.551 114.176,286.048 C 124.253,294.184 138.667,307.948 144.966,315.447 C 152.812,324.790 159.342,332.898 163.929,338.991 C 169.846,346.854 174.612,351.781 177.983,353.522 C 181.027,355.095 182.500,355.358 182.500,354.328 Z M 182.784,229.540 C 180.722,228.162 180.038,226.670 180.018,223.503 C 179.974,216.670 190.912,194.500 194.328,194.500 C 196.894,194.500 199.786,198.210 203.681,206.500 C 208.530,216.819 209.984,223.148 208.268,226.465 C 207.343,228.255 204.703,230.500 203.524,230.500 C 203.030,230.500 200.931,229.262 198.860,227.750 C 196.789,226.238 194.707,225.000 194.233,225.000 C 193.760,225.000 191.878,226.108 190.052,227.461 C 185.977,230.482 184.729,230.839 182.784,229.540 Z M 235.000,202.418 C 226.686,200.027 222.466,198.053 217.005,194.002 C 212.643,190.765 211.809,189.803 209.835,185.729 C 206.063,177.942 205.770,174.511 208.414,169.070 C 210.378,165.027 214.299,162.174 222.307,158.962 C 230.323,155.746 236.463,155.184 243.384,157.033 C 253.060,159.617 258.000,166.354 258.029,177.005 C 258.043,182.221 257.398,185.569 255.395,190.663 C 253.671,195.049 250.262,199.237 246.808,201.214 C 244.419,202.581 237.884,203.248 235.000,202.418 Z M 144.124,201.883 C 141.802,200.979 135.677,195.293 134.377,192.833 C 131.801,187.960 130.939,185.213 130.653,180.970 C 130.121,173.078 132.117,165.962 135.934,162.145 C 140.370,157.709 143.756,156.282 151.250,155.689 C 154.892,155.401 155.832,155.539 161.750,157.232 C 169.564,159.466 172.996,161.205 176.959,164.937 C 182.451,170.109 183.535,175.515 180.557,182.875 C 177.568,190.260 171.795,195.385 161.337,199.936 C 156.786,201.916 156.030,202.090 151.087,202.294 C 147.484,202.443 145.222,202.310 144.124,201.883 Z" fill="#000000" fill-rule="evenodd" /></svg>