<svg xmlns="http://www.w3.org/2000/svg" viewBox="0 0 311 301" width="311" height="301"><path d="M 72.000,278.395 C 70.487,276.970 64.727,271.348 59.200,265.902 C 53.672,260.456 48.870,256.000 48.530,256.000 C 48.189,256.000 45.846,257.993 43.323,260.430 C 37.390,266.159 35.359,267.225 31.127,266.830 C 27.419,266.483 21.951,263.826 20.078,261.459 C 18.329,259.250 16.973,255.136 16.860,251.702 C 16.765,248.802 16.869,248.509 18.990,245.702 C 20.217,244.078 33.120,230.831 47.665,216.263 C 62.209,201.695 75.751,187.970 77.758,185.763 C 84.319,178.546 117.947,145.094 122.275,141.479 C 124.599,139.538 126.500,137.771 126.500,137.553 C 126.500,137.334 126.059,136.756 125.521,136.269 C 123.893,134.796 122.920,131.089 123.436,128.326 C 124.016,125.222 125.298,123.934 129.408,122.321 C 133.471,120.727 133.990,120.705 135.700,122.050 C 136.628,122.780 137.417,123.004 138.289,122.785 C 139.904,122.380 140.311,121.267 139.441,119.635 C 139.039,118.880 138.766,116.959 138.787,115.044 C 138.853,109.177 142.015,105.837 147.500,105.840 C 149.331,105.841 150.953,106.202 152.355,106.921 C 153.513,107.514 154.750,108.000 155.105,107.999 C 155.460,107.999 156.386,106.991 157.164,105.760 C 157.941,104.530 159.460,102.824 160.539,101.969 C 161.617,101.115 162.500,100.125 162.500,99.770 C 162.500,99.189 158.238,97.000 157.109,97.000 C 154.954,97.000 148.439,90.515 143.912,83.864 C 141.750,80.688 138.616,74.284 137.869,71.519 C 136.132,65.082 136.294,55.700 138.247,49.750 C 140.726,42.197 143.736,37.069 148.626,32.074 C 153.768,26.819 158.220,24.112 166.042,21.481 C 170.380,20.022 171.261,19.899 177.250,19.909 C 187.902,19.926 194.793,22.216 201.138,27.846 C 203.185,29.662 203.852,29.609 205.756,27.481 C 206.303,26.870 207.537,25.839 208.500,25.189 C 209.463,24.539 211.375,23.215 212.750,22.245 C 219.247,17.664 229.178,16.189 239.369,18.291 C 248.716,20.220 258.000,28.219 261.977,37.772 C 264.041,42.729 264.680,47.230 264.352,54.500 C 263.969,63.011 262.691,65.994 256.052,73.871 C 253.138,77.328 252.390,79.064 253.515,79.759 C 254.244,80.210 258.229,86.409 259.134,88.500 C 262.817,97.015 263.826,105.080 262.290,113.750 C 261.901,115.950 261.200,118.875 260.734,120.250 C 259.665,123.402 256.539,129.500 255.993,129.500 C 255.766,129.500 253.594,131.479 251.166,133.898 C 240.716,144.308 228.450,148.115 214.000,145.435 C 205.924,143.937 200.227,140.672 192.741,133.250 C 187.406,127.960 185.519,125.264 184.780,121.875 C 184.418,120.209 183.631,120.096 183.041,121.625 C 182.528,122.951 181.129,124.258 177.875,126.449 C 176.569,127.328 175.500,128.356 175.500,128.733 C 175.500,129.110 176.039,130.505 176.698,131.834 C 179.339,137.162 178.613,140.717 174.448,142.848 C 171.525,144.343 166.933,144.413 164.613,142.998 C 162.607,141.775 162.655,141.775 162.003,142.994 C 161.599,143.750 161.778,145.264 162.750,149.298 C 164.005,154.507 164.012,154.637 163.116,156.172 C 162.613,157.032 161.237,158.414 160.058,159.243 C 158.220,160.535 157.461,160.750 154.748,160.750 C 151.980,160.750 151.291,160.545 149.269,159.120 L 146.956,157.489 L 137.819,166.620 C 132.794,171.641 126.897,177.447 124.716,179.521 C 121.468,182.609 113.167,191.137 98.500,206.454 C 97.537,207.459 95.758,209.090 94.545,210.077 L 92.340,211.873 L 93.442,213.656 C 94.579,215.496 114.380,234.743 116.698,236.262 C 117.414,236.731 118.000,237.279 118.000,237.480 C 118.000,237.884 106.993,249.000 106.593,249.000 C 106.454,249.000 103.015,245.738 98.950,241.750 C 94.460,237.347 91.169,234.500 90.568,234.500 C 89.532,234.500 86.000,238.219 86.000,239.310 C 86.000,239.657 87.519,241.550 89.375,243.517 C 91.231,245.484 92.930,247.410 93.150,247.796 C 93.713,248.788 93.119,249.635 89.989,252.300 C 88.483,253.583 86.701,255.400 86.030,256.337 L 84.811,258.042 L 80.271,253.521 C 77.774,251.034 75.486,249.000 75.185,249.000 C 74.651,249.000 71.500,254.435 71.500,255.357 C 71.500,255.718 79.875,264.245 85.344,269.451 C 85.986,270.062 85.385,270.851 80.674,275.576 C 77.700,278.559 75.151,280.997 75.009,280.994 C 74.866,280.990 73.513,279.821 72.000,278.395 Z M 228.678,125.252 C 231.748,124.321 233.763,123.070 236.081,120.656 C 241.965,114.528 243.938,105.288 240.740,98.831 C 238.498,94.304 233.570,88.842 230.354,87.321 C 225.427,84.990 217.649,85.107 212.685,87.586 C 209.706,89.074 204.492,94.644 202.755,98.196 C 201.030,101.721 200.684,104.645 201.521,108.635 C 202.428,112.963 203.112,114.432 205.698,117.607 C 208.154,120.622 212.341,123.653 215.948,125.027 C 218.862,126.138 225.380,126.253 228.678,125.252 Z M 186.806,79.436 C 193.979,75.977 198.322,68.245 197.930,59.636 C 197.778,56.309 197.462,55.114 195.891,51.936 C 193.544,47.187 189.912,43.489 185.537,41.391 C 182.541,39.955 181.829,39.818 177.500,39.843 C 171.777,39.875 170.346,40.422 166.238,44.148 C 164.178,46.016 162.679,47.963 161.491,50.314 C 160.536,52.204 159.324,54.253 158.797,54.867 C 158.004,55.793 157.832,56.822 157.795,60.867 C 157.753,65.474 157.848,65.947 159.476,69.226 C 161.539,73.381 166.084,78.142 169.425,79.649 C 174.543,81.957 181.762,81.868 186.806,79.436 Z M 236.050,64.421 C 240.444,62.923 243.764,59.405 245.311,54.607 C 246.022,52.404 246.069,51.555 245.597,49.508 C 244.739,45.795 243.090,42.665 240.806,40.422 C 238.211,37.873 236.783,37.136 233.430,36.614 C 227.219,35.649 220.990,38.946 218.601,44.464 C 218.105,45.610 217.814,47.875 217.789,50.784 C 217.756,54.665 217.927,55.663 218.979,57.709 C 220.463,60.594 222.891,62.691 226.250,63.985 C 229.091,65.079 233.538,65.277 236.050,64.421 Z" fill="#000000" fill-rule="evenodd" /></svg>