<svg xmlns="http://www.w3.org/2000/svg" viewBox="0 0 268 283" width="268" height="283"><path d="M 86.135,267.999 C 78.938,266.490 72.927,261.082 70.254,253.712 C 69.235,250.903 69.000,249.334 69.000,245.346 C 69.000,241.067 69.168,240.095 70.307,237.768 L 71.614,235.099 L 70.356,232.675 C 68.056,228.243 67.911,227.679 67.844,222.932 C 67.780,218.353 67.838,218.095 69.829,214.103 C 71.803,210.144 71.855,209.918 71.216,208.065 C 68.990,201.603 70.460,193.764 74.752,189.214 C 76.318,187.553 76.346,187.440 76.110,183.770 C 75.846,179.656 76.273,178.095 78.604,174.640 C 80.326,172.087 82.814,170.112 84.810,169.713 C 86.210,169.433 86.357,169.570 87.643,172.357 C 88.389,173.973 89.000,175.557 89.000,175.876 C 89.000,176.195 88.415,177.309 87.700,178.353 C 85.799,181.127 85.496,182.194 86.046,184.185 C 86.675,186.462 89.279,188.603 93.471,190.290 C 99.410,192.680 100.710,192.905 108.884,192.959 C 117.124,193.013 121.654,192.547 122.655,191.543 C 123.268,190.927 123.403,185.236 122.818,184.651 C 122.642,184.475 120.010,184.029 116.969,183.660 C 98.261,181.389 89.000,174.141 89.000,161.769 C 89.000,160.004 88.831,158.455 88.625,158.328 C 87.900,157.881 69.181,157.782 63.141,158.193 L 57.032,158.609 L 55.516,157.093 C 54.327,155.904 54.000,155.140 54.000,153.551 C 54.000,150.364 55.449,149.844 67.413,148.737 C 82.426,147.348 91.980,147.950 103.522,151.011 C 108.698,152.384 113.931,154.396 118.103,156.617 L 121.955,158.669 L 125.603,156.959 C 128.994,155.370 129.601,155.250 134.262,155.250 C 138.954,155.250 139.494,155.359 142.735,156.955 L 146.196,158.659 L 148.043,157.596 C 152.986,154.751 167.095,150.036 174.331,148.810 C 176.220,148.490 176.540,148.845 177.659,152.500 C 180.153,160.643 180.531,162.333 180.243,164.039 C 179.584,167.943 177.366,172.541 175.171,174.551 C 169.946,179.337 162.965,182.096 152.500,183.511 C 145.342,184.478 146.000,184.026 146.000,187.981 C 146.000,192.996 146.009,193.000 157.370,193.000 C 164.985,193.000 167.153,192.830 170.305,191.985 C 179.428,189.540 184.359,185.078 182.312,181.119 C 181.902,180.326 181.214,179.385 180.783,179.027 C 180.352,178.670 180.000,177.943 180.000,177.411 C 180.000,176.078 183.055,170.500 183.786,170.500 C 184.112,170.500 185.318,171.742 186.464,173.260 C 187.610,174.779 189.577,177.179 190.834,178.595 L 193.121,181.169 L 192.803,184.268 C 192.556,186.681 192.649,187.502 193.225,187.979 C 194.633,189.148 197.546,193.995 198.266,196.367 C 199.265,199.660 199.179,203.803 198.039,207.257 L 197.079,210.169 L 198.279,211.935 C 198.939,212.907 199.964,215.267 200.556,217.180 C 202.111,222.206 201.707,226.680 199.248,231.656 L 197.415,235.365 L 198.668,237.838 C 201.227,242.887 200.916,250.252 197.884,256.410 C 195.270,261.720 191.276,265.187 185.072,267.531 C 182.972,268.325 175.473,268.321 172.559,267.524 C 165.392,265.567 158.677,260.267 150.550,250.155 C 147.497,246.357 144.720,242.631 144.378,241.874 C 143.619,240.197 142.957,240.331 142.373,242.281 C 141.463,245.320 138.858,250.030 137.418,251.243 C 135.348,252.984 133.872,252.832 131.417,250.625 C 129.417,248.827 126.000,242.619 126.000,240.783 C 126.000,239.547 125.093,239.869 124.310,241.384 C 123.108,243.708 116.975,252.100 114.544,254.748 C 108.599,261.222 102.439,265.663 97.232,267.230 C 94.051,268.188 88.776,268.553 86.135,267.999 Z M 97.430,256.497 C 100.922,254.636 103.234,252.471 106.304,248.187 C 108.791,244.717 109.059,243.722 107.375,244.208 C 106.756,244.386 104.145,244.785 101.573,245.093 C 95.841,245.779 88.639,245.114 84.250,243.492 C 82.600,242.883 80.631,242.272 79.875,242.135 C 78.611,241.907 78.493,242.022 78.408,243.568 C 78.037,250.395 81.014,255.669 86.349,257.635 C 89.812,258.911 93.639,258.518 97.430,256.497 Z M 184.715,256.692 C 189.095,254.244 191.976,247.639 190.406,243.644 C 189.996,242.602 189.456,241.796 189.206,241.853 C 188.955,241.910 186.900,242.620 184.639,243.431 C 181.790,244.452 179.104,245.005 175.889,245.232 C 171.635,245.532 163.852,244.992 161.125,244.207 C 159.440,243.722 159.709,244.719 162.201,248.187 C 168.788,257.353 177.585,260.677 184.715,256.692 Z M 105.520,233.927 C 109.281,232.777 115.262,229.649 119.241,226.750 C 121.962,224.768 123.000,223.081 123.000,220.642 C 123.000,219.663 122.811,219.493 122.006,219.748 C 114.404,222.161 111.979,222.589 104.423,222.854 C 94.225,223.212 89.616,222.557 84.056,219.959 C 81.749,218.882 79.561,218.000 79.194,218.000 C 78.161,218.000 77.000,220.713 77.000,223.127 C 77.000,225.853 79.009,229.186 81.824,231.132 C 87.599,235.123 97.707,236.315 105.520,233.927 Z M 180.500,234.426 C 188.961,231.704 192.942,226.682 191.422,220.648 C 191.122,219.457 190.673,218.357 190.424,218.203 C 190.175,218.049 188.121,218.713 185.860,219.678 C 183.600,220.643 179.869,221.785 177.570,222.216 C 172.849,223.101 161.210,223.275 157.882,222.510 C 156.709,222.240 153.838,221.541 151.500,220.956 C 145.568,219.472 145.775,219.447 145.591,221.684 C 145.448,223.433 145.665,223.841 147.859,225.934 C 151.500,229.408 161.360,233.975 167.388,234.980 C 170.418,235.486 178.232,235.155 180.500,234.426 Z M 114.000,211.807 C 116.612,211.123 119.650,210.268 120.750,209.906 L 122.750,209.249 L 122.898,205.550 L 123.047,201.852 L 119.398,202.301 C 117.392,202.548 112.263,202.743 108.000,202.734 C 101.225,202.720 99.602,202.548 95.100,201.371 C 92.268,200.631 88.172,199.100 85.998,197.969 C 83.825,196.838 81.838,196.041 81.584,196.198 C 80.746,196.716 79.500,199.872 79.500,201.475 C 79.500,205.079 82.844,208.509 88.756,210.970 C 93.992,213.150 96.135,213.487 103.250,213.251 C 107.506,213.109 110.631,212.689 114.000,211.807 Z M 177.881,212.076 C 181.961,210.789 184.902,209.033 187.154,206.540 C 189.915,203.484 190.176,200.683 188.029,197.163 L 187.060,195.575 L 181.823,198.225 C 178.942,199.682 175.947,200.991 175.167,201.135 C 174.388,201.279 171.838,201.757 169.500,202.197 C 164.447,203.150 155.794,203.200 150.348,202.308 C 146.747,201.718 146.408,201.737 145.973,202.551 C 145.440,203.546 145.427,206.130 145.945,207.988 C 146.350,209.443 148.727,210.398 156.615,212.276 C 161.073,213.337 162.606,213.469 168.250,213.281 C 172.826,213.128 175.677,212.771 177.881,212.076 Z M 121.698,173.084 C 121.993,172.608 119.705,169.048 118.531,168.156 C 115.807,166.084 103.085,160.720 100.000,160.342 C 99.015,160.221 98.710,163.593 99.528,165.567 C 100.782,168.595 105.484,171.622 110.694,172.756 C 114.138,173.505 121.306,173.718 121.698,173.084 Z M 156.000,172.812 C 163.633,172.184 169.428,168.001 170.311,162.483 C 170.561,160.919 170.455,160.451 169.793,160.197 C 168.876,159.845 158.504,163.332 153.714,165.602 C 150.071,167.329 147.000,170.153 147.000,171.775 C 147.000,172.716 147.308,172.970 148.625,173.112 C 149.519,173.208 150.925,173.231 151.750,173.163 C 152.575,173.094 154.488,172.937 156.000,172.812 Z M 14.007,267.258 C 13.182,266.264 14.064,258.490 15.198,256.759 C 16.188,255.248 18.226,254.660 19.963,255.383 C 27.640,258.581 30.219,259.422 35.671,260.510 C 37.278,260.830 39.022,261.522 39.546,262.046 C 40.701,263.201 40.780,265.378 39.722,266.889 C 38.954,267.985 38.782,268.000 26.783,268.000 C 16.643,268.000 14.520,267.877 14.007,267.258 Z M 229.307,267.217 C 229.138,266.778 229.000,265.542 229.000,264.471 C 229.000,261.975 229.828,261.426 236.000,259.822 C 240.660,258.611 241.846,258.218 247.612,255.979 C 250.121,255.005 250.666,254.947 252.026,255.511 C 254.437,256.509 254.942,257.740 255.104,263.005 L 255.250,267.750 L 242.432,267.883 C 231.070,268.002 229.579,267.926 229.307,267.217 Z M 35.762,254.968 C 34.668,254.423 33.061,253.286 32.190,252.442 C 30.859,251.152 30.445,250.995 29.586,251.454 C 27.907,252.353 23.184,252.114 21.043,251.022 C 18.064,249.502 16.629,247.455 16.212,244.130 C 15.681,239.892 17.140,237.485 22.049,234.500 C 25.350,232.493 25.912,231.920 27.250,229.194 C 28.075,227.513 29.287,224.138 29.944,221.694 C 30.600,219.250 31.909,214.550 32.853,211.250 C 33.796,207.950 35.124,203.000 35.802,200.250 C 36.481,197.500 37.247,194.575 37.505,193.750 C 38.494,190.591 39.627,185.616 40.096,182.371 C 40.553,179.220 40.498,178.817 39.293,176.398 C 37.879,173.561 37.527,168.818 38.532,166.158 C 39.726,162.996 43.974,160.000 47.263,160.000 C 49.386,160.000 50.386,160.468 53.780,163.050 C 56.168,164.867 56.456,164.958 58.902,164.668 C 64.047,164.059 67.697,166.614 69.276,171.930 C 70.303,175.389 69.644,177.752 66.861,180.589 C 64.800,182.691 63.579,183.492 61.000,184.438 C 59.862,184.855 59.147,185.919 57.600,189.500 C 57.303,190.188 56.358,193.113 55.500,196.000 C 54.642,198.887 53.745,201.700 53.508,202.250 C 53.270,202.800 52.969,203.812 52.838,204.500 C 52.708,205.188 52.040,207.662 51.353,210.000 C 50.667,212.338 49.277,217.512 48.265,221.500 C 47.253,225.488 45.992,230.194 45.463,231.959 C 44.169,236.273 44.221,236.771 46.278,239.758 C 50.174,245.415 48.846,251.937 43.178,254.974 C 40.791,256.254 38.335,256.252 35.762,254.968 Z M 226.250,255.167 C 222.682,253.282 221.000,250.439 221.000,246.293 C 221.000,243.410 221.487,241.891 223.339,239.000 L 224.461,237.250 L 223.205,231.000 C 222.515,227.562 221.518,223.287 220.991,221.500 C 220.464,219.713 219.220,215.100 218.226,211.250 C 217.232,207.400 215.650,201.897 214.709,199.022 C 213.769,196.146 213.000,193.364 213.000,192.840 C 213.000,191.794 212.574,191.771 219.500,193.189 C 221.562,193.612 224.802,194.136 226.700,194.354 C 229.554,194.682 230.305,194.966 231.053,196.000 C 231.550,196.688 233.089,201.412 234.472,206.500 C 241.180,231.164 240.952,230.663 247.224,234.452 C 250.307,236.314 251.542,237.767 252.468,240.620 C 253.383,243.443 252.119,247.325 249.517,249.676 C 246.993,251.956 245.618,252.287 241.686,251.562 L 238.521,250.979 L 236.623,252.877 C 233.698,255.802 229.293,256.775 226.250,255.167 Z M 223.000,187.440 C 215.348,186.205 207.728,183.229 201.649,179.101 C 197.041,175.972 190.421,168.143 188.246,163.250 C 184.699,155.273 182.000,143.868 182.000,136.863 C 182.000,133.665 182.114,133.295 183.493,132.007 C 185.800,129.852 187.254,129.706 189.947,131.358 C 191.346,132.216 192.542,133.431 192.994,134.452 L 193.737,136.133 L 198.175,135.845 C 205.555,135.367 214.291,136.880 220.000,139.626 C 224.138,141.616 230.225,147.298 233.585,152.307 C 237.943,158.801 239.784,163.854 240.272,170.658 L 240.624,175.566 L 242.548,176.780 C 246.144,179.050 247.136,183.259 244.625,185.588 C 243.869,186.290 242.485,187.120 241.550,187.432 C 239.568,188.094 227.092,188.099 223.000,187.440 Z M 124.000,148.059 C 117.386,145.924 110.288,140.961 106.923,136.117 C 104.891,133.193 104.012,129.547 103.218,120.750 C 102.846,116.625 102.393,112.631 102.212,111.875 C 101.808,110.186 102.486,110.101 105.629,111.448 C 107.420,112.216 108.059,112.858 108.985,114.823 C 109.613,116.158 110.347,118.713 110.615,120.500 C 111.398,125.720 111.439,125.850 112.794,127.461 C 114.290,129.239 115.272,129.424 115.645,128.000 C 115.830,127.291 116.327,127.000 117.353,127.000 C 119.239,127.000 120.000,127.818 120.000,129.844 C 120.000,131.223 120.328,131.695 122.038,132.774 C 124.471,134.310 125.364,133.887 125.597,131.087 C 125.746,129.300 125.810,129.246 127.950,129.093 C 130.492,128.911 130.981,129.395 130.992,132.107 C 131.001,134.235 132.298,135.285 134.297,134.783 C 135.329,134.524 135.501,134.180 135.508,132.365 C 135.518,129.562 135.971,128.976 138.378,128.653 C 140.131,128.418 140.507,128.545 141.207,129.615 C 141.652,130.293 141.956,131.379 141.883,132.028 C 141.726,133.419 142.712,133.775 144.664,133.033 C 145.784,132.607 146.001,132.219 146.008,130.637 C 146.012,129.599 146.181,128.502 146.383,128.200 C 146.980,127.305 148.746,126.548 149.784,126.743 C 150.315,126.842 151.013,126.941 151.335,126.962 C 151.657,126.983 152.069,127.675 152.250,128.500 C 152.643,130.288 153.455,130.405 154.854,128.875 C 156.428,127.154 157.566,124.606 158.015,121.796 C 159.045,115.354 160.042,113.474 163.436,111.578 C 165.890,110.207 167.297,110.442 166.754,112.131 C 166.556,112.746 166.090,116.508 165.719,120.491 C 164.416,134.466 163.507,136.219 154.250,142.601 C 145.763,148.452 143.977,149.011 133.904,148.973 C 128.477,148.953 126.086,148.732 124.000,148.059 Z M 57.070,136.139 C 55.420,132.848 53.635,129.389 53.103,128.453 C 50.873,124.527 49.883,123.001 49.576,123.019 C 49.397,123.030 48.013,123.809 46.500,124.749 C 37.129,130.577 37.093,130.591 34.573,129.287 C 32.840,128.392 32.000,126.579 32.000,123.738 C 32.000,121.669 32.169,121.390 34.571,119.491 C 35.984,118.374 38.178,116.869 39.446,116.147 C 40.713,115.425 42.200,114.454 42.750,113.990 C 43.300,113.525 44.706,112.621 45.875,111.981 C 47.104,111.307 48.000,110.452 48.000,109.953 C 48.000,109.278 38.715,90.530 31.060,75.750 C 30.491,74.650 29.084,73.071 27.935,72.241 C 25.221,70.282 24.041,68.656 23.461,66.075 C 22.156,60.264 27.180,53.979 33.105,54.012 C 35.834,54.027 39.635,56.085 41.709,58.672 C 43.124,60.437 43.251,60.908 43.267,64.422 C 43.284,68.184 43.345,68.366 46.826,75.000 C 48.774,78.713 52.289,85.463 54.637,90.000 C 61.045,102.386 61.682,103.500 62.354,103.500 C 62.694,103.500 64.160,102.950 65.611,102.278 C 70.964,99.798 77.300,97.377 79.034,97.148 C 80.463,96.959 81.149,97.190 82.477,98.308 C 83.390,99.075 84.457,100.472 84.849,101.411 C 85.519,103.013 85.491,103.195 84.406,104.360 C 83.207,105.648 78.845,107.989 73.875,110.013 C 71.091,111.147 70.369,112.113 71.437,113.275 C 71.677,113.536 72.776,115.438 73.880,117.500 C 74.983,119.562 76.885,123.050 78.106,125.250 C 79.327,127.450 81.294,131.050 82.477,133.250 C 83.661,135.450 84.937,137.694 85.314,138.236 C 86.635,140.136 86.206,140.499 82.625,140.511 C 79.391,140.522 70.478,141.120 63.410,141.801 L 60.069,142.122 L 57.070,136.139 Z M 136.750,123.059 C 135.295,122.728 135.254,122.639 135.389,120.122 C 135.519,117.675 135.451,117.507 134.186,117.189 C 132.278,116.710 131.223,117.567 131.380,119.469 C 131.606,122.211 130.779,123.074 128.093,122.901 L 125.750,122.750 L 125.600,119.879 C 125.488,117.732 125.224,116.888 124.552,116.528 C 123.143,115.774 121.500,117.201 121.500,119.178 C 121.500,121.239 120.729,122.000 118.643,122.000 C 116.439,122.000 115.241,120.030 114.841,115.748 C 114.522,112.329 113.723,110.310 112.115,108.854 C 110.879,107.735 106.206,106.000 104.430,106.000 C 102.353,106.000 96.018,103.685 94.588,102.404 C 92.321,100.373 91.558,99.300 90.770,97.036 C 89.474,93.311 89.769,91.600 92.854,84.925 L 95.708,78.750 L 95.913,72.375 C 96.137,65.425 95.502,63.862 94.492,68.875 C 93.062,75.972 92.211,79.189 91.721,79.348 C 90.332,79.798 86.827,64.642 87.073,59.250 C 87.687,45.810 89.698,39.180 95.513,31.424 C 102.640,21.918 111.176,16.522 124.000,13.417 C 128.031,12.440 140.820,12.566 145.250,13.625 C 151.632,15.150 160.071,18.571 161.855,20.355 C 162.367,20.867 163.572,21.772 164.531,22.365 C 167.025,23.906 173.054,30.269 175.082,33.500 C 179.889,41.159 181.262,46.639 181.219,58.000 C 181.188,66.394 180.793,69.420 178.887,75.875 C 177.780,79.625 177.365,80.117 176.567,78.625 C 176.132,77.812 174.453,70.190 173.754,65.861 C 173.587,64.822 173.265,64.086 173.041,64.225 C 172.168,64.764 172.014,70.378 172.739,75.250 C 173.368,79.479 173.887,81.046 176.099,85.407 C 178.262,89.672 178.714,91.017 178.714,93.179 C 178.714,96.373 176.917,100.100 174.391,102.144 C 172.549,103.635 166.254,106.000 164.128,106.000 C 163.427,106.000 161.520,106.486 159.891,107.080 C 157.300,108.025 156.754,108.466 155.535,110.601 C 154.570,112.290 154.045,114.069 153.829,116.376 C 153.458,120.355 152.228,121.937 149.201,122.325 C 146.548,122.666 145.285,121.674 145.265,119.232 C 145.247,117.018 144.036,115.910 142.625,116.818 C 141.989,117.228 141.790,117.909 141.895,119.318 C 142.132,122.483 140.246,123.855 136.750,123.059 Z M 132.409,103.750 C 134.205,102.239 134.975,102.193 136.636,103.500 C 137.336,104.050 138.305,104.500 138.789,104.500 C 139.982,104.500 141.500,103.056 141.500,101.922 C 141.500,100.974 139.110,93.808 137.994,91.409 C 136.791,88.823 132.749,88.390 131.247,90.686 C 130.353,92.053 127.500,100.766 127.500,102.131 C 127.500,103.442 128.878,105.000 130.039,105.000 C 130.525,105.000 131.592,104.438 132.409,103.750 Z M 120.687,88.350 C 124.614,86.207 127.000,82.623 127.000,78.868 C 127.000,74.104 123.160,71.143 115.175,69.751 C 111.525,69.114 110.790,69.119 108.897,69.786 C 102.954,71.883 101.010,77.939 104.029,84.956 C 105.143,87.547 107.118,89.730 108.750,90.176 C 109.300,90.326 111.522,90.353 113.687,90.235 C 116.969,90.057 118.134,89.744 120.687,88.350 Z M 160.826,89.986 C 162.573,89.377 163.530,87.881 164.950,83.542 C 167.053,77.117 165.925,73.049 161.419,70.803 C 157.504,68.852 151.403,69.251 146.199,71.797 C 143.212,73.258 141.000,76.190 141.000,78.689 C 141.000,81.875 145.117,87.222 149.099,89.206 C 151.213,90.259 152.409,90.500 155.524,90.500 C 157.629,90.500 160.015,90.269 160.826,89.986 Z" fill="#000000" fill-rule="evenodd" /></svg>