<svg xmlns="http://www.w3.org/2000/svg" viewBox="0 0 102 109" width="102" height="109"><path d="M 23.651,97.013 C 22.253,96.426 21.013,94.050 21.147,92.214 C 21.228,91.102 20.945,90.644 19.848,90.106 C 17.832,89.119 16.674,86.494 17.439,84.647 C 17.764,83.863 18.493,82.933 19.059,82.579 C 20.407,81.737 23.402,81.719 25.669,82.539 C 27.461,83.187 27.586,83.139 38.115,77.855 C 43.964,74.918 50.212,71.709 52.000,70.724 C 60.324,66.132 62.087,65.176 67.000,62.588 C 76.254,57.714 76.053,57.893 76.714,53.955 C 77.140,51.415 79.052,49.773 81.581,49.773 C 84.235,49.773 86.000,51.659 86.000,54.494 C 86.000,55.955 86.232,56.506 86.944,56.732 C 87.464,56.897 88.476,57.577 89.194,58.242 C 90.813,59.742 90.900,61.856 89.421,63.737 C 88.269,65.202 88.030,65.215 80.750,64.233 C 78.941,63.989 77.577,64.554 66.500,70.139 C 59.763,73.537 53.013,77.003 51.500,77.842 C 49.987,78.681 47.175,80.211 45.250,81.242 C 43.325,82.273 39.422,84.496 36.577,86.183 C 31.329,89.295 30.000,90.712 30.000,93.197 C 30.000,95.917 26.315,98.132 23.651,97.013 Z M 73.375,96.460 C 72.251,95.805 71.000,93.387 71.000,91.868 C 71.000,89.765 68.332,87.856 57.890,82.488 C 55.456,81.237 54.121,80.267 54.276,79.864 C 54.411,79.511 55.763,78.622 57.280,77.888 L 60.039,76.553 L 66.797,79.873 C 73.500,83.166 73.572,83.188 75.784,82.596 C 79.060,81.720 81.153,81.852 82.400,83.014 C 84.725,85.181 84.219,88.526 81.357,89.902 C 80.301,90.410 80.000,90.909 79.998,92.152 C 79.997,93.031 79.550,94.481 79.005,95.375 C 78.166,96.752 77.727,96.998 76.132,96.985 C 75.097,96.976 73.856,96.740 73.375,96.460 Z M 39.236,72.826 C 38.243,72.148 33.935,69.791 27.000,66.133 C 22.268,63.636 21.221,63.401 18.750,64.276 C 15.962,65.264 14.755,65.176 13.280,63.875 C 11.023,61.884 11.330,59.076 14.000,57.309 C 15.784,56.129 16.000,55.768 16.000,53.970 C 16.000,50.331 19.543,48.285 22.392,50.280 C 23.853,51.304 25.000,53.578 25.000,55.450 C 25.000,57.647 25.931,58.258 43.648,67.705 C 45.242,68.555 46.570,69.468 46.599,69.735 C 46.670,70.393 42.098,73.500 41.057,73.500 C 40.598,73.500 39.779,73.197 39.236,72.826 Z M 46.121,61.921 C 45.780,61.580 45.500,60.458 45.500,59.430 C 45.500,57.660 44.801,56.532 44.124,57.209 C 43.954,57.379 43.688,58.471 43.532,59.634 C 43.291,61.441 43.064,61.772 41.974,61.899 C 40.041,62.124 39.081,60.686 38.903,57.300 L 38.750,54.366 L 36.291,53.583 C 33.360,52.651 30.000,49.662 30.000,47.988 C 30.000,47.346 30.270,46.074 30.600,45.161 C 31.127,43.705 31.057,43.211 30.028,41.126 C 26.065,33.095 26.070,28.125 30.044,21.931 C 36.368,12.077 52.323,9.031 64.347,15.384 C 67.199,16.891 70.985,20.790 72.500,23.782 C 73.572,25.899 73.750,26.925 73.750,31.000 C 73.750,35.343 73.607,36.056 72.077,39.319 C 70.456,42.776 70.423,42.974 71.011,45.604 C 71.990,49.977 70.669,51.746 65.125,53.491 C 63.229,54.088 63.000,54.326 62.997,55.705 C 62.992,58.395 62.067,60.795 60.767,61.491 C 59.115,62.375 58.106,61.529 57.903,59.087 C 57.673,56.330 56.368,56.657 55.829,59.607 C 55.385,62.035 54.458,62.836 52.820,62.208 C 52.261,61.993 52.000,61.294 52.000,60.008 C 52.000,56.198 49.725,56.416 49.412,60.256 C 49.274,61.960 49.068,62.271 47.996,62.396 C 47.307,62.477 46.463,62.263 46.121,61.921 Z M 54.000,49.453 C 54.000,48.064 52.116,44.440 51.053,43.783 C 50.258,43.291 47.931,46.804 47.647,48.925 L 47.383,50.887 L 50.692,50.906 L 54.000,50.925 L 54.000,49.453 Z M 43.255,42.780 C 45.135,41.995 46.995,39.420 46.998,37.600 C 47.003,34.626 44.288,32.000 41.209,32.000 C 39.754,32.000 38.988,32.395 37.441,33.941 C 35.836,35.546 35.500,36.227 35.500,37.874 C 35.500,40.859 37.805,43.367 40.641,43.468 C 41.131,43.486 42.307,43.176 43.255,42.780 Z M 64.125,41.493 C 65.174,40.342 65.500,39.479 65.500,37.853 C 65.500,34.371 63.000,32.000 59.328,32.000 C 57.395,32.000 54.540,34.237 54.445,35.826 C 54.200,39.918 55.446,41.934 59.000,43.193 C 60.501,43.724 62.781,42.968 64.125,41.493 Z" fill="#000000" fill-rule="evenodd" /></svg>