<svg xmlns="http://www.w3.org/2000/svg" viewBox="0 0 285 421" width="285" height="421"><path d="M 131.500,406.211 C 124.908,405.577 117.511,404.432 114.000,403.501 C 113.037,403.245 110.675,402.668 108.750,402.217 C 105.194,401.384 101.561,400.296 99.750,399.522 C 99.200,399.288 96.838,398.352 94.500,397.444 C 89.358,395.447 84.328,392.886 75.495,387.768 C 67.893,383.364 51.813,369.633 45.134,361.844 C 40.460,356.393 34.588,348.274 32.589,344.500 C 31.788,342.988 30.247,340.168 29.164,338.234 C 28.081,336.299 26.795,333.712 26.307,332.484 C 25.514,330.493 25.076,329.456 23.463,325.750 C 22.609,323.789 19.072,312.202 18.503,309.500 C 18.184,307.988 17.737,306.075 17.509,305.250 C 13.854,292.016 14.448,265.977 18.775,249.750 C 19.215,248.100 19.768,245.963 20.004,245.000 C 20.240,244.037 20.800,242.125 21.247,240.750 C 21.695,239.375 22.301,237.350 22.593,236.250 C 23.203,233.954 26.376,225.010 28.536,219.500 C 29.344,217.438 30.009,215.525 30.014,215.250 C 30.018,214.975 30.462,214.188 31.000,213.500 C 31.538,212.812 31.983,211.964 31.989,211.615 C 32.000,211.000 35.438,203.277 36.603,201.250 C 36.920,200.700 38.602,197.438 40.342,194.000 C 42.082,190.562 44.162,186.625 44.965,185.250 C 45.767,183.875 46.870,181.812 47.416,180.665 C 47.962,179.518 49.334,177.217 50.466,175.550 C 51.598,173.883 52.670,172.122 52.848,171.635 C 53.026,171.148 53.988,169.512 54.985,168.000 C 57.583,164.061 61.000,158.259 61.000,157.789 C 61.000,157.568 61.569,156.681 62.263,155.819 C 63.802,153.908 70.000,144.620 70.000,144.225 C 70.000,144.069 70.646,143.111 71.436,142.096 C 72.225,141.081 73.407,139.241 74.061,138.008 C 74.715,136.775 76.093,134.638 77.123,133.258 C 78.153,131.879 78.997,130.584 78.998,130.380 C 78.999,130.177 79.918,128.714 81.040,127.130 C 82.870,124.547 84.715,121.783 92.643,109.750 C 93.912,107.825 96.030,104.669 97.350,102.737 C 101.041,97.334 106.000,89.487 106.000,89.048 C 106.000,88.832 106.451,88.247 107.003,87.747 C 107.555,87.248 108.874,85.357 109.935,83.545 C 113.132,78.083 115.424,74.414 116.174,73.559 C 116.564,73.114 117.392,71.737 118.014,70.500 C 118.636,69.263 120.095,66.675 121.256,64.750 C 124.342,59.635 133.263,42.590 134.602,39.250 C 135.421,37.209 137.288,33.082 140.308,26.639 C 141.238,24.653 142.000,22.722 142.000,22.348 C 142.000,21.973 142.134,21.532 142.299,21.368 C 142.793,20.873 144.000,21.555 144.000,22.329 C 144.000,23.053 146.953,30.342 149.336,35.500 C 150.035,37.013 150.958,39.150 151.386,40.250 C 151.815,41.350 152.546,42.812 153.011,43.500 C 153.476,44.188 154.578,46.325 155.459,48.250 C 157.755,53.264 158.452,54.575 162.242,61.000 C 164.107,64.162 166.391,68.100 167.318,69.750 C 168.244,71.400 169.171,73.006 169.376,73.318 C 169.582,73.631 170.875,75.587 172.250,77.665 C 175.247,82.195 181.480,91.904 184.503,96.750 C 185.703,98.675 187.656,101.743 188.843,103.567 C 190.029,105.392 191.000,107.043 191.000,107.238 C 191.000,107.553 194.874,113.374 195.500,114.000 C 196.185,114.685 199.001,118.968 199.005,119.332 C 199.008,119.562 199.906,120.875 201.000,122.250 C 202.094,123.625 202.992,124.928 202.995,125.146 C 202.998,125.365 204.350,127.531 206.000,129.960 C 207.650,132.390 209.000,134.553 209.000,134.767 C 209.000,134.982 209.876,136.303 210.946,137.704 C 212.016,139.104 213.932,141.870 215.204,143.851 C 216.476,145.831 217.715,147.574 217.956,147.723 C 218.198,147.872 219.122,149.402 220.008,151.122 C 220.895,152.843 223.479,157.064 225.751,160.504 C 228.023,163.944 230.327,167.544 230.872,168.504 C 231.417,169.464 233.046,172.275 234.493,174.750 C 235.940,177.225 237.786,180.482 238.595,181.989 C 239.404,183.495 240.278,184.982 240.537,185.294 C 240.795,185.606 241.928,187.745 243.053,190.048 C 244.179,192.351 245.490,194.801 245.967,195.493 C 246.444,196.184 247.224,197.762 247.701,199.000 C 248.178,200.238 249.092,202.037 249.732,203.000 C 250.373,203.963 251.378,206.139 251.968,207.838 C 252.557,209.536 253.890,212.686 254.930,214.838 C 255.970,216.989 257.336,220.100 257.965,221.750 C 258.594,223.400 259.759,226.166 260.554,227.897 C 261.349,229.629 262.000,231.446 262.000,231.936 C 262.000,232.426 262.591,234.273 263.314,236.039 C 264.526,238.999 265.928,243.811 267.018,248.750 C 267.261,249.850 267.699,251.537 267.990,252.500 C 269.194,256.468 270.982,273.426 270.995,281.000 C 271.006,287.290 269.437,303.192 268.529,306.000 C 268.306,306.688 267.862,308.488 267.541,310.000 C 266.740,313.779 266.043,316.269 264.880,319.500 C 264.336,321.012 263.406,323.615 262.813,325.283 C 262.221,326.951 261.345,328.911 260.868,329.640 C 260.391,330.369 260.000,331.236 260.000,331.567 C 260.000,331.898 258.425,335.049 256.500,338.569 C 254.575,342.089 253.000,345.150 253.000,345.371 C 253.000,345.592 252.357,346.555 251.571,347.511 C 250.785,348.467 249.653,350.211 249.055,351.386 C 245.961,357.468 228.104,375.823 219.750,381.508 C 218.375,382.444 216.245,383.974 215.016,384.908 C 213.788,385.843 212.252,386.809 211.602,387.056 C 210.953,387.303 208.808,388.484 206.836,389.681 C 202.814,392.122 194.167,396.522 191.500,397.485 C 190.537,397.833 188.963,398.467 188.000,398.895 C 187.037,399.323 184.675,400.103 182.750,400.628 C 168.708,404.457 162.293,405.658 151.348,406.505 C 143.595,407.104 140.281,407.055 131.500,406.211 Z M 86.581,353.860 C 90.128,352.024 90.923,350.873 92.990,344.588 C 94.348,340.456 95.571,339.147 99.980,337.104 C 101.504,336.398 103.312,335.439 104.000,334.972 C 105.934,333.659 116.676,328.332 134.000,320.096 C 135.512,319.376 137.750,318.161 138.973,317.394 C 140.195,316.627 141.790,316.000 142.517,316.000 C 143.793,316.000 152.084,319.480 154.544,321.048 C 155.207,321.471 157.325,322.559 159.250,323.466 C 161.175,324.373 163.096,325.287 163.519,325.496 C 171.408,329.396 174.931,331.165 175.750,331.638 C 176.300,331.956 177.762,332.738 179.000,333.375 C 182.196,335.022 186.257,337.497 188.676,339.272 C 190.166,340.366 191.059,341.569 191.847,343.545 C 195.250,352.072 198.579,355.226 204.197,355.242 C 208.568,355.254 211.701,353.530 213.438,350.158 C 213.747,349.557 214.000,347.156 214.000,344.821 C 214.000,340.667 214.033,340.551 215.537,339.413 C 216.383,338.773 218.014,337.422 219.162,336.410 L 221.250,334.569 L 221.250,330.160 C 221.250,326.125 221.134,325.598 219.884,323.965 C 219.133,322.983 217.388,321.650 216.007,321.003 C 213.594,319.873 213.337,319.852 209.379,320.458 C 207.115,320.804 205.034,321.235 204.756,321.415 C 203.614,322.153 200.648,322.985 199.136,322.992 C 197.665,322.999 193.475,321.640 189.364,319.823 C 188.476,319.431 186.738,318.729 185.500,318.264 C 184.262,317.798 182.575,317.124 181.750,316.765 C 180.925,316.406 178.338,315.388 176.000,314.503 C 173.662,313.618 170.400,312.281 168.750,311.533 C 167.100,310.785 164.686,309.881 163.385,309.524 C 162.083,309.167 160.773,308.579 160.473,308.217 C 159.894,307.520 161.177,306.792 167.040,304.487 C 169.766,303.416 171.558,302.654 175.250,300.999 C 176.350,300.506 178.037,299.827 179.000,299.490 C 179.963,299.152 182.584,298.004 184.826,296.938 C 187.068,295.872 189.033,295.000 189.193,295.000 C 189.353,295.000 190.832,294.347 192.481,293.549 C 196.309,291.694 199.745,291.204 201.682,292.237 C 202.470,292.656 203.458,293.000 203.878,293.000 C 204.298,293.000 206.189,293.461 208.079,294.024 C 211.073,294.915 211.886,294.974 214.383,294.482 C 219.478,293.478 221.995,290.274 221.998,284.792 L 222.000,281.334 L 218.000,277.440 L 214.000,273.546 L 214.000,269.497 C 214.000,266.087 213.817,265.178 212.842,263.743 C 210.622,260.475 209.200,259.750 205.012,259.750 C 201.584,259.750 201.043,259.894 198.920,261.368 C 196.181,263.270 194.877,265.221 192.500,270.975 C 191.004,274.597 190.392,275.481 188.282,277.074 C 186.925,278.099 184.788,279.454 183.532,280.085 C 182.277,280.715 180.171,281.854 178.853,282.616 C 177.535,283.377 176.156,284.000 175.789,284.000 C 175.421,284.000 173.856,284.762 172.311,285.692 C 170.765,286.623 168.417,287.739 167.093,288.172 C 165.770,288.605 162.676,289.879 160.218,291.004 C 157.761,292.128 155.300,293.239 154.750,293.473 C 154.200,293.706 151.114,295.193 147.893,296.777 L 142.036,299.657 L 140.029,298.329 C 138.925,297.598 137.787,297.000 137.502,297.000 C 137.216,297.000 135.917,296.456 134.616,295.792 C 133.315,295.128 131.125,294.096 129.750,293.499 C 127.284,292.430 124.769,291.239 110.500,284.385 C 106.513,282.469 102.688,280.644 102.000,280.329 C 100.827,279.791 94.871,275.430 93.732,274.275 C 93.447,273.986 92.930,272.738 92.583,271.500 C 89.654,261.060 81.002,256.089 74.500,261.111 C 71.868,263.143 71.008,265.370 70.971,270.250 L 70.937,274.750 L 67.690,277.500 C 63.012,281.463 62.211,283.442 63.633,287.522 C 65.010,291.473 67.195,293.279 72.091,294.512 C 73.996,294.992 74.815,294.918 77.783,293.997 C 79.690,293.405 82.279,292.499 83.537,291.984 L 85.825,291.047 L 90.537,292.692 C 95.625,294.467 105.944,298.911 109.364,300.800 C 110.527,301.442 113.211,302.550 115.330,303.261 C 125.126,306.549 126.812,308.365 121.500,309.903 C 119.103,310.597 112.632,312.921 110.500,313.853 C 109.537,314.274 107.963,314.957 107.000,315.372 C 106.037,315.786 103.858,316.772 102.157,317.562 C 100.455,318.353 98.612,319.000 98.061,319.000 C 97.510,319.000 96.920,319.225 96.750,319.500 C 96.580,319.775 96.122,320.000 95.733,320.000 C 95.344,320.000 93.551,320.675 91.750,321.500 C 87.959,323.236 85.742,323.368 82.185,322.068 C 80.782,321.555 78.162,320.843 76.362,320.485 C 71.890,319.596 68.296,320.661 65.756,323.628 C 63.775,325.943 63.236,327.994 63.734,331.318 C 64.247,334.736 64.779,335.576 67.820,337.764 C 69.339,338.856 70.768,340.092 70.996,340.509 C 71.224,340.927 71.423,342.766 71.437,344.597 C 71.451,346.428 71.613,348.561 71.797,349.338 C 72.598,352.720 76.800,355.214 82.081,355.443 C 82.814,355.474 84.839,354.762 86.581,353.860 Z M 152.700,276.478 C 153.497,276.215 154.568,276.000 155.080,276.000 C 155.592,276.000 156.965,275.569 158.130,275.042 C 159.296,274.515 161.096,273.794 162.129,273.440 C 165.907,272.146 167.053,269.980 167.918,262.500 C 168.355,258.728 168.879,257.611 171.086,255.755 C 173.334,253.863 174.664,253.420 179.302,253.022 C 184.542,252.572 186.730,251.438 189.074,247.958 C 191.366,244.555 192.212,240.754 191.506,237.030 C 190.662,232.579 190.914,230.473 193.010,224.489 C 195.821,216.463 197.000,210.268 197.000,203.518 C 197.000,200.452 196.769,196.887 196.486,195.596 C 196.203,194.306 195.724,192.125 195.421,190.750 C 195.119,189.375 194.715,188.025 194.523,187.750 C 194.332,187.475 193.917,186.343 193.601,185.235 C 192.483,181.317 188.538,174.723 184.736,170.419 C 182.746,168.167 176.484,162.999 173.974,161.537 C 166.992,157.472 161.081,155.262 152.587,153.540 C 149.299,152.873 135.522,152.828 133.058,153.475 C 132.064,153.737 128.895,154.541 126.016,155.262 C 123.137,155.984 119.762,157.027 118.516,157.579 C 114.398,159.405 111.264,161.095 110.218,162.054 C 109.650,162.574 109.005,163.000 108.785,163.000 C 108.564,163.000 106.794,164.406 104.850,166.125 C 98.785,171.490 93.879,178.400 91.627,184.750 C 91.127,186.160 90.887,187.118 89.508,193.187 C 88.676,196.850 88.814,208.609 89.739,212.750 C 90.168,214.675 90.655,216.925 90.819,217.750 C 90.984,218.575 91.684,220.938 92.375,223.000 C 94.328,228.834 94.491,230.287 93.893,236.581 L 93.340,242.413 L 94.698,245.189 C 96.443,248.754 100.035,252.000 102.237,252.000 C 104.368,252.000 109.443,252.952 111.000,253.644 C 115.173,255.498 116.853,258.057 117.295,263.231 C 117.752,268.579 117.992,269.374 119.639,270.999 C 122.940,274.256 128.620,276.155 138.000,277.137 C 140.633,277.412 151.318,276.933 152.700,276.478 Z M 147.000,257.139 C 146.588,256.984 145.653,256.439 144.923,255.929 C 143.226,254.741 141.579,254.765 140.000,256.000 C 138.745,256.982 136.781,257.268 135.272,256.689 C 132.681,255.695 132.819,249.699 135.557,244.309 C 137.788,239.919 140.450,236.056 141.897,235.108 C 143.123,234.305 143.185,234.329 144.949,236.321 C 147.086,238.732 150.729,245.828 151.458,249.000 C 152.394,253.071 152.163,255.299 150.683,256.464 C 149.368,257.498 148.418,257.672 147.000,257.139 Z M 108.473,236.585 C 105.546,234.723 105.389,234.482 103.755,229.378 C 100.859,220.333 103.245,214.478 111.251,210.979 C 113.291,210.087 114.759,209.878 119.250,209.840 C 124.450,209.797 124.929,209.881 128.034,211.379 C 130.939,212.781 131.474,213.271 132.659,215.614 C 134.708,219.663 134.537,222.270 131.856,227.880 C 128.776,234.323 122.584,237.979 114.723,237.993 C 111.153,237.999 110.444,237.840 108.473,236.585 Z M 165.000,237.264 C 163.488,236.915 161.800,236.455 161.250,236.241 C 157.928,234.949 154.018,230.083 152.052,224.793 C 151.103,222.241 151.024,221.501 151.476,219.393 C 152.906,212.728 157.007,210.000 165.599,210.000 C 173.026,210.000 178.674,212.766 181.423,217.750 C 182.717,220.096 182.530,227.571 181.097,230.776 C 179.111,235.220 178.777,235.660 176.500,236.823 C 173.905,238.148 169.560,238.315 165.000,237.264 Z" fill="#000000" fill-rule="evenodd" /></svg>