<svg xmlns="http://www.w3.org/2000/svg" viewBox="0 0 114 106" width="114" height="106"><path d="M 53.441,93.910 C 53.408,93.547 53.425,92.939 53.478,92.558 C 53.660,91.253 52.981,89.500 52.294,89.500 C 51.457,89.500 51.000,90.585 51.000,92.576 C 51.000,93.839 50.826,94.045 49.875,93.910 C 48.794,93.756 48.744,93.528 48.609,88.125 L 48.467,82.500 L 47.152,82.500 C 45.642,82.500 41.238,79.842 40.783,78.656 C 40.615,78.218 40.841,77.304 41.286,76.625 C 42.162,75.288 42.133,74.739 40.787,67.112 C 40.048,62.925 40.043,62.226 40.729,59.916 C 41.869,56.076 43.709,53.299 46.440,51.294 C 49.819,48.813 52.438,48.000 57.044,48.000 C 64.249,48.000 69.226,51.025 72.275,57.256 C 73.977,60.735 74.185,64.416 73.031,70.606 C 72.372,74.140 72.382,74.541 73.156,75.396 C 74.264,76.621 74.222,77.784 73.006,79.491 C 71.885,81.066 68.359,82.681 66.989,82.247 C 65.606,81.807 65.348,82.736 65.437,87.835 C 65.520,92.561 65.039,94.500 63.786,94.500 C 62.926,94.500 62.500,93.397 62.500,91.172 C 62.500,89.780 62.323,89.460 61.625,89.592 C 61.022,89.706 60.606,90.501 60.287,92.149 C 59.673,95.325 58.361,95.237 58.000,91.996 C 57.654,88.891 56.345,88.894 56.000,92.000 C 55.793,93.861 55.555,94.278 54.625,94.410 C 53.965,94.503 53.476,94.297 53.441,93.910 Z M 59.000,80.670 C 59.000,78.891 57.658,76.000 56.832,76.000 C 55.636,76.000 53.850,80.683 54.716,81.549 C 54.835,81.668 55.847,81.789 56.966,81.818 C 58.795,81.866 59.000,81.751 59.000,80.670 Z M 52.400,75.900 C 53.403,74.897 53.075,73.131 51.683,72.036 C 49.997,70.710 46.276,70.596 45.575,71.849 C 45.085,72.724 45.566,74.625 46.590,75.859 C 47.263,76.670 51.600,76.700 52.400,75.900 Z M 66.728,76.189 C 67.173,76.019 67.881,75.214 68.301,74.401 C 68.991,73.067 68.987,72.805 68.259,71.694 C 67.560,70.627 67.207,70.507 65.602,70.794 C 64.583,70.975 63.017,71.671 62.122,72.340 C 60.775,73.346 60.582,73.719 61.003,74.506 C 61.938,76.252 64.557,77.022 66.728,76.189 Z M 35.607,85.244 C 31.950,84.352 28.007,82.336 25.426,80.040 L 23.250,78.104 L 24.930,77.177 C 27.498,75.760 28.690,74.713 28.355,74.170 C 28.188,73.899 26.432,73.043 24.453,72.266 C 22.216,71.389 20.173,70.161 19.052,69.022 C 17.107,67.044 13.912,61.755 14.380,61.287 C 14.538,61.129 15.986,61.000 17.599,61.000 C 21.198,61.000 22.014,59.962 19.706,58.320 C 18.905,57.750 17.033,56.127 15.545,54.714 C 13.131,52.422 12.798,51.854 12.456,49.447 C 12.245,47.964 12.057,45.112 12.037,43.109 C 11.991,38.571 12.630,38.152 15.516,40.831 C 17.952,43.093 19.843,44.323 20.253,43.913 C 20.415,43.752 19.743,42.158 18.762,40.372 C 16.598,36.435 15.801,31.554 16.730,27.929 C 17.723,24.058 25.017,12.500 26.468,12.500 C 26.681,12.500 26.981,14.694 27.135,17.375 C 27.775,28.510 30.553,35.575 36.732,41.785 C 38.667,43.729 41.121,45.993 42.187,46.815 L 44.123,48.310 L 42.260,50.280 C 41.235,51.363 39.540,54.066 38.494,56.286 C 36.620,60.260 36.597,60.379 37.023,64.036 C 37.261,66.079 37.803,69.053 38.227,70.646 C 38.963,73.411 38.951,73.635 37.961,75.576 C 36.637,78.172 37.188,79.717 40.444,82.537 C 42.657,84.454 42.711,84.564 41.779,85.267 C 40.637,86.129 39.212,86.124 35.607,85.244 Z M 26.264,50.126 C 25.828,48.390 25.615,48.185 24.942,48.858 C 24.218,49.582 24.869,51.500 25.838,51.500 C 26.429,51.500 26.528,51.179 26.264,50.126 Z M 22.500,31.750 C 22.500,30.327 21.462,30.091 20.468,31.288 C 19.926,31.941 19.937,32.154 20.532,32.530 C 21.785,33.323 22.500,33.039 22.500,31.750 Z M 72.500,85.018 C 71.870,84.566 72.054,84.230 73.646,82.924 C 76.936,80.226 77.748,77.412 76.263,73.858 C 75.609,72.292 75.614,71.797 76.310,69.453 C 76.886,67.514 77.018,65.672 76.805,62.531 C 76.298,55.054 76.706,56.077 72.250,51.096 L 70.250,48.860 L 72.500,47.055 C 77.320,43.189 81.780,38.243 83.596,34.750 C 86.067,29.994 86.961,26.172 87.338,18.750 C 87.550,14.553 87.837,12.527 88.203,12.646 C 89.154,12.954 94.427,20.116 96.195,23.500 C 97.129,25.288 98.042,27.661 98.224,28.775 C 98.870,32.736 97.389,38.187 94.343,43.066 C 94.037,43.555 93.941,44.108 94.129,44.296 C 94.530,44.697 100.843,40.691 101.159,39.835 C 101.323,39.391 101.524,39.390 101.993,39.830 C 102.436,40.247 102.559,42.041 102.428,46.175 C 102.250,51.782 102.204,51.983 100.747,53.521 C 99.924,54.390 97.834,56.118 96.103,57.360 C 94.372,58.603 93.040,59.873 93.143,60.184 C 93.253,60.516 94.814,60.811 96.915,60.897 C 99.410,60.999 100.500,61.238 100.500,61.681 C 100.500,63.054 96.529,68.824 94.692,70.120 C 93.624,70.874 91.305,72.004 89.538,72.632 C 87.771,73.260 86.257,73.993 86.173,74.262 C 86.088,74.530 87.188,75.515 88.616,76.449 L 91.212,78.148 L 89.164,79.966 C 87.262,81.653 84.905,82.999 81.268,84.475 C 79.185,85.320 73.418,85.677 72.500,85.018 Z M 87.000,58.500 C 87.000,57.950 86.775,57.500 86.500,57.500 C 86.225,57.500 86.000,57.950 86.000,58.500 C 86.000,59.050 86.225,59.500 86.500,59.500 C 86.775,59.500 87.000,59.050 87.000,58.500 Z M 85.000,57.500 C 85.000,56.950 84.775,56.500 84.500,56.500 C 84.225,56.500 84.000,56.950 84.000,57.500 C 84.000,58.050 84.225,58.500 84.500,58.500 C 84.775,58.500 85.000,58.050 85.000,57.500 Z" fill="#000000" fill-rule="evenodd" /></svg>