<svg xmlns="http://www.w3.org/2000/svg" viewBox="0 0 284 281" width="284" height="281"><path d="M 230.753,259.147 C 230.204,259.000 228.782,258.210 227.593,257.392 C 225.517,255.964 225.068,255.876 216.340,255.202 C 206.073,254.409 192.732,253.631 182.000,253.199 C 178.012,253.038 172.050,252.728 168.750,252.509 C 162.614,252.102 112.670,252.251 107.250,252.693 C 105.600,252.827 101.888,253.059 99.000,253.209 C 82.435,254.067 61.204,255.421 56.500,255.918 C 54.386,256.142 52.398,256.740 50.812,257.631 C 47.478,259.503 44.465,259.488 41.463,257.584 C 37.324,254.959 35.111,251.502 33.702,245.461 C 33.226,243.420 32.669,241.557 32.464,241.321 C 32.259,241.085 31.286,241.158 30.300,241.483 C 29.315,241.809 27.101,242.091 25.379,242.112 C 22.287,242.149 21.094,241.722 17.259,239.210 C 14.456,237.374 13.064,230.760 14.781,227.441 C 15.879,225.317 18.378,223.169 20.895,222.187 C 22.740,221.466 23.646,221.424 27.395,221.885 C 29.790,222.179 31.906,222.270 32.096,222.085 C 32.287,221.901 32.668,220.850 32.943,219.750 C 33.218,218.650 33.657,216.907 33.919,215.876 C 34.606,213.169 36.856,209.011 38.677,207.086 C 42.182,203.378 45.966,203.151 49.850,206.415 C 52.244,208.426 52.264,208.432 57.500,208.725 C 60.388,208.887 63.538,209.127 64.500,209.258 C 67.667,209.692 85.604,210.946 93.250,211.269 C 97.375,211.444 101.425,211.659 102.250,211.749 C 104.265,211.967 136.395,212.719 143.000,212.702 C 162.235,212.654 198.066,210.876 212.659,209.246 C 216.284,208.841 220.686,208.507 222.441,208.505 C 225.411,208.500 225.741,208.384 227.215,206.822 C 229.252,204.661 230.528,204.000 232.656,204.000 C 235.261,204.000 237.692,205.236 239.760,207.610 C 241.976,210.155 244.747,215.722 245.612,219.366 C 245.953,220.805 246.526,222.095 246.884,222.232 C 247.243,222.370 248.484,222.152 249.643,221.749 C 252.497,220.754 253.953,220.813 257.356,222.061 C 262.347,223.890 265.019,227.314 264.977,231.826 C 264.951,234.674 263.456,237.794 261.231,239.646 C 257.859,242.453 251.687,243.220 248.624,241.213 C 246.696,239.950 246.191,240.659 244.010,247.694 C 242.562,252.365 240.074,256.124 237.407,257.673 C 235.134,258.993 232.421,259.594 230.753,259.147 Z M 116.426,205.779 C 116.329,205.694 112.312,205.475 107.500,205.293 C 95.806,204.850 74.320,203.228 64.663,202.058 C 62.690,201.820 60.499,201.734 59.794,201.869 C 57.977,202.216 57.815,201.337 58.749,196.191 C 62.811,173.792 64.220,155.931 63.792,132.250 C 63.517,117.000 63.193,111.394 62.003,101.250 C 61.712,98.775 61.458,96.412 61.437,96.000 C 61.417,95.588 61.200,94.448 60.955,93.467 C 60.361,91.082 58.512,80.470 58.505,79.406 C 58.499,78.387 59.908,78.190 77.500,76.751 C 107.447,74.301 161.698,73.914 188.250,75.960 C 195.566,76.524 196.262,76.574 210.600,77.554 C 215.467,77.887 219.722,78.328 220.055,78.534 C 220.513,78.817 220.525,79.251 220.102,80.329 C 219.795,81.110 219.406,82.875 219.238,84.250 C 219.069,85.625 218.504,89.562 217.982,93.000 C 214.831,113.737 214.291,122.332 214.651,146.000 C 214.948,165.488 215.311,169.083 219.490,193.919 C 220.112,197.619 220.420,200.767 220.181,200.989 C 219.049,202.041 189.964,204.452 165.551,205.518 C 155.141,205.973 116.874,206.176 116.426,205.779 Z M 153.710,181.299 C 154.650,180.906 155.683,180.092 156.006,179.490 C 156.885,177.847 156.190,175.148 154.623,174.121 C 153.388,173.312 151.027,173.260 121.522,173.391 C 104.047,173.468 89.354,173.653 88.870,173.801 C 87.799,174.129 86.500,176.511 86.500,178.148 C 86.500,179.471 87.616,180.690 89.510,181.434 C 90.262,181.730 102.802,181.940 121.375,181.967 C 146.866,182.006 152.286,181.894 153.710,181.299 Z M 190.710,155.538 C 192.401,153.949 192.526,150.631 190.947,149.202 C 189.927,148.279 188.357,148.250 139.606,148.250 C 83.109,148.250 87.435,147.946 86.756,151.963 C 86.323,154.528 87.463,156.364 89.664,156.645 C 90.536,156.756 113.338,156.825 140.335,156.799 L 189.420,156.750 L 190.710,155.538 Z M 189.106,131.556 C 191.933,131.370 192.984,126.620 190.702,124.339 L 189.405,123.041 L 139.255,123.146 C 91.506,123.245 89.057,123.294 88.097,124.162 C 86.741,125.389 86.316,127.349 87.032,129.077 C 87.356,129.860 87.650,130.503 87.686,130.508 C 87.721,130.512 88.572,130.801 89.577,131.151 C 91.014,131.652 101.733,131.769 139.827,131.700 C 166.459,131.652 188.635,131.588 189.106,131.556 Z M 187.327,106.255 C 189.504,105.939 192.000,104.091 192.000,102.797 C 192.000,101.388 190.916,99.666 189.505,98.833 C 188.216,98.071 183.883,98.000 138.615,98.000 C 89.314,98.000 89.130,98.004 87.817,99.036 C 86.287,100.240 86.085,102.246 87.263,104.525 C 87.682,105.336 88.076,106.044 88.138,106.097 C 88.890,106.747 182.916,106.898 187.327,106.255 Z M 44.519,76.127 C 42.805,75.815 39.370,73.361 37.542,71.143 C 35.458,68.614 34.135,65.658 33.043,61.088 C 32.269,57.848 31.980,57.277 31.188,57.425 C 30.672,57.521 28.427,57.711 26.200,57.848 C 21.778,58.119 19.391,57.346 17.177,54.924 C 13.084,50.444 12.966,45.588 16.840,40.984 C 19.422,37.916 21.961,37.270 29.887,37.668 C 31.484,37.748 31.568,37.646 33.347,33.500 C 36.390,26.410 40.038,21.707 43.352,20.602 C 45.464,19.898 47.665,20.531 50.762,22.733 C 53.330,24.559 54.369,24.803 61.500,25.254 C 63.837,25.402 66.425,25.625 67.250,25.750 C 69.011,26.018 75.564,26.399 85.000,26.784 C 88.713,26.935 94.900,27.290 98.750,27.573 C 107.525,28.218 158.099,28.517 168.500,27.985 C 172.762,27.767 179.963,27.454 184.500,27.288 C 196.072,26.866 201.589,26.534 206.500,25.963 C 208.838,25.691 213.920,25.297 217.795,25.086 L 224.840,24.703 L 226.736,22.862 C 228.829,20.830 230.837,20.239 234.319,20.631 C 236.944,20.927 238.728,22.392 241.272,26.338 C 242.844,28.777 243.499,30.189 245.872,36.250 C 246.629,38.185 247.065,38.712 247.800,38.582 C 248.323,38.490 250.013,38.171 251.557,37.874 C 255.328,37.146 258.282,37.992 261.323,40.669 C 267.154,45.801 266.088,52.688 258.758,57.248 C 257.035,58.320 251.599,58.440 248.662,57.471 C 246.623,56.798 246.392,56.985 245.532,60.000 C 242.623,70.205 238.565,75.322 232.647,76.251 C 230.658,76.563 230.412,76.458 228.143,74.336 C 226.615,72.906 225.109,71.982 223.997,71.792 C 222.398,71.518 212.818,70.647 206.750,70.225 C 205.375,70.130 203.012,69.926 201.500,69.774 C 198.149,69.435 192.234,69.088 184.250,68.762 C 180.950,68.627 174.762,68.361 170.500,68.171 C 154.341,67.450 110.582,67.800 96.000,68.766 C 94.213,68.885 90.500,69.089 87.750,69.220 C 82.139,69.488 69.176,70.426 66.500,70.759 C 65.537,70.878 63.007,71.201 60.876,71.476 C 58.745,71.750 56.382,71.851 55.626,71.700 C 54.280,71.431 53.632,71.754 49.127,74.942 C 47.492,76.098 46.193,76.432 44.519,76.127 Z" fill="#000000" fill-rule="evenodd" /></svg>