<svg xmlns="http://www.w3.org/2000/svg" viewBox="0 0 268 270" width="268" height="270"><path d="M 45.570,253.667 C 43.872,253.306 40.416,249.655 39.080,246.809 C 34.964,238.047 34.639,224.052 38.353,215.500 C 39.981,211.752 41.826,209.189 43.754,207.998 C 45.867,206.691 50.600,206.680 61.832,207.956 C 70.163,208.902 77.846,209.466 97.250,210.555 C 109.875,211.264 157.149,211.251 169.456,210.536 C 190.201,209.331 202.946,208.344 208.750,207.494 C 210.400,207.253 213.820,206.902 216.349,206.715 C 220.694,206.394 221.068,206.446 223.099,207.648 C 226.485,209.653 228.046,212.022 229.943,218.035 C 231.964,224.443 232.452,231.721 231.281,238.000 C 229.800,245.940 227.529,250.522 223.956,252.778 C 222.356,253.788 221.390,253.998 218.385,253.990 C 216.386,253.984 213.287,253.765 211.500,253.502 C 209.713,253.238 204.200,252.792 199.250,252.509 C 194.300,252.227 187.887,251.776 185.000,251.507 C 170.287,250.138 128.723,249.333 110.000,250.055 C 89.902,250.829 77.870,251.564 64.500,252.831 C 55.357,253.698 47.376,254.050 45.570,253.667 Z M 22.333,239.963 C 15.520,237.619 12.652,234.412 13.263,229.819 C 13.561,227.582 13.937,226.927 16.178,224.750 C 19.095,221.915 22.281,220.561 27.057,220.128 L 30.136,219.849 L 29.770,221.549 C 29.245,223.988 29.173,236.360 29.669,238.875 L 30.088,241.000 L 27.669,240.983 C 26.339,240.974 23.937,240.515 22.333,239.963 Z M 237.869,238.875 C 238.079,237.706 238.229,232.981 238.203,228.375 L 238.156,220.000 L 240.503,220.000 C 242.690,220.000 244.847,220.483 247.250,221.510 C 247.800,221.745 248.700,222.070 249.250,222.233 C 251.651,222.942 254.249,226.507 254.779,229.818 C 255.366,233.490 252.429,237.376 247.684,239.207 C 245.629,240.000 240.590,241.000 238.652,241.000 C 237.556,241.000 237.510,240.876 237.869,238.875 Z M 110.750,204.462 C 89.629,203.600 85.385,203.336 71.250,202.003 C 59.702,200.915 55.749,200.415 55.220,199.975 C 54.669,199.518 55.503,193.966 56.906,188.750 C 58.716,182.018 60.984,152.832 60.985,136.250 C 60.986,119.687 59.444,100.200 56.989,85.750 C 55.479,76.862 55.261,74.057 56.061,73.773 C 56.975,73.447 65.348,72.549 72.500,72.008 C 75.662,71.769 82.862,71.225 88.500,70.800 C 116.017,68.726 146.668,68.700 173.000,70.729 C 174.787,70.866 178.500,71.107 181.250,71.264 C 189.880,71.756 193.009,71.985 201.750,72.765 C 206.425,73.182 210.674,73.655 211.193,73.817 C 212.036,74.080 212.103,74.461 211.821,77.430 C 211.648,79.256 211.298,82.213 211.043,84.000 C 208.048,104.982 207.428,114.088 207.457,136.698 C 207.482,156.912 209.307,178.047 212.332,193.167 C 213.215,197.581 213.454,199.746 213.099,200.101 C 212.140,201.060 191.367,202.863 168.000,204.015 C 154.300,204.691 122.447,204.939 110.750,204.462 Z M 124.790,177.265 C 125.362,177.132 126.242,176.258 126.746,175.322 C 127.639,173.665 127.637,173.578 126.698,171.969 C 126.167,171.060 125.147,170.161 124.428,169.969 C 123.711,169.777 114.787,169.651 104.597,169.689 L 86.071,169.759 L 84.785,170.967 C 83.228,172.430 83.120,174.403 84.514,175.900 C 85.659,177.129 86.672,177.432 90.250,177.619 C 94.290,177.831 123.653,177.530 124.790,177.265 Z M 183.500,176.564 C 185.016,175.448 185.278,174.379 184.498,172.496 C 183.318,169.646 181.977,169.430 166.874,169.659 C 159.381,169.773 152.850,170.035 152.361,170.242 C 151.237,170.717 150.500,172.077 150.500,173.676 C 150.500,177.740 151.424,177.950 168.241,177.696 C 180.858,177.506 182.374,177.393 183.500,176.564 Z M 159.273,151.773 C 160.924,150.122 160.842,148.265 159.038,146.462 L 157.577,145.000 L 121.856,145.000 C 86.475,145.000 86.122,145.010 84.817,146.036 C 82.652,147.740 83.420,151.391 86.178,152.504 C 86.768,152.742 103.179,152.951 122.648,152.968 L 158.045,153.000 L 159.273,151.773 Z M 183.043,128.359 C 185.269,126.651 185.547,123.959 183.677,122.226 L 182.354,121.000 L 134.250,121.000 L 86.146,121.000 L 84.823,122.226 C 84.095,122.900 83.500,123.995 83.500,124.659 C 83.500,126.227 85.216,128.387 86.635,128.604 C 87.248,128.698 109.013,128.818 135.000,128.871 C 171.484,128.946 182.431,128.829 183.043,128.359 Z M 183.773,103.273 C 184.980,102.065 185.357,100.012 184.689,98.272 C 183.806,95.970 184.458,95.999 134.901,96.044 C 107.509,96.069 87.483,96.281 86.393,96.558 C 82.997,97.419 82.053,100.298 84.294,102.962 L 85.589,104.500 L 134.067,104.500 L 182.545,104.500 L 183.773,103.273 Z M 45.500,66.476 C 42.629,65.252 39.548,61.249 37.990,56.720 C 35.850,50.501 35.485,38.454 37.237,31.835 C 38.995,25.191 42.617,20.399 46.420,19.685 C 47.386,19.504 51.343,19.620 55.213,19.943 C 104.471,24.056 145.781,24.907 178.500,22.483 C 195.364,21.234 199.387,20.899 209.056,19.943 C 221.258,18.737 222.616,18.918 225.750,22.178 C 230.602,27.226 233.281,41.226 231.311,51.250 C 230.331,56.241 228.727,60.123 226.461,62.989 C 223.203,67.111 221.515,67.538 212.534,66.510 C 201.074,65.198 187.563,64.149 164.000,62.742 C 149.592,61.882 113.842,61.750 102.500,62.516 C 88.332,63.472 70.206,64.976 60.750,65.980 C 52.614,66.843 46.805,67.032 45.500,66.476 Z M 23.668,52.795 C 21.698,52.157 19.274,51.133 18.282,50.520 C 9.574,45.138 13.653,34.695 25.108,33.049 C 26.836,32.801 28.587,32.519 29.000,32.424 C 29.619,32.280 29.706,32.730 29.500,35.000 C 29.114,39.244 29.204,47.409 29.674,50.875 L 30.098,54.000 L 28.674,53.978 C 27.891,53.965 25.638,53.433 23.668,52.795 Z M 237.868,51.875 C 238.379,49.022 238.355,36.161 237.835,34.125 L 237.421,32.500 L 239.666,32.500 C 244.216,32.500 251.470,35.604 253.243,38.310 C 253.747,39.079 254.222,40.970 254.345,42.705 C 254.622,46.581 253.581,48.719 250.500,50.602 C 248.226,51.992 241.413,53.978 238.869,53.992 C 237.517,54.000 237.496,53.955 237.868,51.875 Z" fill="#000000" fill-rule="evenodd" /></svg>