<svg width="305" height="342" viewBox="0 0 305 342" fill="none" xmlns="http://www.w3.org/2000/svg">
<path fill-rule="evenodd" clip-rule="evenodd" d="M167.75 340.635C165.743 339.571 155.272 332.432 149.443 328.154C146.862 326.26 144.188 324.333 143.5 323.871C135.599 318.566 132.224 315.736 131.207 313.564C130.74 312.566 129.469 309.95 128.383 307.75C127.297 305.55 125.98 302.676 125.457 301.364C124.934 300.051 122.251 294.462 119.496 288.944L114.487 278.91L115.572 275.58C116.471 272.821 116.682 270.835 116.804 264C116.885 259.462 117.216 253.998 117.54 251.856C118.433 245.946 117.378 246.036 114.327 252.13C112.485 255.807 108.793 260.75 107.888 260.75C107.322 260.75 104.978 256.481 102.536 251C101.617 248.938 100.01 245.45 98.965 243.25C95.773 236.526 91 226.059 91 225.782C91 225.676 90.237 223.938 89.305 221.92C85.238 213.116 84.215 210.839 81.139 203.75C79.349 199.625 77.686 196.036 77.443 195.775C77.199 195.514 77 195.028 77 194.696C77 194.113 75.557 190.927 70.006 179.25C68.568 176.225 66.761 172.175 65.99 170.25C65.218 168.325 63.58 164.613 62.348 162C59.22 155.368 51.518 138.11 50.744 136C50.391 135.037 49.219 132.338 48.138 130C47.058 127.662 45.31 123.778 44.255 121.368C43.199 118.958 42.071 116.766 41.747 116.498C40.608 115.553 30.83 121.742 24.19 127.612C22.721 128.911 20.628 130.563 19.538 131.284L17.558 132.595L15.882 131.316C13.938 129.834 9.47601 124.437 8.38401 122.25C6.32901 118.131 4.11401 107.7 4.86201 105.664C5.15201 104.874 5.967 104.603 9.902 103.986C16.608 102.936 24.644 100.743 31.241 98.1619C37.374 95.7629 38.5 95.1249 38.5 94.0469C38.5 93.5379 37.135 89.9999 35.467 86.1849C33.799 82.3709 31.798 77.6749 31.019 75.7499C30.241 73.8249 28.568 70.0349 27.302 67.3289C26.036 64.6219 25 62.3379 25 62.2529C25 62.1689 24.071 60.1079 22.936 57.6749C19.174 49.6099 17.147 44.7829 16.313 41.9049C15.421 38.8229 14.946 38.3739 9.818 35.7499C6.223 33.9109 3.31699 30.7539 1.42799 26.6359C0.227994 24.0189 0 22.8699 0 19.4369C0 6.12489 11.33 -2.6361 24.207 0.717897C28.223 1.7639 30.231 2.8449 32.726 5.3049C37.684 10.1929 39.646 18.0099 37.76 25.3659L36.893 28.7499L42.343 39.4999C45.341 45.4119 48.886 52.7249 50.22 55.7499C53.933 64.1689 62.8 81.7119 63.733 82.4859C64.458 83.0879 65.269 82.8059 70.157 80.2499C73.233 78.6419 77.857 75.7339 80.432 73.7879C89.611 66.8519 93.765 64.0339 94.836 64.0169C96.093 63.9969 98.733 66.8739 101.249 71.0049C103.162 74.1459 105.076 79.5289 106.226 84.9999C106.976 88.5719 106.97 88.7859 106.088 89.5139C105.579 89.9349 103.382 90.6829 101.206 91.1769C89.722 93.7829 82.054 95.9969 80.639 97.1159C80.16 97.4949 80.177 97.9399 80.717 99.1749C81.097 100.041 82.295 102.775 83.38 105.25C84.465 107.725 88.627 116.387 92.629 124.5C100.516 140.489 103.51 146.706 108.883 158.25C112.187 165.35 113.047 167.235 115.557 172.875C116.65 175.331 118.545 179.333 124.207 191.143C126.025 194.935 128.523 200.447 129.76 203.393C130.997 206.339 132.232 209.141 132.504 209.618C133.387 211.164 133.034 212.407 131.377 213.591C128.507 215.641 126.545 216.5 124.736 216.5C123.728 216.5 122.859 216.785 122.714 217.164C122.283 218.287 123.418 220.493 124.67 220.97C125.324 221.218 126.734 222.224 127.804 223.204C128.874 224.184 132.532 226.384 135.933 228.092C142.462 231.371 144.501 232.697 144.498 233.661C144.497 233.985 145.945 237.175 147.717 240.75C151.463 248.308 160 266.374 160 266.742C160 267 162.182 271.615 169.104 286C171.825 291.653 173.159 295.037 173.343 296.75C173.491 298.125 173.258 303.637 172.825 309C172.392 314.363 171.666 323.587 171.212 329.5C170.735 335.715 170.147 340.499 169.818 340.84C169.383 341.293 168.9 341.245 167.75 340.635ZM101.306 192.87C100.62 190.825 99.404 187.711 98.604 185.951C97.805 184.19 96.201 180.275 95.042 177.25C93.882 174.225 91.943 169.163 90.733 166C89.523 162.837 87.151 156.762 85.463 152.5C83.775 148.238 81.094 141.375 79.506 137.25C77.918 133.125 74.823 125.25 72.628 119.75C70.434 114.25 68.247 108.512 67.769 107C67.291 105.488 66.643 104.091 66.33 103.896C65.714 103.514 63.996 104.453 62 106.262C61.312 106.885 59.963 107.558 59 107.758C56.732 108.228 54.5 109.377 54.5 110.075C54.5 110.377 55.963 112.835 57.75 115.537C59.537 118.239 61 120.61 61 120.805C61 121 62.669 124.219 64.71 127.958C66.75 131.698 69.038 135.993 69.794 137.504C70.551 139.014 72.743 143.062 74.666 146.5C76.589 149.938 79.774 155.788 81.744 159.501C90.015 175.091 91.225 177.333 92.259 179C92.856 179.962 95.095 184.125 97.234 188.25C99.373 192.375 101.358 196.199 101.645 196.749C102.719 198.801 102.515 196.471 101.306 192.87ZM200.73 285.695C197.424 283.98 191.141 280.272 184 275.82C180.148 273.419 174.877 269.281 172.676 266.931C169.935 264.005 166.75 258.521 162.562 249.519C160.328 244.717 158.5 240.568 158.5 240.298C158.5 240.028 156.124 235.101 153.221 229.349C150.317 223.597 148.067 218.766 148.221 218.612C148.553 218.28 148.424 218.131 150.51 221.25C155.821 229.191 167.365 241.79 173.5 246.341C175.012 247.463 177.262 249.334 178.5 250.497C179.738 251.661 181.312 252.962 182 253.389C182.688 253.816 184.775 255.197 186.638 256.458C189.839 258.623 193.251 260.823 198.721 264.25C200.038 265.075 202.124 266.404 203.356 267.204C205.591 268.655 205.601 268.656 207.173 267.749C210.67 265.733 224.482 256.652 229.022 253.385C236.397 248.078 250.223 235.315 254.434 229.927C264.767 216.707 267.973 211.954 271.922 204C278.524 190.702 282.553 178.388 284.477 165.627C284.777 163.635 285.254 160.597 285.536 158.877C286.593 152.44 286.86 143.937 286.946 113.915C287.004 93.8199 286.861 82.9729 286.535 82.7719C286.261 82.6019 283.164 81.6759 279.653 80.7139C268.037 77.5299 251.22 71.4989 240 66.4939C219.856 57.5069 219.276 57.1429 218.765 53.1859C218.593 51.8459 217.9 47.8249 217.225 44.2499C216.551 40.6749 216 37.5809 216 37.3749C216 36.4659 218.329 37.1769 222.865 39.4689C233.945 45.0679 241.489 48.6929 245.5 50.3469C256.99 55.0829 260.956 56.6719 263.25 57.4569C276.504 61.9919 279.715 63.0589 282.75 63.9359C288.853 65.6999 293.643 66.8709 297.25 67.4809C299.175 67.8069 301.538 68.4509 302.5 68.9129L304.25 69.7529V110.501C304.25 154.426 304.226 154.94 301.467 170C298.295 187.317 290.908 206.763 282 221.25C269.742 241.184 247.14 263.575 226.851 275.884C219.771 280.18 220.545 279.742 210.398 285.172C208.004 286.452 205.633 287.5 205.128 287.5C204.623 287.5 202.644 286.688 200.73 285.695ZM203.5 256.325C199.712 254.436 186.82 245.53 181.861 241.377C178.631 238.672 171.048 231.06 165.794 225.25C161.599 220.61 157.417 215.034 153.232 208.5C150.165 203.713 143.951 190.872 142.343 186C138.95 175.719 137.337 170.046 136.277 164.659C133.891 152.539 133.75 149.977 133.75 118.773V89.2959L135.75 88.8989C136.85 88.6799 138.988 88.0759 140.5 87.5559C142.012 87.0359 145.387 85.9939 148 85.2409C153.023 83.7939 156.011 82.7829 160.5 81.0089C162.012 80.4119 164.825 79.3649 166.75 78.6829C170.304 77.4229 175.5 75.0859 188.443 68.9239C192.4 67.0409 195.903 65.4999 196.229 65.4999C196.843 65.4999 197.785 67.4409 200.464 74.2299C201.328 76.4189 202.386 78.5979 202.815 79.0719C203.513 79.8429 203.516 80.0829 202.844 81.3419C202.43 82.1159 200.467 86.7999 198.481 91.7499C196.496 96.6999 193.967 103 192.863 105.75C191.758 108.5 190.325 111.863 189.677 113.223C189.03 114.583 188.5 116.186 188.5 116.785C188.5 117.854 192.033 122.12 201.762 132.798C204.243 135.522 206.903 138.58 207.673 139.595L209.073 141.44L208.008 146.595C207.423 149.43 206.736 152.65 206.483 153.75C206.229 154.85 205.332 159.462 204.489 164C203.647 168.538 202.517 174.09 201.979 176.339C200.913 180.791 200.719 182.99 201.46 182.225C201.713 181.964 205.568 174.55 210.028 165.75C214.487 156.95 219.051 147.999 220.171 145.858C222.616 141.182 222.701 141.561 217.408 133.494C215.335 130.335 212.779 126.175 211.727 124.25C210.674 122.325 209.069 119.512 208.158 118C207.248 116.488 206.502 114.958 206.501 114.601C206.501 114.244 207.322 112.669 208.328 111.101C210.102 108.333 217.64 95.4499 222.906 86.1859C224.333 83.6749 225.496 81.0879 225.491 80.4359C225.483 79.3419 224.577 74.6439 223.742 71.3749C223.31 69.6799 224.18 69.5549 226.596 70.9659C229.364 72.5819 249.097 80.8379 254.076 82.4619C266.446 86.4979 269.511 87.4439 272.801 88.2399C274.753 88.7119 276.624 89.2679 276.957 89.4739C277.906 90.0599 277.715 144.561 276.735 152.957C274.596 171.274 271.369 182.395 263.517 198.5C261.573 202.488 259.705 206.193 259.366 206.734C253.034 216.846 249.116 221.821 240.503 230.689C232.911 238.506 225.419 244.642 214.5 251.984C211.887 253.74 209.114 255.7 208.337 256.339C206.623 257.747 206.349 257.746 203.5 256.325ZM129.114 179.331C128.572 178.412 127.29 175.769 126.265 173.456C121.77 163.315 119.792 158.964 117.763 154.75C113.415 145.717 110.552 139.673 109.008 136.263L107.429 132.776L107.441 117.263C107.447 108.731 107.463 101.393 107.476 100.956C107.491 100.457 109.037 99.4529 111.625 98.2609C113.894 97.2149 115.928 96.1099 116.144 95.8049C116.79 94.8969 115.942 86.9769 113.719 73.1399C113.577 72.2539 112.879 70.8379 112.168 69.9939C111.457 69.1489 110.96 68.3769 111.063 68.2779C111.166 68.1789 114.4 67.2989 118.25 66.3219C126.959 64.1129 140.377 60.0849 146 57.9919C148.337 57.1229 150.812 56.2249 151.5 55.9979C152.188 55.7699 154.1 55.0269 155.75 54.3449C157.4 53.6629 162.575 51.5339 167.25 49.6129C171.925 47.6919 178.053 44.9429 180.867 43.5029C183.681 42.0639 186.274 40.9979 186.629 41.1339C187.441 41.4459 193.189 55.7869 192.852 56.6629C192.716 57.0189 191.625 57.6039 190.428 57.9619C189.232 58.3209 186.339 59.5719 184.001 60.7419C180.153 62.6669 176.427 64.3259 170 66.9739C168.762 67.4839 166.344 68.4989 164.626 69.2279C157.191 72.3859 135.66 79.5539 128.5 81.2549C126.712 81.6789 124.973 82.3949 124.634 82.8459C123.874 83.8579 123.774 135.275 124.51 146.328C125.205 156.741 127.946 172.474 130.212 179.051C131.035 181.44 130.446 181.589 129.114 179.331Z" fill="black"/>
</svg>
