<svg xmlns="http://www.w3.org/2000/svg" viewBox="0 0 301 241" width="301" height="241"><path d="M 71.500,225.089 C 70.537,224.609 68.963,223.903 68.000,223.518 C 63.911,221.886 59.179,217.777 57.413,214.325 C 55.878,211.323 56.499,209.186 60.395,204.069 C 68.073,193.984 77.906,182.406 88.476,171.005 C 97.858,160.884 129.543,129.035 133.625,125.622 C 135.481,124.069 137.000,122.672 137.000,122.517 C 137.000,122.361 134.057,118.975 130.460,114.992 C 126.862,111.009 119.093,102.237 113.194,95.500 C 98.899,79.173 95.045,75.000 94.263,75.000 C 92.760,75.000 87.953,81.132 85.511,86.165 C 80.714,96.051 79.982,102.457 82.718,110.607 C 84.329,115.405 87.984,122.517 90.279,125.318 C 91.260,126.515 91.908,127.744 91.719,128.049 C 91.484,128.431 89.868,128.505 86.563,128.287 C 72.166,127.338 59.769,123.570 50.500,117.326 C 39.283,109.769 29.622,98.937 24.345,88.000 C 20.281,79.575 17.500,67.913 17.500,59.295 C 17.500,54.890 17.939,54.408 20.553,55.950 C 23.863,57.903 29.316,59.632 34.250,60.293 C 43.308,61.506 52.244,59.850 60.500,55.428 C 64.808,53.121 71.000,48.579 71.000,47.726 C 71.000,47.408 69.699,45.674 68.108,43.872 C 66.517,42.071 64.674,39.439 64.011,38.023 C 62.902,35.655 62.856,35.263 63.431,33.100 C 64.618,28.640 67.207,26.273 71.838,25.412 C 74.473,24.922 74.987,24.973 76.824,25.910 C 77.950,26.485 80.587,28.698 82.683,30.828 L 86.493,34.701 L 88.798,32.225 C 91.633,29.182 94.463,24.486 96.547,19.371 C 97.414,17.242 98.384,15.500 98.703,15.500 C 99.748,15.500 104.658,18.861 109.432,22.844 C 114.843,27.357 119.647,32.659 122.841,37.641 C 126.125,42.765 130.117,50.772 129.915,51.831 C 129.767,52.609 129.091,52.793 125.495,53.032 C 123.160,53.188 120.079,53.725 118.647,54.226 C 116.219,55.076 110.793,59.100 109.884,60.725 C 109.598,61.237 111.311,63.577 115.830,68.847 C 123.190,77.428 128.176,83.120 131.733,87.000 C 137.268,93.036 141.700,98.065 142.424,99.129 C 143.451,100.639 150.093,107.500 150.528,107.500 C 150.983,107.500 169.511,87.344 173.583,82.420 C 175.325,80.313 178.550,76.582 180.750,74.128 C 186.265,67.977 191.000,62.200 191.000,61.624 C 191.000,60.794 186.183,56.283 184.121,55.183 C 181.876,53.984 178.559,53.148 174.344,52.717 C 172.676,52.547 171.333,52.146 171.191,51.777 C 170.845,50.874 173.738,44.501 176.652,39.750 C 181.402,32.006 189.613,23.608 197.000,18.939 C 200.216,16.906 202.903,15.736 203.343,16.176 C 203.514,16.347 204.280,18.313 205.045,20.545 C 205.810,22.777 207.050,25.536 207.801,26.677 C 209.734,29.614 214.046,34.500 214.704,34.500 C 215.008,34.500 217.249,32.481 219.682,30.013 C 224.436,25.192 225.615,24.615 229.615,25.152 C 233.955,25.734 238.000,30.304 238.000,34.626 C 238.000,36.795 236.609,39.811 234.254,42.750 C 233.372,43.850 232.223,45.505 231.700,46.428 L 230.750,48.105 L 233.750,50.854 C 237.208,54.021 245.636,58.326 251.250,59.791 C 256.049,61.043 265.948,61.063 270.656,59.830 C 274.312,58.872 277.662,57.576 280.551,56.001 C 281.542,55.461 282.498,55.165 282.676,55.343 C 283.282,55.949 282.999,66.232 282.245,71.000 C 280.719,80.660 277.490,88.400 271.003,97.956 C 266.180,105.059 262.402,108.935 255.250,114.118 C 242.748,123.177 228.798,128.000 215.097,128.000 C 209.982,128.000 208.874,127.642 210.308,126.452 C 211.264,125.658 214.505,120.931 215.740,118.529 C 217.618,114.877 219.547,108.601 219.833,105.212 C 220.549,96.741 216.867,86.127 210.653,78.753 C 209.032,76.829 207.342,75.185 206.896,75.099 C 206.384,75.001 204.636,76.651 202.167,79.562 C 198.705,83.644 192.926,90.199 187.454,96.250 C 186.459,97.350 183.784,100.388 181.510,103.000 C 179.236,105.612 175.773,109.443 173.813,111.513 C 171.853,113.582 169.388,116.282 168.334,117.513 C 166.312,119.873 139.118,147.865 132.181,154.726 C 124.216,162.604 102.833,187.631 96.970,195.937 C 96.267,196.934 94.228,199.775 92.441,202.250 C 90.654,204.725 87.027,210.125 84.381,214.250 C 79.731,221.499 77.453,224.263 75.158,225.440 C 73.768,226.153 73.606,226.137 71.500,225.089 Z M 225.750,225.418 C 223.169,223.994 219.018,218.650 214.774,211.287 C 212.807,207.873 202.429,192.993 199.057,188.750 C 190.324,177.763 174.540,159.960 162.044,147.002 C 158.995,143.840 156.500,141.130 156.500,140.979 C 156.500,140.405 168.734,128.500 169.324,128.500 C 169.664,128.500 170.237,128.897 170.597,129.383 C 170.956,129.868 173.613,132.383 176.500,134.971 C 182.469,140.320 185.776,143.633 205.006,163.522 C 222.142,181.246 226.287,185.963 242.324,205.980 C 244.479,208.669 245.008,212.314 243.577,214.617 C 242.107,216.984 239.273,219.548 235.000,222.375 C 229.076,226.294 227.987,226.652 225.750,225.418 Z" fill="#000000" fill-rule="evenodd" /></svg>