<svg xmlns="http://www.w3.org/2000/svg" viewBox="0 0 442 307" width="442" height="307"><path d="M 72.727,291.500 C 52.172,291.223 53.397,291.428 49.802,287.649 C 48.808,286.604 47.772,284.962 47.500,284.000 C 47.228,283.038 47.004,278.750 47.003,274.473 C 47.000,266.774 47.014,266.673 48.429,264.442 C 49.216,263.202 50.942,261.470 52.265,260.594 L 54.671,259.000 L 218.403,259.000 C 343.016,259.000 382.606,259.141 384.109,259.592 C 386.998,260.457 390.851,264.918 391.301,267.918 C 391.840,271.510 391.215,284.151 390.430,285.544 C 389.355,287.450 386.879,290.018 385.336,290.826 C 384.098,291.474 365.722,291.577 237.586,291.658 C 157.101,291.709 82.915,291.637 72.727,291.500 Z M 68.201,249.000 C 56.693,248.815 52.454,248.585 51.889,248.116 C 51.470,247.768 50.859,246.080 50.531,244.366 C 50.204,242.652 49.734,240.575 49.487,239.750 C 48.162,235.328 47.000,229.402 47.000,227.067 C 47.000,224.723 49.620,215.843 52.571,208.186 C 53.078,206.869 53.004,205.997 52.107,202.686 C 50.666,197.371 49.169,191.032 46.750,180.000 C 46.358,178.213 45.371,174.501 44.557,171.752 C 42.935,166.274 43.695,167.232 35.250,160.029 C 28.698,154.440 28.676,154.407 27.020,147.722 C 25.647,142.179 22.779,129.405 21.471,123.000 C 21.161,121.487 20.500,118.450 20.001,116.250 C 19.501,114.050 18.609,109.888 18.019,107.000 C 17.428,104.112 16.399,99.500 15.732,96.750 C 14.680,92.413 12.500,82.258 12.500,81.695 C 12.500,80.889 14.743,81.832 16.555,83.401 C 17.762,84.446 20.853,86.640 23.424,88.276 C 25.995,89.912 29.468,92.352 31.142,93.698 C 32.816,95.045 37.463,98.287 41.468,100.903 C 45.473,103.520 49.716,106.434 50.896,107.381 C 52.076,108.327 54.888,110.307 57.146,111.780 C 59.403,113.254 62.600,115.369 64.250,116.482 C 65.900,117.594 70.963,120.996 75.500,124.042 C 80.037,127.088 85.775,131.007 88.250,132.751 C 90.725,134.495 92.985,135.940 93.272,135.961 C 93.559,135.983 95.134,137.133 96.772,138.518 C 99.782,141.064 100.299,141.435 106.942,145.815 C 114.787,150.989 118.297,152.987 119.500,152.967 C 120.761,152.946 121.677,151.892 127.242,144.056 C 128.338,142.512 131.376,138.255 133.992,134.594 C 136.609,130.934 140.325,125.733 142.250,123.037 C 144.175,120.341 147.213,116.280 149.000,114.012 C 150.787,111.744 153.262,108.469 154.500,106.733 C 160.480,98.347 164.595,92.681 169.166,86.540 C 171.914,82.849 175.284,78.124 176.655,76.040 C 178.027,73.955 179.806,71.463 180.609,70.500 C 181.411,69.537 182.784,67.708 183.659,66.434 C 184.534,65.160 186.307,62.685 187.598,60.934 C 188.890,59.183 190.686,56.737 191.590,55.500 C 192.494,54.263 194.080,52.223 195.116,50.968 C 196.152,49.713 197.000,48.456 197.000,48.174 C 197.000,47.893 198.406,45.844 200.125,43.621 C 201.844,41.397 204.938,37.175 207.000,34.238 C 209.062,31.301 211.706,27.687 212.875,26.206 C 214.044,24.726 215.000,23.337 215.000,23.121 C 215.000,22.905 215.701,21.877 216.559,20.837 C 219.088,17.769 219.443,17.995 225.500,26.523 C 226.738,28.265 230.450,33.327 233.750,37.771 C 242.030,48.923 244.586,52.380 245.750,53.999 C 246.300,54.764 248.007,57.046 249.543,59.070 C 251.080,61.094 253.892,64.966 255.793,67.675 C 257.695,70.383 259.757,73.308 260.377,74.175 C 260.997,75.041 262.038,76.537 262.690,77.500 C 263.343,78.463 264.973,80.651 266.313,82.364 C 270.744,88.027 273.735,92.074 274.856,93.924 C 275.465,94.928 277.206,97.325 278.726,99.250 C 280.246,101.175 283.136,105.225 285.148,108.250 C 287.160,111.275 289.432,114.425 290.196,115.250 C 290.960,116.075 292.522,118.150 293.668,119.861 C 294.813,121.572 298.773,126.972 302.469,131.861 C 311.563,143.893 312.659,145.395 314.248,148.000 C 317.077,152.638 318.738,153.701 321.158,152.424 C 324.051,150.897 340.002,140.108 341.864,138.418 C 343.026,137.363 344.303,136.500 344.701,136.500 C 345.098,136.500 346.488,135.688 347.789,134.695 C 349.090,133.702 351.301,132.122 352.702,131.184 C 357.390,128.046 361.724,125.043 364.750,122.836 C 366.400,121.632 370.975,118.575 374.916,116.043 C 378.857,113.510 384.170,109.820 386.722,107.844 C 389.274,105.867 392.868,103.350 394.709,102.250 C 396.550,101.150 399.562,99.119 401.403,97.736 C 408.338,92.528 424.395,82.000 425.403,82.000 C 425.887,82.000 426.033,82.362 425.856,83.125 C 425.712,83.744 425.009,86.838 424.293,90.000 C 423.578,93.162 422.785,96.537 422.531,97.500 C 422.056,99.303 420.670,105.719 419.993,109.250 C 419.782,110.350 419.335,112.487 419.000,114.000 C 418.665,115.513 418.218,117.650 418.006,118.750 C 416.446,126.873 415.860,129.770 415.024,133.500 C 414.499,135.838 413.698,139.550 413.242,141.750 C 412.787,143.950 412.096,146.746 411.707,147.964 C 411.318,149.182 411.000,150.901 411.000,151.784 C 411.000,153.928 410.068,154.885 401.781,161.250 C 395.960,165.722 394.667,168.133 392.249,179.035 C 388.519,195.853 388.536,195.779 386.793,202.149 C 385.675,206.237 385.773,207.257 387.772,212.289 C 390.062,218.052 392.500,225.572 392.500,226.869 C 392.500,227.428 392.145,229.092 391.711,230.568 C 390.787,233.709 390.465,235.008 388.911,241.877 C 388.272,244.697 387.369,247.509 386.904,248.127 L 386.057,249.250 L 234.904,249.250 C 151.769,249.250 76.753,249.137 68.201,249.000 Z M 227.283,229.783 C 230.237,227.327 234.388,223.727 236.508,221.783 C 243.511,215.363 247.482,211.887 249.329,210.560 C 250.331,209.840 252.720,207.724 254.638,205.858 C 256.555,203.992 259.098,201.668 260.288,200.692 C 261.479,199.716 263.064,197.875 263.811,196.601 L 265.169,194.284 L 265.209,161.730 L 265.250,129.176 L 263.794,127.213 C 262.993,126.133 261.530,124.495 260.544,123.573 C 259.557,122.650 255.071,118.375 250.574,114.073 C 246.077,109.770 242.148,106.159 241.842,106.048 C 241.536,105.936 240.007,104.586 238.445,103.048 C 236.883,101.509 234.062,98.914 232.177,97.280 C 230.292,95.647 226.990,92.665 224.839,90.655 C 220.588,86.682 218.988,86.142 216.486,87.838 C 215.374,88.592 208.537,94.600 204.000,98.811 C 201.969,100.695 196.147,105.928 193.250,108.474 C 192.150,109.440 189.948,111.529 188.357,113.115 C 186.766,114.702 185.304,116.004 185.107,116.009 C 184.681,116.020 181.721,118.911 177.048,123.879 C 174.198,126.909 173.592,127.859 173.376,129.629 C 173.027,132.494 173.380,191.064 173.767,194.380 L 174.073,197.010 L 183.412,205.378 C 188.548,209.980 193.782,214.760 195.043,215.998 C 196.305,217.237 199.098,219.713 201.251,221.500 C 203.403,223.287 206.011,225.568 207.044,226.568 C 210.646,230.051 217.257,235.387 218.250,235.612 C 219.598,235.917 220.979,235.026 227.283,229.783 Z M 314.750,210.867 C 320.674,204.561 324.920,199.362 326.291,196.734 C 327.155,195.076 327.034,194.764 319.461,179.190 C 318.107,176.407 317.000,173.900 317.000,173.619 C 317.000,172.932 315.680,172.462 314.750,172.819 C 314.337,172.977 314.000,173.341 314.000,173.627 C 314.000,174.165 311.021,177.993 309.235,179.750 C 308.676,180.300 306.132,183.273 303.582,186.357 C 299.598,191.175 299.020,192.103 299.473,192.949 C 299.763,193.491 300.000,194.611 300.000,195.438 C 300.000,196.264 300.201,197.065 300.446,197.217 C 300.989,197.552 303.811,203.338 304.804,206.154 C 305.201,207.280 305.816,208.549 306.169,208.975 C 306.523,209.401 307.235,210.762 307.751,212.000 C 309.565,216.346 309.609,216.339 314.750,210.867 Z M 129.360,214.375 C 129.625,214.031 131.246,210.713 132.962,207.000 C 134.678,203.287 136.851,198.755 137.791,196.929 C 138.731,195.102 139.500,193.260 139.500,192.836 C 139.500,192.412 137.703,189.969 135.506,187.408 C 133.309,184.846 129.765,180.567 127.631,177.899 C 123.122,172.262 122.135,171.906 120.292,175.250 C 118.592,178.336 113.001,190.841 112.989,191.586 C 112.983,191.951 112.538,192.812 112.000,193.500 C 111.462,194.188 111.017,195.052 111.011,195.421 C 110.996,196.354 114.042,200.161 120.454,207.222 C 122.216,209.162 124.458,211.706 125.435,212.875 C 127.237,215.030 128.486,215.507 129.360,214.375 Z M 37.750,219.830 C 36.650,219.193 34.064,217.396 32.002,215.836 C 29.941,214.276 28.070,213.000 27.844,213.000 C 26.658,213.000 24.084,210.327 23.853,208.856 C 23.714,207.973 23.104,205.113 22.496,202.500 C 21.888,199.887 21.203,196.850 20.973,195.750 C 20.206,192.083 18.558,185.293 17.514,181.500 L 16.482,177.750 L 20.588,169.607 C 22.868,165.085 24.959,161.528 25.290,161.607 C 26.222,161.831 34.888,169.365 35.782,170.728 C 36.222,171.400 36.903,173.254 37.296,174.850 C 37.689,176.445 38.227,178.537 38.492,179.500 C 38.756,180.463 40.350,186.826 42.033,193.640 L 45.093,206.031 L 43.320,211.640 C 42.345,214.726 41.357,218.022 41.125,218.966 C 40.894,219.910 40.489,220.751 40.227,220.835 C 39.965,220.919 38.850,220.466 37.750,219.830 Z M 398.831,220.125 C 398.706,219.919 397.767,217.500 396.744,214.750 C 395.722,212.000 394.654,209.463 394.371,209.113 C 393.391,207.897 394.694,199.627 396.989,192.500 C 397.299,191.537 397.754,189.738 398.002,188.500 C 398.893,184.037 401.900,172.090 402.320,171.342 C 402.915,170.285 412.806,161.000 413.338,161.000 C 414.244,161.000 422.496,175.989 422.498,177.637 C 422.499,178.401 422.042,180.313 421.482,181.887 C 420.922,183.462 419.345,189.812 417.978,196.000 C 416.610,202.188 415.266,208.037 414.991,209.000 C 414.310,211.382 412.080,213.689 408.902,215.300 C 407.443,216.038 404.876,217.511 403.196,218.571 C 400.129,220.508 399.253,220.820 398.831,220.125 Z M 318.761,140.125 C 316.930,137.326 314.160,133.536 306.407,123.224 C 304.329,120.460 302.283,117.535 301.862,116.724 C 301.440,115.913 300.501,114.695 299.776,114.018 C 299.050,113.340 297.747,111.342 296.878,109.578 L 295.300,106.372 L 297.269,104.811 C 298.353,103.952 300.592,101.994 302.245,100.458 C 307.838,95.262 316.648,87.263 319.456,84.831 C 320.993,83.500 323.906,80.918 325.931,79.093 C 330.644,74.844 332.609,73.403 333.051,73.874 C 333.245,74.081 334.792,77.737 336.489,82.000 C 339.963,90.729 341.283,93.893 344.004,100.000 C 345.045,102.338 346.237,105.263 346.653,106.500 C 347.652,109.471 349.307,113.640 350.720,116.741 C 352.632,120.941 352.690,121.373 351.396,121.777 C 350.766,121.974 349.535,122.723 348.661,123.442 C 347.787,124.162 345.240,125.987 343.000,127.500 C 340.760,129.012 338.213,130.832 337.339,131.544 C 336.465,132.256 333.046,134.656 329.740,136.877 C 326.435,139.099 323.306,141.385 322.788,141.958 C 322.269,142.531 321.574,143.000 321.243,143.000 C 320.912,143.000 319.795,141.706 318.761,140.125 Z M 114.215,140.856 C 111.580,138.652 105.538,134.283 104.060,133.515 C 102.690,132.802 95.968,128.146 93.750,126.374 C 92.925,125.714 90.939,124.434 89.337,123.529 C 87.735,122.624 86.319,121.609 86.190,121.274 C 86.061,120.939 86.994,118.434 88.263,115.707 C 89.532,112.981 91.113,109.202 91.777,107.311 C 92.441,105.420 93.182,103.620 93.423,103.311 C 93.665,103.002 95.220,99.263 96.879,95.000 C 98.538,90.737 100.784,85.225 101.869,82.750 C 102.954,80.275 104.151,77.181 104.530,75.875 C 104.909,74.569 105.418,73.500 105.662,73.500 C 106.365,73.500 109.945,76.407 113.750,80.068 C 115.675,81.921 118.175,84.182 119.305,85.093 C 122.459,87.636 127.780,92.438 132.750,97.226 C 135.225,99.610 137.842,101.877 138.565,102.262 C 139.288,102.648 140.349,103.759 140.923,104.732 C 141.497,105.704 142.311,106.500 142.733,106.500 C 143.155,106.500 143.500,106.672 143.500,106.882 C 143.500,107.254 141.142,110.750 138.877,113.737 C 137.491,115.565 131.610,123.550 129.232,126.832 C 128.269,128.162 126.414,130.825 125.110,132.750 C 121.426,138.187 117.828,142.491 116.965,142.496 C 116.533,142.498 115.296,141.760 114.215,140.856 Z M 213.712,223.612 C 212.591,222.588 210.903,221.104 209.962,220.315 C 207.783,218.489 199.434,210.789 192.206,203.940 C 189.124,201.019 185.668,197.879 184.527,196.961 L 182.451,195.293 L 184.850,194.100 C 187.495,192.784 193.301,189.401 195.945,187.633 C 196.877,187.010 198.082,186.500 198.622,186.500 C 199.231,186.500 202.699,189.637 207.730,194.737 L 215.855,202.975 L 216.177,206.061 C 216.624,210.337 216.584,225.503 216.125,225.487 C 215.919,225.481 214.833,224.637 213.712,223.612 Z M 223.000,213.568 L 223.000,202.636 L 225.583,199.943 C 238.058,186.938 239.338,185.831 240.649,186.914 C 240.980,187.187 242.262,187.807 243.500,188.290 C 244.738,188.774 246.585,189.818 247.605,190.611 C 248.625,191.403 250.819,192.511 252.480,193.072 C 254.141,193.633 255.500,194.358 255.500,194.684 C 255.500,195.313 252.364,198.477 248.250,201.998 C 246.875,203.175 242.600,207.112 238.750,210.747 C 231.033,218.034 223.770,224.500 223.302,224.500 C 223.136,224.500 223.000,219.581 223.000,213.568 Z M 180.333,189.667 C 179.791,189.125 179.936,135.099 180.480,134.762 C 181.076,134.394 186.136,136.910 190.641,139.814 C 192.505,141.016 194.222,142.000 194.454,142.000 C 195.769,142.000 195.931,144.042 196.042,161.910 L 196.158,180.556 L 192.120,183.259 C 189.899,184.746 187.938,186.196 187.762,186.481 C 187.585,186.767 187.085,187.000 186.651,187.000 C 186.216,187.000 184.764,187.675 183.423,188.500 C 180.721,190.163 180.799,190.133 180.333,189.667 Z M 255.500,188.412 C 254.812,188.120 253.800,187.703 253.250,187.486 C 250.317,186.329 246.452,184.261 244.141,182.612 C 241.904,181.015 241.568,180.565 241.788,179.454 C 241.929,178.741 242.123,170.339 242.218,160.783 C 242.314,151.227 242.593,143.207 242.839,142.961 C 243.960,141.840 257.022,134.500 257.896,134.500 C 258.091,134.500 258.186,146.706 258.107,161.625 C 257.998,182.427 257.823,188.773 257.357,188.847 C 257.023,188.901 256.188,188.705 255.500,188.412 Z M 195.750,135.794 C 194.375,134.866 191.150,133.040 188.584,131.737 C 186.018,130.434 183.814,129.096 183.686,128.763 C 183.456,128.165 189.154,122.113 193.500,118.339 C 194.738,117.264 198.713,113.542 202.335,110.067 C 210.494,102.241 215.462,97.796 215.740,98.074 C 215.857,98.190 215.987,103.439 216.028,109.736 L 216.104,121.187 L 209.677,127.491 C 203.937,133.122 199.002,137.517 198.449,137.491 C 198.339,137.485 197.125,136.722 195.750,135.794 Z M 231.158,129.339 L 223.070,121.250 L 222.836,111.250 C 222.708,105.750 222.442,100.519 222.245,99.625 C 221.476,96.138 222.973,97.332 240.581,114.250 C 247.451,120.850 253.505,126.453 254.036,126.701 C 256.536,127.872 253.417,130.789 246.501,133.749 C 244.174,134.745 241.590,135.981 240.759,136.495 L 239.247,137.429 L 231.158,129.339 Z" fill="#000000" fill-rule="evenodd" /></svg>