<svg xmlns="http://www.w3.org/2000/svg" viewBox="0 0 128 120" width="128" height="120"><path d="M 49.250,108.037 C 33.571,105.491 21.169,95.884 14.930,81.450 C 10.640,71.525 10.041,60.410 13.251,50.297 C 18.060,35.143 29.394,24.503 45.332,20.178 C 50.189,18.859 62.314,18.865 67.250,20.188 C 73.819,21.949 81.155,25.955 86.000,30.428 L 88.250,32.505 L 85.764,34.753 C 84.396,35.989 83.025,37.000 82.716,37.000 C 82.408,37.000 81.726,36.523 81.202,35.939 C 79.925,34.516 75.283,31.430 72.477,30.138 C 63.796,26.140 53.108,25.438 44.647,28.311 C 33.414,32.124 24.861,40.476 21.084,51.318 C 18.667,58.259 18.390,67.063 20.363,74.261 C 23.093,84.219 30.470,92.957 39.831,97.321 C 45.087,99.770 48.567,100.581 55.000,100.856 C 62.031,101.156 67.039,100.075 73.500,96.863 C 79.566,93.847 85.910,87.495 88.842,81.500 C 91.105,76.874 91.228,76.559 92.360,72.500 C 93.338,68.990 93.469,57.590 92.563,54.750 C 91.287,50.748 89.776,47.199 88.359,44.872 L 86.910,42.494 L 89.330,40.267 C 90.661,39.042 92.016,38.031 92.341,38.020 C 93.098,37.994 94.482,39.965 96.367,43.750 C 104.708,60.506 101.637,80.281 88.455,94.704 C 83.065,100.602 75.776,104.922 67.663,107.029 C 63.305,108.160 53.362,108.705 49.250,108.037 Z M 52.587,93.467 C 43.566,92.284 35.621,87.424 31.163,80.363 C 29.288,77.392 27.206,72.114 26.773,69.233 C 25.248,59.096 27.993,50.156 34.750,43.252 C 45.323,32.449 61.682,30.943 73.875,39.652 C 75.044,40.487 76.000,41.448 76.000,41.788 C 76.000,42.472 71.033,47.121 70.552,46.889 C 70.386,46.808 68.807,45.991 67.043,45.073 C 62.740,42.832 59.845,42.011 56.250,42.011 C 50.095,42.012 44.537,44.453 40.335,49.000 C 30.547,59.591 32.750,75.452 45.007,82.634 C 51.345,86.347 60.645,86.353 66.968,82.648 C 77.036,76.750 80.723,64.800 75.725,54.269 L 74.806,52.331 L 77.528,49.921 C 79.025,48.595 80.403,47.509 80.591,47.506 C 81.145,47.497 82.767,50.081 83.726,52.500 C 87.133,61.099 86.630,69.201 82.116,78.468 C 80.536,81.712 75.879,86.831 72.591,88.942 C 69.482,90.936 64.428,92.801 61.000,93.218 C 59.487,93.402 57.688,93.627 57.000,93.718 C 56.312,93.808 54.326,93.695 52.587,93.467 Z M 53.250,76.416 C 49.277,75.077 46.052,72.577 44.576,69.690 C 42.020,64.690 43.628,57.702 48.106,54.349 C 52.963,50.712 58.276,50.191 61.983,52.987 L 63.158,53.874 L 62.040,55.444 C 59.824,58.555 61.342,57.895 66.245,53.612 C 75.368,45.646 87.221,36.049 89.348,34.907 C 95.044,31.849 90.781,36.726 79.500,46.174 C 75.513,49.514 71.170,53.105 69.850,54.155 C 68.530,55.204 66.315,57.192 64.927,58.573 C 61.608,61.874 57.583,64.299 57.178,63.242 C 57.018,62.826 57.508,61.679 58.273,60.675 C 59.323,59.299 59.535,58.666 59.153,58.055 C 58.513,57.033 56.318,56.745 55.676,57.600 C 55.021,58.473 53.401,65.568 53.772,65.939 C 54.335,66.501 60.258,65.931 61.375,65.207 C 61.994,64.805 62.500,64.010 62.500,63.438 C 62.500,62.867 63.294,61.606 64.264,60.636 C 65.972,58.928 66.060,58.900 67.012,59.761 C 70.390,62.818 68.339,71.041 63.363,74.391 C 59.839,76.763 56.353,77.461 53.250,76.416 Z M 96.125,35.364 C 94.681,35.086 93.513,34.722 93.529,34.555 C 93.544,34.387 94.726,33.271 96.154,32.074 C 97.582,30.877 100.623,28.308 102.911,26.365 L 107.073,22.831 L 110.411,23.459 C 114.786,24.282 115.500,24.491 115.500,24.951 C 115.500,25.162 113.531,26.930 111.125,28.880 C 108.719,30.829 105.975,33.229 105.027,34.212 C 103.515,35.781 103.025,35.992 101.027,35.934 C 99.775,35.898 97.569,35.642 96.125,35.364 Z M 91.242,32.391 C 91.111,32.038 91.299,29.911 91.660,27.663 L 92.316,23.577 L 96.276,19.913 C 98.454,17.899 101.275,15.294 102.545,14.125 C 103.815,12.956 105.071,12.000 105.337,12.000 C 105.628,12.000 105.735,13.742 105.605,16.375 C 105.350,21.536 105.714,21.018 97.365,28.065 C 93.652,31.199 91.393,32.796 91.242,32.391 Z" fill="#000000" fill-rule="evenodd" /></svg>