<svg xmlns="http://www.w3.org/2000/svg" viewBox="0 0 248 280" width="248" height="280"><path d="M 149.250,267.150 C 146.563,266.791 132.625,264.276 125.500,262.865 C 123.438,262.457 120.175,261.848 118.250,261.514 C 116.325,261.179 114.075,260.715 113.250,260.482 C 112.425,260.249 110.400,259.809 108.750,259.504 C 107.100,259.199 104.737,258.731 103.500,258.463 C 96.381,256.924 76.718,253.361 66.250,251.714 C 63.775,251.325 60.850,250.792 59.750,250.529 C 58.650,250.267 55.884,249.774 53.603,249.433 C 51.323,249.092 48.765,248.392 47.919,247.878 C 46.451,246.985 46.393,246.824 46.638,244.346 C 46.779,242.918 47.365,238.825 47.942,235.250 C 49.896,223.118 50.000,221.986 50.000,212.756 C 50.000,202.952 49.128,195.046 47.498,190.058 C 46.530,187.100 40.521,174.654 39.024,172.508 C 38.541,171.816 37.074,169.225 35.763,166.750 C 34.452,164.275 33.212,162.025 33.008,161.750 C 31.612,159.865 26.191,148.721 24.252,143.750 C 22.965,140.450 21.481,136.649 20.954,135.304 C 19.798,132.351 17.800,122.584 16.968,115.817 C 15.811,106.404 16.951,91.893 19.742,80.500 C 21.146,74.769 24.820,65.744 28.189,59.750 C 34.611,48.325 47.496,35.094 58.750,28.369 C 62.194,26.311 73.597,20.968 78.130,19.288 C 89.669,15.013 98.762,13.281 115.250,12.220 C 121.222,11.836 137.097,13.528 143.625,15.244 C 153.035,17.718 154.159,18.079 159.345,20.295 C 168.861,24.361 173.195,27.031 181.251,33.789 C 189.017,40.303 196.001,48.638 200.653,56.940 C 201.944,59.245 203.000,61.394 203.000,61.715 C 203.000,62.037 203.201,62.514 203.447,62.775 C 204.095,63.464 207.267,72.587 208.472,77.230 C 210.339,84.421 211.020,89.824 211.450,100.861 C 211.769,109.031 212.067,112.125 212.646,113.250 C 213.071,114.075 214.238,116.550 215.240,118.750 C 219.395,127.875 222.392,133.692 226.960,141.500 C 233.198,152.165 233.758,153.261 234.497,156.250 C 235.610,160.751 233.626,164.662 229.067,166.951 C 228.068,167.453 224.349,168.367 220.804,168.983 C 211.743,170.555 211.694,170.578 211.314,173.346 C 211.141,174.608 210.997,177.914 210.993,180.695 C 210.986,185.605 209.765,203.237 209.293,205.250 C 206.731,216.172 205.504,219.140 201.848,223.250 C 200.573,224.685 198.404,226.363 196.760,227.189 C 191.102,230.033 187.020,230.598 174.750,230.237 C 163.159,229.896 160.949,230.272 159.189,232.883 C 157.470,235.434 156.121,241.614 155.278,250.793 C 153.814,266.728 153.615,267.607 151.500,267.417 C 151.088,267.380 150.075,267.260 149.250,267.150 Z M 113.710,170.564 C 113.858,170.325 114.187,168.273 114.441,166.006 C 114.949,161.463 115.859,159.855 117.384,160.807 C 117.949,161.159 118.392,162.372 118.659,164.298 C 118.884,165.922 119.175,167.979 119.306,168.871 C 119.483,170.080 119.859,170.571 120.782,170.803 C 122.533,171.242 124.822,170.150 125.436,168.582 C 125.838,167.553 127.000,162.040 127.000,161.158 C 127.000,161.071 127.555,161.000 128.232,161.000 C 129.710,161.000 130.500,162.281 130.500,164.676 C 130.500,165.634 130.637,166.774 130.803,167.209 C 131.237,168.338 133.075,168.186 135.051,166.858 C 136.634,165.794 136.758,165.512 136.869,162.733 C 137.016,159.052 137.932,154.189 138.808,152.434 C 139.496,151.056 140.096,150.861 145.650,150.216 C 147.934,149.950 148.997,149.510 150.650,148.146 C 154.043,145.347 154.625,143.926 154.269,139.310 C 154.102,137.143 153.721,134.913 153.422,134.354 C 152.827,133.242 153.662,128.268 154.534,127.729 C 154.790,127.571 155.000,126.902 155.000,126.244 C 155.000,125.586 155.202,124.530 155.448,123.899 C 156.381,121.509 157.090,115.907 157.093,110.921 C 157.096,103.171 155.300,97.112 151.113,90.750 C 145.138,81.671 135.771,76.006 124.000,74.351 C 109.784,72.352 97.759,75.609 88.507,83.963 C 81.977,89.860 79.271,94.275 77.003,102.737 C 75.195,109.484 76.055,119.762 79.111,127.932 C 79.880,129.987 80.043,131.273 79.810,133.432 C 78.852,142.305 78.847,142.127 80.120,144.500 C 81.654,147.358 84.705,149.257 89.000,150.025 C 92.903,150.724 93.427,150.961 94.636,152.581 C 95.300,153.470 95.721,155.347 96.087,159.042 C 96.371,161.906 96.795,164.747 97.031,165.355 C 97.522,166.620 101.248,168.704 102.298,168.301 C 102.793,168.111 103.000,167.144 103.000,165.027 C 103.000,162.373 103.146,161.927 104.253,161.202 C 106.201,159.925 106.860,160.883 107.084,165.321 C 107.247,168.558 107.445,169.246 108.443,170.054 C 109.645,171.028 113.210,171.373 113.710,170.564 Z M 110.561,150.139 C 109.442,149.927 109.390,149.762 109.677,147.332 C 110.054,144.130 112.901,138.631 114.975,137.098 C 117.106,135.522 117.985,136.143 120.678,141.130 C 123.128,145.668 124.055,149.341 122.929,150.054 C 122.243,150.489 112.756,150.554 110.561,150.139 Z M 93.399,137.319 C 89.893,135.763 88.116,132.300 87.881,126.568 C 87.752,123.431 87.777,123.363 89.697,121.703 C 93.001,118.846 95.316,117.999 99.783,118.011 C 104.409,118.024 107.077,119.008 109.146,121.467 C 113.790,126.986 105.828,138.094 97.324,137.959 C 95.908,137.937 94.142,137.649 93.399,137.319 Z M 132.328,137.337 C 129.749,136.617 123.768,131.078 122.975,128.675 C 122.650,127.689 122.500,125.842 122.644,124.572 C 122.850,122.742 123.246,121.976 124.548,120.889 C 129.784,116.518 139.993,117.269 143.963,122.317 C 144.803,123.384 145.000,124.348 145.000,127.384 C 145.000,132.892 144.263,134.855 141.550,136.576 C 139.098,138.131 136.068,138.381 132.328,137.337 Z" fill="#000000" fill-rule="evenodd" /></svg>