<svg xmlns="http://www.w3.org/2000/svg" viewBox="0 0 126 88" width="126" height="88"><path d="M 57.750,75.996 C 44.202,74.801 29.765,67.414 20.329,56.850 C 16.373,52.421 11.500,45.215 11.500,43.794 C 11.500,40.378 23.776,26.467 31.117,21.564 C 51.332,8.061 74.928,7.840 94.457,20.971 C 102.118,26.122 109.453,33.803 113.729,41.152 L 115.127,43.555 L 114.189,45.647 C 111.671,51.260 103.142,60.730 96.477,65.313 C 84.317,73.675 71.502,77.210 57.750,75.996 Z M 72.381,65.242 C 83.571,62.907 93.396,57.284 101.692,48.465 C 103.786,46.239 105.500,44.069 105.500,43.644 C 105.500,42.344 97.033,34.132 92.469,31.006 C 85.014,25.900 77.569,22.994 68.518,21.657 C 64.089,21.003 62.573,20.977 59.000,21.494 C 49.275,22.903 41.947,25.720 33.457,31.313 C 28.759,34.408 21.000,42.151 21.000,43.744 C 21.000,45.337 28.719,53.105 33.519,56.343 C 39.494,60.375 45.607,63.221 51.051,64.507 C 52.535,64.858 54.425,65.317 55.250,65.527 C 57.943,66.214 68.569,66.037 72.381,65.242 Z M 58.720,62.063 C 53.710,60.760 48.402,56.163 46.226,51.244 C 42.881,43.681 44.974,34.024 51.093,28.787 C 53.765,26.499 55.929,25.524 59.729,24.894 C 73.241,22.655 84.814,35.173 81.320,48.250 C 79.011,56.894 72.911,61.928 64.303,62.290 C 62.074,62.384 59.562,62.282 58.720,62.063 Z M 61.682,37.682 C 63.285,36.079 63.355,34.693 61.913,33.157 C 60.622,31.783 58.242,31.626 56.914,32.827 C 55.515,34.094 55.720,36.707 57.317,37.964 C 59.063,39.337 60.093,39.271 61.682,37.682 Z" fill="#ffffff" fill-rule="evenodd" /><line x1="0" y1="0" x2="126" y2="88" stroke="#cc2222" stroke-width="10" stroke-linecap="round"/></svg>