<svg xmlns="http://www.w3.org/2000/svg" viewBox="0 0 240 271" width="240" height="271"><path d="M 16.172,258.728 C 16.010,258.304 16.966,255.322 18.297,252.103 C 20.713,246.260 32.179,222.813 34.240,219.500 C 34.839,218.537 36.121,216.287 37.090,214.500 C 38.059,212.713 40.042,209.338 41.496,207.000 C 42.950,204.662 46.012,199.690 48.299,195.951 C 57.226,181.358 76.773,153.955 87.368,141.183 C 90.074,137.920 93.383,133.816 94.721,132.064 C 109.041,113.303 139.282,82.415 165.184,60.094 C 168.948,56.850 165.984,57.963 160.250,61.946 C 153.455,66.666 146.772,71.616 142.301,75.239 C 139.579,77.445 136.019,80.299 134.391,81.582 C 125.894,88.276 102.942,110.953 91.964,123.500 C 84.954,131.513 74.747,144.171 67.573,153.750 C 65.307,156.775 62.507,160.473 61.352,161.968 C 57.143,167.411 45.000,185.358 45.000,186.135 C 45.000,186.376 44.606,186.498 44.125,186.406 C 43.189,186.228 43.130,185.922 41.980,175.250 C 41.319,169.120 41.613,155.882 42.506,151.500 C 46.016,134.293 49.256,125.391 57.115,111.375 C 58.773,108.419 60.300,106.000 60.510,106.000 C 61.022,106.000 61.275,107.192 62.265,114.250 C 63.092,120.142 65.568,129.174 66.517,129.761 C 66.815,129.945 67.000,128.167 67.000,125.123 C 67.000,118.384 68.909,104.555 70.468,100.000 C 70.704,99.312 71.395,97.062 72.005,95.000 C 73.721,89.194 75.592,86.415 82.203,79.853 C 91.575,70.552 99.716,63.748 113.500,53.695 C 121.593,47.793 129.787,43.087 130.584,43.884 C 130.791,44.091 130.642,46.084 130.253,48.313 C 128.983,55.588 128.315,63.515 128.920,64.120 C 129.316,64.516 129.554,64.403 129.782,63.709 C 129.955,63.181 131.200,60.218 132.548,57.123 C 133.897,54.028 135.000,51.380 135.000,51.239 C 135.000,51.098 135.900,49.500 137.000,47.690 C 138.100,45.879 139.000,44.318 139.000,44.221 C 139.000,43.930 141.230,40.735 142.935,38.582 C 145.158,35.775 150.634,32.940 161.000,29.228 C 163.062,28.489 165.650,27.546 166.750,27.131 C 167.850,26.717 169.425,26.200 170.250,25.984 C 171.075,25.767 173.438,25.119 175.500,24.544 C 189.855,20.537 205.642,18.011 216.375,18.004 C 219.744,18.002 222.500,18.126 222.500,18.280 C 222.500,18.435 221.003,20.853 219.172,23.655 C 214.958,30.107 213.099,33.496 210.341,39.750 C 209.129,42.500 207.572,45.987 206.882,47.500 C 205.797,49.876 203.852,54.403 202.478,57.750 C 202.252,58.300 201.292,60.438 200.345,62.500 C 199.397,64.562 198.119,67.375 197.505,68.750 C 192.804,79.270 191.477,81.011 186.299,83.457 C 179.125,86.846 164.779,91.187 158.695,91.811 C 156.951,91.989 155.624,92.296 155.746,92.493 C 155.867,92.689 158.008,93.143 160.502,93.500 C 164.943,94.137 174.887,93.997 182.375,93.193 C 184.761,92.937 185.500,93.009 185.500,93.500 C 185.500,95.093 174.876,113.384 169.237,121.500 C 168.377,122.737 166.582,125.325 165.249,127.250 C 163.915,129.175 161.818,132.100 160.589,133.750 C 158.169,136.996 148.541,147.000 147.836,147.000 C 147.599,147.000 146.807,147.417 146.077,147.927 C 140.733,151.660 120.311,157.075 104.875,158.854 C 103.569,159.004 102.500,159.292 102.500,159.493 C 102.500,160.512 117.891,162.000 128.424,162.000 L 136.174,162.000 L 134.962,163.301 C 132.418,166.031 119.881,175.523 113.739,179.370 C 104.693,185.035 96.222,189.364 90.000,191.500 C 89.037,191.831 87.800,192.280 87.250,192.499 C 83.551,193.971 77.365,195.718 74.250,196.170 C 73.425,196.290 71.400,196.767 69.750,197.230 C 68.100,197.694 65.545,198.274 64.073,198.519 C 62.600,198.764 61.085,199.222 60.706,199.537 C 60.091,200.047 54.208,208.229 52.636,210.761 C 48.944,216.705 48.231,218.390 47.667,222.500 C 46.384,231.851 45.000,234.045 33.454,245.034 C 17.426,260.289 16.924,260.687 16.172,258.728 Z" fill="#000000" fill-rule="evenodd" /></svg>