<svg xmlns="http://www.w3.org/2000/svg" viewBox="0 0 301 396" width="301" height="396"><path d="M 125.693,380.812 C 124.562,380.165 122.200,378.632 120.443,377.405 C 118.687,376.178 115.338,373.855 113.000,372.242 C 108.947,369.446 105.092,366.754 103.798,365.815 C 103.131,365.332 97.736,368.582 92.750,372.471 C 88.494,375.790 82.217,379.960 80.226,380.792 C 77.880,381.772 76.177,381.677 75.000,380.500 C 74.048,379.548 74.000,378.833 74.000,365.750 L 74.000,352.000 L 65.125,351.950 C 60.244,351.922 55.125,351.820 53.750,351.723 C 46.109,351.183 44.032,350.867 40.663,349.737 C 32.933,347.142 27.760,343.636 22.918,337.710 C 17.545,331.134 14.881,325.753 13.532,318.750 C 13.101,316.513 12.993,281.466 13.108,181.000 L 13.263,46.250 L 14.387,43.062 C 16.601,36.784 18.977,33.057 23.988,28.000 C 29.198,22.741 34.433,19.263 40.000,17.361 L 43.250,16.250 L 159.131,16.120 L 275.013,15.990 L 277.450,17.225 C 278.791,17.904 280.693,19.401 281.677,20.550 C 285.298,24.781 285.024,13.443 284.880,153.041 C 284.753,275.907 284.728,278.828 283.794,280.253 C 283.268,281.056 281.424,283.218 279.696,285.058 C 276.173,288.809 275.537,290.081 273.609,297.232 C 271.772,304.046 271.693,313.539 273.421,320.000 C 275.188,326.608 276.631,329.295 280.413,333.017 C 284.160,336.705 285.000,338.560 285.000,343.144 C 285.000,345.515 284.759,346.239 283.352,348.086 C 282.446,349.276 281.051,350.565 280.252,350.950 C 279.031,351.539 267.367,351.673 207.275,351.790 C 167.936,351.866 134.841,351.945 133.730,351.964 L 131.710,352.000 L 131.582,365.868 C 131.458,379.233 131.414,379.777 130.389,380.868 C 129.052,382.291 128.264,382.282 125.693,380.812 Z M 74.012,324.500 C 74.156,320.238 74.156,316.601 74.012,316.419 C 73.868,316.237 71.725,315.848 69.250,315.555 C 65.197,315.076 64.613,314.872 63.375,313.504 C 62.301,312.316 62.000,311.489 62.000,309.717 C 62.000,307.165 63.021,304.801 64.357,304.259 C 65.411,303.831 237.698,303.928 238.918,304.357 C 242.022,305.447 243.382,309.705 241.566,312.643 C 240.993,313.570 239.942,314.594 239.229,314.919 C 238.260,315.360 224.677,315.509 185.272,315.512 C 141.577,315.514 132.515,315.630 132.048,316.192 C 131.415,316.955 131.528,330.832 132.177,331.881 C 132.477,332.368 146.199,332.500 196.280,332.500 L 260.000,332.500 L 260.000,331.230 C 260.000,330.532 259.573,329.124 259.052,328.102 C 257.346,324.759 256.070,320.105 255.446,314.954 C 254.461,306.829 255.918,297.236 259.298,289.593 C 259.955,288.108 260.367,286.689 260.213,286.440 C 259.807,285.783 57.658,285.883 52.395,286.543 C 47.501,287.156 43.677,288.998 39.646,292.682 C 34.641,297.256 32.816,301.740 32.798,309.500 C 32.787,314.166 32.937,315.076 34.138,317.677 C 36.161,322.053 38.739,325.263 42.238,327.760 C 48.169,331.993 50.188,332.410 64.250,332.315 L 73.750,332.250 L 74.012,324.500 Z M 269.604,270.517 L 270.750,269.589 L 270.893,251.295 C 270.989,238.984 270.861,232.674 270.500,232.000 C 270.061,231.179 269.454,231.000 267.107,231.000 C 263.405,231.001 259.120,233.002 255.849,236.259 C 252.650,239.444 252.047,240.760 251.676,245.360 C 251.504,247.500 251.177,249.612 250.951,250.055 C 250.667,250.611 249.568,250.949 247.395,251.148 C 245.665,251.306 243.417,251.683 242.398,251.985 C 240.071,252.675 235.924,255.923 234.028,258.540 C 232.349,260.858 230.780,265.453 230.776,268.062 C 230.770,271.571 230.032,271.443 250.266,271.444 C 267.240,271.444 268.534,271.382 269.604,270.517 Z M 65.854,256.045 C 66.461,255.608 67.088,254.930 67.246,254.538 C 67.405,254.146 67.536,207.742 67.537,151.417 C 67.539,74.904 67.393,48.722 66.961,47.879 C 65.998,45.998 64.383,45.023 62.212,45.011 C 59.967,44.999 58.481,46.157 57.533,48.658 C 57.162,49.638 57.000,80.810 57.000,151.307 C 57.000,259.501 56.876,253.901 59.324,256.075 C 61.055,257.611 63.697,257.600 65.854,256.045 Z M 175.802,246.050 C 177.790,244.838 178.000,243.731 178.000,234.465 C 178.000,227.501 177.932,226.977 176.875,225.752 C 174.714,223.247 170.029,223.285 168.031,225.824 C 167.091,227.020 167.000,227.814 167.000,234.850 C 167.000,242.737 167.193,243.727 169.150,245.875 C 170.450,247.303 173.611,247.386 175.802,246.050 Z M 120.798,213.804 C 122.476,212.661 126.776,207.833 129.375,204.175 C 131.502,201.180 131.552,198.975 129.538,196.962 C 127.547,194.970 124.748,194.936 122.441,196.875 C 119.997,198.930 113.338,205.923 112.643,207.165 C 111.545,209.126 111.858,211.678 113.375,213.128 C 116.026,215.663 117.828,215.827 120.798,213.804 Z M 231.773,213.773 C 233.491,212.054 233.462,208.834 231.705,206.195 C 229.984,203.611 223.599,197.111 221.900,196.213 C 220.115,195.270 216.501,195.305 215.111,196.278 C 214.195,196.920 214.000,197.533 214.000,199.766 C 214.000,202.353 214.132,202.626 216.941,205.862 C 218.559,207.725 221.099,210.544 222.585,212.125 C 225.211,214.918 225.364,215.000 227.917,215.000 C 230.041,215.000 230.781,214.764 231.773,213.773 Z M 176.513,207.493 C 177.592,206.916 183.104,199.124 185.351,195.000 C 186.175,193.488 188.051,190.225 189.519,187.750 C 190.987,185.275 193.459,181.000 195.012,178.250 C 196.565,175.500 198.742,171.675 199.850,169.750 C 204.009,162.525 209.000,152.801 209.000,151.925 C 209.000,151.149 205.163,143.678 203.517,141.250 C 202.771,140.150 201.602,138.350 200.918,137.250 C 200.234,136.150 198.848,133.960 197.837,132.383 C 196.827,130.806 196.000,129.387 196.000,129.230 C 196.000,129.073 195.100,127.620 194.000,126.000 C 192.900,124.380 192.000,122.953 192.000,122.829 C 192.000,122.704 191.100,121.121 190.000,119.310 C 188.900,117.500 188.000,115.899 188.000,115.753 C 188.000,115.250 180.346,102.742 178.931,100.934 C 176.120,97.342 172.079,96.540 168.591,98.883 C 166.611,100.213 165.831,101.347 158.440,113.647 C 157.648,114.965 157.000,116.140 157.000,116.257 C 157.000,116.620 151.946,125.106 150.005,128.000 C 147.219,132.157 138.808,145.442 137.316,148.044 C 135.362,151.450 135.552,152.758 138.831,158.500 C 139.380,159.463 140.805,162.050 141.997,164.250 C 143.189,166.450 144.656,169.037 145.257,170.000 C 145.858,170.963 147.204,173.325 148.249,175.250 C 149.294,177.175 151.327,180.775 152.768,183.250 C 167.117,207.905 167.193,208.000 172.397,208.000 C 174.140,208.000 175.992,207.772 176.513,207.493 Z M 110.601,157.411 C 114.260,156.315 115.446,153.308 113.487,150.095 C 111.915,147.517 110.019,147.000 102.127,147.000 C 94.829,147.000 94.026,147.215 91.889,149.735 C 89.869,152.117 90.448,154.749 93.440,156.782 C 95.119,157.923 95.657,158.000 101.933,158.000 C 105.632,158.000 109.515,157.736 110.601,157.411 Z M 253.214,156.316 C 255.341,154.311 255.573,152.210 253.926,149.896 C 252.196,147.467 250.363,147.000 242.554,147.000 C 235.756,147.000 235.537,147.034 234.020,148.310 C 230.684,151.117 230.382,153.805 233.098,156.521 L 234.577,158.000 L 243.003,158.000 L 251.429,158.000 L 253.214,156.316 Z M 127.658,109.438 C 130.855,107.791 131.901,104.936 130.338,102.121 C 129.210,100.090 121.283,91.416 119.900,90.700 C 117.570,89.492 115.588,89.812 113.700,91.700 C 110.822,94.578 111.181,95.897 116.464,101.850 C 120.916,106.867 122.843,108.572 125.073,109.465 C 126.606,110.079 126.408,110.081 127.658,109.438 Z M 221.148,109.075 C 221.642,108.880 224.179,106.592 226.786,103.990 C 231.866,98.921 232.841,97.077 232.213,93.730 C 231.783,91.437 230.356,90.500 227.293,90.500 L 224.808,90.500 L 219.872,95.625 C 213.962,101.760 212.778,103.713 213.577,106.005 C 214.516,108.701 218.256,110.217 221.148,109.075 Z M 175.225,81.420 C 176.887,80.663 177.539,78.408 177.730,72.750 C 178.095,61.957 176.958,59.000 172.441,59.000 C 170.651,59.000 169.711,59.296 168.676,60.187 C 167.327,61.347 167.292,61.518 167.115,67.644 C 166.888,75.470 167.519,79.337 169.273,80.875 C 170.698,82.124 173.181,82.352 175.225,81.420 Z M 269.779,69.791 C 270.703,69.116 270.758,68.227 270.910,51.465 C 270.998,41.776 270.934,33.305 270.767,32.641 C 270.153,30.194 268.578,30.000 249.366,30.000 C 236.292,30.000 231.544,30.156 231.100,30.600 C 230.086,31.614 230.427,34.366 232.089,38.570 C 234.806,45.448 239.110,48.757 246.219,49.436 C 248.277,49.633 250.107,49.940 250.286,50.119 C 250.465,50.299 250.684,52.125 250.773,54.178 C 250.964,58.593 252.028,61.004 255.359,64.565 C 257.994,67.381 261.611,69.296 265.500,69.933 C 267.012,70.180 268.376,70.409 268.529,70.442 C 268.683,70.474 269.246,70.181 269.779,69.791 Z" fill="#000000" fill-rule="evenodd" /></svg>