<svg xmlns="http://www.w3.org/2000/svg" viewBox="0 0 551 566" width="551" height="566"><path d="M 488.082,548.431 C 478.423,547.569 470.252,543.291 462.278,534.920 C 456.289,528.633 415.260,486.949 392.165,463.688 C 380.937,452.378 367.205,438.541 361.649,432.938 C 356.094,427.334 347.467,418.700 342.477,413.750 C 337.488,408.800 330.913,401.994 327.865,398.625 C 324.817,395.256 322.075,392.500 321.773,392.500 C 321.470,392.500 320.779,392.806 320.236,393.181 C 319.694,393.555 317.017,395.044 314.288,396.488 C 311.559,397.933 308.521,399.573 307.538,400.132 C 305.189,401.469 301.058,403.529 296.875,405.450 C 286.370,410.274 285.754,410.511 274.750,413.936 C 260.165,418.476 253.428,420.036 242.250,421.462 C 240.050,421.743 236.225,422.247 233.750,422.584 C 230.964,422.962 223.443,423.181 214.000,423.159 C 198.789,423.123 191.386,422.498 177.000,420.038 C 165.760,418.116 148.763,413.226 140.210,409.452 C 139.088,408.957 137.025,408.101 135.626,407.549 C 132.831,406.448 118.861,399.432 114.500,396.940 C 99.076,388.126 85.741,378.173 74.060,366.755 C 69.555,362.352 64.100,356.613 61.938,354.000 C 59.775,351.387 56.770,347.788 55.260,346.000 C 53.750,344.212 51.649,341.512 50.593,340.000 C 43.072,329.236 41.585,326.960 37.848,320.500 C 33.634,313.215 24.488,292.190 21.426,282.750 C 20.273,279.192 18.381,271.949 17.508,267.750 C 17.166,266.100 16.698,264.075 16.469,263.250 C 15.690,260.444 13.561,245.274 13.014,238.638 C 12.299,229.965 12.451,210.506 13.300,202.000 C 14.305,191.940 16.509,179.208 18.494,172.000 C 25.168,147.768 36.020,123.840 48.424,106.008 C 56.177,94.862 72.242,77.252 82.500,68.656 C 90.000,62.371 96.154,57.989 110.250,48.894 C 121.481,41.648 149.359,30.066 164.000,26.563 C 172.088,24.628 172.618,24.520 181.375,23.001 C 193.938,20.823 220.220,20.003 232.250,21.415 C 248.430,23.313 262.071,25.939 271.250,28.921 C 284.504,33.228 298.515,39.055 308.015,44.211 C 315.399,48.219 330.216,57.578 335.146,61.348 C 344.406,68.429 358.386,81.554 365.661,89.995 C 377.317,103.521 389.717,123.418 397.449,141.000 C 404.494,157.020 410.194,177.088 413.001,195.750 C 415.158,210.093 415.243,232.505 413.196,247.250 C 412.148,254.805 410.113,265.500 409.024,269.188 C 408.526,270.872 407.847,273.375 407.515,274.750 C 406.882,277.369 405.218,282.541 404.457,284.250 C 404.213,284.800 403.697,286.488 403.310,288.000 C 400.964,297.182 391.136,317.688 382.471,331.478 C 380.837,334.078 379.500,336.456 379.500,336.762 C 379.500,337.068 381.581,339.311 384.125,341.745 C 390.643,347.983 482.715,439.227 506.528,463.048 C 525.785,482.311 526.381,482.966 528.636,487.332 C 533.606,496.954 535.046,507.990 532.638,517.994 C 531.628,522.188 528.180,529.550 525.699,532.810 C 519.752,540.622 508.175,547.322 498.750,548.407 C 494.169,548.934 493.732,548.935 488.082,548.431 Z M 233.000,380.227 C 244.824,378.693 257.028,376.208 261.250,374.476 C 261.800,374.250 264.050,373.454 266.250,372.707 C 271.267,371.003 280.746,366.626 287.750,362.780 C 291.776,360.569 299.695,355.903 301.223,354.841 C 305.109,352.142 316.997,342.838 319.345,340.659 C 323.503,336.799 334.933,324.523 337.445,321.217 C 347.788,307.605 349.704,304.549 356.224,291.250 C 360.758,282.003 363.137,276.300 365.063,270.057 C 370.386,252.799 372.212,240.498 372.195,222.000 C 372.185,210.361 371.778,205.734 369.730,194.000 C 368.168,185.044 364.622,172.761 360.997,163.750 C 357.853,155.934 349.924,140.469 346.069,134.636 C 332.077,113.458 315.418,97.203 295.750,85.537 C 292.450,83.580 289.188,81.632 288.500,81.209 C 285.917,79.620 276.553,75.312 271.250,73.274 C 248.965,64.709 227.286,61.104 205.982,62.419 C 194.941,63.101 186.694,64.126 180.500,65.585 C 175.646,66.729 164.345,69.999 161.000,71.227 C 159.762,71.681 157.401,72.515 155.752,73.079 C 154.103,73.643 150.874,74.981 148.577,76.052 C 146.280,77.124 144.291,78.000 144.156,78.000 C 144.021,78.000 141.062,79.621 137.580,81.601 C 125.719,88.349 118.336,93.697 104.582,105.500 C 100.271,109.200 83.164,129.451 81.939,132.304 C 81.834,132.549 80.494,134.662 78.961,137.000 C 74.904,143.188 68.712,154.848 66.482,160.500 C 64.130,166.464 59.556,181.567 58.004,188.500 C 57.419,191.113 56.736,194.150 56.486,195.250 C 55.509,199.547 54.493,212.000 54.282,222.250 C 54.044,233.806 56.706,252.336 60.423,265.000 C 63.582,275.764 68.498,288.350 72.140,295.000 C 77.842,305.412 81.357,310.953 86.890,318.250 C 90.980,323.644 99.598,333.306 104.202,337.660 C 107.143,340.440 120.273,350.965 123.837,353.397 C 129.110,356.997 134.011,359.981 137.787,361.889 C 155.998,371.095 160.742,373.073 170.403,375.491 C 172.519,376.021 175.150,376.680 176.250,376.956 C 181.956,378.387 194.243,380.263 202.250,380.926 C 209.221,381.504 226.121,381.119 233.000,380.227 Z M 43.336,473.926 C 42.009,473.672 40.056,472.917 38.996,472.248 C 36.545,470.700 33.672,466.952 32.907,464.303 C 32.087,461.462 31.984,341.500 32.802,341.500 C 33.105,341.500 34.364,343.019 35.599,344.875 C 40.555,352.326 50.741,364.806 57.792,372.068 C 66.616,381.156 73.765,387.321 86.750,397.041 C 96.199,404.114 99.576,406.328 107.500,410.646 C 109.013,411.470 110.475,412.309 110.750,412.510 C 112.787,414.002 127.231,420.791 133.750,423.319 C 136.225,424.280 138.700,425.260 139.250,425.498 C 142.962,427.106 150.865,429.704 155.936,430.984 C 159.228,431.815 162.526,432.725 163.264,433.005 C 165.545,433.873 177.209,436.073 185.750,437.248 C 186.850,437.400 188.088,437.614 188.500,437.725 C 193.348,439.027 227.495,439.101 238.000,437.832 C 249.307,436.467 257.280,435.010 264.750,432.946 C 266.675,432.415 269.038,431.763 270.000,431.499 C 283.634,427.753 298.054,422.239 309.500,416.394 C 317.429,412.346 318.352,411.989 319.337,412.588 C 320.554,413.330 335.420,428.005 362.235,454.937 C 372.126,464.872 380.395,473.000 380.610,473.000 C 380.824,473.000 381.000,473.337 381.000,473.750 C 381.000,474.415 362.067,474.494 213.375,474.444 C 113.114,474.411 44.780,474.202 43.336,473.926 Z M 201.750,365.188 C 197.155,364.698 185.067,362.959 182.750,362.454 C 167.403,359.109 155.661,354.448 139.245,345.185 C 125.709,337.548 104.326,317.728 96.430,305.500 C 93.353,300.734 89.707,294.842 88.249,292.277 L 86.843,289.804 L 112.796,264.150 C 127.071,250.041 139.604,237.897 140.647,237.165 C 143.338,235.276 146.133,235.348 149.039,237.380 C 150.255,238.231 155.188,242.944 160.000,247.854 C 164.812,252.765 172.552,260.664 177.199,265.408 C 181.847,270.152 185.811,273.970 186.010,273.892 C 186.208,273.814 188.931,270.949 192.060,267.525 C 195.190,264.102 201.807,256.902 206.766,251.525 C 211.724,246.149 221.283,235.675 228.007,228.250 C 234.732,220.825 241.271,213.625 242.538,212.250 C 243.806,210.875 246.378,208.062 248.255,206.000 C 254.784,198.823 261.480,192.169 262.760,191.587 C 264.404,190.837 266.953,190.863 268.297,191.643 C 268.872,191.977 273.260,196.284 278.047,201.214 C 282.833,206.144 289.562,213.026 293.000,216.507 C 296.438,219.988 302.512,226.410 306.500,230.779 C 310.488,235.148 317.800,242.895 322.750,247.996 C 327.700,253.096 334.562,260.295 338.000,263.995 C 341.438,267.694 344.800,271.244 345.473,271.883 C 346.626,272.980 346.661,273.173 346.094,275.293 C 345.552,277.320 344.017,280.777 339.359,290.457 C 337.441,294.445 329.154,306.992 324.941,312.288 C 318.545,320.328 307.132,331.076 296.500,339.073 C 292.857,341.813 283.321,348.000 282.740,348.000 C 282.582,348.000 279.482,349.490 275.851,351.312 C 265.393,356.559 258.401,359.083 248.111,361.326 C 239.024,363.307 238.147,363.466 231.750,364.293 C 226.009,365.036 205.937,365.634 201.750,365.188 Z M 153.250,193.211 C 148.844,192.139 147.408,191.641 145.000,190.351 C 141.657,188.560 136.758,184.576 134.833,182.085 C 133.043,179.768 131.458,176.651 129.960,172.500 C 128.277,167.839 128.248,159.247 129.898,154.324 C 132.324,147.085 138.102,140.382 144.764,137.076 C 150.671,134.146 154.298,133.326 159.804,133.675 C 169.743,134.306 177.210,138.234 183.227,146.000 C 187.660,151.721 189.173,156.377 189.157,164.250 C 189.140,173.113 186.687,178.770 180.126,185.081 C 176.551,188.521 172.186,191.002 167.477,192.272 C 164.706,193.019 155.075,193.655 153.250,193.211 Z" fill="#000000" fill-rule="evenodd" /></svg>