<svg xmlns="http://www.w3.org/2000/svg" viewBox="0 0 444 423" width="444" height="423"><path d="M 15.663,401.203 C 15.494,400.764 15.604,398.908 15.907,397.078 C 16.210,395.247 16.574,392.850 16.716,391.750 C 17.203,387.986 20.593,366.331 22.705,353.500 C 23.949,345.944 24.438,342.808 25.535,335.375 C 26.273,330.374 26.914,326.066 27.472,322.375 C 27.731,320.656 28.187,317.450 28.485,315.250 C 28.782,313.050 29.469,308.438 30.010,305.000 C 30.551,301.562 31.325,296.529 31.729,293.815 C 32.600,287.968 33.689,285.599 36.119,284.270 C 37.801,283.350 38.224,283.328 43.080,283.917 C 45.924,284.261 51.175,284.862 54.750,285.251 C 58.325,285.640 65.188,286.427 70.000,286.999 C 88.692,289.221 99.684,290.283 119.250,291.755 C 129.355,292.515 131.284,292.948 133.129,294.874 C 135.349,297.191 135.661,298.431 138.504,316.250 C 139.074,319.825 139.978,325.450 140.513,328.750 C 141.047,332.050 141.933,338.012 142.482,342.000 C 143.031,345.988 143.694,350.600 143.956,352.250 C 144.944,358.471 146.544,368.987 147.494,375.500 C 148.035,379.212 148.931,384.725 149.485,387.750 C 151.270,397.495 151.665,400.349 151.345,401.183 C 151.057,401.933 145.529,402.000 83.500,402.000 C 22.154,402.000 15.941,401.927 15.663,401.203 Z M 182.711,401.052 C 178.514,399.146 178.442,398.893 177.496,382.750 C 176.505,365.826 175.309,355.261 174.312,354.620 C 174.003,354.421 169.730,354.248 164.816,354.236 C 156.174,354.215 155.853,354.178 154.974,353.092 C 153.936,351.810 153.494,349.747 152.007,339.250 C 150.966,331.906 149.651,323.333 146.482,303.250 C 144.474,290.524 143.833,288.920 140.000,287.031 C 136.322,285.218 130.292,284.346 93.250,280.268 C 81.452,278.969 70.294,277.002 66.750,275.597 C 63.915,274.473 60.111,272.116 56.937,269.519 C 47.752,262.000 43.000,249.698 43.000,233.437 C 43.000,226.334 45.252,211.948 47.843,202.500 C 48.257,200.988 48.778,198.963 49.000,198.000 C 49.587,195.454 50.951,190.447 51.451,189.000 C 51.689,188.312 52.171,186.738 52.522,185.500 C 53.511,182.011 60.255,161.732 62.003,156.992 C 70.225,134.684 80.116,118.102 91.821,107.000 C 96.927,102.157 99.908,99.800 107.229,94.819 L 113.207,90.750 L 116.479,84.224 C 118.278,80.635 120.733,74.897 121.934,71.474 C 127.756,54.885 136.209,35.864 141.266,27.976 C 146.767,19.393 149.891,17.776 156.750,19.965 C 166.103,22.949 173.055,25.959 182.000,30.898 C 192.918,36.927 205.981,49.576 218.641,66.381 C 221.070,69.604 221.340,70.390 220.527,71.882 C 219.448,73.861 217.243,78.550 215.233,83.139 C 212.663,89.006 205.475,102.109 201.595,108.000 C 199.846,110.654 196.347,114.700 192.273,118.776 L 185.750,125.303 L 177.000,129.624 C 172.188,132.000 167.069,134.320 165.625,134.780 C 163.333,135.509 163.000,135.782 163.001,136.933 C 163.003,140.938 172.034,182.232 173.622,185.500 C 174.828,187.981 176.585,189.926 178.400,190.790 C 181.354,192.195 204.036,199.948 218.376,204.455 C 223.924,206.198 226.348,207.789 226.594,209.847 C 226.739,211.067 227.251,211.319 233.904,213.454 C 240.014,215.415 241.524,216.115 244.257,218.250 C 246.188,219.759 247.962,221.671 248.731,223.071 C 250.302,225.935 250.852,230.467 250.034,233.813 C 248.308,240.876 242.060,242.488 230.702,238.801 C 227.651,237.810 224.895,237.000 224.577,237.000 C 224.212,237.000 224.000,237.995 224.000,239.712 C 224.000,241.922 223.753,242.717 222.662,244.013 C 221.026,245.958 219.470,245.860 215.738,243.578 C 211.382,240.913 207.501,241.036 210.494,243.745 C 212.265,245.348 214.458,249.231 215.994,253.484 C 217.526,257.725 220.429,269.446 221.510,275.750 C 221.840,277.675 222.653,281.797 223.317,284.911 C 223.981,288.024 225.194,293.945 226.014,298.069 C 227.771,306.915 228.691,311.226 230.052,317.000 C 231.463,322.984 231.766,324.332 233.526,332.500 C 234.385,336.488 235.643,341.975 236.320,344.694 C 236.998,347.413 237.484,350.450 237.401,351.444 L 237.250,353.250 L 230.500,353.566 C 226.787,353.740 220.327,353.908 216.143,353.941 C 209.445,353.993 208.479,354.105 208.069,354.875 C 207.558,355.833 208.175,366.961 208.982,371.363 C 209.631,374.899 210.541,376.121 214.432,378.686 C 217.632,380.795 222.394,382.760 229.750,385.009 C 236.245,386.994 238.431,388.052 240.290,390.110 C 243.654,393.834 245.547,399.753 243.900,401.400 C 243.447,401.853 236.140,401.997 214.025,401.989 C 186.608,401.979 184.621,401.919 182.711,401.052 Z M 176.000,229.773 C 176.000,229.243 171.253,227.475 157.010,222.703 C 150.906,220.658 146.314,218.445 144.378,216.616 C 143.624,215.903 141.442,212.149 139.529,208.274 C 136.119,201.366 134.746,198.282 131.510,190.250 C 130.624,188.050 129.700,185.800 129.458,185.250 C 129.216,184.700 127.887,181.447 126.505,178.022 C 123.112,169.608 122.293,168.891 123.910,175.750 C 124.386,177.770 126.133,186.358 128.029,196.000 C 128.596,198.887 129.255,201.925 129.491,202.750 C 129.728,203.575 130.310,205.938 130.785,208.000 C 134.099,222.384 136.829,225.158 149.702,227.230 C 152.335,227.653 155.898,228.004 157.620,228.010 C 161.044,228.021 173.001,229.334 173.411,229.744 C 173.727,230.060 176.000,230.086 176.000,229.773 Z M 168.314,121.202 C 172.502,119.477 173.844,118.771 176.250,117.030 C 177.625,116.035 179.360,114.834 180.105,114.362 C 183.130,112.445 188.197,107.103 190.833,103.052 C 192.373,100.686 194.044,98.152 194.547,97.421 C 195.050,96.690 196.624,93.878 198.045,91.171 C 199.465,88.465 201.411,84.943 202.368,83.346 C 203.325,81.748 203.982,80.315 203.828,80.161 C 203.537,79.870 199.662,82.515 194.337,86.642 C 188.268,91.344 178.947,100.224 175.903,104.202 C 174.200,106.429 171.833,109.529 170.642,111.092 C 168.580,113.801 165.000,120.396 165.000,121.486 C 165.000,122.216 166.078,122.124 168.314,121.202 Z M 274.690,400.782 C 271.884,399.561 269.417,395.352 267.795,389.024 C 266.471,383.856 266.675,382.410 269.026,380.286 C 271.394,378.147 272.102,377.833 278.750,375.976 C 283.926,374.530 299.232,370.109 300.431,369.713 C 301.740,369.281 300.086,368.179 297.131,367.515 C 289.664,365.836 271.949,360.359 270.317,359.224 C 268.867,358.215 267.500,355.636 267.500,353.907 C 267.500,352.359 270.485,342.967 271.774,340.461 C 272.138,339.753 273.452,338.634 274.694,337.975 L 276.951,336.778 L 280.350,337.655 C 284.150,338.635 289.345,340.129 298.250,342.801 C 301.550,343.792 309.425,346.043 315.750,347.804 C 322.075,349.565 330.062,351.790 333.500,352.749 C 347.791,356.732 346.926,356.683 356.306,354.054 C 360.125,352.984 365.950,351.384 369.250,350.500 C 380.130,347.584 385.594,346.058 392.500,344.005 C 394.562,343.392 400.909,341.527 406.603,339.860 L 416.957,336.829 L 419.055,337.775 C 420.241,338.310 421.780,339.585 422.592,340.707 C 424.161,342.872 427.072,351.546 427.150,354.286 C 427.245,357.638 423.508,360.581 417.051,362.240 C 415.235,362.706 412.288,363.520 410.500,364.048 C 406.936,365.101 405.894,365.400 399.257,367.270 C 395.111,368.438 393.488,369.187 394.033,369.679 C 394.153,369.787 399.988,371.606 407.000,373.721 C 414.012,375.837 420.425,377.812 421.250,378.112 C 425.529,379.662 427.500,381.898 427.500,385.200 C 427.500,387.516 423.728,396.996 421.946,399.158 C 420.150,401.336 417.440,401.873 413.789,400.776 C 412.393,400.356 407.538,398.981 403.000,397.721 C 398.462,396.461 393.288,395.006 391.500,394.488 C 389.712,393.970 385.550,392.773 382.250,391.827 C 378.950,390.882 370.400,388.363 363.250,386.229 C 356.100,384.096 349.682,382.253 348.987,382.135 C 347.531,381.886 342.402,383.194 328.000,387.484 C 322.363,389.164 314.375,391.450 310.250,392.564 C 306.125,393.678 302.075,394.776 301.250,395.003 C 300.425,395.230 297.163,396.101 294.000,396.938 C 290.837,397.776 286.029,399.145 283.314,399.980 C 277.807,401.676 276.930,401.757 274.690,400.782 Z M 368.000,336.486 C 368.000,336.195 368.895,334.745 369.990,333.264 C 372.651,329.661 374.685,325.473 375.761,321.377 C 376.803,317.412 376.592,310.441 375.296,305.982 C 374.269,302.450 370.474,295.750 369.500,295.750 C 369.030,295.750 368.371,296.869 367.733,298.750 C 366.410,302.653 365.411,304.452 363.670,306.064 C 360.294,309.188 358.830,308.985 355.400,304.915 C 350.261,298.816 347.520,293.725 345.922,287.309 C 345.070,283.886 344.951,282.192 345.167,276.500 C 345.308,272.788 345.579,269.019 345.769,268.125 C 345.991,267.076 345.921,266.500 345.570,266.500 C 345.270,266.500 343.501,267.814 341.638,269.419 C 329.904,279.530 321.740,291.523 319.458,302.000 C 317.303,311.892 319.941,325.225 325.557,332.827 C 327.020,334.807 327.361,335.585 326.854,335.779 C 325.677,336.231 314.011,330.963 309.488,327.938 C 305.041,324.964 299.388,319.448 296.533,315.298 C 294.773,312.739 291.298,305.539 290.840,303.500 C 290.685,302.812 290.203,300.688 289.767,298.779 C 289.270,296.602 288.968,292.876 288.957,288.779 C 288.924,277.397 291.491,269.486 299.738,255.556 C 302.388,251.080 304.650,245.921 305.975,241.334 C 306.926,238.039 307.077,236.512 306.924,231.709 C 306.705,224.798 306.964,224.630 311.452,228.786 C 315.790,232.802 317.733,237.560 319.194,247.750 C 319.610,250.647 319.968,251.750 320.494,251.750 C 321.105,251.750 324.711,246.504 327.195,242.000 C 331.328,234.506 333.757,229.232 335.487,224.000 C 339.460,211.980 339.958,200.733 336.978,190.328 C 336.675,189.271 336.515,188.318 336.623,188.210 C 336.731,188.103 339.053,189.667 341.784,191.687 C 347.469,195.891 358.811,207.256 361.922,211.866 C 366.571,218.754 370.504,228.209 372.274,236.750 C 373.186,241.156 373.379,246.347 373.000,256.357 C 372.792,261.852 372.879,263.093 373.514,263.728 C 374.200,264.414 374.483,264.385 376.264,263.446 C 382.418,260.204 386.085,253.341 386.054,245.125 C 386.046,242.856 386.210,241.000 386.418,241.000 C 386.627,241.000 387.603,241.844 388.589,242.875 C 396.471,251.125 403.457,267.398 405.016,281.144 C 406.475,294.008 402.748,308.774 395.777,317.750 C 391.812,322.856 384.510,328.692 377.750,332.158 C 370.345,335.955 368.000,336.996 368.000,336.486 Z" fill="#000000" fill-rule="evenodd" /></svg>