<svg xmlns="http://www.w3.org/2000/svg" viewBox="0 0 360 443" width="360" height="443"><path d="M 220.833,426.667 C 220.426,426.259 220.383,369.284 220.790,368.877 C 220.950,368.717 222.468,369.316 224.165,370.207 C 232.660,374.669 245.948,374.979 256.278,370.958 C 259.043,369.881 261.585,369.000 261.925,369.000 C 262.412,369.000 262.513,375.199 262.397,398.000 C 262.301,416.913 262.076,426.995 261.750,426.987 C 261.475,426.979 259.954,426.023 258.369,424.862 C 256.784,423.700 253.676,421.512 251.462,420.000 C 249.248,418.488 246.081,416.277 244.425,415.088 C 242.769,413.899 241.145,413.029 240.816,413.156 C 240.486,413.282 237.074,415.728 233.233,418.591 C 226.879,423.327 221.671,427.000 221.308,427.000 C 221.230,427.000 221.017,426.850 220.833,426.667 Z M 306.500,407.201 C 304.121,406.606 298.963,405.761 283.904,403.502 C 282.063,403.226 279.315,403.000 277.796,403.000 C 275.661,403.000 274.927,402.798 274.559,402.111 C 274.270,401.570 274.164,393.079 274.288,380.486 L 274.493,359.751 L 276.935,356.501 C 281.884,349.913 283.981,344.784 285.508,335.533 C 286.448,329.839 285.235,319.810 282.904,314.000 C 280.866,308.923 276.450,302.029 272.637,297.976 C 270.579,295.789 268.617,294.000 268.276,294.000 C 267.934,294.000 267.295,293.603 266.856,293.117 C 266.416,292.631 264.525,291.481 262.653,290.562 C 260.781,289.642 258.462,288.497 257.500,288.017 C 255.844,287.191 254.411,286.777 248.904,285.531 C 242.905,284.174 230.546,285.659 225.250,288.374 C 222.610,289.727 221.772,290.165 220.750,290.726 C 215.165,293.793 206.247,302.440 203.086,307.853 C 201.939,309.817 201.001,311.610 201.001,311.837 C 201.002,312.064 200.570,313.150 200.042,314.250 C 197.769,318.982 196.637,332.218 197.989,338.250 C 198.297,339.625 198.726,341.538 198.942,342.500 C 199.670,345.735 202.584,351.714 205.821,356.609 L 209.033,361.468 L 208.981,378.735 C 208.930,395.560 208.902,396.017 207.912,396.547 C 207.344,396.851 206.126,396.947 205.154,396.765 C 200.245,395.844 145.827,396.661 136.162,397.801 L 133.574,398.106 L 132.531,396.061 C 131.957,394.936 130.701,391.819 129.740,389.133 C 128.778,386.447 127.795,383.800 127.554,383.250 C 126.177,380.100 124.407,375.410 123.734,373.125 C 123.309,371.681 122.765,370.500 122.526,370.500 C 122.286,370.500 121.518,372.131 120.819,374.125 C 120.120,376.119 118.666,380.225 117.587,383.250 C 116.508,386.275 115.518,389.087 115.387,389.500 C 115.256,389.913 114.754,391.375 114.272,392.750 C 113.789,394.125 113.210,396.013 112.984,396.945 C 112.758,397.878 112.276,398.920 111.912,399.262 C 111.535,399.615 108.555,400.117 105.000,400.426 C 101.562,400.724 96.162,401.320 93.000,401.750 C 89.838,402.179 85.338,402.743 83.000,403.004 C 80.662,403.264 77.287,403.695 75.500,403.963 C 73.713,404.230 71.125,404.593 69.750,404.768 C 68.375,404.943 64.004,405.629 60.036,406.293 C 49.870,407.994 48.470,407.937 46.267,405.733 C 44.244,403.711 44.119,402.602 45.030,394.750 C 45.317,392.275 46.003,385.750 46.553,380.250 C 47.103,374.750 47.750,368.337 47.990,366.000 C 48.229,363.663 48.659,359.275 48.944,356.250 C 49.229,353.225 49.694,348.500 49.977,345.750 C 50.261,343.000 50.709,338.275 50.974,335.250 C 51.238,332.225 51.789,326.488 52.197,322.500 C 52.605,318.512 53.196,311.538 53.512,307.000 C 53.827,302.462 54.177,298.269 54.288,297.680 C 54.494,296.595 56.531,295.729 71.932,290.182 C 74.508,289.255 77.644,288.041 78.901,287.485 C 80.889,286.605 81.094,286.379 80.469,285.755 C 79.855,285.141 76.158,283.593 71.500,281.999 C 70.812,281.764 67.100,280.452 63.250,279.083 L 56.250,276.595 L 56.308,272.172 C 56.339,269.740 56.633,264.038 56.960,259.500 C 58.468,238.591 58.807,232.730 60.028,206.500 C 60.290,200.863 60.645,183.568 60.817,168.068 L 61.130,139.886 L 63.190,138.974 C 64.323,138.473 66.875,137.169 68.860,136.077 C 70.846,134.986 74.626,133.374 77.260,132.497 C 79.971,131.593 81.971,130.662 81.867,130.350 C 81.618,129.605 79.290,128.337 72.750,125.385 C 61.750,120.420 60.500,119.798 60.476,119.278 C 60.463,118.988 60.367,117.737 60.262,116.500 C 60.157,115.263 59.823,110.312 59.520,105.500 C 58.515,89.558 55.992,69.865 52.792,53.000 C 51.261,44.930 50.206,40.700 48.117,34.250 C 46.080,27.962 42.428,19.302 41.278,18.031 C 39.792,16.389 40.329,16.000 44.084,16.000 C 46.055,16.000 49.037,16.218 50.709,16.484 C 57.503,17.566 76.558,20.015 93.250,21.952 C 101.366,22.893 105.566,23.344 116.750,24.475 C 122.114,25.017 133.676,25.801 143.000,26.256 C 146.162,26.410 150.325,26.661 152.250,26.813 C 154.175,26.966 168.216,27.156 183.451,27.236 L 211.153,27.381 L 212.076,29.280 C 212.584,30.324 213.000,31.366 213.000,31.595 C 213.000,32.585 220.062,47.500 220.531,47.500 C 220.725,47.500 221.398,46.206 222.027,44.625 C 222.656,43.044 223.582,41.153 224.085,40.423 C 224.588,39.693 225.000,38.945 225.000,38.761 C 225.000,37.783 230.110,27.844 231.146,26.809 C 232.105,25.850 233.084,25.528 235.805,25.277 C 245.980,24.339 272.262,21.549 285.500,20.002 C 289.870,19.491 298.595,18.329 311.750,16.507 C 318.903,15.516 321.500,15.501 321.500,16.449 C 321.500,16.685 320.712,18.187 319.750,19.785 C 318.788,21.383 318.000,22.866 318.000,23.081 C 318.000,23.295 317.461,24.658 316.802,26.110 C 312.551,35.474 306.925,61.166 305.000,80.000 C 304.761,82.338 304.229,87.513 303.819,91.500 C 302.055,108.636 301.000,129.422 301.000,147.047 C 301.000,158.069 300.906,159.501 300.125,160.438 C 299.361,161.354 285.113,168.687 280.625,170.474 C 278.521,171.312 278.575,171.830 280.875,172.837 C 281.906,173.289 285.788,175.062 289.500,176.777 C 293.212,178.493 297.108,180.195 298.157,180.560 C 299.205,180.925 300.273,181.476 300.528,181.784 C 300.784,182.093 301.218,188.511 301.492,196.047 C 301.766,203.584 302.221,214.025 302.503,219.250 C 303.627,240.103 304.511,255.068 304.984,261.250 C 305.612,269.456 306.402,279.879 307.030,288.250 C 308.096,302.454 308.521,307.690 309.464,318.250 C 311.067,336.203 312.483,350.690 313.544,360.000 C 314.700,370.150 315.210,375.123 316.257,386.500 C 316.675,391.038 317.269,396.381 317.577,398.374 C 318.060,401.501 318.019,402.306 317.277,404.250 C 316.804,405.488 315.935,406.839 315.347,407.251 C 314.038,408.168 310.278,408.147 306.500,407.201 Z M 203.500,257.334 C 206.002,256.025 207.152,254.227 207.372,251.285 C 207.600,248.238 206.404,245.701 204.104,244.350 C 202.657,243.500 199.983,243.450 156.509,243.464 C 114.304,243.478 110.297,243.550 108.664,244.324 C 106.245,245.472 105.004,247.654 105.002,250.764 C 105.000,253.558 105.699,254.861 108.134,256.597 C 109.631,257.665 110.395,257.770 118.500,258.018 C 123.312,258.165 144.012,258.278 164.500,258.268 C 199.621,258.251 201.850,258.198 203.500,257.334 Z M 253.704,210.725 C 258.821,208.040 258.534,200.791 253.211,198.265 C 251.528,197.467 246.513,197.407 181.239,197.413 C 112.259,197.420 111.037,197.437 108.823,198.416 C 106.235,199.561 104.999,201.481 105.003,204.350 C 105.006,206.799 106.877,209.893 109.060,211.060 C 110.670,211.921 114.108,211.959 181.250,211.857 C 251.256,211.751 251.764,211.743 253.704,210.725 Z M 253.203,164.867 C 256.625,162.910 258.281,159.480 257.408,156.159 C 256.752,153.667 253.415,151.121 250.319,150.751 C 248.906,150.583 216.700,150.513 178.750,150.597 L 109.750,150.750 L 108.117,151.914 C 105.996,153.428 105.000,155.420 105.000,158.151 C 105.000,161.024 106.595,163.415 109.485,164.875 L 111.712,166.000 L 181.481,165.992 L 251.250,165.984 L 253.203,164.867 Z M 252.951,118.276 C 253.721,117.877 255.060,116.744 255.926,115.758 C 257.188,114.320 257.500,113.524 257.500,111.734 C 257.500,109.874 257.200,109.171 255.696,107.506 C 254.591,106.283 253.155,105.311 251.989,104.997 C 250.737,104.660 234.261,104.530 203.821,104.617 L 157.555,104.750 L 155.768,106.482 C 152.407,109.740 152.435,113.605 155.844,117.097 L 157.703,119.000 L 204.626,119.000 C 244.623,119.000 251.756,118.893 252.951,118.276 Z M 235.250,361.670 C 232.069,360.990 226.402,358.631 223.951,356.967 C 217.962,352.900 212.212,344.846 210.657,338.345 C 209.490,333.470 209.622,324.988 210.932,320.666 C 212.546,315.339 214.253,311.933 216.284,309.987 C 217.281,309.032 218.283,307.774 218.510,307.192 C 219.013,305.908 227.090,300.336 230.089,299.205 C 233.648,297.864 241.225,297.076 245.500,297.603 C 253.457,298.583 261.657,303.035 266.229,308.856 C 276.198,321.549 275.911,338.863 265.532,350.923 C 260.575,356.682 256.760,359.122 249.784,360.991 C 246.244,361.940 238.256,362.313 235.250,361.670 Z M 27.250,97.263 C 23.037,96.134 20.031,91.925 18.064,84.400 C 15.531,74.707 15.249,72.240 15.275,60.000 C 15.299,48.966 15.379,47.961 16.593,43.500 C 19.334,33.423 23.502,25.389 26.758,23.905 C 28.409,23.153 29.326,24.012 32.316,29.113 C 37.897,38.633 42.497,59.334 45.328,87.677 C 46.202,96.428 46.200,96.617 45.264,97.302 C 43.980,98.241 30.794,98.212 27.250,97.263 Z M 316.875,97.642 C 315.804,97.378 315.794,96.571 316.742,87.250 C 317.785,76.991 319.240,66.191 320.965,55.883 C 323.632,39.952 330.695,23.500 334.868,23.500 C 336.098,23.500 339.789,27.844 341.418,31.210 C 342.721,33.901 344.053,37.526 345.473,42.250 C 347.167,47.886 348.166,61.119 347.452,68.472 C 346.187,81.508 342.722,91.726 338.048,96.204 L 336.556,97.634 L 327.153,97.745 C 321.981,97.807 317.356,97.760 316.875,97.642 Z" fill="#000000" fill-rule="evenodd" /></svg>