<svg xmlns="http://www.w3.org/2000/svg" viewBox="0 0 245 180" width="245" height="180"><path d="M 110.375,167.460 C 108.710,166.490 108.152,164.813 107.011,157.341 C 106.766,155.741 106.308,154.121 105.993,153.741 C 104.770,152.268 47.824,153.128 38.750,154.757 C 32.397,155.898 24.755,157.317 21.339,157.990 C 16.740,158.897 13.755,157.850 12.320,154.828 C 11.647,153.408 11.550,146.124 11.517,94.330 C 11.476,30.345 11.365,32.981 14.148,31.596 C 15.614,30.866 18.974,30.006 20.375,30.003 L 21.500,30.000 L 21.508,84.625 C 21.512,117.203 21.702,139.545 21.978,139.981 C 22.378,140.614 23.232,140.553 28.345,139.528 C 42.773,136.636 49.439,135.998 65.353,135.983 C 87.677,135.963 99.059,138.030 114.500,144.907 C 117.760,146.359 121.292,146.260 126.253,144.578 C 135.388,141.480 142.529,139.533 148.500,138.510 C 150.287,138.205 152.875,137.753 154.250,137.508 C 161.630,136.190 164.505,136.000 177.058,135.999 C 193.020,135.999 197.117,136.393 213.977,139.549 C 218.227,140.345 221.882,140.818 222.100,140.600 C 222.317,140.383 222.553,115.577 222.623,85.477 L 222.750,30.750 L 225.277,30.811 C 228.395,30.887 230.739,32.048 232.020,34.149 C 232.974,35.713 232.996,37.109 232.998,94.064 C 233.000,157.212 233.124,154.311 230.325,156.933 C 228.500,158.643 225.602,158.793 219.220,157.507 C 199.748,153.584 203.579,153.877 168.716,153.641 C 142.977,153.467 137.087,153.550 136.666,154.089 C 136.382,154.453 135.873,156.213 135.534,158.000 C 133.533,168.560 134.325,168.004 121.308,167.985 C 115.411,167.976 110.888,167.759 110.375,167.460 Z M 121.761,139.594 C 121.617,139.451 121.500,113.849 121.500,82.702 C 121.500,29.435 121.552,26.019 122.375,25.196 C 123.466,24.105 133.223,19.441 137.250,18.086 C 140.396,17.027 150.805,14.454 155.500,13.574 C 166.816,11.453 202.060,11.570 215.125,13.772 L 217.000,14.088 L 217.000,73.830 L 217.000,133.572 L 214.125,133.254 C 212.544,133.078 210.125,132.739 208.750,132.498 C 205.786,131.981 199.609,131.203 192.915,130.504 C 186.685,129.855 167.889,129.853 162.455,130.502 C 148.919,132.119 148.535,132.184 140.250,134.294 C 134.903,135.656 130.560,136.942 125.636,138.622 C 123.648,139.300 121.904,139.737 121.761,139.594 Z M 202.683,110.464 C 204.296,109.195 204.352,107.963 202.875,106.256 C 201.186,104.304 194.442,103.171 175.926,101.728 C 165.814,100.939 164.450,100.938 155.176,101.713 C 138.415,103.112 137.401,103.334 136.795,105.747 C 136.399,107.327 137.039,108.584 138.688,109.467 C 139.706,110.012 140.669,110.036 143.602,109.590 C 153.200,108.132 157.261,107.902 168.561,108.178 C 179.718,108.450 183.177,108.736 190.500,109.992 C 200.837,111.765 201.019,111.773 202.683,110.464 Z M 202.875,89.182 C 203.494,88.501 204.000,87.744 204.000,87.500 C 204.000,87.256 203.494,86.472 202.875,85.758 C 201.724,84.429 197.274,83.219 189.000,81.985 C 187.213,81.718 183.275,81.121 180.250,80.657 C 170.250,79.125 145.586,80.037 139.012,82.183 C 136.610,82.966 135.901,84.966 137.346,86.876 C 138.351,88.204 138.526,88.245 142.513,88.112 C 144.783,88.036 147.564,87.749 148.695,87.475 C 152.070,86.656 169.135,86.333 176.000,86.958 C 183.422,87.634 187.228,88.233 196.500,90.185 C 200.348,90.995 201.373,90.834 202.875,89.182 Z M 179.534,69.209 C 184.135,67.868 187.177,66.105 190.247,63.003 C 193.331,59.887 193.577,58.719 190.855,60.121 C 187.563,61.817 185.341,62.162 181.739,61.535 C 177.357,60.772 174.226,59.150 171.567,56.265 C 168.550,52.992 167.809,51.011 167.820,46.250 C 167.833,40.954 169.205,37.360 172.306,34.502 C 174.752,32.247 178.606,30.276 181.647,29.725 C 185.783,28.974 181.807,27.097 175.958,27.038 C 166.970,26.948 158.737,32.159 154.835,40.410 C 152.677,44.973 152.346,51.052 154.005,55.668 C 156.157,61.654 161.029,66.431 167.500,68.899 C 170.870,70.184 175.755,70.310 179.534,69.209 Z M 113.850,138.201 C 112.378,137.403 104.160,134.517 100.750,133.601 C 90.535,130.856 82.316,129.999 66.263,130.005 C 52.436,130.010 44.187,130.707 31.266,132.962 C 29.626,133.249 28.119,133.318 27.918,133.116 C 27.718,132.915 27.497,106.121 27.428,73.575 C 27.319,22.351 27.400,14.347 28.026,14.003 C 30.934,12.409 65.146,11.362 77.500,12.490 C 95.314,14.116 107.078,17.524 114.125,23.100 L 116.000,24.584 L 116.000,81.792 C 116.000,113.256 115.831,138.991 115.625,138.980 C 115.419,138.969 114.620,138.618 113.850,138.201 Z M 105.625,109.134 C 106.831,108.046 106.720,106.175 105.369,104.824 C 103.918,103.373 98.085,101.956 87.250,100.425 C 81.316,99.586 57.625,99.576 52.250,100.410 C 41.954,102.007 41.470,102.130 40.469,103.403 C 39.178,105.045 39.248,106.089 40.744,107.494 C 41.972,108.648 42.046,108.655 46.619,108.040 C 60.201,106.216 73.071,105.623 79.855,106.509 C 81.997,106.789 85.662,107.265 88.000,107.567 C 90.338,107.870 94.500,108.639 97.250,109.277 C 102.461,110.487 104.156,110.457 105.625,109.134 Z M 64.781,78.000 C 69.039,75.800 72.765,74.000 73.062,74.000 C 73.358,74.000 77.207,75.819 81.615,78.042 C 91.290,82.923 91.377,82.909 90.290,76.727 C 89.904,74.530 89.218,71.307 88.767,69.564 C 87.273,63.799 87.393,63.548 94.500,57.565 C 101.358,51.792 102.116,50.510 99.000,49.955 C 98.037,49.784 95.000,49.263 92.250,48.797 C 89.500,48.331 86.092,47.706 84.677,47.407 L 82.104,46.864 L 78.480,39.208 C 73.344,28.356 72.948,28.357 67.748,39.238 L 64.097,46.877 L 61.673,47.402 C 60.341,47.690 57.450,48.184 55.250,48.500 C 49.763,49.287 46.368,50.037 45.625,50.627 C 44.618,51.425 44.897,52.336 46.451,53.326 C 47.249,53.834 50.298,56.275 53.226,58.750 L 58.549,63.250 L 58.223,65.750 C 58.043,67.125 57.577,69.487 57.186,71.000 C 54.974,79.561 54.840,82.000 56.580,82.000 C 56.832,82.000 60.522,80.200 64.781,78.000 Z" fill="#000000" fill-rule="evenodd" /></svg>