<svg xmlns="http://www.w3.org/2000/svg" viewBox="0 0 430 312" width="430" height="312"><path d="M 204.000,295.252 C 199.721,294.248 196.115,293.041 192.653,291.455 C 190.905,290.655 189.364,290.000 189.228,290.000 C 189.093,290.000 187.467,289.044 185.616,287.875 L 182.250,285.750 L 100.750,285.500 L 19.250,285.250 L 17.614,284.083 C 16.714,283.441 15.476,281.978 14.864,280.833 L 13.750,278.750 L 13.750,168.750 C 13.750,62.589 13.782,58.685 14.678,56.883 C 16.323,53.573 18.132,52.883 25.091,52.908 C 28.412,52.920 31.321,53.121 31.555,53.355 C 31.790,53.590 32.042,100.462 32.116,157.516 C 32.264,271.836 32.018,263.369 35.257,265.916 L 36.635,267.000 L 110.083,267.000 C 183.087,267.000 183.550,267.006 186.641,268.038 C 188.351,268.608 190.762,269.673 192.000,270.404 C 199.175,274.641 205.284,276.282 213.500,276.176 C 221.084,276.079 224.985,275.001 233.873,270.546 L 240.948,267.000 L 315.747,267.000 L 390.545,267.000 L 391.800,265.745 C 394.678,262.867 394.500,270.017 394.500,157.284 C 394.500,58.979 394.546,53.512 395.375,53.090 C 395.856,52.844 398.911,52.780 402.164,52.947 L 408.078,53.250 L 409.759,55.085 C 410.683,56.094 411.680,57.813 411.974,58.905 C 412.348,60.292 412.470,93.839 412.379,170.320 C 412.250,279.367 412.246,279.756 411.232,281.482 C 410.673,282.435 409.435,283.673 408.482,284.232 C 406.764,285.242 406.093,285.252 325.500,285.500 L 244.250,285.750 L 238.746,288.863 C 229.396,294.152 222.441,296.035 212.581,295.949 C 209.374,295.921 205.512,295.607 204.000,295.252 Z M 233.116,259.622 C 232.145,259.298 232.397,258.100 233.510,257.747 C 234.066,257.571 235.530,256.655 236.764,255.713 C 237.999,254.771 239.288,253.996 239.629,253.991 C 239.971,253.986 241.488,253.289 243.000,252.442 C 244.512,251.595 246.963,250.475 248.446,249.954 C 249.928,249.432 251.391,248.809 251.696,248.570 C 252.001,248.330 252.812,248.016 253.500,247.873 C 254.188,247.729 256.325,247.050 258.250,246.364 C 273.321,240.997 295.901,236.953 318.750,235.528 C 335.346,234.493 345.693,234.342 354.609,235.004 C 361.580,235.521 363.661,235.525 365.186,235.021 C 367.721,234.184 370.311,231.839 370.998,229.757 C 371.401,228.535 371.575,201.022 371.624,131.014 C 371.678,52.233 371.813,33.863 372.339,33.426 C 373.369,32.571 383.792,33.078 384.744,34.030 C 385.425,34.711 385.508,46.904 385.507,146.228 C 385.506,207.516 385.416,257.751 385.307,257.860 C 385.198,257.969 352.403,258.131 312.430,258.221 C 251.223,258.358 239.275,258.498 236.741,259.106 C 235.086,259.503 233.455,259.735 233.116,259.622 Z M 190.500,258.875 C 189.324,258.524 164.594,258.320 115.119,258.254 C 74.623,258.200 41.323,257.989 41.119,257.786 C 40.916,257.583 40.750,207.381 40.750,146.226 C 40.750,40.209 40.791,34.994 41.642,34.143 C 42.365,33.418 43.571,33.218 48.036,33.080 C 51.837,32.963 53.766,33.098 54.270,33.516 C 54.905,34.044 55.000,46.714 55.000,131.392 L 55.000,228.662 L 56.243,230.783 C 57.103,232.250 58.220,233.266 59.868,234.077 C 62.542,235.394 62.451,235.390 82.250,234.899 C 93.368,234.623 109.202,235.416 123.250,236.952 C 152.092,240.106 179.968,248.238 191.532,256.871 C 195.002,259.461 194.663,260.118 190.500,258.875 Z M 218.003,157.125 C 218.005,97.911 218.195,56.597 218.473,54.898 C 218.915,52.202 219.155,51.841 222.845,48.323 C 227.225,44.148 231.180,40.869 234.447,38.705 C 238.753,35.854 243.455,33.082 244.594,32.724 C 245.230,32.524 246.875,31.849 248.250,31.223 C 259.166,26.257 269.124,22.755 277.250,21.024 C 280.000,20.439 283.712,19.613 285.500,19.189 C 287.288,18.766 290.887,18.091 293.500,17.690 C 310.858,15.027 314.797,14.551 322.250,14.218 C 325.275,14.083 329.100,13.764 330.750,13.508 C 335.156,12.826 353.784,11.847 357.918,12.080 C 359.878,12.191 361.767,12.567 362.116,12.916 C 362.624,13.425 362.750,34.653 362.750,119.823 C 362.750,178.273 362.619,226.307 362.459,226.566 C 362.278,226.859 360.108,226.841 356.709,226.519 C 344.006,225.314 318.758,226.347 296.750,228.971 C 286.869,230.149 273.525,232.623 264.500,234.949 C 259.443,236.252 245.843,240.855 242.250,242.479 C 237.094,244.810 231.661,247.672 229.000,249.459 C 227.488,250.474 224.523,252.474 222.413,253.903 C 220.303,255.331 218.446,256.500 218.288,256.500 C 218.130,256.500 218.001,211.781 218.003,157.125 Z M 247.403,211.548 C 252.164,209.120 255.660,207.570 257.500,207.070 C 258.462,206.809 260.825,206.003 262.750,205.280 C 267.297,203.570 274.257,201.700 281.750,200.173 C 291.407,198.206 291.476,198.179 292.331,196.134 C 293.291,193.836 292.638,192.213 290.374,191.276 C 288.980,190.698 287.935,190.732 283.000,191.510 C 270.080,193.547 258.072,197.159 248.223,201.971 C 239.261,206.350 237.258,208.804 240.227,211.773 C 241.865,213.411 243.873,213.348 247.403,211.548 Z M 248.500,184.191 C 250.287,183.116 252.312,181.977 253.000,181.661 C 257.154,179.750 263.260,177.416 266.500,176.500 C 268.562,175.917 271.825,174.987 273.750,174.434 C 275.675,173.880 278.262,173.225 279.500,172.977 C 280.738,172.729 282.650,172.290 283.750,172.002 C 291.412,169.992 311.783,167.709 326.250,167.239 C 331.200,167.078 335.942,166.844 336.787,166.717 C 340.351,166.185 341.668,162.623 339.211,160.165 L 337.921,158.876 L 326.336,159.158 C 309.275,159.573 300.130,160.534 284.500,163.553 C 271.471,166.069 266.633,167.339 258.750,170.309 C 252.361,172.716 240.036,179.041 239.143,180.371 C 238.221,181.744 238.630,183.772 240.162,185.423 C 241.689,187.068 244.380,186.671 248.500,184.191 Z M 249.250,156.833 C 259.671,151.705 268.638,148.107 273.750,147.001 C 274.850,146.763 277.887,146.001 280.500,145.307 C 292.749,142.056 307.896,140.189 326.838,139.593 C 337.648,139.253 337.957,139.214 339.213,138.035 C 341.242,136.128 340.916,132.989 338.564,131.797 C 335.541,130.264 314.326,131.313 294.093,133.996 C 290.624,134.456 276.541,137.403 272.250,138.567 C 261.986,141.351 251.156,145.666 245.797,149.105 C 244.174,150.147 242.584,151.000 242.266,151.000 C 241.948,151.000 241.052,151.663 240.275,152.474 C 239.183,153.614 238.864,154.423 238.864,156.055 C 238.864,160.254 241.844,160.477 249.250,156.833 Z M 251.250,128.261 C 257.957,125.039 260.286,124.060 265.000,122.479 C 266.512,121.972 269.029,121.096 270.592,120.534 C 273.250,119.576 283.714,116.696 286.500,116.155 C 293.326,114.828 295.578,114.458 301.000,113.772 C 304.438,113.336 308.830,112.769 310.761,112.510 C 312.692,112.252 319.442,111.796 325.761,111.498 C 332.080,111.199 337.731,110.716 338.320,110.423 C 340.587,109.294 341.180,105.675 339.375,103.987 C 338.291,102.973 337.879,102.942 328.000,103.145 C 310.897,103.495 299.663,104.746 285.000,107.931 C 275.484,109.998 265.397,112.725 261.000,114.419 C 258.938,115.213 255.927,116.371 254.310,116.992 C 251.145,118.207 243.789,122.298 241.091,124.345 C 237.831,126.817 237.900,129.852 241.250,131.303 C 243.133,132.119 243.371,132.046 251.250,128.261 Z M 248.250,102.776 C 258.663,96.675 271.405,92.094 286.552,89.005 C 301.765,85.903 311.306,84.776 328.726,84.024 C 338.155,83.617 338.208,83.608 339.351,82.280 C 340.655,80.764 340.869,78.196 339.812,76.750 C 338.860,75.449 335.722,75.177 326.750,75.620 C 301.568,76.864 280.026,80.539 263.353,86.437 C 259.285,87.875 250.209,91.942 247.353,93.604 C 246.035,94.372 244.838,95.000 244.693,95.000 C 243.846,95.000 239.883,98.277 239.250,99.499 C 237.061,103.732 242.955,105.879 248.250,102.776 Z M 246.500,76.335 C 247.738,75.697 251.338,73.805 254.500,72.131 C 257.663,70.457 261.346,68.723 262.685,68.279 C 264.024,67.835 265.562,67.235 266.102,66.945 C 268.073,65.891 288.858,60.887 295.000,59.989 C 296.788,59.727 300.387,59.193 303.000,58.801 C 309.865,57.772 318.916,57.013 329.586,56.572 C 336.051,56.305 339.165,55.985 339.711,55.532 C 340.808,54.622 340.781,50.140 339.673,48.914 C 338.928,48.092 337.924,48.000 329.692,48.000 C 324.658,48.000 318.224,48.230 315.395,48.511 C 302.605,49.781 300.095,50.066 297.750,50.517 C 296.375,50.781 292.663,51.459 289.500,52.024 C 273.072,54.960 257.800,60.313 246.037,67.259 C 239.605,71.057 237.631,73.760 239.528,76.171 C 240.872,77.880 243.390,77.940 246.500,76.335 Z M 204.680,255.039 C 203.816,254.512 202.959,253.838 202.775,253.541 C 202.403,252.939 192.179,246.000 191.664,246.000 C 191.485,246.000 190.306,245.387 189.044,244.638 C 186.678,243.234 185.115,242.602 177.000,239.773 C 165.934,235.914 160.675,234.409 150.000,232.050 C 131.747,228.015 103.536,225.714 76.750,226.075 L 63.750,226.250 L 63.624,119.937 C 63.507,21.129 63.557,13.576 64.333,12.937 C 66.671,11.014 111.530,13.915 130.500,17.217 C 139.984,18.868 141.421,19.140 145.500,20.061 C 161.014,23.563 180.181,31.215 191.000,38.226 C 196.831,42.004 202.522,46.756 206.125,50.856 L 208.500,53.558 L 208.500,154.779 L 208.500,256.000 L 207.375,255.998 C 206.756,255.997 205.543,255.565 204.680,255.039 Z M 186.964,211.683 C 187.534,210.958 188.000,209.859 188.000,209.241 C 188.000,207.740 184.832,204.934 180.890,202.944 C 176.559,200.757 165.927,196.555 162.000,195.478 C 160.213,194.988 157.512,194.249 156.000,193.835 C 152.292,192.821 139.677,190.304 132.000,189.047 C 118.789,186.884 109.177,185.978 98.219,185.863 C 88.037,185.756 87.382,185.805 86.711,186.721 C 85.514,188.354 85.822,190.899 87.408,192.485 C 88.968,194.045 89.725,194.140 105.500,194.768 C 113.223,195.075 127.333,196.528 134.130,197.717 C 149.212,200.355 168.034,205.983 177.000,210.537 C 182.754,213.459 185.333,213.755 186.964,211.683 Z M 187.000,185.500 C 188.322,184.178 188.297,181.512 186.945,179.794 C 185.976,178.561 177.630,174.051 173.500,172.527 C 172.537,172.172 170.850,171.486 169.750,171.003 C 163.485,168.252 151.591,165.016 140.500,163.045 C 124.931,160.279 115.678,159.318 98.652,158.699 C 90.251,158.394 88.898,158.452 87.814,159.162 C 86.199,160.221 85.795,161.615 86.493,163.729 C 87.278,166.107 88.397,166.360 100.952,167.004 C 116.437,167.797 120.362,168.210 134.000,170.476 C 148.367,172.864 149.564,173.145 160.826,176.783 C 166.644,178.663 171.548,180.656 176.076,182.983 C 183.257,186.673 185.346,187.154 187.000,185.500 Z M 187.000,158.500 C 188.094,157.406 188.299,155.197 187.472,153.399 C 186.903,152.160 179.176,147.648 173.250,145.094 C 168.190,142.913 159.230,139.736 156.000,138.978 C 155.037,138.751 153.350,138.329 152.250,138.039 C 151.150,137.748 147.662,136.941 144.500,136.243 C 141.338,135.546 137.850,134.771 136.750,134.520 C 135.650,134.269 132.725,133.822 130.250,133.527 C 127.775,133.231 124.022,132.771 121.910,132.505 C 116.590,131.833 104.095,131.244 95.874,131.278 C 89.756,131.304 88.846,131.419 87.624,132.328 C 85.144,134.173 85.762,138.049 88.677,138.935 C 89.542,139.197 95.200,139.535 101.250,139.684 C 124.964,140.270 148.771,144.557 165.978,151.342 C 170.607,153.167 178.375,156.844 179.926,157.944 C 182.405,159.703 185.550,159.950 187.000,158.500 Z M 186.838,130.875 C 188.495,129.035 188.591,128.593 187.732,126.782 C 186.966,125.168 183.802,122.931 176.750,119.018 C 170.278,115.427 148.636,108.933 145.911,109.764 C 143.981,110.353 143.000,111.547 143.000,113.308 C 143.000,115.280 144.261,116.614 146.888,117.420 C 147.912,117.734 150.325,118.467 152.250,119.049 C 158.096,120.815 161.295,121.909 165.250,123.494 C 165.800,123.714 167.262,124.259 168.500,124.704 C 169.738,125.150 173.450,126.955 176.750,128.716 C 183.336,132.230 185.250,132.640 186.838,130.875 Z M 109.962,106.875 C 110.203,106.256 112.140,103.050 114.266,99.750 C 118.199,93.646 124.951,82.512 126.296,79.911 C 127.101,78.354 127.400,79.109 122.370,70.000 C 121.687,68.763 118.882,64.037 116.138,59.500 C 113.393,54.962 110.652,50.279 110.047,49.092 C 109.442,47.906 108.717,47.011 108.437,47.104 C 108.156,47.198 106.861,49.294 105.559,51.762 C 104.257,54.230 102.281,57.712 101.169,59.500 C 100.058,61.288 98.062,64.550 96.735,66.750 C 95.407,68.950 93.462,72.116 92.411,73.785 C 91.360,75.454 90.500,77.009 90.500,77.241 C 90.500,77.903 96.267,88.048 101.080,95.853 C 103.490,99.759 106.036,104.091 106.739,105.478 C 108.110,108.185 109.259,108.683 109.962,106.875 Z M 186.773,103.273 C 187.448,102.598 188.000,101.550 188.000,100.945 C 188.000,99.322 184.657,96.417 180.174,94.142 C 178.016,93.047 175.463,91.668 174.500,91.077 C 173.537,90.487 172.412,90.002 172.000,89.999 C 171.588,89.996 170.575,89.639 169.750,89.206 C 165.440,86.942 157.465,84.211 150.993,82.782 C 147.574,82.027 144.514,82.320 144.175,83.434 C 144.039,83.883 143.718,84.641 143.464,85.118 C 142.157,87.566 143.315,89.422 146.750,90.381 C 161.668,94.548 167.418,96.677 176.250,101.302 C 183.007,104.840 184.859,105.187 186.773,103.273 Z M 185.885,76.724 C 188.544,74.862 188.228,72.621 184.893,69.693 C 180.959,66.238 161.536,57.813 153.220,55.953 C 145.669,54.264 143.500,54.933 143.500,58.950 C 143.500,61.923 143.931,62.321 148.489,63.571 C 153.145,64.847 158.378,66.329 160.345,66.927 C 163.077,67.759 170.506,71.067 176.351,74.055 C 183.607,77.763 184.175,77.922 185.885,76.724 Z" fill="#000000" fill-rule="evenodd" /></svg>