<svg xmlns="http://www.w3.org/2000/svg" viewBox="0 0 208 278" width="208" height="278"><path d="M 27.750,257.158 C 22.413,254.949 18.566,251.278 16.057,246.000 L 14.750,243.250 L 14.605,190.750 C 14.478,144.422 14.553,137.832 15.249,134.693 C 17.133,126.196 24.031,120.352 32.991,119.661 C 36.126,119.419 37.037,119.172 37.248,118.506 C 37.396,118.040 37.413,109.917 37.287,100.454 C 37.005,79.442 37.581,72.608 40.378,63.750 C 45.830,46.480 58.382,31.734 74.403,23.778 C 82.194,19.908 84.573,19.179 93.963,17.778 C 102.434,16.514 109.135,16.878 118.000,19.084 C 123.275,20.397 126.016,21.447 131.750,24.354 C 139.199,28.130 142.980,30.880 148.665,36.655 C 156.773,44.894 161.647,52.810 164.885,63.000 C 167.561,71.423 167.991,76.481 167.996,99.602 L 168.000,118.955 L 169.625,119.201 C 170.519,119.337 172.548,119.574 174.135,119.729 C 178.128,120.119 184.025,123.057 186.533,125.906 C 188.840,128.527 190.459,132.551 190.996,137.000 C 191.212,138.787 191.346,163.650 191.293,192.250 L 191.198,244.250 L 190.107,246.648 C 187.800,251.718 183.926,255.062 177.775,257.295 L 174.420,258.513 L 102.585,258.456 L 30.750,258.399 L 27.750,257.158 Z M 118.275,224.392 C 118.605,224.061 116.873,213.736 114.980,204.750 C 114.459,202.275 113.650,197.825 113.182,194.861 L 112.332,189.472 L 115.074,187.028 C 116.649,185.625 118.490,183.319 119.400,181.612 C 121.244,178.152 122.182,172.952 121.445,170.280 C 119.725,164.051 115.656,158.756 110.634,156.211 C 108.035,154.894 107.281,154.752 103.000,154.770 C 97.535,154.793 94.743,155.770 91.290,158.867 C 81.915,167.275 81.707,178.811 90.785,186.902 L 93.579,189.392 L 90.999,203.571 C 89.580,211.370 88.087,219.072 87.680,220.687 C 87.273,222.302 87.050,223.909 87.183,224.257 C 87.373,224.751 90.776,224.872 102.682,224.810 C 111.072,224.766 118.089,224.577 118.275,224.392 Z M 140.905,119.309 C 141.586,118.888 141.179,78.036 140.467,75.333 C 138.761,68.862 137.489,65.835 134.607,61.389 C 127.171,49.918 116.047,44.003 101.906,44.001 C 96.230,44.000 91.819,45.066 86.057,47.831 C 82.133,49.713 80.647,50.793 76.991,54.416 C 70.258,61.090 67.102,66.808 65.283,75.630 C 64.446,79.687 64.141,118.215 64.938,119.175 C 65.291,119.600 75.170,119.731 102.920,119.678 C 123.548,119.638 140.641,119.472 140.905,119.309 Z" fill="#000000" fill-rule="evenodd" /></svg>