<svg xmlns="http://www.w3.org/2000/svg" viewBox="0 0 113 117" width="113" height="117"><path d="M 49.873,104.242 C 38.269,101.709 29.170,95.664 22.909,86.328 C 21.774,84.635 20.776,83.165 20.692,83.061 C 20.608,82.957 18.786,83.577 16.644,84.439 C 12.728,86.014 11.000,86.362 11.000,85.575 C 11.000,85.341 11.197,84.497 11.438,83.700 C 11.678,82.902 12.128,81.069 12.438,79.625 C 14.697,69.078 17.415,58.385 17.980,57.820 C 18.505,57.295 40.750,71.715 41.221,72.887 C 41.381,73.284 40.449,74.011 38.739,74.820 C 37.232,75.534 36.000,76.388 36.000,76.719 C 36.000,78.970 43.882,85.009 49.500,87.062 C 54.094,88.741 62.808,88.710 67.250,86.999 C 75.409,83.857 81.470,77.680 84.022,69.908 L 85.105,66.609 L 93.094,66.246 C 97.955,66.025 101.267,66.067 101.554,66.354 C 101.850,66.650 101.734,68.086 101.243,70.204 C 99.350,78.366 96.117,84.509 90.455,90.704 C 84.853,96.834 76.956,101.475 68.305,103.723 C 62.760,105.164 55.086,105.380 49.873,104.242 Z M 93.250,55.584 C 92.425,55.112 90.062,53.724 88.000,52.500 C 83.261,49.688 82.581,49.292 77.252,46.250 C 73.117,43.889 71.660,42.530 72.842,42.136 C 73.129,42.040 74.439,41.280 75.753,40.447 L 78.142,38.932 L 75.946,36.656 C 72.888,33.488 69.250,31.245 64.664,29.703 C 61.131,28.514 60.239,28.411 55.500,28.643 C 51.950,28.816 49.393,29.228 47.605,29.914 C 39.768,32.920 33.698,38.998 30.915,46.625 L 29.866,49.500 L 21.713,49.500 C 17.228,49.500 13.431,49.293 13.275,49.041 C 12.973,48.552 13.854,44.862 15.255,40.750 C 16.175,38.049 18.221,34.096 20.241,31.116 C 22.193,28.238 28.426,22.116 31.646,19.914 C 39.153,14.782 48.013,12.000 56.846,12.001 C 72.164,12.002 83.910,18.412 92.529,31.473 L 93.308,32.653 L 96.738,31.577 C 98.625,30.985 100.385,30.500 100.649,30.500 C 101.243,30.500 100.897,33.232 99.509,39.500 C 98.931,42.112 97.992,46.500 97.424,49.250 C 95.905,56.590 95.931,56.502 95.317,56.471 C 95.005,56.456 94.075,56.056 93.250,55.584 Z" fill="#000000" fill-rule="evenodd" /></svg>