<svg width="86" height="106" viewBox="0 0 86 106" fill="none" xmlns="http://www.w3.org/2000/svg">
<path fill-rule="evenodd" clip-rule="evenodd" d="M5.25758 104.902C3.41558 104.253 1.64258 102.693 0.70958 100.901C-1.06842 97.4822 0.651581 92.2132 4.12458 90.4412C5.93558 89.5172 7.27358 89.4932 43.0306 89.7392C65.8606 89.8962 80.4126 90.1832 80.9796 90.4862C82.5586 91.3312 84.4536 93.9552 84.7936 95.7662C85.2986 98.4592 84.6036 100.911 82.7666 102.916L81.0866 104.751L71.9226 105.032C54.7906 105.556 6.84958 105.463 5.25758 104.902ZM11.2316 85.8642C11.0976 85.5132 11.0476 80.3992 11.1226 74.5002L11.2576 63.7742L13.8646 62.0122C15.2986 61.0442 16.4796 59.9922 16.4896 59.6762C16.4996 59.3602 15.3906 58.7002 14.0256 58.2092C12.6606 57.7182 11.4776 57.0772 11.3976 56.7842C11.3176 56.4912 11.3656 47.8132 11.5046 37.5012L11.7576 18.7512L42.6326 18.6222L73.5076 18.4932V37.0102V55.5262L71.9976 55.8282C69.7616 56.2752 69.6976 56.8912 71.6766 58.9212C72.9256 60.2042 73.5626 61.3972 73.8026 62.9112C74.1296 64.9642 74.0416 65.1782 72.0526 67.2052C69.8706 69.4282 69.9146 70.1452 72.2576 70.5792C73.2006 70.7532 73.2656 71.2152 73.3956 78.6322L73.5326 86.5012H42.5046C17.8226 86.5012 11.4266 86.3712 11.2316 85.8642ZM60.7576 74.0012V72.2512H42.2576H23.7576L23.5926 73.4122C23.2096 76.1152 22.5136 76.0242 42.3696 75.8822L60.7576 75.7512V74.0012ZM42.0936 57.3762C44.1826 55.1072 49.7426 49.2172 54.4496 44.2872C59.1566 39.3572 63.0076 35.0462 63.0076 34.7082C63.0076 34.0882 58.1996 29.5012 57.5496 29.5012C57.2026 29.5012 50.8086 35.9742 42.3356 44.9032C39.9076 47.4622 37.7346 49.4872 37.5056 49.4032C37.2766 49.3202 35.2496 47.4802 33.0016 45.3142L28.9136 41.3782L26.2106 44.0472C24.7236 45.5162 23.5076 46.9312 23.5076 47.1942C23.5076 47.8612 37.0896 61.5012 37.7536 61.5012C38.0516 61.5012 40.0046 59.6452 42.0936 57.3762ZM4.02258 14.6072C0.35958 12.8002 -1.08142 7.32419 1.08958 3.46219C3.12858 -0.165813 1.12958 0.0011868 42.5906 0.0011868C77.9056 0.0011868 79.8606 0.048187 81.5156 0.933187C83.9426 2.23019 85.2216 4.61619 85.2216 7.84319C85.2216 10.6862 84.3416 12.3342 81.8156 14.2202C80.4526 15.2372 79.9446 15.2522 43.0966 15.3572C8.72958 15.4552 5.61958 15.3952 4.02258 14.6072Z" fill="black"/>
</svg>
