<svg xmlns="http://www.w3.org/2000/svg" viewBox="0 0 267 269" width="267" height="269"><path d="M 121.500,253.232 C 117.787,252.900 113.850,252.470 112.750,252.278 C 103.399,250.643 97.648,249.206 93.306,247.418 C 91.412,246.638 89.666,246.000 89.426,246.000 C 89.186,246.000 88.035,245.578 86.870,245.062 C 85.704,244.547 83.287,243.523 81.500,242.787 C 76.656,240.793 65.511,234.293 61.115,230.897 C 49.607,222.010 42.130,214.657 34.314,204.539 C 31.758,201.231 30.530,199.333 26.845,193.000 C 24.883,189.627 22.222,184.232 21.543,182.250 C 21.166,181.150 20.321,179.068 19.664,177.624 C 16.948,171.652 13.560,159.588 12.537,152.250 C 10.034,134.294 11.543,115.467 16.743,99.750 C 18.015,95.908 22.531,84.913 24.303,81.346 C 29.492,70.904 41.086,55.050 48.043,48.885 C 59.960,38.325 67.743,32.877 78.147,27.812 C 88.322,22.859 89.758,22.305 102.250,18.515 C 115.660,14.447 140.885,13.872 156.131,17.288 C 161.398,18.468 171.769,21.845 175.321,23.537 C 177.011,24.342 178.532,25.000 178.702,25.000 C 179.317,25.000 183.879,27.285 190.000,30.659 C 205.175,39.025 214.667,47.378 226.905,63.137 C 237.585,76.888 246.189,97.056 249.458,116.000 C 251.363,127.036 250.894,146.316 248.425,158.500 C 247.193,164.576 243.714,175.873 241.653,180.487 C 234.649,196.169 227.981,206.075 215.786,218.921 C 212.713,222.157 201.733,230.903 196.293,234.446 C 191.378,237.647 178.670,243.983 173.000,246.060 C 155.870,252.332 138.483,254.753 121.500,253.232 Z M 145.750,228.587 C 147.125,228.308 149.713,227.812 151.500,227.485 C 161.645,225.626 175.442,219.719 184.944,213.168 C 197.466,204.535 209.503,191.081 215.587,178.921 C 221.014,168.074 223.651,160.260 225.518,149.500 C 227.005,140.931 227.229,134.355 226.299,126.580 C 224.847,114.446 222.708,106.004 218.741,96.750 C 212.256,81.619 204.282,71.092 191.332,60.562 C 183.147,53.907 182.320,53.319 177.500,50.716 C 144.338,32.808 102.833,35.809 74.037,58.197 C 66.314,64.202 60.994,69.449 56.306,75.683 C 46.398,88.862 42.077,97.275 39.065,109.250 C 36.468,119.580 35.790,124.885 35.808,134.750 C 35.824,144.117 36.375,148.757 38.538,157.761 C 44.622,183.092 63.671,206.672 88.500,219.608 C 97.729,224.417 111.192,228.296 121.750,229.188 C 125.714,229.523 143.306,229.082 145.750,228.587 Z M 127.234,205.458 C 117.876,204.760 108.828,202.506 101.309,198.999 C 98.951,197.900 96.896,197.000 96.742,197.000 C 96.049,197.000 87.378,190.796 83.883,187.800 C 73.499,178.897 65.027,165.473 61.761,152.750 C 60.178,146.583 59.787,142.877 59.783,134.000 C 59.777,123.756 60.265,120.605 63.234,111.709 C 66.028,103.337 69.247,97.473 75.379,89.584 C 78.619,85.417 86.161,78.446 91.250,74.916 C 95.171,72.195 104.275,67.771 108.555,66.506 C 118.569,63.546 132.133,62.180 138.850,63.456 C 140.170,63.706 142.938,64.173 145.000,64.492 C 151.547,65.506 156.070,66.973 162.750,70.248 C 175.586,76.542 184.224,84.369 192.547,97.250 C 199.475,107.971 203.518,123.765 202.850,137.500 C 201.330,168.791 180.808,194.559 150.750,202.919 C 144.925,204.539 142.936,204.916 138.500,205.243 C 136.162,205.415 133.800,205.618 133.250,205.694 C 132.700,205.770 129.993,205.664 127.234,205.458 Z M 135.524,181.474 C 148.466,180.145 157.728,175.618 166.180,166.489 C 177.849,153.885 181.956,135.869 176.728,120.222 C 173.432,110.360 167.923,102.525 160.250,96.791 C 155.712,93.400 153.207,91.991 147.940,89.868 C 141.165,87.137 139.018,86.746 131.000,86.785 C 125.046,86.814 122.990,87.028 119.500,87.981 C 114.869,89.245 108.963,91.976 104.609,94.866 C 100.811,97.386 94.603,103.585 92.015,107.441 C 89.776,110.777 86.307,117.855 85.860,120.000 C 85.717,120.688 85.223,122.600 84.762,124.250 C 84.154,126.425 83.923,129.244 83.923,134.500 C 83.922,142.026 84.490,145.270 86.979,151.982 C 90.470,161.396 100.247,172.082 109.770,176.893 C 114.624,179.345 122.652,181.389 129.572,181.935 C 130.024,181.971 132.703,181.763 135.524,181.474 Z M 126.250,158.142 C 125.425,158.028 122.915,157.053 120.673,155.976 C 115.722,153.598 111.926,149.677 109.107,144.028 C 107.438,140.683 107.233,139.838 107.077,135.667 C 106.801,128.240 108.925,123.044 114.541,117.417 C 118.762,113.187 124.354,111.014 131.042,111.005 C 135.821,110.999 140.179,112.157 143.685,114.363 C 147.101,116.512 151.268,121.156 153.075,124.827 C 154.717,128.165 154.750,128.362 154.750,134.788 L 154.750,141.344 L 152.800,145.185 C 150.509,149.698 146.098,154.144 141.854,156.221 C 137.992,158.110 131.652,158.891 126.250,158.142 Z" fill="#000000" fill-rule="evenodd" /></svg>