<svg width="100" height="93" viewBox="0 0 100 93" fill="none" xmlns="http://www.w3.org/2000/svg">
<path fill-rule="evenodd" clip-rule="evenodd" d="M59.983 92.3004C59.571 92.2164 57.433 91.8924 55.233 91.5784C49.414 90.7494 41.523 89.5554 35.483 88.5884C33.97 88.3464 30.82 87.8844 28.483 87.5614C26.146 87.2384 22.208 86.6444 19.733 86.2404C17.258 85.8364 13.883 85.2914 12.233 85.0284C5.33098 83.9294 5.80398 84.2644 5.17998 80.0504C4.35298 74.4734 3.54398 69.1814 3.00198 65.8184C2.10298 60.2284 0.427978 49.3294 0.139978 47.1934C-0.140022 45.1204 -0.112021 45.0684 1.29298 45.0614C3.99998 45.0464 22.732 47.2144 23.233 47.5994C23.508 47.8114 23.733 49.4094 23.733 51.1514V54.3184L20.483 54.1924C18.695 54.1224 15.147 53.8004 12.598 53.4764C9.74098 53.1134 7.78998 53.0664 7.50998 53.3534C7.10398 53.7694 8.10598 61.9024 9.96898 73.3184C10.841 78.6624 10.983 78.8684 14.064 79.2554C17.604 79.7004 21.818 80.3084 29.983 81.5504C33.695 82.1154 38.364 82.8004 40.358 83.0734C42.352 83.3454 45.614 83.7914 47.608 84.0644C49.602 84.3374 52.694 84.7774 54.479 85.0434C56.264 85.3094 57.895 85.3564 58.103 85.1484C58.449 84.8024 59.446 67.3764 59.472 61.2244L59.483 58.6294L57.358 58.3784C56.189 58.2394 52.533 57.8694 49.233 57.5564C45.933 57.2424 42.727 56.7844 42.108 56.5374C40.836 56.0314 40.658 54.5104 41.51 51.4424L42.031 49.5654L45.632 49.8464C56.123 50.6654 65.264 51.6494 65.614 51.9994C65.831 52.2164 65.553 60.7994 64.996 71.0734C64.439 81.3464 63.983 90.3854 63.983 91.1604C63.983 92.4274 63.82 92.5624 62.358 92.5104C61.464 92.4784 60.395 92.3844 59.983 92.3004ZM66.827 85.2484C67.204 75.3774 68.751 51.6334 69.036 51.3494C69.167 51.2174 70.615 50.7484 72.254 50.3064C73.892 49.8644 77.258 48.9584 79.733 48.2944C82.208 47.6294 86.258 46.5114 88.733 45.8094C91.208 45.1074 93.989 44.3944 94.914 44.2264C96.548 43.9284 96.588 43.9604 96.323 45.3684C95.775 48.2904 92.196 71.3194 91.202 78.3184C91.046 79.4184 90.826 80.7854 90.713 81.3564C90.499 82.4384 88.748 83.3484 78.733 87.5814C75.983 88.7434 72.777 90.1214 71.608 90.6434C70.439 91.1664 68.826 91.7244 68.023 91.8854L66.562 92.1774L66.827 85.2484ZM75.571 82.8924C77.585 81.9714 80.659 80.6774 82.401 80.0174C84.144 79.3584 85.749 78.4804 85.968 78.0684C86.187 77.6564 86.619 75.5184 86.928 73.3184C87.238 71.1184 87.935 66.2814 88.478 62.5684C89.814 53.4454 89.802 53.0684 88.183 53.0684C87.467 53.0684 84.599 53.7234 81.808 54.5234C79.017 55.3234 76.017 56.1254 75.143 56.3054C72.346 56.8804 72.479 56.2574 71.431 73.6824C70.924 82.1164 70.98 84.5684 71.681 84.5684C71.807 84.5684 73.558 83.8144 75.571 82.8924ZM51.733 82.0424C49.047 81.6124 44.143 80.9204 37.733 80.0684C21.609 77.9254 13.919 76.7044 13.426 76.2114C12.939 75.7244 11.983 71.0644 11.983 69.1774C11.983 67.9324 12.008 67.9254 15.358 68.2244C27.164 69.2754 35.095 70.1054 37.483 70.5394C38.996 70.8144 43.383 71.4104 47.233 71.8644C57.035 73.0184 56.571 72.7374 56.443 77.4434C56.289 83.1034 56.579 82.8204 51.733 82.0424ZM45.733 69.2174C39.484 68.4764 38.426 68.0924 39.4 66.9174C39.717 66.5364 40.165 64.8394 40.397 63.1464C40.628 61.4524 40.945 59.9404 41.1 59.7854C41.375 59.5104 51.36 60.3044 55.108 60.8984C56.876 61.1794 56.983 61.2994 56.979 63.0074C56.976 64.0034 56.832 65.9994 56.659 67.4434L56.344 70.0684L54.038 69.9984C52.77 69.9604 49.033 69.6094 45.733 69.2174ZM18.233 65.9914C11.395 65.3924 11.297 65.3344 10.58 61.4404C9.52498 55.7194 9.44498 55.8694 13.358 56.2664C15.214 56.4554 18.384 56.7464 20.403 56.9144C22.421 57.0824 24.146 57.4664 24.236 57.7694C24.327 58.0714 24.537 60.1744 24.703 62.4434C24.979 66.1894 24.925 66.5624 24.12 66.4994C23.632 66.4614 20.983 66.2334 18.233 65.9914ZM32.075 65.9454C27.158 65.3734 27.275 65.5364 26.783 58.5684C26.598 55.9564 26.329 52.9184 26.184 51.8184C26.013 50.5264 26.165 49.4884 26.613 48.8854C27.268 48.0014 27.594 47.9864 32.769 48.6064C35.774 48.9654 38.357 49.4404 38.509 49.6594C38.662 49.8794 38.617 51.5794 38.41 53.4384C38.203 55.2974 38.023 58.7424 38.009 61.0934C37.986 64.9344 37.483 66.7454 36.508 66.4984C36.357 66.4604 34.362 66.2114 32.075 65.9454ZM33.082 59.9434C34.096 59.1424 35.106 55.9704 34.691 54.8904C34.29 53.8444 32.085 53.2604 31.031 53.9204C29.925 54.6124 29.734 57.8644 30.712 59.3564C31.615 60.7354 31.97 60.8234 33.082 59.9434ZM61.743 48.5494C60.923 48.2984 59.461 48.2154 58.493 48.3644C57.525 48.5124 55.496 48.3124 53.983 47.9194L51.233 47.2044L51.136 44.9734C50.95 40.6974 53.974 37.8914 58.795 37.8674C60.824 37.8564 61.728 38.1364 63.135 39.2104C66.041 41.4264 67.2 43.4384 67.217 46.2994L67.233 48.8184L65.233 48.9124C64.133 48.9634 62.562 48.8004 61.743 48.5494ZM69.983 46.0924C69.983 45.0044 69.717 43.5324 69.392 42.8194C68.874 41.6814 68.95 41.3734 70.017 40.3074C70.686 39.6394 71.964 38.9464 72.858 38.7684C74.243 38.4914 74.483 38.5864 74.483 39.4104C74.483 39.9424 74.153 40.8144 73.749 41.3474C72.805 42.5954 72.778 44.0684 73.699 44.0684C74.093 44.0684 74.558 44.5184 74.733 45.0684C74.908 45.6184 75.245 46.0684 75.483 46.0684C76.008 46.0684 76.686 44.1054 76.296 43.7154C76.143 43.5624 76.236 43.0304 76.502 42.5334C76.818 41.9434 76.812 41.5214 76.484 41.3194C76.209 41.1484 75.983 40.4864 75.983 39.8474C75.983 38.5284 77.058 38.0864 80.288 38.0754C81.985 38.0694 82.746 38.4234 84.663 40.1104C85.939 41.2344 86.983 42.4254 86.983 42.7574C86.983 43.0894 84.902 43.9894 82.358 44.7574C79.814 45.5254 76.336 46.5844 74.628 47.1114C70.209 48.4734 69.983 48.4244 69.983 46.0924ZM44.941 47.3704C44.827 47.2614 42.933 47.0244 40.733 46.8444C33.265 46.2314 30.817 45.8274 30.6 45.1734C30.269 44.1734 33.684 41.2654 35.818 40.7294C38.982 39.9344 43.514 40.6354 46.292 42.3484C48.419 43.6604 48.753 44.0924 48.888 45.7114C49.043 47.5624 49.037 47.5684 47.097 47.5684C46.026 47.5684 45.056 47.4794 44.941 47.3704ZM38.465 44.8404C39.152 44.0124 38.762 43.0684 37.733 43.0684C36.833 43.0684 36.321 43.9254 36.673 44.8424C37.028 45.7684 37.696 45.7674 38.465 44.8404ZM44.895 44.7474C44.708 43.7984 43.184 42.7004 42.711 43.1734C42.536 43.3494 42.54 43.9604 42.721 44.5304C43.121 45.7914 45.14 45.9924 44.895 44.7474ZM20.233 44.4674C11.325 43.8724 11.268 43.8504 11.079 40.9034C10.938 38.6924 11.077 38.3564 12.896 36.5384C14.437 34.9964 15.245 34.5684 16.613 34.5684C18.484 34.5684 19.767 35.6074 19.323 36.7634C19.174 37.1524 19.36 37.8864 19.737 38.3944C20.392 39.2774 20.461 39.2794 21.318 38.4354C22.072 37.6914 22.114 37.3924 21.581 36.5404C20.132 34.2194 22.852 33.8574 25.783 35.9814C27.633 37.3214 30.483 40.5854 30.483 41.3624C30.483 42.1054 27.909 45.0654 27.333 44.9854C27.003 44.9394 23.808 44.7064 20.233 44.4674ZM46.124 39.7394C44.848 38.9964 42.777 38.3744 40.881 38.1644C37.116 37.7484 36.57 36.7874 39.082 34.9964C43.337 31.9614 51.137 35.6444 49.744 40.0324C49.334 41.3264 48.77 41.2814 46.124 39.7394ZM86.528 38.5434C82.871 35.8674 81.096 35.4574 75.957 36.1014C71.293 36.6864 71.157 36.6234 69.673 33.1934C69.286 32.2994 68.793 31.5684 68.576 31.5684C67.853 31.5684 67.058 32.6824 67.311 33.3414C67.448 33.6984 67.079 34.2494 66.491 34.5644C65.169 35.2714 65.41 36.1974 67.017 36.5764C68.351 36.8914 68.749 37.9114 67.99 39.0684C67.578 39.6964 67.252 39.5574 65.981 38.2104C65.118 37.2954 63.551 36.3544 62.348 36.0294C59.973 35.3874 54.654 35.6974 53.825 36.5264C53.05 37.3014 51.983 37.1954 51.983 36.3434C51.983 35.4034 49.308 33.4414 46.598 32.3934C43.691 31.2694 40.712 31.3454 38.692 32.5934L37.033 33.6184L35.883 32.5704C35.251 31.9934 34.283 31.0894 33.732 30.5624C33.182 30.0354 31.832 29.4174 30.732 29.1894C28.848 28.7984 28.704 28.6394 28.233 26.4224C27.623 23.5524 26.875 23.3514 26.309 25.9064C25.758 28.3954 25.284 29.2884 24.429 29.4504C23.433 29.6394 9.48298 17.5184 9.48298 16.4644C9.48298 15.9244 15.707 15.9564 31.983 16.5794C39.545 16.8694 51.483 17.2804 58.511 17.4934L71.289 17.8804L73.309 20.0994C74.42 21.3204 77.197 24.5684 79.48 27.3184C81.764 30.0684 84.811 33.5554 86.251 35.0684C89.265 38.2344 90.723 40.6124 89.608 40.5464C89.402 40.5344 88.016 39.6324 86.528 38.5434ZM57.758 31.0194C58.258 30.0524 59.041 29.4314 60.005 29.2394C61.86 28.8684 61.909 28.1804 60.108 27.7864C59.352 27.6204 58.456 27.3994 58.117 27.2954C57.778 27.1914 57.356 26.1984 57.178 25.0874C56.979 23.8414 56.587 23.0684 56.153 23.0684C55.436 23.0684 55.271 23.3744 54.795 25.5764C54.619 26.3884 53.984 27.0374 53.003 27.4074C51.007 28.1614 51.081 28.8584 53.233 29.5684C54.332 29.9314 54.983 30.4664 54.983 31.0074C54.983 32.0364 55.971 33.1344 56.567 32.7664C56.8 32.6224 57.336 31.8364 57.758 31.0194ZM38.623 24.7864C38.992 24.0814 39.818 23.2374 40.458 22.9114C41.966 22.1424 42.03 21.3604 40.602 21.1584C39.958 21.0664 39.146 20.3674 38.715 19.5334C37.765 17.6974 37.096 17.6644 36.891 19.4434C36.767 20.5234 36.438 20.8524 35.358 20.9764C33.52 21.1884 33.379 23.3084 35.173 23.7584C35.828 23.9234 36.482 24.5104 36.626 25.0634C36.986 26.4394 37.817 26.3244 38.623 24.7864ZM93.182 38.6914L92.13 37.3764L93.332 35.0604C95.513 30.8564 96.036 21.3554 94.35 16.5674C92.635 11.6974 88.297 6.79341 84.74 5.70141C81.341 4.65841 77.445 7.15141 73.882 12.6494C73.02 13.9794 72.071 15.0784 71.774 15.0904C64.847 15.3674 42.773 14.5254 42.21 13.9614C41.871 13.6234 44.291 9.39741 45.396 8.39641C46.214 7.65741 47.45 7.60341 56.906 7.89841C66.888 8.20841 67.483 8.28141 67.208 9.14841C66.992 9.82741 67.171 10.0684 67.891 10.0684C68.832 10.0684 70.691 8.22941 73.632 4.38841C75.491 1.96141 77.804 1.06841 82.233 1.06841C87.825 1.06841 91.897 3.30841 95.072 8.13141C99.986 15.5964 100.66 24.5914 97.137 35.6934C95.622 40.4664 94.986 40.9484 93.182 38.6914ZM30.886 37.0024C29.977 35.8664 28.691 34.4024 28.03 33.7474C27.368 33.0934 26.918 32.4794 27.03 32.3814C27.141 32.2844 28.752 32.0554 30.608 31.8724C33.71 31.5674 33.983 31.6174 33.983 32.4934C33.983 33.0174 34.32 33.7264 34.733 34.0684C35.787 34.9434 35.665 36.8864 34.483 38.0684C33.098 39.4534 32.77 39.3564 30.886 37.0024ZM85.983 30.6654C75.063 18.1014 74.308 17.0784 74.998 15.7894C76.467 13.0464 80.525 9.10541 82.208 8.79041C85.722 8.13041 90.032 11.7454 92.03 17.0284C92.913 19.3614 93.046 20.5564 92.842 24.3184C92.603 28.7164 91.469 33.2384 90.312 34.3994C89.873 34.8394 88.827 33.9364 85.983 30.6654ZM16.286 31.6274C15.703 30.9834 15.538 30.2724 15.763 29.3774C16.107 28.0054 16.372 27.8444 17.288 28.4514C18.093 28.9834 19.498 31.8864 19.13 32.2554C18.521 32.8644 17.127 32.5564 16.286 31.6274ZM17.149 13.5984C11.053 13.4444 5.91098 13.1644 5.72298 12.9754C4.75798 12.0084 11.097 2.73541 13.87 1.05841C15.442 0.107411 20.983 -0.406589 20.983 0.398411C20.983 0.579411 19.719 2.05341 18.174 3.67241C16.629 5.29241 15.5 6.75241 15.665 6.91641C15.829 7.08141 19.26 7.16741 23.29 7.10841C30.199 7.00741 30.594 7.05241 30.235 7.90941C29.527 9.59941 29.386 10.9494 29.886 11.2584C30.406 11.5804 31.776 10.1174 35.425 5.34141C38.484 1.33741 39.917 0.572411 44.358 0.570411C46.352 0.569411 47.983 0.758412 47.983 0.991412C47.983 1.22341 47.505 1.84241 46.92 2.36641C45.518 3.62341 41.089 10.1924 40.184 12.3584L39.47 14.0684L33.851 13.9734C30.761 13.9214 23.245 13.7524 17.149 13.5984ZM50.858 5.20441C48.547 4.96241 48.45 4.10541 50.537 2.35041L52.09 1.04341L62.287 1.08941C67.895 1.11541 72.483 1.30541 72.483 1.51141C72.483 1.71841 71.746 2.71541 70.845 3.72741L69.208 5.56841L60.97 5.48441C56.44 5.43841 51.889 5.31241 50.858 5.20441ZM26.108 4.20441C23.564 4.10841 21.485 3.87041 21.486 3.67441C21.488 3.47841 22.233 2.81241 23.142 2.19341C24.592 1.20641 25.427 1.06841 29.953 1.06841H35.111L33.862 2.69341C32.487 4.48341 32.659 4.44941 26.108 4.20441ZM73.542 77.4434C73.653 71.5744 73.564 71.6934 79.382 69.7074C82.214 68.7414 84.668 68.0864 84.835 68.2534C85.002 68.4204 84.822 70.3774 84.436 72.6014L83.733 76.6444L78.983 78.6034C76.371 79.6804 74.064 80.5634 73.858 80.5654C73.652 80.5674 73.51 79.1624 73.542 77.4434ZM74.317 68.1564C74.219 67.9704 74.272 65.9064 74.436 63.5694L74.733 59.3204L80.61 57.6134C83.842 56.6734 86.579 55.9984 86.692 56.1114C86.806 56.2254 86.627 58.2134 86.296 60.5294L85.694 64.7404L81.464 66.1944C75.266 68.3234 74.515 68.5294 74.317 68.1564Z" fill="black"/>
</svg>
