<svg xmlns="http://www.w3.org/2000/svg" viewBox="0 0 466 583" width="466" height="583"><path d="M 226.748,562.177 C 223.449,559.799 218.082,555.693 214.822,553.052 C 211.562,550.411 207.287,547.027 205.322,545.533 C 191.250,534.828 160.644,505.267 147.050,489.250 C 140.392,481.405 126.486,463.832 125.072,461.477 C 124.620,460.724 122.852,458.228 121.142,455.929 C 119.433,453.631 117.352,450.828 116.517,449.701 C 115.683,448.574 115.000,447.484 115.000,447.278 C 115.000,447.073 113.795,445.070 112.323,442.827 C 110.850,440.585 108.708,437.153 107.562,435.202 C 106.416,433.250 104.973,431.179 104.355,430.599 L 103.232,429.544 L 95.991,430.507 C 92.008,431.037 85.713,431.942 82.000,432.518 C 78.287,433.095 72.438,433.991 69.000,434.509 C 61.109,435.698 57.163,436.381 55.952,436.765 C 54.368,437.268 54.796,435.426 57.076,431.932 C 58.218,430.182 61.288,425.488 63.898,421.500 C 66.509,417.512 69.895,412.337 71.425,410.000 C 72.954,407.663 75.059,404.762 76.103,403.555 C 77.146,402.347 78.000,401.150 78.000,400.895 C 78.000,400.639 78.644,399.490 79.432,398.340 C 80.219,397.191 81.354,395.282 81.955,394.099 L 83.046,391.949 L 81.699,388.099 C 80.958,385.982 79.690,382.562 78.881,380.500 C 78.072,378.438 76.847,375.062 76.159,373.000 C 75.471,370.938 74.273,367.675 73.498,365.750 C 72.722,363.825 71.827,361.350 71.509,360.250 C 71.191,359.150 70.736,357.800 70.498,357.250 C 69.724,355.463 64.662,338.998 62.734,332.000 C 60.963,325.569 60.218,322.501 58.547,314.750 C 55.705,301.567 54.205,293.397 51.776,277.875 C 50.187,267.718 48.430,249.314 47.491,233.000 C 46.393,213.914 46.155,205.647 46.063,183.364 C 45.999,167.956 45.787,160.032 45.413,159.114 C 43.955,155.531 42.804,153.138 41.976,151.971 C 41.477,151.268 36.538,141.718 31.000,130.750 C 25.462,119.782 20.526,110.232 20.031,109.529 C 19.536,108.825 18.979,107.761 18.794,107.163 C 18.608,106.565 17.890,105.240 17.197,104.219 C 14.803,100.692 15.994,100.887 26.890,105.808 C 28.342,106.464 29.640,107.000 29.776,107.000 C 29.911,107.000 31.952,107.900 34.310,109.000 C 36.669,110.100 38.669,111.000 38.753,111.000 C 38.838,111.000 41.122,112.034 43.829,113.299 C 46.535,114.563 50.325,116.333 52.250,117.232 C 54.175,118.131 59.047,120.359 63.078,122.183 L 70.405,125.500 L 75.828,125.497 C 78.810,125.495 83.500,125.157 86.250,124.745 C 93.173,123.707 107.534,120.735 111.750,119.467 C 113.675,118.888 116.150,118.175 117.250,117.884 C 118.350,117.592 119.520,117.143 119.850,116.886 C 120.892,116.075 121.024,113.628 121.815,80.607 C 121.995,73.103 122.300,67.028 122.494,67.107 C 122.687,67.186 124.610,69.360 126.766,71.939 C 128.922,74.518 132.730,78.793 135.227,81.439 C 137.724,84.085 141.449,88.275 143.505,90.750 C 148.655,96.948 154.493,103.000 155.322,103.000 C 156.510,103.000 171.761,95.865 175.000,93.793 C 175.963,93.178 180.111,90.675 184.220,88.231 C 196.588,80.873 212.688,68.931 213.938,66.186 C 214.276,65.446 215.189,62.907 215.968,60.545 C 217.516,55.854 222.582,42.297 223.833,39.500 C 224.263,38.538 225.467,35.275 226.508,32.250 C 227.550,29.225 229.336,24.275 230.478,21.250 C 231.620,18.225 232.654,15.450 232.777,15.083 C 233.250,13.671 234.217,14.959 235.550,18.777 C 236.312,20.962 238.093,26.125 239.506,30.250 C 243.675,42.416 250.794,60.996 253.108,65.750 C 254.200,67.995 254.638,68.410 262.000,74.185 C 269.487,80.058 277.082,85.185 286.000,90.386 C 295.139,95.715 309.475,103.000 310.824,103.000 C 311.728,103.000 318.228,96.752 321.229,93.000 C 321.999,92.037 325.166,88.550 328.267,85.250 C 331.368,81.950 335.107,77.787 336.575,76.000 C 338.044,74.213 339.992,71.930 340.903,70.929 C 341.815,69.927 342.866,68.690 343.240,68.180 C 344.211,66.852 344.720,67.672 344.777,70.656 C 345.527,110.015 345.700,115.578 346.198,116.219 C 346.775,116.962 355.082,119.492 360.250,120.498 C 361.900,120.819 364.375,121.400 365.750,121.790 C 368.867,122.674 380.272,124.761 386.226,125.537 C 393.687,126.510 395.990,126.092 403.607,122.384 C 410.426,119.065 421.734,113.904 427.500,111.479 C 431.423,109.829 442.783,104.562 446.250,102.785 C 450.223,100.749 450.785,101.079 448.934,104.360 C 447.200,107.432 444.966,111.904 437.251,127.750 C 433.234,136.000 427.947,146.800 425.503,151.750 L 421.058,160.750 L 420.806,184.000 C 420.427,219.030 417.811,258.597 414.493,279.500 C 413.894,283.269 411.694,296.432 411.234,299.000 C 410.198,304.772 409.348,309.117 408.739,311.750 C 408.357,313.400 407.373,317.788 406.552,321.500 C 405.244,327.419 404.190,331.492 399.439,349.000 C 398.105,353.915 394.713,364.027 393.232,367.500 C 390.643,373.573 389.309,377.099 386.714,384.733 L 384.000,392.716 L 386.875,397.300 C 388.456,399.822 391.325,404.257 393.250,407.156 C 395.175,410.055 397.805,414.074 399.094,416.088 C 400.384,418.102 403.491,422.788 405.998,426.500 C 410.907,433.768 412.208,435.958 411.837,436.329 C 411.707,436.460 410.059,436.334 408.175,436.052 C 401.146,434.996 394.122,433.995 390.000,433.461 C 387.663,433.158 383.837,432.583 381.500,432.182 C 373.715,430.849 364.289,429.612 363.683,429.845 C 363.354,429.971 362.528,430.902 361.847,431.912 C 358.804,436.434 353.819,444.360 352.701,446.454 C 352.027,447.717 350.862,449.594 350.113,450.625 C 349.363,451.657 346.286,455.932 343.274,460.125 C 335.982,470.277 329.521,478.367 318.566,491.060 C 313.526,496.900 287.531,523.266 281.653,528.500 C 264.613,543.673 235.501,566.500 233.189,566.500 C 232.945,566.500 230.047,564.554 226.748,562.177 Z M 238.024,535.873 C 241.653,533.428 242.926,528.411 240.909,524.504 C 239.412,521.603 237.019,520.000 234.186,520.000 C 230.804,520.000 228.184,521.303 226.425,523.859 C 225.038,525.874 224.908,526.387 225.101,529.054 C 225.338,532.334 226.320,534.055 228.995,535.875 C 231.305,537.448 235.689,537.447 238.024,535.873 Z M 215.964,504.125 C 216.330,503.094 217.613,499.934 218.815,497.103 C 220.017,494.272 221.000,491.747 221.000,491.492 C 221.000,491.238 221.561,489.804 222.246,488.305 C 222.932,486.807 224.071,483.931 224.778,481.915 C 225.486,479.899 226.972,475.887 228.081,473.000 C 229.191,470.113 230.549,466.512 231.099,465.000 C 231.650,463.488 232.330,461.631 232.611,460.875 C 233.109,459.535 234.000,458.984 234.000,460.016 C 234.000,460.300 234.891,462.832 235.979,465.641 C 237.068,468.451 239.110,473.900 240.518,477.750 C 243.754,486.602 247.686,496.803 249.049,499.879 C 250.326,502.760 250.822,503.977 251.189,505.125 C 251.343,505.606 251.648,506.000 251.868,506.000 C 252.246,506.000 255.546,502.995 269.895,489.590 C 282.112,478.176 299.561,458.753 309.137,445.908 C 316.349,436.234 326.655,420.904 329.748,415.250 C 330.500,413.875 331.510,412.188 331.993,411.500 C 333.309,409.627 335.500,405.134 335.500,404.308 C 335.500,403.909 334.205,401.033 332.623,397.916 C 329.204,391.182 325.969,384.257 324.540,380.615 C 323.972,379.166 322.945,376.871 322.258,375.516 C 321.572,374.161 321.189,372.942 321.408,372.807 C 321.789,372.572 329.138,373.594 338.750,375.220 C 348.760,376.913 349.992,377.070 350.928,376.773 C 351.848,376.481 352.946,374.104 356.019,365.750 C 359.828,355.396 360.689,352.957 361.814,349.341 C 362.513,347.091 363.490,344.125 363.985,342.750 C 366.453,335.886 369.051,326.150 372.456,311.000 C 376.465,293.161 377.222,289.033 381.028,264.250 C 382.264,256.202 383.602,241.751 384.476,227.000 C 385.260,213.766 385.996,183.822 385.547,183.359 C 385.339,183.145 383.837,183.333 382.209,183.778 C 380.582,184.223 378.575,184.771 377.750,184.996 C 374.265,185.948 363.094,189.452 361.250,190.171 C 358.859,191.105 353.676,192.592 353.135,192.500 C 352.532,192.397 352.828,191.420 356.846,180.250 C 364.636,158.599 364.490,159.061 363.775,158.346 C 363.413,157.984 358.759,156.625 353.433,155.325 C 343.474,152.895 340.369,152.046 331.750,149.396 C 320.156,145.831 313.130,143.178 300.250,137.499 C 299.150,137.014 296.562,135.886 294.500,134.993 C 284.755,130.770 271.674,123.546 259.526,115.679 C 253.009,111.459 253.241,111.440 251.705,116.322 C 251.237,117.812 250.661,119.150 250.427,119.295 C 250.192,119.440 250.000,119.886 250.000,120.285 C 250.000,120.684 249.576,121.965 249.057,123.130 C 248.539,124.296 247.617,126.600 247.009,128.250 C 246.400,129.900 245.710,131.700 245.474,132.250 C 244.206,135.206 243.274,137.673 241.978,141.500 C 241.186,143.838 239.067,149.328 237.269,153.700 C 235.471,158.073 234.000,161.971 234.000,162.362 C 234.000,163.446 232.285,162.888 232.102,161.744 C 231.921,160.615 231.174,158.546 227.498,149.000 C 226.069,145.287 223.776,139.325 222.403,135.750 C 221.030,132.175 219.709,128.800 219.466,128.250 C 219.224,127.700 218.540,125.900 217.946,124.250 C 217.353,122.600 216.712,121.025 216.523,120.750 C 216.334,120.475 215.640,118.624 214.980,116.636 C 214.321,114.649 213.469,112.903 213.088,112.757 C 212.707,112.611 211.044,113.337 209.393,114.371 C 207.741,115.404 205.774,116.620 205.022,117.072 C 204.270,117.523 200.301,119.916 196.202,122.389 C 183.949,129.782 176.738,133.521 167.000,137.529 C 146.052,146.152 147.074,145.778 130.750,150.783 C 123.399,153.037 113.121,155.691 108.609,156.501 C 103.192,157.473 102.833,157.700 103.240,159.888 C 103.803,162.921 110.820,183.412 112.831,187.901 C 113.621,189.662 114.302,193.000 113.872,193.000 C 113.575,193.000 105.268,190.249 98.935,188.053 C 93.590,186.199 86.425,184.443 83.758,184.333 L 81.750,184.250 L 81.605,197.750 C 81.245,231.163 85.183,269.194 92.503,303.000 C 93.069,305.613 93.860,309.325 94.260,311.250 C 96.557,322.282 103.445,346.820 105.488,351.250 C 105.742,351.800 106.277,353.262 106.677,354.500 C 108.502,360.150 114.891,375.934 115.716,376.831 C 116.269,377.433 119.834,376.968 133.750,374.478 C 137.050,373.888 140.658,373.244 141.768,373.048 C 142.878,372.851 144.044,372.532 144.359,372.337 C 146.637,370.929 144.054,377.791 136.581,392.996 C 131.064,404.220 130.840,405.384 133.461,409.193 C 134.307,410.424 135.000,411.582 135.000,411.768 C 135.000,411.953 135.675,413.105 136.500,414.328 C 137.325,415.550 138.000,416.624 138.000,416.714 C 138.000,417.158 141.889,423.273 145.397,428.345 C 145.932,429.118 147.447,431.429 148.765,433.480 C 150.082,435.532 152.080,438.367 153.205,439.780 C 154.330,441.193 156.488,443.972 158.000,445.955 C 159.512,447.938 161.132,450.054 161.600,450.656 C 165.155,455.236 173.358,464.958 174.524,465.973 C 175.014,466.401 177.377,469.000 179.774,471.750 C 184.403,477.061 192.981,485.954 198.136,490.789 C 199.849,492.396 204.132,496.475 207.654,499.855 C 211.177,503.235 214.338,506.000 214.679,506.000 C 215.020,506.000 215.598,505.156 215.964,504.125 Z M 363.809,409.737 C 367.582,408.211 369.430,403.080 367.771,398.736 C 366.318,394.931 363.819,393.683 358.142,393.930 C 355.753,394.034 353.314,396.423 352.338,399.614 C 351.310,402.975 351.715,404.824 354.104,407.677 C 356.768,410.857 359.568,411.451 363.809,409.737 Z M 111.474,409.018 C 114.875,406.597 115.968,401.472 113.867,397.797 C 112.335,395.118 110.517,393.903 107.625,393.625 C 104.946,393.368 102.079,394.477 100.278,396.468 C 99.127,397.741 98.018,400.720 98.008,402.568 C 97.995,404.722 100.390,408.615 102.447,409.784 C 104.364,410.874 109.477,410.441 111.474,409.018 Z M 77.500,162.854 C 80.311,161.475 81.498,159.289 81.499,155.492 C 81.500,151.874 80.262,149.602 77.494,148.137 C 75.085,146.864 73.483,146.738 70.194,147.566 C 67.091,148.348 64.500,151.657 64.500,154.838 C 64.500,157.653 65.498,160.012 67.498,161.923 C 69.943,164.260 73.888,164.627 77.500,162.854 Z M 398.203,162.867 C 401.437,161.017 402.253,159.487 402.231,155.313 C 402.208,151.122 401.016,148.874 398.192,147.693 C 394.216,146.032 388.650,147.212 386.831,150.101 C 385.039,152.948 384.758,154.812 385.680,157.735 C 387.405,163.209 393.347,165.644 398.203,162.867 Z M 235.533,99.431 C 238.933,98.412 242.000,94.186 242.000,90.519 C 242.000,88.681 240.281,85.294 238.728,84.072 C 235.450,81.493 230.699,81.478 227.784,84.037 C 222.438,88.731 223.810,96.947 230.328,99.271 C 232.720,100.124 233.175,100.138 235.533,99.431 Z M 199.920,471.097 C 187.896,458.972 182.343,452.731 175.818,444.004 C 173.040,440.289 170.532,437.002 170.243,436.699 C 169.728,436.157 165.584,430.679 161.961,425.750 C 159.427,422.302 154.000,414.150 154.000,413.791 C 154.000,413.629 152.425,411.120 150.500,408.215 C 148.575,405.310 147.000,402.755 147.000,402.537 C 147.000,402.319 148.526,399.128 150.390,395.445 C 152.255,391.763 154.874,386.275 156.212,383.250 C 157.549,380.225 160.216,374.375 162.138,370.250 C 164.061,366.125 166.397,361.062 167.331,359.000 C 168.264,356.938 169.387,354.606 169.826,353.818 C 170.733,352.190 170.177,351.461 168.320,351.842 C 165.079,352.507 161.602,353.328 157.125,354.484 C 154.944,355.048 141.248,358.258 136.500,359.318 C 134.713,359.717 132.350,360.261 131.250,360.527 C 130.150,360.792 128.489,361.064 127.558,361.130 C 125.234,361.295 125.231,361.290 120.167,347.000 C 118.656,342.738 117.226,338.575 116.989,337.750 C 116.752,336.925 116.070,334.562 115.474,332.500 C 113.767,326.589 111.498,317.962 111.003,315.500 C 110.754,314.262 109.845,309.988 108.983,306.000 C 103.433,280.338 100.477,261.578 98.537,239.706 C 97.640,229.596 96.775,203.525 97.318,202.982 C 97.787,202.513 112.957,207.004 131.363,213.062 C 134.726,214.168 137.697,214.937 137.966,214.771 C 138.530,214.423 138.198,213.293 137.007,211.500 C 136.550,210.812 135.446,208.338 134.553,206.000 C 133.660,203.662 131.938,199.162 130.726,196.000 C 129.514,192.838 127.717,188.000 126.733,185.250 C 125.750,182.500 124.755,179.800 124.523,179.250 C 122.611,174.716 121.133,170.484 121.412,170.345 C 121.598,170.253 122.650,169.920 123.750,169.607 C 130.093,167.797 133.308,166.794 133.750,166.486 C 134.025,166.295 134.925,165.984 135.750,165.797 C 141.268,164.541 155.475,159.271 166.250,154.482 C 177.795,149.351 187.166,144.950 191.500,142.626 C 203.503,136.186 205.788,135.031 206.549,135.016 C 207.023,135.006 207.712,135.865 208.242,137.125 C 208.734,138.294 209.422,139.925 209.771,140.750 C 210.120,141.575 213.258,149.450 216.744,158.250 C 220.229,167.050 223.274,174.700 223.510,175.250 C 224.050,176.506 226.971,184.964 229.468,192.500 C 231.748,199.377 232.989,202.500 233.445,202.500 C 233.630,202.500 234.089,201.431 234.464,200.125 C 234.839,198.819 235.303,197.525 235.496,197.250 C 235.689,196.975 236.576,194.613 237.466,192.000 C 240.000,184.570 242.026,178.842 242.508,177.750 C 242.751,177.200 243.315,175.625 243.761,174.250 C 244.207,172.875 244.874,171.075 245.242,170.250 C 245.610,169.425 246.517,167.175 247.257,165.250 C 247.997,163.325 248.898,161.075 249.260,160.250 C 249.622,159.425 250.418,157.287 251.029,155.500 C 252.108,152.343 255.360,144.471 257.799,139.110 C 258.460,137.658 259.000,136.297 259.000,136.085 C 259.000,135.873 259.255,135.445 259.566,135.134 C 259.988,134.712 261.488,135.279 265.441,137.354 C 272.977,141.309 288.746,149.196 292.000,150.637 C 293.512,151.307 295.762,152.313 297.000,152.871 C 308.476,158.051 333.055,167.000 335.805,167.000 C 336.430,167.000 337.058,167.189 337.201,167.420 C 337.344,167.652 338.988,168.243 340.855,168.735 C 345.256,169.894 345.860,170.434 344.867,172.325 C 344.088,173.809 342.580,177.491 341.519,180.500 C 338.334,189.529 336.416,194.792 335.819,196.141 C 333.698,200.931 328.490,214.657 328.711,214.877 C 328.852,215.019 329.594,214.894 330.359,214.600 C 331.124,214.305 334.113,213.362 337.000,212.504 C 339.887,211.645 347.806,209.140 354.597,206.935 C 361.388,204.731 367.547,203.001 368.284,203.089 L 369.623,203.250 L 369.544,209.500 C 369.451,216.771 368.716,231.638 368.024,240.250 C 365.980,265.688 362.278,288.312 356.282,312.000 C 355.551,314.887 354.703,318.375 354.398,319.750 C 353.095,325.612 350.210,336.525 348.912,340.500 C 347.017,346.305 341.386,360.472 340.771,360.983 C 340.374,361.312 339.595,361.309 338.461,360.975 C 337.520,360.698 334.050,359.909 330.750,359.222 C 327.450,358.535 322.950,357.528 320.750,356.984 C 318.550,356.440 314.387,355.452 311.500,354.789 C 308.613,354.125 305.012,353.253 303.500,352.851 C 299.033,351.662 297.108,351.421 296.746,352.006 C 296.445,352.494 300.092,361.085 305.872,373.500 C 307.088,376.113 308.650,379.600 309.342,381.250 C 310.034,382.900 312.603,388.274 315.050,393.191 C 317.498,398.109 319.500,402.335 319.500,402.582 C 319.500,404.343 300.848,431.969 295.183,438.597 C 292.790,441.398 291.519,443.040 287.522,448.500 C 281.639,456.538 257.711,481.499 256.568,480.792 C 256.327,480.643 255.901,479.898 255.622,479.136 C 254.983,477.396 250.051,464.598 249.500,463.250 C 246.640,456.259 243.545,447.658 239.176,434.555 C 236.278,425.862 233.811,418.653 233.695,418.533 C 233.135,417.960 232.203,420.035 229.527,427.809 C 227.929,432.451 225.807,438.609 224.811,441.493 C 223.815,444.376 223.000,447.022 223.000,447.373 C 223.000,447.724 222.573,448.965 222.051,450.130 C 220.375,453.874 211.067,477.701 210.722,479.130 C 210.539,479.889 210.231,480.607 210.037,480.727 C 209.844,480.847 205.291,476.513 199.920,471.097 Z" fill="#000000" fill-rule="evenodd" /></svg>