<svg xmlns="http://www.w3.org/2000/svg" viewBox="0 0 386 495" width="386" height="495"><path d="M 187.000,476.554 C 183.562,474.700 179.559,472.466 178.103,471.591 C 176.647,470.716 175.375,470.000 175.277,470.000 C 175.109,470.000 166.769,464.958 158.750,460.008 C 141.956,449.643 122.670,434.492 106.234,418.752 C 97.058,409.966 85.445,397.647 81.939,392.980 C 80.872,391.561 78.582,388.791 76.850,386.825 C 70.017,379.071 62.682,368.771 53.832,354.500 C 50.800,349.610 43.124,335.721 41.260,331.750 C 36.638,321.908 34.530,316.999 32.026,310.250 C 31.413,308.600 30.710,306.800 30.461,306.250 C 29.696,304.552 24.627,288.923 23.813,285.750 C 22.514,280.686 19.934,265.645 18.667,255.750 C 17.920,249.915 17.817,238.743 17.660,146.606 C 17.539,75.478 17.646,43.661 18.010,42.980 C 18.747,41.604 22.490,40.122 34.250,36.549 C 45.510,33.129 67.894,27.305 76.500,25.555 C 79.112,25.025 82.938,24.247 85.000,23.827 C 119.273,16.853 157.979,13.021 194.250,13.011 C 216.316,13.005 242.354,14.493 260.250,16.782 C 263.550,17.204 268.275,17.780 270.750,18.061 C 275.993,18.658 291.462,21.123 297.250,22.285 C 307.485,24.340 310.633,25.059 322.500,28.055 C 324.562,28.576 328.613,29.584 331.500,30.296 C 334.387,31.008 338.438,32.104 340.500,32.731 C 342.562,33.358 346.050,34.375 348.250,34.991 C 354.873,36.844 369.674,41.960 370.341,42.627 C 370.831,43.118 371.010,62.533 371.184,134.250 C 371.399,222.644 371.186,245.172 370.050,254.000 C 368.496,266.083 367.129,273.773 364.983,282.500 C 364.138,285.938 363.317,289.425 363.160,290.250 C 363.003,291.075 362.704,291.975 362.495,292.250 C 362.286,292.525 361.949,293.538 361.746,294.500 C 361.101,297.557 355.440,314.275 354.042,317.250 C 353.526,318.350 352.812,320.038 352.456,321.000 C 351.748,322.915 345.994,335.344 344.702,337.750 C 344.259,338.575 342.765,341.387 341.383,344.000 C 338.022,350.352 335.012,355.528 333.967,356.750 C 333.497,357.300 332.635,358.650 332.050,359.750 C 330.617,362.448 325.359,369.974 317.818,380.120 C 300.267,403.735 271.527,431.518 246.250,449.305 C 224.479,464.625 198.412,480.067 194.500,479.961 C 193.812,479.942 190.438,478.409 187.000,476.554 Z M 197.923,449.500 C 199.264,448.675 200.509,448.000 200.691,448.000 C 201.241,448.000 210.908,442.084 216.500,438.325 C 227.846,430.698 242.820,419.415 251.040,412.300 C 279.347,387.797 299.916,363.507 314.485,337.379 C 314.906,336.625 316.519,333.812 318.069,331.129 C 321.493,325.203 323.864,320.435 326.837,313.500 C 328.074,310.613 329.263,308.025 329.478,307.750 C 329.693,307.475 330.153,306.350 330.500,305.250 C 330.847,304.150 331.302,303.025 331.511,302.750 C 331.885,302.260 335.547,291.963 336.224,289.500 C 337.079,286.391 337.476,284.978 338.616,281.000 C 341.460,271.077 342.915,261.802 344.500,243.474 C 344.809,239.899 345.000,204.139 345.000,149.660 L 345.000,61.623 L 342.588,60.585 C 335.645,57.599 310.328,50.941 298.500,48.992 C 297.262,48.788 294.562,48.275 292.500,47.852 C 290.438,47.428 286.950,46.825 284.750,46.511 C 280.993,45.975 279.087,45.693 271.375,44.528 C 262.624,43.207 251.280,41.920 236.000,40.516 C 208.831,38.020 171.091,38.594 139.584,41.983 C 132.496,42.745 115.595,44.944 110.625,45.750 C 108.081,46.162 103.806,46.849 101.125,47.275 C 95.963,48.096 93.688,48.512 87.250,49.814 C 85.050,50.259 82.688,50.721 82.000,50.839 C 81.312,50.957 79.850,51.257 78.750,51.505 C 66.296,54.313 59.841,55.927 54.750,57.506 C 52.275,58.274 48.970,59.279 47.406,59.738 C 45.841,60.198 44.315,60.871 44.013,61.234 C 43.214,62.197 43.598,246.095 44.412,252.000 C 46.039,263.814 49.744,281.125 51.956,287.250 C 52.453,288.625 53.488,291.775 54.258,294.250 C 59.391,310.770 70.912,333.633 83.168,351.623 C 85.413,354.919 88.190,358.996 89.339,360.683 C 93.444,366.712 103.201,378.400 111.655,387.417 C 123.664,400.226 144.655,418.582 159.000,428.818 C 173.007,438.813 192.534,450.969 194.617,450.991 C 195.095,450.996 196.582,450.325 197.923,449.500 Z M 121.119,332.375 C 120.601,331.732 120.698,330.775 122.246,321.250 C 123.041,316.362 124.013,309.770 124.976,302.750 C 125.240,300.825 125.699,297.675 125.997,295.750 C 126.294,293.825 126.941,289.511 127.436,286.163 C 128.410,279.568 129.207,277.760 131.358,277.270 C 132.124,277.095 133.386,276.396 134.164,275.717 C 135.654,274.415 135.610,274.619 136.227,266.000 C 136.375,263.938 136.953,257.637 137.511,252.000 C 138.070,246.363 138.867,238.262 139.283,234.000 C 140.009,226.565 140.564,221.657 142.226,208.000 C 143.232,199.734 144.469,187.996 145.015,181.546 C 145.257,178.683 145.597,175.698 145.769,174.912 C 146.032,173.718 145.816,173.258 144.459,172.116 C 140.840,169.073 132.582,161.581 130.000,159.000 L 127.250,156.250 L 127.250,132.750 L 127.250,109.250 L 141.970,109.250 L 156.691,109.250 L 156.779,120.142 C 156.827,126.132 157.027,131.194 157.224,131.392 C 157.420,131.589 162.509,131.818 168.531,131.902 L 179.481,132.054 L 179.616,120.652 L 179.750,109.250 L 194.216,109.117 C 203.959,109.028 208.788,109.157 209.007,109.512 C 209.187,109.802 209.385,114.661 209.448,120.310 C 209.511,125.959 209.687,130.904 209.838,131.300 C 210.069,131.901 211.895,131.997 220.932,131.885 L 231.750,131.750 L 232.000,120.500 L 232.250,109.250 L 246.565,109.117 C 260.348,108.990 260.889,109.021 261.132,109.951 C 261.649,111.928 261.561,155.952 261.038,156.929 C 260.754,157.459 257.761,160.362 254.386,163.380 C 251.011,166.397 247.044,170.032 245.570,171.457 L 242.891,174.048 L 243.240,176.847 C 243.433,178.386 243.773,181.694 243.996,184.198 C 244.219,186.701 244.975,194.037 245.676,200.500 C 246.376,206.963 247.184,214.500 247.472,217.250 C 247.759,220.000 248.669,228.550 249.495,236.250 C 250.321,243.950 251.559,255.726 252.246,262.419 C 252.933,269.112 253.614,274.781 253.759,275.015 C 253.904,275.249 255.032,275.945 256.266,276.562 C 259.656,278.255 260.157,279.066 260.807,283.914 C 261.320,287.743 263.049,299.565 264.476,309.000 C 264.746,310.788 265.664,316.607 266.515,321.933 C 267.366,327.258 267.943,331.927 267.797,332.308 C 267.432,333.258 213.048,333.348 212.100,332.400 C 211.655,331.955 211.499,326.956 211.495,313.025 C 211.490,294.345 211.484,294.237 210.311,291.750 C 208.772,288.487 205.312,285.060 201.841,283.360 C 199.419,282.174 198.466,282.001 194.406,282.005 C 190.551,282.009 189.308,282.216 187.180,283.206 C 183.610,284.869 180.778,287.586 179.140,290.919 L 177.750,293.750 L 177.602,312.726 C 177.504,325.333 177.274,331.920 176.916,332.351 C 176.142,333.284 121.870,333.307 121.119,332.375 Z M 205.878,213.250 C 206.029,196.212 206.113,196.561 201.000,193.008 C 197.893,190.849 197.594,190.750 194.211,190.750 C 191.148,190.750 190.347,190.952 188.259,192.250 C 185.247,194.123 183.057,196.798 182.473,199.315 C 181.971,201.476 181.826,225.964 182.307,227.218 C 182.578,227.925 183.960,228.003 194.182,227.884 L 205.750,227.750 L 205.878,213.250 Z" fill="#000000" fill-rule="evenodd" /></svg>