<svg width="337" height="348" viewBox="0 0 337 348" fill="none" xmlns="http://www.w3.org/2000/svg">
<path fill-rule="evenodd" clip-rule="evenodd" d="M136.98 346.205C135.743 345.366 133.605 344.074 132.23 343.332L129.73 341.984H117.48C105.47 341.984 105.198 341.961 103.605 340.825C102.628 340.128 101.978 339.231 101.975 338.575C101.954 334 100.767 321.721 99.7662 315.734C99.1002 311.747 98.3142 305.784 98.0212 302.484C97.7282 299.184 97.1642 295.134 96.7672 293.484C95.3432 287.557 94.4112 281.738 94.7272 280.745C95.2112 279.219 96.2572 278.892 101.897 278.504C104.739 278.308 107.824 277.83 108.753 277.442C109.682 277.054 112.696 275.158 115.452 273.229C118.208 271.3 121.289 269.55 122.3 269.34C125.168 268.744 125.419 267.786 123.43 265.006C117.887 257.256 114.431 249.984 112.469 241.938C111.957 239.842 111.395 237.982 111.219 237.806C110.726 237.313 109.521 239.226 108.912 241.469C108.606 242.593 108.476 245.304 108.616 247.604C108.835 251.181 109.149 252.281 110.996 255.958C113.118 260.183 113.121 260.195 112.216 261.588C111.717 262.356 109.373 264.953 107.007 267.359C103.41 271.016 102.447 271.734 101.135 271.734C98.9532 271.734 91.8462 274.53 90.2362 276.023C88.9282 277.234 88.9072 277.353 89.0952 282.505C89.3102 288.388 89.3482 288.308 85.4802 290.244C84.2432 290.864 82.5552 291.938 81.7302 292.631C80.1492 293.959 72.2792 297.804 66.0082 300.312C54.0292 305.103 40.0462 305.558 28.5222 301.532C23.0502 299.621 16.2722 295.35 12.4232 291.388C4.37817 283.106 0.852172 274.24 0.829172 262.234C0.812172 253.269 2.96219 246.323 8.25819 238.234C12.2842 232.085 17.3422 227.271 24.9802 222.318C29.7412 219.23 36.6562 213.968 38.3322 212.159C38.9382 211.504 39.2762 210.718 39.0822 210.412C38.8882 210.106 37.0422 209.626 34.9802 209.345C30.9382 208.794 28.4802 208.026 28.4802 207.312C28.4802 207.067 29.9761 205.992 31.8041 204.925C37.1801 201.786 44.2111 193.368 46.8251 186.939C48.1041 183.793 48.2291 182.935 48.2181 177.355C48.2121 173.984 48.3442 171.284 48.5112 171.355C49.0872 171.598 53.3682 176.641 54.9452 178.933C57.5772 182.759 60.4042 189.26 61.2502 193.434C62.7412 200.782 61.1582 209.514 56.6882 218.609C55.1672 221.703 53.7572 224.234 53.5552 224.234C53.3522 224.234 52.8772 222.828 52.4992 221.109C51.7382 217.652 50.7332 214.949 50.0502 214.527C49.8052 214.376 48.4742 215.767 47.0922 217.618C45.7102 219.469 42.8132 222.7 40.6552 224.796C29.8022 235.339 27.5102 237.699 25.6712 240.234C21.4212 246.092 19.9952 250.194 19.9862 256.59C19.9722 266.041 25.3891 272.995 34.5751 275.318C38.2321 276.243 39.0821 276.288 43.1061 275.772C46.4261 275.346 48.4592 274.754 51.0092 273.469C54.5342 271.694 61.3722 266.511 64.4802 263.259C69.5352 257.969 81.1702 242.755 83.4352 238.473C84.9462 235.615 84.5182 235.07 81.2412 235.682C78.2272 236.246 77.3521 235.962 77.7521 234.55C78.1351 233.195 85.7202 225.963 89.9802 222.892C99.4452 216.067 99.5962 215.42 91.8552 214.868C89.7242 214.716 87.9802 214.391 87.9802 214.147C87.9802 213.546 91.2182 210.732 93.4322 209.409C94.4212 208.818 96.9182 207.608 98.9802 206.721C101.042 205.833 103.63 204.717 104.73 204.24C105.83 203.764 108.252 202.873 110.113 202.261C113.709 201.077 115.093 200.109 114.69 199.06C114.34 198.147 110.216 196.235 108.592 196.231C106.826 196.228 103.597 195.327 103.232 194.737C102.876 194.162 105.653 192.683 107.98 192.208C108.942 192.012 111.08 191.484 112.73 191.034C115.716 190.221 120.772 189.582 129.105 188.967C132.227 188.737 133.48 188.456 133.48 187.986C133.48 186.966 128.615 183.135 126.866 182.778C124.324 182.258 124.728 181.411 128.056 180.287C130.991 179.296 131.601 179.264 138.204 179.757C142.068 180.045 146.373 180.617 147.771 181.027C150.556 181.846 151.786 181.727 160.73 179.774C167.911 178.206 169.697 177.597 169.877 176.657C170.122 175.373 165.758 168.966 162.673 166.082C159.189 162.824 152.366 158.39 149.73 157.67C148.63 157.37 147.28 156.945 146.73 156.725C143.359 155.381 140.163 154.984 132.73 154.984C125.124 154.984 124.447 155.067 118.995 156.662C113.889 158.157 107.577 161.111 105.48 162.988C105.067 163.357 103.471 164.52 101.931 165.571C99.3352 167.346 87.9292 179.248 86.6762 181.492C85.9282 182.83 85.2571 182.566 85.1061 180.875C85.0381 180.11 84.7562 178.359 84.4802 176.984C84.2032 175.609 83.6292 172.684 83.2042 170.484C81.2812 160.524 78.5351 154.209 73.6271 148.457C67.3751 141.13 61.9522 138.253 54.3622 138.24C47.4652 138.228 34.3962 142.733 29.8342 146.695C28.9522 147.461 27.3302 148.652 26.2302 149.342C25.1302 150.032 23.4492 151.246 22.4952 152.04C18.7572 155.151 7.56518 167.091 4.55818 171.175C2.81418 173.545 1.07018 175.557 0.683176 175.646C-0.336824 175.88 -0.195827 173.077 0.980173 169.734C1.51217 168.221 1.95719 166.534 1.96919 165.984C2.00519 164.331 5.86517 153.95 9.49717 145.734C12.9842 137.848 22.0002 120.093 23.1802 118.79C23.6202 118.303 23.9802 117.777 23.9802 117.62C23.9802 117.26 27.0732 112.337 29.8552 108.27C31.0242 106.561 31.9802 105.038 31.9802 104.884C31.9802 104.731 32.6692 103.791 33.5112 102.795C34.3542 101.799 37.1102 98.359 39.6362 95.15C50.1712 81.77 64.4491 67.482 75.7781 58.984C81.4291 54.745 92.5622 47.234 93.1942 47.234C93.2952 47.234 94.9201 46.325 96.8041 45.214C98.6881 44.104 100.567 43.003 100.98 42.769C102.136 42.113 115.916 35.285 118.73 33.975C121.274 32.79 123.074 32.086 127.98 30.355C131.059 29.269 132.471 28.756 138.23 26.631C140.43 25.819 143.018 24.927 143.98 24.648C144.942 24.37 147.192 23.719 148.98 23.203C150.768 22.687 155.155 21.587 158.73 20.757C162.305 19.928 167.143 18.805 169.48 18.261C174.245 17.153 178.593 16.154 183.636 15.008C188.554 13.89 195.287 13.997 199.121 15.253C203.254 16.606 206.48 18.249 206.48 19C206.48 19.692 204.266 20.234 201.442 20.234C198.728 20.234 194.221 21.498 191.732 22.957C189.218 24.43 180.98 33.857 180.98 35.261C180.98 35.472 180.127 37.183 179.084 39.064C177.489 41.94 175.849 46.591 173.469 54.984C173.235 55.809 172.557 59.408 171.963 62.981C171.001 68.771 170.908 70.839 171.109 81.981C171.383 97.24 172.077 101.153 176.118 110.234C176.669 111.471 177.411 113.159 177.767 113.984C178.993 116.825 183.24 122.7 187.7 127.723C192.997 133.688 199.95 140.217 209.94 148.605C216.602 154.198 219.063 155.817 219.795 155.086C219.942 154.939 220.047 152.82 220.028 150.379C219.987 145.165 219.046 141.868 215.493 134.484C214.169 131.734 212.437 128.134 211.644 126.484C210.85 124.834 209.777 122.022 209.259 120.234C208.024 115.978 207.496 115.399 205.57 116.197C204.759 116.533 203.253 117.579 202.225 118.521C201.196 119.463 200.07 120.234 199.722 120.234C198.602 120.234 198.878 113.514 200.266 106.984C202.265 97.583 203.095 92.682 202.747 92.334C202.354 91.942 198.637 93.799 195.105 96.152C193.661 97.113 192.339 97.76 192.168 97.588C191.614 97.035 193.927 89.314 195.684 85.847C197.4 82.462 200.36 78.158 204.98 72.331C207.646 68.968 207.698 68.853 207.031 67.799C206.671 67.232 205.837 67.213 202.163 67.69C199.725 68.006 196.774 68.385 195.605 68.53C194.388 68.682 193.48 68.589 193.48 68.312C193.48 67.423 196.965 63.644 200.114 61.118C203.865 58.11 207.442 55.789 210.48 54.392C218.817 50.558 222.417 48.741 222.753 48.197C223.324 47.273 221.426 45.959 218.108 44.98C216.525 44.513 214.668 43.949 213.98 43.726C213.292 43.503 211.324 43.03 209.605 42.674C205.276 41.779 205.443 41.322 210.48 40.285C212.745 39.818 217.609 38.632 221.131 37.688C222.177 37.407 226.902 37.053 231.631 36.901C239.093 36.661 240.886 36.76 245.187 37.656C247.913 38.223 251.285 39.252 252.68 39.943C255.259 41.219 256.214 41.07 255.9 39.439C255.658 38.179 248.329 32.514 242.697 29.234C238.319 26.684 230.98 20.38 230.98 19.169C230.98 18.898 230.334 17.845 229.545 16.83C227.77 14.547 225.329 8.53102 224.473 4.32702C223.91 1.56402 223.927 1.07301 224.61 0.390006C225.316 -0.315994 225.518 -0.184012 226.755 1.79699C227.507 2.99999 228.964 4.907 229.994 6.036C231.024 7.165 232.015 8.55499 232.196 9.12499C232.992 11.633 243.773 18.432 250.907 20.925C257.55 23.246 271.021 29.838 273.663 32.062C275.461 33.574 276.536 32.957 275.494 31.01C274.666 29.464 270.485 25.239 269.763 25.22C269.47 25.213 266.81 23.572 263.853 21.575C259.613 18.712 258.106 17.37 256.728 15.231C255.767 13.739 254.98 12.263 254.98 11.953C254.98 11.642 254.587 10.622 254.107 9.68603C253.509 8.52003 253.233 6.81802 253.232 4.28002C253.23 -0.18798 254.033 -0.897007 255.462 2.31499C256.482 4.60699 260.349 9.451 262.523 11.161C263.235 11.721 265.147 12.908 266.773 13.799C268.4 14.69 271.344 16.503 273.317 17.827C275.29 19.151 277.134 20.234 277.416 20.234C277.698 20.234 279.234 21.313 280.829 22.632C282.425 23.951 284.292 25.417 284.98 25.89C286.481 26.922 291.761 33.378 292.825 35.484C293.694 37.203 296.237 39.321 300.03 41.484C303.09 43.229 308.308 47.924 309.198 49.734C309.536 50.422 310.116 52.334 310.485 53.984C311.337 57.783 311.614 58.177 315.513 61.13C323.247 66.987 325.032 68.234 325.676 68.234C326.066 68.234 326.594 67.309 326.901 66.089C327.588 63.361 329.609 61.303 330.706 62.214C332.119 63.387 335.154 70.469 336.031 74.638C336.941 78.965 336.696 83.452 335.357 86.984C334.236 89.94 330.611 94.734 329.496 94.734C329.042 94.734 328.286 92.658 327.734 89.894C327.224 87.342 326.634 87.165 322.278 88.253C320.132 88.79 318.206 89.124 317.999 88.996C317.792 88.868 317.484 87.592 317.315 86.161C316.884 82.529 316.777 82.485 310.785 83.529C309.121 83.819 309.075 83.779 308.258 81.318C307.8 79.939 307.108 78.548 306.721 78.227C306.276 77.857 303.481 77.599 299.124 77.525L292.23 77.407L291.472 75.354C291.054 74.224 290.604 73.199 290.472 73.076C289.952 72.592 284.661 72.221 282.628 72.525C280.15 72.897 279.91 73.621 281.858 74.848C288.093 78.775 288.374 79.08 289.681 83.332C290.713 86.691 292.865 88.36 295.859 88.124L297.63 87.984L298.205 90.813C298.897 94.216 299.396 94.883 301.848 95.685C303.42 96.199 304.036 96.171 305.589 95.517C306.611 95.086 307.659 94.734 307.917 94.734C308.184 94.734 308.273 95.973 308.123 97.623C307.783 101.374 308.389 101.945 312.354 101.614C313.936 101.481 315.624 101.205 316.105 101C316.83 100.691 316.98 100.892 316.98 102.175C316.98 104.206 315.376 108.37 313.797 110.441C311.801 113.058 307.348 115.053 302.555 115.477C299.036 115.789 298.446 115.727 298.173 115.017C297.999 114.562 298.22 113.798 298.669 113.301C299.727 112.133 299.692 111.11 298.518 108.809C297.089 106.008 288.301 98.612 283.73 96.363C281.093 95.065 275.215 93.836 270.153 93.524C264.784 93.193 261.48 92.352 261.48 91.317C261.48 90.878 262.529 89.453 263.812 88.151C266.415 85.508 266.315 84.621 263.347 84.052C260.514 83.508 257.832 82.863 253.98 81.796C251.918 81.225 249.625 80.752 248.885 80.746C248.144 80.739 247.411 80.526 247.254 80.272C246.883 79.672 250.395 76.823 254.355 74.511C257.768 72.518 258.217 71.511 256.105 70.579C253.523 69.44 245.455 64.087 244.156 62.652C243.696 62.144 243.46 61.587 243.632 61.416C243.803 61.244 245.808 60.825 248.087 60.485C254.819 59.48 258.606 57.307 253.855 57.175C252.686 57.143 250.942 57.084 249.98 57.045C244.719 56.831 233.469 58.513 233.119 59.566C233.012 59.886 234.685 61.461 236.837 63.066C238.988 64.671 241.419 66.486 242.239 67.099C243.059 67.712 244.796 68.836 246.099 69.597C247.401 70.357 248.577 71.265 248.711 71.614C248.851 71.98 247.954 72.863 246.592 73.699C242.308 76.33 240.394 77.949 238.173 80.821C236.967 82.381 235.98 83.792 235.98 83.957C235.98 84.121 235.413 85.113 234.719 86.161C233.153 88.527 232.617 90.366 231.967 95.593C230.961 103.686 232.957 109.883 239.876 120.15C242.224 123.634 244.575 127.046 245.1 127.734C245.626 128.422 247.008 130.446 248.173 132.234C249.337 134.022 251.285 136.946 252.501 138.734C258.922 148.17 263.91 158.736 265.434 166.134C266.129 169.507 266.142 183.454 265.455 188.573C264.48 195.839 262.453 200.713 261.23 198.734C261.06 198.459 260.372 198.234 259.7 198.234C258.728 198.234 258.48 198.491 258.48 199.5C258.48 200.196 258.846 201.603 259.293 202.625C260.317 204.967 260.571 218.624 259.635 220.984C259.308 221.809 258.22 224.734 257.218 227.484C256.216 230.234 254.878 233.721 254.245 235.234C253.612 236.747 252.794 238.997 252.427 240.234C251.611 242.983 247.421 252.654 246.008 255.048C244.873 256.973 244.739 258.458 245.458 261.176C245.721 262.17 246.308 264.897 246.763 267.234C247.219 269.571 247.786 272.45 248.024 273.63C248.263 274.811 249.25 278.186 250.217 281.13C251.185 284.075 252.455 287.946 253.038 289.734C253.622 291.522 254.496 293.884 254.981 294.984C255.465 296.084 256.351 298.672 256.949 300.734C258.559 306.288 260.227 310.093 263.13 314.834C266.525 320.378 268.142 322.156 271.9 324.475L275.005 326.391L279.175 325.743C284.427 324.926 287.512 325.218 291.131 326.875C294.223 328.29 298.283 332.131 300.278 335.526C301.626 337.82 302.473 343.37 301.561 343.934C300.97 344.299 298.379 343.099 294.639 340.727C292.772 339.543 291.723 339.234 289.577 339.234H286.871L287.129 340.859C287.271 341.753 287.602 343.298 287.866 344.292C288.796 347.804 287.112 348.489 283.73 345.975C282.905 345.362 281.105 344.213 279.73 343.422L277.23 341.984L267.23 342.118C250.399 342.344 248.548 341.402 246.342 331.484C245.579 328.054 244.56 325.537 240.263 316.484C237.1 309.817 234.98 304.97 234.98 304.402C234.98 303.446 231.089 294.342 229.218 290.919C225.861 284.777 223.35 281.126 216.544 272.49C212.863 267.819 209.639 263.532 209.38 262.963C209.006 262.144 209.275 261.374 210.674 259.25C213.033 255.667 213.92 252.628 216.074 240.734C216.606 237.796 216.339 221.571 215.735 220.109C215.045 218.441 214.183 219.248 213.6 222.109C213.277 223.69 212.539 227.991 211.959 231.667C211.38 235.343 210.716 238.831 210.483 239.417C210.251 240.004 209.926 240.908 209.76 241.427C209.489 242.277 209.374 242.296 208.595 241.612C207.161 240.356 204.612 239.234 203.191 239.234C202.455 239.234 200.475 238.556 198.791 237.728C191.855 234.314 180.582 234.428 171.345 238.004C168.388 239.149 168.155 239.008 166.981 235.373C165.126 229.633 160.581 221.234 159.329 221.234C158.693 221.234 159.124 223.335 160.61 227.484C162.497 232.754 163.513 236.381 164.001 239.59C165.454 249.153 165.593 250.947 165.343 256.984C165.065 263.69 163.951 269.58 161.93 275.027C159.646 281.182 155.516 285.487 147.969 289.578C145.687 290.815 144.211 291.178 139.469 291.665C123.53 293.305 121.283 293.837 119.295 296.443C117.418 298.904 117.31 300.07 118.404 306.04C119.574 312.428 120.405 315.058 122.97 320.484C126.014 326.925 127.493 327.631 136.047 326.727C142.791 326.014 144.787 326.44 148.299 329.34C150.888 331.479 154.277 335.67 155.087 337.734C155.356 338.422 155.859 340.053 156.205 341.359C157.181 345.049 156.455 345.235 151.141 342.659C147.766 341.023 145.996 340.473 143.605 340.319C140.075 340.091 140.053 340.123 141.073 343.938C141.548 345.714 141.536 346.314 141.012 346.945C140.098 348.046 139.548 347.945 136.98 346.205ZM95.0411 149.149C95.8511 146.858 96.8592 143.971 97.2812 142.734C97.7022 141.497 98.3452 139.809 98.7082 138.984C99.0712 138.159 99.5372 136.922 99.7432 136.234C99.9492 135.546 100.874 133.363 101.799 131.382C102.723 129.401 103.48 127.661 103.48 127.515C103.48 126.684 117.29 99.636 119.962 95.234C129.782 79.055 136.823 69.866 147.83 58.864C152.854 53.842 157.218 49.734 157.529 49.734C158.275 49.734 157.992 51.199 155.839 58.484C154.161 64.161 153.291 67.55 151.731 74.484C150.215 81.226 148.918 92.252 148.489 102.039C148.073 111.555 148.112 112.635 148.96 115.048C150.165 118.475 150.388 118.762 155.98 124.05C161.364 129.143 169.264 135.671 174.958 139.734C177.078 141.247 179.919 143.402 181.271 144.523C182.624 145.645 185.192 147.433 186.98 148.497C188.768 149.56 190.695 150.836 191.262 151.332C192.384 152.312 193.48 152.52 193.48 151.752C193.48 151.156 186.527 143.768 181.492 139.014C172.215 130.255 165.872 124.093 161.145 119.247L156.036 114.011L155.698 110.859C154.93 103.682 156.983 82.292 159.694 69.234C160.909 63.379 164.185 52.202 165.482 49.484C165.744 48.934 166.74 46.606 167.693 44.311C168.647 42.016 169.82 39.541 170.3 38.811C171.399 37.138 173.965 32.108 173.974 31.609C174.009 29.531 161.013 36.728 153.48 42.958C148.459 47.111 134.869 61.012 131.416 65.527C125.302 73.522 120.264 81.034 116.69 87.484C116.386 88.034 115.436 89.658 114.581 91.092C108.415 101.432 98.7532 126.067 94.9152 141.234C93.0572 148.576 92.2792 154.602 93.3242 153.557C93.4582 153.423 94.2311 151.439 95.0411 149.149ZM301.228 59.738C301.396 59.465 301.353 58.934 301.132 58.557C300.39 57.294 293.752 51.994 291.73 51.051C290.63 50.538 289.111 49.794 288.354 49.397C286.531 48.442 285.838 48.942 286.262 50.907C286.968 54.172 288.956 57.241 291.349 58.758C293.374 60.043 294.145 60.234 297.298 60.234C299.291 60.234 301.059 60.011 301.228 59.738ZM194.391 336.744C167.121 336.44 169.676 337.05 165.877 329.941C162.752 324.091 160.98 320.349 160.98 319.594C160.979 319.259 159.828 317.071 158.42 314.734C157.012 312.397 155.39 309.696 154.815 308.734C154.239 307.772 152.354 304.928 150.624 302.415C148.895 299.902 147.48 297.607 147.48 297.316C147.48 297.025 149.878 295.482 152.809 293.886C157.43 291.37 158.601 290.452 161.616 286.984C166.133 281.788 168.455 276.907 170.523 268.265C172.102 261.664 172.125 261.4 171.815 253.193C171.559 246.403 171.629 244.733 172.191 244.266C173.949 242.807 181.906 241.235 187.538 241.235C192.28 241.234 194.029 242.033 195.071 244.675C199.341 255.492 200.188 259.334 200.211 267.984C200.23 274.804 200.193 275.047 198.797 277.421C194.959 283.951 189.983 286.899 179.237 289.008C173.102 290.212 169.98 292.667 169.98 296.287C169.98 296.783 170.655 298.335 171.48 299.734C172.305 301.133 172.98 302.437 172.981 302.631C172.983 303.549 178.365 311.773 181.725 315.994C186.86 322.444 186.956 322.496 192.399 321.798C199.498 320.888 204.135 321.059 207.137 322.342C212.551 324.657 213.9 326.003 216.964 332.141C219.111 336.444 219.351 337.302 218.355 337.119C218.011 337.055 207.228 336.887 194.391 336.744ZM315.182 318.539C314.98 318.013 315.622 316.744 316.98 314.984C318.653 312.816 319.025 311.981 318.771 310.969C318.307 309.123 317.137 308.901 315.575 310.365C313.979 311.862 309.881 313.97 307.616 314.46C305.48 314.922 300.75 314.305 299.625 313.418C298.786 312.756 298.839 312.62 300.48 311.233C301.442 310.42 303.234 309.013 304.462 308.108C306.79 306.39 306.996 305.938 308.124 300.066C308.603 297.574 308.554 296.773 307.789 294.566C306.396 290.551 304.814 288.426 302.938 288.051C301.066 287.676 300.049 288.226 296.72 291.417C294.704 293.348 294.48 293.792 294.48 295.857C294.48 300.54 293.287 300.95 290.835 297.109C288.781 293.891 287.98 291.67 287.98 289.192C287.98 286.67 288.585 285.206 291.514 280.637C292.87 278.521 293.98 276.329 293.98 275.767C293.98 273.638 284.967 268.464 276.98 266.008C275.467 265.543 273.78 264.958 273.23 264.708C272.68 264.458 270.542 263.703 268.48 263.029C256.862 259.236 253.375 257.617 254.144 256.374C254.332 256.069 256.075 255.212 258.017 254.47C259.959 253.728 263.138 252.246 265.083 251.177C267.028 250.109 268.742 249.234 268.893 249.234C269.419 249.234 275.251 244.534 278.312 241.644C280.007 240.044 281.731 238.734 282.143 238.734C282.556 238.734 284.068 240.14 285.503 241.859C289.717 246.906 294.086 250.701 306.48 260.084C311.733 264.06 315.655 268.389 317.715 272.484C319.675 276.381 325.132 286.541 326.443 288.734C327.523 290.542 329.07 295.24 329.597 298.314C330.523 303.711 329.659 307.798 326.642 312.291C324.651 315.256 323.69 316.191 321.464 317.323C317.793 319.189 315.595 319.614 315.182 318.539ZM255.98 249.511C255.98 249.308 257.335 245.455 262.933 229.734C265.027 223.851 265.98 218.913 265.98 213.936C265.98 211.379 266.283 209.94 267.252 207.892C267.952 206.413 268.861 203.354 269.272 201.093C270.643 193.563 270.665 193.492 271.73 193.354C272.73 193.224 277.392 196.684 282.04 201.005C283.311 202.187 286.405 204.655 288.915 206.491C291.426 208.327 293.48 209.864 293.48 209.906C293.479 210.29 291.24 215.723 290.309 217.601C287.46 223.349 280.644 232.587 276.156 236.785C269.998 242.543 255.98 251.385 255.98 249.511ZM292.394 201.322C291.479 200.271 289.717 198.919 288.48 198.317C287.243 197.716 283.755 195.084 280.73 192.468C277.705 189.852 274.509 187.251 273.627 186.686L272.024 185.661L272.105 179.072C272.155 175.016 271.933 171.465 271.527 169.832C271.164 168.373 271.02 167.028 271.206 166.842C271.392 166.656 273.273 167.132 275.387 167.899C277.501 168.667 281.93 170.247 285.23 171.412C288.53 172.576 292.514 174.14 294.083 174.886C297.685 176.599 297.739 176.84 297.304 189.348C297.022 197.436 296.829 199.066 295.923 200.993C295.344 202.226 294.687 203.234 294.464 203.234C294.241 203.234 293.309 202.374 292.394 201.322ZM290.973 167.324C290.014 166.824 287.88 166.128 286.23 165.778C284.58 165.428 282.217 164.723 280.98 164.211C279.162 163.459 274.115 161.864 270.608 160.933C269.722 160.698 267.984 157.688 267.982 156.386C267.981 155.783 266.63 152.601 264.98 149.315C261.814 143.01 261.379 141.496 262.855 141.915C263.336 142.051 265.08 142.417 266.73 142.728C268.38 143.038 270.423 143.505 271.269 143.765C272.116 144.024 274.568 144.46 276.718 144.732C281.698 145.364 285.622 147.122 286.966 149.325C288.54 151.905 292.797 160.689 293.923 163.681C294.662 165.644 294.803 166.63 294.442 167.306C293.82 168.467 293.169 168.471 290.973 167.324ZM269.98 137.948C263.972 137.311 260.713 136.647 258.862 135.685C258.384 135.437 257.676 135.234 257.289 135.234C256.351 135.234 253.748 132.223 252.415 129.595C251.825 128.434 250.474 126.266 249.411 124.778C248.349 123.289 247.48 121.883 247.48 121.653C247.48 121.054 250.756 121.143 258.352 121.946L264.974 122.647L267.498 124.815C272.004 128.688 277.713 134.453 278.445 135.87C279.776 138.447 278.239 138.825 269.98 137.948ZM248.499 116.189C246.722 115.96 244.697 115.355 243.999 114.846C242.54 113.781 238.476 105.91 237.71 102.664C237.152 100.298 237.466 100.318 247.607 103.3C250.445 104.134 251.115 104.548 251.798 105.889C252.245 106.766 253.862 108.946 255.39 110.734C256.919 112.522 258.511 114.391 258.93 114.89C259.594 115.68 259.598 115.854 258.96 116.257C258.092 116.806 253.011 116.773 248.499 116.189ZM245.73 97.473C244.63 97.081 242.568 96.517 241.148 96.22C239.728 95.924 238.464 95.412 238.339 95.083C237.949 94.056 239.46 89.074 240.757 87.109C242.043 85.16 242.866 84.82 243.87 85.824C244.194 86.148 245.646 86.992 247.095 87.699C248.853 88.556 249.663 89.234 249.528 89.734C249.418 90.147 249.193 92.154 249.028 94.194C248.864 96.235 248.505 97.968 248.23 98.046C247.955 98.124 246.83 97.866 245.73 97.473Z" fill="black"/>
</svg>
