<svg xmlns="http://www.w3.org/2000/svg" viewBox="0 0 276 275" width="276" height="275"><path d="M 138.500,259.939 C 132.813,259.366 123.723,258.100 121.250,257.537 C 120.150,257.286 117.900,256.813 116.250,256.485 C 102.326,253.716 90.756,249.812 78.500,243.745 C 70.428,239.749 59.473,231.992 53.750,226.221 C 49.332,221.765 43.758,215.156 41.074,211.192 C 37.675,206.171 33.482,195.693 31.493,187.250 C 30.593,183.431 30.307,172.861 30.945,167.033 C 31.284,163.930 31.333,161.633 31.064,161.364 C 30.515,160.815 25.409,162.061 22.174,163.535 C 20.907,164.112 18.774,165.354 17.435,166.296 C 16.096,167.237 15.000,167.792 15.000,167.528 C 15.000,166.327 16.586,161.151 17.700,158.719 C 21.496,150.427 28.106,143.710 35.976,140.146 C 42.298,137.282 42.098,137.437 42.861,134.809 C 43.324,133.213 43.399,132.199 43.078,131.878 C 41.539,130.339 30.513,129.983 25.261,131.302 C 23.166,131.829 21.762,131.962 21.463,131.663 C 20.892,131.092 28.385,123.506 32.668,120.320 C 36.331,117.596 44.576,113.435 47.500,112.836 C 48.188,112.695 50.888,112.107 53.500,111.528 C 56.112,110.950 59.263,110.273 60.500,110.024 C 61.737,109.775 63.373,109.335 64.134,109.045 C 65.616,108.481 66.699,106.416 66.252,105.007 C 65.978,104.144 63.272,102.627 60.000,101.501 C 59.038,101.170 57.800,100.705 57.250,100.469 C 54.149,99.134 49.933,98.376 45.927,98.432 C 39.389,98.522 39.405,97.593 46.000,94.064 C 51.073,91.350 56.779,89.313 63.037,87.980 C 69.234,86.661 82.531,86.385 89.500,87.430 C 91.838,87.781 93.969,88.069 94.237,88.071 C 95.363,88.080 94.900,86.996 92.760,84.617 C 89.402,80.882 82.791,76.384 74.023,71.868 C 64.666,67.049 61.339,64.858 56.812,60.534 C 47.666,51.798 42.420,42.189 40.960,31.500 C 40.679,29.438 40.332,27.356 40.191,26.875 C 39.611,24.911 41.566,26.152 43.472,28.959 C 44.577,30.586 46.381,32.957 47.480,34.227 C 50.072,37.222 57.003,43.189 60.470,45.409 C 67.544,49.941 78.137,53.866 91.750,56.999 C 101.507,59.244 111.851,62.911 120.087,67.044 C 125.553,69.787 127.500,70.620 127.500,70.216 C 127.500,70.074 126.431,68.812 125.125,67.413 C 122.615,64.725 117.098,60.789 113.750,59.300 C 106.233,55.955 102.549,53.642 99.000,50.037 C 93.965,44.924 90.061,36.669 88.954,28.793 C 87.799,20.580 87.813,20.855 88.553,21.092 C 88.936,21.215 90.600,23.326 92.250,25.783 C 95.648,30.842 100.823,36.246 105.250,39.359 C 110.057,42.737 118.449,46.865 125.351,49.244 C 142.947,55.311 145.314,56.552 156.714,65.686 C 165.105,72.409 166.200,73.049 173.548,75.529 C 176.134,76.401 180.162,77.904 182.500,78.867 C 184.838,79.831 187.650,80.975 188.750,81.410 C 194.116,83.533 197.814,87.713 199.223,93.250 C 200.085,96.639 199.624,96.201 208.000,101.596 C 214.938,106.064 219.982,108.582 223.750,109.458 C 225.125,109.778 228.588,110.587 231.446,111.255 C 234.304,111.924 236.835,112.352 237.071,112.206 C 237.307,112.060 237.500,109.479 237.500,106.470 C 237.500,102.350 237.658,101.000 238.142,101.000 C 239.512,101.000 247.000,109.789 247.000,111.396 C 247.000,112.142 247.690,113.215 251.727,118.750 C 256.526,125.329 257.771,129.510 257.368,137.691 C 257.127,142.586 256.887,143.749 255.445,147.017 C 254.539,149.070 253.250,151.594 252.582,152.625 C 251.328,154.561 250.000,155.110 250.000,153.693 C 250.000,153.249 249.496,151.989 248.879,150.891 C 247.514,148.463 244.854,147.000 241.802,147.000 C 239.676,147.000 239.422,147.162 236.693,150.250 C 235.114,152.038 233.667,153.500 233.477,153.500 C 233.090,153.500 232.581,150.854 232.034,146.000 C 231.548,141.689 231.220,141.087 229.146,140.698 C 227.099,140.313 225.711,140.926 221.166,144.217 C 217.687,146.735 217.763,146.762 216.045,142.428 C 214.147,137.637 212.951,136.951 204.435,135.763 C 199.786,135.114 197.894,135.076 193.530,135.543 C 190.626,135.853 188.123,136.183 187.968,136.276 C 187.813,136.368 186.350,136.146 184.718,135.781 C 183.086,135.417 179.628,134.642 177.035,134.059 C 171.279,132.766 166.000,132.626 166.000,133.766 C 166.000,134.187 166.394,134.657 166.875,134.811 C 167.356,134.965 168.200,135.268 168.750,135.485 C 174.902,137.914 176.171,138.831 178.744,142.709 C 181.201,146.409 185.402,150.675 187.792,151.894 C 189.117,152.570 191.344,153.057 194.149,153.284 C 198.991,153.677 199.369,153.925 200.740,157.601 C 201.223,158.893 202.042,160.335 202.561,160.805 C 203.795,161.922 207.440,161.802 211.599,160.508 C 213.391,159.950 214.920,159.720 215.170,159.970 C 215.648,160.448 215.395,164.246 214.796,165.587 C 214.292,166.716 216.024,167.607 218.968,167.731 C 221.537,167.839 224.142,167.156 227.614,165.464 C 228.914,164.830 230.059,164.410 230.157,164.531 C 230.256,164.651 230.145,167.206 229.911,170.209 C 229.419,176.533 228.608,178.557 224.896,182.722 C 222.511,185.398 218.072,188.005 213.500,189.417 C 210.597,190.313 201.371,191.500 197.311,191.500 C 193.600,191.500 192.379,190.923 194.599,190.219 C 196.147,189.727 201.000,185.026 201.000,184.017 C 201.000,182.139 186.942,172.383 179.839,169.331 C 177.417,168.291 173.707,167.107 171.593,166.702 C 166.951,165.810 159.351,165.657 156.978,166.407 C 155.365,166.916 150.443,167.937 144.000,169.098 C 140.495,169.729 132.898,169.269 130.079,168.254 C 124.748,166.336 121.278,163.782 119.280,160.306 C 117.461,157.142 116.000,150.486 116.000,145.363 C 116.000,139.967 115.421,139.834 113.422,144.769 C 109.356,154.807 110.310,162.399 116.483,169.125 C 117.807,170.569 120.143,172.537 121.672,173.500 C 123.201,174.463 124.463,175.603 124.476,176.035 C 124.489,176.466 123.578,178.041 122.451,179.535 C 114.707,189.798 112.903,203.970 117.547,218.063 C 119.708,224.621 120.643,226.440 125.925,234.381 C 131.764,243.159 137.417,249.967 143.422,255.456 C 145.940,257.757 148.000,259.834 148.000,260.070 C 148.000,260.580 144.370,260.530 138.500,259.939 Z M 180.574,102.724 C 181.702,102.326 183.160,102.000 183.813,102.000 C 184.466,102.000 185.000,101.791 185.000,101.536 C 185.000,100.604 181.222,97.995 178.029,96.723 C 176.226,96.004 174.075,95.117 173.250,94.752 C 171.473,93.965 166.646,92.203 163.530,91.203 C 162.309,90.811 161.123,90.677 160.895,90.905 C 160.667,91.133 160.872,92.429 161.349,93.785 C 163.206,99.057 166.628,102.671 170.529,103.480 C 173.242,104.043 177.811,103.699 180.574,102.724 Z" fill="#000000" fill-rule="evenodd" /></svg>