<svg xmlns="http://www.w3.org/2000/svg" viewBox="0 0 410 405" width="410" height="405"><path d="M 199.750,390.159 C 194.666,389.398 182.839,383.557 178.583,379.706 C 176.938,378.218 175.481,377.000 175.345,377.000 C 175.209,377.000 174.941,378.350 174.750,380.001 C 174.558,381.651 174.206,383.123 173.967,383.270 C 173.728,383.418 171.331,381.332 168.641,378.635 C 164.778,374.761 163.369,372.944 161.939,369.990 C 160.079,366.150 158.512,360.297 157.457,353.250 C 157.127,351.050 156.311,347.788 155.642,346.000 C 154.974,344.212 154.086,341.738 153.669,340.500 C 152.510,337.060 147.793,328.695 144.605,324.428 C 141.094,319.727 137.674,316.094 131.273,310.266 C 127.575,306.898 126.074,305.154 125.248,303.266 C 123.385,299.009 123.322,297.048 124.846,290.836 C 127.005,282.038 126.605,274.340 123.667,268.143 C 123.173,267.102 120.448,263.911 117.610,261.052 C 113.147,256.555 112.158,255.241 110.274,251.302 C 109.076,248.799 107.944,245.863 107.758,244.780 C 107.172,241.372 107.466,232.917 108.321,228.613 C 109.470,222.819 109.136,222.720 105.527,227.783 C 103.739,230.293 101.461,235.535 100.000,240.500 C 98.808,244.555 98.045,245.500 95.966,245.500 C 93.805,245.500 85.209,248.335 81.587,250.243 C 77.488,252.401 71.254,258.011 68.732,261.810 C 65.973,265.966 65.067,268.986 64.633,275.461 C 64.369,279.400 64.050,281.236 63.605,281.383 C 62.472,281.758 58.996,277.515 55.714,271.751 C 54.872,270.270 53.806,270.142 54.131,271.560 C 55.404,277.110 57.105,281.284 60.243,286.555 C 62.181,289.809 66.658,299.282 68.016,303.000 C 68.668,304.788 70.249,308.387 71.528,311.000 C 77.641,323.483 79.519,336.749 76.727,347.712 C 75.187,353.759 72.892,358.252 69.020,362.805 C 65.703,366.706 60.606,371.272 60.116,370.782 C 59.936,370.603 60.172,368.947 60.639,367.103 C 62.357,360.323 63.000,356.345 62.982,352.592 C 62.944,344.437 59.883,336.964 52.877,327.927 C 45.425,318.316 44.291,316.910 40.472,312.557 C 33.895,305.058 30.525,300.086 26.261,291.590 C 23.297,285.685 21.463,279.090 19.545,267.442 C 17.866,257.250 20.076,244.259 26.084,229.008 C 29.183,221.140 34.042,212.750 35.500,212.750 C 35.858,212.750 37.214,214.514 38.513,216.669 C 41.026,220.839 44.843,225.101 47.152,226.316 L 48.553,227.053 L 47.834,225.652 C 45.902,221.887 44.918,217.688 43.755,208.250 C 42.961,201.804 42.414,202.852 50.000,196.298 C 59.122,188.418 67.319,182.774 70.772,181.995 C 74.503,181.154 83.949,183.341 94.437,187.475 C 95.867,188.039 97.254,188.500 97.519,188.500 C 99.693,188.500 94.300,182.471 87.082,176.832 C 82.352,173.137 73.417,167.000 72.766,167.000 C 72.446,167.000 63.341,161.557 59.654,159.162 C 54.727,155.960 51.166,153.103 49.533,151.042 C 48.024,149.137 47.953,148.824 47.499,142.159 C 46.776,131.535 46.436,128.500 45.970,128.500 C 45.488,128.500 42.845,133.943 41.478,137.750 C 40.419,140.701 39.613,141.029 38.250,139.063 C 32.824,131.236 30.965,128.284 29.713,125.514 C 28.908,123.734 26.710,119.148 24.827,115.324 C 21.857,109.290 21.308,107.735 20.675,103.560 C 19.783,97.673 19.219,95.541 16.363,87.250 C 13.448,78.792 12.733,72.601 13.522,62.654 C 14.928,44.914 18.694,34.337 29.501,17.769 C 33.116,12.227 33.493,12.316 32.536,18.484 C 31.604,24.494 31.876,34.012 33.201,41.750 C 34.593,49.882 35.861,53.918 40.297,64.329 C 43.109,70.927 43.485,72.170 43.202,73.937 C 42.914,75.738 43.032,76.095 44.249,77.108 C 45.003,77.736 47.420,79.898 49.621,81.912 C 56.208,87.942 60.813,91.748 64.891,94.533 C 67.014,95.982 69.952,98.178 71.421,99.412 C 74.397,101.912 74.340,101.559 72.808,108.000 C 71.592,113.115 71.762,119.920 73.228,124.724 C 73.904,126.938 74.797,129.200 75.212,129.750 C 75.910,130.674 75.969,130.483 75.984,127.250 C 76.005,122.614 77.033,117.910 78.886,113.968 C 81.544,108.312 80.718,108.416 89.121,112.676 C 95.880,116.103 98.960,117.252 108.750,120.004 C 110.675,120.545 114.333,121.588 116.880,122.323 C 119.426,123.057 121.635,123.532 121.788,123.379 C 121.941,123.225 120.939,120.771 119.560,117.925 C 116.086,110.752 112.727,100.465 111.503,93.250 C 111.177,91.325 110.705,88.807 110.455,87.654 C 110.205,86.501 110.004,81.776 110.009,77.154 C 110.018,69.233 110.547,64.285 112.003,58.500 C 112.314,57.263 112.692,55.744 112.843,55.125 C 112.993,54.506 113.307,54.000 113.541,54.000 C 114.163,54.000 114.689,55.189 116.529,60.750 C 118.637,67.123 125.049,79.818 128.772,84.987 C 132.093,89.600 143.105,101.269 147.055,104.359 C 148.537,105.519 152.000,108.235 154.750,110.394 C 159.994,114.511 162.545,117.610 165.450,123.387 C 166.317,125.113 167.302,127.600 167.638,128.914 C 168.439,132.041 169.140,132.249 169.714,129.528 C 170.519,125.713 169.391,120.203 166.771,115.155 C 165.522,112.748 164.500,110.395 164.500,109.926 C 164.500,108.800 166.687,107.120 168.943,106.513 C 169.937,106.246 173.313,105.799 176.445,105.520 C 183.015,104.935 183.767,104.594 190.784,99.012 C 196.632,94.362 198.805,93.370 203.250,93.323 C 207.774,93.276 211.742,95.062 218.531,100.200 C 224.494,104.714 228.092,106.216 232.000,105.822 C 236.817,105.338 242.000,107.315 242.000,109.638 C 242.000,110.160 240.931,112.739 239.625,115.368 C 237.270,120.108 237.249,120.197 237.082,125.824 C 236.941,130.576 237.034,131.500 237.653,131.500 C 238.433,131.500 239.000,130.482 239.000,129.081 C 239.000,128.620 240.145,125.910 241.543,123.058 C 244.814,116.392 248.022,113.106 259.000,105.182 C 260.788,103.892 264.950,100.114 268.250,96.788 C 274.743,90.243 280.209,82.632 283.718,75.250 C 285.977,70.499 290.319,59.723 291.325,56.375 C 291.718,55.069 292.213,54.000 292.427,54.000 C 292.881,54.000 294.546,58.672 295.987,63.990 C 297.619,70.015 297.337,84.543 295.418,93.250 C 294.513,97.357 292.541,104.147 291.498,106.750 C 291.278,107.300 290.611,109.100 290.016,110.750 C 289.422,112.400 288.045,115.620 286.957,117.905 C 284.991,122.031 284.845,123.363 286.426,122.747 C 286.879,122.570 289.163,122.005 291.500,121.491 C 303.561,118.840 312.403,115.893 319.358,112.207 C 322.167,110.718 324.780,109.500 325.164,109.500 C 325.914,109.500 328.101,113.972 329.256,117.868 C 329.810,119.737 330.974,127.598 330.996,129.625 C 330.998,129.831 331.189,130.000 331.420,130.000 C 331.651,130.000 332.125,128.369 332.475,126.375 C 332.824,124.381 333.336,121.993 333.613,121.068 C 334.368,118.539 334.169,108.688 333.298,105.546 C 332.773,103.649 332.698,102.564 333.049,101.909 C 333.324,101.395 337.306,97.970 341.899,94.298 C 346.492,90.626 352.275,85.732 354.750,83.423 C 357.225,81.114 360.038,78.583 361.000,77.799 C 362.218,76.807 363.077,75.443 363.826,73.312 C 364.418,71.628 365.248,69.350 365.670,68.250 C 367.326,63.933 369.624,57.540 371.062,53.250 C 372.569,48.753 372.964,47.048 374.130,40.000 C 374.806,35.914 374.876,23.193 374.259,16.625 C 373.994,13.807 374.040,12.500 374.402,12.500 C 374.694,12.500 375.068,12.928 375.234,13.450 C 375.400,13.973 376.482,15.829 377.639,17.575 C 378.796,19.321 379.857,20.975 379.997,21.250 C 380.137,21.525 381.267,23.325 382.509,25.250 C 385.780,30.323 388.265,36.458 391.013,46.250 C 393.406,54.775 394.292,63.907 393.500,71.864 C 392.698,79.921 391.593,85.953 390.409,88.750 C 389.826,90.125 388.956,92.938 388.476,95.000 C 387.591,98.802 385.542,105.971 384.216,109.909 C 381.977,116.558 372.660,133.085 368.441,137.892 C 367.649,138.796 367.000,139.752 367.000,140.017 C 367.000,140.283 366.688,140.500 366.308,140.500 C 365.920,140.500 365.260,139.415 364.810,138.039 C 363.711,134.678 360.902,128.500 360.473,128.500 C 360.057,128.500 359.675,131.860 359.046,141.066 C 358.503,149.024 357.828,150.791 354.201,153.763 C 347.170,159.525 338.384,165.350 326.539,172.104 C 321.983,174.702 318.687,177.419 313.815,182.595 C 307.318,189.497 306.843,190.888 311.879,188.265 C 314.942,186.670 322.732,183.732 326.670,182.687 C 331.296,181.459 336.242,181.582 339.000,182.993 C 344.409,185.759 354.532,193.505 361.125,199.921 C 364.311,203.022 364.516,203.820 363.480,209.100 C 362.042,216.432 360.989,220.336 359.410,224.194 C 357.765,228.212 357.804,228.000 358.703,228.000 C 360.177,228.000 370.097,215.958 371.099,212.952 C 371.447,211.908 372.217,212.763 374.666,216.909 C 380.938,227.531 386.187,242.689 387.527,254.046 C 388.334,260.887 387.244,269.247 383.697,283.426 C 382.311,288.963 381.181,291.529 377.122,298.348 C 373.944,303.686 368.779,310.497 362.786,317.250 C 354.499,326.588 351.850,330.264 348.369,337.250 C 345.542,342.925 344.500,347.478 344.500,354.160 C 344.500,358.925 345.726,365.803 347.257,369.625 C 348.828,373.548 338.063,363.604 334.943,358.250 C 331.363,352.108 330.089,347.693 329.677,340.000 C 329.133,329.860 330.939,321.957 336.761,309.000 C 338.058,306.113 339.557,302.400 340.092,300.750 C 340.627,299.100 342.745,294.422 344.798,290.353 C 349.324,281.388 350.268,279.048 351.236,274.405 C 352.336,269.130 351.926,269.150 348.990,274.513 C 347.285,277.630 344.564,281.000 343.753,281.000 C 343.316,281.000 342.900,279.768 342.528,277.375 C 340.899,266.877 338.545,261.497 333.274,256.226 C 328.170,251.122 320.938,247.732 312.344,246.416 C 307.799,245.720 307.950,245.895 306.291,239.380 C 305.131,234.821 303.389,231.035 300.313,226.388 C 298.480,223.618 297.765,223.360 298.195,225.625 C 298.982,229.764 299.393,238.909 298.962,242.693 C 297.957,251.518 297.447,252.563 290.755,259.500 C 283.662,266.852 281.472,270.639 280.551,277.142 C 280.052,280.673 280.448,283.921 282.265,291.199 C 282.944,293.921 283.495,297.071 283.489,298.199 C 283.469,301.888 282.027,303.934 273.378,312.544 C 262.209,323.662 258.789,328.385 253.859,339.500 C 252.122,343.416 250.095,349.986 249.536,353.508 C 248.410,360.609 246.647,366.792 244.614,370.774 C 243.511,372.935 234.206,384.000 233.493,384.000 C 233.249,384.000 232.784,382.645 232.458,380.988 C 232.132,379.331 231.702,377.875 231.504,377.752 C 231.305,377.629 229.659,378.711 227.846,380.155 C 223.959,383.253 215.684,387.491 210.750,388.911 C 207.025,389.983 202.218,390.529 199.750,390.159 Z M 206.372,352.460 C 207.538,350.969 209.287,348.863 210.258,347.779 C 211.841,346.011 212.101,345.887 212.786,346.572 C 213.207,346.992 213.878,348.741 214.279,350.457 C 215.073,353.863 215.788,355.500 216.482,355.500 C 217.585,355.500 220.184,346.062 221.540,337.125 C 222.363,331.707 223.276,332.156 227.392,340.000 C 228.763,342.613 230.279,345.819 230.760,347.125 C 231.616,349.445 232.371,350.129 232.691,348.875 C 232.779,348.531 233.246,347.125 233.730,345.750 C 234.213,344.375 235.371,340.438 236.302,337.000 C 240.542,321.344 243.418,314.442 248.146,308.579 C 253.303,302.183 253.676,301.412 253.285,297.961 C 253.096,296.287 252.697,294.317 252.400,293.584 C 250.713,289.429 249.923,288.000 249.311,288.000 C 248.279,288.000 241.050,292.472 240.547,293.421 C 240.305,293.877 239.729,296.500 239.266,299.250 C 238.349,304.706 236.453,310.917 235.083,312.956 C 234.605,313.668 233.917,314.843 233.553,315.567 C 232.403,317.862 228.515,322.500 227.743,322.500 C 227.124,322.500 227.000,321.427 227.000,316.092 C 227.000,307.732 225.715,300.500 224.229,300.500 C 223.915,300.500 222.811,302.400 221.776,304.723 C 219.325,310.224 217.290,313.000 215.707,313.000 C 214.987,313.000 214.500,312.708 214.500,312.276 C 214.500,310.831 211.390,303.001 210.828,303.031 C 210.510,303.047 209.568,304.001 208.734,305.149 C 207.271,307.163 203.984,309.475 202.559,309.492 C 201.813,309.501 198.415,306.182 196.680,303.750 L 195.609,302.250 L 194.057,305.576 C 193.203,307.405 192.329,309.746 192.115,310.779 C 191.571,313.396 190.392,314.043 188.834,312.579 C 187.717,311.530 185.029,306.500 183.514,302.625 C 182.663,300.448 182.142,300.578 181.515,303.125 C 181.227,304.294 180.758,306.038 180.473,307.000 C 180.187,307.962 179.818,311.854 179.652,315.647 C 179.295,323.805 178.976,324.067 175.590,318.994 C 171.590,313.001 168.998,306.484 167.736,299.250 C 166.887,294.381 166.278,293.387 163.153,291.760 C 162.106,291.216 160.170,290.121 158.850,289.327 C 157.530,288.533 156.363,287.971 156.256,288.077 C 156.149,288.184 155.478,290.285 154.765,292.745 C 153.048,298.670 152.962,301.072 154.401,302.861 C 157.642,306.890 161.134,311.686 162.389,313.830 C 164.787,317.927 168.301,327.648 172.030,340.500 C 173.690,346.223 174.602,348.549 175.118,348.377 C 175.376,348.291 175.982,347.103 176.465,345.736 C 178.498,339.977 182.387,333.500 183.809,333.500 C 184.189,333.500 184.502,333.669 184.504,333.875 C 184.557,338.698 187.324,351.503 188.800,353.757 C 190.258,355.981 190.556,355.526 192.486,348.125 C 192.791,346.956 193.278,346.000 193.569,346.000 C 193.860,346.000 195.370,347.404 196.924,349.119 C 201.802,354.502 202.969,355.594 203.619,355.379 C 203.966,355.264 205.205,353.950 206.372,352.460 Z M 214.215,276.288 C 215.562,273.119 216.978,271.531 223.428,265.961 C 225.707,263.993 226.124,262.218 224.625,260.866 C 219.848,256.562 212.488,263.572 211.674,273.203 C 211.360,276.922 211.671,279.500 212.435,279.500 C 212.663,279.500 213.464,278.054 214.215,276.288 Z M 194.913,275.745 C 195.176,270.933 193.373,265.889 190.225,262.625 C 188.006,260.324 187.448,260.000 185.708,260.000 C 181.211,260.000 180.139,262.977 183.565,265.955 C 189.482,271.097 191.401,273.349 192.301,276.202 C 192.936,278.219 193.418,278.993 193.972,278.888 C 194.550,278.778 194.792,277.970 194.913,275.745 Z M 180.000,238.700 C 180.000,238.261 178.820,235.617 177.378,232.825 C 175.360,228.919 173.941,226.939 171.218,224.230 C 167.214,220.246 161.010,215.433 156.387,212.723 C 152.550,210.474 144.236,207.639 139.658,207.019 C 135.192,206.414 130.656,205.617 129.392,205.216 C 128.108,204.808 128.394,205.946 129.768,206.714 C 133.662,208.890 137.513,211.678 138.563,213.082 C 139.249,214.000 140.206,216.438 140.690,218.500 C 141.752,223.022 143.197,225.633 146.142,228.347 C 149.197,231.163 151.769,231.704 162.250,231.729 C 172.150,231.753 172.393,231.834 176.549,236.442 C 179.402,239.605 180.000,239.996 180.000,238.700 Z M 230.623,236.312 C 235.088,231.847 235.388,231.756 245.750,231.718 C 255.636,231.683 256.364,231.525 259.984,228.629 C 263.362,225.927 264.334,224.604 265.770,220.750 C 266.488,218.825 267.435,216.394 267.876,215.347 C 268.966,212.759 273.741,208.454 277.168,206.969 C 279.804,205.828 280.751,205.000 279.422,205.000 C 278.278,205.000 267.186,207.068 264.250,207.829 C 258.230,209.389 253.991,211.051 249.668,213.544 C 244.135,216.735 241.952,218.486 236.000,224.500 C 232.139,228.401 230.852,230.105 229.125,233.601 C 225.977,239.972 226.328,240.607 230.623,236.312 Z M 189.982,200.845 C 189.955,198.427 188.783,194.006 187.282,190.662 C 185.387,186.439 179.254,180.477 172.750,176.536 C 166.862,172.969 163.532,171.301 163.120,171.714 C 162.956,171.877 167.107,176.227 172.344,181.381 C 181.295,190.188 182.084,191.117 185.493,196.868 C 187.488,200.232 189.318,202.863 189.560,202.713 C 189.802,202.563 189.992,201.723 189.982,200.845 Z M 219.018,200.703 C 219.813,198.612 223.258,192.921 225.669,189.716 C 227.717,186.993 236.773,178.527 241.875,174.566 C 245.353,171.865 244.590,171.081 240.625,173.281 C 238.769,174.311 235.225,176.187 232.750,177.450 C 229.356,179.182 227.310,180.679 224.427,183.541 C 220.229,187.707 218.717,190.207 217.646,194.748 C 216.541,199.434 217.658,204.280 219.018,200.703 Z" fill="#000000" fill-rule="evenodd" /></svg>