<svg xmlns="http://www.w3.org/2000/svg" viewBox="0 0 130 172" width="130" height="172"><path d="M 53.000,159.250 C 43.540,156.621 36.272,151.215 32.630,144.099 C 30.531,139.997 29.825,136.448 30.093,131.342 C 30.285,127.674 30.581,126.528 32.160,123.333 C 35.807,115.955 42.034,112.000 50.005,112.000 C 57.985,112.000 64.060,116.638 65.554,123.872 C 66.253,127.256 65.743,129.766 63.766,132.667 C 62.637,134.324 60.162,136.329 59.752,135.919 C 59.607,135.773 59.975,134.552 60.571,133.205 C 62.703,128.386 61.240,123.077 57.000,120.250 C 54.992,118.911 54.346,118.752 51.000,118.765 C 46.671,118.782 44.970,119.499 41.996,122.564 C 39.894,124.730 37.996,129.048 38.006,131.644 C 38.015,133.975 39.236,138.204 40.483,140.223 C 42.183,142.973 45.739,145.787 49.393,147.275 C 57.895,150.735 67.947,148.700 75.110,142.068 C 78.855,138.600 80.661,135.976 81.967,132.099 C 84.368,124.971 82.540,118.457 76.468,112.500 C 72.886,108.987 69.145,106.867 61.000,103.735 C 56.905,102.160 53.407,100.774 47.375,98.336 C 45.674,97.649 45.633,96.861 47.234,95.602 C 47.912,95.068 49.500,93.365 50.761,91.816 L 53.055,89.000 L 55.902,90.914 C 57.469,91.967 59.144,92.972 59.625,93.148 C 61.121,93.696 60.590,92.507 58.500,90.631 C 56.151,88.523 55.982,87.411 57.875,86.527 C 58.631,86.173 59.587,85.727 60.000,85.535 C 60.413,85.343 61.261,84.132 61.885,82.843 C 62.509,81.554 63.232,80.500 63.492,80.500 C 65.705,80.500 75.678,85.228 81.250,88.918 C 86.664,92.505 95.000,100.876 95.000,102.727 C 95.000,102.863 94.352,103.309 93.560,103.719 C 92.768,104.129 91.631,105.402 91.033,106.548 C 90.436,107.695 89.480,109.010 88.910,109.472 C 87.988,110.219 87.949,110.433 88.562,111.422 C 89.389,112.756 91.011,112.668 91.737,111.250 C 92.979,108.827 94.740,107.000 95.834,107.000 C 98.399,107.000 101.203,116.015 101.093,123.911 C 100.995,130.959 99.444,136.142 95.570,142.374 C 93.579,145.577 92.788,145.221 93.189,141.304 C 93.573,137.558 92.978,135.500 91.512,135.500 C 90.363,135.500 90.260,136.162 91.054,138.441 C 91.472,139.638 91.457,140.398 90.994,141.515 C 90.469,142.782 90.108,143.000 88.535,143.000 C 86.229,143.000 84.361,144.221 85.500,144.983 C 85.912,145.259 86.954,145.488 87.814,145.492 C 89.661,145.501 90.709,146.554 90.265,147.954 C 89.276,151.069 79.275,157.077 71.884,158.996 C 67.385,160.164 56.801,160.307 53.000,159.250 Z M 84.033,107.482 C 85.836,106.517 84.728,103.685 82.703,104.084 C 81.168,104.385 80.682,105.820 81.724,106.971 C 82.805,108.166 82.770,108.158 84.033,107.482 Z M 32.169,98.375 C 26.210,92.204 23.434,87.015 20.733,77.000 C 19.345,71.856 18.932,71.705 15.814,75.210 C 12.289,79.171 11.762,78.824 12.158,72.802 C 12.433,68.631 13.899,61.147 15.017,58.205 C 15.858,55.994 18.514,57.262 19.537,60.363 C 20.022,61.830 19.940,62.177 18.787,63.547 C 16.856,65.842 18.143,66.912 20.768,65.192 C 21.673,64.599 22.000,63.939 22.000,62.704 C 22.000,61.454 22.327,60.809 23.274,60.188 C 24.500,59.385 24.667,59.413 27.679,60.927 C 32.863,63.532 34.946,62.832 30.528,59.970 C 28.796,58.847 27.820,57.780 27.271,56.406 L 26.486,54.444 L 24.748,56.286 C 23.074,58.062 22.969,58.099 21.880,57.309 C 21.259,56.858 19.906,55.926 18.875,55.238 C 17.844,54.550 17.006,53.709 17.014,53.369 C 17.022,53.028 17.680,51.295 18.476,49.516 C 19.273,47.737 19.798,46.078 19.645,45.829 C 19.373,45.390 16.447,45.596 13.125,46.287 C 10.466,46.840 11.042,45.082 14.684,41.527 C 19.211,37.107 25.426,32.779 31.412,29.877 C 35.202,28.040 36.429,27.225 36.027,26.812 C 35.726,26.503 33.984,25.462 32.156,24.500 C 30.328,23.538 28.814,22.535 28.791,22.272 C 28.769,22.009 29.762,21.457 31.000,21.045 C 32.677,20.488 35.605,20.299 42.500,20.304 C 51.825,20.312 57.336,20.991 57.796,22.189 C 58.171,23.166 55.080,30.116 53.544,31.750 C 52.311,33.062 51.000,35.806 51.000,37.075 C 51.000,37.854 51.999,37.513 52.880,36.433 C 56.279,32.265 55.971,32.313 60.447,35.261 C 61.926,36.235 63.238,36.929 63.363,36.803 C 63.960,36.207 62.749,34.465 60.510,32.699 C 59.151,31.627 58.031,30.474 58.020,30.138 C 57.983,29.005 60.946,23.080 61.784,22.611 C 62.954,21.956 62.419,20.651 59.463,16.954 C 58.093,15.239 57.058,13.592 57.164,13.293 C 57.504,12.334 60.155,12.839 63.750,14.548 C 67.794,16.470 70.675,18.247 77.537,23.050 C 82.192,26.309 84.000,27.136 84.000,26.006 C 84.000,25.734 83.308,23.351 82.462,20.711 C 81.616,18.070 81.062,15.771 81.232,15.602 C 81.789,15.044 84.982,17.128 87.193,19.491 C 88.388,20.768 90.443,23.712 91.761,26.032 C 93.539,29.163 95.423,31.490 99.073,35.062 C 103.372,39.269 104.178,40.333 105.474,43.519 C 107.148,47.633 109.286,50.111 113.750,53.117 C 117.192,55.435 118.473,56.825 118.489,58.258 C 118.503,59.578 114.871,65.791 112.842,67.918 C 110.779,70.079 108.561,71.261 107.868,70.568 C 107.512,70.212 107.608,69.659 108.176,68.793 C 109.149,67.307 109.233,65.933 108.400,65.100 C 107.492,64.192 106.815,64.359 104.750,66.000 C 103.712,66.825 102.668,67.500 102.431,67.500 C 102.194,67.500 102.000,66.476 102.000,65.225 C 102.000,62.440 101.079,60.560 98.904,58.904 C 95.614,56.399 92.995,55.397 89.541,55.322 C 86.461,55.255 86.240,55.324 86.087,56.403 C 85.997,57.036 86.129,57.824 86.380,58.153 C 86.631,58.481 87.345,60.100 87.967,61.750 C 89.892,66.858 89.997,67.000 91.850,67.000 C 93.760,67.000 94.497,68.090 93.579,69.559 C 92.197,71.772 93.594,73.497 95.969,72.513 C 98.178,71.598 98.724,72.269 97.450,74.331 C 96.440,75.966 96.423,76.137 97.202,76.916 C 97.660,77.375 98.756,77.750 99.636,77.750 C 101.977,77.750 101.980,79.085 99.642,80.205 C 96.825,81.554 92.561,81.813 90.361,80.769 C 88.228,79.757 87.625,78.894 85.807,74.250 C 85.053,72.325 83.627,69.513 82.639,68.000 C 78.475,61.629 76.534,60.088 70.376,58.260 C 68.795,57.791 67.376,57.204 67.223,56.956 C 67.069,56.708 67.728,55.322 68.687,53.877 C 70.363,51.352 71.500,48.960 71.500,47.960 C 71.500,47.208 68.499,45.576 65.500,44.697 C 57.606,42.385 47.863,46.327 44.859,53.050 C 42.254,58.879 42.350,61.675 45.371,67.917 C 46.941,71.160 49.980,73.870 55.281,76.752 C 57.457,77.934 59.448,79.237 59.707,79.647 C 60.016,80.138 59.929,81.043 59.450,82.302 C 58.842,83.899 58.315,84.366 56.236,85.153 C 54.869,85.670 53.242,86.211 52.621,86.356 C 52.000,86.500 50.389,87.998 49.040,89.684 C 47.691,91.370 45.807,93.499 44.853,94.415 L 43.119,96.081 L 41.184,95.135 C 40.121,94.615 38.754,93.874 38.148,93.489 C 37.541,93.103 36.887,92.946 36.693,93.140 C 36.261,93.572 36.291,97.282 36.749,99.992 C 37.250,102.958 36.255,102.607 32.169,98.375 Z M 36.500,83.280 C 36.500,82.302 35.531,81.769 34.900,82.400 C 34.618,82.682 34.538,83.157 34.723,83.456 C 35.213,84.249 36.500,84.121 36.500,83.280 Z M 100.801,48.297 C 101.477,46.535 96.530,41.170 93.966,40.885 C 92.860,40.762 92.764,40.908 92.903,42.500 C 93.110,44.870 94.378,46.530 97.010,47.875 C 99.562,49.179 100.426,49.275 100.801,48.297 Z M 49.993,40.023 C 50.676,39.498 51.087,38.920 50.905,38.739 C 50.464,38.298 47.877,39.586 47.620,40.375 C 47.319,41.300 48.573,41.113 49.993,40.023 Z" fill="#000000" fill-rule="evenodd" /></svg>