<svg xmlns="http://www.w3.org/2000/svg" viewBox="0 0 82 154" width="82" height="154"><path d="M 35.750,138.591 C 30.706,134.292 26.295,129.487 23.309,125.036 C 20.845,121.364 18.000,116.215 18.000,115.428 C 18.000,115.170 19.483,113.414 21.295,111.526 C 23.107,109.639 24.920,107.623 25.323,107.047 C 26.407,105.500 27.093,105.742 29.075,108.375 C 30.058,109.681 33.031,113.054 35.682,115.869 L 40.500,120.988 L 40.500,131.494 C 40.500,137.272 40.331,142.000 40.125,142.000 C 39.919,142.000 37.950,140.466 35.750,138.591 Z M 44.000,131.752 L 44.000,121.503 L 47.402,117.877 C 51.233,113.792 56.192,107.951 56.951,106.627 C 57.390,105.864 58.058,106.351 62.102,110.381 L 66.750,115.012 L 64.830,118.748 C 61.671,124.896 59.221,128.317 54.431,133.267 C 50.279,137.560 45.142,142.000 44.329,142.000 C 44.148,142.000 44.000,137.388 44.000,131.752 Z M 37.845,112.875 C 28.701,102.887 27.779,100.878 27.866,91.102 C 27.961,80.354 30.564,74.792 40.434,64.250 C 42.751,61.775 45.477,58.625 46.492,57.250 C 48.559,54.449 51.000,50.230 51.000,49.458 C 51.000,49.180 51.438,48.046 51.972,46.939 C 54.632,41.434 54.674,34.605 52.078,29.334 L 50.429,25.983 L 52.007,23.992 C 52.874,22.896 53.669,22.000 53.773,22.000 C 53.877,22.000 55.265,22.485 56.856,23.078 C 62.839,25.307 66.852,28.652 69.059,33.250 C 69.851,34.900 70.499,36.745 70.500,37.351 C 70.500,38.441 70.478,38.444 68.322,37.645 C 67.124,37.201 65.750,36.989 65.267,37.174 C 63.956,37.677 64.678,40.575 66.957,43.959 C 67.992,45.494 69.099,47.515 69.419,48.450 C 70.044,50.278 70.227,57.000 69.652,57.000 C 69.460,57.000 68.464,56.418 67.437,55.707 C 66.411,54.995 65.161,54.492 64.660,54.588 C 63.412,54.827 61.024,59.360 61.019,61.500 C 61.017,62.462 61.339,64.150 61.736,65.250 C 62.572,67.571 62.686,69.931 62.013,70.995 C 61.601,71.648 61.359,71.633 60.069,70.870 C 58.171,69.749 55.873,69.759 54.847,70.893 C 53.689,72.172 52.500,75.225 52.500,76.916 C 52.500,77.782 53.304,79.549 54.499,81.308 C 55.598,82.926 56.498,84.410 56.499,84.606 C 56.499,84.801 55.544,85.217 54.375,85.530 C 51.440,86.314 51.000,86.802 51.000,89.273 C 51.000,92.526 53.398,94.957 57.875,96.244 C 58.494,96.422 59.000,96.764 59.000,97.005 C 59.000,97.650 57.042,100.927 55.119,103.500 C 52.971,106.374 42.884,117.500 42.426,117.500 C 42.235,117.500 40.174,115.419 37.845,112.875 Z M 22.333,95.568 C 18.733,90.026 18.018,84.680 20.045,78.458 C 21.857,72.893 23.843,70.106 31.770,62.000 C 35.939,57.737 39.440,53.967 39.551,53.621 C 39.770,52.937 45.402,50.735 45.832,51.166 C 46.302,51.636 43.242,55.609 37.512,61.970 C 30.508,69.745 28.232,73.055 25.973,78.758 C 24.729,81.898 24.402,83.969 24.081,90.750 L 23.750,97.750 L 22.333,95.568 Z M 23.125,53.329 C 21.956,53.043 21.000,52.630 21.000,52.412 C 21.000,52.195 22.133,51.443 23.518,50.741 C 26.682,49.138 30.000,46.175 30.000,44.953 C 30.000,42.141 23.551,41.693 19.538,44.226 C 17.621,45.436 16.997,46.352 15.818,49.681 C 15.541,50.463 15.363,50.509 14.708,49.965 C 13.626,49.067 12.149,46.053 11.751,43.931 C 11.150,40.730 12.280,38.027 15.417,35.161 C 16.975,33.737 18.700,32.110 19.250,31.546 C 19.800,30.982 22.084,28.659 24.326,26.385 C 26.567,24.111 29.267,20.990 30.326,19.450 C 32.216,16.700 36.310,12.643 36.751,13.084 C 36.874,13.207 36.716,14.700 36.400,16.400 C 36.084,18.100 35.980,19.647 36.170,19.836 C 36.585,20.252 48.498,14.433 50.751,12.715 C 51.627,12.047 52.492,11.500 52.672,11.500 C 52.852,11.500 53.000,12.281 53.000,13.236 C 53.000,15.898 50.831,20.209 47.971,23.234 L 45.388,25.965 L 46.876,27.857 C 49.690,31.438 50.206,32.923 50.226,37.500 C 50.260,45.033 48.009,47.444 39.817,48.653 C 36.517,49.139 34.401,49.760 32.687,50.744 C 26.660,54.203 26.672,54.200 23.125,53.329 Z M 32.500,34.250 C 32.843,33.837 33.241,32.452 33.385,31.172 C 33.641,28.903 33.618,28.854 32.449,29.213 C 31.789,29.415 30.688,29.705 30.000,29.857 C 28.517,30.186 27.622,30.838 26.961,32.072 C 25.830,34.185 30.900,36.178 32.500,34.250 Z" fill="#000000" fill-rule="evenodd" /></svg>