<svg xmlns="http://www.w3.org/2000/svg" viewBox="0 0 307 314" width="307" height="314"><path d="M 178.250,301.949 C 172.843,301.623 171.578,301.408 166.250,299.912 C 156.353,297.133 152.065,295.066 140.090,287.301 C 133.473,283.011 126.375,279.291 122.389,278.025 C 108.921,273.747 95.862,277.602 84.517,289.205 C 81.712,292.074 80.162,292.650 79.005,291.255 C 78.055,290.111 78.797,287.338 81.515,281.876 C 86.457,271.945 94.235,263.639 103.005,258.928 C 106.745,256.919 107.510,256.658 112.152,255.804 C 116.552,254.995 117.420,255.464 116.527,258.167 C 116.195,259.175 115.715,260.000 115.461,260.000 C 115.208,260.000 115.000,260.253 115.000,260.562 C 115.000,260.942 115.529,261.001 116.625,260.744 C 119.505,260.069 121.648,260.024 126.750,260.532 C 133.107,261.164 137.297,262.534 150.000,268.134 C 155.637,270.620 161.037,272.847 162.000,273.083 C 170.401,275.146 175.213,275.570 179.691,274.644 C 186.674,273.199 190.836,270.164 193.343,264.686 C 195.156,260.728 195.329,257.537 193.999,252.609 C 191.793,244.434 185.825,237.848 178.312,235.297 C 177.153,234.903 175.427,234.243 174.477,233.829 C 173.527,233.415 170.275,232.126 167.250,230.966 C 161.162,228.630 153.643,225.137 153.216,224.445 C 153.065,224.200 152.602,224.000 152.187,224.000 C 150.487,224.000 153.647,229.417 158.777,235.300 C 163.384,240.582 163.013,241.381 156.961,239.208 C 148.843,236.292 143.402,232.867 136.838,226.539 C 131.158,221.063 127.844,216.953 125.018,211.878 C 123.771,209.637 122.525,207.904 122.250,208.027 C 121.963,208.155 121.756,210.384 121.765,213.250 C 121.779,217.918 122.199,220.344 124.473,228.875 C 125.447,232.529 122.976,231.416 118.042,225.978 C 110.544,217.715 105.685,208.220 101.547,193.750 C 98.906,184.511 98.049,178.645 97.656,167.107 C 97.485,162.078 97.133,157.832 96.874,157.672 C 95.958,157.106 95.210,158.324 88.227,171.750 C 84.214,179.466 82.415,183.724 81.261,188.233 C 80.842,189.873 80.196,191.518 79.827,191.887 C 78.650,193.064 76.629,192.035 73.878,188.857 C 70.059,184.446 67.555,183.000 63.738,183.000 C 61.122,183.000 60.315,183.236 58.247,184.606 C 55.573,186.377 51.761,191.258 50.679,194.297 C 48.365,200.797 47.862,203.774 47.646,212.250 C 47.437,220.451 47.870,227.009 48.967,232.250 C 50.146,237.890 50.181,239.687 49.128,240.637 C 48.554,241.155 47.795,241.390 47.305,241.202 C 45.854,240.645 41.036,233.833 35.669,224.750 C 31.066,216.959 24.671,202.284 22.487,194.500 C 22.140,193.262 21.574,191.350 21.230,190.250 C 20.048,186.477 18.693,180.124 17.445,172.500 C 16.558,167.081 16.553,141.965 17.439,136.500 C 18.815,128.007 20.085,122.163 21.459,118.000 C 22.231,115.662 23.208,112.625 23.629,111.250 C 26.838,100.789 34.625,84.968 41.867,74.198 C 48.162,64.836 61.957,50.344 72.750,41.756 C 84.423,32.468 101.243,22.587 113.000,18.111 C 117.196,16.513 118.745,16.316 119.688,17.260 C 121.454,19.025 120.562,21.281 116.426,25.516 C 111.148,30.920 104.537,41.538 101.679,49.200 C 101.258,50.327 100.568,52.150 100.146,53.250 C 99.306,55.435 99.070,56.263 97.555,62.329 C 95.020,72.485 95.020,85.227 97.555,94.250 C 99.151,99.929 105.497,113.168 107.112,114.185 C 108.073,114.791 108.195,114.672 111.323,110.053 C 112.327,108.569 114.972,105.410 117.200,103.032 C 126.357,93.258 127.072,92.408 126.778,91.641 C 126.550,91.048 125.926,90.928 124.023,91.111 C 120.325,91.466 119.983,90.950 122.236,88.413 C 126.519,83.591 132.364,78.747 137.250,75.972 C 147.596,70.095 160.379,66.000 168.375,66.000 C 172.454,66.000 173.155,65.239 170.513,63.678 C 168.966,62.764 166.773,59.990 165.257,57.029 C 162.789,52.211 161.327,43.811 162.315,40.125 C 162.675,38.781 163.408,38.662 163.850,39.875 C 164.861,42.653 171.346,50.702 175.354,54.153 C 179.295,57.546 184.500,60.056 184.500,58.563 C 184.500,58.322 184.162,57.169 183.750,56.000 C 182.878,53.529 182.678,43.000 183.503,43.000 C 183.780,43.000 184.990,44.519 186.192,46.375 C 191.140,54.017 197.971,59.291 212.894,66.993 C 218.955,70.121 221.474,72.608 224.183,78.140 L 226.444,82.756 L 230.847,84.461 C 236.729,86.739 238.668,88.310 240.020,91.894 C 242.473,98.394 239.476,105.223 232.650,108.688 C 230.299,109.881 230.032,109.730 230.082,107.235 C 230.129,104.902 229.043,103.000 227.665,103.000 C 227.291,103.000 225.752,103.696 224.245,104.547 C 221.973,105.829 221.455,105.964 221.214,105.336 C 221.054,104.919 221.178,104.102 221.489,103.520 C 222.256,102.087 221.707,100.631 220.090,99.807 C 217.767,98.624 202.792,97.124 202.238,98.019 C 202.112,98.223 202.481,99.595 203.058,101.070 C 203.635,102.544 204.283,104.200 204.499,104.750 C 204.714,105.300 205.165,106.763 205.501,108.000 C 206.327,111.040 208.175,114.595 210.022,116.699 C 211.652,118.555 215.452,120.317 216.750,119.819 C 217.824,119.407 218.217,120.655 217.465,122.086 C 217.128,122.726 215.765,124.513 214.435,126.057 C 211.461,129.512 209.301,130.272 203.606,129.865 C 198.202,129.479 197.972,129.347 198.318,126.822 C 198.988,121.933 195.740,116.935 188.909,112.343 C 184.407,109.316 183.378,108.200 181.289,104.077 C 180.558,102.634 179.653,101.335 179.278,101.192 C 177.722,100.594 169.783,105.676 166.407,109.431 C 162.515,113.760 158.965,121.501 158.823,125.970 C 158.755,128.103 158.862,128.305 160.500,129.124 C 164.794,131.270 172.871,129.261 181.000,124.024 C 186.162,120.699 188.398,120.239 190.683,122.036 C 191.871,122.971 192.000,123.400 192.001,126.411 C 192.002,133.380 194.326,134.940 204.757,134.978 C 213.356,135.009 216.340,133.813 221.320,128.340 C 223.763,125.655 226.993,119.877 227.008,118.168 C 227.021,116.544 227.799,115.939 230.049,115.800 C 233.914,115.563 241.080,111.438 244.034,107.750 C 246.998,104.049 248.088,100.964 248.075,96.309 C 248.065,92.693 247.861,91.729 246.520,88.960 C 244.062,83.886 241.265,81.449 235.018,78.935 C 231.769,77.629 231.738,77.598 229.750,73.639 C 226.872,67.910 225.438,66.335 220.416,63.381 C 213.242,59.164 212.455,58.670 211.740,57.941 C 211.367,57.561 210.122,54.438 208.974,51.000 C 206.003,42.108 200.446,32.399 194.650,25.974 C 189.900,20.708 189.135,18.938 190.914,17.327 C 192.035,16.313 193.450,16.278 195.608,17.208 C 200.078,19.137 200.936,19.495 203.342,20.441 C 204.768,21.001 208.886,22.922 212.492,24.709 C 231.932,34.341 246.287,45.360 260.349,61.445 C 264.049,65.676 271.000,74.692 271.000,75.258 C 271.000,75.421 271.859,76.836 272.908,78.402 C 277.010,84.525 283.189,96.209 284.726,100.750 C 285.192,102.125 285.881,103.925 286.259,104.750 C 286.636,105.575 287.618,108.388 288.440,111.000 C 294.259,129.487 295.855,140.472 295.304,158.250 C 294.891,171.590 293.475,180.052 289.157,195.000 C 287.536,200.609 281.456,215.303 279.226,219.000 C 278.811,219.688 277.827,221.488 277.040,223.000 C 275.625,225.717 267.596,237.931 266.112,239.625 C 265.174,240.695 263.200,240.769 262.632,239.754 C 262.400,239.339 262.491,236.958 262.838,234.379 C 265.394,215.368 264.596,201.035 260.504,192.468 C 256.684,184.468 252.736,181.525 247.209,182.557 C 244.380,183.086 242.269,184.554 238.214,188.812 C 235.793,191.354 234.872,192.000 233.669,192.000 C 232.167,192.000 232.152,191.971 229.581,184.209 C 226.465,174.798 224.376,170.456 221.876,168.198 C 218.732,165.357 215.535,166.164 211.783,170.743 C 209.135,173.974 208.154,176.600 207.438,182.377 C 206.868,186.975 206.708,187.475 205.887,187.214 C 205.383,187.054 200.647,184.435 195.361,181.393 C 190.075,178.351 184.175,174.965 182.250,173.868 C 174.768,169.603 166.548,162.637 161.906,156.625 C 160.791,155.181 159.681,154.000 159.439,154.000 C 158.156,154.000 160.086,160.985 162.585,165.381 C 167.501,174.031 177.080,181.354 195.733,190.724 C 201.329,193.534 207.776,197.165 210.059,198.792 C 215.462,202.642 225.999,213.167 229.539,218.250 C 236.426,228.137 238.356,232.844 240.305,244.500 C 241.516,251.739 240.218,263.377 237.475,269.875 C 237.214,270.494 236.810,271.506 236.578,272.125 C 235.580,274.782 231.447,282.974 230.949,283.282 C 230.649,283.467 230.079,283.293 229.681,282.895 C 229.112,282.326 229.058,281.699 229.429,279.961 C 229.689,278.745 229.844,276.738 229.774,275.500 C 229.526,271.090 228.868,264.743 228.615,264.307 C 228.285,263.740 227.041,265.963 227.018,267.163 C 226.996,268.280 223.200,278.095 221.870,280.475 C 216.392,290.271 204.350,298.676 192.119,301.240 C 188.730,301.951 183.077,302.240 178.250,301.949 Z M 213.020,81.226 C 214.377,79.590 206.933,74.055 204.990,75.256 C 204.117,75.796 204.469,77.387 205.816,78.987 C 208.011,81.596 211.749,82.758 213.020,81.226 Z" fill="#000000" fill-rule="evenodd" /></svg>