<svg xmlns="http://www.w3.org/2000/svg" viewBox="0 0 514 477" width="514" height="477"><path d="M 191.750,461.021 C 186.509,460.639 180.952,459.806 173.247,458.249 C 160.786,455.732 141.936,447.522 133.000,440.720 C 118.079,429.363 108.945,417.655 100.840,399.500 C 95.120,386.685 93.311,365.982 96.538,350.250 C 99.257,336.997 105.493,322.653 111.537,315.750 C 120.362,305.671 122.730,303.327 128.750,298.714 C 136.669,292.647 144.516,288.661 155.500,285.126 C 162.729,282.800 163.806,282.587 174.409,281.382 C 175.477,281.260 175.759,281.803 177.974,288.250 C 180.741,296.305 184.156,304.269 186.427,307.958 C 187.292,309.365 188.000,310.758 188.000,311.055 C 188.000,311.352 188.432,312.202 188.959,312.943 C 189.487,313.684 190.647,315.631 191.537,317.270 C 192.427,318.909 193.763,321.038 194.505,322.000 C 197.850,326.341 202.415,333.493 202.004,333.748 C 201.754,333.902 200.582,333.599 199.400,333.073 C 194.323,330.818 193.913,330.750 185.500,330.756 C 176.312,330.762 172.765,331.407 167.000,334.119 C 162.252,336.353 158.848,339.301 154.706,344.767 C 147.994,353.626 146.755,368.037 151.815,378.391 C 154.543,383.973 161.586,390.911 167.513,393.854 C 172.698,396.430 176.389,397.152 184.500,397.178 C 189.676,397.194 191.352,397.002 194.250,396.061 C 202.034,393.535 206.921,389.641 213.953,380.362 C 215.156,378.774 216.237,377.570 216.354,377.687 C 216.471,377.804 216.305,379.779 215.985,382.075 C 215.340,386.695 213.796,391.629 212.439,393.407 C 211.953,394.043 211.662,394.840 211.792,395.179 C 211.921,395.517 210.533,397.538 208.705,399.671 C 205.060,403.927 204.755,405.234 208.112,402.220 C 213.566,397.323 215.628,394.751 218.127,389.724 C 221.868,382.201 223.002,377.490 222.992,369.510 C 222.981,360.027 221.591,355.164 215.485,343.250 C 211.024,334.545 210.198,333.134 208.017,330.500 C 201.725,322.899 193.993,310.303 189.755,300.750 C 189.267,299.650 188.461,297.850 187.964,296.750 C 184.289,288.620 179.946,272.409 178.518,261.500 C 178.212,259.163 177.751,256.125 177.493,254.750 C 177.235,253.375 176.665,250.113 176.226,247.500 C 175.786,244.887 175.118,241.738 174.741,240.500 C 174.363,239.262 173.553,236.562 172.940,234.500 C 172.328,232.438 170.702,228.522 169.327,225.798 C 167.290,221.762 166.035,220.041 162.539,216.490 C 158.626,212.516 157.877,211.990 154.000,210.498 C 150.093,208.996 149.265,208.860 143.750,208.815 C 138.648,208.775 137.264,208.942 134.500,209.934 C 132.713,210.576 130.424,211.632 129.414,212.281 C 127.671,213.403 124.000,218.231 124.000,219.402 C 124.000,219.704 122.419,221.554 120.488,223.512 C 116.296,227.763 113.060,229.393 104.555,231.537 C 101.362,232.342 97.823,233.471 96.689,234.046 C 93.624,235.600 89.786,239.166 87.136,242.919 C 81.749,250.551 79.607,252.842 76.861,253.914 C 75.425,254.474 72.787,255.025 71.000,255.137 C 67.347,255.367 65.324,254.468 62.834,251.508 C 60.615,248.871 61.323,247.437 64.624,247.880 L 66.656,248.153 L 66.367,244.332 C 66.208,242.230 66.253,240.403 66.466,240.271 C 66.680,240.139 67.603,240.699 68.517,241.515 C 70.512,243.297 70.730,243.321 71.736,241.875 C 74.356,238.110 76.702,235.069 78.240,233.447 C 80.480,231.083 80.524,230.305 78.391,230.774 C 77.507,230.968 76.438,231.306 76.016,231.524 C 75.595,231.742 73.944,232.419 72.347,233.030 C 68.895,234.349 60.640,239.734 55.750,243.856 C 51.179,247.710 47.774,250.025 43.194,252.394 C 40.064,254.012 28.387,255.415 25.354,254.536 C 19.546,252.854 18.808,251.532 23.625,251.441 C 30.335,251.314 31.495,250.263 27.229,248.174 C 25.068,247.116 23.820,246.022 21.968,243.563 C 20.633,241.789 19.664,240.139 19.814,239.896 C 19.965,239.653 21.362,240.186 22.919,241.082 C 27.245,243.569 29.976,244.835 33.546,246.007 L 36.804,247.077 L 39.840,246.054 C 42.908,245.020 49.763,241.104 53.022,238.522 C 65.327,228.775 69.467,226.437 77.000,224.980 C 86.093,223.222 87.362,222.333 81.649,221.721 C 75.246,221.035 61.614,222.520 59.625,224.120 C 59.279,224.398 59.000,225.712 59.000,227.061 C 59.000,228.403 58.821,229.500 58.601,229.500 C 58.382,229.500 57.324,228.600 56.250,227.500 C 55.176,226.400 53.996,225.500 53.629,225.500 C 52.802,225.500 49.167,227.325 48.795,227.927 C 48.645,228.170 48.823,229.529 49.191,230.948 C 50.228,234.945 49.580,234.899 44.896,230.640 C 43.602,229.463 42.188,228.500 41.754,228.500 C 40.517,228.500 38.519,226.988 37.724,225.451 C 35.792,221.714 37.922,212.207 41.285,209.562 C 42.876,208.310 45.275,207.562 49.000,207.154 C 52.427,206.780 56.098,205.198 59.680,202.552 C 62.813,200.237 64.413,198.295 66.007,194.870 C 68.037,190.509 74.986,185.648 82.866,183.077 C 84.580,182.517 86.943,181.398 88.116,180.589 C 90.537,178.921 100.910,168.392 104.952,163.500 C 107.696,160.179 108.851,159.184 109.365,159.698 C 109.936,160.270 107.833,170.267 106.422,173.690 C 104.736,177.778 105.116,178.746 107.564,176.597 C 112.400,172.352 118.668,167.770 122.000,166.043 C 126.032,163.953 129.810,162.643 130.325,163.158 C 130.500,163.333 129.411,164.888 127.905,166.613 C 125.159,169.760 121.500,174.904 121.500,175.618 C 121.500,176.257 124.051,176.034 128.000,175.051 C 134.264,173.491 146.144,172.698 152.160,173.437 C 162.140,174.665 166.724,176.273 175.750,181.710 C 181.283,185.043 191.039,194.256 192.206,197.250 C 192.420,197.800 192.679,203.762 192.780,210.500 C 193.046,228.107 194.087,237.738 196.945,249.011 C 197.746,252.167 198.746,255.762 199.169,257.000 C 199.592,258.238 200.230,260.259 200.587,261.491 C 201.647,265.149 208.521,278.416 212.266,284.032 C 215.996,289.625 222.457,296.829 222.484,295.425 C 222.493,294.972 221.685,293.397 220.689,291.925 C 217.719,287.537 214.698,282.413 213.511,279.750 C 212.898,278.375 211.771,275.900 211.007,274.250 C 208.425,268.678 208.054,267.758 206.969,264.250 C 206.374,262.325 205.328,259.062 204.646,257.000 C 203.963,254.938 203.202,252.012 202.953,250.500 C 202.704,248.988 202.269,246.512 201.986,245.000 C 200.431,236.704 199.945,229.989 199.507,210.750 C 199.047,190.493 198.442,182.600 196.728,174.500 C 195.497,168.686 194.002,163.018 192.904,160.000 C 187.157,144.214 178.432,133.281 165.885,126.142 C 162.434,124.179 155.857,122.000 153.381,122.000 C 152.680,122.000 151.017,123.149 149.049,124.993 C 147.034,126.880 144.345,128.726 141.765,129.993 C 137.798,131.939 137.518,132.001 132.462,132.018 C 124.215,132.047 121.440,132.790 115.684,136.507 C 109.952,140.208 103.790,144.820 102.000,146.750 C 99.733,149.194 97.115,150.228 93.250,150.206 C 89.087,150.183 87.415,149.428 84.844,146.410 C 82.114,143.206 82.323,142.500 86.000,142.500 C 88.036,142.500 89.019,142.299 89.058,141.875 C 89.142,140.963 89.004,139.411 88.725,138.125 C 88.421,136.722 89.305,136.674 91.000,138.000 C 92.635,139.279 93.000,139.246 93.000,137.819 C 93.000,136.867 93.218,136.679 94.125,136.844 C 95.004,137.005 95.796,136.400 97.750,134.072 C 99.125,132.435 100.760,130.852 101.382,130.555 C 102.005,130.258 102.775,129.444 103.093,128.745 C 103.411,128.047 104.198,127.344 104.842,127.182 C 105.486,127.021 106.179,126.592 106.381,126.230 C 106.584,125.867 107.970,124.934 109.460,124.155 C 112.590,122.520 113.019,121.813 111.405,120.948 C 109.683,120.025 98.153,119.743 93.051,120.499 C 87.370,121.341 86.596,121.850 86.403,124.868 C 86.209,127.896 85.321,127.978 83.271,125.156 C 82.435,124.004 81.513,123.047 81.223,123.031 C 80.933,123.014 79.639,123.670 78.348,124.489 L 76.000,125.978 L 76.000,129.239 C 76.000,132.074 75.880,132.500 75.079,132.500 C 74.479,132.500 73.745,131.672 72.976,130.125 C 71.035,126.224 70.029,125.000 68.763,125.000 C 67.926,125.000 67.141,124.326 65.998,122.625 C 64.423,120.282 64.404,120.187 64.661,115.614 C 64.844,112.349 65.200,110.500 65.863,109.364 C 67.735,106.159 73.007,103.791 80.000,103.014 C 84.912,102.468 89.873,100.806 91.656,99.109 C 92.442,98.362 94.555,95.681 96.351,93.152 C 98.147,90.624 100.439,87.985 101.444,87.289 C 103.883,85.598 109.051,83.522 112.788,82.731 C 114.460,82.378 117.272,81.431 119.038,80.628 C 123.026,78.814 133.296,72.641 140.507,67.723 C 146.890,63.370 149.508,61.842 149.905,62.238 C 150.765,63.098 146.154,72.519 143.245,75.845 C 139.315,80.337 140.648,80.665 148.160,77.053 C 153.439,74.515 155.587,73.740 162.116,72.019 C 165.773,71.055 168.000,70.747 168.000,71.206 C 168.000,71.319 166.023,73.400 163.606,75.831 C 159.438,80.022 155.693,84.425 156.075,84.686 C 156.171,84.752 157.488,85.092 159.000,85.441 C 162.731,86.303 171.481,89.591 177.787,92.502 C 181.867,94.385 195.172,103.216 196.743,105.083 C 197.625,106.131 198.000,107.171 198.000,108.567 C 198.000,109.662 198.214,112.063 198.476,113.904 C 198.738,115.744 199.211,119.275 199.526,121.750 C 200.152,126.658 201.541,133.401 202.975,138.500 C 203.478,140.287 204.401,143.662 205.025,146.000 C 205.650,148.338 206.320,150.475 206.514,150.750 C 206.707,151.025 206.989,151.812 207.140,152.500 C 207.529,154.273 212.726,166.617 213.727,168.145 C 214.186,168.846 215.850,172.081 217.423,175.335 C 218.997,178.588 221.269,183.050 222.472,185.250 C 223.675,187.450 225.325,190.488 226.140,192.000 C 226.956,193.512 228.026,195.425 228.520,196.250 C 229.014,197.075 230.690,200.562 232.244,204.000 C 233.798,207.438 235.541,211.262 236.118,212.500 C 236.979,214.349 237.235,216.220 237.554,223.000 C 238.032,233.166 239.835,243.047 242.280,248.898 C 242.676,249.846 243.000,250.970 243.000,251.395 C 243.000,251.820 244.564,255.336 246.475,259.209 C 249.735,265.816 252.473,270.000 253.536,270.000 C 254.170,270.000 254.130,260.368 253.471,254.250 C 252.565,245.841 250.769,236.614 249.480,233.750 C 249.233,233.200 248.560,230.838 247.985,228.500 C 247.410,226.162 245.828,221.305 244.470,217.705 C 243.111,214.105 242.000,211.021 242.000,210.852 C 242.000,210.258 238.770,203.548 227.993,181.750 C 222.010,169.650 216.542,158.512 215.842,157.000 C 214.469,154.036 211.000,143.737 211.000,142.627 C 211.000,142.255 210.668,141.308 210.262,140.523 C 209.190,138.451 206.265,125.454 204.741,116.000 C 204.276,113.112 203.694,109.527 203.448,108.033 C 202.561,102.651 203.054,90.955 204.578,81.250 C 205.106,77.889 206.903,70.866 208.993,64.000 C 210.831,57.965 210.829,57.696 208.949,56.724 C 207.576,56.014 206.510,55.922 202.770,56.193 C 200.284,56.373 197.519,56.653 196.625,56.817 C 194.398,57.223 194.487,56.190 196.875,53.922 C 200.900,50.099 207.450,45.931 214.625,42.627 C 218.048,41.051 216.963,40.384 207.500,38.243 C 199.983,36.544 197.228,36.000 196.125,36.000 C 194.226,36.000 194.856,34.591 197.241,33.504 C 200.971,31.805 218.297,28.000 222.304,28.000 C 224.909,28.000 225.113,27.494 222.875,26.580 C 217.765,24.492 213.625,21.661 209.375,17.347 C 206.269,14.196 205.260,12.500 206.489,12.500 C 206.759,12.500 208.615,13.041 210.614,13.701 C 217.152,15.862 219.980,16.061 241.761,15.901 C 261.639,15.754 262.374,15.783 266.412,16.867 C 268.700,17.481 271.288,18.476 272.162,19.077 C 273.035,19.678 275.212,21.218 277.000,22.500 C 282.772,26.638 283.059,26.709 292.231,26.224 C 305.324,25.531 305.494,25.542 308.290,27.270 C 311.025,28.960 312.481,31.266 313.329,35.250 C 314.347,40.032 313.472,42.683 310.372,44.216 C 309.592,44.601 308.869,45.900 308.000,48.475 C 306.646,52.488 305.714,53.392 305.233,51.161 C 303.938,45.157 303.876,45.022 302.282,44.730 C 301.439,44.576 299.854,44.639 298.759,44.870 C 296.978,45.247 296.686,45.527 295.993,47.521 C 294.964,50.481 293.413,50.649 292.958,47.850 C 292.493,44.986 292.045,44.754 288.401,45.483 C 281.554,46.853 268.000,52.323 268.000,53.715 C 268.000,54.084 268.619,54.795 269.375,55.296 C 271.604,56.772 283.017,62.500 283.730,62.500 C 284.090,62.500 284.754,63.062 285.204,63.750 C 286.461,65.668 288.857,65.461 291.000,63.250 C 291.933,62.287 293.015,61.500 293.405,61.500 C 294.116,61.500 294.090,62.102 293.222,65.625 C 292.901,66.928 292.975,67.000 294.638,67.000 C 296.092,67.000 296.445,67.214 296.705,68.250 C 297.112,69.870 297.597,69.826 299.423,68.000 C 300.968,66.455 302.000,66.078 302.000,67.059 C 302.000,67.367 301.502,69.070 300.893,70.844 C 299.542,74.780 297.287,77.520 294.207,78.968 C 292.188,79.917 291.575,79.992 289.487,79.544 C 288.167,79.261 285.746,78.348 284.107,77.515 C 282.468,76.682 280.957,76.000 280.750,76.000 C 280.543,76.000 279.085,75.345 277.509,74.544 C 273.620,72.568 270.455,71.511 266.000,70.701 C 260.851,69.765 257.517,69.832 251.977,70.980 C 249.377,71.519 246.484,72.026 245.547,72.105 C 243.873,72.248 243.818,72.328 242.206,77.000 C 241.305,79.612 240.419,82.987 240.237,84.500 C 240.056,86.013 239.599,89.089 239.222,91.337 C 237.547,101.319 240.788,119.618 246.997,135.243 C 249.011,140.312 253.737,149.798 256.345,154.007 C 257.450,155.791 260.558,160.963 263.250,165.500 C 265.943,170.037 269.014,175.031 270.073,176.598 C 271.133,178.164 272.000,179.560 272.000,179.701 C 272.000,179.841 272.708,181.147 273.574,182.603 C 275.693,186.167 282.242,199.258 283.153,201.750 C 283.555,202.850 285.004,206.450 286.373,209.750 C 289.107,216.345 293.329,228.534 293.982,231.722 C 294.210,232.837 294.862,235.929 295.431,238.592 C 295.999,241.255 296.687,245.080 296.960,247.092 C 297.232,249.104 297.796,253.000 298.212,255.750 C 298.628,258.500 298.975,262.122 298.984,263.800 C 298.993,265.477 299.160,268.627 299.355,270.800 C 299.675,274.364 299.743,274.554 300.048,272.750 C 300.233,271.650 300.661,269.400 300.999,267.750 C 301.716,264.244 301.408,245.719 300.547,240.500 C 299.955,236.917 299.296,233.135 298.434,228.375 C 296.170,215.872 289.578,198.633 281.848,185.000 C 277.305,176.986 277.046,176.167 276.701,168.732 C 276.491,164.209 276.594,160.077 276.994,157.000 C 277.333,154.387 277.793,150.562 278.015,148.500 C 279.584,133.961 288.133,114.457 298.839,100.991 C 303.070,95.669 314.639,85.328 321.250,80.958 C 324.210,79.001 336.718,72.633 339.875,71.475 C 340.769,71.147 341.500,70.639 341.500,70.347 C 341.500,68.902 330.463,60.000 328.672,60.000 C 328.303,60.000 328.000,59.663 328.000,59.250 C 328.000,58.206 331.623,58.277 339.750,59.483 C 349.599,60.943 354.308,61.872 355.435,62.575 C 357.720,64.003 356.966,62.327 354.108,59.629 C 351.241,56.923 347.606,52.089 345.775,48.548 C 344.117,45.342 346.014,45.883 359.750,52.533 C 369.255,57.135 375.183,58.946 382.750,59.560 C 395.785,60.617 397.554,61.217 404.250,66.854 C 409.540,71.307 410.803,71.651 422.250,71.743 C 428.510,71.793 431.145,72.001 432.250,72.533 C 437.040,74.835 438.762,77.454 439.132,83.000 C 439.445,87.691 439.166,88.654 437.074,90.095 C 435.903,90.902 434.995,92.228 434.060,94.496 C 432.381,98.569 431.000,99.182 431.000,95.854 C 431.000,92.506 429.604,91.000 426.498,91.000 C 423.992,91.000 423.591,91.310 421.750,94.666 C 420.943,96.136 420.282,95.711 419.789,93.405 C 419.535,92.220 419.126,91.115 418.880,90.950 C 417.971,90.339 405.113,92.899 402.626,94.185 C 401.759,94.633 400.757,94.996 400.400,94.992 C 400.042,94.988 398.569,95.598 397.125,96.348 C 394.595,97.662 393.664,99.000 395.280,99.000 C 396.481,99.000 403.847,102.663 407.750,105.202 C 409.675,106.454 411.636,107.483 412.107,107.489 C 412.579,107.495 413.206,107.950 413.500,108.500 C 414.260,109.921 415.062,109.749 417.000,107.750 C 417.933,106.787 418.897,106.000 419.143,106.000 C 419.389,106.000 419.514,107.069 419.420,108.375 C 419.252,110.725 419.266,110.750 420.750,110.715 C 421.575,110.696 422.494,111.008 422.793,111.408 C 423.258,112.031 423.703,112.041 425.909,111.475 C 427.324,111.112 428.609,110.942 428.764,111.097 C 428.919,111.252 428.360,112.541 427.523,113.961 C 426.685,115.382 426.000,116.721 426.000,116.938 C 426.000,117.155 424.706,118.295 423.125,119.472 L 420.250,121.612 L 416.500,121.357 C 413.265,121.137 412.303,120.833 409.500,119.141 C 406.047,117.058 400.192,114.608 395.250,113.179 C 391.289,112.034 383.777,112.021 379.678,113.152 C 377.963,113.625 374.823,114.000 372.572,114.000 C 366.707,114.000 362.701,112.347 356.361,107.311 L 354.472,105.810 L 350.611,106.455 C 346.204,107.191 341.496,109.284 337.960,112.078 C 336.623,113.135 335.338,114.000 335.103,114.000 C 334.242,114.000 326.570,122.349 324.535,125.500 C 321.841,129.672 318.346,136.999 317.244,140.789 C 316.770,142.418 316.086,144.537 315.725,145.500 C 315.364,146.463 314.941,148.262 314.785,149.500 C 314.629,150.738 314.290,152.988 314.031,154.500 C 312.999,160.518 312.859,171.996 313.714,180.448 C 314.170,184.957 314.746,189.025 314.993,189.487 C 315.240,189.949 315.591,191.547 315.773,193.039 C 315.954,194.530 316.619,197.775 317.251,200.250 C 318.696,205.917 319.376,209.025 320.476,215.000 C 320.957,217.613 321.718,221.213 322.168,223.000 C 325.008,234.304 326.993,250.969 327.008,263.638 C 327.015,269.748 327.421,272.342 328.177,271.118 C 328.933,269.895 330.000,259.900 330.000,254.043 C 330.000,246.545 329.267,234.119 328.464,228.000 C 327.083,217.480 323.596,198.634 322.495,195.738 C 321.649,193.511 327.212,182.281 332.122,176.307 C 334.466,173.455 335.052,172.863 340.750,167.583 C 350.720,158.345 361.715,153.146 375.735,151.038 C 383.932,149.806 390.748,149.717 396.753,150.765 C 399.165,151.185 401.271,151.396 401.434,151.233 C 401.951,150.715 398.118,143.868 395.511,140.653 C 394.130,138.950 393.000,137.431 393.000,137.278 C 393.000,136.492 395.316,137.266 400.263,139.704 C 405.617,142.343 409.067,144.724 414.735,149.696 C 416.269,151.042 417.664,152.002 417.835,151.832 C 418.006,151.661 417.569,150.222 416.864,148.635 C 415.366,145.263 414.673,142.788 413.762,137.557 C 413.111,133.824 413.149,133.000 413.967,133.000 C 414.191,133.000 418.159,137.176 422.785,142.281 C 432.215,152.687 435.025,154.977 443.975,159.548 C 451.113,163.194 453.032,164.955 456.857,171.365 C 458.655,174.377 460.655,176.942 462.452,178.539 C 465.672,181.399 470.678,184.000 472.963,184.000 C 475.881,184.000 483.000,188.459 483.000,190.287 C 483.000,190.612 483.343,191.162 483.762,191.510 C 484.373,192.017 484.487,193.086 484.338,196.913 L 484.152,201.684 L 482.201,203.335 C 481.128,204.242 479.708,204.988 479.045,204.993 C 478.272,204.997 476.793,205.999 474.915,207.790 C 471.068,211.460 469.775,210.993 471.571,206.582 C 472.218,204.992 472.185,204.858 470.851,203.711 C 468.814,201.958 467.047,201.634 466.056,202.832 C 465.135,203.946 462.751,205.084 462.294,204.627 C 462.126,204.459 462.129,203.572 462.301,202.655 C 462.686,200.604 462.000,199.688 459.571,199.007 C 456.668,198.192 448.679,197.090 443.250,196.755 C 440.500,196.585 437.406,196.317 436.375,196.159 C 434.854,195.926 434.500,196.027 434.500,196.692 C 434.500,197.747 438.956,199.753 444.250,201.081 C 451.804,202.977 456.381,206.040 464.454,214.604 C 468.683,219.090 473.895,223.446 476.766,224.893 C 482.139,227.601 489.401,227.057 498.625,223.254 C 499.973,222.698 499.725,224.303 498.258,225.628 C 497.575,226.245 495.317,227.650 493.240,228.750 C 491.162,229.850 489.449,230.975 489.433,231.250 C 489.403,231.735 490.665,232.207 495.625,233.567 C 496.931,233.925 498.000,234.365 498.000,234.543 C 498.000,235.802 485.423,235.129 480.679,233.617 C 474.763,231.732 467.520,226.400 460.481,218.750 C 455.498,213.334 452.452,211.041 446.176,207.984 C 439.914,204.934 439.906,204.814 446.514,213.500 C 447.246,214.463 448.150,216.094 448.523,217.125 C 449.286,219.235 450.145,219.451 452.000,218.000 C 453.245,217.026 454.999,216.661 455.001,217.375 C 455.002,217.581 454.496,218.709 453.876,219.880 L 452.750,222.010 L 454.250,223.237 C 455.306,224.101 456.379,224.469 457.875,224.482 C 459.897,224.499 460.607,225.066 459.480,225.763 C 459.194,225.939 458.439,226.909 457.802,227.917 C 456.558,229.888 453.126,231.514 450.250,231.495 C 445.595,231.464 442.940,229.366 435.695,219.995 C 430.289,213.001 427.091,210.089 422.356,207.845 C 420.214,206.830 418.283,206.000 418.063,206.000 C 417.433,206.000 411.380,204.021 410.000,203.364 C 405.427,201.186 401.012,196.371 398.491,190.810 C 397.287,188.155 396.733,187.462 395.624,187.225 C 394.868,187.063 393.743,186.726 393.123,186.475 C 392.504,186.225 389.916,185.881 387.373,185.711 C 380.371,185.243 376.320,186.287 368.500,190.580 C 364.562,192.741 359.129,198.039 356.254,202.523 C 351.374,210.130 348.060,221.839 346.919,235.500 C 346.351,242.295 346.884,259.143 347.993,269.500 C 348.244,271.837 348.737,276.450 349.090,279.750 C 350.489,292.836 349.776,322.780 347.919,328.871 C 347.648,329.762 347.217,331.787 346.963,333.371 C 346.066,338.960 344.370,346.749 342.527,353.750 C 341.947,355.950 341.275,358.650 341.033,359.750 C 340.519,362.090 337.449,370.938 335.655,375.250 C 331.900,384.278 324.621,397.475 319.781,404.032 C 318.271,406.077 316.188,408.988 315.151,410.500 C 312.646,414.153 299.501,427.244 293.308,432.253 C 281.360,441.916 267.089,449.686 252.250,454.607 C 245.781,456.752 239.959,458.178 234.250,459.015 C 232.600,459.257 229.000,459.796 226.250,460.211 C 220.295,461.112 199.633,461.597 191.750,461.021 Z M 85.842,202.375 C 87.643,200.381 89.464,197.347 89.158,196.851 C 88.736,196.169 82.219,196.852 80.586,197.749 C 78.448,198.925 75.238,201.905 75.658,202.324 C 76.096,202.763 79.772,203.334 82.788,203.433 C 84.322,203.483 85.077,203.222 85.842,202.375 Z M 446.968,177.697 C 447.305,177.363 443.442,173.556 441.612,172.420 C 439.865,171.335 435.074,169.895 434.464,170.272 C 434.033,170.539 435.083,174.244 436.204,176.411 C 436.634,177.243 437.383,178.040 437.868,178.181 C 438.828,178.461 446.614,178.047 446.968,177.697 Z M 116.682,100.746 C 117.232,100.197 117.500,99.066 117.500,97.298 C 117.500,94.497 117.178,93.736 116.296,94.452 C 115.996,94.696 114.168,95.364 112.234,95.937 C 109.661,96.698 108.254,97.456 106.990,98.761 C 104.791,101.029 105.183,101.279 111.187,101.439 C 114.967,101.540 116.022,101.407 116.682,100.746 Z M 390.864,78.702 C 391.682,78.539 393.333,77.560 394.532,76.527 L 396.713,74.649 L 395.515,74.008 C 392.053,72.155 383.659,71.354 382.488,72.765 C 381.962,73.398 382.054,73.762 383.024,74.890 C 386.385,78.794 387.556,79.364 390.864,78.702 Z M 267.861,32.392 C 269.260,31.037 269.405,30.691 268.822,30.107 C 268.076,29.361 262.827,28.543 258.625,28.516 C 255.573,28.497 255.219,29.267 257.162,31.695 C 259.686,34.850 264.970,35.195 267.861,32.392 Z M 341.000,435.242 C 338.113,434.892 334.962,434.448 334.000,434.255 C 331.418,433.739 322.516,431.042 320.523,430.173 C 319.573,429.758 317.773,429.077 316.523,428.659 C 313.758,427.734 311.000,426.106 311.000,425.398 C 311.000,425.112 312.344,423.440 313.988,421.684 C 315.631,419.927 317.937,417.202 319.113,415.628 C 320.288,414.054 322.682,410.964 324.433,408.762 C 326.184,406.560 327.818,404.228 328.065,403.579 C 328.312,402.930 329.279,401.240 330.214,399.824 C 331.149,398.408 332.502,395.956 333.222,394.375 C 333.941,392.794 334.745,391.500 335.010,391.500 C 335.274,391.500 337.093,392.528 339.052,393.783 C 341.012,395.039 344.670,396.762 347.182,397.612 C 351.365,399.026 352.320,399.159 358.500,399.187 C 364.863,399.216 365.505,399.127 369.700,397.625 C 375.345,395.604 378.833,393.525 382.891,389.766 C 387.795,385.221 391.610,379.103 393.968,372.000 C 394.562,370.212 395.243,368.390 395.481,367.949 C 395.941,367.102 397.482,359.767 398.514,353.514 C 398.853,351.459 399.313,349.434 399.536,349.014 C 399.759,348.594 400.320,345.212 400.782,341.500 C 401.244,337.788 401.916,333.625 402.275,332.250 C 405.745,318.950 405.586,319.409 409.739,310.750 C 412.609,304.767 415.466,300.666 420.500,295.303 C 423.822,291.764 431.942,286.000 433.607,286.000 C 434.475,286.000 435.397,284.731 434.895,284.228 C 434.769,284.102 433.560,284.208 432.208,284.463 C 430.008,284.878 429.461,284.782 427.000,283.552 C 425.488,282.796 422.562,281.894 420.500,281.548 C 414.651,280.565 414.500,280.521 414.500,279.816 C 414.500,279.034 421.751,274.067 425.000,272.623 C 431.026,269.945 432.447,269.405 435.963,268.458 C 438.046,267.897 440.538,267.222 441.500,266.958 C 446.000,265.726 455.357,264.410 461.250,264.180 C 468.026,263.916 475.499,264.612 485.263,266.418 C 490.846,267.451 492.635,268.186 492.405,269.355 C 492.230,270.243 492.235,270.240 486.750,272.905 C 470.957,280.580 458.439,293.539 448.744,312.250 C 446.891,315.825 445.210,318.933 445.007,319.156 C 444.804,319.379 444.006,317.579 443.233,315.156 C 442.461,312.733 441.592,310.441 441.302,310.064 C 441.013,309.686 440.657,306.779 440.513,303.604 C 440.346,299.934 440.042,297.761 439.679,297.641 C 438.884,297.379 433.457,302.504 430.831,305.998 C 428.904,308.562 425.450,314.944 424.471,317.750 C 422.560,323.230 421.500,332.898 421.236,347.250 C 420.978,361.349 420.214,374.365 419.521,376.500 C 419.298,377.188 418.834,379.299 418.490,381.192 C 418.146,383.085 417.466,385.672 416.979,386.942 C 416.492,388.211 415.810,390.038 415.465,391.000 C 414.540,393.578 410.955,401.132 410.244,402.000 C 409.906,402.413 409.016,403.875 408.266,405.250 C 406.241,408.962 403.112,412.850 400.060,415.446 C 398.570,416.713 396.106,418.824 394.584,420.137 C 389.288,424.706 383.514,427.984 374.750,431.399 C 369.353,433.502 365.895,434.318 358.515,435.230 C 351.306,436.120 348.253,436.123 341.000,435.242 Z" fill="#000000" fill-rule="evenodd" /></svg>