<svg xmlns="http://www.w3.org/2000/svg" viewBox="0 0 427 429" width="427" height="429"><path d="M 196.750,412.206 C 186.692,411.304 183.253,410.768 172.291,408.395 C 163.033,406.390 143.799,400.088 134.500,396.012 C 125.806,392.202 109.474,383.348 102.750,378.800 C 91.818,371.406 72.968,354.584 64.087,344.297 C 44.922,322.098 28.842,292.021 22.270,266.082 C 18.003,249.237 16.166,236.109 15.682,219.000 C 15.340,206.873 15.882,198.002 17.740,185.305 C 19.869,170.762 21.766,162.543 25.489,151.727 C 29.335,140.555 32.099,133.850 35.797,126.731 C 43.176,112.523 47.468,105.604 55.168,95.500 C 68.113,78.513 78.165,68.602 96.250,54.994 C 104.432,48.837 115.934,41.807 126.410,36.561 C 138.730,30.391 160.827,22.958 175.000,20.216 C 178.438,19.551 182.375,18.786 183.750,18.515 C 196.114,16.086 230.718,16.092 243.750,18.526 C 245.125,18.783 248.725,19.445 251.750,19.998 C 257.255,21.004 260.677,21.844 270.500,24.600 C 285.112,28.701 301.736,35.929 316.000,44.385 C 324.149,49.216 325.678,50.247 334.500,56.865 C 367.547,81.654 391.695,116.850 404.406,158.750 C 407.579,169.210 410.550,185.523 411.421,197.269 C 413.810,229.496 409.027,260.868 397.491,288.627 C 390.707,304.953 381.420,321.397 371.971,333.815 C 365.881,341.820 363.586,344.447 355.274,352.928 C 335.114,373.499 313.079,388.318 287.491,398.515 C 280.397,401.342 263.910,406.482 256.250,408.254 C 241.542,411.657 237.539,412.063 217.000,412.234 C 206.963,412.317 197.850,412.305 196.750,412.206 Z M 228.164,388.473 C 241.669,387.304 250.882,385.513 265.000,381.312 C 278.476,377.303 297.938,368.062 310.736,359.596 C 322.668,351.703 337.268,338.499 347.606,326.250 C 358.562,313.269 371.389,291.476 376.447,277.250 C 377.523,274.225 378.977,270.175 379.679,268.250 C 380.832,265.088 381.436,262.998 383.796,254.000 C 384.193,252.488 384.976,248.662 385.536,245.500 C 386.097,242.338 386.918,237.725 387.362,235.250 C 388.422,229.339 388.598,199.641 387.606,194.250 C 387.251,192.325 386.745,189.456 386.481,187.875 C 385.106,179.649 384.372,176.424 381.502,166.000 C 380.405,162.014 378.220,155.827 375.479,148.946 C 371.476,138.895 368.432,132.810 362.435,122.873 C 357.467,114.642 356.803,113.673 352.235,108.000 C 350.575,105.938 348.558,103.350 347.754,102.250 C 345.240,98.814 329.967,83.570 325.250,79.790 C 313.352,70.255 304.327,64.596 288.342,56.646 C 266.486,45.776 240.255,40.000 212.750,40.000 C 199.235,40.000 188.238,41.241 172.750,44.514 C 161.851,46.816 150.149,51.161 136.500,57.971 C 126.399,63.010 116.821,68.983 106.750,76.523 C 94.951,85.356 77.735,103.522 69.812,115.500 C 63.944,124.370 60.353,130.208 59.289,132.604 C 58.643,134.059 57.009,137.500 55.658,140.250 C 54.307,143.000 52.456,147.162 51.545,149.500 C 50.634,151.838 49.603,154.425 49.254,155.250 C 47.202,160.100 43.779,171.990 42.487,178.750 C 39.189,196.013 38.188,206.690 38.692,219.250 C 39.739,245.335 45.716,268.428 57.557,292.136 C 69.409,315.865 88.271,338.157 110.702,354.946 C 120.138,362.008 121.414,362.782 137.250,371.033 C 149.374,377.351 164.584,382.679 177.750,385.222 C 185.042,386.631 186.716,386.922 190.750,387.488 C 201.730,389.026 217.101,389.431 228.164,388.473 Z M 199.250,377.010 C 189.506,376.108 178.976,374.058 170.500,371.412 C 166.301,370.102 164.527,369.488 158.875,367.389 C 156.877,366.647 157.180,366.159 159.875,365.778 C 166.385,364.857 179.687,360.841 188.408,357.164 C 196.738,353.651 203.981,352.093 212.263,352.033 C 220.030,351.976 229.263,353.430 234.617,355.552 C 239.058,357.312 255.562,362.927 261.000,364.528 C 261.962,364.812 264.166,365.325 265.896,365.669 C 267.626,366.014 269.089,366.510 269.146,366.773 C 269.234,367.177 260.534,370.396 257.286,371.162 C 256.716,371.296 253.213,372.189 249.500,373.146 C 245.787,374.104 240.950,375.158 238.750,375.489 C 236.550,375.819 233.512,376.313 232.000,376.585 C 228.378,377.237 204.987,377.540 199.250,377.010 Z M 136.500,357.312 C 134.790,356.936 131.797,355.529 128.587,353.592 C 122.253,349.769 119.814,347.979 111.977,341.402 C 108.600,338.569 104.636,335.290 103.168,334.118 C 100.876,332.286 99.875,331.000 100.742,331.000 C 100.875,331.000 103.406,331.648 106.367,332.440 C 109.327,333.233 112.312,333.995 113.000,334.134 C 113.688,334.274 116.838,334.956 120.000,335.651 C 133.181,338.546 146.621,338.396 160.500,335.200 C 167.041,333.694 170.115,332.704 179.000,329.247 C 186.771,326.223 190.675,325.014 197.750,323.440 C 203.613,322.136 216.975,321.624 222.963,322.474 C 228.359,323.240 237.677,325.564 242.250,327.284 C 251.030,330.587 263.107,334.658 266.750,335.541 C 276.084,337.806 290.431,338.731 297.470,337.523 C 298.999,337.260 302.050,336.794 304.250,336.487 C 306.450,336.180 311.738,334.906 316.000,333.657 C 325.822,330.779 327.164,330.464 327.625,330.925 C 328.348,331.648 312.646,344.525 303.930,350.358 C 292.576,357.956 288.244,359.011 275.500,357.278 C 265.579,355.928 257.860,353.835 247.250,349.615 C 240.724,347.020 234.052,344.783 230.000,343.832 C 228.213,343.413 225.512,342.773 224.000,342.410 C 222.294,342.000 218.213,341.757 213.250,341.767 C 206.279,341.783 204.575,341.956 200.000,343.113 C 193.353,344.794 190.056,345.870 183.500,348.497 C 165.084,355.879 146.144,359.431 136.500,357.312 Z M 131.250,327.220 C 130.425,327.108 127.838,326.764 125.500,326.457 C 118.694,325.561 109.383,322.967 98.750,319.003 C 94.900,317.568 90.405,315.960 88.761,315.431 C 87.117,314.902 85.130,313.857 84.344,313.109 C 83.559,312.362 80.605,308.262 77.779,304.000 C 69.904,292.120 69.728,291.542 74.287,292.488 C 75.641,292.770 79.225,293.471 82.250,294.046 C 87.216,294.991 95.704,297.559 106.750,301.456 C 126.135,308.296 137.815,309.524 154.250,306.449 C 159.418,305.482 171.469,301.730 182.250,297.731 C 189.140,295.175 192.432,294.258 201.250,292.435 C 205.835,291.488 221.239,291.634 226.888,292.678 C 234.398,294.066 240.806,295.863 248.000,298.600 C 267.520,306.024 276.185,307.995 289.321,307.998 C 298.089,308.000 304.381,307.062 310.853,304.789 C 318.851,301.980 325.463,299.551 328.411,298.340 C 334.800,295.714 354.433,291.733 355.539,292.839 C 356.130,293.430 355.252,295.023 349.248,304.250 C 343.302,313.388 342.862,313.868 339.585,314.810 C 338.026,315.258 335.288,316.181 333.500,316.861 C 324.668,320.221 322.319,321.050 317.000,322.681 C 307.294,325.659 300.874,326.812 291.250,327.308 C 277.458,328.020 267.302,326.173 250.000,319.809 C 247.387,318.848 243.900,317.582 242.250,316.995 C 240.600,316.409 238.800,315.743 238.250,315.515 C 236.394,314.745 231.775,313.512 227.500,312.644 C 224.336,312.002 220.758,311.781 213.500,311.782 C 204.671,311.782 203.199,311.910 197.917,313.136 C 194.709,313.880 189.534,315.409 186.417,316.533 C 183.300,317.656 178.387,319.360 175.500,320.318 C 172.613,321.276 169.575,322.368 168.750,322.744 C 166.768,323.648 160.288,325.303 155.000,326.256 C 150.963,326.983 134.445,327.654 131.250,327.220 Z M 129.000,297.453 C 127.763,297.211 125.287,296.757 123.500,296.443 C 115.786,295.092 92.449,286.097 89.593,283.375 C 87.250,281.141 84.726,277.651 81.186,271.750 C 73.086,258.250 69.967,246.409 69.980,229.213 C 69.988,219.008 71.308,211.665 75.096,200.750 C 76.673,196.205 78.135,193.260 81.675,187.500 C 87.399,178.186 90.651,173.848 95.543,169.000 C 102.926,161.683 103.065,161.324 104.728,145.250 C 105.790,134.987 107.576,129.603 112.165,122.840 C 116.812,115.991 120.178,112.848 125.916,110.002 C 132.581,106.696 144.070,104.106 145.780,105.525 C 146.440,106.073 146.278,106.407 144.543,108.074 C 142.068,110.452 140.402,113.285 139.000,117.500 C 138.053,120.350 137.901,122.072 137.768,131.500 C 137.641,140.538 137.458,142.768 136.617,145.500 C 135.238,149.986 134.056,152.826 132.375,155.696 C 131.587,157.041 131.124,158.315 131.346,158.526 C 131.568,158.737 132.988,158.978 134.500,159.062 C 136.164,159.154 137.645,159.548 138.250,160.059 C 138.800,160.524 140.194,161.183 141.348,161.523 C 143.528,162.166 147.084,164.773 153.968,170.772 C 158.853,175.030 163.651,177.708 168.576,178.925 C 171.779,179.717 172.567,179.750 174.727,179.185 C 176.089,178.829 177.297,178.631 177.412,178.745 C 178.086,179.419 176.617,181.747 173.974,184.194 C 163.446,193.941 151.807,197.483 140.219,194.467 C 135.826,193.323 128.992,190.551 122.500,187.280 C 115.227,183.614 113.195,183.683 109.255,187.729 C 104.011,193.116 101.863,199.670 101.793,210.500 C 101.706,224.142 105.781,234.957 114.739,244.856 C 120.870,251.631 133.863,259.388 142.500,261.429 C 157.101,264.880 159.168,265.166 167.681,264.910 C 176.748,264.637 177.042,264.467 175.225,260.544 C 172.998,255.738 169.537,251.117 165.114,247.044 L 160.784,243.057 L 162.117,242.551 C 162.850,242.272 165.406,241.784 167.798,241.465 C 178.319,240.065 187.197,243.515 198.000,253.202 C 200.338,255.298 203.165,257.460 204.283,258.006 C 206.261,258.973 210.001,259.378 209.999,258.625 C 209.998,257.896 208.578,251.229 208.097,249.693 C 206.829,245.649 201.710,237.047 199.045,234.485 C 196.807,232.333 191.706,228.363 190.675,227.971 C 190.029,227.726 189.500,227.330 189.500,227.093 C 189.500,225.979 192.626,225.320 198.927,225.107 C 204.617,224.915 206.318,225.047 210.427,226.004 C 220.755,228.408 227.425,232.075 241.791,243.250 C 243.912,244.900 245.937,246.465 246.291,246.727 C 246.705,247.034 247.348,247.009 248.092,246.657 C 248.729,246.356 250.262,245.850 251.500,245.532 C 252.738,245.214 254.200,244.761 254.750,244.526 C 255.300,244.290 257.059,243.593 258.658,242.977 C 268.369,239.237 276.303,230.608 280.263,219.482 C 281.330,216.486 281.790,207.965 281.067,204.594 C 279.785,198.617 275.911,193.017 271.500,190.765 C 266.774,188.352 263.784,187.880 254.677,188.108 L 246.250,188.319 L 239.401,190.658 C 235.634,191.944 230.572,193.864 228.151,194.925 C 220.087,198.457 217.989,199.000 212.406,199.000 C 206.711,199.000 204.764,198.356 201.176,195.285 C 199.596,193.932 199.039,192.997 198.516,190.819 C 197.807,187.861 198.140,181.659 199.057,180.750 C 199.394,180.415 200.248,180.995 201.637,182.500 C 205.256,186.423 209.966,188.883 210.016,186.875 C 210.159,181.096 211.112,177.500 212.499,177.500 C 212.760,177.500 213.303,178.135 213.704,178.912 C 214.623,180.689 218.312,183.167 220.039,183.167 C 220.827,183.167 222.917,182.048 225.299,180.351 C 230.426,176.697 242.297,170.667 245.226,170.228 C 246.477,170.040 247.500,169.714 247.500,169.503 C 247.500,168.770 243.934,166.404 240.297,164.724 C 236.394,162.921 230.431,162.026 226.824,162.703 C 225.243,163.000 224.962,163.284 224.480,165.072 C 224.179,166.190 224.040,167.383 224.170,167.723 C 224.301,168.063 224.231,168.626 224.016,168.974 C 223.401,169.969 221.678,169.151 218.696,166.451 C 214.147,162.331 212.630,163.154 210.536,170.875 C 210.182,172.182 209.669,173.000 209.205,173.000 C 207.954,173.000 205.416,171.497 202.331,168.929 C 200.726,167.593 199.122,166.500 198.767,166.500 C 197.536,166.500 196.813,168.093 196.767,170.910 C 196.731,173.097 196.537,173.777 195.912,173.898 C 194.562,174.158 190.761,172.079 188.336,169.755 C 185.235,166.784 184.243,163.549 184.270,156.500 C 184.294,150.504 185.146,148.007 188.399,144.395 C 190.919,141.597 193.584,140.515 198.608,140.250 C 211.144,139.590 219.266,136.015 224.731,128.754 C 230.964,120.471 232.162,119.923 250.500,116.961 C 263.900,114.797 271.250,112.356 278.397,107.697 C 283.457,104.399 288.568,99.222 292.291,93.625 C 293.800,91.356 295.222,89.500 295.450,89.500 C 296.174,89.500 298.137,95.621 298.485,98.965 C 299.082,104.686 297.912,109.471 294.209,116.449 C 292.984,118.758 292.097,120.763 292.237,120.904 C 292.378,121.045 293.451,120.870 294.622,120.515 C 297.495,119.644 308.056,119.167 314.500,119.616 C 317.387,119.818 321.775,120.458 324.250,121.040 C 328.625,122.068 338.622,125.643 339.869,126.625 C 340.875,127.417 340.080,128.000 337.995,128.000 C 332.758,128.000 326.132,130.630 321.991,134.353 C 320.621,135.585 319.500,136.808 319.500,137.072 C 319.500,138.090 325.626,139.998 333.000,141.275 C 335.337,141.680 337.700,142.214 338.250,142.462 C 344.283,145.178 348.311,147.385 351.112,149.510 C 355.065,152.509 359.228,157.185 358.842,158.192 C 358.635,158.729 357.113,158.940 352.411,159.085 C 346.602,159.263 346.093,159.364 343.500,160.836 C 341.769,161.820 340.750,162.731 340.750,163.296 C 340.750,163.842 342.215,165.233 344.500,166.855 C 346.562,168.319 349.438,170.357 350.891,171.383 C 354.613,174.014 358.660,179.013 361.001,183.870 C 362.100,186.152 363.000,188.214 363.000,188.452 C 363.000,188.691 363.332,189.525 363.737,190.306 C 364.142,191.087 364.308,191.892 364.105,192.095 C 363.902,192.298 362.389,192.143 360.743,191.750 C 356.849,190.821 351.557,190.769 351.216,191.657 C 351.078,192.019 351.313,193.650 351.740,195.282 C 353.575,202.307 354.171,208.574 354.211,221.250 C 354.248,233.210 354.031,235.974 352.441,243.750 C 350.796,251.799 349.019,257.601 345.412,266.698 C 343.122,272.472 337.359,283.842 336.052,285.161 C 335.556,285.663 334.222,286.281 333.089,286.536 C 331.955,286.790 329.574,287.665 327.798,288.478 C 323.710,290.350 319.552,291.719 319.156,291.323 C 318.989,291.155 319.435,290.170 320.148,289.134 C 321.769,286.778 322.660,284.460 322.142,283.942 C 321.925,283.725 320.061,283.788 317.999,284.081 C 313.647,284.700 300.726,284.312 297.750,283.472 C 296.650,283.162 294.288,282.485 292.500,281.969 C 290.712,281.453 288.326,280.888 287.197,280.713 L 285.144,280.395 L 282.124,284.573 C 280.464,286.870 277.608,290.185 275.779,291.939 L 272.453,295.128 L 268.851,294.877 C 265.346,294.632 263.657,294.135 253.250,290.288 C 243.637,286.735 235.902,284.524 229.500,283.500 C 227.438,283.170 224.527,282.697 223.033,282.450 C 219.361,281.842 208.689,281.881 203.487,282.522 C 198.342,283.156 188.023,285.600 183.250,287.317 C 181.325,288.009 178.512,288.983 177.000,289.480 C 175.488,289.977 172.113,291.182 169.500,292.156 C 163.307,294.467 156.787,296.307 151.500,297.235 C 146.816,298.058 132.787,298.194 129.000,297.453 Z M 323.436,274.021 C 329.677,272.229 330.234,271.697 332.084,265.750 C 332.907,263.106 333.890,255.765 333.481,255.318 C 333.263,255.079 331.668,255.343 329.918,255.908 C 323.650,257.932 314.456,258.373 299.256,257.380 L 297.262,257.250 L 296.211,260.302 C 295.633,261.981 294.112,265.278 292.830,267.629 C 291.549,269.980 290.500,272.044 290.500,272.214 C 290.500,272.702 292.780,273.447 296.671,274.232 C 302.226,275.351 303.214,275.417 311.750,275.243 C 318.038,275.114 320.539,274.853 323.436,274.021 Z M 320.500,249.010 C 324.260,248.465 329.015,247.023 331.895,245.554 C 333.803,244.580 333.910,244.401 334.078,241.909 C 334.366,237.636 333.052,227.852 332.056,226.856 C 331.766,226.566 329.720,227.151 326.669,228.394 C 319.660,231.252 316.133,232.031 308.742,232.355 L 302.234,232.640 L 301.319,238.695 C 300.815,242.025 300.292,245.446 300.156,246.297 C 299.911,247.829 299.937,247.850 302.829,248.420 C 308.512,249.539 315.281,249.765 320.500,249.010 Z M 314.617,222.964 C 319.585,222.270 325.127,220.227 327.965,218.045 L 329.179,217.110 L 328.067,214.430 C 326.190,209.907 321.848,203.030 320.858,203.014 C 320.368,203.006 318.817,203.583 317.411,204.295 C 313.895,206.077 308.029,207.879 303.347,208.615 C 299.811,209.172 299.451,209.331 299.667,210.241 C 300.971,215.737 301.484,218.571 301.491,220.314 C 301.496,221.449 301.784,222.613 302.131,222.902 C 303.371,223.930 307.546,223.951 314.617,222.964 Z M 302.000,199.502 C 303.788,199.189 306.234,198.712 307.436,198.443 C 309.696,197.938 314.228,195.845 314.694,195.091 C 315.528,193.740 302.483,183.269 295.708,179.850 C 293.244,178.607 287.696,176.500 286.886,176.500 C 286.667,176.500 285.726,177.691 284.795,179.147 C 283.863,180.602 282.741,182.092 282.301,182.458 C 281.860,182.823 281.500,183.287 281.500,183.488 C 281.500,183.688 283.019,185.048 284.875,186.509 C 288.744,189.555 291.902,193.158 294.110,197.047 C 295.850,200.112 296.331,200.537 297.746,200.266 C 298.298,200.160 300.212,199.816 302.000,199.502 Z M 248.426,142.038 C 251.494,140.473 255.462,135.425 254.859,133.855 C 254.709,133.463 253.851,132.995 252.952,132.815 C 248.521,131.929 241.826,135.310 239.225,139.747 C 238.551,140.897 238.000,141.994 238.000,142.185 C 238.000,143.748 245.274,143.646 248.426,142.038 Z" fill="#000000" fill-rule="evenodd" /></svg>