<svg xmlns="http://www.w3.org/2000/svg" viewBox="0 0 443 503" width="443" height="503"><path d="M 253.000,487.090 C 252.312,486.994 251.536,486.709 251.275,486.458 C 251.014,486.206 250.084,486.000 249.208,486.000 C 248.004,486.000 247.549,485.740 247.338,484.934 C 247.112,484.071 246.839,483.943 245.905,484.262 C 243.258,485.165 241.134,484.706 231.000,481.042 C 223.381,478.288 213.259,472.420 205.844,466.459 C 199.504,461.362 191.552,452.358 186.007,444.000 C 178.110,432.095 171.813,424.761 166.593,421.388 C 161.858,418.328 162.563,418.595 145.750,413.489 C 136.235,410.599 131.731,409.147 130.250,408.492 C 129.700,408.249 127.003,407.004 124.256,405.725 C 121.509,404.446 117.796,402.825 116.006,402.122 C 114.215,401.418 112.525,400.677 112.250,400.475 C 111.975,400.272 110.906,399.633 109.875,399.053 C 108.844,398.474 107.243,397.571 106.319,397.047 C 105.394,396.523 104.100,395.792 103.444,395.422 C 102.787,395.052 101.199,393.900 99.913,392.861 C 97.521,390.926 96.455,391.041 97.557,393.115 C 97.889,393.739 99.376,396.028 100.862,398.200 C 103.355,401.848 103.536,402.305 103.223,404.159 C 103.037,405.263 102.461,406.860 101.944,407.708 C 101.194,408.938 101.003,410.236 101.002,414.125 C 101.001,416.889 100.793,419.000 100.522,419.000 C 99.405,419.000 96.146,416.256 94.272,413.737 C 88.767,406.339 84.041,393.103 84.011,385.000 C 84.003,382.735 82.377,376.108 81.374,374.250 C 79.996,371.698 73.767,361.104 72.934,359.895 C 72.420,359.150 72.000,358.264 72.000,357.925 C 72.000,357.587 71.345,355.946 70.546,354.280 C 66.468,345.785 63.589,333.683 62.748,321.500 C 62.417,316.708 63.113,304.293 64.024,298.750 C 65.241,291.339 67.668,282.439 69.785,277.625 C 70.178,276.731 70.804,275.269 71.177,274.375 C 73.354,269.147 74.576,266.669 77.531,261.500 C 82.712,252.435 87.083,246.640 95.250,238.012 C 101.688,231.210 104.210,229.120 112.965,223.331 C 124.311,215.827 137.584,208.598 143.500,206.699 C 147.327,205.470 153.194,205.295 159.500,206.222 C 172.271,208.098 177.550,210.509 186.158,218.395 C 187.482,219.609 188.688,220.479 188.837,220.329 C 189.533,219.634 182.100,210.526 178.948,208.212 C 176.620,206.503 169.445,202.778 166.250,201.621 C 159.672,199.238 151.722,197.795 147.490,198.216 C 146.258,198.339 143.450,198.576 141.250,198.744 C 134.631,199.248 124.971,200.978 121.250,202.327 C 116.190,204.161 116.000,204.201 116.002,203.433 C 116.004,203.057 116.701,200.959 117.553,198.770 C 118.861,195.406 119.112,194.053 119.175,190.020 C 119.270,183.977 117.927,180.145 114.321,176.169 C 111.669,173.246 105.063,168.661 101.500,167.271 C 94.434,164.514 80.994,162.375 76.785,163.338 C 75.385,163.659 74.364,163.684 74.190,163.404 C 74.033,163.149 75.117,161.660 76.598,160.095 C 79.858,156.653 81.197,154.528 82.535,150.676 C 85.369,142.513 85.187,139.616 81.332,131.500 C 80.223,129.164 78.466,126.884 75.087,123.394 C 70.880,119.048 69.853,118.278 65.318,116.067 C 62.530,114.709 59.410,113.251 58.384,112.828 C 55.858,111.787 47.468,110.000 45.104,110.000 C 44.052,110.000 42.787,109.704 42.292,109.343 C 41.442,108.721 41.457,108.644 42.571,107.938 C 43.220,107.527 45.937,106.108 48.610,104.785 C 56.203,101.026 59.839,96.625 61.037,89.745 C 61.649,86.236 61.404,80.741 60.567,79.152 C 60.305,78.656 59.392,76.714 58.537,74.836 C 55.649,68.487 52.051,64.145 44.750,58.193 C 41.817,55.802 31.502,48.893 27.375,46.555 C 22.362,43.716 24.259,43.181 32.061,45.234 C 34.640,45.913 40.688,47.482 45.500,48.720 C 50.312,49.958 56.388,51.639 59.000,52.456 C 71.532,56.372 83.723,60.283 88.250,61.839 C 91.000,62.784 95.612,64.329 98.500,65.272 C 101.388,66.215 104.141,67.215 104.618,67.494 C 105.096,67.772 105.771,68.000 106.118,68.000 C 106.643,68.000 116.793,71.913 120.250,73.449 C 120.800,73.693 122.375,74.343 123.750,74.893 C 139.666,81.261 167.087,94.749 180.750,102.930 C 202.394,115.889 205.183,117.799 217.624,128.175 C 222.207,131.997 225.500,137.611 225.500,141.602 C 225.500,142.384 225.072,144.201 224.548,145.637 C 220.107,157.827 219.825,159.104 219.826,167.000 C 219.827,172.221 220.015,173.785 220.967,176.500 C 223.578,183.941 227.319,189.882 232.311,194.513 C 237.353,199.190 246.205,204.949 249.625,205.776 C 251.614,206.257 251.294,205.495 248.681,203.526 C 241.340,197.993 235.000,191.404 235.000,189.308 C 235.000,187.946 241.773,187.449 260.250,187.455 C 272.584,187.460 281.659,187.909 291.750,189.016 C 302.287,190.171 302.500,190.179 302.500,189.428 C 302.500,188.176 297.855,180.865 295.570,178.520 C 286.088,168.788 283.000,164.905 283.000,162.714 C 283.000,162.115 282.413,160.303 281.695,158.687 C 280.227,155.385 278.964,150.963 279.322,150.383 C 279.815,149.586 280.381,150.117 283.442,154.250 C 285.173,156.587 287.863,159.636 289.420,161.025 C 293.180,164.379 301.114,168.331 309.500,171.026 C 311.288,171.601 313.665,172.505 314.783,173.035 C 315.901,173.566 317.172,174.000 317.607,174.000 C 318.498,174.000 323.256,176.416 325.664,178.091 C 326.537,178.698 329.867,181.738 333.064,184.847 C 336.262,187.956 339.300,190.525 339.814,190.555 C 340.972,190.624 343.202,190.448 343.386,190.274 C 343.461,190.202 340.311,186.889 336.386,182.909 C 331.999,178.461 326.842,173.867 323.000,170.983 C 312.806,163.332 309.268,158.847 307.302,151.085 C 306.422,147.611 306.239,143.220 306.956,142.777 C 307.206,142.622 308.212,143.928 309.191,145.678 C 311.546,149.889 315.871,155.368 318.573,157.563 C 320.741,159.324 326.670,163.049 330.000,164.741 C 337.786,168.699 347.328,177.076 352.076,184.123 C 355.505,189.212 356.832,190.000 361.969,190.000 C 365.826,190.000 370.423,190.729 373.121,191.768 C 375.486,192.679 383.182,197.616 385.537,199.732 C 390.603,204.286 399.302,209.687 402.750,210.420 C 404.125,210.713 406.600,211.230 408.250,211.570 C 419.921,213.976 429.962,224.085 429.993,233.459 C 429.997,234.674 429.759,237.049 429.465,238.737 C 429.006,241.378 428.744,241.878 427.590,242.315 C 426.681,242.661 426.032,243.455 425.571,244.787 C 424.584,247.641 423.605,249.000 422.538,249.000 C 421.762,249.000 421.538,248.480 421.253,246.023 C 421.063,244.385 420.647,242.845 420.329,242.600 C 419.761,242.164 416.753,241.322 413.714,240.749 C 412.407,240.503 412.091,240.654 411.583,241.767 C 410.679,243.752 407.921,247.000 407.140,247.000 C 406.617,247.000 406.473,246.285 406.553,244.080 C 406.611,242.475 406.497,240.900 406.300,240.580 C 405.866,239.878 403.348,239.912 399.043,240.679 L 395.837,241.250 L 394.278,245.000 C 392.287,249.787 391.482,249.868 390.550,245.375 C 389.736,241.449 390.032,241.550 383.610,243.028 L 379.145,244.056 L 377.999,246.503 C 376.290,250.151 374.910,250.266 374.163,246.823 C 373.869,245.463 373.757,245.411 371.802,245.722 C 369.722,246.053 366.977,246.899 364.250,248.049 C 363.425,248.397 361.850,248.922 360.750,249.216 C 357.797,250.005 358.000,251.427 361.198,252.359 C 362.545,252.752 364.171,253.417 364.812,253.837 C 365.453,254.257 366.714,254.790 367.614,255.022 C 368.514,255.253 371.837,256.141 375.000,256.995 C 378.196,257.858 383.748,258.868 387.500,259.268 C 394.913,260.060 394.346,260.207 396.102,257.037 C 397.420,254.658 398.687,255.015 399.447,257.981 L 400.083,260.462 L 402.352,260.416 C 404.330,260.377 404.725,260.180 405.435,258.886 C 406.797,256.405 408.106,254.906 408.534,255.339 C 408.757,255.565 409.010,256.875 409.095,258.250 C 409.272,261.100 408.686,260.927 415.875,260.247 C 419.886,259.867 420.000,259.886 420.000,260.934 C 420.000,264.336 414.795,270.574 409.367,273.678 C 408.203,274.343 406.012,275.187 404.500,275.553 C 400.897,276.423 387.540,276.446 379.750,275.594 C 373.248,274.883 362.299,275.048 358.250,275.917 C 356.875,276.212 354.738,276.648 353.500,276.885 C 352.262,277.122 349.788,278.007 348.000,278.853 C 346.212,279.699 344.188,280.553 343.500,280.752 C 342.812,280.951 339.438,282.417 336.000,284.011 C 332.562,285.604 328.307,287.378 326.542,287.954 C 323.230,289.034 320.000,289.333 320.000,288.558 C 320.000,287.931 328.336,280.862 332.414,278.032 C 333.452,277.311 333.900,276.700 333.607,276.407 C 333.163,275.963 328.022,276.581 320.250,278.013 C 308.660,280.149 287.168,282.056 283.575,281.267 C 282.697,281.074 282.000,280.602 282.000,280.200 C 282.000,279.381 284.192,275.750 284.980,275.263 C 285.909,274.688 285.529,273.926 284.396,274.090 C 283.225,274.260 279.473,278.678 273.085,287.407 C 267.952,294.424 264.800,297.946 260.216,301.793 C 254.386,306.684 244.608,313.000 242.863,313.000 C 242.486,313.000 240.738,313.697 238.979,314.549 C 235.391,316.288 232.500,316.958 232.500,316.053 C 232.500,315.735 233.055,315.264 233.734,315.006 C 234.420,314.745 236.005,312.976 237.306,311.020 C 239.630,307.526 239.643,307.482 239.343,304.272 C 239.017,300.783 237.788,297.876 235.924,296.187 C 233.821,294.282 231.390,293.848 224.962,294.232 C 221.712,294.426 218.592,294.438 218.027,294.259 C 216.638,293.818 216.731,292.673 218.219,291.891 C 219.957,290.977 224.752,285.292 225.970,282.703 C 227.192,280.103 227.278,277.989 226.245,275.990 C 225.564,274.673 224.137,273.500 223.215,273.500 C 223.022,273.500 223.002,274.503 223.169,275.728 C 223.337,276.954 223.300,278.065 223.086,278.197 C 222.871,278.329 221.808,278.239 220.723,277.995 C 219.638,277.752 216.725,277.321 214.250,277.038 C 211.775,276.754 208.512,276.295 207.000,276.016 C 204.241,275.509 195.692,274.787 186.125,274.253 L 181.000,273.967 L 181.000,275.859 C 181.000,282.225 176.223,294.779 171.316,301.306 C 166.552,307.643 156.494,315.853 150.522,318.280 C 148.832,318.967 147.271,319.417 147.052,319.282 C 146.719,319.076 147.283,316.036 148.842,309.631 C 149.020,308.900 148.850,308.411 148.352,308.220 C 147.844,308.025 147.471,306.898 147.233,304.839 C 147.037,303.140 146.687,301.250 146.456,300.639 C 146.225,300.028 145.985,298.115 145.923,296.389 L 145.812,293.250 L 152.656,286.382 C 156.420,282.605 159.500,279.174 159.500,278.757 C 159.500,277.806 159.869,277.771 154.123,279.280 C 148.654,280.716 142.610,283.320 138.500,286.010 C 136.988,287.001 134.625,288.455 133.250,289.243 C 129.448,291.421 124.872,296.105 120.002,302.802 C 115.246,309.343 114.535,310.567 113.499,314.000 C 113.125,315.238 112.660,316.475 112.465,316.750 C 112.271,317.025 111.632,319.177 111.046,321.533 C 110.065,325.481 110.019,326.398 110.459,333.283 C 111.004,341.796 111.931,345.958 114.758,352.583 C 118.320,360.931 120.503,364.022 128.489,372.027 C 132.208,375.755 136.713,379.781 138.500,380.974 C 140.287,382.167 142.200,383.516 142.750,383.971 C 143.300,384.427 144.988,385.268 146.500,385.842 C 155.955,389.424 158.580,390.000 165.457,390.000 C 171.245,390.000 175.679,389.383 176.725,388.432 C 176.986,388.194 177.698,388.000 178.306,388.000 C 179.471,388.000 186.023,384.488 187.782,382.920 C 188.350,382.414 189.025,381.988 189.282,381.973 C 189.540,381.958 191.586,380.664 193.831,379.098 C 204.265,371.816 207.023,370.006 210.750,367.990 C 212.950,366.800 215.312,365.442 216.000,364.973 C 216.688,364.503 218.277,363.771 219.532,363.347 C 220.788,362.922 223.038,362.019 224.532,361.340 C 227.730,359.888 231.100,358.747 235.250,357.712 C 236.900,357.300 239.037,356.763 240.000,356.517 C 249.129,354.187 265.631,354.631 280.500,357.606 C 283.251,358.156 286.500,359.719 286.500,360.492 C 286.500,361.008 283.710,362.000 282.258,362.000 C 281.279,362.000 276.367,363.405 273.750,364.434 C 269.635,366.051 263.203,369.845 259.250,372.988 C 256.155,375.448 248.337,384.159 243.712,390.300 C 241.414,393.353 239.188,396.136 238.767,396.486 C 238.345,396.836 238.000,397.393 238.000,397.724 C 238.000,398.055 236.512,400.063 234.693,402.186 C 231.172,406.296 225.934,410.181 221.866,411.700 C 219.307,412.655 218.000,413.677 218.000,414.724 C 218.000,415.704 219.263,416.559 220.187,416.205 C 220.799,415.970 221.000,416.191 221.000,417.098 C 221.000,417.824 221.709,418.990 222.780,420.027 C 225.738,422.890 227.987,428.383 233.105,445.250 C 233.689,447.175 234.537,449.650 234.990,450.750 C 235.444,451.850 236.351,454.438 237.007,456.500 C 240.641,467.923 248.511,477.747 258.574,483.423 C 261.605,485.132 262.337,486.098 261.271,486.982 C 260.663,487.487 256.251,487.544 253.000,487.090 Z M 232.716,467.554 C 232.868,467.309 230.593,465.478 227.660,463.486 C 221.099,459.027 210.597,449.624 205.250,443.420 C 203.050,440.868 200.332,437.761 199.209,436.515 C 198.087,435.269 195.353,431.994 193.135,429.236 C 187.653,422.420 183.031,418.236 182.297,419.423 C 182.153,419.658 182.575,420.320 183.237,420.895 C 183.899,421.471 185.458,423.473 186.701,425.346 C 187.945,427.218 190.323,430.438 191.986,432.500 C 193.649,434.562 196.726,438.500 198.824,441.250 C 203.673,447.606 206.943,450.994 213.500,456.453 C 219.944,461.819 222.457,463.543 226.562,465.415 C 229.186,466.612 231.888,467.804 232.345,467.966 C 232.398,467.985 232.565,467.799 232.716,467.554 Z M 221.000,435.584 C 221.000,435.356 220.381,434.855 219.625,434.472 C 217.409,433.348 211.528,429.296 207.750,426.291 C 202.995,422.508 199.525,419.893 197.866,418.842 C 196.693,418.099 196.440,418.075 196.204,418.689 C 195.913,419.447 203.047,426.961 206.710,429.755 C 211.200,433.179 221.000,437.177 221.000,435.584 Z M 200.754,404.993 C 201.192,404.284 204.789,402.500 205.780,402.500 C 206.230,402.500 207.420,402.140 208.424,401.699 C 211.261,400.454 211.884,400.214 217.750,398.100 C 220.775,397.009 224.336,395.811 225.664,395.438 C 228.481,394.645 229.569,393.687 228.234,393.175 C 227.751,392.989 226.320,393.230 225.053,393.709 C 223.786,394.189 221.098,395.021 219.080,395.559 C 214.554,396.766 207.924,398.966 207.250,399.484 C 206.975,399.696 205.963,400.130 205.000,400.448 C 203.213,401.038 199.500,404.116 199.500,405.007 C 199.500,405.652 200.353,405.642 200.754,404.993 Z M 192.750,396.500 C 194.551,395.675 196.217,395.000 196.451,395.000 C 196.686,395.000 197.138,394.686 197.457,394.302 C 197.776,393.918 201.010,391.910 204.643,389.841 C 212.134,385.575 212.579,385.319 219.367,381.375 C 222.088,379.794 224.507,378.500 224.743,378.500 C 224.979,378.500 225.526,378.183 225.961,377.795 C 226.778,377.064 235.891,373.003 236.717,373.001 C 236.974,373.001 238.099,372.582 239.217,372.072 C 240.335,371.561 243.613,370.634 246.500,370.012 C 253.380,368.529 253.829,368.300 250.250,368.100 C 245.078,367.811 238.506,369.083 232.750,371.489 C 232.200,371.719 230.738,372.284 229.500,372.745 C 228.262,373.205 226.575,373.884 225.750,374.253 C 216.580,378.356 216.227,378.551 199.593,388.676 C 195.712,391.038 187.500,397.063 187.500,397.547 C 187.500,398.395 189.469,398.003 192.750,396.500 Z M 251.657,298.125 C 255.222,294.405 259.316,289.735 263.947,284.109 C 268.316,278.800 279.000,264.278 279.000,263.648 C 279.000,262.695 277.815,262.858 276.345,264.015 C 274.907,265.146 269.123,272.018 265.163,277.300 C 253.083,293.414 247.000,301.617 247.000,301.792 C 247.000,302.613 248.457,301.466 251.657,298.125 Z M 235.275,284.536 C 235.536,284.281 237.213,283.525 239.000,282.855 C 244.847,280.664 251.813,276.971 255.314,274.205 C 257.204,272.712 259.962,270.537 261.443,269.371 C 264.229,267.177 269.500,261.645 269.500,260.915 C 269.500,259.749 267.296,260.845 263.545,263.875 C 261.247,265.731 258.025,268.186 256.384,269.329 C 254.743,270.472 252.804,271.967 252.075,272.650 C 250.480,274.145 243.175,278.675 238.000,281.379 C 235.938,282.456 234.177,283.712 234.088,284.169 C 233.911,285.078 234.525,285.268 235.275,284.536 Z M 328.000,266.683 C 328.000,266.509 326.481,264.760 324.625,262.796 C 320.966,258.926 317.500,252.941 315.927,247.778 C 315.420,246.113 314.752,242.275 314.443,239.250 C 313.964,234.555 314.007,233.018 314.736,228.750 C 315.205,226.000 316.035,222.772 316.579,221.576 C 317.124,220.381 317.431,219.265 317.263,219.096 C 316.574,218.408 314.207,222.149 311.497,228.212 C 310.130,231.269 308.883,238.577 309.273,241.250 C 309.719,244.313 311.496,249.967 312.886,252.750 C 315.914,258.814 323.794,267.000 326.603,267.000 C 327.372,267.000 328.000,266.857 328.000,266.683 Z M 235.538,264.000 C 245.740,262.214 251.722,260.302 261.000,255.862 C 263.644,254.597 268.794,251.238 269.269,250.469 C 269.967,249.340 268.898,249.392 265.881,250.632 C 264.159,251.340 260.837,252.649 258.500,253.541 C 256.163,254.432 254.036,255.350 253.775,255.581 C 253.514,255.811 252.715,256.000 252.000,256.000 C 251.285,256.000 250.486,256.204 250.225,256.454 C 249.964,256.703 248.963,257.139 248.000,257.423 C 247.037,257.707 245.238,258.320 244.000,258.786 C 242.762,259.251 240.963,259.806 240.000,260.019 C 237.361,260.601 228.434,263.866 227.830,264.470 C 227.036,265.264 228.999,265.145 235.538,264.000 Z M 304.000,260.735 C 304.000,260.314 303.411,258.570 302.690,256.860 C 299.225,248.634 297.747,241.134 298.232,234.250 C 298.597,229.088 299.813,223.205 300.815,221.764 C 301.677,220.522 301.683,220.000 300.835,220.000 C 300.008,220.000 297.457,223.504 296.104,226.500 C 294.075,230.992 293.752,232.669 293.794,238.500 C 293.832,243.639 294.001,244.693 295.384,248.420 C 298.085,255.695 304.000,264.150 304.000,260.735 Z M 417.152,227.109 C 416.159,224.303 411.448,221.832 411.518,224.155 C 411.539,224.836 416.567,228.438 417.103,228.155 C 417.297,228.052 417.319,227.581 417.152,227.109 Z M 378.375,219.942 C 384.089,219.156 384.223,218.696 379.857,214.862 C 376.827,212.202 375.029,211.005 370.750,208.800 C 367.442,207.096 361.882,207.337 356.125,209.436 C 353.581,210.364 351.500,211.315 351.500,211.551 C 351.500,211.977 352.966,212.870 358.390,215.750 C 360.333,216.782 361.303,217.629 361.496,218.463 C 361.794,219.746 363.962,220.813 365.261,220.315 C 365.826,220.098 365.878,219.745 365.494,218.735 C 364.746,216.767 364.916,214.483 365.987,212.125 C 366.878,210.160 367.096,210.000 368.876,210.000 C 369.934,210.000 371.070,210.270 371.400,210.600 C 372.234,211.434 372.151,216.515 371.270,218.625 C 370.427,220.642 370.695,221.126 372.476,220.806 C 373.177,220.680 375.831,220.291 378.375,219.942 Z M 136.859,189.949 C 139.549,188.821 142.498,187.565 143.413,187.158 C 148.741,184.785 169.365,177.876 174.500,176.744 C 182.860,174.900 184.864,174.430 187.375,173.717 C 188.819,173.307 190.000,172.722 190.000,172.416 C 190.000,171.705 183.236,172.114 178.000,173.142 C 175.938,173.547 172.675,174.155 170.750,174.494 C 166.050,175.322 160.565,176.779 157.371,178.048 C 155.930,178.621 153.400,179.605 151.750,180.235 C 147.167,181.983 139.594,185.714 136.250,187.871 C 134.600,188.935 132.856,189.955 132.375,190.137 C 131.621,190.423 131.078,192.000 131.734,192.000 C 131.863,192.000 134.169,191.077 136.859,189.949 Z M 107.000,154.986 C 111.388,154.537 114.692,154.272 129.750,153.157 C 137.066,152.616 166.080,152.828 174.250,153.482 C 177.825,153.769 182.381,154.134 184.375,154.294 C 187.365,154.534 188.000,154.456 188.000,153.849 C 188.000,153.445 187.381,152.990 186.625,152.839 C 185.869,152.688 182.662,152.015 179.500,151.343 C 161.427,147.501 143.527,146.916 123.500,149.513 C 110.820,151.157 107.456,151.833 97.125,154.814 C 92.042,156.280 94.006,156.314 107.000,154.986 Z M 197.269,135.021 C 194.758,132.246 171.784,123.010 154.500,117.828 C 152.988,117.374 149.725,116.545 147.250,115.986 C 144.775,115.426 141.963,114.761 141.000,114.508 C 140.037,114.255 138.688,113.941 138.000,113.810 C 137.312,113.680 135.287,113.245 133.500,112.845 C 121.680,110.197 108.764,108.479 93.042,107.465 C 82.845,106.807 68.766,107.034 67.930,107.870 C 67.090,108.710 69.378,109.075 84.500,110.516 C 89.608,111.003 96.496,111.809 105.750,113.004 C 107.400,113.217 110.888,113.745 113.500,114.178 C 116.112,114.611 119.825,115.215 121.750,115.520 C 131.970,117.143 156.514,122.811 167.000,125.971 C 179.040,129.599 182.916,130.810 188.142,132.574 C 191.382,133.667 194.757,134.877 195.642,135.262 C 197.869,136.230 198.305,136.165 197.269,135.021 Z M 131.500,358.927 C 130.262,358.681 128.064,358.343 126.614,358.177 C 124.531,357.938 123.785,357.600 123.053,356.562 C 120.747,353.290 117.917,346.450 117.259,342.552 L 116.918,340.537 L 119.584,340.811 C 122.462,341.107 129.369,342.653 133.000,343.815 C 136.734,345.009 141.783,348.063 145.705,351.500 C 149.833,355.117 149.964,356.128 146.287,355.986 C 139.516,355.724 138.488,355.912 136.650,357.750 C 135.688,358.712 134.641,359.472 134.325,359.437 C 134.009,359.403 132.738,359.173 131.500,358.927 Z M 42.196,341.375 C 42.344,339.656 42.829,336.900 43.274,335.250 C 43.782,333.364 44.106,330.007 44.147,326.210 L 44.211,320.170 L 42.594,317.971 C 40.297,314.847 37.380,313.017 34.550,312.925 C 30.775,312.801 29.343,313.044 27.934,314.047 C 27.198,314.571 26.440,315.000 26.250,315.000 C 26.060,315.000 25.282,315.443 24.521,315.985 C 23.760,316.527 23.014,316.848 22.864,316.698 C 22.002,315.835 26.755,306.932 30.043,303.250 C 30.534,302.700 32.321,299.593 34.014,296.346 C 37.013,290.596 37.091,290.346 37.054,286.690 C 36.988,280.309 34.414,276.707 29.107,275.571 C 26.664,275.048 22.847,275.517 20.626,276.613 C 19.229,277.303 18.399,276.593 19.695,275.816 C 20.215,275.505 21.884,274.179 23.404,272.870 C 24.924,271.561 26.748,270.188 27.459,269.819 C 28.169,269.450 30.212,268.326 32.000,267.322 C 38.864,263.466 45.066,260.786 53.500,258.032 C 61.959,255.270 74.125,252.458 74.780,253.114 C 74.956,253.290 74.428,254.292 73.607,255.342 C 71.408,258.152 64.682,271.695 63.472,275.750 C 62.645,278.520 60.914,282.632 60.279,283.336 C 59.988,283.658 58.025,284.823 55.917,285.926 C 48.807,289.645 39.996,297.157 37.828,301.349 C 36.718,303.495 37.531,303.822 39.577,302.053 C 46.053,296.455 58.330,288.101 59.000,288.838 C 59.207,289.064 59.091,291.275 58.742,293.750 C 57.256,304.313 56.851,310.111 57.165,316.351 C 57.605,325.098 58.806,335.152 59.831,338.664 C 60.564,341.174 60.583,341.641 59.966,342.032 C 58.808,342.764 58.308,342.553 57.250,340.887 C 54.908,337.199 48.434,338.193 44.327,342.871 C 43.540,343.767 42.678,344.500 42.412,344.500 C 42.122,344.500 42.035,343.244 42.196,341.375 Z M 231.370,181.135 C 228.706,180.745 226.973,174.680 226.908,165.522 C 226.863,159.081 227.153,157.802 230.030,151.750 C 232.433,146.695 233.173,142.860 232.423,139.346 C 231.633,135.640 229.988,132.202 227.353,128.750 C 224.590,125.129 215.526,116.926 211.594,114.486 C 210.030,113.515 207.526,111.828 206.031,110.736 C 202.708,108.309 200.642,106.998 191.159,101.295 C 174.931,91.537 173.047,90.536 148.250,78.484 C 142.312,75.598 133.785,71.972 130.131,70.779 C 128.690,70.308 127.381,69.712 127.221,69.454 C 127.062,69.195 127.646,66.906 128.520,64.367 C 129.922,60.294 130.107,59.131 130.087,54.500 C 130.067,49.775 129.904,48.850 128.453,45.250 C 124.415,35.226 120.176,29.082 112.022,21.431 C 106.633,16.375 105.808,15.234 107.163,14.714 C 107.689,14.512 124.115,22.333 135.250,28.087 C 136.350,28.656 141.188,31.094 146.000,33.506 C 154.015,37.523 160.730,41.261 175.750,50.067 C 184.216,55.031 205.594,68.902 212.315,73.792 C 219.754,79.204 227.902,85.543 231.597,88.793 C 233.606,90.560 237.275,93.723 239.750,95.823 C 247.901,102.740 262.031,117.395 265.389,122.415 C 271.405,131.409 271.527,136.180 265.957,144.552 C 262.073,150.390 261.296,152.036 260.028,157.121 C 259.268,160.164 259.031,162.214 259.246,163.871 C 259.898,168.903 261.202,173.394 263.064,177.018 C 264.129,179.090 265.000,180.920 265.000,181.085 C 265.000,181.414 233.593,181.460 231.370,181.135 Z" fill="#000000" fill-rule="evenodd" /></svg>